<svg width="62" height="60" viewBox="0 0 62 60" fill="none" xmlns="http://www.w3.org/2000/svg">
<g filter="url(#filter0_i_2444_4173)">
<path d="M31.36 35.0253C32.27 32.9453 33.81 31.7803 35.86 31.2703C39.585 30.3403 42.835 31.3403 45.735 33.7553C47.27 35.0353 48.485 36.5903 49.615 38.2203C50.03 38.8203 50.46 39.4053 50.93 39.9653C52.445 41.7703 54.36 42.7553 56.72 42.8753C56.825 42.8803 56.925 42.9003 57.03 42.9103C57.05 42.9103 57.065 42.9303 57.19 43.0003C57.135 43.9153 57.295 44.8903 57.12 45.9203C55.63 45.8903 54.245 45.6753 52.92 45.1703C50.885 44.3903 49.37 42.9553 48.06 41.2703C47.435 40.4653 46.89 39.6003 46.275 38.7853C44.73 36.7403 42.94 35.0103 40.405 34.2453C39.195 33.8753 38.31 33.8503 36.97 34.1453C36.92 34.3353 37.07 34.4003 37.18 34.4803C40.28 36.7053 41.895 39.7503 41.605 43.5303C41.21 48.6703 38.145 52.4203 32.68 53.0753C28.95 53.5203 25.56 52.4753 22.345 50.6953C20.485 49.6653 18.595 48.7203 16.485 48.2953C13.57 47.7103 10.855 48.0203 8.475 49.9603C8.415 50.0103 8.33 50.0403 8.245 50.0853C7.595 49.3853 6.95 48.6903 6.31 47.9953C6.2 47.7853 6.44 47.6553 6.63 47.5053C9.305 45.3553 12.39 44.7203 15.725 45.0753C18.35 45.3553 20.76 46.3103 23.04 47.6053C25.135 48.7953 27.31 49.7653 29.73 50.0603C31.515 50.2753 33.24 50.0903 34.905 49.3103C37.935 47.8903 38.835 44.1703 38.555 42.0753C38.155 39.0403 36.285 37.1753 33.64 35.9453C32.915 35.6053 32.155 35.3403 31.37 35.0253H31.36Z" fill="#367377"/>
<path d="M35.135 23.2703V26.2703C34.005 26.4053 32.945 26.1853 31.92 25.8903C27.775 24.6953 24.82 21.1253 24.32 16.8353C23.945 13.6053 24.665 10.7153 26.875 8.27531C28.08 6.94531 29.585 6.09031 31.32 5.62531C31.63 5.54031 31.98 5.53031 32.27 5.26531C31.83 4.83531 31.295 4.62531 30.75 4.44531C28.29 3.65031 25.94 4.11031 23.655 5.12031C21.225 6.19531 19.235 7.86031 17.585 9.91531C14 14.3753 9.515 17.5603 4.18 19.5853C3.11 19.9903 2.01 20.3003 0.89 20.5303C0.63 20.5853 0.355 20.6303 0.04 20.5053V17.7303C0.125 17.6253 0.245 17.5503 0.395 17.5203C4.235 16.7403 7.53 14.8403 10.615 12.5153C12.405 11.1653 13.935 9.55031 15.36 7.83031C17.925 4.74031 21.025 2.45031 24.975 1.46031C27.17 0.91031 29.37 0.82031 31.565 1.49031C34.14 2.28031 36.49 4.15031 35.99 8.21031C35.275 8.24531 34.54 8.28531 33.805 8.31031C30.865 8.42031 28.51 10.1053 27.64 12.9253C26.375 17.0153 28.33 21.6253 32.705 22.9203C33.48 23.1503 34.275 23.3053 35.15 23.2653L35.135 23.2703Z" fill="#367377"/>
<path d="M0 27.9903V25.0953C3.825 24.7003 7.3 23.2353 10.675 21.4603C14.055 19.6803 16.89 17.1953 19.62 14.4753C19.185 21.0453 22.17 25.7053 27.6 29.0853C27.085 29.9553 26.595 30.7803 26.06 31.6903C21.745 29.1403 18.76 25.6253 17.21 20.8453C12.475 24.3153 7.46 26.9053 1.735 27.9153C1.2 28.0103 0.635 28.1753 0 27.9903Z" fill="#367377"/>
<path d="M60.34 36.6653C60.385 37.6853 60.405 38.6553 60.3 39.6703C58.435 39.6153 56.805 39.1353 55.32 38.1903C53.94 37.3103 52.92 36.0903 52.04 34.7253C50.33 32.0653 48.27 29.7553 45.47 28.1853C43.53 27.1003 41.47 26.4553 39.245 26.3653C39.04 26.3553 38.825 26.3753 38.585 26.1903V23.3603C39.365 23.1853 40.1 23.3453 40.825 23.4453C46.305 24.2003 50.365 27.2003 53.565 31.5453C54.07 32.2303 54.515 32.9603 55 33.6653C56.1 35.2753 57.595 36.2753 59.545 36.5553C59.77 36.5853 59.995 36.6203 60.34 36.6703V36.6653Z" fill="#367377"/>
<path d="M2.725 42.7053C8.535 37.6603 18.32 37.4153 26.375 42.3553C26.3 42.6953 25.29 44.4903 24.905 44.9503C24.1 44.5553 23.295 44.1303 22.47 43.7553C19.75 42.5153 16.905 41.7903 13.9 41.8253C10.585 41.8653 7.55 42.7853 4.89 44.8203C4.825 44.8703 4.75 44.9053 4.63 44.9753C3.95 44.2653 3.34 43.5153 2.73 42.7053H2.725Z" fill="#367377"/>
<path d="M40.31 53.1603C40.98 53.9303 41.585 54.6353 42.165 55.3053C42.145 55.7103 41.875 55.8603 41.645 56.0303C39.105 57.9403 36.24 58.9953 33.09 59.3253C28.62 59.7953 24.475 58.6853 20.48 56.7953C20.37 56.7403 20.26 56.6803 20.16 56.6053C20.095 56.5603 20.045 56.4903 19.945 56.3803C20.38 55.5303 20.785 54.6603 21.355 53.8053C24.425 55.3303 27.585 56.3303 30.995 56.3753C34.45 56.4203 37.54 55.3953 40.31 53.1553V53.1603Z" fill="#367377"/>
<path d="M44.975 47.2203C45.735 46.4753 46.445 45.7803 47.19 45.0553C48.89 46.8303 50.995 48.0303 53.445 48.7103C53.205 49.7103 52.98 50.6253 52.74 51.6253C49.67 50.9453 47.2 49.3553 44.975 47.2253V47.2203Z" fill="#367377"/>
<path d="M42.24 4.04031H39.265V1.03531C40.27 1.01031 41.245 0.95031 42.24 1.07031V4.04031Z" fill="#367377"/>
<path d="M24.905 35.0553H27.845C27.99 36.0503 27.86 37.0103 27.915 38.0303H24.92C24.825 37.0503 24.825 36.0953 24.905 35.0553Z" fill="#367377"/>
<path d="M39.245 15.1353V12.2153C40.22 12.0453 41.185 12.1703 42.205 12.1353C42.355 13.1603 42.26 14.1203 42.265 15.1353H39.245Z" fill="#367377"/>
<path d="M17.085 54.9503C16.18 54.3753 15.375 53.8653 14.5 53.3103C15.035 52.4353 15.535 51.6153 16.085 50.7103C16.965 51.2503 17.8 51.7653 18.7 52.3153C18.155 53.2053 17.64 54.0453 17.085 54.9503Z" fill="#367377"/>
<path d="M29.315 43.8053C30.15 44.4403 31.08 44.7753 31.895 45.4503C31.395 46.3203 30.925 47.1353 30.41 48.0303C29.51 47.5153 28.675 47.0403 27.75 46.5153C28.275 45.6053 28.765 44.7553 29.31 43.8053H29.315Z" fill="#367377"/>
<path d="M44.635 9.41531V6.45531C45.64 6.35031 46.605 6.37531 47.605 6.48531V9.41531H44.635Z" fill="#367377"/>
<path d="M61.875 27.5103V30.3903C60.89 30.6653 59.9 30.4703 58.885 30.5003V27.5503C59.88 27.4453 60.835 27.5053 61.875 27.5103Z" fill="#367377"/>
<path d="M3.98 33.9153V30.9703H6.925C7.015 31.9653 7.045 32.9403 6.94 33.9153H3.98Z" fill="#367377"/>
<path d="M13.515 31.0003V33.8953H10.56C10.42 32.9403 10.56 31.9703 10.5 30.9353C11.565 30.9203 12.525 30.8803 13.515 31.0003Z" fill="#367377"/>
</g>
<defs>
<filter id="filter0_i_2444_4173" x="0" y="0.998047" width="61.875" height="58.4355" filterUnits="userSpaceOnUse" color-interpolation-filters="sRGB">
<feFlood flood-opacity="0" result="BackgroundImageFix"/>
<feBlend mode="normal" in="SourceGraphic" in2="BackgroundImageFix" result="shape"/>
<feColorMatrix in="SourceAlpha" type="matrix" values="0 0 0 0 0 0 0 0 0 0 0 0 0 0 0 0 0 0 127 0" result="hardAlpha"/>
<feOffset/>
<feGaussianBlur stdDeviation="2"/>
<feComposite in2="hardAlpha" operator="arithmetic" k2="-1" k3="1"/>
<feColorMatrix type="matrix" values="0 0 0 0 1 0 0 0 0 1 0 0 0 0 1 0 0 0 0.25 0"/>
<feBlend mode="normal" in2="shape" result="effect1_innerShadow_2444_4173"/>
</filter>
</defs>
</svg>
