<svg width="60" height="66" viewBox="0 0 60 66" fill="none" xmlns="http://www.w3.org/2000/svg">
<g filter="url(#filter0_i_2444_4172)">
<path d="M30.485 65.2147C30.365 64.1897 30.485 63.2298 30.465 62.2098C31.715 62.2098 32.865 62.0798 34.015 61.9248C41.17 60.9598 47.265 56.1398 49.045 49.1948C49.74 46.4898 49.64 43.7998 48.87 41.1248C48.65 40.3598 48.3 39.6498 47.8 39.0248C47.665 38.8548 47.555 38.6298 47.295 38.6198C47.11 38.6798 47.095 38.8298 47.065 38.9698C46.445 41.9248 44.395 43.7548 41.425 44.1398C37.27 44.6798 34.07 41.2998 33.72 37.7498C33.43 34.8148 34.41 32.4148 36.445 30.3598C37.35 29.4448 38.305 28.5648 39.035 27.4848C40.33 25.5648 40.98 23.4948 40.485 21.1698C40.375 20.6498 40.2 20.1448 39.95 19.6698C39.58 19.7548 39.605 20.0348 39.56 20.2648C39.255 21.8448 38.645 23.2848 37.55 24.4898C35.53 26.7148 31.725 27.0048 29.44 25.0998C27.5 23.4848 26.955 20.4048 28.15 17.8848C28.655 16.8198 29.38 15.9048 30.105 14.9948C31.88 12.7398 32.265 10.2398 31.49 7.51975C31.22 6.56975 30.74 5.74975 29.91 5.09975C30.17 6.85975 30.06 8.56975 29.54 10.2398C29.015 11.9298 28.12 13.4098 26.905 14.8248C26.135 14.1648 25.405 13.5398 24.61 12.8598C27.585 9.29475 27.87 5.64975 24.945 1.97475C26.745 0.619751 29.225 0.674751 31.19 2.06975C33.4 3.63975 34.475 5.85975 34.81 8.49975C35.245 11.9098 34.265 14.8648 32.05 17.4598C31.415 18.2048 30.865 19.0098 30.65 20.0048C30.375 21.2848 30.77 22.4348 31.705 22.9548C32.815 23.5798 34.33 23.3748 35.23 22.4748C36.365 21.3298 36.625 19.8548 36.71 18.3448C36.745 17.6848 36.635 17.0198 36.58 16.3548C36.565 16.1698 36.495 15.9848 36.65 15.7498C37.975 15.1898 39.315 15.0798 40.605 16.0048C42.28 17.1998 43.18 18.8848 43.53 20.8498C44.16 24.3648 43.065 27.4298 40.85 30.1248C40.02 31.1348 39.035 32.0198 38.17 33.0048C36.735 34.6348 36.29 36.4948 37.04 38.5698C37.795 40.6648 39.995 41.6798 42.06 40.8848C43.44 40.3548 44.01 39.2048 44.23 37.8398C44.385 36.8848 44.305 35.9298 44.155 34.9798C44.12 34.7748 44.085 34.5698 44.205 34.3098C46.065 34.3148 47.79 34.7298 49.22 36.0448C50.9 37.5948 51.775 39.5648 52.165 41.7648C53.51 49.3548 50.985 55.5198 45.145 60.3898C41.945 63.0548 38.185 64.4748 34.065 64.9898C32.91 65.1348 31.755 65.2647 30.48 65.1947L30.485 65.2147Z" fill="#EB5757"/>
<path d="M14.14 25.4298C14.995 25.3648 15.82 25.4548 16.61 25.7298C17.95 26.1948 18.835 27.4748 18.93 28.9198C19.05 30.7348 18.54 32.4598 18.23 34.2198C18.045 35.2798 17.79 36.3348 18.15 37.4198C18.75 39.2448 20.15 40.0298 22.045 39.5648C23.625 39.1798 24.46 37.7048 24.21 35.9348C23.945 34.0798 23.04 32.5398 22.045 31.0148C20.95 29.3348 20.005 27.5948 19.61 25.5898C18.96 22.2548 19.675 19.2348 21.6 16.4748C21.845 16.1198 22.045 15.7198 22.44 15.4148C23.24 15.9648 23.985 16.5798 24.67 17.1948C24.68 17.5248 24.505 17.6848 24.37 17.8648C21.88 21.2148 21.81 24.6798 23.9 28.2398C24.73 29.6548 25.75 30.9648 26.375 32.4948C27.195 34.5198 27.645 36.5848 26.94 38.7448C26.19 41.0498 24.075 42.5748 21.655 42.7548C17.295 43.0748 14.76 39.5298 14.94 35.9898C15.015 34.4848 15.39 33.0347 15.675 31.5697C15.765 31.1097 15.905 30.6498 15.85 30.1848C15.705 30.1448 15.63 30.1798 15.59 30.2598C14.62 32.4148 13.29 34.3598 11.985 36.3098C7.275 43.3548 9.37 53.4698 16.865 58.4498C17.89 59.1298 18.975 59.7048 20.08 60.2398C20.19 60.2898 20.285 60.3748 20.435 60.4748C19.985 61.3448 19.75 62.2898 19.2 63.1598C17.22 62.3098 15.395 61.2898 13.77 59.9448C9.845 56.6898 7.41 52.5648 6.645 47.5148C5.95 42.8898 6.85 38.5798 9.425 34.6448C10.315 33.2848 11.175 31.9098 12.025 30.5298C12.875 29.1598 13.44 27.6648 13.855 26.1098C13.915 25.8898 13.945 25.6598 14.135 25.4298H14.14Z" fill="#EB5757"/>
<path d="M19.995 52.2248C20.735 54.2448 22.265 54.7648 24.125 54.8448C24.255 55.8348 24.18 56.7998 24.17 57.8648C21.975 57.8648 20.005 57.3748 18.53 55.7048C16.52 53.4298 16.67 50.8648 17.685 48.2248C18.045 48.0598 18.3 48.3048 18.565 48.4348C20.24 49.2398 21.985 49.6248 23.83 49.1848C26.09 48.6498 27.69 46.6048 27.75 44.2848C27.76 43.9448 27.635 43.5748 27.89 43.2698C31.19 42.6548 33.635 44.4248 34.415 47.6498C34.625 48.5248 34.71 49.4148 34.68 50.3098C34.665 50.8548 34.74 51.3848 34.915 51.9048C35.44 53.4748 36.935 54.0998 38.41 53.3598C38.65 53.2398 38.89 53.1148 39.08 53.0148C39.77 53.7248 40.44 54.4148 41.16 55.1548C40.485 55.8598 39.495 56.3748 38.355 56.6048C34.675 57.3498 32.15 54.6098 31.73 51.6148C31.585 50.5998 31.745 49.5748 31.5 48.5698C31.325 47.8648 31.13 47.1748 30.45 46.5898C28.625 51.4998 24.905 52.8898 20 52.2148L19.995 52.2248Z" fill="#EB5757"/>
<path d="M7.555 20.9548H10.365C10.545 21.8298 10.38 22.6648 10.24 23.4898C9.73 26.5548 8.13 29.0998 6.37 31.5698C5.585 32.6698 4.805 33.7798 4.17 34.9748C3.62 36.0098 3.215 37.0948 3.15 38.2798C3.14 38.4998 3.06 38.7198 3.005 38.9548H0.13C-0.135 38.4298 0.11 37.8998 0.18 37.3898C0.51 34.9948 1.69 32.9648 3.025 31.0198C4.12 29.4248 5.315 27.8998 6.17 26.1498C6.865 24.7148 7.345 23.2248 7.39 21.6098C7.39 21.4848 7.415 21.3598 7.44 21.2398C7.455 21.1598 7.5 21.0848 7.555 20.9498V20.9548Z" fill="#EB5757"/>
<path d="M54.385 31.0098C57.765 34.5048 58.97 38.7598 59.04 43.5098C58.035 43.7098 57.07 43.5098 56.02 43.6098C55.94 39.6598 55.03 36.0648 52.28 33.2348C53 32.4798 53.675 31.7648 54.39 31.0148L54.385 31.0098Z" fill="#EB5757"/>
<path d="M26.405 64.9997C25.25 64.9197 24.205 64.6798 23.105 64.4398C23.1 63.4548 23.555 62.5798 23.655 61.5548C24.71 61.5898 25.715 61.8598 26.79 62.0298C26.66 63.0348 26.54 63.9747 26.41 64.9997H26.405Z" fill="#EB5757"/>
<path d="M47.92 28.6998C48.55 28.0998 49.265 27.4248 49.925 26.7898C50.58 27.4498 51.27 28.1498 51.99 28.8748C51.405 29.5998 50.665 30.2198 49.975 30.9198C49.285 30.1748 48.635 29.4698 47.92 28.6948V28.6998Z" fill="#EB5757"/>
<path d="M0 41.9348C1.13 41.9698 2.06 41.8748 3.03 42.0048C3.15 42.9998 3.085 43.9448 3.045 44.9498H0.135C-0.075 43.9548 0.05 42.9798 0 41.9348Z" fill="#EB5757"/>
<path d="M43.745 48.4648C44.46 49.1248 45.145 49.7548 45.89 50.4448C45.2 51.2448 44.505 51.9348 43.805 52.5948C43.085 51.8598 42.41 51.1648 41.725 50.4648C42.35 49.8448 43.055 49.1548 43.745 48.4698V48.4648Z" fill="#EB5757"/>
<path d="M44.125 8.60975H41.155V5.68975H44.125V8.60975Z" fill="#EB5757"/>
<path d="M19.945 5.67975C20.165 6.62975 19.98 7.57475 20.065 8.59975C19.03 8.78475 18.05 8.53975 17.03 8.75475C16.94 7.65475 16.94 6.68475 17.02 5.67975H19.945Z" fill="#EB5757"/>
<path d="M49.805 14.1198V17.0648H46.925C46.705 16.1048 46.865 15.1248 46.85 14.1198H49.805Z" fill="#EB5757"/>
<path d="M7.49 17.7598C7.365 16.7648 7.44 15.8048 7.465 14.8098H10.41V17.7598H7.49Z" fill="#EB5757"/>
</g>
<defs>
<filter id="filter0_i_2444_4172" x="0" y="0.990234" width="59.04" height="64.2246" filterUnits="userSpaceOnUse" color-interpolation-filters="sRGB">
<feFlood flood-opacity="0" result="BackgroundImageFix"/>
<feBlend mode="normal" in="SourceGraphic" in2="BackgroundImageFix" result="shape"/>
<feColorMatrix in="SourceAlpha" type="matrix" values="0 0 0 0 0 0 0 0 0 0 0 0 0 0 0 0 0 0 127 0" result="hardAlpha"/>
<feOffset/>
<feGaussianBlur stdDeviation="2"/>
<feComposite in2="hardAlpha" operator="arithmetic" k2="-1" k3="1"/>
<feColorMatrix type="matrix" values="0 0 0 0 1 0 0 0 0 1 0 0 0 0 1 0 0 0 0.25 0"/>
<feBlend mode="normal" in2="shape" result="effect1_innerShadow_2444_4172"/>
</filter>
</defs>
</svg>
