<svg width="65" height="57" viewBox="0 0 65 57" fill="none" xmlns="http://www.w3.org/2000/svg">
<g filter="url(#filter0_i_2444_4174)">
<path d="M55.275 19.2405C51.675 15.6605 48.235 12.2455 44.81 8.84047C44.73 9.03547 44.75 9.40547 44.76 9.76547C44.875 13.3255 44.775 16.8855 44.77 20.4455C44.77 20.9005 44.54 21.2205 44.24 21.5305C43.36 22.4405 42.495 23.3705 41.53 24.3905C41.53 24.3905 41.66 24.4805 41.76 24.5805C44.055 26.8805 46.35 29.1855 48.655 31.4705C49.04 31.8505 49.225 32.2455 49.2 32.7905C49.16 33.7055 49.2 34.6255 49.16 35.5405C49.135 36.1055 49.33 36.5055 49.735 36.9055C52.125 39.2555 54.49 41.6355 56.86 44.0105C56.915 44.0655 56.955 44.1405 57.01 44.2205C56.275 44.9055 55.55 45.5805 54.69 46.3805C54.45 46.0955 54.14 45.6755 53.78 45.3105C51.39 42.9005 48.99 40.4955 46.58 38.1055C46.26 37.7905 46.105 37.4605 46.115 37.0055C46.14 35.9455 46.115 34.8805 46.135 33.8205C46.145 33.4355 46.025 33.1605 45.75 32.8905C43 30.1655 40.26 27.4255 37.52 24.6855C37.405 24.5705 37.295 24.4455 37.13 24.2655C37.63 23.7555 38.115 23.2505 38.61 22.7605C39.51 21.8655 40.415 20.9705 41.325 20.0855C41.615 19.8055 41.715 19.5055 41.715 19.0905C41.71 14.7605 41.73 10.4255 41.74 6.09547C41.74 5.85547 41.825 5.59547 41.62 5.39047C41.355 5.33547 41.245 5.54047 41.105 5.68047C40.075 6.71047 39.05 7.75047 38.015 8.77547C37.79 9.00047 37.715 9.26047 37.715 9.56047C37.725 11.4155 37.72 13.2705 37.745 15.1205C37.75 15.5505 37.62 15.8555 37.31 16.1605C34.865 18.5755 32.435 21.0105 30 23.4305C29.9 23.5305 29.765 23.6055 29.705 23.6505C29.72 24.0505 29.95 24.1805 30.125 24.3505C30.92 25.1455 31.71 25.9455 32.505 26.7405C32.725 26.9605 32.815 27.2105 32.815 27.5205C32.805 30.4805 32.825 33.4355 32.795 36.3955C32.79 36.9005 32.92 37.2655 33.27 37.6105C34.605 38.9305 35.92 40.2605 37.25 41.5855C37.335 41.6705 37.45 41.7305 37.595 41.8305C36.955 42.7205 36.175 43.3355 35.49 44.0305C31.92 40.4255 28.38 36.8505 24.785 33.2155C25.305 32.5405 26.06 31.9255 26.785 31.1455C27.75 32.0905 28.68 33.0055 29.61 33.9205C29.66 33.8905 29.71 33.8605 29.76 33.8305C29.76 33.0505 29.76 32.2705 29.76 31.4855C29.76 30.6105 29.745 29.7355 29.77 28.8605C29.78 28.4555 29.655 28.1605 29.36 27.8705C27.76 26.2905 26.17 24.6955 24.595 23.0955C24.345 22.8455 24.075 22.7955 23.75 22.7955C22.63 22.8055 21.51 22.7955 20.28 22.7955C20.145 21.7805 20.27 20.8055 20.23 19.7555H23.285V13.4105C22.63 13.2255 21.92 13.3855 21.23 13.3205C20.445 13.2455 19.945 13.6505 19.415 14.1905C15.93 17.7155 12.405 21.2005 8.89499 24.7055C7.19999 26.3955 5.50999 28.0955 3.81499 29.7905C3.71499 29.8905 3.59999 29.9755 3.48499 30.0755C2.79999 29.3755 2.13499 28.7005 1.37499 27.9205C4.30999 24.9805 7.25999 22.0255 10.185 19.1005C10.06 18.7955 9.88499 18.8155 9.71999 18.8155C8.67999 18.8155 7.63499 18.8205 6.59499 18.8155C6.17499 18.8155 5.84999 18.9805 5.55499 19.2855C4.90999 19.9655 4.23499 20.6155 3.56499 21.2755C3.40499 21.4305 3.26499 21.6305 3.12499 21.6505C2.37999 20.9555 1.68499 20.3105 0.98999 19.6605C1.15999 19.2755 1.48499 19.0705 1.74499 18.8055C2.58999 17.9405 3.45999 17.1005 4.28999 16.2255C4.61999 15.8805 4.97999 15.7405 5.44999 15.7405C7.90999 15.7555 10.365 15.7455 12.825 15.7505C13.055 15.7505 13.28 15.7505 13.535 15.7505C15.095 14.1855 16.675 12.6455 18.2 11.0555C18.71 10.5205 19.235 10.2455 19.985 10.2555C22.085 10.2905 24.185 10.2655 26.265 10.2655C26.475 10.5305 26.415 10.8105 26.42 11.0755C26.425 13.5555 26.43 16.0305 26.43 18.5105C26.43 18.8005 26.455 19.1005 26.395 19.3805C26.185 20.3505 26.585 21.0305 27.39 21.5505C27.565 21.5605 27.675 21.4255 27.79 21.3105C29.97 19.1305 32.145 16.9455 34.325 14.7655C34.59 14.5005 34.735 14.2005 34.725 13.8205C34.685 11.9655 34.8 10.1155 34.665 8.26047C34.64 7.94047 34.76 7.69047 34.97 7.47547C37.13 5.30547 39.29 3.14047 41.44 0.980469C46.735 6.27047 52 11.5305 57.36 16.8855C58.13 16.0005 58.81 15.2255 59.58 14.3455C60.285 15.0855 60.8 15.6505 61.335 16.1905C62.145 17.0005 62.965 17.8005 63.785 18.6005C64.015 18.8255 64.19 19.0605 64.185 19.4105C64.175 21.4505 64.185 23.4955 64.18 25.5355C64.18 25.6355 64.135 25.7305 64.1 25.8755H61.285C61.065 25.6555 61.13 25.4155 61.13 25.1905C61.13 23.9205 61.08 22.6455 61.15 21.3805C61.19 20.6005 60.985 20.0205 60.39 19.5255C60.175 19.3455 60.055 19.0455 59.865 18.7605C56.635 22.0105 53.58 25.0905 50.545 28.1455C49.76 27.3305 49.09 26.6355 48.445 25.9655C50.69 23.7455 52.98 21.4855 55.265 19.2255L55.275 19.2405Z" fill="#2B61C1"/>
<path d="M27.64 54.6655H24.765C24.58 54.4155 24.65 54.1805 24.645 53.9605C24.645 51.7755 24.635 49.5855 24.65 47.4005C24.65 47.0155 24.545 46.7255 24.275 46.4555C21.655 43.8605 19.05 41.2555 16.43 38.6655C16.115 38.3555 15.965 38.0155 15.955 37.5655C15.925 36.1905 15.84 34.8205 15.985 33.4505C16.055 32.7905 15.85 32.2505 15.335 31.7855C14.55 31.0705 13.83 30.2905 13.07 29.5455C12.77 29.2505 12.625 28.9305 12.635 28.4955C12.66 27.3905 12.64 26.2905 12.645 25.1855C12.645 24.9805 12.595 24.7655 12.78 24.5305H15.7C15.7 25.3855 15.74 26.2305 15.685 27.0705C15.65 27.6305 15.86 28.0005 16.235 28.3805C17.12 29.2605 17.965 30.1805 18.99 31.2505C18.99 32.4855 19.05 33.9655 18.97 35.4355C18.915 36.4305 19.185 37.1305 19.93 37.8405C22.43 40.2255 24.845 42.7055 27.29 45.1455C27.515 45.3705 27.705 45.5955 27.705 45.9455C27.695 48.7555 27.695 51.5705 27.69 54.3805C27.69 54.4605 27.66 54.5405 27.635 54.6755L27.64 54.6655Z" fill="#2B61C1"/>
<path d="M49.25 49.5005V52.3855C49.03 52.6105 48.785 52.5505 48.565 52.5505C47.19 52.5605 45.815 52.5505 44.445 52.5605C44.115 52.5605 43.835 52.4905 43.595 52.2555C41.75 50.4205 39.905 48.5905 38.06 46.7555C37.97 46.6655 37.89 46.5705 37.895 46.4255C38.585 45.7605 39.28 45.0905 40 44.3955C40.37 44.6005 40.645 45.0055 40.98 45.3355C42.225 46.5605 43.46 47.8005 44.675 49.0555C44.975 49.3655 45.29 49.5155 45.715 49.5055C46.855 49.4905 48 49.5055 49.25 49.5055V49.5005Z" fill="#2B61C1"/>
<path d="M12.425 46.4005V43.4205H15.4C15.475 44.4155 15.465 45.3955 15.4 46.4005H12.42H12.425Z" fill="#2B61C1"/>
<path d="M59.38 35.8205V38.7655H56.44V35.8205H59.38Z" fill="#2B61C1"/>
<path d="M61.175 32.1605V29.1605C62.185 29.1205 63.155 29.1005 64.165 29.1805V32.1505C63.175 32.2455 62.195 32.2105 61.175 32.1605Z" fill="#2B61C1"/>
<path d="M20.375 51.4055H17.445V48.4155H20.375V51.4055Z" fill="#2B61C1"/>
<path d="M34.69 53.3105V56.2355C33.705 56.4005 32.745 56.2555 31.725 56.3105C31.59 55.2655 31.665 54.2905 31.675 53.3105H34.69Z" fill="#2B61C1"/>
<path d="M36.185 30.2855H39.135C39.22 31.3055 39.21 32.2805 39.135 33.2755H36.185V30.2855Z" fill="#2B61C1"/>
<path d="M46.145 46.3555V43.4105H49.135C49.215 44.4055 49.205 45.3655 49.145 46.3905C48.125 46.4205 47.165 46.4805 46.145 46.3555Z" fill="#2B61C1"/>
<path d="M41.92 41.7155C41.32 41.0855 40.555 40.4905 39.985 39.7505C40.695 39.0055 41.36 38.3055 42.015 37.6155C42.75 38.3205 43.45 38.9905 44.135 39.6455C43.4 40.3305 42.7 40.9905 41.925 41.7155H41.92Z" fill="#2B61C1"/>
<path d="M10.295 32.7755V35.7905H7.32499V32.8855C8.27999 32.7205 9.24999 32.9005 10.295 32.7805V32.7755Z" fill="#2B61C1"/>
</g>
<defs>
<filter id="filter0_i_2444_4174" x="0.98999" y="0.980469" width="63.1951" height="55.3359" filterUnits="userSpaceOnUse" color-interpolation-filters="sRGB">
<feFlood flood-opacity="0" result="BackgroundImageFix"/>
<feBlend mode="normal" in="SourceGraphic" in2="BackgroundImageFix" result="shape"/>
<feColorMatrix in="SourceAlpha" type="matrix" values="0 0 0 0 0 0 0 0 0 0 0 0 0 0 0 0 0 0 127 0" result="hardAlpha"/>
<feOffset/>
<feGaussianBlur stdDeviation="2"/>
<feComposite in2="hardAlpha" operator="arithmetic" k2="-1" k3="1"/>
<feColorMatrix type="matrix" values="0 0 0 0 1 0 0 0 0 1 0 0 0 0 1 0 0 0 0.25 0"/>
<feBlend mode="normal" in2="shape" result="effect1_innerShadow_2444_4174"/>
</filter>
</defs>
</svg>
