<svg width="62" height="60" viewBox="0 0 62 60" fill="none" xmlns="http://www.w3.org/2000/svg">
<g filter="url(#filter0_i_2444_4171)">
<path d="M24.73 28.2242C25.04 27.3192 25.35 26.4292 25.68 25.4642C26.485 25.7692 27.205 26.0142 27.91 26.3092C30.74 27.4942 33.38 29.0342 36.02 30.5792C38.37 31.9542 40.875 32.9642 43.57 33.4192C49.04 34.3442 54.11 32.5842 57 27.7692C60.12 22.5642 58.19 15.6642 52.835 12.8042C49.395 10.9692 44.915 12.2792 43.02 15.6792C41.79 17.8842 42.43 20.6992 44.485 22.1192C46.03 23.1892 47.995 22.9392 49.135 21.5342C49.665 20.8792 49.67 20.2792 49.1 19.5692C49.625 18.7242 50.165 17.8642 50.705 16.9992C52.5 18.1592 53.455 20.9592 51.675 23.2692C49.05 26.6742 44.085 26.7142 41.275 23.3292C38.235 19.6692 38.84 14.6592 42.645 11.3892C46.18 8.35917 51.865 7.87917 56.11 11.2692C59.19 13.7242 60.945 16.8942 61.445 20.8092C62.285 27.3792 57.81 34.1892 50.855 36.0742C46.6 37.2292 42.495 36.6592 38.455 35.1342C36.42 34.3642 34.545 33.2942 32.685 32.1842C30.285 30.7542 27.8 29.5042 25.175 28.5392C25.02 28.4842 24.86 28.4292 24.73 28.2242Z" fill="#F4B24E"/>
<path d="M51.29 42.5542C51.43 43.4992 51.31 44.4392 51.305 45.3142C51.06 45.5842 50.825 45.5342 50.6 45.5292C43.225 45.4392 36.475 43.3342 30.375 39.1842C28.025 37.5842 25.61 36.1242 22.85 35.3542C18.855 34.2342 15.095 34.5992 11.79 37.3242C8.44 40.0892 8.07 44.6892 10.915 47.8342C12.8 49.9242 16.135 49.9192 17.935 47.8342C19.18 46.3942 18.755 44.1592 17.12 43.3692C16.39 43.0142 15.795 43.3842 15.12 43.6542C14.37 43.0542 13.73 42.3342 13.03 41.5942C13.77 40.7642 14.665 40.3792 15.67 40.2492C19.34 39.7642 21.43 42.6592 21.675 45.3492C22.025 49.1792 19.03 51.7192 16 52.2992C12.26 53.0142 8.82 51.1792 7.025 47.5092C4.795 42.9592 6.185 37.5692 10.395 34.5242C14.62 31.4692 19.24 31.0692 24.115 32.5392C26.685 33.3142 29.04 34.5542 31.235 36.0842C34.24 38.1792 37.445 39.8692 40.94 40.9942C43.93 41.9542 47.01 42.3742 50.14 42.4742C50.51 42.4842 50.885 42.4142 51.295 42.5542H51.29Z" fill="#F4B24E"/>
<path d="M28.815 8.53917C29.655 9.05417 30.46 9.54917 31.33 10.0842C30.495 11.4042 29.35 12.0742 27.905 12.3142C24.865 12.8242 22.22 9.99417 21.96 7.14917C21.625 3.42417 25.12 0.519174 27.98 0.0891741C32.29 -0.560826 35.96 2.51417 37.285 6.24917C38.77 10.4342 37.085 15.3842 33.25 18.0992C31.42 19.3942 29.365 20.0342 27.17 20.3142C24.705 20.6342 22.26 20.4042 19.84 20.0242C15.325 19.3142 11.02 19.7892 6.925 22.0492C6.335 21.2292 5.87 20.3442 5.405 19.4042C6.54 18.7442 7.67 18.2442 8.85 17.8442C12.43 16.6342 16.09 16.4492 19.815 16.9492C21.795 17.2142 23.775 17.4792 25.78 17.3692C28.485 17.2192 30.925 16.4542 32.81 14.3742C35.75 11.1242 35.365 6.49417 31.925 3.95917C29.965 2.51417 27.32 2.82417 25.75 4.68417C24.755 5.86417 24.72 7.39417 25.665 8.50917C26.485 9.48417 27.595 9.55917 28.55 8.71417C28.61 8.65917 28.685 8.62417 28.81 8.53917H28.815Z" fill="#F4B24E"/>
<path d="M25.265 44.6842C25.78 43.7742 26.36 43.0042 26.975 42.1592C30.555 44.6392 34.385 46.5492 38.505 47.8592C42.635 49.1692 46.875 49.7542 51.255 49.7242V52.7442C41.75 52.8742 33.15 50.1242 25.265 44.6842Z" fill="#F4B24E"/>
<path d="M2.685 36.5692C1.765 36.1242 0.945 35.7292 0 35.2742C1.35 32.2842 3.395 29.9192 5.975 27.9992C11.23 24.0892 17.815 23.4142 21.655 24.3892C21.715 24.8742 21.415 26.5142 21.1 27.3142C17.37 26.6342 13.78 27.2192 10.37 28.8992C6.96 30.5742 4.43 33.1642 2.685 36.5692Z" fill="#F4B24E"/>
<path d="M2.38 25.4342C1.68 24.6692 1.04 23.9692 0.34 23.2092C1.03 22.4092 1.895 21.8292 2.75 21.0792C3.38 21.9192 3.955 22.6892 4.585 23.5342C3.845 24.1692 3.135 24.7792 2.38 25.4292V25.4342Z" fill="#F4B24E"/>
<path d="M32.785 57.2792C32.255 58.2342 31.925 59.1492 31.345 59.9892C30.44 59.5392 29.58 59.1092 28.66 58.6492C29.12 57.7192 29.55 56.8642 30.02 55.9142C30.945 56.3692 31.82 56.7992 32.785 57.2742V57.2792Z" fill="#F4B24E"/>
<path d="M35.635 22.2892C36.575 22.7542 37.44 23.1842 38.36 23.6442C37.86 24.5592 37.53 25.4892 36.95 26.3842C36.075 25.8642 35.145 25.5742 34.285 24.9742C34.74 24.0742 35.17 23.2142 35.635 22.2892Z" fill="#F4B24E"/>
<path d="M57.765 45.7792H54.79V42.8592C55.76 42.6842 56.745 42.7542 57.765 42.8292V45.7792Z" fill="#F4B24E"/>
<path d="M26.75 53.2792C25.815 52.8192 24.95 52.3892 23.97 51.9042C24.51 51.0092 24.84 50.0592 25.44 49.1992C26.335 49.6592 27.17 50.0942 28.09 50.5642C27.64 51.4742 27.215 52.3342 26.75 53.2792Z" fill="#F4B24E"/>
<path d="M51.98 4.41417C51.27 5.12917 50.605 5.80417 49.895 6.51917C49.1 5.88917 48.46 5.14417 47.785 4.48917C48.515 3.76417 49.195 3.07917 49.94 2.33917C50.62 2.98417 51.335 3.64917 51.985 4.41417H51.98Z" fill="#F4B24E"/>
</g>
<defs>
<filter id="filter0_i_2444_4171" x="0" y="0.00195312" width="61.546" height="59.9863" filterUnits="userSpaceOnUse" color-interpolation-filters="sRGB">
<feFlood flood-opacity="0" result="BackgroundImageFix"/>
<feBlend mode="normal" in="SourceGraphic" in2="BackgroundImageFix" result="shape"/>
<feColorMatrix in="SourceAlpha" type="matrix" values="0 0 0 0 0 0 0 0 0 0 0 0 0 0 0 0 0 0 127 0" result="hardAlpha"/>
<feOffset/>
<feGaussianBlur stdDeviation="2"/>
<feComposite in2="hardAlpha" operator="arithmetic" k2="-1" k3="1"/>
<feColorMatrix type="matrix" values="0 0 0 0 1 0 0 0 0 1 0 0 0 0 1 0 0 0 0.25 0"/>
<feBlend mode="normal" in2="shape" result="effect1_innerShadow_2444_4171"/>
</filter>
</defs>
</svg>
