<svg width="63" height="61" viewBox="0 0 63 61" fill="none" xmlns="http://www.w3.org/2000/svg">
<g filter="url(#filter0_i_2444_4175)">
<path d="M29.275 41.035C30.305 43.295 31.99 44.965 34.13 46.195C36.255 47.42 38.58 47.99 41.03 48.165V51.055C40.485 51.375 39.965 51.12 39.475 51.055C34.22 50.36 29.885 48.135 27.07 43.455C26.39 42.325 25.93 41.1 25.74 39.785C25.7 39.5 25.615 39.22 25.365 39.025C24.43 38.285 23.61 37.43 22.915 36.455C22.87 36.395 22.79 36.355 22.725 36.305C21.545 38.86 21.275 44.655 25.96 49.785C25.255 50.435 24.545 51.09 23.86 51.725C23.475 51.645 23.34 51.365 23.16 51.15C20.99 48.535 19.515 45.58 19.05 42.195C18.59 38.845 19.12 35.69 21.12 32.87C21.24 32.7 21.385 32.52 21.35 32.305C21.15 31.06 21.23 29.82 21.39 28.575C21.39 28.54 21.355 28.505 21.3 28.39C19.035 29.44 17.36 31.095 16.12 33.23C14.88 35.355 14.34 37.685 14.15 40.14C13.14 40.33 12.2 40 11.145 40.08C11.265 36.43 12.31 33.14 14.415 30.225C16.555 27.26 19.36 25.255 23.07 24.73C23.935 23.705 24.8 22.695 25.975 22.03C25.89 21.66 25.605 21.635 25.35 21.56C21.425 20.455 17.87 21.38 14.555 23.55C13.88 23.995 13.26 24.52 12.52 25.075C11.865 24.355 11.2 23.615 10.495 22.835C11.605 21.855 12.68 21.045 13.845 20.37C16.68 18.725 19.72 17.84 23.02 18.02C25.035 18.13 26.99 18.58 28.685 19.725C29.46 20.245 30.215 20.51 31.125 20.355C31.92 20.22 32.7 20.365 33.48 20.47C33.625 20.49 33.765 20.545 33.97 20.375C31.475 15.66 27.33 13.66 22.155 13.245C22.155 12.25 22.08 11.285 22.285 10.275C23.41 10.225 24.47 10.41 25.52 10.64C29.445 11.51 32.795 13.34 35.26 16.595C36.395 18.09 37.175 19.755 37.475 21.625C37.54 22.035 37.725 22.345 38.075 22.595C38.86 23.16 39.46 23.915 40.07 24.65C40.2 24.805 40.27 25.02 40.5 25.075C41.76 22.375 41.8 16.595 37.235 11.64C37.96 10.975 38.69 10.305 39.445 9.615C39.995 10.075 40.365 10.625 40.75 11.155C43.05 14.295 44.41 17.775 44.31 21.715C44.25 24.125 43.635 26.4 42.21 28.395C41.97 28.735 41.89 29.065 41.93 29.495C42.02 30.49 42.065 31.49 41.855 32.48C41.82 32.65 41.745 32.85 41.92 33.005C44.675 31.875 48.65 28.195 49.095 21.28C50.07 21.21 51.05 21.25 52.085 21.355C52.08 22.67 51.885 23.895 51.58 25.1C50.575 29.065 48.605 32.4 45.175 34.755C43.82 35.685 42.345 36.325 40.71 36.57C40.42 36.615 40.12 36.68 39.935 36.93C39.205 37.91 38.3 38.7 37.32 39.415C37.275 39.45 37.25 39.515 37.17 39.64C42.375 41.305 46.725 39.68 50.71 36.315C51.37 37.04 52.015 37.76 52.655 38.465C52.455 38.91 52.11 39.12 51.81 39.365C49.29 41.415 46.435 42.795 43.22 43.255C39.85 43.735 36.62 43.29 33.78 41.195C33.575 41.045 33.34 40.915 33.085 40.96C31.92 41.17 30.765 41.06 29.605 40.93C29.505 40.92 29.395 40.9 29.295 41.03L29.275 41.035Z" fill="#835CB5"/>
<path d="M3.12501 29.42V23.195H6.18501V29.39H9.25001C9.44001 30.42 9.29001 31.38 9.36001 32.43H6.23001V38.67C5.18001 38.805 4.22001 38.7 3.16501 38.695V32.545C2.10001 32.335 1.09501 32.545 0.055008 32.39C-0.024992 31.41 -0.00999201 30.45 0.055008 29.42H3.12501Z" fill="#835CB5"/>
<path d="M58.025 38.835C55.72 38.805 53.86 36.93 53.92 34.695C53.985 32.39 55.82 30.6 58.115 30.645C60.485 30.695 62.125 32.56 62.155 34.8C62.185 37.07 60.275 38.86 58.025 38.83V38.835ZM58.04 35.775C58.605 35.795 59.065 35.34 59.075 34.755C59.085 34.245 58.62 33.735 58.11 33.705C57.6 33.675 57 34.19 56.98 34.675C56.96 35.235 57.465 35.76 58.04 35.775Z" fill="#835CB5"/>
<path d="M13.045 16.205C10.75 16.205 8.95501 14.43 8.93501 12.15C8.91501 9.89 10.785 8.01 13.05 8.01C15.32 8.01 17.18 9.88 17.175 12.155C17.165 14.385 15.31 16.205 13.045 16.205ZM14.11 12.1C14.11 11.565 13.62 11.095 13.05 11.09C12.505 11.085 11.99 11.575 11.99 12.1C11.99 12.655 12.505 13.145 13.085 13.14C13.62 13.14 14.105 12.64 14.11 12.1Z" fill="#835CB5"/>
<path d="M12.215 52.91C12.23 50.62 14.05 48.87 16.4 48.88C18.61 48.89 20.465 50.815 20.415 53.04C20.36 55.34 18.54 57.08 16.205 57.065C13.955 57.05 12.2 55.22 12.22 52.91H12.215ZM16.325 54.005C16.885 53.99 17.37 53.515 17.37 52.975C17.37 52.475 16.83 51.925 16.33 51.92C15.755 51.92 15.185 52.485 15.22 53.04C15.25 53.585 15.745 54.02 16.325 54.005Z" fill="#835CB5"/>
<path d="M49.355 55.955C47.065 55.94 45.32 54.155 45.335 51.84C45.345 49.545 47.175 47.75 49.49 47.76C51.75 47.77 53.56 49.68 53.54 52.035C53.525 54.19 51.625 55.97 49.355 55.955ZM49.415 50.825C48.815 50.825 48.335 51.295 48.335 51.88C48.335 52.44 48.85 52.91 49.445 52.905C50 52.9 50.49 52.425 50.495 51.885C50.505 51.33 49.985 50.825 49.415 50.825Z" fill="#835CB5"/>
<path d="M52.195 14.045C52.195 14.71 52.21 15.285 52.195 15.865C52.175 16.44 52.265 17.02 52.13 17.65C51.15 17.735 50.19 17.72 49.155 17.655V14.06H46.94V11.085C47.625 10.885 48.34 11.085 49.11 10.96V7.4C50.155 7.305 51.12 7.34 52.175 7.37V10.89C52.915 11.135 53.62 10.89 54.385 11.095C54.435 12.055 54.455 13.025 54.35 14.05H52.195V14.045Z" fill="#835CB5"/>
<path d="M28.955 2.51C28.975 4.035 27.915 5.17 26.45 5.195C24.985 5.22 23.82 4.06 23.795 2.55C23.78 1.19 24.995 0 26.415 0C27.82 0 28.94 1.1 28.955 2.51ZM25.97 2.78C26.215 3.005 26.47 3.09 26.75 2.9C26.925 2.78 26.955 2.59 26.865 2.41C26.705 2.09 26.445 1.985 26.1 2.115C25.925 2.295 25.875 2.495 25.97 2.78Z" fill="#835CB5"/>
<path d="M59.56 19.42C59.57 20.725 58.485 21.82 57.185 21.815C55.915 21.815 54.87 20.75 54.855 19.445C54.84 18.15 55.865 17.085 57.155 17.06C58.465 17.035 59.55 18.1 59.56 19.42ZM57.2 20.025C57.58 19.99 57.97 19.86 57.96 19.365C57.95 18.935 57.615 18.7 57.205 18.705C56.77 18.71 56.445 18.95 56.445 19.425C56.445 19.87 56.77 20 57.2 20.025Z" fill="#835CB5"/>
<path d="M36.725 58.39C36.73 57.105 37.795 56.02 39.045 56.025C40.355 56.025 41.445 57.145 41.44 58.475C41.43 59.695 40.285 60.815 39.06 60.805C37.765 60.795 36.72 59.715 36.725 58.395V58.39ZM39.68 57.935C39.29 57.66 38.895 57.535 38.52 57.935C38.295 58.18 38.17 58.485 38.44 58.76C38.745 59.075 39.135 59.1 39.52 58.89C39.965 58.645 39.845 58.29 39.685 57.93L39.68 57.935Z" fill="#835CB5"/>
<path d="M59.12 25.935C58.895 24.895 58.855 23.91 58.9 22.835C59.925 22.44 60.99 22.515 62.035 22.52C62.315 23.225 62.43 24.905 62.26 25.74C61.26 25.98 60.23 25.99 59.12 25.935Z" fill="#835CB5"/>
<path d="M41.65 7.05C41.385 5.99 41.35 4.96 41.4 3.875C42.46 3.555 43.52 3.6 44.595 3.63C44.87 4.695 44.835 5.705 44.815 6.795C43.78 7.025 42.765 7.1 41.655 7.05H41.65Z" fill="#835CB5"/>
<path d="M30.215 53.99C29.44 54.74 28.75 55.405 28.005 56.13C27.43 55.455 26.815 54.73 26.125 53.92C26.645 53.36 27.34 52.615 27.965 51.94C28.74 52.65 29.475 53.315 30.215 53.99Z" fill="#835CB5"/>
<path d="M14.065 43.335V46.295C13.09 46.41 12.13 46.35 11.12 46.33C10.945 45.325 11.065 44.36 11.02 43.32C12.07 43.27 13.025 43.25 14.065 43.335Z" fill="#835CB5"/>
<path d="M34.99 9.36C34.265 8.78 33.65 8.03 32.98 7.355C33.71 6.665 34.41 6.005 35.09 5.365C35.68 5.955 36.37 6.645 37.08 7.355C36.42 7.99 35.725 8.655 34.99 9.36Z" fill="#835CB5"/>
</g>
<defs>
<filter id="filter0_i_2444_4175" x="0.000488281" y="0" width="62.3391" height="60.8047" filterUnits="userSpaceOnUse" color-interpolation-filters="sRGB">
<feFlood flood-opacity="0" result="BackgroundImageFix"/>
<feBlend mode="normal" in="SourceGraphic" in2="BackgroundImageFix" result="shape"/>
<feColorMatrix in="SourceAlpha" type="matrix" values="0 0 0 0 0 0 0 0 0 0 0 0 0 0 0 0 0 0 127 0" result="hardAlpha"/>
<feOffset/>
<feGaussianBlur stdDeviation="2"/>
<feComposite in2="hardAlpha" operator="arithmetic" k2="-1" k3="1"/>
<feColorMatrix type="matrix" values="0 0 0 0 1 0 0 0 0 1 0 0 0 0 1 0 0 0 0.25 0"/>
<feBlend mode="normal" in2="shape" result="effect1_innerShadow_2444_4175"/>
</filter>
</defs>
</svg>
