<svg width="62" height="62" viewBox="0 0 62 62" fill="none" xmlns="http://www.w3.org/2000/svg">
<g filter="url(#filter0_i_2444_4176)">
<path d="M36.985 50.02C35.765 47.09 34.58 44.23 33.385 41.375C33.145 40.81 32.8 40.765 32.025 41.225V61.055C30.995 61.17 30.055 61.115 29.01 61.1V41.215C28.65 40.935 28.335 40.975 27.87 40.92C26.16 45.06 24.435 49.225 22.685 53.455C21.71 53.045 20.84 52.675 19.865 52.265C21.6 48.09 23.315 43.955 25.01 39.87C24.865 39.37 24.495 39.27 24.125 39.135C22.12 41.165 20.125 43.19 18.14 45.195C17.35 44.375 16.68 43.68 15.925 42.895C17.9 40.965 19.915 38.995 21.835 37.12C21.895 36.535 21.72 36.26 21.225 36.015C15.185 38.515 9.05 41.055 2.85 43.62C2.445 42.655 2.075 41.79 1.66 40.805C7.865 38.23 14.03 35.675 20.135 33.145C20.325 32.455 20.135 32.13 19.535 32.08C19.265 32.06 18.995 32.03 18.725 32.03C14.725 32.03 10.725 32.04 6.725 32.045C6.6 32.045 6.475 32.065 6.32 31.925C6.155 31.01 6.235 30.04 6.245 28.97C10.89 29.005 15.475 29.085 19.975 28.97C20.29 28.595 20.24 28.29 20.17 27.905C18.075 27.035 15.95 26.155 13.835 25.28C12.16 27.105 10.155 27.75 7.87 26.94C5.27 26.02 4.205 23.97 4.195 21.3C3.395 20.85 2.475 20.685 1.675 20.155C2.065 19.235 2.415 18.4 2.79 17.505C3.685 17.64 4.45 18.125 5.345 18.46C7.105 16.625 9.23 15.815 11.695 16.84C14.12 17.85 15.17 19.82 15.045 22.455C17.18 23.34 19.285 24.215 21.345 25.075C21.76 24.93 21.87 24.6 22.08 24.25C18.43 20.63 14.77 17.005 11.135 13.4C11.395 12.775 11.85 12.515 12.175 12.15C12.495 11.795 12.835 11.465 13.255 11.03C13.75 11.55 14.195 12.04 14.66 12.505C17.69 15.545 20.725 18.58 23.755 21.615C24.245 22.11 24.575 22.075 25.08 21.405C24.525 20.065 23.95 18.675 23.4 17.345C22.975 17.065 22.56 17.175 22.175 17.08C18.885 16.28 17.52 12.365 19.635 9.705C19.96 9.295 19.98 8.995 19.78 8.535C18.975 6.69 18.22 4.825 17.42 2.9C18.255 2.33 19.25 2.16 20.195 1.625C20.635 2.695 21.05 3.705 21.47 4.715C21.89 5.73 22.315 6.75 22.785 7.885C24.81 7.895 26.515 8.665 27.45 10.66C28.32 12.51 27.9 14.42 26.235 16.08C26.675 17.49 27.35 18.855 27.875 20.245C28.28 20.345 28.6 20.31 28.96 20.135V6.31H31.98V20.045C32.8 20.465 33.065 20.38 33.345 19.705C33.8 18.615 34.26 17.53 34.74 16.39C35.71 16.725 36.595 17.095 37.55 17.54C37.085 18.645 36.655 19.715 36.19 20.775C35.865 21.52 35.945 21.73 36.795 22.005C39.25 19.465 41.725 16.91 44.315 14.23C43.635 12.79 43.635 11.1 44.62 9.49C45.185 8.565 45.975 7.865 47 7.455C49.12 6.605 51.485 7.235 52.895 9.03C54.25 10.76 54.315 13.22 53.045 15.03C51.645 17.03 49.455 17.6 46.645 16.655C44.175 19.215 41.68 21.795 39.185 24.38C39.11 24.61 39.315 24.88 39.665 25.09C44.865 22.93 50.08 20.77 55.37 18.575C55.77 19.545 56.14 20.44 56.54 21.4C51.285 23.585 46.04 25.765 40.87 27.91C40.715 28.365 40.835 28.635 41.13 28.955C47.72 29.085 54.38 28.99 61.095 28.955V31.9C60.925 32.095 60.69 32.045 60.465 32.045C54.36 32.04 48.26 32.03 42.155 32.025C41.76 32.025 41.365 32.035 40.995 32.215C40.84 32.47 40.88 32.74 40.905 33.13C46.99 35.66 53.12 38.21 59.3 40.78C59.03 41.79 58.605 42.655 58.195 43.625C52.05 41.075 45.96 38.545 39.875 36.015C39.46 36.185 39.15 36.4 39.155 36.96C42.35 40.13 45.585 43.335 48.81 46.535C48.03 47.285 47.335 47.955 46.58 48.685C43.43 45.54 40.185 42.305 36.975 39.1C36.555 39.275 36.245 39.355 36.035 39.785C37.245 42.715 38.485 45.72 39.755 48.795C41.945 48.645 43.84 49.25 45.255 50.99C46.11 52.04 46.55 53.265 46.605 54.61C46.71 57.125 45.025 59.535 42.615 60.365C40.07 61.24 37.335 60.38 35.79 58.23C34.855 56.93 34.54 55.465 34.73 53.91C34.925 52.335 35.765 51.08 36.975 50.02H36.985ZM30.55 23.07C26.695 22.975 23.2 26.32 23.005 30.11C22.785 34.47 26.045 38 30.345 38.17C34.385 38.335 37.985 34.925 38.095 30.945C38.215 26.635 34.9 23.175 30.55 23.07ZM37.74 54.765C37.73 56.35 39.13 57.675 40.8 57.67C42.145 57.665 43.56 56.185 43.57 54.78C43.58 53.185 42.21 51.875 40.53 51.865C39.105 51.86 37.75 53.265 37.74 54.76V54.765ZM9.67 19.49C8.395 19.49 7.295 20.555 7.285 21.795C7.28 23.08 8.38 24.195 9.645 24.19C10.955 24.185 12.035 23.1 12.02 21.815C12.005 20.52 10.965 19.495 9.67 19.49ZM48.815 14.11C49.89 14.17 50.855 13.245 50.925 12.09C50.98 11.16 49.995 10.17 48.96 10.125C47.985 10.08 46.99 11.04 46.915 12.09C46.845 13.05 47.79 14.05 48.815 14.11ZM23.275 10.99C22.37 10.99 21.67 11.665 21.67 12.54C21.67 13.355 22.445 14.115 23.28 14.125C24.105 14.135 24.84 13.41 24.845 12.59C24.845 11.75 24.105 10.995 23.275 10.99Z" fill="#D8D08F"/>
<path d="M11.51 54.13C8.9 54.13 6.91 52.15 6.875 49.5C6.84 47 8.95 44.92 11.51 44.925C14.1 44.925 16.165 46.965 16.14 49.56C16.105 52.505 13.595 54.26 11.51 54.125V54.13ZM11.56 47.985C10.655 47.975 9.91 48.7 9.92 49.585C9.925 50.365 10.7 51.075 11.545 51.08C12.385 51.08 13.06 50.435 13.085 49.61C13.11 48.725 12.43 47.995 11.555 47.985H11.56Z" fill="#D8D08F"/>
<path d="M38.875 14.38C37.85 14.08 36.975 13.685 36.035 13.25C37.65 9.355 39.245 5.515 40.85 1.65C41.845 2.065 42.72 2.43 43.66 2.825C42.055 6.705 40.47 10.53 38.875 14.38Z" fill="#D8D08F"/>
<path d="M17.39 58.175C17.885 57.165 18.16 56.165 18.71 55.21C19.62 55.625 20.55 55.89 21.46 56.42C21.055 57.385 20.66 58.33 20.24 59.325C19.255 59.045 18.37 58.625 17.385 58.175H17.39Z" fill="#D8D08F"/>
<path d="M29.01 0H31.98V2.975C31.005 3.11 30.04 2.985 29.01 3.005V0Z" fill="#D8D08F"/>
<path d="M53.175 51.095C52.475 51.73 51.765 52.38 51.025 53.05C50.43 52.42 49.755 51.705 49.095 51.005C49.725 50.39 50.425 49.705 51.14 49.01C51.785 49.67 52.455 50.355 53.18 51.095H53.175Z" fill="#D8D08F"/>
<path d="M60.355 37.785C59.295 37.585 58.355 37.41 57.36 37.225C57.535 36.2 57.69 35.275 57.85 34.31C58.87 34.295 59.76 34.66 60.775 34.715C60.835 35.775 60.49 36.705 60.355 37.785Z" fill="#D8D08F"/>
<path d="M0 28.925C1.035 29.175 2 28.845 2.975 29.025V31.995H0V28.925Z" fill="#D8D08F"/>
</g>
<defs>
<filter id="filter0_i_2444_4176" x="0" y="0" width="61.095" height="61.127" filterUnits="userSpaceOnUse" color-interpolation-filters="sRGB">
<feFlood flood-opacity="0" result="BackgroundImageFix"/>
<feBlend mode="normal" in="SourceGraphic" in2="BackgroundImageFix" result="shape"/>
<feColorMatrix in="SourceAlpha" type="matrix" values="0 0 0 0 0 0 0 0 0 0 0 0 0 0 0 0 0 0 127 0" result="hardAlpha"/>
<feOffset/>
<feGaussianBlur stdDeviation="2"/>
<feComposite in2="hardAlpha" operator="arithmetic" k2="-1" k3="1"/>
<feColorMatrix type="matrix" values="0 0 0 0 1 0 0 0 0 1 0 0 0 0 1 0 0 0 0.25 0"/>
<feBlend mode="normal" in2="shape" result="effect1_innerShadow_2444_4176"/>
</filter>
</defs>
</svg>
