<svg width="27" height="27" viewBox="0 0 27 27" fill="none" xmlns="http://www.w3.org/2000/svg">
<g filter="url(#filter0_d_2475_16207)">
<path d="M16.316 6.6876L19.9857 8.04565C20.2833 8.1556 20.5401 8.35409 20.7214 8.61438C20.9028 8.87467 21 9.18426 21 9.50147C21 9.81868 20.9028 10.1283 20.7214 10.3886C20.5401 10.6489 20.2833 10.8473 19.9857 10.9573L16.3144 12.3153L14.9561 15.9859C14.8461 16.2835 14.6476 16.5402 14.3873 16.7215C14.1269 16.9028 13.8173 17 13.5 17C13.1827 17 12.8731 16.9028 12.6127 16.7215C12.3524 16.5402 12.1539 16.2835 12.0439 15.9859L10.6856 12.3153L7.01425 10.9573C6.71665 10.8473 6.4599 10.6489 6.27856 10.3886C6.09722 10.1283 6 9.81868 6 9.50147C6 9.18426 6.09722 8.87467 6.27856 8.61438C6.4599 8.35409 6.71665 8.1556 7.01425 8.04565L10.6856 6.6876L12.0439 3.017C12.1532 2.71878 12.3515 2.46132 12.6119 2.27943C12.8723 2.09754 13.1823 2 13.5 2C13.8177 2 14.1277 2.09754 14.3881 2.27943C14.6485 2.46132 14.8468 2.71878 14.9561 3.017L16.316 6.6876Z" fill="#978570"/>
<path d="M20.3323 7.10762L17.094 5.90926L15.895 2.67286C15.8948 2.67218 15.8945 2.6715 15.8943 2.67082C15.7143 2.1811 15.3885 1.75836 14.9607 1.4596L14.3881 2.27943L14.9607 1.45959C14.5324 1.16042 14.0225 1 13.5 1C12.9775 1 12.4676 1.16042 12.0393 1.45959C11.6114 1.75842 11.2855 2.18128 11.1056 2.67114C11.1054 2.67171 11.1052 2.67228 11.105 2.67286L9.90733 5.90926L6.66768 7.10762C6.66756 7.10767 6.66744 7.10771 6.66732 7.10776C6.17819 7.28856 5.75616 7.61485 5.45805 8.04274C5.15987 8.47074 5 8.97983 5 9.50147C5 10.0231 5.15987 10.5322 5.45805 10.9602C5.75623 11.3882 6.17839 11.7145 6.66768 11.8953L9.90733 13.0937L11.1059 16.3326C11.1059 16.3327 11.1059 16.3327 11.1059 16.3327C11.106 16.3328 11.106 16.3329 11.106 16.333C11.2869 16.8221 11.6133 17.2441 12.0412 17.5421C12.4693 17.8402 12.9784 18 13.5 18C14.0216 18 14.5307 17.8402 14.9588 17.5421C15.3867 17.2441 15.7131 16.8221 15.894 16.333C15.894 16.3329 15.894 16.3328 15.8941 16.3326L17.0927 13.0937L20.3323 11.8953C20.8216 11.7145 21.2438 11.3882 21.542 10.9602L20.7777 10.4278L21.542 10.9602C21.8401 10.5322 22 10.0231 22 9.50147C22 8.97984 21.8401 8.47074 21.542 8.04274C21.2439 7.61489 20.8219 7.28862 20.3328 7.1078C20.3326 7.10774 20.3325 7.10768 20.3323 7.10762Z" stroke="white" stroke-width="2"/>
</g>
<defs>
<filter id="filter0_d_2475_16207" x="0" y="0" width="27" height="27" filterUnits="userSpaceOnUse" color-interpolation-filters="sRGB">
<feFlood flood-opacity="0" result="BackgroundImageFix"/>
<feColorMatrix in="SourceAlpha" type="matrix" values="0 0 0 0 0 0 0 0 0 0 0 0 0 0 0 0 0 0 127 0" result="hardAlpha"/>
<feOffset dy="4"/>
<feGaussianBlur stdDeviation="2"/>
<feComposite in2="hardAlpha" operator="out"/>
<feColorMatrix type="matrix" values="0 0 0 0 0 0 0 0 0 0 0 0 0 0 0 0 0 0 0.25 0"/>
<feBlend mode="normal" in2="BackgroundImageFix" result="effect1_dropShadow_2475_16207"/>
<feBlend mode="normal" in="SourceGraphic" in2="effect1_dropShadow_2475_16207" result="shape"/>
</filter>
</defs>
</svg>
