<svg width="28" height="33" viewBox="0 0 28 33" fill="none" xmlns="http://www.w3.org/2000/svg">
<g filter="url(#filter0_d_2484_16505)">
<path fill-rule="evenodd" clip-rule="evenodd" d="M10.5969 12.9232L13.2386 4.07414C13.2885 3.90793 13.3893 3.76246 13.5262 3.65912C13.663 3.55577 13.8287 3.5 13.9988 3.5C14.169 3.5 14.3347 3.55577 14.4715 3.65912C14.6083 3.76246 14.7091 3.90793 14.7591 4.07414L17.4015 12.9232L24.4781 15.5996C24.631 15.6565 24.7631 15.7601 24.8564 15.8963C24.9498 16.0325 24.9999 16.1947 25 16.361C25.0001 16.5273 24.9501 16.6896 24.8569 16.8259C24.7637 16.9622 24.6317 17.0659 24.4789 17.123L17.4047 19.7986L14.7614 28.9174C14.7129 29.0855 14.6124 29.2331 14.475 29.3381C14.3377 29.4431 14.1707 29.4999 13.9991 29.5C13.8276 29.5001 13.6605 29.4435 13.5231 29.3386C13.3856 29.2338 13.2849 29.0863 13.2362 28.9182L10.5929 19.7994L3.51956 17.1238C3.36711 17.0663 3.23559 16.9623 3.14269 16.8261C3.0498 16.6898 3 16.5277 3 16.3617C3 16.1956 3.0498 16.0336 3.14269 15.8973C3.23559 15.761 3.36711 15.6571 3.51956 15.5996L10.5969 12.9232ZM2.45983 19.9304C1.72354 19.6524 1.09944 19.1548 0.6639 18.5159C0.228911 17.8779 0 17.1261 0 16.3617C0 15.5972 0.228917 14.8455 0.6639 14.2074C1.09914 13.569 1.72271 13.0716 2.45841 12.7935C2.45872 12.7934 2.45811 12.7936 2.45841 12.7935C2.45858 12.7934 2.45967 12.793 2.45983 12.793L8.14701 10.6423L10.3654 3.21121C10.5963 2.44236 11.066 1.75765 11.7181 1.26514C12.3713 0.771827 13.1707 0.5 13.9988 0.5C14.827 0.5 15.6263 0.771824 16.2795 1.26514C16.9317 1.75766 17.4014 2.44238 17.6323 3.21122L17.6336 3.21574L19.8513 10.6423L25.5352 12.792C26.2706 13.0682 26.8946 13.5635 27.331 14.2002C27.7689 14.8391 27.9996 15.5928 28 16.3594C28.0004 17.1261 27.7705 17.88 27.3333 18.5193C26.897 19.1573 26.2724 19.6537 25.5361 19.9305C25.5337 19.9315 25.5312 19.9324 25.5287 19.9333L19.8686 22.0741L17.6437 29.7494C17.6435 29.7501 17.6433 29.7509 17.6431 29.7516C17.643 29.7519 17.6429 29.7523 17.6428 29.7526C17.418 30.5288 16.9505 31.222 16.2968 31.7216C15.6412 32.2227 14.8358 32.4996 14.0007 32.5C13.1657 32.5004 12.36 32.2245 11.7038 31.724C11.0488 31.2245 10.5801 30.5306 10.3548 29.7534C10.3548 29.7533 10.3549 29.7535 10.3548 29.7534L8.12904 22.0749L2.45983 19.9304Z" fill="#B6994F"/>
<path d="M24.4781 15.5996L17.4015 12.9232L14.7591 4.07414C14.7091 3.90793 14.6083 3.76246 14.4715 3.65912C14.3347 3.55577 14.169 3.5 13.9988 3.5C13.8287 3.5 13.663 3.55577 13.5262 3.65912C13.3893 3.76246 13.2885 3.90793 13.2386 4.07414L10.5969 12.9232L3.51956 15.5996C3.36711 15.6571 3.23559 15.761 3.14269 15.8973C3.0498 16.0336 3 16.1956 3 16.3617C3 16.5277 3.0498 16.6898 3.14269 16.8261C3.23559 16.9623 3.36711 17.0663 3.51956 17.1238L10.5929 19.7994L13.2362 28.9182C13.2849 29.0863 13.3856 29.2338 13.5231 29.3386C13.6605 29.4435 13.8276 29.5001 13.9991 29.5C14.1707 29.4999 14.3377 29.4431 14.475 29.3381C14.6124 29.2331 14.7129 29.0855 14.7614 28.9174L17.4047 19.7986L24.4789 17.123C24.6317 17.0659 24.7637 16.9622 24.8569 16.8259C24.9501 16.6896 25.0001 16.5273 25 16.361C24.9999 16.1947 24.9498 16.0325 24.8564 15.8963C24.7631 15.7601 24.631 15.6565 24.4781 15.5996Z" fill="#B6994F"/>
<path fill-rule="evenodd" clip-rule="evenodd" d="M17.4047 19.7986L14.9011 28.4356L14.7614 28.9174C14.7129 29.0855 14.6124 29.2331 14.475 29.3381C14.3377 29.4431 14.1707 29.4999 13.9991 29.5C13.8276 29.5001 13.6605 29.4435 13.5231 29.3386C13.3856 29.2338 13.2849 29.0863 13.2362 28.9182L10.5929 19.7994L3.51956 17.1238C3.36711 17.0663 3.23559 16.9623 3.14269 16.8261C3.0498 16.6898 3 16.5277 3 16.3617C3 16.1956 3.0498 16.0336 3.14269 15.8973C3.23559 15.761 3.36711 15.6571 3.51956 15.5996L10.5969 12.9232L13.2386 4.07414C13.2885 3.90793 13.3893 3.76246 13.5262 3.65912C13.663 3.55577 13.8287 3.5 13.9988 3.5C14.169 3.5 14.3347 3.55577 14.4715 3.65912C14.6083 3.76246 14.7091 3.90793 14.7591 4.07414L17.4015 12.9232L24.4781 15.5996C24.631 15.6565 24.7631 15.7601 24.8564 15.8963C24.9498 16.0325 24.9999 16.1947 25 16.361C25.0001 16.5273 24.9501 16.6896 24.8569 16.8259C24.7637 16.9622 24.6317 17.0659 24.4789 17.123L17.4047 19.7986ZM25.184 18.9946C25.1823 18.9952 25.1805 18.9959 25.1788 18.9965L19.0473 21.3156L16.683 29.4721C16.6828 29.4727 16.6826 29.4734 16.6824 29.4741C16.6824 29.4741 16.6824 29.474 16.6824 29.4741C16.5163 30.0476 16.1711 30.5591 15.6896 30.9271C15.2067 31.2962 14.6141 31.4997 14.0002 31.5C13.3863 31.5003 12.7935 31.2975 12.3102 30.9289C11.8276 30.5609 11.4817 30.0491 11.3153 29.4748L8.95034 21.3164L2.81308 18.9949C2.81271 18.9947 2.81234 18.9946 2.81197 18.9945C2.27077 18.7898 1.81127 18.4237 1.49016 17.9526C1.16921 17.4818 1 16.9267 1 16.3617C1 15.7967 1.16921 15.2415 1.49016 14.7707C1.81129 14.2997 2.27084 13.9335 2.81213 13.7288C2.81245 13.7287 2.81276 13.7286 2.81308 13.7285L8.96365 11.4026L11.3231 3.49886C11.4937 2.93088 11.8405 2.42592 12.3208 2.06314C12.8019 1.69981 13.39 1.5 13.9988 1.5C14.6076 1.5 15.1958 1.69981 15.6768 2.06314C16.1572 2.42592 16.5039 2.93089 16.6745 3.49886L16.6754 3.50188L19.0347 11.4026L25.176 13.7253C25.1781 13.7261 25.1803 13.7269 25.1825 13.7277C25.7238 13.9308 26.184 14.2956 26.5061 14.7656C26.8292 15.2369 26.9997 15.7934 27 16.36C27.0003 16.9265 26.8304 17.4832 26.5078 17.9548C26.1859 18.4255 25.7257 18.791 25.184 18.9946ZM23.779 15.2494L23.7714 15.2523Z" fill="#F3F3F3"/>
</g>
<defs>
<filter id="filter0_d_2484_16505" x="0" y="0" width="28" height="33" filterUnits="userSpaceOnUse" color-interpolation-filters="sRGB">
<feFlood flood-opacity="0" result="BackgroundImageFix"/>
<feColorMatrix in="SourceAlpha" type="matrix" values="0 0 0 0 0 0 0 0 0 0 0 0 0 0 0 0 0 0 127 0" result="hardAlpha"/>
<feOffset/>
<feColorMatrix type="matrix" values="0 0 0 0 0 0 0 0 0 0 0 0 0 0 0 0 0 0 0.25 0"/>
<feBlend mode="normal" in2="BackgroundImageFix" result="effect1_dropShadow_2484_16505"/>
<feBlend mode="normal" in="SourceGraphic" in2="effect1_dropShadow_2484_16505" result="shape"/>
</filter>
</defs>
</svg>
