<svg width="36" height="40" viewBox="0 0 36 40" fill="none" xmlns="http://www.w3.org/2000/svg">
<g filter="url(#filter0_d_2475_16205)">
<path d="M28.4781 15.0996L21.4015 12.4232L18.7591 3.57414C18.7091 3.40793 18.6083 3.26246 18.4715 3.15912C18.3347 3.05577 18.169 3 17.9988 3C17.8287 3 17.663 3.05577 17.5262 3.15912C17.3893 3.26246 17.2885 3.40793 17.2386 3.57414L14.5969 12.4232L7.51956 15.0996C7.36711 15.1571 7.23559 15.261 7.14269 15.3973C7.0498 15.5336 7 15.6956 7 15.8617C7 16.0277 7.0498 16.1898 7.14269 16.3261C7.23559 16.4623 7.36711 16.5663 7.51956 16.6238L14.5929 19.2994L17.2362 28.4182C17.2849 28.5863 17.3856 28.7338 17.523 28.8386C17.6605 28.9435 17.8276 29.0001 17.9991 29C18.1707 28.9999 18.3377 28.9431 18.475 28.8381C18.6124 28.7331 18.7129 28.5855 18.7614 28.4174L21.4047 19.2986L28.4789 16.623C28.6317 16.5659 28.7637 16.4622 28.8569 16.3259C28.9501 16.1896 29.0001 16.0273 29 15.861C28.9999 15.6947 28.9498 15.5325 28.8564 15.3963C28.7631 15.2601 28.631 15.1565 28.4781 15.0996Z" fill="#367377"/>
<path d="M19.9568 3.21648L19.9562 3.21459C19.8309 2.79728 19.5764 2.42713 19.2248 2.16163C18.8729 1.89579 18.4432 1.75 17.9988 1.75C17.5545 1.75 17.1248 1.89579 16.7728 2.16163C16.4213 2.42712 16.1668 2.79727 16.0414 3.21459L16.0408 3.21658L13.5761 11.4728L7.07801 13.9301C7.07781 13.9302 7.07761 13.9303 7.07742 13.9304C6.68194 14.0798 6.3454 14.3477 6.10986 14.6932C5.87443 15.0385 5.75 15.4463 5.75 15.8617C5.75 16.2771 5.87443 16.6848 6.10986 17.0302C6.34539 17.3757 6.6819 17.6435 7.07732 17.793C7.07747 17.793 7.07762 17.7931 7.07778 17.7931C7.07785 17.7932 7.07793 17.7932 7.07801 17.7932L13.5663 20.2475L16.0356 28.7661C16.0356 28.7661 16.0356 28.7661 16.0356 28.7662C16.1579 29.1881 16.4119 29.5632 16.765 29.8325C17.1187 30.1022 17.5518 30.2502 17.9998 30.25C18.4478 30.2498 18.8808 30.1013 19.2341 29.8312C19.5866 29.5618 19.84 29.1869 19.962 28.7654C19.9621 28.7652 19.9621 28.7651 19.9621 28.765C19.9622 28.7647 19.9623 28.7644 19.9624 28.764L22.4313 20.2467L28.9163 17.794C28.9173 17.7936 28.9183 17.7932 28.9193 17.7928C29.3153 17.6442 29.6526 17.3768 29.8887 17.0315C30.1253 16.6856 30.2502 16.2768 30.25 15.8603C30.2498 15.4439 30.1244 15.0352 29.8875 14.6896C29.6511 14.3447 29.3139 14.0779 28.9182 13.9296C28.9169 13.9291 28.9156 13.9286 28.9143 13.9281L22.4223 11.4728L19.9568 3.21648Z" stroke="white" stroke-width="2.5"/>
</g>
<defs>
<filter id="filter0_d_2475_16205" x="0.5" y="0.5" width="35" height="39" filterUnits="userSpaceOnUse" color-interpolation-filters="sRGB">
<feFlood flood-opacity="0" result="BackgroundImageFix"/>
<feColorMatrix in="SourceAlpha" type="matrix" values="0 0 0 0 0 0 0 0 0 0 0 0 0 0 0 0 0 0 127 0" result="hardAlpha"/>
<feOffset dy="4"/>
<feGaussianBlur stdDeviation="2"/>
<feComposite in2="hardAlpha" operator="out"/>
<feColorMatrix type="matrix" values="0 0 0 0 0 0 0 0 0 0 0 0 0 0 0 0 0 0 0.25 0"/>
<feBlend mode="normal" in2="BackgroundImageFix" result="effect1_dropShadow_2475_16205"/>
<feBlend mode="normal" in="SourceGraphic" in2="effect1_dropShadow_2475_16205" result="shape"/>
</filter>
</defs>
</svg>
