<svg width="154" height="450" viewBox="0 0 154 450" fill="none" xmlns="http://www.w3.org/2000/svg">
<path d="M76.4 53.7195C72.16 65.0595 45.46 137.119 45.46 152.959C45.46 170.019 59.34 183.899 76.4 183.899C93.46 183.899 107.34 170.019 107.34 152.959C107.34 137.119 80.62 65.0395 76.4 53.7195ZM76.4 185.119C58.68 185.119 44.26 170.699 44.26 152.979C44.26 135.259 74.56 55.2195 75.84 51.8195C75.92 51.5795 76.16 51.4395 76.4 51.4395C76.64 51.4395 76.88 51.5995 76.96 51.8195C78.24 55.2395 108.54 135.639 108.54 152.979C108.54 170.319 94.12 185.119 76.4 185.119Z" fill="black"/>
<path d="M76.4 145.34C76.06 145.34 75.8 145.08 75.8 144.74V52.0199C75.8 51.6799 76.08 51.4199 76.4 51.4199C76.72 51.4199 77 51.6799 77 52.0199V144.74C77 145.08 76.72 145.34 76.4 145.34Z" fill="black"/>
<path d="M85.08 125.72H67.7C67.36 125.72 67.1 125.46 67.1 125.12C67.1 124.78 67.36 124.52 67.7 124.52H85.08C85.4 124.52 85.68 124.78 85.68 125.12C85.68 125.46 85.4 125.72 85.08 125.72Z" fill="black"/>
<path d="M60.52 184.521C60.52 175.761 67.62 168.641 76.4 168.641C85.18 168.641 92.28 175.741 92.28 184.521C92.28 193.301 85.16 200.401 76.4 200.401C67.64 200.401 60.52 193.301 60.52 184.521Z" fill="black"/>
<path d="M76.4 161.72C63.84 161.72 53.62 171.94 53.62 184.5C53.62 197.06 63.84 207.28 76.4 207.28C88.96 207.28 99.18 197.06 99.18 184.5C99.18 171.94 88.96 161.72 76.4 161.72ZM76.4 208.48C63.18 208.48 52.42 197.72 52.42 184.5C52.42 171.28 63.18 160.52 76.4 160.52C89.62 160.52 100.38 171.28 100.38 184.5C100.38 197.72 89.62 208.48 76.4 208.48Z" fill="black"/>
<path d="M35.18 165.281L34.1 164.781C36.64 159.341 40.16 154.501 44.58 150.381L45.4 151.261C41.1 155.261 37.68 159.981 35.2 165.301" fill="black"/>
<path d="M31.8 198.28C30.42 193.84 29.74 189.2 29.74 184.5C29.74 179.54 30.52 174.66 32.04 169.98L33.18 170.36C31.7 174.9 30.94 179.66 30.94 184.5C30.94 189.08 31.62 193.58 32.96 197.92L31.82 198.28H31.8Z" fill="black"/>
<path d="M55.22 226.119C45.72 221.279 38.1 213.239 33.76 203.519L34.86 203.039C39.08 212.519 46.52 220.339 55.78 225.059L55.24 226.119H55.22Z" fill="black"/>
<path d="M76.4 231.18C70.26 231.18 64.3 230 58.68 227.7L59.14 226.6C64.62 228.84 70.42 229.98 76.4 229.98C82.38 229.98 88.06 228.86 93.5 226.66L93.94 227.76C88.36 230.02 82.46 231.16 76.4 231.16" fill="black"/>
<path d="M97.42 226.2L96.88 225.14C106.18 220.44 113.66 212.62 117.92 203.1L119.02 203.6C114.64 213.36 106.98 221.4 97.42 226.22" fill="black"/>
<path d="M121 198.34L119.86 197.98C121.2 193.64 121.88 189.1 121.88 184.5C121.88 179.68 121.12 174.92 119.64 170.38L120.78 170C122.3 174.66 123.08 179.54 123.08 184.5C123.08 189.46 122.38 193.86 121 198.32" fill="black"/>
<path d="M117.64 165.299C115.16 159.999 111.72 155.259 107.42 151.239L108.24 150.359C112.66 154.479 116.18 159.339 118.72 164.779L117.64 165.279V165.299Z" fill="black"/>
<path d="M76.4 44.6395C74.68 44.6395 73.28 46.0395 73.28 47.7595C73.28 49.4795 74.68 50.8795 76.4 50.8795C78.12 50.8795 79.52 49.4795 79.52 47.7595C79.52 46.0395 78.12 44.6395 76.4 44.6395ZM76.4 52.0794C74.02 52.0794 72.08 50.1395 72.08 47.7595C72.08 45.3795 74.02 43.4395 76.4 43.4395C78.78 43.4395 80.72 45.3795 80.72 47.7595C80.72 50.1395 78.78 52.0794 76.4 52.0794Z" fill="black"/>
<path d="M76.4 12.8595C75.4 15.7395 74.24 19.3795 74.24 20.2395C74.24 21.4195 75.2 22.3994 76.4 22.3994C77.6 22.3994 78.56 21.4395 78.56 20.2395C78.56 19.3795 77.4 15.7395 76.4 12.8595ZM76.4 23.5995C74.54 23.5995 73.04 22.0995 73.04 20.2395C73.04 18.6595 75.54 11.6394 75.82 10.8394C75.9 10.5994 76.14 10.4395 76.38 10.4395C76.62 10.4395 76.86 10.5994 76.94 10.8394C77.22 11.6394 79.72 18.6595 79.72 20.2395C79.72 22.0795 78.22 23.5995 76.36 23.5995" fill="black"/>
<path d="M76.4 44.6403C76.06 44.6403 75.8 44.3803 75.8 44.0403V29.3402C75.8 29.0002 76.08 28.7402 76.4 28.7402C76.72 28.7402 77 29.0002 77 29.3402V44.0403C77 44.3803 76.72 44.6403 76.4 44.6403Z" fill="black"/>
<path d="M84.38 37.2996H68.4C68.06 37.2996 67.8 37.0396 67.8 36.6996C67.8 36.3596 68.06 36.0996 68.4 36.0996H84.38C84.7 36.0996 84.98 36.3596 84.98 36.6996C84.98 37.0396 84.7 37.2996 84.38 37.2996Z" fill="black"/>
<path d="M76.4 271.32C75.32 272.78 72.52 276.58 69.76 280.94C65.16 288.22 62.72 293.7 62.72 296.8C62.72 303.58 73.9 320.04 76.4 323.62C78.9 320.04 90.08 303.58 90.08 296.8C90.08 293.7 87.64 288.2 83.04 280.92C80.28 276.56 77.5 272.76 76.42 271.32M76.42 325.28C76.22 325.28 76.04 325.18 75.94 325.04C75.9 324.98 72.32 319.96 68.78 314.02C63.98 305.98 61.56 300.2 61.56 296.82C61.56 288.82 75.36 270.74 75.96 269.98C76.08 269.84 76.24 269.74 76.44 269.74C76.64 269.74 76.8 269.82 76.92 269.98C77.5 270.74 91.32 288.84 91.32 296.82C91.32 300.2 88.9 305.98 84.1 314.02C80.56 319.96 76.98 325 76.94 325.04C76.82 325.2 76.64 325.28 76.46 325.28" fill="black"/>
<path d="M135.18 328.019C133.98 329.679 131.94 332.779 131.94 334.139C131.94 335.499 133.96 338.799 135.18 340.579C136.4 338.779 138.42 335.499 138.42 334.139C138.42 332.779 136.38 329.679 135.18 328.019ZM135.18 342.239C134.98 342.239 134.8 342.139 134.7 341.999C134.3 341.439 130.74 336.399 130.74 334.159C130.74 331.919 134.3 327.199 134.7 326.679C134.82 326.539 134.98 326.439 135.18 326.439C135.38 326.439 135.54 326.519 135.66 326.679C136.06 327.199 139.62 331.919 139.62 334.159C139.62 336.399 136.08 341.439 135.66 341.999C135.54 342.159 135.36 342.239 135.18 342.239Z" fill="black"/>
<path d="M17.66 328.019C16.46 329.679 14.42 332.779 14.42 334.139C14.42 335.499 16.44 338.799 17.66 340.579C18.88 338.779 20.9 335.499 20.9 334.139C20.9 332.779 18.86 329.679 17.66 328.019ZM17.66 342.239C17.46 342.239 17.28 342.139 17.18 341.999C16.78 341.439 13.22 336.399 13.22 334.159C13.22 331.919 16.78 327.199 17.18 326.679C17.3 326.539 17.46 326.439 17.66 326.439C17.86 326.439 18.02 326.519 18.14 326.679C18.54 327.199 22.1 331.919 22.1 334.159C22.1 336.399 18.56 341.439 18.14 341.999C18.02 342.159 17.84 342.239 17.66 342.239Z" fill="black"/>
<path d="M76.4 325.281C76.06 325.281 75.8 325.021 75.8 324.681V270.321C75.8 270.001 76.08 269.721 76.4 269.721C76.72 269.721 77 269.981 77 270.321V324.681C77 325.021 76.72 325.281 76.4 325.281Z" fill="black"/>
<path d="M70.98 317.08C70.98 317.08 70.94 317.08 70.92 317.08C55.3 315.74 40.84 308.62 30.16 297.06C19.44 285.42 13.52 270.3 13.52 254.46C13.52 247.22 14.74 240.14 17.14 233.4C17.22 233.16 17.46 233 17.7 233C17.94 233 18.18 233.16 18.26 233.4C22.3 244.74 29.52 254.6 39.16 261.9C48.96 269.34 60.64 273.62 72.92 274.3C73.26 274.32 73.5 274.6 73.48 274.94C73.48 275.28 73.18 275.52 72.84 275.5C60.32 274.8 48.42 270.44 38.42 262.86C29.06 255.76 21.92 246.28 17.72 235.4C15.72 241.54 14.72 247.94 14.72 254.48C14.72 270.02 20.52 284.86 31.04 296.26C41.5 307.6 55.7 314.58 71.02 315.9C71.34 315.92 71.6 316.22 71.56 316.54C71.54 316.86 71.28 317.08 70.96 317.08" fill="black"/>
<path d="M81.84 317.08C81.54 317.08 81.26 316.84 81.24 316.54C81.22 316.22 81.46 315.92 81.78 315.9C97.1 314.58 111.28 307.6 121.74 296.26C132.26 284.84 138.06 270 138.06 254.48C138.06 247.96 137.04 241.54 135.06 235.4C130.84 246.32 123.68 255.8 114.28 262.92C104.24 270.5 92.3 274.86 79.74 275.52C79.4 275.52 79.12 275.28 79.1 274.96C79.1 274.64 79.34 274.34 79.66 274.32C91.98 273.68 103.7 269.4 113.52 261.96C123.18 254.64 130.44 244.78 134.48 233.42C134.56 233.18 134.78 233.02 135.04 233.02C135.3 233.02 135.52 233.18 135.6 233.42C138 240.18 139.22 247.26 139.22 254.48C139.22 270.32 133.32 285.44 122.58 297.08C111.92 308.64 97.44 315.76 81.84 317.12C81.84 317.12 81.8 317.12 81.78 317.12" fill="black"/>
<path d="M87.24 307.601C86.94 307.601 86.66 307.361 86.64 307.061C86.62 306.741 86.86 306.441 87.18 306.421C100.7 305.261 113.32 299.181 122.7 289.301C132.22 279.301 137.46 266.321 137.46 252.781C137.46 246.561 136.42 240.461 134.34 234.661C134.22 234.341 134.4 234.001 134.7 233.901C135.02 233.781 135.36 233.961 135.46 234.261C137.58 240.201 138.64 246.421 138.64 252.781C138.64 266.641 133.28 279.901 123.54 290.141C113.94 300.221 101.06 306.441 87.24 307.621C87.24 307.621 87.2 307.621 87.18 307.621" fill="black"/>
<path d="M90.68 299.761C90.38 299.761 90.1 299.521 90.08 299.221C90.06 298.901 90.3 298.601 90.62 298.581C103.1 297.501 114.78 292.141 123.52 283.501C132.52 274.601 137.48 262.981 137.48 250.761C137.48 245.081 136.52 239.541 134.64 234.241C134.52 233.921 134.7 233.581 135 233.481C135.3 233.381 135.66 233.541 135.76 233.841C137.68 239.261 138.66 244.961 138.66 250.761C138.66 263.301 133.58 275.221 124.34 284.341C115.4 293.181 103.46 298.661 90.7 299.761C90.7 299.761 90.66 299.761 90.64 299.761" fill="black"/>
<path d="M65.56 307.6C65.56 307.6 65.52 307.6 65.5 307.6C51.7 306.4 38.84 300.2 29.26 290.12C19.56 279.9 14.24 266.64 14.24 252.76C14.24 246.4 15.32 240.16 17.42 234.24C17.52 233.92 17.88 233.76 18.18 233.88C18.5 233.98 18.66 234.34 18.54 234.64C16.48 240.44 15.42 246.54 15.42 252.76C15.42 266.32 20.64 279.28 30.12 289.28C39.48 299.16 52.08 305.24 65.58 306.4C65.9 306.42 66.16 306.72 66.12 307.04C66.1 307.36 65.84 307.58 65.52 307.58" fill="black"/>
<path d="M62.26 299.759C62.26 299.759 62.22 299.759 62.2 299.759C49.44 298.659 37.5 293.179 28.56 284.339C19.34 275.219 14.24 263.279 14.24 250.759C14.24 244.959 15.22 239.259 17.14 233.839C17.26 233.519 17.6 233.359 17.9 233.479C18.22 233.599 18.38 233.939 18.26 234.239C16.38 239.539 15.42 245.079 15.42 250.759C15.42 262.959 20.38 274.599 29.38 283.499C38.12 292.139 49.8 297.499 62.28 298.579C62.6 298.599 62.86 298.899 62.82 299.219C62.8 299.539 62.54 299.759 62.22 299.759" fill="black"/>
<path d="M75.36 215.081C75.36 214.521 75.82 214.061 76.38 214.061C76.94 214.061 77.42 214.521 77.42 215.081C77.42 215.641 76.96 216.121 76.38 216.121C75.8 216.121 75.36 215.661 75.36 215.081Z" fill="black"/>
<path d="M70.3 214.221C70.3 214.861 69.78 215.381 69.14 215.381C68.5 215.381 67.98 214.861 67.98 214.221C67.98 213.581 68.5 213.061 69.14 213.061C69.78 213.061 70.3 213.581 70.3 214.221Z" fill="black"/>
<path d="M63.78 211.741C63.78 212.461 63.2 213.021 62.5 213.021C61.8 213.021 61.22 212.441 61.22 211.741C61.22 211.041 61.8 210.461 62.5 210.461C63.2 210.461 63.78 211.041 63.78 211.741Z" fill="black"/>
<path d="M58.1 207.881C58.1 208.661 57.46 209.301 56.68 209.301C55.9 209.301 55.26 208.661 55.26 207.881C55.26 207.101 55.9 206.461 56.68 206.461C57.46 206.461 58.1 207.101 58.1 207.881Z" fill="black"/>
<path d="M53.46 202.819C53.46 203.679 52.76 204.359 51.92 204.359C51.08 204.359 50.38 203.659 50.38 202.819C50.38 201.979 51.08 201.279 51.92 201.279C52.76 201.279 53.46 201.979 53.46 202.819Z" fill="black"/>
<path d="M50.06 196.78C50.06 197.7 49.32 198.46 48.38 198.46C47.44 198.46 46.7 197.72 46.7 196.78C46.7 195.84 47.44 195.1 48.38 195.1C49.32 195.1 50.06 195.84 50.06 196.78Z" fill="black"/>
<path d="M48.12 189.96C48.12 190.96 47.32 191.76 46.32 191.76C45.32 191.76 44.52 190.96 44.52 189.96C44.52 188.96 45.32 188.16 46.32 188.16C47.32 188.16 48.12 188.96 48.12 189.96Z" fill="black"/>
<path d="M47.82 182.619C47.82 183.679 46.96 184.559 45.88 184.559C44.8 184.559 43.96 183.699 43.96 182.619C43.96 181.539 44.82 180.699 45.88 180.699C46.94 180.699 47.82 181.559 47.82 182.619Z" fill="black"/>
<path d="M49.22 175.56C49.22 176.7 48.3 177.62 47.16 177.62C46.02 177.62 45.1 176.7 45.1 175.56C45.1 174.42 46.02 173.5 47.16 173.5C48.3 173.5 49.22 174.42 49.22 175.56Z" fill="black"/>
<path d="M52.14 169.18C52.14 170.38 51.16 171.36 49.96 171.36C48.76 171.36 47.78 170.38 47.78 169.18C47.78 167.98 48.76 167 49.96 167C51.16 167 52.14 167.98 52.14 169.18Z" fill="black"/>
<path d="M77.44 215.081C77.44 214.521 76.98 214.061 76.4 214.061C75.82 214.061 75.36 214.521 75.36 215.081C75.36 215.641 75.82 216.121 76.4 216.121C76.98 216.121 77.44 215.661 77.44 215.081Z" fill="black"/>
<path d="M82.52 214.221C82.52 214.861 83.04 215.381 83.68 215.381C84.32 215.381 84.84 214.861 84.84 214.221C84.84 213.581 84.32 213.061 83.68 213.061C83.04 213.061 82.52 213.581 82.52 214.221Z" fill="black"/>
<path d="M89.04 211.741C89.04 212.461 89.62 213.021 90.32 213.021C91.02 213.021 91.6 212.441 91.6 211.741C91.6 211.041 91.02 210.461 90.32 210.461C89.62 210.461 89.04 211.041 89.04 211.741Z" fill="black"/>
<path d="M94.72 207.881C94.72 208.661 95.36 209.301 96.14 209.301C96.92 209.301 97.56 208.661 97.56 207.881C97.56 207.101 96.92 206.461 96.14 206.461C95.36 206.461 94.72 207.101 94.72 207.881Z" fill="black"/>
<path d="M99.36 202.819C99.36 203.679 100.06 204.359 100.9 204.359C101.74 204.359 102.44 203.659 102.44 202.819C102.44 201.979 101.74 201.279 100.9 201.279C100.06 201.279 99.36 201.979 99.36 202.819Z" fill="black"/>
<path d="M102.76 196.78C102.76 197.7 103.5 198.46 104.44 198.46C105.38 198.46 106.12 197.72 106.12 196.78C106.12 195.84 105.38 195.1 104.44 195.1C103.5 195.1 102.76 195.84 102.76 196.78Z" fill="black"/>
<path d="M104.7 189.96C104.7 190.96 105.5 191.76 106.5 191.76C107.5 191.76 108.3 190.96 108.3 189.96C108.3 188.96 107.5 188.16 106.5 188.16C105.5 188.16 104.7 188.96 104.7 189.96Z" fill="black"/>
<path d="M105 182.619C105 183.679 105.86 184.559 106.92 184.559C107.98 184.559 108.84 183.699 108.84 182.619C108.84 181.539 107.98 180.699 106.92 180.699C105.86 180.699 105 181.559 105 182.619Z" fill="black"/>
<path d="M103.6 175.56C103.6 176.7 104.52 177.62 105.66 177.62C106.8 177.62 107.72 176.7 107.72 175.56C107.72 174.42 106.8 173.5 105.66 173.5C104.52 173.5 103.6 174.42 103.6 175.56Z" fill="black"/>
<path d="M100.68 169.18C100.68 170.38 101.66 171.36 102.86 171.36C104.06 171.36 105.04 170.38 105.04 169.18C105.04 167.98 104.06 167 102.86 167C101.66 167 100.68 167.98 100.68 169.18Z" fill="black"/>
<path d="M76.4 261.94C76.06 261.94 75.8 261.68 75.8 261.34V257.94C75.8 257.6 76.08 257.34 76.4 257.34C76.72 257.34 77 257.6 77 257.94V261.34C77 261.68 76.72 261.94 76.4 261.94Z" fill="black"/>
<path d="M76.4 254.56C76.06 254.56 75.8 254.3 75.8 253.96V230.6C75.8 230.26 76.08 230 76.4 230C76.72 230 77 230.26 77 230.6V253.96C77 254.3 76.72 254.56 76.4 254.56Z" fill="black"/>
<path d="M125.5 234.22C125.34 234.22 125.2 234.16 125.08 234.04L122.92 231.88C122.68 231.64 122.68 231.26 122.92 231.04C123.16 230.82 123.54 230.8 123.76 231.04L125.92 233.2C126.16 233.44 126.16 233.82 125.92 234.04C125.8 234.16 125.66 234.22 125.5 234.22Z" fill="black"/>
<path d="M121.1 229.82C120.94 229.82 120.8 229.76 120.68 229.64L108.56 217.52C108.32 217.28 108.32 216.9 108.56 216.68C108.8 216.44 109.18 216.44 109.4 216.68L121.52 228.8C121.76 229.04 121.76 229.42 121.52 229.64C121.4 229.76 121.26 229.82 121.1 229.82Z" fill="black"/>
<path d="M145.84 185.1H142.3C141.96 185.1 141.7 184.84 141.7 184.5C141.7 184.16 141.96 183.9 142.3 183.9H145.84C146.16 183.9 146.44 184.16 146.44 184.5C146.44 184.84 146.16 185.1 145.84 185.1Z" fill="black"/>
<path d="M139.5 185.1H122.46C122.14 185.1 121.86 184.84 121.86 184.5C121.86 184.16 122.12 183.9 122.46 183.9H139.5C139.82 183.9 140.1 184.16 140.1 184.5C140.1 184.84 139.82 185.1 139.5 185.1Z" fill="black"/>
<path d="M76.4 139.04C76.06 139.04 75.8 138.78 75.8 138.44V115.08C75.8 114.74 76.08 114.48 76.4 114.48C76.72 114.48 77 114.74 77 115.08V138.44C77 138.78 76.72 139.04 76.4 139.04Z" fill="black"/>
<path d="M10.12 185.1H6.96002C6.62002 185.1 6.35999 184.84 6.35999 184.5C6.35999 184.16 6.64002 183.9 6.96002 183.9H10.12C10.44 183.9 10.72 184.16 10.72 184.5C10.72 184.84 10.44 185.1 10.12 185.1Z" fill="black"/>
<path d="M30.32 185.1H13.26C12.92 185.1 12.66 184.84 12.66 184.5C12.66 184.16 12.92 183.9 13.26 183.9H30.32C30.64 183.9 30.92 184.16 30.92 184.5C30.92 184.84 30.64 185.1 30.32 185.1Z" fill="black"/>
<path d="M27.3 234.221C27.14 234.221 27 234.161 26.88 234.041C26.64 233.801 26.64 233.421 26.88 233.201L29.52 230.561C29.76 230.321 30.14 230.321 30.36 230.561C30.58 230.801 30.6 231.181 30.36 231.401L27.72 234.041C27.6 234.161 27.46 234.221 27.3 234.221Z" fill="black"/>
<path d="M32.58 228.92C32.42 228.92 32.28 228.86 32.16 228.74C31.92 228.5 31.92 228.12 32.16 227.9L43.4 216.66C43.64 216.42 44.02 216.42 44.24 216.66C44.46 216.9 44.48 217.28 44.24 217.5L33 228.74C32.88 228.86 32.74 228.92 32.58 228.92Z" fill="black"/>
<path d="M79.42 266.94C79.08 266.94 78.82 266.68 78.82 266.34V230.6C78.82 230.26 79.1 230 79.42 230C79.74 230 80.02 230.26 80.02 230.6V266.34C80.02 266.68 79.74 266.94 79.42 266.94Z" fill="black"/>
<path d="M73.68 266.94C73.34 266.94 73.08 266.68 73.08 266.34V230.6C73.08 230.26 73.36 230 73.68 230C74 230 74.28 230.26 74.28 230.6V266.34C74.28 266.68 74 266.94 73.68 266.94Z" fill="black"/>
<path d="M97.32 242.861C97.32 242.861 97.14 242.861 97.06 242.801C96.76 242.661 96.64 242.301 96.8 242.001L98.74 238.101C98.88 237.801 99.24 237.681 99.54 237.841C99.84 237.981 99.96 238.341 99.8 238.641L97.84 242.541C97.74 242.741 97.52 242.881 97.3 242.881" fill="black"/>
<path d="M85.28 266.94C85.28 266.94 85.1 266.94 85.02 266.88C84.72 266.74 84.6 266.38 84.76 266.08L94.3 246.98C94.44 246.68 94.8 246.56 95.1 246.72C95.4 246.86 95.52 247.22 95.36 247.52L85.82 266.62C85.72 266.82 85.5 266.96 85.28 266.96" fill="black"/>
<path d="M94.62 263.119C94.46 263.119 94.32 263.059 94.2 262.939C93.96 262.699 93.96 262.319 94.2 262.099L107.04 249.119C107.28 248.879 107.66 248.879 107.88 249.119C108.12 249.359 108.12 249.739 107.88 249.959L95.04 262.919C94.92 263.039 94.76 263.099 94.62 263.099" fill="black"/>
<path d="M87.88 269.94C87.72 269.94 87.58 269.88 87.46 269.76C87.22 269.52 87.22 269.14 87.46 268.92L91.68 264.66C91.92 264.42 92.3 264.42 92.52 264.66C92.76 264.9 92.76 265.28 92.52 265.5L88.3 269.76C88.18 269.88 88.02 269.94 87.88 269.94Z" fill="black"/>
<path d="M56.88 243.261C56.66 243.261 56.44 243.141 56.34 242.921L54.4 239.021C54.26 238.721 54.3599 238.361 54.6599 238.221C54.9599 238.081 55.32 238.201 55.46 238.481L57.4 242.381C57.54 242.681 57.42 243.041 57.14 243.181C57.06 243.221 56.96 243.241 56.88 243.241" fill="black"/>
<path d="M68.9 267.34C68.68 267.34 68.46 267.22 68.36 267L58.82 247.9C58.68 247.6 58.8 247.24 59.08 247.1C59.38 246.96 59.74 247.08 59.88 247.36L69.42 266.46C69.56 266.76 69.44 267.12 69.16 267.26C69.08 267.3 68.98 267.32 68.9 267.32" fill="black"/>
<path d="M59.58 263.519C59.42 263.519 59.28 263.459 59.16 263.339L46.32 250.379C46.08 250.139 46.08 249.759 46.32 249.539C46.56 249.299 46.94 249.299 47.16 249.539L60 262.519C60.24 262.759 60.22 263.139 60 263.359C59.88 263.479 59.72 263.539 59.58 263.539" fill="black"/>
<path d="M66.3 270.319C66.14 270.319 66 270.259 65.88 270.139L61.66 265.879C61.42 265.639 61.42 265.259 61.66 265.039C61.9 264.799 62.28 264.799 62.5 265.039L66.72 269.299C66.96 269.539 66.94 269.919 66.72 270.139C66.6 270.259 66.44 270.319 66.3 270.319Z" fill="black"/>
<path d="M99.26 347.8C99.04 347.8 98.82 347.68 98.72 347.46L96.78 343.56C96.64 343.26 96.76 342.9 97.04 342.76C97.34 342.62 97.7 342.74 97.84 343.02L99.78 346.92C99.92 347.22 99.8 347.58 99.52 347.72C99.44 347.76 99.34 347.78 99.26 347.78" fill="black"/>
<path d="M94.82 338.92C94.6 338.92 94.38 338.8 94.28 338.58L84.74 319.48C84.6 319.18 84.72 318.82 85 318.68C85.3 318.54 85.66 318.66 85.8 318.94L95.34 338.04C95.48 338.34 95.36 338.7 95.08 338.84C95 338.88 94.9 338.9 94.82 338.9" fill="black"/>
<path d="M107.44 336.619C107.28 336.619 107.14 336.559 107.02 336.439L94.18 323.479C93.94 323.239 93.94 322.859 94.18 322.639C94.42 322.399 94.8 322.419 95.02 322.639L107.86 335.619C108.1 335.859 108.08 336.239 107.86 336.459C107.74 336.579 107.58 336.639 107.44 336.639" fill="black"/>
<path d="M92.1 321.101C91.94 321.101 91.8 321.041 91.68 320.921L87.46 316.661C87.22 316.421 87.22 316.041 87.46 315.821C87.7 315.581 88.08 315.581 88.3 315.821L92.52 320.081C92.76 320.321 92.74 320.701 92.52 320.921C92.4 321.041 92.24 321.101 92.1 321.101Z" fill="black"/>
<path d="M54.92 347.4C54.92 347.4 54.74 347.4 54.66 347.34C54.36 347.2 54.24 346.84 54.4 346.54L56.34 342.64C56.48 342.34 56.84 342.22 57.14 342.38C57.44 342.52 57.56 342.88 57.4 343.18L55.46 347.08C55.36 347.3 55.14 347.42 54.92 347.42" fill="black"/>
<path d="M59.36 338.52C59.36 338.52 59.18 338.52 59.1 338.46C58.8 338.32 58.68 337.96 58.84 337.66L68.38 318.56C68.52 318.26 68.88 318.14 69.18 318.3C69.48 318.44 69.6 318.8 69.44 319.1L59.9 338.2C59.8 338.42 59.58 338.54 59.36 338.54" fill="black"/>
<path d="M46.74 336.221C46.58 336.221 46.44 336.161 46.32 336.041C46.08 335.801 46.08 335.421 46.32 335.201L59.16 322.241C59.4 322.001 59.78 322.001 60 322.241C60.24 322.481 60.24 322.861 60 323.081L47.16 336.041C47.04 336.161 46.88 336.221 46.74 336.221Z" fill="black"/>
<path d="M62.08 320.7C61.92 320.7 61.78 320.64 61.66 320.52C61.42 320.28 61.42 319.9 61.66 319.68L65.88 315.42C66.12 315.18 66.5 315.18 66.72 315.42C66.96 315.66 66.96 316.04 66.72 316.26L62.5 320.52C62.38 320.64 62.22 320.7 62.08 320.7Z" fill="black"/>
<path d="M76.4 434.12C76.06 434.12 75.8 433.86 75.8 433.52V381.18C75.8 380.84 76.08 380.58 76.4 380.58C76.72 380.58 77 380.84 77 381.18V433.52C77 433.86 76.72 434.12 76.4 434.12Z" fill="black"/>
<path d="M76.4 377.539C76.06 377.539 75.8 377.279 75.8 376.939V341.639C75.8 341.299 76.08 341.039 76.4 341.039C76.72 341.039 77 341.299 77 341.639V376.939C77 377.279 76.72 377.539 76.4 377.539Z" fill="black"/>
<path d="M85.52 352.1H67.28C66.94 352.1 66.68 351.84 66.68 351.5C66.68 351.16 66.94 350.9 67.28 350.9H85.52C85.84 350.9 86.12 351.16 86.12 351.5C86.12 351.84 85.84 352.1 85.52 352.1Z" fill="black"/>
<path d="M85.52 368.479H67.28C66.94 368.479 66.68 368.219 66.68 367.879C66.68 367.539 66.94 367.279 67.28 367.279H85.52C85.84 367.279 86.12 367.539 86.12 367.879C86.12 368.219 85.84 368.479 85.52 368.479Z" fill="black"/>
<path d="M90.52 360.28H62.28C61.94 360.28 61.68 360.02 61.68 359.68C61.68 359.34 61.94 359.08 62.28 359.08H90.52C90.84 359.08 91.12 359.34 91.12 359.68C91.12 360.02 90.84 360.28 90.52 360.28Z" fill="black"/>
<path d="M76.4 377.54C75.56 377.54 74.88 378.22 74.88 379.06C74.88 379.9 75.56 380.58 76.4 380.58C77.24 380.58 77.92 379.9 77.92 379.06C77.92 378.22 77.24 377.54 76.4 377.54ZM76.4 381.78C74.9 381.78 73.68 380.56 73.68 379.06C73.68 377.56 74.9 376.34 76.4 376.34C77.9 376.34 79.12 377.56 79.12 379.06C79.12 380.56 77.9 381.78 76.4 381.78Z" fill="black"/>
<path d="M76.4 338.001C75.56 338.001 74.88 338.681 74.88 339.521C74.88 340.361 75.56 341.041 76.4 341.041C77.24 341.041 77.92 340.361 77.92 339.521C77.92 338.681 77.24 338.001 76.4 338.001ZM76.4 342.241C74.9 342.241 73.68 341.021 73.68 339.521C73.68 338.021 74.9 336.801 76.4 336.801C77.9 336.801 79.12 338.021 79.12 339.521C79.12 341.021 77.9 342.241 76.4 342.241Z" fill="black"/>
<path d="M87.16 350.901C86.84 350.901 86.56 351.161 86.56 351.481C86.56 351.801 86.82 352.081 87.16 352.081C87.5 352.081 87.74 351.821 87.74 351.481C87.74 351.141 87.48 350.901 87.16 350.901ZM87.16 353.281C86.18 353.281 85.36 352.481 85.36 351.501C85.36 350.521 86.16 349.721 87.16 349.721C88.16 349.721 88.94 350.521 88.94 351.501C88.94 352.481 88.14 353.281 87.16 353.281Z" fill="black"/>
<path d="M66.08 350.901C65.76 350.901 65.48 351.161 65.48 351.481C65.48 351.801 65.74 352.081 66.08 352.081C66.42 352.081 66.66 351.821 66.66 351.481C66.66 351.141 66.4 350.901 66.08 350.901ZM66.08 353.281C65.1 353.281 64.28 352.481 64.28 351.501C64.28 350.521 65.08 349.721 66.08 349.721C67.08 349.721 67.86 350.521 67.86 351.501C67.86 352.481 67.06 353.281 66.08 353.281Z" fill="black"/>
<path d="M87.16 367.28C86.84 367.28 86.56 367.54 86.56 367.86C86.56 368.18 86.82 368.46 87.16 368.46C87.5 368.46 87.74 368.2 87.74 367.86C87.74 367.52 87.48 367.28 87.16 367.28ZM87.16 369.66C86.18 369.66 85.36 368.86 85.36 367.88C85.36 366.9 86.16 366.1 87.16 366.1C88.16 366.1 88.94 366.9 88.94 367.88C88.94 368.86 88.14 369.66 87.16 369.66Z" fill="black"/>
<path d="M91.7 359.1C91.38 359.1 91.1 359.36 91.1 359.68C91.1 360 91.36 360.28 91.7 360.28C92.04 360.28 92.28 360.02 92.28 359.68C92.28 359.34 92.02 359.1 91.7 359.1ZM91.7 361.48C90.72 361.48 89.9 360.68 89.9 359.7C89.9 358.72 90.7 357.92 91.7 357.92C92.7 357.92 93.48 358.72 93.48 359.7C93.48 360.68 92.68 361.48 91.7 361.48Z" fill="black"/>
<path d="M61.1 359.1C60.78 359.1 60.5 359.36 60.5 359.68C60.5 360 60.76 360.28 61.1 360.28C61.44 360.28 61.68 360.02 61.68 359.68C61.68 359.34 61.42 359.1 61.1 359.1ZM61.1 361.48C60.12 361.48 59.3 360.68 59.3 359.7C59.3 358.72 60.1 357.92 61.1 357.92C62.1 357.92 62.88 358.72 62.88 359.7C62.88 360.68 62.08 361.48 61.1 361.48Z" fill="black"/>
<path d="M66.08 367.28C65.76 367.28 65.48 367.54 65.48 367.86C65.48 368.18 65.74 368.46 66.08 368.46C66.42 368.46 66.66 368.2 66.66 367.86C66.66 367.52 66.4 367.28 66.08 367.28ZM66.08 369.66C65.1 369.66 64.28 368.86 64.28 367.88C64.28 366.9 65.08 366.1 66.08 366.1C67.08 366.1 67.86 366.9 67.86 367.88C67.86 368.86 67.06 369.66 66.08 369.66Z" fill="black"/>
<path d="M119.52 198.6C118.32 198.6 117.34 199.58 117.34 200.78C117.34 201.98 118.32 202.94 119.52 202.94C120.72 202.94 121.68 201.96 121.68 200.78C121.68 199.6 120.7 198.6 119.52 198.6ZM119.52 204.14C117.66 204.14 116.16 202.64 116.16 200.78C116.16 198.92 117.68 197.42 119.52 197.42C121.36 197.42 122.88 198.94 122.88 200.78C122.88 202.62 121.36 204.14 119.52 204.14Z" fill="black"/>
<path d="M119.18 165.459C117.98 165.459 117 166.439 117 167.639C117 168.839 117.98 169.799 119.18 169.799C120.38 169.799 121.34 168.819 121.34 167.639C121.34 166.459 120.36 165.459 119.18 165.459ZM119.18 170.999C117.32 170.999 115.82 169.499 115.82 167.639C115.82 165.779 117.34 164.279 119.18 164.279C121.02 164.279 122.54 165.799 122.54 167.639C122.54 169.479 121.02 170.999 119.18 170.999Z" fill="black"/>
<path d="M33.1 198.6C31.9 198.6 30.92 199.58 30.92 200.78C30.92 201.98 31.9 202.94 33.1 202.94C34.3 202.94 35.26 201.96 35.26 200.78C35.26 199.6 34.28 198.6 33.1 198.6ZM33.1 204.14C31.24 204.14 29.74 202.64 29.74 200.78C29.74 198.92 31.26 197.42 33.1 197.42C34.94 197.42 36.46 198.94 36.46 200.78C36.46 202.62 34.94 204.14 33.1 204.14Z" fill="black"/>
<path d="M57.16 225.161C56.46 225.161 55.88 225.741 55.88 226.441C55.88 227.141 56.46 227.721 57.16 227.721C57.86 227.721 58.44 227.141 58.44 226.441C58.44 225.741 57.86 225.161 57.16 225.161ZM57.16 228.921C55.8 228.921 54.68 227.801 54.68 226.441C54.68 225.081 55.8 223.961 57.16 223.961C58.52 223.961 59.64 225.081 59.64 226.441C59.64 227.801 58.52 228.921 57.16 228.921Z" fill="black"/>
<path d="M95.44 225.161C94.74 225.161 94.16 225.741 94.16 226.441C94.16 227.141 94.74 227.721 95.44 227.721C96.14 227.721 96.72 227.141 96.72 226.441C96.72 225.741 96.14 225.161 95.44 225.161ZM95.44 228.921C94.08 228.921 92.96 227.801 92.96 226.441C92.96 225.081 94.08 223.961 95.44 223.961C96.8 223.961 97.92 225.081 97.92 226.441C97.92 227.801 96.8 228.921 95.44 228.921Z" fill="black"/>
<path d="M129.54 208.241C128.38 207.501 126.98 203.621 126.98 203.621C126.98 203.621 131.08 203.281 132.24 204.021C133.4 204.761 135 208.781 135 208.781C135 208.781 130.7 209.001 129.52 208.241" fill="black"/>
<path d="M141.26 213.96C140.42 213.42 139.4 210.62 139.4 210.62C139.4 210.62 142.36 210.38 143.2 210.92C144.04 211.46 145.2 214.36 145.2 214.36C145.2 214.36 142.08 214.52 141.24 213.98" fill="black"/>
<path d="M149.72 218.059C149.18 217.699 148.52 215.879 148.52 215.879C148.52 215.879 150.44 215.719 151 216.059C151.54 216.419 152.3 218.299 152.3 218.299C152.3 218.299 150.28 218.399 149.72 218.039" fill="black"/>
<path d="M128.5 159.361C127.34 160.101 125.94 163.981 125.94 163.981C125.94 163.981 130.04 164.321 131.2 163.581C132.36 162.841 133.96 158.821 133.96 158.821C133.96 158.821 129.66 158.601 128.48 159.361" fill="black"/>
<path d="M140.22 153.641C139.38 154.181 138.36 156.981 138.36 156.981C138.36 156.981 141.32 157.221 142.16 156.681C143 156.141 144.16 153.241 144.16 153.241C144.16 153.241 141.04 153.081 140.2 153.621" fill="black"/>
<path d="M148.68 149.54C148.14 149.9 147.48 151.72 147.48 151.72C147.48 151.72 149.4 151.88 149.96 151.54C150.5 151.18 151.26 149.3 151.26 149.3C151.26 149.3 149.24 149.2 148.68 149.56" fill="black"/>
<path d="M33.68 165.459C32.48 165.459 31.5 166.439 31.5 167.639C31.5 168.839 32.48 169.799 33.68 169.799C34.88 169.799 35.84 168.819 35.84 167.639C35.84 166.459 34.86 165.459 33.68 165.459ZM33.68 170.999C31.82 170.999 30.32 169.499 30.32 167.639C30.32 165.779 31.84 164.279 33.68 164.279C35.52 164.279 37.04 165.799 37.04 167.639C37.04 169.479 35.52 170.999 33.68 170.999Z" fill="black"/>
<path d="M24.36 159.361C25.52 160.101 26.92 163.981 26.92 163.981C26.92 163.981 22.82 164.321 21.66 163.581C20.5 162.841 18.9 158.821 18.9 158.821C18.9 158.821 23.2 158.601 24.38 159.361" fill="black"/>
<path d="M12.64 153.641C13.48 154.181 14.5 156.981 14.5 156.981C14.5 156.981 11.54 157.221 10.7 156.681C9.86001 156.141 8.70001 153.241 8.70001 153.241C8.70001 153.241 11.82 153.081 12.66 153.621" fill="black"/>
<path d="M4.17999 149.54C4.71999 149.9 5.38 151.72 5.38 151.72C5.38 151.72 3.46002 151.88 2.90002 151.54C2.36002 151.18 1.59998 149.3 1.59998 149.3C1.59998 149.3 3.61999 149.2 4.17999 149.56" fill="black"/>
<path d="M24.5 208.241C25.66 207.501 27.06 203.621 27.06 203.621C27.06 203.621 22.96 203.281 21.8 204.021C20.64 204.761 19.04 208.781 19.04 208.781C19.04 208.781 23.34 209.001 24.52 208.241" fill="black"/>
<path d="M12.78 213.96C13.62 213.42 14.64 210.62 14.64 210.62C14.64 210.62 11.68 210.38 10.84 210.92C10 211.46 8.84003 214.36 8.84003 214.36C8.84003 214.36 11.96 214.52 12.8 213.98" fill="black"/>
<path d="M4.32001 218.059C4.86001 217.699 5.52002 215.879 5.52002 215.879C5.52002 215.879 3.59998 215.719 3.03998 216.059C2.49998 216.419 1.73999 218.299 1.73999 218.299C1.73999 218.299 3.76001 218.399 4.32001 218.039" fill="black"/>
<path d="M76.4 9.19945C76.06 9.19945 75.8 8.93946 75.8 8.59946V1.53944C75.8 1.19944 76.08 0.939453 76.4 0.939453C76.72 0.939453 77 1.19944 77 1.53944V8.59946C77 8.93946 76.72 9.19945 76.4 9.19945Z" fill="black"/>
<path d="M78.78 10.0602C78.66 10.0602 78.54 10.0202 78.44 9.96022C78.16 9.78022 78.1 9.40021 78.28 9.12021L80.72 5.60022C80.92 5.32022 81.28 5.26022 81.56 5.44022C81.84 5.62022 81.9 6.00022 81.72 6.28022L79.28 9.82022C79.16 9.98022 78.98 10.0802 78.78 10.0802" fill="black"/>
<path d="M79.62 12.4205C79.36 12.4205 79.1 12.2405 79.04 11.9605C78.96 11.6405 79.16 11.3205 79.48 11.2405L82.54 10.4805C82.86 10.4005 83.18 10.6005 83.26 10.9205C83.34 11.2405 83.14 11.5605 82.82 11.6405L79.76 12.4005C79.76 12.4005 79.66 12.4005 79.62 12.4005" fill="black"/>
<path d="M74.12 10.0597C73.92 10.0597 73.74 9.9797 73.62 9.7997L71.18 6.25969C71 5.97969 71.0601 5.61969 71.3401 5.41969C71.6201 5.21969 71.98 5.29969 72.18 5.57969L74.62 9.0997C74.8 9.3797 74.74 9.7397 74.46 9.9397C74.36 10.0197 74.24 10.0397 74.12 10.0397" fill="black"/>
<path d="M73.28 12.4201C73.28 12.4201 73.18 12.4201 73.14 12.4201L70.08 11.6601C69.76 11.5801 69.56 11.2601 69.64 10.9401C69.72 10.6201 70.04 10.4201 70.36 10.5001L73.42 11.2601C73.74 11.3401 73.94 11.6601 73.86 11.9801C73.78 12.2601 73.54 12.4401 73.28 12.4401" fill="black"/>
<path d="M76.4 434.119C76.24 434.119 76.08 434.059 75.96 433.919L72.12 429.659C71.9 429.419 71.92 429.039 72.16 428.819C72.4 428.599 72.78 428.619 73 428.859L76.84 433.119C77.06 433.359 77.04 433.739 76.8 433.959C76.68 434.059 76.54 434.119 76.4 434.119Z" fill="black"/>
<path d="M76.4 429.039C76.24 429.039 76.08 428.979 75.96 428.839L72.12 424.579C71.9 424.339 71.92 423.959 72.16 423.739C72.4 423.519 72.78 423.539 73 423.779L76.84 428.039C77.06 428.279 77.04 428.659 76.8 428.879C76.68 428.979 76.54 429.039 76.4 429.039Z" fill="black"/>
<path d="M76.4 434.119C76.26 434.119 76.12 434.079 76 433.959C75.76 433.739 75.74 433.359 75.96 433.119L79.8 428.859C80.02 428.619 80.4 428.599 80.64 428.819C80.88 429.039 80.9 429.419 80.68 429.659L76.84 433.919C76.72 434.059 76.56 434.119 76.4 434.119Z" fill="black"/>
<path d="M76.4 429.039C76.26 429.039 76.12 428.999 76 428.879C75.76 428.659 75.74 428.279 75.96 428.039L79.8 423.779C80.02 423.539 80.4 423.519 80.64 423.739C80.88 423.959 80.9 424.339 80.68 424.579L76.84 428.839C76.72 428.979 76.56 429.039 76.4 429.039Z" fill="black"/>
<path d="M74.48 440.119C74.48 439.059 75.34 438.199 76.4 438.199C77.46 438.199 78.32 439.059 78.32 440.119C78.32 441.179 77.46 442.039 76.4 442.039C75.34 442.039 74.48 441.179 74.48 440.119Z" fill="black"/>
<path d="M75.04 448.62C75.04 447.86 75.64 447.26 76.4 447.26C77.16 447.26 77.76 447.86 77.76 448.62C77.76 449.38 77.16 449.98 76.4 449.98C75.64 449.98 75.04 449.38 75.04 448.62Z" fill="black"/>
<path d="M135.18 385.66C135.02 385.66 134.86 385.6 134.74 385.46L130.9 381.2C130.68 380.96 130.7 380.58 130.94 380.36C131.18 380.14 131.56 380.16 131.78 380.4L135.62 384.66C135.84 384.9 135.82 385.28 135.58 385.5C135.46 385.6 135.32 385.66 135.18 385.66Z" fill="black"/>
<path d="M135.18 380.58C135.02 380.58 134.86 380.52 134.74 380.38L130.9 376.12C130.68 375.88 130.7 375.5 130.94 375.28C131.18 375.06 131.56 375.08 131.78 375.32L135.62 379.58C135.84 379.82 135.82 380.2 135.58 380.42C135.46 380.52 135.32 380.58 135.18 380.58Z" fill="black"/>
<path d="M135.18 385.66C135.04 385.66 134.9 385.62 134.78 385.5C134.54 385.28 134.52 384.9 134.74 384.66L138.58 380.4C138.8 380.16 139.18 380.14 139.42 380.36C139.66 380.58 139.68 380.96 139.46 381.2L135.62 385.46C135.5 385.6 135.34 385.66 135.18 385.66Z" fill="black"/>
<path d="M135.18 380.58C135.04 380.58 134.9 380.54 134.78 380.42C134.54 380.2 134.52 379.82 134.74 379.58L138.58 375.32C138.8 375.08 139.18 375.06 139.42 375.28C139.66 375.5 139.68 375.88 139.46 376.12L135.62 380.38C135.5 380.52 135.34 380.58 135.18 380.58Z" fill="black"/>
<path d="M133.26 391.66C133.26 390.6 134.12 389.74 135.18 389.74C136.24 389.74 137.1 390.6 137.1 391.66C137.1 392.72 136.24 393.58 135.18 393.58C134.12 393.58 133.26 392.72 133.26 391.66Z" fill="black"/>
<path d="M133.82 400.161C133.82 399.401 134.42 398.801 135.18 398.801C135.94 398.801 136.54 399.401 136.54 400.161C136.54 400.921 135.94 401.521 135.18 401.521C134.42 401.521 133.82 400.921 133.82 400.161Z" fill="black"/>
<path d="M134.5 407.68C134.5 407.3 134.8 407 135.18 407C135.56 407 135.86 407.3 135.86 407.68C135.86 408.06 135.56 408.36 135.18 408.36C134.8 408.36 134.5 408.06 134.5 407.68Z" fill="black"/>
<path d="M17.66 385.66C17.5 385.66 17.34 385.6 17.22 385.46L13.38 381.2C13.16 380.96 13.18 380.58 13.42 380.36C13.66 380.14 14.04 380.16 14.26 380.4L18.1 384.66C18.32 384.9 18.3 385.28 18.06 385.5C17.94 385.6 17.8 385.66 17.66 385.66Z" fill="black"/>
<path d="M17.66 380.58C17.5 380.58 17.34 380.52 17.22 380.38L13.38 376.12C13.16 375.88 13.18 375.5 13.42 375.28C13.66 375.06 14.04 375.08 14.26 375.32L18.1 379.58C18.32 379.82 18.3 380.2 18.06 380.42C17.94 380.52 17.8 380.58 17.66 380.58Z" fill="black"/>
<path d="M17.66 385.66C17.52 385.66 17.38 385.62 17.26 385.5C17.02 385.28 17 384.9 17.22 384.66L21.06 380.4C21.28 380.16 21.66 380.14 21.9 380.36C22.14 380.58 22.16 380.96 21.94 381.2L18.1 385.46C17.98 385.6 17.82 385.66 17.66 385.66Z" fill="black"/>
<path d="M17.66 380.58C17.52 380.58 17.38 380.54 17.26 380.42C17.02 380.2 17 379.82 17.22 379.58L21.06 375.32C21.28 375.08 21.66 375.06 21.9 375.28C22.14 375.5 22.16 375.88 21.94 376.12L18.1 380.38C17.98 380.52 17.82 380.58 17.66 380.58Z" fill="black"/>
<path d="M15.74 391.66C15.74 390.6 16.6 389.74 17.66 389.74C18.72 389.74 19.58 390.6 19.58 391.66C19.58 392.72 18.72 393.58 17.66 393.58C16.6 393.58 15.74 392.72 15.74 391.66Z" fill="black"/>
<path d="M16.3 400.161C16.3 399.401 16.9 398.801 17.66 398.801C18.42 398.801 19.02 399.401 19.02 400.161C19.02 400.921 18.42 401.521 17.66 401.521C16.9 401.521 16.3 400.921 16.3 400.161Z" fill="black"/>
<path d="M16.98 407.68C16.98 407.3 17.28 407 17.66 407C18.04 407 18.34 407.3 18.34 407.68C18.34 408.06 18.04 408.36 17.66 408.36C17.28 408.36 16.98 408.06 16.98 407.68Z" fill="black"/>
<path d="M135.18 384.179C134.84 384.179 134.58 383.919 134.58 383.579V341.639C134.58 341.299 134.86 341.039 135.18 341.039C135.5 341.039 135.78 341.299 135.78 341.639V383.579C135.78 383.919 135.5 384.179 135.18 384.179Z" fill="black"/>
<path d="M135.18 327.62C134.84 327.62 134.58 327.36 134.58 327.02V275.02C134.58 274.68 134.86 274.42 135.18 274.42C135.5 274.42 135.78 274.68 135.78 275.02V327.02C135.78 327.36 135.5 327.62 135.18 327.62Z" fill="black"/>
<path d="M17.66 384.179C17.32 384.179 17.06 383.919 17.06 383.579V341.639C17.06 341.299 17.34 341.039 17.66 341.039C17.98 341.039 18.26 341.299 18.26 341.639V383.579C18.26 383.919 17.98 384.179 17.66 384.179Z" fill="black"/>
<path d="M17.66 327.62C17.32 327.62 17.06 327.36 17.06 327.02V275.02C17.06 274.68 17.34 274.42 17.66 274.42C17.98 274.42 18.26 274.68 18.26 275.02V327.02C18.26 327.36 17.98 327.62 17.66 327.62Z" fill="black"/>
</svg>
