<svg width="210" height="446" viewBox="0 0 210 446" fill="none" xmlns="http://www.w3.org/2000/svg">
<path d="M60.98 190.62C60.98 190.62 60.82 190.62 60.76 190.58C43.66 183.56 29.16 173.72 18.82 162.14C13.24 155.9 8.93998 149.18 5.97998 142.2C2.83998 134.74 1.26001 126.92 1.26001 118.96C1.26001 103 7.48001 88.0202 18.76 76.7402C30.04 65.4602 45.04 59.2402 61 59.2402C76.96 59.2402 91.94 65.4602 103.22 76.7402C114.5 88.0202 120.72 103.02 120.72 118.96C120.72 119.28 120.44 119.56 120.12 119.56C119.8 119.56 119.52 119.28 119.52 118.96C119.52 103.32 113.44 88.6402 102.38 77.5802C91.32 66.5202 76.62 60.4402 61 60.4402C45.38 60.4402 30.68 66.5202 19.62 77.5802C8.55999 88.6402 2.47998 103.34 2.47998 118.96C2.47998 126.76 4.04 134.42 7.12 141.74C10.02 148.6 14.26 155.2 19.74 161.34C29.96 172.78 44.3 182.52 61.24 189.46C61.54 189.58 61.7 189.94 61.56 190.24C61.46 190.48 61.24 190.62 61 190.62" fill="black"/>
<path d="M60.98 281.761C37.82 281.761 18.98 262.921 18.98 239.781C18.98 239.441 19.24 239.181 19.58 239.181C19.92 239.181 20.18 239.441 20.18 239.781C20.18 262.281 38.48 280.581 60.98 280.581C83.48 280.581 101.78 262.281 101.78 239.781C101.78 229.121 97.74 219.181 89.74 210.221C82.6 202.221 72.58 195.441 60.76 190.581C60.46 190.461 60.3 190.101 60.44 189.801C60.56 189.501 60.92 189.341 61.22 189.481C73.22 194.401 83.4 201.301 90.64 209.441C98.82 218.621 102.98 228.821 102.98 239.801C102.98 262.961 84.14 281.781 61 281.781" fill="black"/>
<path d="M189.5 86.2201C189.32 86.2201 189.16 86.1401 189.04 86.0001C177.88 72.8401 161.6 65.2801 144.36 65.2801C129.88 65.2801 115.98 70.6001 105.22 80.2801C104.98 80.5001 104.6 80.4801 104.38 80.2401C104.16 80.0001 104.18 79.6201 104.42 79.4001C115.4 69.5201 129.58 64.0801 144.36 64.0801C161.94 64.0801 178.56 71.7801 189.94 85.2201C190.16 85.4801 190.12 85.8601 189.88 86.0601C189.76 86.1601 189.62 86.2001 189.5 86.2001" fill="black"/>
<path d="M194.8 93.5409C194.6 93.5409 194.4 93.4409 194.28 93.2609C193.54 92.0409 192.72 90.8409 191.88 89.6609C191.68 89.4009 191.74 89.0209 192.02 88.8209C192.28 88.6209 192.66 88.6809 192.86 88.9609C193.72 90.1409 194.54 91.3809 195.3 92.6209C195.48 92.9009 195.38 93.2809 195.1 93.4409C195 93.5009 194.9 93.5209 194.78 93.5209" fill="black"/>
<path d="M199.64 103.38C199.4 103.38 199.18 103.24 199.08 103C198.4 101.22 197.62 99.4395 196.78 97.7395C196.64 97.4395 196.76 97.0795 197.06 96.9395C197.36 96.7995 197.72 96.9195 197.86 97.1995C198.72 98.9395 199.52 100.76 200.22 102.58C200.34 102.88 200.18 103.239 199.88 103.359C199.8 103.379 199.74 103.4 199.66 103.4" fill="black"/>
<path d="M107 81.7C106.84 81.7 106.68 81.64 106.56 81.5C106.34 81.26 106.36 80.88 106.6 80.66C116.38 71.86 129.04 67 142.2 67C148.58 67 154.82 68.12 160.74 70.32C161.04 70.44 161.2 70.78 161.1 71.1C160.98 71.42 160.64 71.56 160.32 71.46C154.54 69.3 148.44 68.22 142.2 68.22C129.32 68.22 116.96 72.96 107.4 81.56C107.28 81.66 107.14 81.72 107 81.72" fill="black"/>
<path d="M168.76 75.3802C168.66 75.3802 168.56 75.3602 168.46 75.3002C166.98 74.4402 165.44 73.6202 163.88 72.9202C163.58 72.7802 163.44 72.4202 163.58 72.1202C163.72 71.8202 164.08 71.6802 164.38 71.8202C165.98 72.5402 167.56 73.3802 169.08 74.2602C169.36 74.4202 169.46 74.8002 169.3 75.0802C169.18 75.2602 168.98 75.3802 168.78 75.3802" fill="black"/>
<path d="M174.68 79.3996C174.54 79.3996 174.42 79.3596 174.3 79.2796C173.82 78.8996 173.32 78.5196 172.82 78.1596C172.56 77.9596 172.5 77.5996 172.68 77.3196C172.88 77.0596 173.26 76.9996 173.52 77.1796C174.02 77.5396 174.54 77.9396 175.02 78.3196C175.28 78.5196 175.32 78.8996 175.12 79.1596C175 79.3196 174.82 79.3796 174.64 79.3796" fill="black"/>
<path d="M178.46 82.6803C178.32 82.6803 178.16 82.6203 178.04 82.5203C177.58 82.0803 177.1 81.6403 176.62 81.2203C176.38 81.0003 176.34 80.6203 176.56 80.3803C176.78 80.1403 177.16 80.1003 177.4 80.3203C177.88 80.7603 178.38 81.2003 178.84 81.6403C179.08 81.8603 179.08 82.2403 178.86 82.4803C178.74 82.6003 178.58 82.6603 178.42 82.6603" fill="black"/>
<path d="M102.62 81.7005C102.48 81.7005 102.34 81.6405 102.22 81.5405C92.66 72.9405 80.3 68.2005 67.42 68.2005C61.18 68.2005 55.08 69.3005 49.3 71.4405C49 71.5605 48.64 71.4004 48.52 71.0804C48.4 70.7604 48.56 70.4204 48.88 70.3004C54.8 68.1004 61.04 66.9805 67.42 66.9805C80.6 66.9805 93.24 71.8205 103.02 80.6405C103.26 80.8605 103.28 81.2405 103.06 81.4805C102.94 81.6205 102.78 81.6805 102.62 81.6805" fill="black"/>
<path d="M40.88 75.3802C40.68 75.3802 40.48 75.2802 40.36 75.0802C40.2 74.8002 40.28 74.4202 40.58 74.2602C42.1 73.3802 43.68 72.5602 45.28 71.8202C45.58 71.6802 45.94 71.8202 46.08 72.1202C46.22 72.4202 46.08 72.7802 45.78 72.9202C44.22 73.6402 42.68 74.4402 41.2 75.3002C41.1 75.3602 41 75.3802 40.9 75.3802" fill="black"/>
<path d="M34.94 79.3998C34.76 79.3998 34.5801 79.3198 34.4601 79.1798C34.2601 78.9198 34.3 78.5398 34.56 78.3398C35.06 77.9598 35.56 77.5598 36.06 77.1998C36.32 76.9998 36.7001 77.0598 36.9001 77.3398C37.1001 77.5998 37.04 77.9798 36.76 78.1798C36.26 78.5398 35.7801 78.9198 35.2801 79.2998C35.1601 79.3798 35.04 79.4198 34.92 79.4198" fill="black"/>
<path d="M31.1599 82.6807C30.9999 82.6807 30.8399 82.6207 30.7199 82.5007C30.4999 82.2607 30.5 81.8807 30.74 81.6607C31.22 81.2207 31.7 80.7607 32.18 80.3407C32.42 80.1207 32.8 80.1407 33.02 80.4007C33.24 80.6407 33.22 81.0207 32.96 81.2407C32.48 81.6607 32 82.1007 31.54 82.5407C31.42 82.6407 31.28 82.7007 31.12 82.7007" fill="black"/>
<path d="M148.92 281.759C125.76 281.759 106.92 262.919 106.92 239.779C106.92 228.819 111.08 218.599 119.26 209.419C126.52 201.299 136.68 194.399 148.68 189.459C165.62 182.499 179.96 172.779 190.18 161.339C195.66 155.199 199.9 148.599 202.8 141.719C205.88 134.419 207.44 126.759 207.44 118.939C207.44 103.299 201.36 88.5992 190.3 77.5592C179.24 66.5192 164.54 60.4192 148.92 60.4192C133.3 60.4192 118.58 66.4992 107.54 77.5592C96.48 88.6192 90.4 103.319 90.4 118.939C90.4 119.259 90.14 119.539 89.8 119.539C89.46 119.539 89.2 119.279 89.2 118.939C89.2 102.979 95.42 87.9792 106.7 76.6992C117.98 65.4192 132.98 59.1992 148.94 59.1992C164.9 59.1992 179.88 65.4192 191.16 76.6992C202.44 87.9792 208.66 102.979 208.66 118.939C208.66 126.899 207.06 134.719 203.94 142.179C201 149.159 196.68 155.879 191.1 162.119C180.76 173.699 166.26 183.539 149.16 190.559C137.32 195.419 127.3 202.219 120.18 210.199C112.2 219.139 108.14 229.099 108.14 239.759C108.14 262.259 126.44 280.559 148.94 280.559C171.44 280.559 189.74 262.259 189.74 239.759C189.74 239.419 190 239.159 190.34 239.159C190.68 239.159 190.94 239.419 190.94 239.759C190.94 262.919 172.1 281.739 148.94 281.739" fill="black"/>
<path d="M191.28 126.34C191.28 126.34 191.22 126.34 191.2 126.34C190.88 126.3 190.64 126 190.68 125.66C190.96 123.46 191.12 121.2 191.12 118.94C191.12 118.6 191.38 118.34 191.72 118.34C192.06 118.34 192.32 118.6 192.32 118.94C192.32 121.24 192.16 123.56 191.88 125.82C191.84 126.12 191.58 126.34 191.28 126.34Z" fill="black"/>
<path d="M188.7 137.079C188.7 137.079 188.56 137.079 188.5 137.039C188.18 136.919 188.02 136.579 188.14 136.279C188.82 134.339 189.4 132.339 189.86 130.359C189.94 130.039 190.26 129.839 190.58 129.899C190.9 129.979 191.1 130.299 191.02 130.619C190.56 132.659 189.98 134.679 189.26 136.679C189.18 136.919 188.94 137.079 188.7 137.079Z" fill="black"/>
<path d="M183.56 147.8C183.46 147.8 183.34 147.78 183.24 147.72C182.96 147.54 182.86 147.18 183.04 146.9C184.18 145.04 185.22 143.12 186.12 141.18C186.26 140.88 186.62 140.76 186.92 140.9C187.22 141.04 187.34 141.4 187.2 141.7C186.28 143.66 185.22 145.62 184.06 147.54C183.94 147.72 183.76 147.82 183.54 147.82" fill="black"/>
<path d="M112.86 201.299C112.72 201.299 112.58 201.259 112.48 201.159C112.22 200.939 112.2 200.559 112.42 200.319C118.92 192.639 128.28 186.159 139.48 181.559C148.12 178.019 156.02 173.659 162.96 168.599C170.26 163.279 176.32 157.299 180.96 150.839C181.16 150.579 181.52 150.519 181.8 150.699C182.06 150.899 182.12 151.259 181.94 151.539C177.22 158.099 171.08 164.159 163.66 169.559C156.64 174.679 148.66 179.079 139.94 182.679C128.92 187.199 119.72 193.559 113.34 201.099C113.22 201.239 113.06 201.319 112.88 201.319" fill="black"/>
<path d="M17.82 126.34C17.52 126.34 17.26 126.12 17.22 125.82C16.92 123.56 16.78 121.24 16.78 118.94C16.78 118.6 17.04 118.34 17.38 118.34C17.72 118.34 17.98 118.6 17.98 118.94C17.98 121.18 18.12 123.44 18.42 125.66C18.46 125.98 18.24 126.3 17.9 126.34C17.88 126.34 17.84 126.34 17.82 126.34Z" fill="black"/>
<path d="M20.4 137.08C20.16 137.08 19.92 136.92 19.84 136.68C19.14 134.7 18.54 132.66 18.08 130.62C18 130.3 18.2199 129.98 18.5399 129.9C18.8599 129.82 19.18 130.02 19.26 130.36C19.72 132.34 20.28 134.34 20.98 136.28C21.1 136.6 20.92 136.94 20.62 137.04C20.56 137.06 20.48 137.08 20.42 137.08" fill="black"/>
<path d="M25.54 147.799C25.34 147.799 25.14 147.699 25.02 147.519C23.86 145.619 22.8 143.659 21.88 141.679C21.74 141.379 21.88 141.019 22.16 140.879C22.46 140.739 22.82 140.879 22.96 141.159C23.86 143.079 24.9 144.999 26.04 146.879C26.22 147.159 26.12 147.539 25.84 147.699C25.74 147.759 25.64 147.779 25.52 147.779" fill="black"/>
<path d="M96.76 201.3C96.58 201.3 96.42 201.22 96.3 201.08C89.92 193.56 80.72 187.18 69.7 182.66C60.98 179.08 53 174.66 45.98 169.54C38.56 164.14 32.42 158.08 27.7 151.52C27.5 151.26 27.5601 150.88 27.8401 150.68C28.1001 150.48 28.48 150.54 28.68 150.82C33.32 157.28 39.38 163.24 46.68 168.58C53.62 173.64 61.52 178 70.16 181.54C81.36 186.14 90.7 192.62 97.22 200.3C97.44 200.56 97.4 200.94 97.16 201.14C97.04 201.24 96.9001 201.28 96.7801 201.28" fill="black"/>
<path d="M141.7 223.619C141.4 223.619 141.14 223.399 141.1 223.099C141.06 222.779 141.3 222.479 141.62 222.419C154.32 220.819 163.9 209.959 163.9 197.139C163.9 196.819 164.16 196.539 164.5 196.539C164.84 196.539 165.1 196.819 165.1 197.139V210.559C165.1 210.879 164.84 211.159 164.5 211.159C164.16 211.159 163.9 210.879 163.9 210.559V205.039C160.86 214.799 152.36 222.279 141.76 223.599C141.74 223.599 141.7 223.599 141.68 223.599" fill="black"/>
<path d="M136.56 223.76C136.56 223.76 136.54 223.76 136.52 223.76C129.8 223.28 123.56 220.3 118.94 215.38C114.3 210.42 111.74 203.94 111.74 197.16C111.74 190.38 114.38 183.7 119.58 177.88C124.18 172.74 130.62 168.36 138.2 165.24C148.84 160.88 157.86 154.76 164.28 147.58C171.46 139.54 175.1 130.6 175.1 121.02C175.1 100.8 158.66 84.3601 138.44 84.3601C129.6 84.3601 121.06 87.5401 114.4 93.3401C114.16 93.5601 113.78 93.5202 113.56 93.2802C113.34 93.0402 113.36 92.6602 113.62 92.4402C120.5 86.4602 129.32 83.1602 138.44 83.1602C159.32 83.1602 176.3 100.14 176.3 121.02C176.3 130.9 172.56 140.12 165.18 148.38C158.64 155.7 149.48 161.92 138.66 166.36C131.24 169.4 124.94 173.66 120.48 178.68C115.48 184.28 112.96 190.5 112.96 197.16C112.96 203.82 115.4 209.84 119.84 214.56C124.26 219.28 130.22 222.12 136.64 222.58C136.96 222.6 137.22 222.9 137.2 223.22C137.18 223.54 136.92 223.78 136.6 223.78" fill="black"/>
<path d="M18.5 88.2996C18.38 88.2996 18.24 88.2596 18.14 88.1796C17.88 87.9796 17.84 87.5996 18.04 87.3396C23.5 80.2796 30.6 74.4196 38.56 70.4196C46.9 66.2196 55.92 64.0996 65.32 64.0996C80.1 64.0996 94.28 69.5396 105.26 79.4196C105.5 79.6396 105.52 80.0196 105.3 80.2596C105.08 80.4996 104.7 80.5196 104.46 80.2996C93.7 70.6196 79.8 65.2996 65.32 65.2996C56.1 65.2996 47.28 67.3796 39.1 71.4996C31.3 75.4196 24.34 81.1596 18.98 88.0796C18.86 88.2396 18.68 88.3196 18.5 88.3196" fill="black"/>
<path d="M13.44 96.0201C13.44 96.0201 13.24 96.0001 13.16 95.9401C12.88 95.7801 12.76 95.4201 12.92 95.1201C13.9 93.3601 14.96 91.6201 16.12 89.9401C16.3 89.6601 16.68 89.6001 16.96 89.7801C17.24 89.9601 17.3 90.3401 17.12 90.6201C16 92.2601 14.94 93.9601 14 95.6801C13.9 95.8801 13.68 96.0001 13.48 96.0001" fill="black"/>
<path d="M10.0399 103.379C10.0399 103.379 9.89998 103.379 9.81998 103.339C9.51998 103.219 9.35995 102.879 9.47995 102.559C9.95995 101.319 10.46 100.099 11.02 98.8995C11.16 98.5995 11.52 98.4595 11.82 98.5995C12.12 98.7395 12.26 99.0995 12.12 99.3995C11.58 100.579 11.08 101.779 10.62 102.979C10.52 103.219 10.3 103.359 10.06 103.359" fill="black"/>
<path d="M71.24 223.821C70.9 223.821 70.64 223.561 70.64 223.221C70.64 222.881 70.92 222.621 71.24 222.621C85.3 222.621 96.72 211.181 96.72 197.141C96.72 190.481 94.18 184.261 89.2 178.661C84.72 173.641 78.44 169.381 71.02 166.341C60.22 161.901 51.04 155.681 44.5 148.361C37.12 140.101 33.38 130.881 33.38 121.001C33.38 100.121 50.36 83.1406 71.24 83.1406C80.36 83.1406 89.18 86.4406 96.06 92.4206C96.3 92.6406 96.34 93.0206 96.12 93.2606C95.9 93.5006 95.52 93.5406 95.28 93.3206C88.62 87.5206 80.08 84.3406 71.24 84.3406C51.02 84.3406 34.58 100.781 34.58 121.001C34.58 130.581 38.22 139.521 45.4 147.561C51.82 154.741 60.84 160.861 71.48 165.221C79.08 168.341 85.52 172.701 90.1 177.861C95.3 183.681 97.94 190.161 97.94 197.141C97.94 211.861 85.98 223.821 71.26 223.821" fill="black"/>
<path d="M65.98 223.279C65.98 223.279 65.9 223.279 65.86 223.279C59.92 222.059 54.52 218.819 50.64 214.119C46.72 209.359 44.54 203.319 44.54 197.139C44.54 196.819 44.82 196.539 45.14 196.539C45.46 196.539 45.74 196.799 45.74 197.139C45.74 209.199 54.3 219.699 66.08 222.099C66.4 222.159 66.62 222.479 66.54 222.799C66.48 223.079 66.24 223.279 65.96 223.279" fill="black"/>
<path d="M104.98 159.36C104.8 159.36 104.64 159.28 104.54 159.16C94.64 148.18 89.2 133.98 89.2 119.2C89.2 118.88 89.46 118.6 89.8 118.6C90.14 118.6 90.4 118.86 90.4 119.2C90.4 133.48 95.58 147.18 105 157.86C114.36 147.2 119.52 133.5 119.52 119.2C119.52 118.88 119.78 118.6 120.12 118.6C120.46 118.6 120.72 118.86 120.72 119.2C120.72 134.02 115.3 148.22 105.44 159.16C105.32 159.28 105.16 159.36 105 159.36H104.98Z" fill="black"/>
<path d="M102.38 173.361C102.38 170.781 103.36 168.421 104.96 166.641C106.56 168.421 107.54 170.781 107.54 173.361C107.54 175.941 106.58 178.301 104.96 180.081C103.36 178.301 102.38 175.941 102.38 173.361Z" fill="black"/>
<path d="M103.74 185.2C103.74 184 104.2 182.9 104.94 182.08C105.68 182.9 106.14 184 106.14 185.2C106.14 186.4 105.68 187.5 104.94 188.32C104.2 187.5 103.74 186.4 103.74 185.2Z" fill="black"/>
<path d="M104.94 159.36C104.28 159.36 103.72 159.9 103.72 160.56C103.72 161.22 104.26 161.76 104.94 161.76C105.62 161.76 106.14 161.22 106.14 160.56C106.14 159.9 105.6 159.36 104.94 159.36ZM104.94 162.98C103.62 162.98 102.54 161.9 102.54 160.58C102.54 159.26 103.62 158.18 104.94 158.18C106.26 158.18 107.34 159.26 107.34 160.58C107.34 161.9 106.26 162.98 104.94 162.98Z" fill="black"/>
<path d="M103.74 193.3C103.74 192.64 104.28 192.1 104.94 192.1C105.6 192.1 106.14 192.64 106.14 193.3C106.14 193.96 105.6 194.5 104.94 194.5C104.28 194.5 103.74 193.96 103.74 193.3Z" fill="black"/>
<path d="M18.26 213.52C18.26 212.86 18.8 212.32 19.46 212.32C20.12 212.32 20.66 212.86 20.66 213.52C20.66 214.18 20.12 214.72 19.46 214.72C18.8 214.72 18.26 214.18 18.26 213.52Z" fill="black"/>
<path d="M189.1 213.52C189.1 212.86 189.64 212.32 190.3 212.32C190.96 212.32 191.5 212.86 191.5 213.52C191.5 214.18 190.96 214.72 190.3 214.72C189.64 214.72 189.1 214.18 189.1 213.52Z" fill="black"/>
<path d="M104.14 198.58C104.14 198.14 104.5 197.76 104.96 197.76C105.42 197.76 105.78 198.12 105.78 198.58C105.78 199.04 105.42 199.4 104.96 199.4C104.5 199.4 104.14 199.04 104.14 198.58Z" fill="black"/>
<path d="M104.44 202.779C104.44 202.499 104.66 202.279 104.94 202.279C105.22 202.279 105.44 202.499 105.44 202.779C105.44 203.059 105.22 203.279 104.94 203.279C104.66 203.279 104.44 203.059 104.44 202.779Z" fill="black"/>
<path d="M163.28 230.7C163.28 231.9 163.74 233 164.48 233.82C165.22 233 165.68 231.9 165.68 230.7C165.68 229.5 165.22 228.4 164.48 227.58C163.74 228.4 163.28 229.5 163.28 230.7Z" fill="black"/>
<path d="M163.28 222.6C163.28 223.26 163.82 223.8 164.48 223.8C165.14 223.8 165.68 223.26 165.68 222.6C165.68 221.94 165.14 221.4 164.48 221.4C163.82 221.4 163.28 221.94 163.28 222.6Z" fill="black"/>
<path d="M137.94 240.001C137.94 240.661 138.48 241.201 139.14 241.201C139.8 241.201 140.34 240.661 140.34 240.001C140.34 239.341 139.8 238.801 139.14 238.801C138.48 238.801 137.94 239.341 137.94 240.001Z" fill="black"/>
<path d="M163.66 217.32C163.66 217.78 164.02 218.14 164.48 218.14C164.94 218.14 165.3 217.78 165.3 217.32C165.3 216.86 164.94 216.5 164.48 216.5C164.02 216.5 163.66 216.86 163.66 217.32Z" fill="black"/>
<path d="M163.98 213.119C163.98 213.399 164.2 213.619 164.48 213.619C164.76 213.619 164.98 213.399 164.98 213.119C164.98 212.839 164.76 212.619 164.48 212.619C164.2 212.619 163.98 212.839 163.98 213.119Z" fill="black"/>
<path d="M138.64 245.02C138.64 245.3 138.86 245.52 139.14 245.52C139.42 245.52 139.64 245.3 139.64 245.02C139.64 244.74 139.42 244.52 139.14 244.52C138.86 244.52 138.64 244.74 138.64 245.02Z" fill="black"/>
<path d="M43.94 230.7C43.94 231.9 44.4 233 45.14 233.82C45.88 233 46.34 231.9 46.34 230.7C46.34 229.5 45.88 228.4 45.14 227.58C44.4 228.4 43.94 229.5 43.94 230.7Z" fill="black"/>
<path d="M43.94 222.6C43.94 223.26 44.48 223.8 45.14 223.8C45.8 223.8 46.34 223.26 46.34 222.6C46.34 221.94 45.8 221.4 45.14 221.4C44.48 221.4 43.94 221.94 43.94 222.6Z" fill="black"/>
<path d="M44.32 217.32C44.32 217.78 44.68 218.14 45.14 218.14C45.6 218.14 45.96 217.78 45.96 217.32C45.96 216.86 45.6 216.5 45.14 216.5C44.68 216.5 44.32 216.86 44.32 217.32Z" fill="black"/>
<path d="M44.64 213.119C44.64 213.399 44.86 213.619 45.14 213.619C45.42 213.619 45.64 213.399 45.64 213.119C45.64 212.839 45.42 212.619 45.14 212.619C44.86 212.619 44.64 212.839 44.64 213.119Z" fill="black"/>
<path d="M104.94 229.001C97.64 229.001 91.7 234.941 91.7 242.241C91.7 249.541 97.64 255.481 104.94 255.481C112.24 255.481 118.18 249.541 118.18 242.241C118.18 234.941 112.24 229.001 104.94 229.001ZM104.94 256.681C96.98 256.681 90.5 250.201 90.5 242.241C90.5 234.281 96.98 227.801 104.94 227.801C112.9 227.801 119.38 234.281 119.38 242.241C119.38 250.201 112.9 256.681 104.94 256.681Z" fill="black"/>
<path d="M139.14 221.241C138.04 221.241 137.16 222.141 137.16 223.221C137.16 224.301 138.06 225.201 139.14 225.201C140.22 225.201 141.12 224.301 141.12 223.221C141.12 222.141 140.22 221.241 139.14 221.241ZM139.14 226.421C137.38 226.421 135.96 225.001 135.96 223.241C135.96 221.481 137.38 220.061 139.14 220.061C140.9 220.061 142.32 221.481 142.32 223.241C142.32 225.001 140.9 226.421 139.14 226.421Z" fill="black"/>
<path d="M68.56 221.241C67.46 221.241 66.58 222.141 66.58 223.221C66.58 224.301 67.48 225.201 68.56 225.201C69.64 225.201 70.54 224.301 70.54 223.221C70.54 222.141 69.64 221.241 68.56 221.241ZM68.56 226.421C66.8 226.421 65.38 225.001 65.38 223.241C65.38 221.481 66.8 220.061 68.56 220.061C70.32 220.061 71.74 221.481 71.74 223.241C71.74 225.001 70.32 226.421 68.56 226.421Z" fill="black"/>
<path d="M101.14 250.421C101.14 250.421 100.96 250.421 100.86 250.361C97.78 248.821 95.86 245.701 95.86 242.261C95.86 238.481 98.24 235.061 101.78 233.761C102.08 233.641 102.44 233.801 102.56 234.121C102.68 234.441 102.52 234.781 102.2 234.901C99.12 236.041 97.06 239.001 97.06 242.281C97.06 245.261 98.72 247.961 101.4 249.321C101.7 249.461 101.82 249.821 101.66 250.121C101.56 250.321 101.34 250.441 101.12 250.441" fill="black"/>
<path d="M108.74 250.421C108.52 250.421 108.3 250.301 108.2 250.101C108.06 249.801 108.16 249.441 108.46 249.301C111.14 247.961 112.8 245.261 112.8 242.261C112.8 238.981 110.74 236.021 107.66 234.881C107.36 234.761 107.2 234.421 107.3 234.101C107.42 233.801 107.76 233.641 108.08 233.741C111.62 235.061 114 238.461 114 242.241C114 245.681 112.08 248.801 109 250.341C108.92 250.381 108.82 250.401 108.74 250.401" fill="black"/>
<path d="M102.38 242.24C102.38 240.82 103.54 239.66 104.96 239.66C106.38 239.66 107.54 240.82 107.54 242.24C107.54 243.66 106.38 244.82 104.96 244.82C103.54 244.82 102.38 243.66 102.38 242.24Z" fill="black"/>
<path d="M190.3 235.22C189.2 235.22 188.32 236.1 188.32 237.2C188.32 238.3 189.2 239.18 190.3 239.18C191.4 239.18 192.28 238.3 192.28 237.2C192.28 236.1 191.4 235.22 190.3 235.22ZM190.3 240.36C188.54 240.36 187.12 238.94 187.12 237.18C187.12 235.42 188.54 234 190.3 234C192.06 234 193.48 235.42 193.48 237.18C193.48 238.94 192.06 240.36 190.3 240.36Z" fill="black"/>
<path d="M164.46 192.8C163.64 192.8 162.98 193.46 162.98 194.28C162.98 195.1 163.64 195.76 164.46 195.76C165.28 195.76 165.94 195.1 165.94 194.28C165.94 193.46 165.28 192.8 164.46 192.8ZM164.46 196.96C162.98 196.96 161.78 195.76 161.78 194.28C161.78 192.8 162.98 191.6 164.46 191.6C165.94 191.6 167.14 192.8 167.14 194.28C167.14 195.76 165.94 196.96 164.46 196.96Z" fill="black"/>
<path d="M45.14 192.8C44.32 192.8 43.66 193.46 43.66 194.28C43.66 195.1 44.32 195.76 45.14 195.76C45.96 195.76 46.62 195.1 46.62 194.28C46.62 193.46 45.96 192.8 45.14 192.8ZM45.14 196.96C43.66 196.96 42.46 195.76 42.46 194.28C42.46 192.8 43.66 191.6 45.14 191.6C46.62 191.6 47.82 192.8 47.82 194.28C47.82 195.76 46.62 196.96 45.14 196.96Z" fill="black"/>
<path d="M19.58 235.22C18.48 235.22 17.6 236.1 17.6 237.2C17.6 238.3 18.48 239.18 19.58 239.18C20.68 239.18 21.56 238.3 21.56 237.2C21.56 236.1 20.68 235.22 19.58 235.22ZM19.58 240.36C17.82 240.36 16.4 238.94 16.4 237.18C16.4 235.42 17.82 234 19.58 234C21.34 234 22.76 235.42 22.76 237.18C22.76 238.94 21.34 240.36 19.58 240.36Z" fill="black"/>
<path d="M104.94 256.7C103.84 256.7 102.96 257.58 102.96 258.68C102.96 259.78 103.84 260.66 104.94 260.66C106.04 260.66 106.92 259.78 106.92 258.68C106.92 257.58 106.04 256.7 104.94 256.7ZM104.94 261.84C103.18 261.84 101.76 260.42 101.76 258.66C101.76 256.9 103.18 255.48 104.94 255.48C106.7 255.48 108.12 256.9 108.12 258.66C108.12 260.42 106.7 261.84 104.94 261.84Z" fill="black"/>
<path d="M104.94 273.701C103.84 273.701 102.96 274.58 102.96 275.68C102.96 276.48 104.02 280.2 104.94 283.24C105.86 280.2 106.92 276.48 106.92 275.68C106.92 274.6 106.04 273.701 104.94 273.701ZM104.94 285.86C104.68 285.86 104.44 285.7 104.36 285.44C104.1 284.6 101.76 277.14 101.76 275.66C101.76 273.9 103.18 272.48 104.94 272.48C106.7 272.48 108.12 273.9 108.12 275.66C108.12 277.14 105.78 284.58 105.52 285.44C105.44 285.68 105.22 285.86 104.94 285.86Z" fill="black"/>
<path d="M187.72 220.26C187.72 218.84 188.88 217.68 190.3 217.68C191.72 217.68 192.88 218.84 192.88 220.26C192.88 221.68 190.3 229.84 190.3 229.84C190.3 229.84 187.72 221.68 187.72 220.26Z" fill="black"/>
<path d="M137.46 230.2C137.46 229.26 138.22 228.52 139.14 228.52C140.06 228.52 140.82 229.28 140.82 230.2C140.82 231.12 139.14 236.48 139.14 236.48C139.14 236.48 137.46 231.12 137.46 230.2Z" fill="black"/>
<path d="M67.36 240.001C67.36 240.661 67.9 241.201 68.56 241.201C69.22 241.201 69.76 240.661 69.76 240.001C69.76 239.341 69.22 238.801 68.56 238.801C67.9 238.801 67.36 239.341 67.36 240.001Z" fill="black"/>
<path d="M68.06 245.02C68.06 245.3 68.28 245.52 68.56 245.52C68.84 245.52 69.06 245.3 69.06 245.02C69.06 244.74 68.84 244.52 68.56 244.52C68.28 244.52 68.06 244.74 68.06 245.02Z" fill="black"/>
<path d="M66.88 230.2C66.88 229.26 67.64 228.52 68.56 228.52C69.48 228.52 70.24 229.28 70.24 230.2C70.24 231.12 68.56 236.48 68.56 236.48C68.56 236.48 66.88 231.12 66.88 230.2Z" fill="black"/>
<path d="M16.88 220.26C16.88 218.84 18.04 217.68 19.46 217.68C20.88 217.68 22.04 218.84 22.04 220.26C22.04 221.68 19.46 229.84 19.46 229.84C19.46 229.84 16.88 221.68 16.88 220.26Z" fill="black"/>
<path d="M104.94 337.719C104.6 337.719 104.34 337.459 104.34 337.119V332.459C104.34 332.119 104.6 331.859 104.94 331.859C105.28 331.859 105.54 332.119 105.54 332.459V337.119C105.54 337.459 105.26 337.719 104.94 337.719Z" fill="black"/>
<path d="M104.94 324.799C104.6 324.799 104.34 324.539 104.34 324.199V318.299C104.34 317.979 104.6 317.699 104.94 317.699C105.28 317.699 105.54 317.979 105.54 318.299V324.199C105.54 324.539 105.26 324.799 104.94 324.799Z" fill="black"/>
<path d="M104.94 312.32C104.6 312.32 104.34 312.06 104.34 311.72V285.26C104.34 284.92 104.6 284.66 104.94 284.66C105.28 284.66 105.54 284.92 105.54 285.26V311.72C105.54 312.06 105.26 312.32 104.94 312.32Z" fill="black"/>
<path d="M104.94 267.54C104.6 267.54 104.34 267.28 104.34 266.94V261.26C104.34 260.92 104.6 260.66 104.94 260.66C105.28 260.66 105.54 260.92 105.54 261.26V266.94C105.54 267.28 105.26 267.54 104.94 267.54Z" fill="black"/>
<path d="M88.32 384.72C75.66 384.72 65.36 374.42 65.36 361.78C65.36 361.44 65.62 361.18 65.96 361.18C66.3 361.18 66.56 361.44 66.56 361.78C66.56 373.78 76.32 383.54 88.32 383.54C100.32 383.54 110.08 373.78 110.08 361.78C110.08 361.44 110.34 361.18 110.68 361.18C111.02 361.18 111.28 361.44 111.28 361.78C111.28 374.44 100.98 384.72 88.34 384.72" fill="black"/>
<path d="M121.56 384.72C108.9 384.72 98.6 374.42 98.6 361.78C98.6 361.44 98.86 361.18 99.2 361.18C99.54 361.18 99.8 361.44 99.8 361.78C99.8 373.78 109.56 383.54 121.56 383.54C133.56 383.54 143.32 373.78 143.32 361.78C143.32 361.44 143.58 361.18 143.92 361.18C144.26 361.18 144.52 361.44 144.52 361.78C144.52 374.44 134.22 384.72 121.58 384.72" fill="black"/>
<path d="M110.68 362.279C110.34 362.279 110.08 362.019 110.08 361.679C110.08 356.499 108.26 351.539 104.96 347.639C101.64 351.559 99.82 356.519 99.82 361.679C99.82 362.019 99.56 362.279 99.22 362.279C98.88 362.279 98.62 362.019 98.62 361.679C98.62 355.999 100.72 350.539 104.52 346.319C104.64 346.199 104.8 346.119 104.96 346.119C105.12 346.119 105.3 346.199 105.4 346.319C109.18 350.519 111.28 355.979 111.28 361.679C111.28 362.019 111.02 362.279 110.68 362.279Z" fill="black"/>
<path d="M20.04 239.999C20.04 239.559 20.4 239.199 20.84 239.199C21.28 239.199 21.64 239.559 21.64 239.999C21.64 240.439 21.28 240.799 20.84 240.799C20.4 240.799 20.04 240.439 20.04 239.999Z" fill="black"/>
<path d="M21.66 245.099C21.66 244.639 22.02 244.279 22.48 244.279C22.94 244.279 23.3 244.639 23.3 245.099C23.3 245.559 22.94 245.919 22.48 245.919C22.02 245.919 21.66 245.559 21.66 245.099Z" fill="black"/>
<path d="M23.9 249.88C23.9 249.4 24.28 249.02 24.76 249.02C25.24 249.02 25.62 249.4 25.62 249.88C25.62 250.36 25.24 250.74 24.76 250.74C24.28 250.74 23.9 250.36 23.9 249.88Z" fill="black"/>
<path d="M26.7 254.3C26.7 253.82 27.1 253.42 27.58 253.42C28.06 253.42 28.46 253.82 28.46 254.3C28.46 254.78 28.06 255.18 27.58 255.18C27.1 255.18 26.7 254.78 26.7 254.3Z" fill="black"/>
<path d="M30.04 258.301C30.04 257.801 30.44 257.381 30.96 257.381C31.48 257.381 31.88 257.781 31.88 258.301C31.88 258.821 31.48 259.221 30.96 259.221C30.44 259.221 30.04 258.801 30.04 258.301Z" fill="black"/>
<path d="M33.84 261.86C33.84 261.34 34.26 260.92 34.78 260.92C35.3 260.92 35.72 261.34 35.72 261.86C35.72 262.38 35.3 262.8 34.78 262.8C34.26 262.8 33.84 262.38 33.84 261.86Z" fill="black"/>
<path d="M38.06 264.919C38.06 264.379 38.5 263.939 39.04 263.939C39.58 263.939 40.02 264.379 40.02 264.919C40.02 265.459 39.58 265.899 39.04 265.899C38.5 265.899 38.06 265.459 38.06 264.919Z" fill="black"/>
<path d="M42.66 267.439C42.66 266.879 43.1 266.439 43.66 266.439C44.22 266.439 44.66 266.879 44.66 267.439C44.66 267.999 44.22 268.439 43.66 268.439C43.1 268.439 42.66 267.999 42.66 267.439Z" fill="black"/>
<path d="M47.6 269.34C47.6 268.78 48.06 268.32 48.62 268.32C49.18 268.32 49.64 268.78 49.64 269.34C49.64 269.9 49.18 270.38 48.62 270.38C48.06 270.38 47.6 269.92 47.6 269.34Z" fill="black"/>
<path d="M52.82 270.621C52.82 270.041 53.3 269.561 53.88 269.561C54.46 269.561 54.94 270.041 54.94 270.621C54.94 271.201 54.46 271.681 53.88 271.681C53.3 271.681 52.82 271.201 52.82 270.621Z" fill="black"/>
<path d="M58.28 271.18C58.28 270.58 58.76 270.1 59.36 270.1C59.96 270.1 60.44 270.58 60.44 271.18C60.44 271.78 59.96 272.26 59.36 272.26C58.76 272.26 58.28 271.78 58.28 271.18Z" fill="black"/>
<path d="M63.84 271.02C63.84 270.4 64.34 269.9 64.96 269.9C65.58 269.9 66.08 270.4 66.08 271.02C66.08 271.64 65.58 272.14 64.96 272.14C64.34 272.14 63.84 271.64 63.84 271.02Z" fill="black"/>
<path d="M69.2 270.16C69.2 269.52 69.72 269.02 70.34 269.02C70.96 269.02 71.48 269.54 71.48 270.16C71.48 270.78 70.96 271.3 70.34 271.3C69.72 271.3 69.2 270.78 69.2 270.16Z" fill="black"/>
<path d="M74.3 268.6C74.3 267.96 74.82 267.42 75.48 267.42C76.14 267.42 76.66 267.94 76.66 268.6C76.66 269.26 76.14 269.78 75.48 269.78C74.82 269.78 74.3 269.26 74.3 268.6Z" fill="black"/>
<path d="M79.1 266.44C79.1 265.78 79.64 265.24 80.3 265.24C80.96 265.24 81.5 265.78 81.5 266.44C81.5 267.1 80.96 267.64 80.3 267.64C79.64 267.64 79.1 267.1 79.1 266.44Z" fill="black"/>
<path d="M83.54 263.7C83.54 263.02 84.1 262.48 84.76 262.48C85.42 262.48 86 263.04 86 263.7C86 264.36 85.44 264.94 84.76 264.94C84.08 264.94 83.54 264.38 83.54 263.7Z" fill="black"/>
<path d="M87.6 260.42C87.6 259.72 88.16 259.16 88.86 259.16C89.56 259.16 90.12 259.72 90.12 260.42C90.12 261.12 89.56 261.68 88.86 261.68C88.16 261.68 87.6 261.12 87.6 260.42Z" fill="black"/>
<path d="M91.2 256.68C91.2 255.96 91.78 255.4 92.48 255.4C93.18 255.4 93.76 255.98 93.76 256.68C93.76 257.38 93.18 257.96 92.48 257.96C91.78 257.96 91.2 257.38 91.2 256.68Z" fill="black"/>
<path d="M94.3 252.48C94.3 251.76 94.88 251.16 95.62 251.16C96.36 251.16 96.94 251.76 96.94 252.48C96.94 253.2 96.34 253.8 95.62 253.8C94.9 253.8 94.3 253.22 94.3 252.48Z" fill="black"/>
<path d="M190.3 239.999C190.3 239.559 189.94 239.199 189.5 239.199C189.06 239.199 188.7 239.559 188.7 239.999C188.7 240.439 189.06 240.799 189.5 240.799C189.94 240.799 190.3 240.439 190.3 239.999Z" fill="black"/>
<path d="M188.68 245.099C188.68 244.639 188.3 244.279 187.86 244.279C187.42 244.279 187.04 244.639 187.04 245.099C187.04 245.559 187.42 245.919 187.86 245.919C188.3 245.919 188.68 245.559 188.68 245.099Z" fill="black"/>
<path d="M186.46 249.88C186.46 249.4 186.08 249.02 185.6 249.02C185.12 249.02 184.74 249.4 184.74 249.88C184.74 250.36 185.12 250.74 185.6 250.74C186.08 250.74 186.46 250.36 186.46 249.88Z" fill="black"/>
<path d="M183.64 254.3C183.64 253.82 183.24 253.42 182.76 253.42C182.28 253.42 181.88 253.82 181.88 254.3C181.88 254.78 182.28 255.18 182.76 255.18C183.24 255.18 183.64 254.78 183.64 254.3Z" fill="black"/>
<path d="M180.32 258.301C180.32 257.801 179.9 257.381 179.4 257.381C178.9 257.381 178.48 257.781 178.48 258.301C178.48 258.821 178.88 259.221 179.4 259.221C179.92 259.221 180.32 258.801 180.32 258.301Z" fill="black"/>
<path d="M176.52 261.86C176.52 261.34 176.1 260.92 175.58 260.92C175.06 260.92 174.64 261.34 174.64 261.86C174.64 262.38 175.06 262.8 175.58 262.8C176.1 262.8 176.52 262.38 176.52 261.86Z" fill="black"/>
<path d="M172.3 264.919C172.3 264.379 171.86 263.939 171.32 263.939C170.78 263.939 170.34 264.379 170.34 264.919C170.34 265.459 170.78 265.899 171.32 265.899C171.86 265.899 172.3 265.459 172.3 264.919Z" fill="black"/>
<path d="M167.68 267.439C167.68 266.879 167.24 266.439 166.68 266.439C166.12 266.439 165.68 266.879 165.68 267.439C165.68 267.999 166.12 268.439 166.68 268.439C167.24 268.439 167.68 267.999 167.68 267.439Z" fill="black"/>
<path d="M162.76 269.34C162.76 268.78 162.3 268.32 161.72 268.32C161.14 268.32 160.7 268.78 160.7 269.34C160.7 269.9 161.16 270.38 161.72 270.38C162.28 270.38 162.76 269.92 162.76 269.34Z" fill="black"/>
<path d="M157.52 270.621C157.52 270.041 157.04 269.561 156.46 269.561C155.88 269.561 155.4 270.041 155.4 270.621C155.4 271.201 155.88 271.681 156.46 271.681C157.04 271.681 157.52 271.201 157.52 270.621Z" fill="black"/>
<path d="M152.08 271.18C152.08 270.58 151.6 270.1 151 270.1C150.4 270.1 149.92 270.58 149.92 271.18C149.92 271.78 150.4 272.26 151 272.26C151.6 272.26 152.08 271.78 152.08 271.18Z" fill="black"/>
<path d="M146.52 271.02C146.52 270.4 146.02 269.9 145.4 269.9C144.78 269.9 144.28 270.4 144.28 271.02C144.28 271.64 144.78 272.14 145.4 272.14C146.02 272.14 146.52 271.64 146.52 271.02Z" fill="black"/>
<path d="M141.16 270.16C141.16 269.52 140.64 269.02 140.02 269.02C139.4 269.02 138.88 269.54 138.88 270.16C138.88 270.78 139.4 271.3 140.02 271.3C140.64 271.3 141.16 270.78 141.16 270.16Z" fill="black"/>
<path d="M136.06 268.6C136.06 267.96 135.54 267.42 134.88 267.42C134.22 267.42 133.7 267.94 133.7 268.6C133.7 269.26 134.22 269.78 134.88 269.78C135.54 269.78 136.06 269.26 136.06 268.6Z" fill="black"/>
<path d="M131.26 266.44C131.26 265.78 130.72 265.24 130.06 265.24C129.4 265.24 128.86 265.78 128.86 266.44C128.86 267.1 129.4 267.64 130.06 267.64C130.72 267.64 131.26 267.1 131.26 266.44Z" fill="black"/>
<path d="M126.8 263.7C126.8 263.02 126.24 262.48 125.56 262.48C124.88 262.48 124.32 263.04 124.32 263.7C124.32 264.36 124.88 264.94 125.56 264.94C126.24 264.94 126.8 264.38 126.8 263.7Z" fill="black"/>
<path d="M122.76 260.42C122.76 259.72 122.2 259.16 121.5 259.16C120.8 259.16 120.24 259.72 120.24 260.42C120.24 261.12 120.8 261.68 121.5 261.68C122.2 261.68 122.76 261.12 122.76 260.42Z" fill="black"/>
<path d="M119.16 256.68C119.16 255.96 118.58 255.4 117.88 255.4C117.18 255.4 116.6 255.98 116.6 256.68C116.6 257.38 117.18 257.96 117.88 257.96C118.58 257.96 119.16 257.38 119.16 256.68Z" fill="black"/>
<path d="M116.04 252.48C116.04 251.76 115.44 251.16 114.72 251.16C114 251.16 113.4 251.76 113.4 252.48C113.4 253.2 114 253.8 114.72 253.8C115.44 253.8 116.04 253.22 116.04 252.48Z" fill="black"/>
<path d="M153.28 362.28H134.9C134.56 362.28 134.3 362.02 134.3 361.68C134.3 361.34 134.56 361.08 134.9 361.08H153.28C153.62 361.08 153.88 361.34 153.88 361.68C153.88 362.02 153.62 362.28 153.28 362.28Z" fill="black"/>
<path d="M75.16 362.28H56.78C56.44 362.28 56.18 362.02 56.18 361.68C56.18 361.34 56.44 361.08 56.78 361.08H75.16C75.48 361.08 75.76 361.34 75.76 361.68C75.76 362.02 75.48 362.28 75.16 362.28Z" fill="black"/>
<path d="M143.92 352.419C140.78 352.419 138.22 349.859 138.22 346.719C138.22 346.379 138.48 346.119 138.82 346.119C139.16 346.119 139.42 346.379 139.42 346.719C139.42 349.199 141.44 351.219 143.92 351.219C146.4 351.219 148.42 349.199 148.42 346.719C148.42 346.379 148.68 346.119 149.02 346.119C149.36 346.119 149.62 346.379 149.62 346.719C149.62 349.859 147.06 352.419 143.92 352.419Z" fill="black"/>
<path d="M143.92 352.501C142.38 352.501 141.14 353.741 141.14 355.281C141.14 356.821 142.38 358.061 143.92 358.061C145.46 358.061 146.7 356.821 146.7 355.281C146.7 353.741 145.46 352.501 143.92 352.501ZM143.92 359.261C141.72 359.261 139.94 357.481 139.94 355.281C139.94 353.081 141.72 351.301 143.92 351.301C146.12 351.301 147.9 353.081 147.9 355.281C147.9 357.481 146.12 359.261 143.92 359.261Z" fill="black"/>
<path d="M142.02 345.441C141.92 344.381 142.68 343.441 143.74 343.341C144.8 343.241 145.74 344.001 145.84 345.061C145.94 346.121 145.18 347.061 144.12 347.161C143.06 347.261 142.12 346.501 142.02 345.441Z" fill="black"/>
<path d="M142.92 328.901C142.86 328.341 143.26 327.861 143.82 327.801C144.38 327.741 144.86 328.141 144.92 328.701C144.98 329.261 144.58 329.741 144.02 329.801C143.46 329.861 142.98 329.461 142.92 328.901Z" fill="black"/>
<path d="M143.22 325.479C143.18 325.099 143.46 324.739 143.86 324.699C144.24 324.659 144.6 324.939 144.64 325.339C144.68 325.739 144.4 326.079 144 326.119C143.6 326.159 143.26 325.879 143.22 325.479Z" fill="black"/>
<path d="M143.42 322.36C143.4 322.08 143.6 321.84 143.86 321.82C144.14 321.8 144.38 322 144.4 322.28C144.42 322.56 144.22 322.8 143.96 322.82C143.68 322.84 143.44 322.64 143.42 322.38" fill="black"/>
<path d="M65.98 352.419C62.84 352.419 60.28 349.859 60.28 346.719C60.28 346.379 60.54 346.119 60.88 346.119C61.22 346.119 61.48 346.379 61.48 346.719C61.48 349.199 63.5 351.219 65.98 351.219C68.46 351.219 70.48 349.199 70.48 346.719C70.48 346.379 70.74 346.119 71.08 346.119C71.42 346.119 71.68 346.379 71.68 346.719C71.68 349.859 69.12 352.419 65.98 352.419Z" fill="black"/>
<path d="M65.98 352.501C64.44 352.501 63.2 353.741 63.2 355.281C63.2 356.821 64.44 358.061 65.98 358.061C67.52 358.061 68.76 356.821 68.76 355.281C68.76 353.741 67.52 352.501 65.98 352.501ZM65.98 359.261C63.78 359.261 62 357.481 62 355.281C62 353.081 63.78 351.301 65.98 351.301C68.18 351.301 69.96 353.081 69.96 355.281C69.96 357.481 68.18 359.261 65.98 359.261Z" fill="black"/>
<path d="M64.06 345.441C63.96 344.381 64.72 343.441 65.78 343.341C66.84 343.241 67.78 344.001 67.88 345.061C67.98 346.121 67.22 347.061 66.16 347.161C65.1 347.261 64.16 346.501 64.06 345.441Z" fill="black"/>
<path d="M104.94 421.441C105.1 421.441 105.26 421.501 105.36 421.621C108.58 424.861 112.48 425.921 116.02 424.481C119.6 423.041 121.96 419.401 122.04 415.181C122.1 411.721 120.56 402.981 104.94 395.921C89.32 402.981 87.78 411.741 87.84 415.181C87.92 419.381 90.28 423.041 93.86 424.481C97.4 425.901 101.28 424.861 104.52 421.621C104.64 421.501 104.78 421.441 104.94 421.441ZM97.06 426.321C95.84 426.321 94.62 426.081 93.42 425.601C89.4 423.981 86.74 419.901 86.64 415.221C86.56 411.521 88.18 402.101 104.7 394.721C104.86 394.661 105.04 394.661 105.18 394.721C121.68 402.081 123.3 411.501 123.24 415.221C123.16 419.921 120.5 423.981 116.46 425.601C112.6 427.141 108.44 426.161 104.94 422.881C102.52 425.141 99.78 426.321 97.06 426.321Z" fill="black"/>
<path d="M104.94 415.52C110.64 421.24 118.94 410.14 104.94 403.9C90.94 410.14 99.24 421.26 104.94 415.52Z" fill="black"/>
<path d="M104.94 429.501C104.24 429.501 103.68 430.061 103.68 430.761C103.68 431.461 104.24 432.021 104.94 432.021C105.64 432.021 106.2 431.461 106.2 430.761C106.2 430.061 105.64 429.501 104.94 429.501ZM104.94 433.221C103.58 433.221 102.48 432.121 102.48 430.761C102.48 429.401 103.58 428.301 104.94 428.301C106.3 428.301 107.4 429.401 107.4 430.761C107.4 432.121 106.3 433.221 104.94 433.221Z" fill="black"/>
<path d="M104.94 437.24C104.32 439.94 103.68 442.92 103.68 443.44C103.68 444.14 104.24 444.7 104.94 444.7C105.64 444.7 106.2 444.14 106.2 443.44C106.2 442.92 105.56 439.94 104.94 437.24ZM104.94 445.9C103.58 445.9 102.48 444.8 102.48 443.44C102.48 442.36 104.16 435.279 104.36 434.479C104.42 434.219 104.66 434.02 104.94 434.02C105.22 434.02 105.46 434.219 105.52 434.479C105.72 435.279 107.4 442.38 107.4 443.44C107.4 444.8 106.3 445.9 104.94 445.9Z" fill="black"/>
<path d="M102.02 328.941C101.9 328.941 101.78 328.901 101.68 328.841C101.4 328.641 101.34 328.281 101.54 328.001L104.46 323.881C104.66 323.601 105.02 323.541 105.3 323.741C105.58 323.941 105.64 324.301 105.44 324.581L102.52 328.701C102.4 328.861 102.22 328.961 102.04 328.961" fill="black"/>
<path d="M107.88 328.94C107.7 328.94 107.5 328.86 107.38 328.68L104.46 324.56C104.26 324.28 104.34 323.92 104.6 323.72C104.86 323.52 105.24 323.6 105.44 323.86L108.36 327.98C108.56 328.26 108.48 328.62 108.22 328.82C108.12 328.9 108 328.92 107.88 328.92" fill="black"/>
<path d="M99.02 310.46C98.9 310.46 98.78 310.42 98.68 310.36C98.4 310.16 98.34 309.8 98.54 309.52L104.46 301.18C104.66 300.9 105.02 300.84 105.3 301.04C105.58 301.24 105.64 301.6 105.44 301.88L99.52 310.22C99.4 310.38 99.22 310.48 99.04 310.48" fill="black"/>
<path d="M110.88 310.459C110.7 310.459 110.5 310.379 110.38 310.199L104.46 301.859C104.26 301.579 104.34 301.219 104.6 301.019C104.86 300.839 105.24 300.899 105.44 301.159L111.36 309.499C111.56 309.779 111.48 310.14 111.22 310.34C111.12 310.42 111 310.439 110.88 310.439" fill="black"/>
<path d="M104.94 333.061C104.76 333.061 104.56 332.981 104.44 332.801L101.52 328.681C101.32 328.401 101.4 328.041 101.66 327.841C101.92 327.641 102.3 327.721 102.5 327.981L105.42 332.101C105.62 332.381 105.54 332.741 105.28 332.941C105.18 333.021 105.06 333.041 104.94 333.041" fill="black"/>
<path d="M104.94 333.06C104.82 333.06 104.7 333.02 104.6 332.96C104.32 332.76 104.26 332.4 104.46 332.12L107.38 328C107.58 327.72 107.94 327.66 108.22 327.86C108.5 328.06 108.56 328.42 108.36 328.7L105.44 332.82C105.32 332.98 105.14 333.08 104.96 333.08" fill="black"/>
<path d="M102.62 315.62C102.5 315.62 102.38 315.58 102.28 315.52C102 315.32 101.94 314.96 102.14 314.68L104.48 311.4C104.68 311.12 105.04 311.06 105.32 311.26C105.6 311.46 105.66 311.82 105.46 312.1L103.14 315.38C103.02 315.54 102.84 315.64 102.66 315.64" fill="black"/>
<path d="M107.28 315.62C107.1 315.62 106.9 315.54 106.78 315.36L104.46 312.08C104.26 311.8 104.34 311.44 104.6 311.24C104.88 311.06 105.24 311.12 105.44 311.38L107.78 314.66C107.98 314.94 107.9 315.3 107.64 315.5C107.54 315.58 107.42 315.6 107.3 315.6" fill="black"/>
<path d="M104.94 318.9C104.76 318.9 104.56 318.819 104.44 318.639L102.12 315.359C101.92 315.079 102 314.719 102.26 314.519C102.54 314.339 102.9 314.399 103.1 314.659L105.44 317.939C105.64 318.219 105.56 318.58 105.3 318.78C105.2 318.86 105.08 318.879 104.96 318.879" fill="black"/>
<path d="M104.94 318.9C104.82 318.9 104.7 318.86 104.6 318.8C104.32 318.6 104.26 318.24 104.46 317.96L106.8 314.68C107 314.4 107.36 314.34 107.64 314.54C107.92 314.74 107.98 315.1 107.78 315.38L105.46 318.66C105.34 318.82 105.16 318.92 104.98 318.92" fill="black"/>
<path d="M102.38 361.781C102.38 359.201 103.36 356.841 104.96 355.061C106.56 356.841 107.54 359.201 107.54 361.781C107.54 364.361 106.58 366.721 104.96 368.501C103.36 366.721 102.38 364.361 102.38 361.781Z" fill="black"/>
<path d="M104.96 352.499C104.62 352.499 104.36 352.239 104.36 351.899V346.719C104.36 346.379 104.64 346.119 104.96 346.119C105.28 346.119 105.56 346.399 105.56 346.719V351.899C105.56 352.239 105.28 352.499 104.96 352.499Z" fill="black"/>
<path d="M104.96 377.299C104.62 377.299 104.36 377.039 104.36 376.699V371.459C104.36 371.119 104.64 370.859 104.96 370.859C105.28 370.859 105.56 371.119 105.56 371.459V376.699C105.56 377.039 105.28 377.299 104.96 377.299Z" fill="black"/>
<path d="M104.96 390.059C104.62 390.059 104.36 389.799 104.36 389.459V384.219C104.36 383.879 104.64 383.619 104.96 383.619C105.28 383.619 105.56 383.879 105.56 384.219V389.459C105.56 389.799 105.28 390.059 104.96 390.059Z" fill="black"/>
<path d="M138.82 362.261C138.88 362.081 138.8 361.861 138.6 361.801C138.42 361.741 138.2 361.821 138.14 362.021C138.06 362.201 138.16 362.421 138.36 362.481C138.54 362.561 138.76 362.461 138.82 362.261Z" fill="black"/>
<path d="M137.76 363.699C137.82 363.499 137.72 363.299 137.54 363.219C137.34 363.139 137.14 363.239 137.06 363.439C136.98 363.639 137.08 363.839 137.28 363.919C137.48 363.999 137.68 363.899 137.76 363.699Z" fill="black"/>
<path d="M136.56 365.02C136.64 364.82 136.52 364.6 136.32 364.52C136.12 364.44 135.9 364.54 135.82 364.74C135.74 364.94 135.84 365.16 136.06 365.24C136.26 365.32 136.48 365.2 136.56 365" fill="black"/>
<path d="M135.26 366.199C135.34 365.999 135.22 365.759 135.02 365.679C134.82 365.599 134.58 365.719 134.5 365.919C134.42 366.119 134.54 366.359 134.74 366.439C134.94 366.519 135.18 366.399 135.26 366.199Z" fill="black"/>
<path d="M133.86 367.24C133.94 367.02 133.82 366.8 133.62 366.72C133.42 366.64 133.16 366.76 133.1 366.96C133.04 367.16 133.14 367.42 133.34 367.48C133.54 367.54 133.8 367.44 133.86 367.24Z" fill="black"/>
<path d="M132.38 368.161C132.46 367.941 132.34 367.701 132.12 367.621C131.9 367.541 131.66 367.661 131.58 367.881C131.5 368.101 131.62 368.341 131.84 368.421C132.06 368.501 132.3 368.381 132.38 368.161Z" fill="black"/>
<path d="M130.82 368.94C130.9 368.72 130.78 368.46 130.56 368.38C130.34 368.3 130.08 368.42 130 368.64C129.92 368.86 130.04 369.12 130.26 369.2C130.48 369.28 130.74 369.16 130.82 368.94Z" fill="black"/>
<path d="M129.18 369.54C129.26 369.3 129.14 369.04 128.9 368.96C128.66 368.88 128.4 369 128.32 369.22C128.24 369.46 128.36 369.72 128.6 369.8C128.84 369.88 129.1 369.76 129.18 369.52" fill="black"/>
<path d="M127.5 370.019C127.58 369.779 127.46 369.519 127.22 369.419C126.98 369.339 126.72 369.459 126.62 369.699C126.54 369.939 126.66 370.199 126.9 370.299C127.14 370.379 127.4 370.259 127.5 370.019Z" fill="black"/>
<path d="M125.78 370.32C125.86 370.08 125.74 369.8 125.5 369.7C125.26 369.62 124.98 369.74 124.88 369.98C124.8 370.22 124.92 370.5 125.16 370.6C125.4 370.68 125.68 370.56 125.78 370.32Z" fill="black"/>
<path d="M124.02 370.461C124.12 370.201 123.98 369.921 123.72 369.841C123.46 369.741 123.18 369.881 123.1 370.141C123 370.401 123.14 370.681 123.4 370.761C123.66 370.861 123.94 370.721 124.02 370.461Z" fill="black"/>
<path d="M122.24 370.42C122.34 370.16 122.2 369.88 121.94 369.78C121.68 369.68 121.4 369.82 121.3 370.08C121.2 370.34 121.34 370.64 121.6 370.72C121.86 370.82 122.14 370.68 122.24 370.42Z" fill="black"/>
<path d="M120.46 370.22C120.56 369.96 120.42 369.66 120.16 369.56C119.9 369.46 119.6 369.6 119.5 369.86C119.4 370.12 119.54 370.42 119.8 370.52C120.06 370.62 120.36 370.48 120.46 370.22Z" fill="black"/>
<path d="M118.68 369.82C118.78 369.54 118.64 369.24 118.36 369.14C118.08 369.04 117.78 369.18 117.68 369.46C117.58 369.74 117.72 370.04 118 370.14C118.28 370.24 118.58 370.1 118.68 369.82Z" fill="black"/>
<path d="M116.92 369.24C117.02 368.96 116.88 368.64 116.6 368.54C116.32 368.44 116 368.58 115.9 368.86C115.8 369.14 115.94 369.46 116.22 369.56C116.5 369.66 116.82 369.52 116.92 369.24Z" fill="black"/>
<path d="M115.26 368.52C115.36 368.24 115.22 367.92 114.92 367.8C114.64 367.7 114.32 367.84 114.2 368.14C114.1 368.42 114.24 368.74 114.54 368.86C114.82 368.96 115.14 368.82 115.26 368.52Z" fill="black"/>
<path d="M113.72 367.66C113.82 367.36 113.68 367.04 113.38 366.94C113.08 366.84 112.76 366.98 112.66 367.28C112.56 367.58 112.7 367.9 113 368C113.3 368.1 113.62 367.96 113.72 367.66Z" fill="black"/>
<path d="M112.28 366.661C112.38 366.361 112.24 366.021 111.94 365.921C111.64 365.821 111.3 365.961 111.2 366.261C111.1 366.561 111.24 366.901 111.54 367.001C111.84 367.121 112.18 366.961 112.28 366.661Z" fill="black"/>
<path d="M110.94 365.54C111.06 365.24 110.9 364.9 110.58 364.78C110.28 364.66 109.92 364.82 109.82 365.14C109.7 365.44 109.86 365.78 110.18 365.9C110.48 366.02 110.82 365.86 110.94 365.54Z" fill="black"/>
<path d="M70.96 362.261C70.9 362.081 70.98 361.861 71.18 361.801C71.36 361.741 71.58 361.821 71.64 362.021C71.7 362.201 71.62 362.421 71.42 362.481C71.24 362.561 71.02 362.461 70.96 362.261Z" fill="black"/>
<path d="M72.02 363.699C71.94 363.499 72.04 363.299 72.24 363.219C72.44 363.139 72.6399 363.239 72.7199 363.439C72.7999 363.639 72.7 363.839 72.5 363.919C72.3 363.979 72.1 363.879 72.02 363.699Z" fill="black"/>
<path d="M73.22 365.02C73.14 364.82 73.24 364.6 73.44 364.52C73.64 364.44 73.86 364.54 73.94 364.74C74.02 364.94 73.92 365.16 73.7 365.24C73.5 365.32 73.28 365.2 73.2 365" fill="black"/>
<path d="M74.52 366.221C74.44 366.021 74.56 365.781 74.76 365.701C74.96 365.621 75.2 365.741 75.28 365.941C75.36 366.141 75.24 366.381 75.04 366.461C74.84 366.541 74.6 366.421 74.52 366.221Z" fill="black"/>
<path d="M75.94 367.26C75.86 367.04 75.98 366.82 76.18 366.74C76.38 366.66 76.64 366.78 76.7 366.98C76.76 367.18 76.66 367.44 76.46 367.5C76.26 367.56 76 367.46 75.94 367.26Z" fill="black"/>
<path d="M77.42 368.18C77.34 367.96 77.46 367.72 77.68 367.64C77.9 367.56 78.14 367.68 78.22 367.9C78.3 368.12 78.18 368.36 77.96 368.44C77.74 368.52 77.5 368.4 77.42 368.18Z" fill="black"/>
<path d="M79 368.94C78.92 368.72 79.04 368.46 79.26 368.38C79.48 368.3 79.74 368.42 79.82 368.64C79.9 368.86 79.78 369.12 79.56 369.2C79.34 369.28 79.08 369.16 79 368.94Z" fill="black"/>
<path d="M80.64 369.56C80.56 369.32 80.68 369.06 80.9 368.98C81.12 368.9 81.4 369.02 81.48 369.24C81.56 369.48 81.44 369.74 81.2 369.82C80.96 369.9 80.7 369.78 80.62 369.54" fill="black"/>
<path d="M82.32 370.019C82.24 369.779 82.36 369.519 82.6 369.419C82.84 369.339 83.1 369.459 83.2 369.699C83.28 369.939 83.16 370.199 82.92 370.299C82.68 370.379 82.42 370.259 82.32 370.019Z" fill="black"/>
<path d="M84.06 370.32C83.96 370.08 84.1 369.8 84.34 369.7C84.58 369.62 84.86 369.74 84.96 369.98C85.04 370.22 84.92 370.5 84.68 370.6C84.44 370.68 84.16 370.56 84.06 370.32Z" fill="black"/>
<path d="M85.82 370.461C85.72 370.201 85.86 369.921 86.12 369.841C86.38 369.741 86.66 369.881 86.74 370.141C86.84 370.401 86.7 370.681 86.44 370.761C86.18 370.861 85.9 370.721 85.82 370.461Z" fill="black"/>
<path d="M87.6 370.42C87.5 370.16 87.64 369.88 87.9 369.78C88.16 369.68 88.44 369.82 88.54 370.08C88.64 370.34 88.5 370.64 88.24 370.72C87.98 370.82 87.7 370.68 87.6 370.42Z" fill="black"/>
<path d="M89.4 370.2C89.3 369.94 89.44 369.64 89.7 369.54C89.96 369.44 90.26 369.58 90.36 369.84C90.46 370.1 90.32 370.4 90.06 370.5C89.8 370.6 89.5 370.46 89.4 370.2Z" fill="black"/>
<path d="M91.18 369.8C91.08 369.52 91.22 369.22 91.5 369.12C91.78 369.02 92.08 369.16 92.18 369.44C92.28 369.72 92.14 370.02 91.86 370.12C91.58 370.22 91.28 370.08 91.18 369.8Z" fill="black"/>
<path d="M92.96 369.22C92.86 368.94 93 368.62 93.28 368.52C93.56 368.42 93.88 368.561 93.98 368.841C94.08 369.121 93.94 369.44 93.66 369.54C93.38 369.64 93.06 369.5 92.96 369.22Z" fill="black"/>
<path d="M94.62 368.481C94.52 368.201 94.6601 367.881 94.9601 367.761C95.2401 367.661 95.56 367.8 95.68 368.1C95.78 368.38 95.6401 368.701 95.3401 368.821C95.0601 368.921 94.74 368.781 94.62 368.481Z" fill="black"/>
<path d="M96.16 367.6C96.06 367.3 96.2 366.98 96.5 366.88C96.8 366.78 97.12 366.92 97.22 367.22C97.32 367.52 97.18 367.84 96.88 367.94C96.58 368.04 96.26 367.9 96.16 367.6Z" fill="black"/>
<path d="M97.5999 366.581C97.4799 366.281 97.64 365.941 97.94 365.841C98.24 365.741 98.58 365.881 98.68 366.181C98.78 366.481 98.64 366.821 98.34 366.921C98.04 367.041 97.6999 366.881 97.5999 366.581Z" fill="black"/>
<path d="M98.92 365.46C98.8 365.16 98.96 364.82 99.28 364.7C99.58 364.58 99.94 364.74 100.04 365.06C100.16 365.36 100 365.7 99.68 365.82C99.38 365.94 99.04 365.78 98.92 365.46Z" fill="black"/>
<path d="M143.92 338.759C143.58 338.759 143.32 338.499 143.32 338.159V331.639C143.32 331.299 143.6 331.039 143.92 331.039C144.24 331.039 144.52 331.299 144.52 331.639V338.159C144.52 338.499 144.24 338.759 143.92 338.759Z" fill="black"/>
<path d="M64.98 328.901C64.92 328.341 65.32 327.861 65.88 327.801C66.44 327.741 66.92 328.141 66.98 328.701C67.04 329.261 66.64 329.741 66.08 329.801C65.52 329.861 65.04 329.461 64.98 328.901Z" fill="black"/>
<path d="M65.26 325.479C65.22 325.099 65.5 324.739 65.9 324.699C66.28 324.659 66.64 324.939 66.68 325.339C66.72 325.739 66.44 326.079 66.04 326.119C65.64 326.159 65.3 325.879 65.26 325.479Z" fill="black"/>
<path d="M65.48 322.36C65.46 322.08 65.66 321.84 65.92 321.82C66.2 321.8 66.44 322 66.46 322.28C66.48 322.56 66.28 322.8 66.02 322.82C65.74 322.84 65.5 322.64 65.48 322.38" fill="black"/>
<path d="M65.98 338.759C65.64 338.759 65.38 338.499 65.38 338.159V331.639C65.38 331.299 65.66 331.039 65.98 331.039C66.3 331.039 66.58 331.299 66.58 331.639V338.159C66.58 338.499 66.32 338.759 65.98 338.759Z" fill="black"/>
<path d="M104.6 43.0204C100.1 53.7804 98.9 58.7004 98.9 59.8204C98.9 62.9604 101.46 65.5204 104.6 65.5204C107.74 65.5204 110.3 62.9604 110.3 59.8204C110.3 58.7004 109.08 53.7804 104.6 43.0204ZM104.6 66.7404C100.8 66.7404 97.7 63.6404 97.7 59.8404C97.7 56.2804 103.8 41.8604 104.06 41.2604C104.16 41.0404 104.38 40.9004 104.62 40.9004C104.86 40.9004 105.08 41.0404 105.18 41.2604C105.44 41.8804 111.54 56.2804 111.54 59.8404C111.54 63.6404 108.44 66.7404 104.64 66.7404" fill="black"/>
<path d="M102.18 56.0009C102.18 54.6609 104.6 48.9609 104.6 48.9609C104.6 48.9609 107.02 54.6609 107.02 56.0009C107.02 57.3409 105.94 58.421 104.6 58.421C103.26 58.421 102.18 57.3409 102.18 56.0009Z" fill="black"/>
<path d="M101.2 37.0797C101.2 35.1997 102.72 33.6797 104.6 33.6797C106.48 33.6797 108 35.1997 108 37.0797C108 38.9597 106.48 40.4797 104.6 40.4797C102.72 40.4797 101.2 38.9597 101.2 37.0797Z" fill="black"/>
<path d="M127.62 38.8992C127.2 38.8992 126.88 39.2392 126.88 39.6392C126.88 40.0392 127.22 40.3792 127.62 40.3792C128.02 40.3792 128.36 40.0392 128.36 39.6392C128.36 39.2392 128.02 38.8992 127.62 38.8992ZM127.62 41.5792C126.54 41.5792 125.68 40.6992 125.68 39.6392C125.68 38.5792 126.54 37.6992 127.62 37.6992C128.7 37.6992 129.56 38.5792 129.56 39.6392C129.56 40.6992 128.7 41.5792 127.62 41.5792Z" fill="black"/>
<path d="M126.28 44.3009C126.28 43.5609 126.88 42.9609 127.62 42.9609C128.36 42.9609 128.96 43.5609 128.96 44.3009C128.96 45.0409 128.36 45.641 127.62 45.641C126.88 45.641 126.28 45.0409 126.28 44.3009Z" fill="black"/>
<path d="M124.1 13.0998C124.1 12.3598 124.7 11.7598 125.44 11.7598C126.18 11.7598 126.78 12.3598 126.78 13.0998C126.78 13.8398 126.18 14.4398 125.44 14.4398C124.7 14.4398 124.1 13.8398 124.1 13.0998Z" fill="black"/>
<path d="M82.7 13.0998C82.7 12.3598 83.3 11.7598 84.04 11.7598C84.78 11.7598 85.38 12.3598 85.38 13.0998C85.38 13.8398 84.78 14.4398 84.04 14.4398C83.3 14.4398 82.7 13.8398 82.7 13.0998Z" fill="black"/>
<path d="M126.8 48.9196C126.8 48.4596 127.16 48.0996 127.62 48.0996C128.08 48.0996 128.44 48.4596 128.44 48.9196C128.44 49.3796 128.08 49.7396 127.62 49.7396C127.16 49.7396 126.8 49.3796 126.8 48.9196Z" fill="black"/>
<path d="M81.34 38.8992C80.92 38.8992 80.6 39.2392 80.6 39.6392C80.6 40.0392 80.94 40.3792 81.34 40.3792C81.74 40.3792 82.08 40.0392 82.08 39.6392C82.08 39.2392 81.74 38.8992 81.34 38.8992ZM81.34 41.5792C80.26 41.5792 79.4 40.6992 79.4 39.6392C79.4 38.5792 80.28 37.6992 81.34 37.6992C82.4 37.6992 83.28 38.5792 83.28 39.6392C83.28 40.6992 82.42 41.5792 81.34 41.5792Z" fill="black"/>
<path d="M80 44.3009C80 43.5609 80.6 42.9609 81.34 42.9609C82.08 42.9609 82.68 43.5609 82.68 44.3009C82.68 45.0409 82.08 45.641 81.34 45.641C80.6 45.641 80 45.0409 80 44.3009Z" fill="black"/>
<path d="M80.52 48.9196C80.52 48.4596 80.88 48.0996 81.34 48.0996C81.8 48.0996 82.16 48.4596 82.16 48.9196C82.16 49.3796 81.8 49.7396 81.34 49.7396C80.88 49.7396 80.52 49.3796 80.52 48.9196Z" fill="black"/>
<path d="M103.66 5.5993C103.66 5.1393 104.02 4.7793 104.48 4.7793C104.94 4.7793 105.3 5.1393 105.3 5.5993C105.3 6.0593 104.94 6.4193 104.48 6.4193C104.02 6.4193 103.66 6.0593 103.66 5.5993Z" fill="black"/>
<path d="M103.66 1.40007C103.66 0.94007 104.02 0.580078 104.48 0.580078C104.94 0.580078 105.3 0.94007 105.3 1.40007C105.3 1.86007 104.94 2.22008 104.48 2.22008C104.02 2.22008 103.66 1.86007 103.66 1.40007Z" fill="black"/>
<path d="M127.62 9.78093C127.62 9.32093 127.98 8.96094 128.44 8.96094C128.9 8.96094 129.26 9.32093 129.26 9.78093C129.26 10.2409 128.9 10.6009 128.44 10.6009C127.98 10.6009 127.62 10.2409 127.62 9.78093Z" fill="black"/>
<path d="M80.52 9.78093C80.52 9.32093 80.88 8.96094 81.34 8.96094C81.8 8.96094 82.16 9.32093 82.16 9.78093C82.16 10.2409 81.8 10.6009 81.34 10.6009C80.88 10.6009 80.52 10.2409 80.52 9.78093Z" fill="black"/>
<path d="M123.02 38.4793H110.9C110.56 38.4793 110.3 38.2193 110.3 37.8793C110.3 37.5393 110.56 37.2793 110.9 37.2793H123.02C123.34 37.2793 123.62 37.5393 123.62 37.8793C123.62 38.2193 123.34 38.4793 123.02 38.4793Z" fill="black"/>
<path d="M98.78 38.4793H86.66C86.32 38.4793 86.06 38.2193 86.06 37.8793C86.06 37.5393 86.32 37.2793 86.66 37.2793H98.78C99.1 37.2793 99.38 37.5393 99.38 37.8793C99.38 38.2193 99.1 38.4793 98.78 38.4793Z" fill="black"/>
<path d="M123.02 38.4803C122.68 38.4803 122.42 38.2203 122.42 37.8803C122.42 28.0203 114.38 20.0003 104.5 20.0003C99.76 20.0003 95.38 21.8603 92.18 25.2203C89.02 28.5403 87.28 33.0403 87.28 37.8803C87.28 38.2203 87.02 38.4803 86.68 38.4803C86.34 38.4803 86.08 38.2203 86.08 37.8803C86.08 32.7403 87.94 27.9403 91.32 24.4003C94.74 20.8003 99.42 18.8203 104.5 18.8203C115.04 18.8203 123.64 27.3803 123.64 37.9003C123.64 38.2403 123.36 38.5003 123.04 38.5003" fill="black"/>
<path d="M127.62 38.6202C127.28 38.6202 127.02 38.3602 127.02 38.0202C127.02 37.6402 127.02 37.2402 127 36.8602C127 36.5402 127.24 36.2402 127.56 36.2402C127.9 36.2402 128.18 36.4802 128.2 36.8002C128.2 37.2002 128.24 37.6202 128.24 38.0202C128.24 38.3602 127.96 38.6202 127.64 38.6202" fill="black"/>
<path d="M100.88 15.7791C100.6 15.7791 100.34 15.5591 100.28 15.2791C100.24 14.9591 100.46 14.6391 100.78 14.5991C101.6 14.4791 102.42 14.3791 103.24 14.3391C103.58 14.3391 103.86 14.5791 103.88 14.8991C103.88 15.2191 103.64 15.5191 103.32 15.5391C102.54 15.5791 101.74 15.6591 100.98 15.7791C100.94 15.7791 100.92 15.7791 100.88 15.7791ZM108.12 15.7791C108.12 15.7791 108.06 15.7791 108.02 15.7791C107.24 15.6591 106.46 15.5791 105.68 15.5391C105.34 15.5391 105.1 15.2391 105.12 14.8991C105.12 14.5591 105.42 14.3191 105.76 14.3391C106.58 14.3791 107.42 14.4591 108.24 14.5991C108.56 14.6591 108.78 14.9591 108.74 15.2791C108.7 15.5791 108.44 15.7791 108.14 15.7791M96.22 17.019C95.98 17.019 95.76 16.8791 95.66 16.6391C95.54 16.3391 95.7 15.9791 96 15.8591C96.78 15.5591 97.56 15.2991 98.36 15.0991C98.68 15.0191 99 15.1991 99.1 15.5191C99.18 15.8391 99 16.1591 98.68 16.2591C97.92 16.4591 97.16 16.6991 96.44 16.9791C96.36 16.9991 96.3 17.019 96.22 17.019ZM112.8 17.019C112.8 17.019 112.66 17.0191 112.58 16.9791C111.84 16.6991 111.1 16.4591 110.34 16.2591C110.02 16.1791 109.82 15.8391 109.92 15.5191C110 15.1991 110.34 15.0191 110.66 15.0991C111.46 15.3191 112.26 15.5791 113.02 15.8591C113.32 15.9791 113.48 16.3191 113.36 16.6391C113.26 16.8791 113.04 17.019 112.8 17.019ZM91.9 19.2191C91.7 19.2191 91.52 19.1191 91.4 18.9391C91.22 18.6591 91.3 18.2991 91.58 18.1191C92.28 17.6591 93 17.2591 93.74 16.8791C94.04 16.7191 94.4 16.8391 94.54 17.1391C94.7 17.4391 94.58 17.7991 94.28 17.9391C93.58 18.2991 92.9 18.6991 92.24 19.1191C92.14 19.1791 92.02 19.2191 91.92 19.2191M117.12 19.2191C117 19.2191 116.9 19.1991 116.8 19.1191C116.14 18.6991 115.46 18.2991 114.76 17.9391C114.46 17.7791 114.34 17.4191 114.5 17.1391C114.66 16.8391 115.02 16.7191 115.3 16.8791C116.04 17.2591 116.76 17.6791 117.44 18.1191C117.72 18.2991 117.8 18.6791 117.62 18.9391C117.5 19.1191 117.32 19.2191 117.12 19.2191ZM88.16 22.2591C88 22.2591 87.86 22.199 87.74 22.079C87.5 21.839 87.5 21.459 87.74 21.239C88.32 20.659 88.94 20.099 89.58 19.579C89.84 19.379 90.22 19.4191 90.42 19.6591C90.62 19.9191 90.58 20.2991 90.34 20.4991C89.74 20.9991 89.14 21.519 88.58 22.079C88.46 22.199 88.32 22.2591 88.16 22.2591ZM120.88 22.2591C120.72 22.2591 120.58 22.199 120.46 22.079C119.9 21.519 119.32 20.9991 118.7 20.4991C118.44 20.2991 118.4 19.9191 118.62 19.6591C118.82 19.3991 119.2 19.359 119.46 19.579C120.1 20.099 120.72 20.659 121.3 21.239C121.54 21.479 121.54 21.859 121.3 22.079C121.18 22.199 121.02 22.2591 120.88 22.2591ZM85.12 25.9991C85 25.9991 84.9 25.9591 84.8 25.8991C84.52 25.7191 84.44 25.339 84.62 25.079C85.08 24.379 85.56 23.719 86.08 23.079C86.28 22.819 86.66 22.7791 86.92 22.9991C87.18 23.1991 87.22 23.5791 87 23.8391C86.5 24.4391 86.04 25.079 85.62 25.739C85.5 25.919 85.32 26.019 85.12 26.019M123.92 26.019C123.72 26.019 123.54 25.919 123.42 25.739C123 25.079 122.52 24.4391 122.04 23.8391C121.84 23.5791 121.88 23.1991 122.12 22.9991C122.38 22.7991 122.76 22.839 122.96 23.079C123.48 23.719 123.98 24.399 124.42 25.079C124.6 25.359 124.52 25.7391 124.24 25.9191C124.14 25.9791 124.02 26.019 123.92 26.019ZM82.9 30.3191C82.9 30.3191 82.76 30.3191 82.68 30.2791C82.38 30.1591 82.22 29.8191 82.34 29.4991C82.64 28.7391 82.98 27.959 83.36 27.239C83.5 26.939 83.88 26.8191 84.16 26.9791C84.44 27.1391 84.58 27.4991 84.42 27.7791C84.06 28.4791 83.74 29.1991 83.46 29.9391C83.36 30.1791 83.14 30.3191 82.9 30.3191ZM126.1 30.3191C125.86 30.3191 125.64 30.1791 125.54 29.9391C125.26 29.2191 124.94 28.4791 124.58 27.7791C124.44 27.4791 124.54 27.1191 124.84 26.9791C125.14 26.8191 125.5 26.939 125.64 27.239C126.02 27.979 126.36 28.739 126.66 29.519C126.78 29.819 126.62 30.179 126.32 30.299C126.24 30.319 126.18 30.3391 126.1 30.3391M81.64 34.9991C81.64 34.9991 81.58 34.9991 81.54 34.9991C81.22 34.9391 80.98 34.6391 81.04 34.3191C81.18 33.4991 81.34 32.6791 81.56 31.8791C81.64 31.5591 81.98 31.359 82.3 31.459C82.62 31.539 82.8 31.8791 82.72 32.1991C82.52 32.9591 82.36 33.7391 82.24 34.4991C82.2 34.7991 81.94 34.9991 81.64 34.9991ZM127.34 34.9991C127.04 34.9991 126.8 34.7791 126.74 34.4991C126.62 33.7191 126.46 32.9391 126.26 32.1991C126.18 31.8791 126.36 31.559 126.68 31.459C127 31.379 127.32 31.5591 127.42 31.8791C127.64 32.6791 127.8 33.4991 127.94 34.3191C128 34.6391 127.76 34.9591 127.44 34.9991C127.4 34.9991 127.38 34.9991 127.34 34.9991Z" fill="black"/>
<path d="M81.34 38.6194C81 38.6194 80.74 38.3594 80.74 38.0194C80.74 37.6194 80.74 37.1994 80.78 36.7994C80.78 36.4594 81.08 36.2194 81.4 36.2394C81.74 36.2394 81.98 36.5394 81.96 36.8594C81.96 37.2394 81.94 37.6394 81.94 38.0194C81.94 38.3594 81.66 38.6194 81.34 38.6194Z" fill="black"/>
<path d="M104.48 13.6997C104.14 13.6997 103.88 13.4397 103.88 13.0997V9.77969C103.88 9.43969 104.16 9.17969 104.48 9.17969C104.8 9.17969 105.08 9.43969 105.08 9.77969V13.0997C105.08 13.4397 104.82 13.6997 104.48 13.6997Z" fill="black"/>
<path d="M104.48 22.8392C104.14 22.8392 103.88 22.5792 103.88 22.2392V15.7992C103.88 15.4592 104.16 15.1992 104.48 15.1992C104.8 15.1992 105.08 15.4592 105.08 15.7992V22.2392C105.08 22.5792 104.82 22.8392 104.48 22.8392Z" fill="black"/>
<path d="M104.48 31.8191C104.14 31.8191 103.88 31.5591 103.88 31.2191V24.6391C103.88 24.2991 104.16 24.0391 104.48 24.0391C104.8 24.0391 105.08 24.3191 105.08 24.6391V31.2191C105.08 31.5591 104.82 31.8191 104.48 31.8191Z" fill="black"/>
<path d="M91.24 22.7392C91.06 22.7392 90.9 22.6592 90.78 22.5192L85.98 16.7992C85.76 16.5392 85.8 16.1592 86.06 15.9592C86.32 15.7392 86.7 15.7792 86.9 16.0392L91.7 21.7592C91.92 22.0192 91.88 22.3992 91.62 22.5992C91.5 22.6992 91.38 22.7392 91.24 22.7392Z" fill="black"/>
<path d="M96.18 28.6193C96 28.6193 95.8399 28.5393 95.7199 28.3993L93.18 25.3793C92.96 25.1193 93 24.7393 93.26 24.5393C93.52 24.3193 93.8999 24.3593 94.0999 24.6193L96.64 27.6393C96.86 27.8993 96.82 28.2793 96.56 28.4793C96.44 28.5793 96.32 28.6193 96.18 28.6193Z" fill="black"/>
<path d="M100.22 33.4408C100.04 33.4408 99.88 33.3608 99.76 33.2208L97.46 30.4809C97.24 30.2209 97.28 29.8409 97.54 29.6409C97.8 29.4209 98.18 29.4608 98.38 29.7208L100.68 32.4608C100.9 32.7208 100.86 33.1008 100.6 33.3008C100.48 33.4008 100.36 33.4408 100.22 33.4408Z" fill="black"/>
<path d="M120.2 19.7001C120.06 19.7001 119.92 19.6601 119.82 19.5601C119.56 19.3401 119.54 18.9601 119.74 18.7201L122.1 15.9001C122.32 15.6401 122.68 15.6201 122.94 15.8201C123.2 16.0401 123.22 16.4201 123.02 16.6601L120.66 19.4801C120.54 19.6201 120.38 19.7001 120.2 19.7001Z" fill="black"/>
<path d="M113.5 27.6799C113.36 27.6799 113.22 27.6399 113.12 27.5399C112.86 27.3199 112.84 26.9399 113.04 26.6999L117.68 21.1599C117.9 20.8999 118.28 20.8798 118.52 21.0798C118.78 21.2998 118.8 21.6799 118.6 21.9199L113.94 27.4599C113.82 27.5999 113.66 27.6799 113.48 27.6799" fill="black"/>
<path d="M108.78 33.2991C108.64 33.2991 108.5 33.2592 108.4 33.1592C108.14 32.9392 108.12 32.5592 108.32 32.3192L111.14 28.9392C111.36 28.6792 111.74 28.6591 111.98 28.8591C112.24 29.0791 112.26 29.4392 112.06 29.6992L109.22 33.0791C109.1 33.2191 108.94 33.2991 108.76 33.2991" fill="black"/>
<path d="M45.14 210.06C44.8 210.06 44.54 209.8 44.54 209.46V196.36C44.54 196.02 44.8 195.76 45.14 195.76C45.48 195.76 45.74 196.02 45.74 196.36V209.46C45.74 209.8 45.46 210.06 45.14 210.06Z" fill="black"/>
<path d="M132.14 96.3206C131.92 96.3206 131.72 96.2006 131.6 96.0006C131.44 95.7006 131.56 95.3406 131.86 95.2006L133.5 94.3406C133.8 94.1806 134.16 94.3006 134.3 94.6006C134.46 94.9006 134.34 95.2606 134.04 95.4006L132.4 96.2606C132.4 96.2606 132.22 96.3206 132.12 96.3206" fill="black"/>
<path d="M117.96 103.719C117.74 103.719 117.54 103.599 117.42 103.399C117.26 103.099 117.38 102.739 117.68 102.599L130.06 96.1395C130.36 95.9795 130.72 96.0994 130.86 96.3994C131.02 96.6994 130.9 97.0595 130.6 97.1995L118.22 103.659C118.22 103.659 118.04 103.719 117.94 103.719" fill="black"/>
<path d="M148.92 107.38C148.64 107.38 148.4 107.2 148.34 106.92C148.26 106.6 148.46 106.28 148.78 106.2L150.68 105.74C151 105.66 151.32 105.86 151.4 106.18C151.48 106.5 151.28 106.82 150.96 106.9L149.06 107.36C149.06 107.36 148.96 107.36 148.92 107.36" fill="black"/>
<path d="M143.5 108.701C143.22 108.701 142.98 108.521 142.92 108.241C142.84 107.921 143.04 107.601 143.36 107.521L146.32 106.801C146.64 106.721 146.96 106.921 147.04 107.241C147.12 107.561 146.92 107.881 146.6 107.961L143.64 108.681C143.64 108.681 143.54 108.681 143.5 108.681" fill="black"/>
<path d="M120.1 114.379C119.82 114.379 119.58 114.199 119.52 113.919C119.44 113.599 119.64 113.279 119.96 113.199L141.22 108.039C141.54 107.959 141.86 108.159 141.94 108.479C142.02 108.799 141.82 109.119 141.5 109.199L120.24 114.359C120.24 114.359 120.14 114.359 120.1 114.359" fill="black"/>
<path d="M141.36 124.239H139.96C139.62 124.239 139.36 123.979 139.36 123.639C139.36 123.299 139.62 123.039 139.96 123.039H141.36C141.68 123.039 141.96 123.299 141.96 123.639C141.96 123.979 141.68 124.239 141.36 124.239Z" fill="black"/>
<path d="M138.16 124.239H136.3C135.96 124.239 135.7 123.979 135.7 123.639C135.7 123.299 135.98 123.039 136.3 123.039H138.16C138.48 123.039 138.76 123.299 138.76 123.639C138.76 123.979 138.48 124.239 138.16 124.239Z" fill="black"/>
<path d="M134.58 124.239H120.1C119.76 124.239 119.5 123.979 119.5 123.639C119.5 123.299 119.76 123.039 120.1 123.039H134.58C134.92 123.039 135.18 123.299 135.18 123.639C135.18 123.979 134.92 124.239 134.58 124.239Z" fill="black"/>
<path d="M147.16 145C147.16 145 147.02 145 146.96 144.96L145.68 144.5C145.36 144.38 145.2 144.04 145.32 143.74C145.44 143.42 145.78 143.26 146.08 143.38L147.36 143.84C147.68 143.96 147.84 144.3 147.72 144.6C147.64 144.84 147.4 145 147.16 145Z" fill="black"/>
<path d="M144.02 143.88C144.02 143.88 143.88 143.88 143.82 143.84L141.56 143.04C141.24 142.92 141.08 142.58 141.2 142.28C141.32 141.98 141.66 141.8 141.96 141.92L144.22 142.72C144.54 142.84 144.7 143.18 144.58 143.48C144.5 143.72 144.26 143.88 144.02 143.88Z" fill="black"/>
<path d="M139.56 142.28C139.56 142.28 139.42 142.28 139.36 142.24L118.02 134.58C117.7 134.48 117.54 134.12 117.66 133.82C117.78 133.5 118.12 133.34 118.42 133.46L139.76 141.1C140.08 141.22 140.24 141.56 140.12 141.86C140.04 142.1 139.8 142.26 139.56 142.26" fill="black"/>
<path d="M123.66 151.801C123.54 151.801 123.42 151.761 123.3 151.681L121.72 150.501C121.46 150.301 121.4 149.921 121.6 149.661C121.8 149.401 122.18 149.341 122.44 149.541L124.02 150.721C124.28 150.921 124.34 151.301 124.14 151.561C124.02 151.721 123.84 151.801 123.66 151.801Z" fill="black"/>
<path d="M120.82 149.699C120.7 149.699 120.58 149.659 120.46 149.579L114.14 144.899C113.88 144.699 113.82 144.319 114.02 144.059C114.22 143.799 114.6 143.739 114.86 143.939L121.18 148.619C121.44 148.819 121.5 149.199 121.3 149.459C121.18 149.619 121 149.699 120.82 149.699Z" fill="black"/>
<path d="M77.7 96.3196C77.7 96.3196 77.52 96.2996 77.42 96.2596L75.7801 95.3996C75.4801 95.2396 75.38 94.8796 75.52 94.5996C75.68 94.2996 76.04 94.1996 76.32 94.3396L77.96 95.1996C78.26 95.3596 78.36 95.7196 78.22 95.9996C78.12 96.1996 77.9 96.3196 77.68 96.3196" fill="black"/>
<path d="M91.88 103.72C91.88 103.72 91.6999 103.7 91.5999 103.66L79.2199 97.2004C78.9199 97.0404 78.82 96.6804 78.96 96.4004C79.12 96.1004 79.48 96.0004 79.76 96.1404L92.14 102.6C92.44 102.76 92.54 103.12 92.4 103.4C92.3 103.6 92.08 103.72 91.86 103.72" fill="black"/>
<path d="M60.92 107.38C60.92 107.38 60.82 107.38 60.78 107.38L58.88 106.92C58.56 106.84 58.36 106.52 58.44 106.2C58.52 105.88 58.84 105.68 59.16 105.76L61.06 106.22C61.38 106.3 61.58 106.62 61.5 106.94C61.44 107.22 61.18 107.4 60.92 107.4" fill="black"/>
<path d="M66.34 108.7C66.34 108.7 66.24 108.7 66.2 108.7L63.24 107.98C62.92 107.9 62.72 107.58 62.8 107.26C62.88 106.94 63.2 106.74 63.52 106.82L66.48 107.54C66.8 107.62 67 107.94 66.92 108.26C66.86 108.54 66.6 108.72 66.34 108.72" fill="black"/>
<path d="M89.74 114.381C89.74 114.381 89.64 114.381 89.6 114.381L68.34 109.221C68.02 109.141 67.82 108.821 67.9 108.501C67.98 108.181 68.3 107.981 68.62 108.061L89.88 113.221C90.2 113.301 90.4 113.621 90.32 113.941C90.26 114.221 90 114.401 89.74 114.401" fill="black"/>
<path d="M69.86 124.239H68.46C68.12 124.239 67.86 123.979 67.86 123.639C67.86 123.299 68.12 123.039 68.46 123.039H69.86C70.18 123.039 70.46 123.299 70.46 123.639C70.46 123.979 70.18 124.239 69.86 124.239Z" fill="black"/>
<path d="M73.54 124.239H71.68C71.34 124.239 71.08 123.979 71.08 123.639C71.08 123.299 71.34 123.039 71.68 123.039H73.54C73.86 123.039 74.14 123.299 74.14 123.639C74.14 123.979 73.86 124.239 73.54 124.239Z" fill="black"/>
<path d="M89.74 124.239H75.26C74.92 124.239 74.66 123.979 74.66 123.639C74.66 123.299 74.92 123.039 75.26 123.039H89.74C90.08 123.039 90.34 123.299 90.34 123.639C90.34 123.979 90.08 124.239 89.74 124.239Z" fill="black"/>
<path d="M62.66 144.999C62.42 144.999 62.18 144.839 62.1 144.599C61.98 144.299 62.14 143.939 62.46 143.839L63.74 143.379C64.06 143.259 64.4 143.439 64.5 143.739C64.62 144.059 64.46 144.399 64.14 144.499L62.86 144.959C62.86 144.959 62.72 144.999 62.66 144.999Z" fill="black"/>
<path d="M65.82 143.881C65.58 143.881 65.34 143.721 65.26 143.481C65.14 143.161 65.3 142.821 65.62 142.721L67.88 141.921C68.2 141.801 68.54 141.961 68.64 142.281C68.74 142.601 68.58 142.941 68.28 143.041L66.02 143.841C66.02 143.841 65.88 143.881 65.82 143.881Z" fill="black"/>
<path d="M70.28 142.279C70.04 142.279 69.8 142.119 69.72 141.879C69.6 141.579 69.76 141.219 70.08 141.119L91.42 133.479C91.74 133.359 92.08 133.519 92.18 133.839C92.3 134.159 92.14 134.499 91.82 134.599L70.48 142.259C70.48 142.259 70.34 142.299 70.28 142.299" fill="black"/>
<path d="M86.18 151.801C86 151.801 85.82 151.721 85.7 151.561C85.5 151.301 85.56 150.921 85.82 150.721L87.4 149.541C87.66 149.341 88.04 149.401 88.24 149.661C88.44 149.921 88.38 150.301 88.12 150.501L86.5399 151.681C86.4399 151.761 86.3 151.801 86.18 151.801Z" fill="black"/>
<path d="M89.02 149.699C88.84 149.699 88.6599 149.619 88.5399 149.459C88.3399 149.199 88.3999 148.819 88.6599 148.619L94.98 143.939C95.24 143.739 95.62 143.799 95.82 144.059C96.02 144.319 95.96 144.699 95.7 144.899L89.38 149.579C89.28 149.659 89.14 149.699 89.02 149.699Z" fill="black"/>
<path d="M119.1 108.7C118.86 108.7 118.62 108.54 118.54 108.3C118.44 107.98 118.6 107.64 118.92 107.54L120.06 107.16C120.38 107.06 120.72 107.22 120.82 107.54C120.92 107.86 120.76 108.2 120.44 108.3L119.3 108.68C119.3 108.68 119.18 108.72 119.12 108.72" fill="black"/>
<path d="M125.86 106.421C125.62 106.421 125.38 106.261 125.3 106.021C125.2 105.701 125.36 105.361 125.68 105.261L127.56 104.641C127.88 104.541 128.22 104.701 128.32 105.021C128.42 105.341 128.26 105.681 127.94 105.781L126.06 106.401C126.06 106.401 125.94 106.441 125.86 106.441M122.12 107.701C121.88 107.701 121.64 107.541 121.56 107.301C121.46 106.981 121.62 106.641 121.94 106.541L123.8 105.921C124.12 105.821 124.46 105.981 124.56 106.301C124.66 106.621 124.5 106.961 124.18 107.061L122.3 107.681C122.3 107.681 122.18 107.721 122.12 107.721" fill="black"/>
<path d="M129.6 105.181C129.36 105.181 129.12 105.021 129.04 104.781C128.94 104.461 129.1 104.121 129.42 104.021L130.56 103.641C130.88 103.541 131.22 103.701 131.32 104.021C131.42 104.341 131.26 104.681 130.94 104.781L129.8 105.161C129.8 105.161 129.68 105.201 129.6 105.201" fill="black"/>
<path d="M120.2 95.7392C120 95.7392 119.82 95.6392 119.7 95.4592C119.52 95.1792 119.6 94.8192 119.88 94.6192L121.88 93.2992C122.16 93.1192 122.52 93.1993 122.72 93.4793C122.9 93.7593 122.82 94.1192 122.54 94.2992L120.54 95.6192C120.44 95.6792 120.32 95.7192 120.22 95.7192M116.22 98.3392C116.02 98.3392 115.84 98.2392 115.72 98.0792C115.54 97.7992 115.62 97.4392 115.9 97.2392L117.9 95.9193C118.18 95.7393 118.54 95.8192 118.74 96.0992C118.92 96.3792 118.84 96.7393 118.56 96.9193L116.56 98.2392C116.46 98.2992 116.34 98.3392 116.24 98.3392" fill="black"/>
<path d="M122.48 129.94C122.48 129.94 122.42 129.94 122.38 129.94L120.02 129.56C119.7 129.5 119.48 129.2 119.52 128.88C119.56 128.56 119.88 128.32 120.2 128.38L122.56 128.76C122.88 128.82 123.1 129.12 123.06 129.44C123.02 129.74 122.76 129.94 122.46 129.94M127.2 130.68C127.2 130.68 127.14 130.68 127.1 130.68L124.74 130.3C124.42 130.24 124.2 129.94 124.24 129.62C124.28 129.3 124.6 129.08 124.92 129.12L127.28 129.5C127.6 129.56 127.82 129.86 127.78 130.18C127.74 130.48 127.48 130.68 127.18 130.68M131.92 131.42C131.92 131.42 131.86 131.42 131.82 131.42L129.46 131.04C129.14 130.98 128.9 130.68 128.96 130.36C129.02 130.04 129.32 129.82 129.64 129.86L132 130.24C132.32 130.3 132.56 130.6 132.5 130.92C132.46 131.22 132.2 131.42 131.9 131.42M136.64 132.16C136.64 132.16 136.58 132.16 136.54 132.16L134.18 131.78C133.86 131.72 133.64 131.42 133.68 131.1C133.74 130.78 134.04 130.56 134.36 130.6L136.72 130.98C137.04 131.04 137.26 131.34 137.22 131.66C137.18 131.96 136.92 132.16 136.64 132.16ZM141.38 132.9C141.38 132.9 141.32 132.9 141.28 132.9L138.92 132.52C138.6 132.48 138.38 132.16 138.42 131.84C138.48 131.52 138.78 131.28 139.1 131.34L141.46 131.72C141.78 131.78 142 132.08 141.96 132.4C141.92 132.7 141.66 132.9 141.36 132.9M146.1 133.64C146.1 133.64 146.04 133.64 146 133.64L143.64 133.26C143.32 133.22 143.08 132.9 143.14 132.58C143.2 132.26 143.5 132.02 143.82 132.08L146.18 132.46C146.5 132.52 146.74 132.82 146.68 133.14C146.64 133.44 146.38 133.64 146.08 133.64M148.84 134.08C148.84 134.08 148.78 134.08 148.74 134.08L148.34 134.02C148.02 133.96 147.8 133.66 147.84 133.34C147.9 133.02 148.2 132.78 148.52 132.84L148.92 132.9C149.24 132.96 149.46 133.26 149.42 133.58C149.38 133.88 149.12 134.08 148.82 134.08" fill="black"/>
<path d="M118.82 140.76C118.72 140.76 118.62 140.74 118.52 140.68L116.44 139.5C116.16 139.34 116.06 138.98 116.22 138.68C116.38 138.4 116.74 138.28 117.04 138.46L119.12 139.64C119.4 139.8 119.52 140.16 119.34 140.46C119.24 140.66 119.02 140.76 118.82 140.76ZM123 143.12C122.9 143.12 122.8 143.1 122.7 143.04L120.62 141.86C120.34 141.7 120.22 141.34 120.4 141.04C120.56 140.76 120.92 140.64 121.22 140.82L123.3 142C123.58 142.16 123.68 142.54 123.52 142.82C123.42 143.02 123.2 143.12 123 143.12ZM126.32 145C126.22 145 126.12 144.98 126.02 144.92L124.78 144.22C124.5 144.06 124.38 143.7 124.56 143.4C124.72 143.12 125.08 143.02 125.38 143.18L126.62 143.88C126.9 144.04 127.02 144.4 126.84 144.7C126.74 144.9 126.52 145 126.32 145Z" fill="black"/>
<path d="M112.78 152.94C112.62 152.94 112.46 152.88 112.34 152.76L110.7 151.02C110.48 150.78 110.48 150.4 110.72 150.18C110.96 149.96 111.34 149.96 111.56 150.2L113.22 151.94C113.44 152.18 113.44 152.56 113.2 152.78C113.08 152.88 112.94 152.94 112.78 152.94ZM116.08 156.42C115.92 156.42 115.76 156.36 115.64 156.24L113.98 154.5C113.76 154.26 113.76 153.88 114 153.66C114.24 153.44 114.62 153.44 114.84 153.68L116.5 155.42C116.72 155.66 116.72 156.04 116.48 156.26C116.36 156.36 116.22 156.42 116.06 156.42M119.36 159.9C119.2 159.9 119.04 159.84 118.92 159.72L117.26 157.98C117.04 157.74 117.04 157.36 117.28 157.14C117.52 156.92 117.9 156.92 118.12 157.16L119.76 158.9C119.98 159.14 119.98 159.52 119.74 159.74C119.62 159.86 119.48 159.9 119.32 159.9" fill="black"/>
<path d="M139.22 117.48C138.9 117.48 138.64 117.24 138.62 116.92C138.6 116.6 138.84 116.3 139.16 116.28H139.52C139.84 116.22 140.14 116.48 140.16 116.8C140.18 117.14 139.94 117.42 139.62 117.44L139.26 117.48H139.22ZM134.44 117.88C134.14 117.88 133.86 117.64 133.84 117.32C133.82 117 134.06 116.7 134.38 116.68L136.76 116.48C137.1 116.46 137.38 116.7 137.4 117.04C137.42 117.36 137.18 117.66 136.86 117.68L134.48 117.88H134.44ZM129.66 118.28C129.36 118.28 129.08 118.04 129.06 117.72C129.04 117.4 129.28 117.1 129.6 117.08L131.98 116.88C132.3 116.86 132.6 117.1 132.62 117.44C132.64 117.76 132.4 118.06 132.08 118.08L129.7 118.28H129.66ZM124.88 118.68C124.58 118.68 124.3 118.44 124.28 118.14C124.26 117.8 124.5 117.52 124.82 117.5L127.2 117.3C127.54 117.28 127.82 117.52 127.84 117.84C127.86 118.18 127.62 118.46 127.3 118.48L124.92 118.68H124.88ZM120.1 119.08C119.8 119.08 119.52 118.84 119.5 118.54C119.48 118.22 119.72 117.92 120.04 117.9L122.42 117.7C122.76 117.68 123.04 117.92 123.06 118.24C123.08 118.58 122.84 118.86 122.52 118.88L120.14 119.08H120.1Z" fill="black"/>
<path d="M89.78 108.701C89.78 108.701 89.66 108.701 89.58 108.661L88.44 108.281C88.12 108.181 87.96 107.841 88.06 107.521C88.16 107.201 88.5 107.041 88.82 107.141L89.96 107.521C90.28 107.621 90.44 107.961 90.34 108.281C90.26 108.521 90.02 108.681 89.78 108.681" fill="black"/>
<path d="M83.02 106.419C83.02 106.419 82.9 106.419 82.82 106.379L80.94 105.759C80.62 105.659 80.46 105.319 80.56 104.999C80.66 104.679 81 104.519 81.32 104.619L83.2 105.239C83.52 105.339 83.68 105.679 83.58 105.999C83.5 106.239 83.26 106.399 83.02 106.399M86.76 107.659C86.76 107.659 86.64 107.659 86.56 107.619L84.7 106.999C84.38 106.899 84.22 106.559 84.32 106.239C84.42 105.919 84.76 105.759 85.08 105.859L86.94 106.479C87.26 106.579 87.42 106.919 87.32 107.239C87.24 107.479 87 107.639 86.76 107.639" fill="black"/>
<path d="M79.28 105.179C79.28 105.179 79.16 105.179 79.08 105.139L77.94 104.759C77.62 104.659 77.46 104.319 77.56 103.999C77.66 103.679 78 103.519 78.32 103.619L79.46 103.999C79.78 104.099 79.94 104.439 79.84 104.759C79.76 104.999 79.52 105.159 79.28 105.159" fill="black"/>
<path d="M88.68 95.7407C88.56 95.7407 88.46 95.7007 88.36 95.6407L86.36 94.3207C86.08 94.1407 86 93.7607 86.18 93.5007C86.36 93.2207 86.74 93.1407 87.02 93.3207L89.02 94.6407C89.3 94.8207 89.38 95.2007 89.2 95.4807C89.08 95.6607 88.9 95.7607 88.7 95.7607M92.72 98.3807C92.6 98.3807 92.5 98.3407 92.4 98.2807L90.4 96.9607C90.12 96.7807 90.04 96.4007 90.22 96.1407C90.4 95.8607 90.78 95.7807 91.04 95.9607L93.04 97.2807C93.32 97.4607 93.4 97.8407 93.22 98.1207C93.1 98.3007 92.92 98.3807 92.72 98.3807Z" fill="black"/>
<path d="M86.4 129.94C86.12 129.94 85.86 129.74 85.8 129.44C85.76 129.12 85.98 128.8 86.3 128.76L88.66 128.38C88.98 128.32 89.3 128.56 89.34 128.88C89.4 129.2 89.16 129.52 88.84 129.56L86.48 129.94C86.48 129.94 86.42 129.94 86.38 129.94M81.64 130.68C81.34 130.68 81.1 130.46 81.04 130.18C80.98 129.86 81.22 129.54 81.54 129.5L83.9 129.12C84.22 129.08 84.54 129.3 84.58 129.62C84.64 129.94 84.4 130.26 84.08 130.3L81.72 130.68C81.72 130.68 81.66 130.68 81.62 130.68M76.88 131.42C76.6 131.42 76.3401 131.2 76.2801 130.92C76.2201 130.6 76.4601 130.28 76.7801 130.24L79.14 129.86C79.46 129.82 79.78 130.04 79.82 130.36C79.88 130.68 79.64 131 79.32 131.04L76.96 131.42C76.96 131.42 76.9 131.42 76.86 131.42M72.12 132.16C71.84 132.16 71.58 131.96 71.54 131.66C71.48 131.34 71.72 131.02 72.04 130.98L74.4 130.6C74.72 130.56 75.04 130.78 75.08 131.1C75.12 131.42 74.9 131.74 74.58 131.78L72.22 132.16C72.22 132.16 72.16 132.16 72.12 132.16ZM67.38 132.9C67.08 132.9 66.8401 132.7 66.7801 132.4C66.7201 132.08 66.9601 131.76 67.2801 131.72L69.64 131.34C69.96 131.28 70.28 131.52 70.32 131.84C70.38 132.16 70.14 132.48 69.82 132.52L67.46 132.9C67.46 132.9 67.4 132.9 67.36 132.9M62.62 133.64C62.34 133.64 62.08 133.44 62.02 133.14C61.96 132.82 62.2 132.5 62.52 132.46L64.88 132.08C65.2 132.02 65.52 132.26 65.56 132.58C65.62 132.9 65.38 133.22 65.06 133.26L62.7 133.64C62.7 133.64 62.64 133.64 62.6 133.64M59.84 134.08C59.54 134.08 59.3 133.88 59.24 133.58C59.18 133.26 59.4 132.94 59.74 132.9L60.14 132.84C60.46 132.78 60.78 133.02 60.82 133.34C60.88 133.66 60.64 133.98 60.32 134.02L59.92 134.08C59.92 134.08 59.86 134.08 59.82 134.08" fill="black"/>
<path d="M90.06 140.759C89.84 140.759 89.64 140.659 89.54 140.459C89.38 140.179 89.48 139.799 89.76 139.639L91.84 138.459C92.12 138.299 92.5 138.399 92.66 138.679C92.82 138.959 92.72 139.339 92.44 139.499L90.36 140.679C90.36 140.679 90.16 140.759 90.06 140.759ZM85.88 143.119C85.68 143.119 85.48 143.019 85.36 142.819C85.2 142.539 85.3 142.159 85.58 141.999L87.66 140.819C87.94 140.659 88.32 140.759 88.48 141.039C88.64 141.319 88.54 141.699 88.26 141.859L86.18 143.039C86.18 143.039 85.98 143.119 85.88 143.119ZM82.56 144.999C82.36 144.999 82.14 144.899 82.04 144.699C81.88 144.419 81.98 144.039 82.26 143.879L83.5 143.179C83.78 143.019 84.16 143.119 84.32 143.399C84.48 143.679 84.38 144.059 84.1 144.219L82.86 144.919C82.86 144.919 82.66 144.999 82.56 144.999Z" fill="black"/>
<path d="M96.0999 152.94C95.9599 152.94 95.8 152.88 95.68 152.78C95.44 152.56 95.4399 152.18 95.6599 151.94L97.32 150.2C97.54 149.96 97.9199 149.96 98.1599 150.18C98.3999 150.4 98.4 150.78 98.18 151.02L96.54 152.76C96.42 152.88 96.2599 152.94 96.0999 152.94ZM92.8 156.42C92.66 156.42 92.5 156.36 92.38 156.26C92.14 156.04 92.14 155.66 92.36 155.42L94.02 153.68C94.24 153.44 94.62 153.44 94.86 153.66C95.1 153.88 95.1 154.26 94.88 154.5L93.2199 156.24C93.0999 156.36 92.94 156.42 92.78 156.42M89.48 159.9C89.34 159.9 89.18 159.84 89.06 159.74C88.82 159.52 88.82 159.14 89.04 158.9L90.68 157.16C90.9 156.92 91.28 156.92 91.52 157.14C91.76 157.36 91.76 157.74 91.54 157.98L89.88 159.72C89.76 159.84 89.6 159.9 89.44 159.9" fill="black"/>
<path d="M69.66 117.48H69.62L69.26 117.44C68.92 117.42 68.68 117.12 68.72 116.8C68.74 116.48 69.04 116.22 69.36 116.26H69.72C70.04 116.32 70.3 116.6 70.26 116.94C70.24 117.26 69.98 117.5 69.66 117.5M74.44 117.9H74.4L72.02 117.7C71.68 117.68 71.44 117.38 71.48 117.06C71.5 116.72 71.8 116.48 72.12 116.5L74.5 116.7C74.82 116.72 75.08 117.02 75.04 117.34C75.02 117.66 74.76 117.9 74.44 117.9ZM79.22 118.3H79.18L76.8 118.1C76.46 118.08 76.22 117.78 76.26 117.46C76.28 117.14 76.58 116.88 76.9 116.9L79.28 117.1C79.62 117.12 79.86 117.42 79.84 117.74C79.82 118.06 79.56 118.3 79.24 118.3M84.02 118.7H83.98L81.6 118.5C81.26 118.48 81.02 118.18 81.06 117.86C81.08 117.54 81.38 117.28 81.7 117.32L84.08 117.52C84.42 117.54 84.66 117.84 84.62 118.16C84.6 118.48 84.34 118.7 84.02 118.7ZM88.8 119.1C88.8 119.1 88.76 119.1 88.74 119.1L86.36 118.9C86.04 118.88 85.78 118.58 85.82 118.26C85.84 117.94 86.14 117.68 86.46 117.72L88.84 117.92C89.18 117.94 89.42 118.24 89.38 118.56C89.36 118.88 89.1 119.1 88.78 119.1" fill="black"/>
<path d="M103.42 119.98C103.3 119.98 103.18 119.94 103.08 119.88C102.8 119.68 102.74 119.32 102.94 119.04L104.66 116.6C104.86 116.34 105.22 116.26 105.5 116.46C105.78 116.66 105.84 117.02 105.64 117.3L103.92 119.74C103.8 119.9 103.62 120 103.44 120" fill="black"/>
<path d="M105.14 113.581C104.8 113.581 104.54 113.321 104.54 112.981V96.9809C104.54 96.6609 104.8 96.3809 105.14 96.3809C105.48 96.3809 105.74 96.6609 105.74 96.9809V112.981C105.74 113.321 105.46 113.581 105.14 113.581Z" fill="black"/>
<path d="M106.88 119.979C106.7 119.979 106.5 119.899 106.38 119.719L104.66 117.279C104.46 116.999 104.54 116.639 104.8 116.439C105.06 116.259 105.44 116.319 105.64 116.579L107.38 119.019C107.58 119.299 107.5 119.659 107.24 119.859C107.14 119.939 107.02 119.959 106.9 119.959" fill="black"/>
<path d="M105.14 122.421C104.96 122.421 104.76 122.341 104.64 122.161L102.92 119.721C102.72 119.441 102.8 119.081 103.06 118.881C103.32 118.701 103.7 118.761 103.9 119.021L105.62 121.461C105.82 121.741 105.74 122.101 105.48 122.301C105.38 122.381 105.26 122.401 105.14 122.401" fill="black"/>
<path d="M105.14 143.079C104.8 143.079 104.54 142.819 104.54 142.479V125.799C104.54 125.459 104.8 125.199 105.14 125.199C105.48 125.199 105.74 125.459 105.74 125.799V142.479C105.74 142.819 105.46 143.079 105.14 143.079Z" fill="black"/>
<path d="M105.14 122.419C105.02 122.419 104.9 122.379 104.8 122.319C104.52 122.119 104.46 121.759 104.66 121.479L106.4 119.039C106.6 118.779 106.96 118.699 107.24 118.899C107.52 119.099 107.58 119.459 107.38 119.739L105.66 122.179C105.54 122.339 105.36 122.439 105.18 122.439" fill="black"/>
<path d="M105.14 94.1194C104.52 94.1194 104 94.6195 104 95.2595C104 95.8995 104.5 96.3994 105.14 96.3994C105.78 96.3994 106.28 95.8995 106.28 95.2595C106.28 94.6195 105.78 94.1194 105.14 94.1194ZM105.14 97.5794C103.86 97.5794 102.8 96.5395 102.8 95.2595C102.8 93.9795 103.84 92.9395 105.14 92.9395C106.44 92.9395 107.46 93.9795 107.46 95.2595C107.46 96.5395 106.42 97.5794 105.14 97.5794Z" fill="black"/>
<path d="M105.14 143.039C104.52 143.039 104 143.539 104 144.179C104 144.819 104.5 145.319 105.14 145.319C105.78 145.319 106.28 144.819 106.28 144.179C106.28 143.539 105.78 143.039 105.14 143.039ZM105.14 146.499C103.86 146.499 102.8 145.459 102.8 144.179C102.8 142.899 103.84 141.859 105.14 141.859C106.44 141.859 107.46 142.899 107.46 144.179C107.46 145.459 106.42 146.499 105.14 146.499Z" fill="black"/>
</svg>
