<svg width="280" height="470" viewBox="0 0 280 470" fill="none" xmlns="http://www.w3.org/2000/svg">
<path d="M139.18 45.8792C132.62 45.8792 127.26 51.2192 127.26 57.7792C127.26 64.3392 132.6 69.6792 139.18 69.6792C145.76 69.6792 151.08 64.3392 151.08 57.7792C151.08 51.2192 145.74 45.8792 139.18 45.8792ZM139.18 70.8992C131.96 70.8992 126.08 65.0192 126.08 57.7992C126.08 50.5792 131.96 44.6992 139.18 44.6992C146.4 44.6992 152.28 50.5792 152.28 57.7992C152.28 65.0192 146.4 70.8992 139.18 70.8992Z" fill="black"/>
<path d="M139.18 48.5999C134.12 48.5999 130 52.7199 130 57.7799C130 62.8399 134.12 66.9599 139.18 66.9599C144.24 66.9599 148.36 62.8399 148.36 57.7799C148.36 52.7199 144.24 48.5999 139.18 48.5999ZM139.18 68.1799C133.46 68.1799 128.8 63.5199 128.8 57.7999C128.8 52.0799 133.46 47.4199 139.18 47.4199C144.9 47.4199 149.56 52.0799 149.56 57.7999C149.56 63.5199 144.9 68.1799 139.18 68.1799Z" fill="black"/>
<path d="M204.06 64.1996C197.5 64.1996 192.14 69.5395 192.14 76.1195C192.14 82.6995 197.48 88.0195 204.06 88.0195C210.64 88.0195 215.96 82.6795 215.96 76.1195C215.96 69.5595 210.62 64.1996 204.06 64.1996ZM204.06 89.2195C196.84 89.2195 190.96 83.3395 190.96 76.1195C190.96 68.8995 196.84 63.0195 204.06 63.0195C211.28 63.0195 217.16 68.8995 217.16 76.1195C217.16 83.3395 211.28 89.2195 204.06 89.2195Z" fill="black"/>
<path d="M204.06 66.9203C199 66.9203 194.88 71.0403 194.88 76.1003C194.88 81.1603 199 85.2802 204.06 85.2802C209.12 85.2802 213.24 81.1603 213.24 76.1003C213.24 71.0403 209.12 66.9203 204.06 66.9203ZM204.06 86.5002C198.34 86.5002 193.68 81.8402 193.68 76.1202C193.68 70.4002 198.34 65.7402 204.06 65.7402C209.78 65.7402 214.44 70.4002 214.44 76.1202C214.44 81.8402 209.78 86.5002 204.06 86.5002Z" fill="black"/>
<path d="M76.88 62.18C70.32 62.18 64.96 67.52 64.96 74.08C64.96 80.64 70.3 85.98 76.88 85.98C83.46 85.98 88.78 80.64 88.78 74.08C88.78 67.52 83.44 62.18 76.88 62.18ZM76.88 87.2C69.66 87.2 63.78 81.32 63.78 74.1C63.78 66.88 69.66 61 76.88 61C84.1 61 89.98 66.88 89.98 74.1C89.98 81.32 84.1 87.2 76.88 87.2Z" fill="black"/>
<path d="M76.88 64.9007C71.82 64.9007 67.7 69.0207 67.7 74.0807C67.7 79.1407 71.82 83.2607 76.88 83.2607C81.94 83.2607 86.06 79.1407 86.06 74.0807C86.06 69.0207 81.94 64.9007 76.88 64.9007ZM76.88 84.4807C71.16 84.4807 66.5 79.8207 66.5 74.1007C66.5 68.3807 71.16 63.7207 76.88 63.7207C82.6 63.7207 87.26 68.3807 87.26 74.1007C87.26 79.8207 82.6 84.4807 76.88 84.4807Z" fill="black"/>
<path d="M137.86 273.1C117.52 273.1 97.86 265.78 82.52 252.48C67.52 239.5 57.54 221.66 54.38 202.2L49.86 204.24C49.56 204.38 49.2 204.24 49.06 203.94C48.92 203.64 49.06 203.28 49.36 203.14L54.6 200.78C54.78 200.7 54.96 200.72 55.14 200.8C55.3 200.9 55.42 201.06 55.44 201.24C58.42 220.72 68.32 238.6 83.3 251.58C98.44 264.68 117.82 271.9 137.86 271.9C157.9 271.9 177.28 264.68 192.42 251.58C207.4 238.6 217.3 220.72 220.28 201.24C220.3 201.06 220.4 200.92 220.54 200.82C220.68 200.72 220.86 200.7 221.02 200.74L226.58 202.3C226.9 202.38 227.08 202.72 227 203.04C226.9 203.36 226.58 203.54 226.26 203.46L221.34 202.08C218.18 221.58 208.2 239.46 193.18 252.48C177.82 265.78 158.16 273.1 137.84 273.1" fill="black"/>
<path d="M137.86 265.101C117.54 265.101 97.88 258.661 82.54 247.001C67.32 235.421 57.28 219.481 54.24 202.081C54.18 201.761 54.4 201.441 54.72 201.381C55.04 201.321 55.36 201.541 55.42 201.861C58.4 218.961 68.28 234.641 83.26 246.041C98.4 257.561 117.8 263.901 137.86 263.901C157.92 263.901 177.3 257.561 192.46 246.041C207.44 234.641 217.32 218.961 220.3 201.861C220.36 201.541 220.66 201.321 221 201.381C221.32 201.441 221.54 201.741 221.48 202.081C218.44 219.481 208.4 235.421 193.18 247.001C177.82 258.681 158.18 265.101 137.86 265.101Z" fill="black"/>
<path d="M139.18 410.859C138.84 410.859 138.58 410.599 138.58 410.259V286.959C138.58 286.619 138.86 286.359 139.18 286.359C139.5 286.359 139.78 286.619 139.78 286.959V410.259C139.78 410.599 139.5 410.859 139.18 410.859Z" fill="black"/>
<path d="M133.12 279.72L139.18 285.78L145.24 279.72L139.18 273.66L133.12 279.72ZM139.18 287.22C139.02 287.22 138.86 287.16 138.76 287.04L131.86 280.14C131.62 279.9 131.62 279.52 131.86 279.3L138.76 272.38C138.98 272.16 139.38 272.16 139.6 272.38L146.5 279.3C146.74 279.54 146.74 279.92 146.5 280.14L139.6 287.04C139.48 287.16 139.34 287.22 139.18 287.22Z" fill="black"/>
<path d="M132.96 431.599L139.18 442.599L145.4 431.599L139.18 420.219L132.96 431.599ZM139.18 444.419C138.96 444.419 138.76 444.299 138.66 444.119L131.76 431.899C131.66 431.719 131.66 431.499 131.76 431.319L138.66 418.679C138.76 418.479 138.96 418.359 139.18 418.359C139.4 418.359 139.6 418.479 139.7 418.679L146.6 431.319C146.7 431.499 146.7 431.719 146.6 431.899L139.7 444.119C139.6 444.299 139.4 444.419 139.18 444.419Z" fill="black"/>
<path d="M136.14 461.5L139.18 466.88L142.22 461.5L139.18 455.94L136.14 461.5ZM139.18 468.7C138.96 468.7 138.76 468.58 138.66 468.4L134.94 461.82C134.84 461.64 134.84 461.42 134.94 461.24L138.66 454.42C138.76 454.22 138.96 454.1 139.18 454.1C139.4 454.1 139.6 454.22 139.7 454.42L143.42 461.24C143.52 461.42 143.52 461.64 143.42 461.82L139.7 468.4C139.6 468.58 139.4 468.7 139.18 468.7Z" fill="black"/>
<path d="M139.18 26.8606C138.84 26.8606 138.58 26.6006 138.58 26.2606V24.2406C138.58 23.9006 138.86 23.6406 139.18 23.6406C139.5 23.6406 139.78 23.9006 139.78 24.2406V26.2606C139.78 26.6006 139.5 26.8606 139.18 26.8606Z" fill="black"/>
<path d="M139.18 32.6791C138.84 32.6791 138.58 32.4191 138.58 32.0791V28.7191C138.58 28.3991 138.86 28.1191 139.18 28.1191C139.5 28.1191 139.78 28.3791 139.78 28.7191V32.0791C139.78 32.4191 139.5 32.6791 139.18 32.6791Z" fill="black"/>
<path d="M139.18 45.8596C138.84 45.8596 138.58 45.5996 138.58 45.2596V36.6996C138.58 36.3596 138.86 36.0996 139.18 36.0996C139.5 36.0996 139.78 36.3596 139.78 36.6996V45.2596C139.78 45.5996 139.5 45.8596 139.18 45.8596Z" fill="black"/>
<path d="M133.92 28.5607C133.64 28.5607 133.38 28.3607 133.32 28.0607L132.76 24.8407C132.7 24.5207 132.92 24.2007 133.24 24.1407C133.56 24.0807 133.88 24.3007 133.94 24.6207L134.5 27.8407C134.56 28.1607 134.34 28.4807 134.02 28.5407C133.98 28.5407 133.96 28.5407 133.92 28.5407" fill="black"/>
<path d="M135.26 36.1809C134.98 36.1809 134.72 35.9809 134.66 35.6809L133.74 30.5009C133.68 30.1809 133.9 29.8609 134.22 29.8009C134.54 29.7409 134.86 29.9609 134.92 30.2809L135.84 35.4609C135.9 35.7809 135.68 36.1009 135.36 36.1609C135.32 36.1609 135.3 36.1609 135.26 36.1609" fill="black"/>
<path d="M137 46.06C136.72 46.06 136.46 45.86 136.4 45.56L135.16 38.54C135.1 38.22 135.32 37.9 135.64 37.84C135.96 37.78 136.28 38 136.34 38.32L137.58 45.34C137.64 45.66 137.42 45.98 137.1 46.04C137.06 46.04 137.04 46.04 137 46.04" fill="black"/>
<path d="M130.22 33.78C129.98 33.78 129.74 33.62 129.66 33.38L127.14 26.46C127.02 26.14 127.18 25.8 127.5 25.7C127.82 25.58 128.16 25.74 128.26 26.06L130.78 32.98C130.9 33.3 130.74 33.64 130.42 33.74C130.36 33.76 130.28 33.78 130.22 33.78Z" fill="black"/>
<path d="M131.8 38.0999C131.56 38.0999 131.32 37.9399 131.24 37.6999L130.38 35.2999C130.26 34.9799 130.42 34.6398 130.74 34.5398C131.04 34.4198 131.4 34.5798 131.5 34.8998L132.38 37.2998C132.5 37.6198 132.34 37.9598 132.02 38.0598C131.96 38.0798 131.88 38.0999 131.82 38.0999" fill="black"/>
<path d="M134.9 46.6199C134.66 46.6199 134.42 46.4799 134.34 46.2199L132.22 40.3799C132.1 40.0599 132.26 39.7199 132.58 39.6199C132.9 39.4999 133.24 39.6599 133.34 39.9799L135.46 45.8199C135.58 46.1399 135.42 46.4799 135.1 46.5799C135.04 46.5999 134.96 46.6199 134.9 46.6199Z" fill="black"/>
<path d="M123.74 31.6409C123.54 31.6409 123.34 31.5409 123.22 31.3409L121.88 29.0409C121.72 28.7609 121.82 28.3809 122.1 28.2209C122.38 28.0609 122.76 28.1609 122.92 28.4409L124.26 30.7409C124.42 31.0209 124.32 31.4009 124.04 31.5609C123.94 31.6209 123.84 31.6409 123.74 31.6409Z" fill="black"/>
<path d="M132.92 47.5395C132.72 47.5395 132.52 47.4395 132.4 47.2395L124.82 34.0995C124.66 33.8195 124.76 33.4395 125.04 33.2795C125.32 33.1195 125.7 33.2195 125.86 33.4995L133.44 46.6395C133.6 46.9195 133.5 47.2995 133.22 47.4595C133.12 47.5195 133.02 47.5395 132.92 47.5395Z" fill="black"/>
<path d="M122.16 38.0994C121.98 38.0994 121.82 38.0194 121.7 37.8794L117.16 32.4594C116.94 32.1994 116.98 31.8194 117.24 31.6194C117.5 31.3994 117.88 31.4394 118.08 31.6994L122.62 37.1194C122.84 37.3794 122.8 37.7594 122.54 37.9594C122.42 38.0594 122.3 38.0994 122.16 38.0994Z" fill="black"/>
<path d="M126.56 43.3601C126.38 43.3601 126.22 43.2802 126.1 43.1402L123.26 39.7601C123.04 39.5001 123.08 39.1202 123.34 38.9202C123.6 38.7002 123.98 38.7401 124.18 39.0001L127.02 42.3801C127.24 42.6401 127.2 43.0201 126.94 43.2201C126.82 43.3201 126.7 43.3601 126.56 43.3601Z" fill="black"/>
<path d="M131.14 48.7999C130.96 48.7999 130.8 48.7199 130.68 48.5799L127.7 45.0199C127.48 44.7599 127.52 44.3799 127.78 44.1799C128.04 43.9599 128.42 43.9999 128.62 44.2599L131.6 47.8199C131.82 48.0799 131.78 48.4599 131.52 48.6599C131.4 48.7599 131.28 48.7999 131.14 48.7999Z" fill="black"/>
<path d="M121.54 43.5795C121.4 43.5795 121.26 43.5395 121.16 43.4395L113.1 36.6795C112.84 36.4595 112.82 36.0795 113.02 35.8395C113.24 35.5795 113.62 35.5595 113.86 35.7595L121.92 42.5195C122.18 42.7395 122.2 43.1195 122 43.3595C121.88 43.4995 121.72 43.5795 121.54 43.5795Z" fill="black"/>
<path d="M129.6 50.3391C129.46 50.3391 129.32 50.2991 129.22 50.1991L123.28 45.1991C123.02 44.9791 123 44.6191 123.2 44.3591C123.42 44.0991 123.78 44.0791 124.04 44.2791L129.98 49.2791C130.24 49.4991 130.26 49.8791 130.06 50.1191C129.94 50.2591 129.78 50.3391 129.6 50.3391Z" fill="black"/>
<path d="M112.78 43.1407C112.68 43.1407 112.58 43.1206 112.48 43.0606L109.82 41.5206C109.54 41.3606 109.44 40.9807 109.6 40.7007C109.76 40.4207 110.14 40.3207 110.42 40.4807L113.08 42.0206C113.36 42.1806 113.46 42.5606 113.3 42.8406C113.18 43.0406 112.98 43.1407 112.78 43.1407Z" fill="black"/>
<path d="M117.66 45.9604C117.56 45.9604 117.46 45.9404 117.36 45.8804L114.6 44.2804C114.32 44.1204 114.22 43.7404 114.38 43.4604C114.54 43.1804 114.92 43.0804 115.2 43.2404L117.98 44.8404C118.26 45.0004 118.36 45.3804 118.2 45.6604C118.08 45.8604 117.88 45.9604 117.68 45.9604" fill="black"/>
<path d="M128.34 52.1194C128.24 52.1194 128.14 52.0994 128.04 52.0394L119.72 47.2394C119.44 47.0794 119.34 46.6994 119.5 46.4194C119.66 46.1394 120.04 46.0394 120.32 46.1994L128.64 50.9994C128.92 51.1594 129.02 51.5394 128.86 51.8194C128.74 52.0194 128.54 52.1194 128.34 52.1194Z" fill="black"/>
<path d="M115.6 49.7991C115.6 49.7991 115.46 49.7991 115.4 49.7591L107.46 46.8591C107.16 46.7391 106.98 46.3991 107.1 46.0991C107.22 45.7791 107.56 45.6191 107.86 45.7391L115.82 48.6391C116.14 48.7591 116.3 49.0991 116.18 49.3991C116.1 49.6391 115.86 49.7991 115.62 49.7991" fill="black"/>
<path d="M127.42 54.1005C127.42 54.1005 127.28 54.1005 127.22 54.0605L118.28 50.8005C117.98 50.6805 117.82 50.3405 117.92 50.0405C118.04 49.7205 118.38 49.5605 118.68 49.6805L127.62 52.9405C127.92 53.0605 128.08 53.4005 127.98 53.7005C127.9 53.9405 127.66 54.1005 127.42 54.1005Z" fill="black"/>
<path d="M108.84 53.0202C108.84 53.0202 108.76 53.0202 108.74 53.0202L106.04 52.5402C105.72 52.4802 105.5 52.1802 105.56 51.8402C105.62 51.5002 105.92 51.3002 106.26 51.3602L108.96 51.8402C109.28 51.9002 109.5 52.2002 109.44 52.5402C109.38 52.8402 109.14 53.0402 108.86 53.0402" fill="black"/>
<path d="M118.48 54.7192C118.48 54.7192 118.4 54.7192 118.38 54.7192L112.68 53.7192C112.36 53.6592 112.14 53.3592 112.2 53.0192C112.26 52.6992 112.56 52.4792 112.9 52.5392L118.6 53.5392C118.92 53.5992 119.14 53.8992 119.08 54.2392C119.02 54.5392 118.78 54.7392 118.5 54.7392" fill="black"/>
<path d="M126.86 56.2006C126.86 56.2006 126.78 56.2006 126.76 56.2006L120.9 55.1606C120.58 55.1006 120.36 54.8006 120.42 54.4606C120.48 54.1406 120.78 53.9206 121.12 53.9806L126.98 55.0206C127.3 55.0806 127.52 55.3806 127.46 55.7206C127.4 56.0206 127.16 56.2206 126.88 56.2206" fill="black"/>
<path d="M112.04 58.3797H105.62C105.28 58.3797 105.02 58.1197 105.02 57.7797C105.02 57.4397 105.28 57.1797 105.62 57.1797H112.04C112.36 57.1797 112.64 57.4397 112.64 57.7797C112.64 58.1197 112.36 58.3797 112.04 58.3797Z" fill="black"/>
<path d="M126.66 58.3797H115.3C114.96 58.3797 114.7 58.1197 114.7 57.7797C114.7 57.4397 114.96 57.1797 115.3 57.1797H126.66C126.98 57.1797 127.26 57.4397 127.26 57.7797C127.26 58.1197 126.98 58.3797 126.66 58.3797Z" fill="black"/>
<path d="M106.14 64.1993C105.86 64.1993 105.6 63.9993 105.54 63.6993C105.48 63.3793 105.7 63.0593 106.02 62.9993L108.18 62.6193C108.5 62.5593 108.82 62.7793 108.88 63.0993C108.94 63.4193 108.72 63.7392 108.4 63.7992L106.24 64.1792C106.24 64.1792 106.18 64.1792 106.14 64.1792" fill="black"/>
<path d="M110.84 63.3798C110.56 63.3798 110.3 63.1798 110.24 62.8798C110.18 62.5598 110.4 62.2398 110.72 62.1798L116.42 61.1798C116.74 61.1198 117.06 61.3398 117.12 61.6598C117.18 61.9798 116.96 62.2998 116.64 62.3598L110.94 63.3598C110.94 63.3598 110.88 63.3598 110.84 63.3598" fill="black"/>
<path d="M119.3 61.88C119.02 61.88 118.76 61.68 118.7 61.38C118.64 61.06 118.86 60.74 119.18 60.68L126.74 59.34C127.06 59.28 127.38 59.5 127.44 59.82C127.5 60.14 127.28 60.4599 126.96 60.5199L119.4 61.8599C119.4 61.8599 119.34 61.8599 119.3 61.8599" fill="black"/>
<path d="M107.66 69.8598C107.42 69.8598 107.18 69.6998 107.1 69.4598C106.98 69.1398 107.14 68.7998 107.46 68.6998L114.78 66.0398C115.08 65.9198 115.44 66.0798 115.54 66.3998C115.66 66.6998 115.5 67.0598 115.18 67.1598L107.86 69.8198C107.86 69.8198 107.72 69.8598 107.66 69.8598Z" fill="black"/>
<path d="M118.2 66.0208C117.96 66.0208 117.72 65.8608 117.64 65.6208C117.52 65.3008 117.68 64.9608 118 64.8608L127.22 61.5008C127.52 61.3808 127.88 61.5408 127.98 61.8608C128.1 62.1808 127.94 62.5208 127.62 62.6208L118.4 65.9808C118.4 65.9808 118.26 66.0208 118.2 66.0208Z" fill="black"/>
<path d="M110.12 75.1605C109.92 75.1605 109.72 75.0605 109.6 74.8605C109.44 74.5805 109.54 74.2005 109.82 74.0405L113.66 71.8205C113.94 71.6605 114.32 71.7605 114.48 72.0405C114.64 72.3205 114.54 72.7005 114.26 72.8605L110.42 75.0805C110.42 75.0805 110.22 75.1605 110.12 75.1605Z" fill="black"/>
<path d="M116.06 71.7209C115.86 71.7209 115.66 71.6209 115.54 71.4209C115.38 71.1409 115.48 70.7609 115.76 70.6009L119 68.7209C119.28 68.5609 119.66 68.6609 119.82 68.9409C119.98 69.2209 119.88 69.6009 119.6 69.7609L116.36 71.6409C116.36 71.6409 116.16 71.7209 116.06 71.7209Z" fill="black"/>
<path d="M121.54 68.5602C121.34 68.5602 121.14 68.4602 121.02 68.2602C120.86 67.9802 120.96 67.6002 121.24 67.4402L128.04 63.5002C128.32 63.3402 128.7 63.4402 128.86 63.7202C129.02 64.0002 128.92 64.3802 128.64 64.5402L121.84 68.4602C121.84 68.4602 121.64 68.5402 121.54 68.5402" fill="black"/>
<path d="M113.48 79.9396C113.3 79.9396 113.14 79.8596 113.02 79.7196C112.8 79.4596 112.84 79.0796 113.1 78.8796L117.3 75.3596C117.56 75.1396 117.94 75.1796 118.14 75.4396C118.36 75.6996 118.32 76.0796 118.06 76.2796L113.86 79.7996C113.74 79.8996 113.62 79.9396 113.48 79.9396Z" fill="black"/>
<path d="M121.22 73.4396C121.04 73.4396 120.88 73.3596 120.76 73.2196C120.54 72.9596 120.58 72.5796 120.84 72.3796L129.2 65.3596C129.46 65.1396 129.84 65.1796 130.04 65.4396C130.26 65.6996 130.22 66.0796 129.96 66.2796L121.6 73.2996C121.48 73.3996 121.36 73.4396 121.22 73.4396Z" fill="black"/>
<path d="M117.62 84.0807C117.48 84.0807 117.34 84.0407 117.24 83.9407C116.98 83.7207 116.96 83.3407 117.16 83.1007L123.92 75.0407C124.14 74.7807 124.52 74.7607 124.76 74.9607C125.02 75.1807 125.04 75.5607 124.84 75.8007L118.08 83.8607C117.96 84.0007 117.8 84.0807 117.62 84.0807Z" fill="black"/>
<path d="M126.48 73.5002C126.34 73.5002 126.2 73.4602 126.1 73.3602C125.84 73.1402 125.82 72.7602 126.02 72.5202L130.66 66.9802C130.88 66.7202 131.26 66.7002 131.5 66.9002C131.76 67.1202 131.78 67.4802 131.58 67.7402L126.94 73.2802C126.82 73.4202 126.66 73.5002 126.48 73.5002Z" fill="black"/>
<path d="M122.4 87.4403C122.3 87.4403 122.2 87.4203 122.1 87.3603C121.82 87.2003 121.72 86.8203 121.88 86.5403L124.32 82.3003C124.48 82.0203 124.86 81.9203 125.14 82.0803C125.42 82.2403 125.52 82.6203 125.36 82.9003L122.92 87.1403C122.8 87.3403 122.6 87.4403 122.4 87.4403Z" fill="black"/>
<path d="M126.42 80.48C126.32 80.48 126.22 80.4599 126.12 80.3999C125.84 80.2399 125.74 79.8599 125.9 79.5799L129.12 73.98C129.28 73.7 129.66 73.6 129.94 73.76C130.22 73.92 130.32 74.2999 130.16 74.5799L126.94 80.1799C126.82 80.3799 126.62 80.48 126.42 80.48Z" fill="black"/>
<path d="M131.02 72.4803C130.92 72.4803 130.82 72.4603 130.72 72.4003C130.44 72.2403 130.34 71.8603 130.5 71.5803L132.4 68.3003C132.56 68.0203 132.94 67.9203 133.22 68.0803C133.5 68.2403 133.6 68.6203 133.44 68.9003L131.54 72.1803C131.42 72.3803 131.22 72.4803 131.02 72.4803Z" fill="black"/>
<path d="M127.7 89.9006C127.7 89.9006 127.56 89.9006 127.5 89.8606C127.18 89.7406 127.02 89.4006 127.14 89.1006L130.38 80.2006C130.5 79.8806 130.84 79.7206 131.14 79.8406C131.44 79.9606 131.6 80.3006 131.5 80.6006L128.26 89.5006C128.18 89.7406 127.94 89.9006 127.7 89.9006Z" fill="black"/>
<path d="M132.22 77.4795C132.22 77.4795 132.08 77.4795 132.02 77.4395C131.7 77.3195 131.54 76.9794 131.66 76.6794L134.34 69.3195C134.46 69.0195 134.8 68.8594 135.1 68.9594C135.4 69.0794 135.58 69.4195 135.46 69.7195L132.78 77.0794C132.7 77.3194 132.46 77.4795 132.22 77.4795Z" fill="black"/>
<path d="M133.36 91.4193C133.36 91.4193 133.28 91.4193 133.26 91.4193C132.94 91.3593 132.72 91.0593 132.78 90.7193L133.42 87.0993C133.48 86.7793 133.78 86.5593 134.12 86.6193C134.44 86.6793 134.66 86.9793 134.6 87.3193L133.96 90.9393C133.9 91.2393 133.66 91.4393 133.38 91.4393" fill="black"/>
<path d="M134.54 84.6999C134.54 84.6999 134.46 84.6999 134.44 84.6999C134.12 84.6399 133.9 84.3399 133.96 83.9999L134.8 79.2399C134.86 78.9199 135.16 78.6999 135.5 78.7599C135.82 78.8199 136.04 79.1199 135.98 79.4599L135.14 84.2199C135.08 84.5199 134.84 84.7199 134.56 84.7199" fill="black"/>
<path d="M135.94 76.7197C135.94 76.7197 135.86 76.7197 135.84 76.7197C135.52 76.6597 135.3 76.3596 135.36 76.0196L136.42 69.9997C136.48 69.6797 136.78 69.4596 137.12 69.5196C137.44 69.5796 137.66 69.8797 137.6 70.2197L136.54 76.2396C136.48 76.5396 136.24 76.7396 135.96 76.7396" fill="black"/>
<path d="M139.18 91.9197C138.84 91.9197 138.58 91.6597 138.58 91.3197V88.7797C138.58 88.4397 138.86 88.1797 139.18 88.1797C139.5 88.1797 139.78 88.4397 139.78 88.7797V91.3197C139.78 91.6597 139.5 91.9197 139.18 91.9197Z" fill="black"/>
<path d="M139.18 86.8194C138.84 86.8194 138.58 86.5594 138.58 86.2194V81.9594C138.58 81.6194 138.86 81.3594 139.18 81.3594C139.5 81.3594 139.78 81.6194 139.78 81.9594V86.2194C139.78 86.5594 139.5 86.8194 139.18 86.8194Z" fill="black"/>
<path d="M139.18 79.9397C138.84 79.9397 138.58 79.6797 138.58 79.3397V70.2797C138.58 69.9397 138.86 69.6797 139.18 69.6797C139.5 69.6797 139.78 69.9397 139.78 70.2797V79.3397C139.78 79.6797 139.5 79.9397 139.18 79.9397Z" fill="black"/>
<path d="M145 91.4193C144.72 91.4193 144.46 91.2193 144.4 90.9193L142.1 77.8193C142.04 77.4993 142.26 77.1793 142.58 77.1193C142.9 77.0593 143.22 77.2793 143.28 77.5993L145.58 90.6993C145.64 91.0193 145.42 91.3393 145.1 91.3993C145.06 91.3993 145.04 91.3993 145 91.3993" fill="black"/>
<path d="M142.24 75.7606C141.96 75.7606 141.7 75.5606 141.64 75.2606L140.74 70.1806C140.68 69.8606 140.9 69.5406 141.22 69.4806C141.54 69.4206 141.86 69.6406 141.92 69.9606L142.82 75.0406C142.88 75.3606 142.66 75.6806 142.34 75.7406C142.3 75.7406 142.28 75.7406 142.24 75.7406" fill="black"/>
<path d="M150.64 89.8993C150.4 89.8993 150.16 89.7393 150.08 89.4993L148.36 84.7393C148.24 84.4193 148.4 84.0793 148.72 83.9793C149.04 83.8593 149.38 84.0193 149.48 84.3393L151.2 89.0993C151.32 89.4193 151.16 89.7593 150.84 89.8593C150.78 89.8793 150.7 89.8993 150.64 89.8993Z" fill="black"/>
<path d="M147.56 81.3998C147.32 81.3998 147.08 81.2398 147 80.9998L142.9 69.7198C142.78 69.3998 142.94 69.0598 143.26 68.9598C143.56 68.8398 143.92 68.9998 144.02 69.3198L148.12 80.5998C148.24 80.9198 148.08 81.2598 147.76 81.3598C147.7 81.3798 147.62 81.3998 147.56 81.3998Z" fill="black"/>
<path d="M155.94 87.4392C155.74 87.4392 155.54 87.3393 155.42 87.1393L154.1 84.8592C153.94 84.5792 154.04 84.1993 154.32 84.0393C154.6 83.8793 154.98 83.9793 155.14 84.2593L156.46 86.5393C156.62 86.8193 156.52 87.1992 156.24 87.3592C156.14 87.4192 156.04 87.4392 155.94 87.4392Z" fill="black"/>
<path d="M153.32 82.8794C153.12 82.8794 152.92 82.7794 152.8 82.5794L150.16 78.0194C150 77.7394 150.1 77.3594 150.38 77.1994C150.66 77.0394 151.04 77.1394 151.2 77.4194L153.84 81.9794C154 82.2594 153.9 82.6394 153.62 82.7994C153.52 82.8594 153.42 82.8794 153.32 82.8794Z" fill="black"/>
<path d="M149.16 75.6603C148.96 75.6603 148.76 75.5603 148.64 75.3603L144.92 68.9003C144.76 68.6203 144.86 68.2403 145.14 68.0803C145.42 67.9203 145.8 68.0203 145.96 68.3003L149.68 74.7603C149.84 75.0403 149.74 75.4203 149.46 75.5803C149.36 75.6403 149.26 75.6603 149.16 75.6603Z" fill="black"/>
<path d="M160.74 84.0793C160.56 84.0793 160.4 83.9993 160.28 83.8593L155.68 78.3793C155.46 78.1193 155.5 77.7393 155.76 77.5393C156.02 77.3193 156.4 77.3593 156.6 77.6193L161.2 83.0993C161.42 83.3593 161.38 83.7393 161.12 83.9393C161 84.0393 160.88 84.0793 160.74 84.0793Z" fill="black"/>
<path d="M154.34 76.4591C154.16 76.4591 154 76.3791 153.88 76.2391L150.92 72.7191C150.7 72.4591 150.74 72.0791 151 71.8791C151.26 71.6591 151.64 71.6991 151.84 71.9591L154.8 75.4791C155.02 75.7391 154.98 76.1191 154.72 76.3191C154.6 76.4191 154.48 76.4591 154.34 76.4591Z" fill="black"/>
<path d="M149.68 70.8806C149.5 70.8806 149.34 70.8006 149.22 70.6606L146.76 67.7406C146.54 67.4806 146.58 67.1006 146.84 66.9006C147.1 66.6806 147.48 66.7206 147.68 66.9806L150.14 69.9006C150.36 70.1606 150.32 70.5406 150.06 70.7406C149.94 70.8406 149.82 70.8806 149.68 70.8806Z" fill="black"/>
<path d="M164.88 79.9397C164.74 79.9397 164.6 79.8997 164.5 79.7997L161.58 77.3397C161.32 77.1197 161.3 76.7397 161.5 76.4997C161.72 76.2397 162.1 76.2197 162.34 76.4197L165.26 78.8797C165.52 79.0997 165.54 79.4797 165.34 79.7197C165.22 79.8597 165.06 79.9397 164.88 79.9397Z" fill="black"/>
<path d="M160.2 76.0206C160.06 76.0206 159.92 75.9806 159.82 75.8806L156.14 72.8006C155.88 72.5806 155.86 72.2006 156.06 71.9606C156.28 71.7006 156.66 71.6806 156.9 71.8806L160.58 74.9606C160.84 75.1806 160.86 75.5606 160.66 75.8006C160.54 75.9406 160.38 76.0206 160.2 76.0206Z" fill="black"/>
<path d="M154.56 71.2792C154.42 71.2792 154.28 71.2392 154.18 71.1392L148.38 66.2792C148.12 66.0592 148.1 65.6792 148.3 65.4392C148.52 65.1792 148.9 65.1591 149.14 65.3591L154.94 70.2192C155.2 70.4392 155.22 70.8192 155.02 71.0592C154.9 71.1992 154.74 71.2792 154.56 71.2792Z" fill="black"/>
<path d="M168.22 75.1593C168.12 75.1593 168.02 75.1393 167.92 75.0793L161.98 71.6593C161.7 71.4993 161.6 71.1193 161.76 70.8393C161.92 70.5593 162.3 70.4593 162.58 70.6193L168.52 74.0393C168.8 74.1993 168.9 74.5793 168.74 74.8593C168.62 75.0593 168.42 75.1593 168.22 75.1593Z" fill="black"/>
<path d="M159.04 69.8599C158.94 69.8599 158.84 69.8399 158.74 69.7799L155.32 67.7999C155.04 67.6399 154.94 67.26 155.1 66.98C155.26 66.7 155.64 66.6 155.92 66.76L159.34 68.7399C159.62 68.8999 159.72 69.2799 159.56 69.5599C159.44 69.7599 159.24 69.8599 159.04 69.8599Z" fill="black"/>
<path d="M153.1 66.4197C153 66.4197 152.9 66.3997 152.8 66.3397L149.7 64.5597C149.42 64.3997 149.32 64.0197 149.48 63.7397C149.64 63.4597 150.02 63.3597 150.3 63.5197L153.4 65.2997C153.68 65.4597 153.78 65.8397 153.62 66.1197C153.5 66.3197 153.3 66.4197 153.1 66.4197Z" fill="black"/>
<path d="M170.7 69.8609C170.7 69.8609 170.56 69.8609 170.5 69.8209L167.44 68.7009C167.14 68.5809 166.98 68.2409 167.08 67.9409C167.2 67.6209 167.54 67.4609 167.84 67.5809L170.9 68.7009C171.22 68.8209 171.38 69.1609 171.26 69.4609C171.18 69.7009 170.94 69.8609 170.7 69.8609Z" fill="black"/>
<path d="M165.28 67.88C165.28 67.88 165.14 67.88 165.08 67.84L160.22 66.06C159.92 65.94 159.74 65.6 159.86 65.3C159.98 64.98 160.32 64.84 160.62 64.94L165.48 66.72C165.78 66.84 165.94 67.18 165.84 67.48C165.76 67.72 165.52 67.88 165.28 67.88Z" fill="black"/>
<path d="M156.18 64.5593C156.18 64.5593 156.04 64.5593 155.98 64.5193L150.74 62.5993C150.42 62.4793 150.26 62.1393 150.38 61.8393C150.5 61.5193 150.84 61.3593 151.14 61.4793L156.38 63.3793C156.68 63.4993 156.84 63.8393 156.74 64.1393C156.66 64.3793 156.42 64.5393 156.18 64.5393" fill="black"/>
<path d="M172.22 64.1999C172.22 64.1999 172.14 64.1999 172.12 64.1999L169.42 63.7199C169.1 63.6599 168.88 63.3599 168.94 63.0199C169 62.6799 169.3 62.4799 169.64 62.5399L172.34 63.0199C172.66 63.0799 172.88 63.3799 172.82 63.7199C172.76 64.0199 172.52 64.2199 172.24 64.2199" fill="black"/>
<path d="M166.8 63.2396C166.8 63.2396 166.72 63.2396 166.7 63.2396L163.58 62.6997C163.26 62.6397 163.04 62.3397 163.1 61.9997C163.16 61.6797 163.46 61.4596 163.8 61.5196L166.92 62.0597C167.24 62.1197 167.46 62.4197 167.4 62.7597C167.34 63.0597 167.1 63.2597 166.82 63.2597" fill="black"/>
<path d="M160.42 62.1195C160.42 62.1195 160.34 62.1195 160.32 62.1195L151.4 60.5395C151.08 60.4795 150.86 60.1795 150.92 59.8395C150.98 59.5195 151.28 59.2995 151.62 59.3595L160.54 60.9395C160.86 60.9995 161.08 61.2995 161.02 61.6395C160.96 61.9395 160.72 62.1395 160.44 62.1395" fill="black"/>
<path d="M172.72 58.3797H167.64C167.3 58.3797 167.04 58.1197 167.04 57.7797C167.04 57.4397 167.3 57.1797 167.64 57.1797H172.72C173.04 57.1797 173.32 57.4397 173.32 57.7797C173.32 58.1197 173.04 58.3797 172.72 58.3797Z" fill="black"/>
<path d="M165.38 58.3797H159.22C158.88 58.3797 158.62 58.1197 158.62 57.7797C158.62 57.4397 158.88 57.1797 159.22 57.1797H165.38C165.7 57.1797 165.98 57.4397 165.98 57.7797C165.98 58.1197 165.7 58.3797 165.38 58.3797Z" fill="black"/>
<path d="M156.16 58.3797H151.68C151.34 58.3797 151.08 58.1197 151.08 57.7797C151.08 57.4397 151.34 57.1797 151.68 57.1797H156.16C156.48 57.1797 156.76 57.4397 156.76 57.7797C156.76 58.1197 156.48 58.3797 156.16 58.3797Z" fill="black"/>
<path d="M163.64 54.06C163.36 54.06 163.1 53.86 163.04 53.56C162.98 53.24 163.2 52.9199 163.52 52.8599L172.1 51.34C172.42 51.28 172.74 51.5 172.8 51.82C172.86 52.14 172.64 52.4599 172.32 52.5199L163.74 54.04C163.74 54.04 163.68 54.04 163.64 54.04" fill="black"/>
<path d="M151.5 56.1995C151.22 56.1995 150.96 55.9995 150.9 55.6995C150.84 55.3795 151.06 55.0595 151.38 54.9995L160.7 53.3595C161.02 53.2995 161.34 53.5195 161.4 53.8395C161.46 54.1595 161.24 54.4795 160.92 54.5395L151.6 56.1795C151.6 56.1795 151.54 56.1795 151.5 56.1795" fill="black"/>
<path d="M166.52 48.4191C166.28 48.4191 166.04 48.2591 165.96 48.0191C165.84 47.6991 166 47.3591 166.32 47.2591L170.5 45.7391C170.8 45.6191 171.16 45.7791 171.26 46.0991C171.38 46.4191 171.22 46.7591 170.9 46.8791L166.72 48.3991C166.72 48.3991 166.58 48.4391 166.52 48.4391" fill="black"/>
<path d="M158.26 51.4396C158.02 51.4396 157.78 51.2796 157.7 51.0396C157.58 50.7196 157.74 50.3796 158.06 50.2796L163.5 48.2996C163.82 48.1796 164.16 48.3396 164.26 48.6596C164.38 48.9796 164.22 49.3196 163.9 49.4196L158.46 51.3996C158.46 51.3996 158.32 51.4396 158.26 51.4396Z" fill="black"/>
<path d="M150.92 54.1008C150.68 54.1008 150.44 53.9408 150.36 53.7008C150.24 53.3808 150.4 53.0408 150.72 52.9408L154.7 51.5008C155.02 51.3808 155.36 51.5408 155.46 51.8608C155.58 52.1808 155.42 52.5208 155.1 52.6208L151.12 54.0608C151.12 54.0608 150.98 54.1008 150.92 54.1008Z" fill="black"/>
<path d="M165.38 43.2607C165.18 43.2607 164.98 43.1606 164.86 42.9606C164.7 42.6806 164.8 42.3007 165.08 42.1407L167.94 40.4807C168.22 40.3207 168.6 40.4207 168.76 40.7007C168.92 40.9807 168.82 41.3606 168.54 41.5206L165.68 43.1806C165.68 43.1806 165.48 43.2607 165.38 43.2607Z" fill="black"/>
<path d="M159.22 46.799C159.02 46.799 158.82 46.699 158.7 46.499C158.54 46.219 158.64 45.839 158.92 45.679L161.3 44.299C161.58 44.139 161.96 44.239 162.12 44.519C162.28 44.799 162.18 45.179 161.9 45.339L159.52 46.719C159.52 46.719 159.32 46.799 159.22 46.799Z" fill="black"/>
<path d="M150 52.1192C149.8 52.1192 149.6 52.0192 149.48 51.8192C149.32 51.5392 149.42 51.1592 149.7 50.9992L155.68 47.5393C155.96 47.3793 156.34 47.4793 156.5 47.7593C156.66 48.0393 156.56 48.4192 156.28 48.5792L150.3 52.0392C150.3 52.0392 150.1 52.1192 150 52.1192Z" fill="black"/>
<path d="M158.26 42.38C158.08 42.38 157.92 42.3 157.8 42.16C157.58 41.9 157.62 41.52 157.88 41.32L164.5 35.76C164.76 35.54 165.14 35.58 165.34 35.84C165.56 36.1 165.52 36.48 165.26 36.68L158.64 42.24C158.52 42.34 158.4 42.38 158.26 42.38Z" fill="black"/>
<path d="M148.76 50.3403C148.58 50.3403 148.42 50.2603 148.3 50.1203C148.08 49.8603 148.12 49.4803 148.38 49.2803L155.78 43.0803C156.04 42.8603 156.42 42.9003 156.62 43.1603C156.84 43.4203 156.8 43.8003 156.54 44.0003L149.16 50.2003C149.04 50.3003 148.92 50.3403 148.78 50.3403" fill="black"/>
<path d="M158.6 35.2209C158.46 35.2209 158.32 35.1809 158.22 35.0809C157.96 34.8609 157.94 34.4809 158.14 34.2409L160.28 31.7009C160.5 31.4409 160.86 31.4209 161.12 31.6209C161.38 31.8409 161.4 32.2009 161.2 32.4609L159.06 35.0009C158.94 35.1409 158.78 35.2209 158.6 35.2209Z" fill="black"/>
<path d="M147.22 48.7999C147.08 48.7999 146.94 48.7599 146.84 48.6599C146.58 48.4399 146.56 48.0599 146.76 47.8199L156.06 36.7399C156.28 36.4799 156.64 36.4599 156.9 36.6599C157.16 36.8799 157.18 37.2399 156.98 37.4999L147.68 48.5799C147.56 48.7199 147.4 48.7999 147.22 48.7999Z" fill="black"/>
<path d="M152.26 35.6994C152.16 35.6994 152.06 35.6794 151.96 35.6194C151.68 35.4594 151.58 35.0794 151.74 34.7994L155.42 28.4194C155.58 28.1394 155.96 28.0394 156.24 28.1994C156.52 28.3594 156.62 28.7394 156.46 29.0194L152.78 35.3994C152.66 35.5994 152.46 35.6994 152.26 35.6994Z" fill="black"/>
<path d="M149.16 41.0806C149.06 41.0806 148.96 41.0606 148.86 41.0006C148.58 40.8406 148.48 40.4606 148.64 40.1806L150.42 37.1206C150.58 36.8406 150.96 36.7406 151.24 36.9006C151.52 37.0606 151.62 37.4406 151.46 37.7206L149.68 40.7806C149.56 40.9806 149.36 41.0806 149.16 41.0806Z" fill="black"/>
<path d="M145.42 47.5397C145.32 47.5397 145.22 47.5197 145.12 47.4597C144.84 47.2997 144.74 46.9197 144.9 46.6397L146.86 43.2397C147.02 42.9597 147.4 42.8597 147.68 43.0197C147.96 43.1797 148.06 43.5597 147.9 43.8397L145.94 47.2397C145.82 47.4397 145.62 47.5397 145.42 47.5397Z" fill="black"/>
<path d="M149.74 29.3205C149.74 29.3205 149.6 29.3205 149.54 29.2805C149.24 29.1605 149.08 28.8205 149.18 28.5205L150.08 26.0405C150.2 25.7205 150.54 25.5605 150.84 25.6805C151.16 25.8005 151.32 26.1405 151.2 26.4405L150.3 28.9205C150.22 29.1605 149.98 29.3205 149.74 29.3205Z" fill="black"/>
<path d="M146.84 37.3C146.84 37.3 146.7 37.3 146.64 37.26C146.32 37.14 146.16 36.8 146.28 36.5L147.98 31.8C148.1 31.48 148.44 31.34 148.74 31.44C149.06 31.56 149.22 31.9 149.1 32.2L147.38 36.9C147.3 37.14 147.06 37.3 146.82 37.3" fill="black"/>
<path d="M143.46 46.6198C143.46 46.6198 143.32 46.6198 143.26 46.5798C142.94 46.4598 142.78 46.1198 142.9 45.8198L145.24 39.3998C145.36 39.0798 145.7 38.9198 146 39.0398C146.32 39.1598 146.48 39.4998 146.36 39.7998L144.02 46.2398C143.94 46.4798 143.7 46.6398 143.46 46.6398" fill="black"/>
<path d="M144.12 30.3203C144.12 30.3203 144.04 30.3203 144.02 30.3203C143.7 30.2603 143.48 29.9603 143.54 29.6203L144.42 24.6403C144.48 24.3203 144.78 24.1003 145.12 24.1603C145.46 24.2203 145.66 24.5203 145.6 24.8603L144.72 29.8403C144.66 30.1403 144.42 30.3403 144.14 30.3403" fill="black"/>
<path d="M142.9 37.2992C142.9 37.2992 142.82 37.2992 142.8 37.2992C142.48 37.2392 142.26 36.9392 142.32 36.5992L143.12 32.0192C143.18 31.6992 143.48 31.4792 143.82 31.5392C144.14 31.5992 144.36 31.8992 144.3 32.2392L143.5 36.8192C143.44 37.1192 143.2 37.3192 142.92 37.3192" fill="black"/>
<path d="M141.34 46.0607C141.34 46.0607 141.26 46.0607 141.24 46.0607C140.92 46.0007 140.7 45.7006 140.76 45.3606L141.7 40.0407C141.76 39.7207 142.06 39.5007 142.4 39.5607C142.72 39.6207 142.94 39.9207 142.88 40.2607L141.94 45.5806C141.88 45.8806 141.64 46.0806 141.36 46.0806" fill="black"/>
<path d="M136.28 279.72C136.28 278.12 137.58 276.84 139.16 276.84C140.74 276.84 142.04 278.14 142.04 279.72C142.04 281.3 140.74 282.6 139.16 282.6C137.58 282.6 136.28 281.3 136.28 279.72Z" fill="black"/>
<path d="M128.34 191.141C128.34 185.161 133.18 180.301 139.18 180.301C145.18 180.301 150.02 185.141 150.02 191.141C150.02 197.141 145.18 201.981 139.18 201.981C133.18 201.981 128.34 197.141 128.34 191.141Z" fill="black"/>
<path d="M139.18 273.421C138.84 273.421 138.58 273.161 138.58 272.821V201.981C138.58 201.641 138.86 201.381 139.18 201.381C139.5 201.381 139.78 201.641 139.78 201.981V272.821C139.78 273.161 139.5 273.421 139.18 273.421Z" fill="black"/>
<path d="M166.9 267.941C166.66 267.941 166.42 267.801 166.34 267.541L142.32 201.521C142.2 201.201 142.36 200.861 142.68 200.761C142.98 200.641 143.34 200.801 143.44 201.121L167.46 267.141C167.58 267.461 167.42 267.801 167.1 267.901C167.04 267.921 166.96 267.941 166.9 267.941Z" fill="black"/>
<path d="M191.32 253.881C191.14 253.881 190.98 253.801 190.86 253.661L145.68 199.821C145.46 199.561 145.5 199.181 145.76 198.981C146.02 198.761 146.4 198.801 146.6 199.061L191.78 252.901C192 253.161 191.96 253.541 191.7 253.741C191.58 253.841 191.46 253.881 191.32 253.881Z" fill="black"/>
<path d="M209.66 232.439C209.56 232.439 209.46 232.419 209.36 232.359L148.26 197.079C147.98 196.919 147.88 196.539 148.04 196.259C148.2 195.979 148.58 195.879 148.86 196.039L209.96 231.319C210.24 231.479 210.34 231.859 210.18 232.139C210.06 232.339 209.86 232.439 209.66 232.439Z" fill="black"/>
<path d="M110.52 268.48C110.52 268.48 110.38 268.48 110.32 268.44C110 268.32 109.84 267.98 109.96 267.68L134.18 201.12C134.3 200.82 134.64 200.64 134.94 200.76C135.24 200.88 135.42 201.22 135.3 201.52L111.08 268.08C111 268.32 110.76 268.48 110.52 268.48Z" fill="black"/>
<path d="M85.96 254.3C85.82 254.3 85.68 254.26 85.58 254.16C85.32 253.94 85.3 253.56 85.5 253.32L131.02 199.06C131.24 198.8 131.62 198.78 131.86 198.98C132.12 199.2 132.14 199.56 131.94 199.82L86.4 254.08C86.28 254.22 86.12 254.3 85.94 254.3" fill="black"/>
<path d="M66.44 233.319C66.24 233.319 66.04 233.219 65.92 233.019C65.76 232.739 65.86 232.359 66.14 232.199L128.78 196.039C129.06 195.879 129.44 195.979 129.6 196.259C129.76 196.539 129.66 196.919 129.38 197.079L66.74 233.239C66.74 233.239 66.54 233.319 66.44 233.319Z" fill="black"/>
<path d="M139.18 118.14C135.3 126.6 112.04 177.94 112.04 191.78C112.04 206.74 124.22 218.92 139.18 218.92C154.14 218.92 166.32 206.74 166.32 191.78C166.32 177.94 143.06 126.62 139.18 118.14ZM139.18 220.1C123.56 220.1 110.84 207.4 110.84 191.76C110.84 185.32 115.52 170.7 124.76 148.26C131.62 131.58 138.56 116.6 138.64 116.44C138.74 116.24 138.94 116.1 139.18 116.1C139.42 116.1 139.62 116.24 139.72 116.44C140.86 118.88 167.5 176.48 167.5 191.76C167.5 207.04 154.78 220.1 139.16 220.1" fill="black"/>
<path d="M139.18 118.14C135.3 126.6 112.04 177.94 112.04 191.78C112.04 206.74 124.22 218.92 139.18 218.92C154.14 218.92 166.32 206.74 166.32 191.78C166.32 177.94 143.06 126.62 139.18 118.14ZM139.18 220.1C123.56 220.1 110.84 207.4 110.84 191.76C110.84 185.32 115.52 170.7 124.76 148.26C131.62 131.58 138.56 116.6 138.64 116.44C138.74 116.24 138.94 116.1 139.18 116.1C139.42 116.1 139.62 116.24 139.72 116.44C140.86 118.88 167.5 176.48 167.5 191.76C167.5 207.04 154.78 220.1 139.16 220.1" fill="black"/>
<path d="M75.42 154.96C80.82 162.56 113.64 208.36 125.62 215.28C131.9 218.9 139.2 219.86 146.2 217.98C153.2 216.1 159.06 211.62 162.68 205.34C170.16 192.38 165.7 175.76 152.74 168.28C140.76 161.36 84.68 155.84 75.4 154.96M139.12 220.12C134.2 220.12 129.36 218.84 125 216.32C119.44 213.1 109.1 201.74 94.28 182.52C83.28 168.24 73.76 154.74 73.66 154.6C73.52 154.42 73.52 154.16 73.64 153.96C73.76 153.76 73.98 153.64 74.22 153.66C74.38 153.66 90.84 155.16 108.7 157.54C132.74 160.76 147.76 164.02 153.34 167.24C166.86 175.06 171.52 192.42 163.7 205.94C159.92 212.5 153.8 217.18 146.5 219.14C144.06 219.8 141.58 220.12 139.12 220.12Z" fill="black"/>
<path d="M125.6 168.28C112.64 175.76 108.18 192.38 115.66 205.34C120.68 214.04 129.82 218.9 139.2 218.9C143.8 218.9 148.46 217.74 152.72 215.28C164.7 208.36 197.52 162.56 202.92 154.96C193.66 155.84 137.56 161.36 125.6 168.28ZM139.22 220.1C129.42 220.1 119.88 215.02 114.64 205.94C106.82 192.4 111.48 175.04 125 167.24C130.58 164.02 145.58 160.76 169.64 157.54C187.5 155.14 203.96 153.66 204.12 153.66C204.36 153.64 204.58 153.76 204.7 153.96C204.82 154.16 204.8 154.42 204.68 154.6C204.58 154.74 195.08 168.26 184.06 182.52C169.24 201.74 158.92 213.1 153.34 216.32C148.88 218.88 144.02 220.1 139.22 220.1Z" fill="black"/>
<path d="M61.08 86.4991C60.9 86.4991 60.74 86.4191 60.62 86.2791C60.4 86.0191 60.44 85.6391 60.7 85.4391C70.8 76.9791 82.12 70.2591 94.32 65.4391C94.62 65.3191 94.98 65.4591 95.1 65.7791C95.22 66.0791 95.08 66.4391 94.76 66.5591C82.68 71.3191 71.48 77.999 61.48 86.359C61.36 86.459 61.24 86.4991 61.1 86.4991" fill="black"/>
<path d="M259.24 159.82C258.96 159.82 258.7 159.62 258.64 159.32C258.38 157.8 258.1 156.26 257.8 154.74C257.74 154.42 257.94 154.1 258.26 154.04C258.58 153.98 258.9 154.18 258.96 154.5C259.28 156.02 259.56 157.58 259.82 159.12C259.88 159.44 259.66 159.76 259.32 159.82C259.28 159.82 259.26 159.82 259.22 159.82" fill="black"/>
<path d="M21.44 159.82C21.44 159.82 21.38 159.82 21.34 159.82C21.02 159.76 20.8 159.46 20.84 159.12C21.1 157.58 21.38 156.02 21.7 154.5C21.76 154.18 22.08 153.96 22.4 154.04C22.72 154.1 22.94 154.42 22.86 154.74C22.54 156.26 22.26 157.8 22.02 159.32C21.98 159.62 21.72 159.82 21.44 159.82Z" fill="black"/>
<path d="M218.1 87.2C217.96 87.2 217.82 87.16 217.72 87.06C208.28 79 197.72 72.48 186.34 67.68C186.04 67.54 185.9 67.2 186.02 66.9C186.14 66.6 186.5 66.46 186.8 66.58C198.3 71.44 208.96 78.04 218.5 86.16C218.74 86.38 218.78 86.76 218.56 87C218.44 87.14 218.28 87.2 218.1 87.2Z" fill="black"/>
<path d="M45.12 96.3203C45.12 93.2803 47.58 90.8203 50.62 90.8203C53.66 90.8203 56.12 93.2803 56.12 96.3203C56.12 99.3603 53.66 101.82 50.62 101.82C47.58 101.82 45.12 99.3603 45.12 96.3203Z" fill="black"/>
<path d="M33.1 111.899C33.1 109.399 35.12 107.359 37.64 107.359C40.16 107.359 42.18 109.379 42.18 111.899C42.18 114.419 40.14 116.439 37.64 116.439C35.14 116.439 33.1 114.419 33.1 111.899Z" fill="black"/>
<path d="M26.98 125.621C26.98 123.941 28.34 122.561 30.04 122.561C31.74 122.561 33.1 123.921 33.1 125.621C33.1 127.321 31.74 128.681 30.04 128.681C28.34 128.681 26.98 127.321 26.98 125.621Z" fill="black"/>
<path d="M20.86 140.521C20.86 138.841 22.22 137.461 23.92 137.461C25.62 137.461 26.98 138.821 26.98 140.521C26.98 142.221 25.62 143.581 23.92 143.581C22.22 143.581 20.86 142.221 20.86 140.521Z" fill="black"/>
<path d="M233.36 96.3203C233.36 93.2803 230.9 90.8203 227.86 90.8203C224.82 90.8203 222.36 93.2803 222.36 96.3203C222.36 99.3603 224.82 101.82 227.86 101.82C230.9 101.82 233.36 99.3603 233.36 96.3203Z" fill="black"/>
<path d="M245.38 111.899C245.38 109.399 243.34 107.359 240.84 107.359C238.34 107.359 236.3 109.379 236.3 111.899C236.3 114.419 238.34 116.439 240.84 116.439C243.34 116.439 245.38 114.419 245.38 111.899Z" fill="black"/>
<path d="M251.5 125.621C251.5 123.941 250.14 122.561 248.44 122.561C246.74 122.561 245.38 123.921 245.38 125.621C245.38 127.321 246.74 128.681 248.44 128.681C250.14 128.681 251.5 127.321 251.5 125.621Z" fill="black"/>
<path d="M257.62 140.521C257.62 138.841 256.24 137.461 254.56 137.461C252.88 137.461 251.5 138.821 251.5 140.521C251.5 142.221 252.86 143.581 254.56 143.581C256.26 143.581 257.62 142.221 257.62 140.521Z" fill="black"/>
<path d="M72.02 150.481C70.94 150.481 70.06 151.361 70.06 152.441C70.06 153.521 70.94 154.401 72.02 154.401C73.1 154.401 73.96 153.521 73.96 152.441C73.96 151.361 73.08 150.481 72.02 150.481ZM72.02 155.581C70.28 155.581 68.86 154.161 68.86 152.441C68.86 150.721 70.28 149.301 72.02 149.301C73.76 149.301 75.16 150.721 75.16 152.441C75.16 154.161 73.74 155.581 72.02 155.581Z" fill="black"/>
<path d="M139.18 112.2C138.1 112.2 137.22 113.08 137.22 114.16C137.22 115.24 138.1 116.12 139.18 116.12C140.26 116.12 141.12 115.24 141.12 114.16C141.12 113.08 140.24 112.2 139.18 112.2ZM139.18 117.3C137.44 117.3 136.02 115.88 136.02 114.16C136.02 112.44 137.44 111.02 139.18 111.02C140.92 111.02 142.32 112.44 142.32 114.16C142.32 115.88 140.9 117.3 139.18 117.3Z" fill="black"/>
<path d="M206.74 151.641C205.66 151.641 204.78 152.521 204.78 153.601C204.78 154.681 205.66 155.561 206.74 155.561C207.82 155.561 208.68 154.681 208.68 153.601C208.68 152.521 207.8 151.641 206.74 151.641ZM206.74 156.741C205 156.741 203.58 155.321 203.58 153.601C203.58 151.881 205 150.461 206.74 150.461C208.48 150.461 209.88 151.881 209.88 153.601C209.88 155.321 208.46 156.741 206.74 156.741Z" fill="black"/>
<path d="M206.74 182.559C206.4 182.559 206.14 182.299 206.14 181.959V156.139C206.14 155.819 206.42 155.539 206.74 155.539C207.06 155.539 207.34 155.799 207.34 156.139V181.959C207.34 182.299 207.06 182.559 206.74 182.559Z" fill="black"/>
<path d="M72.02 181.62C71.68 181.62 71.42 181.36 71.42 181.02V155.2C71.42 154.88 71.7 154.6 72.02 154.6C72.34 154.6 72.62 154.86 72.62 155.2V181.02C72.62 181.36 72.34 181.62 72.02 181.62Z" fill="black"/>
<path d="M139.18 143.12C138.84 143.12 138.58 142.86 138.58 142.52V116.7C138.58 116.38 138.86 116.1 139.18 116.1C139.5 116.1 139.78 116.36 139.78 116.7V142.52C139.78 142.86 139.5 143.12 139.18 143.12Z" fill="black"/>
<path d="M72.02 182.421C71.16 183.941 70.18 185.941 70.18 186.641C70.18 187.661 71 188.481 72.02 188.481C73.04 188.481 73.86 187.661 73.86 186.641C73.86 185.921 72.88 183.941 72.02 182.421ZM72.02 189.681C70.34 189.681 68.98 188.321 68.98 186.641C68.98 185.201 71.08 181.621 71.5 180.921C71.6 180.741 71.8 180.641 72.02 180.641C72.24 180.641 72.42 180.741 72.54 180.921C72.96 181.621 75.06 185.201 75.06 186.641C75.06 188.321 73.7 189.681 72.02 189.681Z" fill="black"/>
<path d="M4.32 154.719C3.46 156.239 2.48 158.239 2.48 158.939C2.48 159.959 3.3 160.779 4.32 160.779C5.34 160.779 6.16 159.959 6.16 158.939C6.16 158.239 5.18 156.239 4.32 154.719ZM4.32 161.979C2.64 161.979 1.28 160.619 1.28 158.939C1.28 157.499 3.38 153.919 3.8 153.219C3.9 153.039 4.1 152.939 4.32 152.939C4.54 152.939 4.72 153.039 4.84 153.219C5.26 153.919 7.36 157.499 7.36 158.939C7.36 160.619 6 161.979 4.32 161.979Z" fill="black"/>
<path d="M72.02 192.761C71.42 192.761 70.92 193.241 70.92 193.861C70.92 194.481 71.4 194.961 72.02 194.961C72.64 194.961 73.12 194.481 73.12 193.861C73.12 193.241 72.64 192.761 72.02 192.761ZM72.02 196.141C70.76 196.141 69.72 195.121 69.72 193.861C69.72 192.601 70.74 191.561 72.02 191.561C73.3 191.561 74.3 192.581 74.3 193.861C74.3 195.141 73.28 196.141 72.02 196.141Z" fill="black"/>
<path d="M4.31999 225.761C3.71999 225.761 3.21999 226.241 3.21999 226.861C3.21999 227.481 3.69999 227.961 4.31999 227.961C4.93999 227.961 5.41999 227.481 5.41999 226.861C5.41999 226.241 4.93999 225.761 4.31999 225.761ZM4.31999 229.141C3.05999 229.141 2.01999 228.121 2.01999 226.861C2.01999 225.601 3.03999 224.561 4.31999 224.561C5.59999 224.561 6.59999 225.581 6.59999 226.861C6.59999 228.141 5.57999 229.141 4.31999 229.141Z" fill="black"/>
<path d="M4.31999 235.819C3.71999 235.819 3.21999 236.299 3.21999 236.919C3.21999 237.539 3.69999 238.019 4.31999 238.019C4.93999 238.019 5.41999 237.539 5.41999 236.919C5.41999 236.299 4.93999 235.819 4.31999 235.819ZM4.31999 239.199C3.05999 239.199 2.01999 238.179 2.01999 236.919C2.01999 235.659 3.03999 234.619 4.31999 234.619C5.59999 234.619 6.59999 235.639 6.59999 236.919C6.59999 238.199 5.57999 239.199 4.31999 239.199Z" fill="black"/>
<path d="M206.74 182.421C205.88 183.941 204.9 185.941 204.9 186.641C204.9 187.661 205.72 188.481 206.74 188.481C207.76 188.481 208.58 187.661 208.58 186.641C208.58 185.921 207.6 183.941 206.74 182.421ZM206.74 189.681C205.06 189.681 203.7 188.321 203.7 186.641C203.7 185.201 205.8 181.621 206.22 180.921C206.32 180.741 206.52 180.641 206.74 180.641C206.96 180.641 207.14 180.741 207.26 180.921C207.68 181.621 209.78 185.201 209.78 186.641C209.78 188.321 208.42 189.681 206.74 189.681Z" fill="black"/>
<path d="M206.74 192.761C206.14 192.761 205.64 193.241 205.64 193.861C205.64 194.481 206.12 194.961 206.74 194.961C207.36 194.961 207.84 194.481 207.84 193.861C207.84 193.241 207.36 192.761 206.74 192.761ZM206.74 196.141C205.48 196.141 204.44 195.121 204.44 193.861C204.44 192.601 205.46 191.561 206.74 191.561C208.02 191.561 209.02 192.581 209.02 193.861C209.02 195.141 208 196.141 206.74 196.141Z" fill="black"/>
<path d="M139.18 143.921C138.32 145.441 137.34 147.441 137.34 148.141C137.34 149.161 138.16 149.981 139.18 149.981C140.2 149.981 141.02 149.161 141.02 148.141C141.02 147.421 140.04 145.441 139.18 143.921ZM139.18 151.181C137.5 151.181 136.14 149.821 136.14 148.141C136.14 146.701 138.24 143.121 138.66 142.421C138.76 142.241 138.96 142.141 139.18 142.141C139.4 142.141 139.58 142.241 139.7 142.421C140.12 143.121 142.22 146.701 142.22 148.141C142.22 149.821 140.86 151.181 139.18 151.181Z" fill="black"/>
<path d="M139.18 154.261C138.58 154.261 138.08 154.741 138.08 155.361C138.08 155.981 138.56 156.461 139.18 156.461C139.8 156.461 140.28 155.981 140.28 155.361C140.28 154.741 139.8 154.261 139.18 154.261ZM139.18 157.641C137.92 157.641 136.88 156.621 136.88 155.361C136.88 154.101 137.9 153.061 139.18 153.061C140.46 153.061 141.46 154.081 141.46 155.361C141.46 156.641 140.44 157.641 139.18 157.641Z" fill="black"/>
<path d="M139.18 292.52C131.76 292.52 125.72 286.48 125.72 279.06C125.72 276.42 126.48 273.84 127.94 271.64C128.12 271.36 128.5 271.28 128.78 271.46C129.06 271.64 129.14 272.02 128.94 272.3C127.62 274.3 126.92 276.64 126.92 279.06C126.92 285.82 132.42 291.32 139.18 291.32C145.94 291.32 151.44 285.82 151.44 279.06C151.44 276.52 150.68 274.08 149.22 272.02C149.02 271.74 149.1 271.38 149.36 271.18C149.64 271 150 271.06 150.2 271.32C151.8 273.6 152.64 276.26 152.64 279.06C152.64 286.48 146.6 292.52 139.18 292.52Z" fill="black"/>
<path d="M154.9 393.519C154.6 393.519 154.34 393.299 154.3 392.999L153.6 387.119C153.56 386.779 153.8 386.499 154.12 386.459C154.44 386.419 154.74 386.659 154.78 386.979L155.48 392.859C155.52 393.179 155.28 393.479 154.96 393.519C154.94 393.519 154.92 393.519 154.88 393.519" fill="black"/>
<path d="M153.68 383.439C153.38 383.439 153.12 383.219 153.08 382.919L142.06 291.539C142.02 291.219 142.26 290.919 142.58 290.879C142.9 290.839 143.2 291.079 143.24 291.399L154.26 382.779C154.3 383.119 154.06 383.399 153.74 383.439C153.72 383.439 153.7 383.439 153.66 383.439" fill="black"/>
<path d="M123.3 393.519C123.3 393.519 123.26 393.519 123.22 393.519C122.88 393.479 122.66 393.179 122.7 392.859L123.4 386.979C123.44 386.659 123.74 386.419 124.06 386.459C124.38 386.499 124.62 386.799 124.58 387.119L123.88 392.999C123.84 393.299 123.58 393.519 123.28 393.519" fill="black"/>
<path d="M124.5 383.439C124.5 383.439 124.46 383.439 124.42 383.439C124.08 383.399 123.86 383.099 123.9 382.779L134.92 291.399C134.96 291.079 135.26 290.839 135.58 290.879C135.9 290.919 136.14 291.219 136.1 291.539L125.08 382.919C125.04 383.219 124.78 383.439 124.48 383.439" fill="black"/>
<path d="M139.18 397.261C137.5 397.261 136.14 398.621 136.14 400.301C136.14 401.981 137.5 403.341 139.18 403.341C140.86 403.341 142.22 401.981 142.22 400.301C142.22 398.621 140.86 397.261 139.18 397.261ZM139.18 404.541C136.84 404.541 134.94 402.641 134.94 400.301C134.94 397.961 136.84 396.061 139.18 396.061C141.52 396.061 143.42 397.961 143.42 400.301C143.42 402.641 141.52 404.541 139.18 404.541Z" fill="black"/>
<path d="M135.54 431.4C135.54 429.4 137.16 427.76 139.18 427.76C141.2 427.76 142.82 429.4 142.82 431.4C142.82 433.4 141.18 435.04 139.18 435.04C137.18 435.04 135.54 433.4 135.54 431.4Z" fill="black"/>
<path d="M4.32 147.98C3.98 147.98 3.72 147.72 3.72 147.38C3.72 146.38 3.72 145.36 3.76 144.38C3.76 144.04 4.04 143.78 4.38 143.8C4.72 143.8 4.98 144.08 4.96 144.42C4.94 145.4 4.92 146.4 4.92 147.4C4.92 147.74 4.64 148 4.32 148" fill="black"/>
<path d="M148.2 13.4194C148.2 13.4194 148.18 13.4194 148.16 13.4194C146.16 13.2794 144.14 13.1995 142.14 13.1595C141.8 13.1595 141.54 12.8794 141.56 12.5394C141.56 12.2194 141.84 11.9395 142.18 11.9595C144.2 11.9995 146.24 12.0995 148.26 12.2195C148.6 12.2395 148.84 12.5195 148.82 12.8595C148.8 13.1795 148.54 13.4194 148.22 13.4194M130.08 13.4194C129.76 13.4194 129.5 13.1795 129.48 12.8595C129.46 12.5195 129.7 12.2395 130.04 12.2195C132.06 12.0795 134.1 11.9995 136.12 11.9395C136.46 11.9395 136.72 12.1995 136.74 12.5195C136.74 12.8395 136.48 13.1195 136.16 13.1395C134.16 13.1795 132.14 13.2794 130.14 13.3994C130.14 13.3994 130.12 13.3994 130.1 13.3994M160.26 14.7195C160.26 14.7195 160.2 14.7195 160.16 14.7195C158.18 14.3995 156.18 14.1394 154.18 13.9194C153.86 13.8794 153.62 13.5794 153.66 13.2594C153.7 12.9394 154 12.6995 154.32 12.7395C156.32 12.9595 158.36 13.2394 160.34 13.5394C160.66 13.5794 160.9 13.8995 160.84 14.2195C160.8 14.5195 160.54 14.7195 160.24 14.7195M118.04 14.7195C117.76 14.7195 117.5 14.5195 117.46 14.2195C117.4 13.8995 117.62 13.5794 117.96 13.5394C119.94 13.2194 121.98 12.9595 123.98 12.7395C124.3 12.6995 124.6 12.9394 124.64 13.2794C124.68 13.5994 124.44 13.8995 124.1 13.9395C122.12 14.1595 120.1 14.4395 118.14 14.7395C118.1 14.7395 118.08 14.7395 118.04 14.7395M172.1 17.1395C172.1 17.1395 172 17.1395 171.96 17.1395C170.02 16.6595 168.04 16.1995 166.08 15.7995C165.76 15.7395 165.54 15.4195 165.62 15.0995C165.68 14.7795 166 14.5595 166.32 14.6395C168.3 15.0395 170.3 15.4994 172.24 15.9794C172.56 16.0594 172.76 16.3794 172.68 16.6994C172.62 16.9794 172.36 17.1595 172.1 17.1595M106.2 17.1794C105.94 17.1794 105.68 16.9995 105.62 16.7195C105.54 16.3995 105.74 16.0795 106.06 15.9995C108.02 15.4995 110.02 15.0595 111.98 14.6595C112.3 14.5995 112.62 14.7994 112.68 15.1194C112.74 15.4394 112.54 15.7595 112.22 15.8195C110.26 16.2195 108.28 16.6795 106.34 17.1595C106.28 17.1595 106.24 17.1794 106.2 17.1794ZM183.72 20.6395C183.72 20.6395 183.58 20.6395 183.52 20.5995C181.62 19.9395 179.7 19.2995 177.78 18.7395C177.46 18.6395 177.28 18.3195 177.38 17.9995C177.48 17.6795 177.8 17.4995 178.12 17.5995C180.06 18.1795 182 18.8194 183.92 19.4794C184.24 19.5794 184.4 19.9395 184.28 20.2395C184.2 20.4795 183.96 20.6395 183.72 20.6395ZM94.62 20.6595C94.38 20.6595 94.14 20.4994 94.06 20.2594C93.96 19.9394 94.12 19.5995 94.42 19.4995C96.32 18.8395 98.26 18.1994 100.2 17.6194C100.52 17.5194 100.86 17.6995 100.94 18.0195C101.04 18.3395 100.86 18.6794 100.54 18.7594C98.62 19.3394 96.7 19.9594 94.82 20.6194C94.76 20.6394 94.68 20.6595 94.62 20.6595ZM194.98 25.1395C194.98 25.1395 194.82 25.1395 194.74 25.0795C192.92 24.2595 191.04 23.4594 189.2 22.6994C188.9 22.5794 188.74 22.2194 188.86 21.9194C188.98 21.6194 189.34 21.4595 189.64 21.5795C191.52 22.3395 193.4 23.1394 195.24 23.9794C195.54 24.1194 195.68 24.4794 195.54 24.7794C195.44 24.9994 195.22 25.1194 195 25.1194M83.44 25.1194C83.22 25.1194 83 24.9794 82.9 24.7594C82.76 24.4594 82.9 24.0995 83.2 23.9595C85.04 23.1195 86.9 22.3195 88.78 21.5795C89.08 21.4595 89.44 21.5994 89.56 21.9194C89.68 22.2194 89.54 22.5794 89.22 22.6994C87.36 23.4394 85.52 24.2394 83.7 25.0594C83.62 25.0994 83.54 25.1194 83.46 25.1194M72.7 30.6194C72.5 30.6194 72.3 30.5195 72.18 30.3195C72.02 30.0395 72.12 29.6595 72.4 29.4995C74.16 28.4995 75.94 27.5394 77.74 26.6194C78.04 26.4594 78.4 26.5795 78.54 26.8795C78.7 27.1795 78.58 27.5394 78.28 27.6794C76.5 28.5794 74.72 29.5394 72.98 30.5394C72.88 30.5994 72.78 30.6194 72.68 30.6194M205.78 30.6194C205.68 30.6194 205.58 30.5994 205.48 30.5394C203.74 29.5594 201.96 28.5794 200.18 27.6794C199.88 27.5394 199.76 27.1595 199.92 26.8795C200.08 26.5795 200.44 26.4594 200.72 26.6194C202.52 27.5394 204.32 28.5195 206.08 29.5195C206.36 29.6795 206.46 30.0394 206.3 30.3394C206.2 30.5394 205.98 30.6395 205.78 30.6395M62.44 37.0794C62.24 37.0794 62.06 36.9995 61.94 36.8195C61.76 36.5395 61.82 36.1794 62.1 35.9794C63.76 34.8194 65.46 33.6995 67.16 32.6395C67.44 32.4595 67.82 32.5395 67.98 32.8195C68.16 33.0995 68.08 33.4795 67.8 33.6395C66.1 34.6995 64.42 35.8194 62.78 36.9594C62.68 37.0394 62.56 37.0594 62.44 37.0594M216.02 37.0794C215.9 37.0794 215.78 37.0395 215.68 36.9795C214.04 35.8395 212.34 34.7195 210.66 33.6595C210.38 33.4795 210.3 33.1194 210.48 32.8394C210.66 32.5594 211.02 32.4795 211.3 32.6595C213 33.7395 214.72 34.8594 216.38 36.0194C216.66 36.1994 216.72 36.5794 216.54 36.8594C216.42 37.0194 216.24 37.1194 216.04 37.1194M52.84 44.4395C52.66 44.4395 52.5 44.3595 52.38 44.2195C52.16 43.9595 52.2 43.5795 52.46 43.3795C54 42.0795 55.6 40.8195 57.22 39.5995C57.48 39.3995 57.86 39.4395 58.06 39.7195C58.26 39.9795 58.2 40.3594 57.94 40.5594C56.34 41.7594 54.76 43.0395 53.24 44.3195C53.12 44.4195 53 44.4594 52.86 44.4594M225.7 44.4995C225.56 44.4995 225.42 44.4594 225.32 44.3594C223.78 43.0794 222.2 41.8195 220.6 40.5995C220.34 40.3995 220.28 40.0195 220.48 39.7595C220.68 39.4995 221.06 39.4395 221.32 39.6395C222.92 40.8595 224.52 42.1395 226.08 43.4395C226.34 43.6595 226.36 44.0194 226.16 44.2794C226.04 44.4194 225.88 44.4995 225.7 44.4995ZM43.94 52.6395C43.78 52.6395 43.64 52.5794 43.52 52.4594C43.28 52.2194 43.28 51.8394 43.52 51.6194C44.94 50.1994 46.42 48.7795 47.92 47.4195C48.16 47.1995 48.54 47.2194 48.76 47.4594C48.98 47.6994 48.96 48.0794 48.72 48.2994C47.24 49.6394 45.78 51.0594 44.36 52.4594C44.24 52.5794 44.1 52.6395 43.94 52.6395ZM234.64 52.6794C234.48 52.6794 234.34 52.6195 234.22 52.4995C232.8 51.0795 231.34 49.6794 229.86 48.3394C229.62 48.1194 229.6 47.7395 229.82 47.4995C230.04 47.2595 230.42 47.2394 230.66 47.4594C232.14 48.8194 233.62 50.2395 235.06 51.6595C235.3 51.8995 235.3 52.2795 235.06 52.4995C234.94 52.6195 234.78 52.6794 234.64 52.6794ZM35.78 61.5594C35.64 61.5594 35.5 61.5195 35.4 61.4195C35.14 61.1995 35.12 60.8394 35.32 60.5794C36.62 59.0394 37.96 57.4995 39.32 55.9995C39.54 55.7595 39.92 55.7394 40.16 55.9594C40.4 56.1794 40.42 56.5594 40.2 56.7994C38.84 58.2794 37.52 59.7994 36.24 61.3394C36.12 61.4794 35.96 61.5594 35.78 61.5594ZM242.8 61.5995C242.62 61.5995 242.46 61.5195 242.34 61.3795C241.06 59.8395 239.72 58.3194 238.38 56.8394C238.16 56.5994 238.18 56.2195 238.42 55.9995C238.66 55.7795 239.04 55.7995 239.26 56.0395C240.62 57.5195 241.96 59.0594 243.26 60.6194C243.48 60.8794 243.44 61.2594 243.18 61.4594C243.06 61.5594 242.94 61.5995 242.8 61.5995ZM28.42 71.1794C28.3 71.1794 28.18 71.1394 28.08 71.0794C27.8 70.8794 27.74 70.5194 27.92 70.2394C29.08 68.5794 30.28 66.9195 31.5 65.3195C31.7 65.0595 32.08 64.9995 32.34 65.1995C32.6 65.3995 32.66 65.7795 32.46 66.0395C31.24 67.6395 30.06 69.2795 28.92 70.9195C28.8 71.0795 28.62 71.1794 28.42 71.1794ZM250.12 71.2195C249.92 71.2195 249.74 71.1394 249.62 70.9594C248.48 69.3194 247.28 67.6795 246.08 66.0995C245.88 65.8395 245.92 65.4595 246.2 65.2595C246.46 65.0595 246.84 65.0995 247.04 65.3795C248.26 66.9795 249.46 68.6394 250.62 70.2994C250.8 70.5794 250.74 70.9395 250.46 71.1395C250.36 71.2195 250.24 71.2394 250.12 71.2394M21.96 81.4594C21.96 81.4594 21.76 81.4395 21.66 81.3795C21.38 81.2195 21.28 80.8594 21.44 80.5594C22.44 78.7994 23.5 77.0394 24.56 75.3394C24.74 75.0594 25.1 74.9795 25.38 75.1595C25.66 75.3395 25.74 75.6995 25.56 75.9795C24.5 77.6795 23.46 79.4195 22.46 81.1595C22.36 81.3595 22.14 81.4594 21.94 81.4594M256.54 81.4594C256.34 81.4594 256.12 81.3595 256.02 81.1595C255.04 79.4195 254 77.6795 252.94 75.9995C252.76 75.7195 252.84 75.3594 253.12 75.1794C253.4 74.9994 253.78 75.0794 253.94 75.3594C255.02 77.0594 256.06 78.8194 257.06 80.5594C257.22 80.8394 257.12 81.2195 256.84 81.3795C256.74 81.4395 256.64 81.4594 256.54 81.4594ZM262.04 92.2195C261.82 92.2195 261.6 92.0794 261.5 91.8594C260.68 90.0394 259.8 88.2195 258.88 86.4395C258.72 86.1395 258.84 85.7795 259.14 85.6395C259.44 85.4795 259.8 85.5994 259.94 85.8994C260.86 87.6994 261.74 89.5394 262.58 91.3594C262.72 91.6594 262.58 92.0195 262.28 92.1595C262.2 92.1995 262.12 92.2195 262.04 92.2195ZM16.44 92.2394C16.44 92.2394 16.28 92.2394 16.2 92.1794C15.9 92.0394 15.76 91.6795 15.9 91.3795C16.74 89.5395 17.62 87.6994 18.54 85.8994C18.7 85.5994 19.06 85.4795 19.34 85.6395C19.64 85.7995 19.76 86.1595 19.6 86.4395C18.68 88.2195 17.8 90.0595 16.98 91.8795C16.88 92.0995 16.66 92.2394 16.44 92.2394ZM266.56 103.419C266.32 103.419 266.08 103.259 266 103.019C265.34 101.139 264.62 99.2395 263.88 97.3795C263.76 97.0795 263.9 96.7195 264.22 96.5995C264.52 96.4795 264.88 96.6195 265 96.9395C265.76 98.8195 266.48 100.719 267.14 102.639C267.24 102.959 267.08 103.299 266.78 103.399C266.72 103.419 266.64 103.439 266.58 103.439M11.96 103.499C11.96 103.499 11.82 103.499 11.76 103.459C11.44 103.359 11.28 103.019 11.4 102.699C12.06 100.799 12.78 98.8795 13.54 96.9995C13.66 96.6995 14.02 96.5395 14.32 96.6595C14.62 96.7795 14.78 97.1395 14.66 97.4395C13.92 99.2995 13.2 101.199 12.54 103.099C12.46 103.339 12.22 103.499 11.98 103.499M270.08 115.019C269.82 115.019 269.56 114.839 269.5 114.559C269.02 112.619 268.48 110.659 267.9 108.759C267.8 108.439 267.98 108.119 268.3 108.019C268.62 107.919 268.96 108.099 269.04 108.419C269.62 110.359 270.16 112.319 270.66 114.279C270.74 114.599 270.54 114.919 270.22 114.999C270.18 114.999 270.12 114.999 270.08 114.999M8.49999 115.079C8.49999 115.079 8.39999 115.079 8.35999 115.079C8.03999 114.999 7.83999 114.679 7.91999 114.359C8.41999 112.399 8.95999 110.439 9.53999 108.499C9.63999 108.179 9.95999 107.999 10.28 108.099C10.6 108.199 10.78 108.519 10.68 108.839C10.1 110.759 9.57999 112.699 9.07999 114.639C9.01999 114.919 8.75999 115.099 8.49999 115.099M272.5 126.879C272.2 126.879 271.96 126.659 271.92 126.379C271.6 124.399 271.24 122.399 270.84 120.459C270.78 120.139 270.98 119.819 271.3 119.759C271.62 119.699 271.94 119.899 272 120.219C272.4 122.199 272.76 124.199 273.08 126.199C273.14 126.519 272.9 126.839 272.58 126.879C272.54 126.879 272.52 126.879 272.48 126.879M6.05999 126.959C6.05999 126.959 5.99999 126.959 5.95999 126.959C5.63999 126.899 5.41999 126.599 5.45999 126.279C5.77999 124.279 6.13999 122.279 6.53999 120.299C6.59999 119.979 6.91999 119.759 7.23999 119.839C7.55999 119.899 7.77999 120.219 7.69999 120.539C7.29999 122.499 6.93999 124.499 6.63999 126.459C6.59999 126.759 6.33999 126.959 6.03999 126.959M273.8 138.899C273.48 138.899 273.22 138.659 273.2 138.339C273.06 136.339 272.88 134.319 272.66 132.339C272.62 132.019 272.86 131.719 273.18 131.679C273.5 131.639 273.8 131.879 273.84 132.219C274.06 134.219 274.24 136.259 274.38 138.279C274.4 138.599 274.16 138.899 273.82 138.919C273.82 138.919 273.8 138.919 273.78 138.919M4.67999 138.999C4.67999 138.999 4.65999 138.999 4.63999 138.999C4.29999 138.979 4.05999 138.699 4.07999 138.359C4.21999 136.339 4.39999 134.299 4.61999 132.299C4.65999 131.979 4.95999 131.739 5.27999 131.779C5.59999 131.819 5.83999 132.119 5.79999 132.439C5.57999 134.419 5.39999 136.439 5.25999 138.439C5.23999 138.759 4.97999 138.999 4.65999 138.999" fill="black"/>
<path d="M274.02 147.979C273.68 147.979 273.42 147.719 273.42 147.379C273.42 146.399 273.42 145.379 273.38 144.399C273.38 144.059 273.64 143.799 273.96 143.779C274.3 143.779 274.56 144.039 274.58 144.359C274.6 145.359 274.62 146.379 274.62 147.359C274.62 147.699 274.34 147.959 274.02 147.959" fill="black"/>
<path d="M4.32 147.979C3.98 147.979 3.72 147.719 3.72 147.379C3.72 146.879 3.72 146.379 3.72 145.879C3.72 145.539 4 145.279 4.32 145.279C4.66 145.279 4.92 145.559 4.92 145.879C4.92 146.379 4.92 146.879 4.92 147.379C4.92 147.719 4.64 147.979 4.32 147.979Z" fill="black"/>
<path d="M140.72 1.55937C139.74 1.55937 138.74 1.55937 137.74 1.55937C137.42 1.55937 137.14 1.29938 137.14 0.959381C137.14 0.619381 137.4 0.359375 137.74 0.359375C138.74 0.359375 139.74 0.359375 140.74 0.359375C141.08 0.359375 141.34 0.639381 141.34 0.959381C141.34 1.29938 141.06 1.55937 140.74 1.55937M131.78 1.75937C131.46 1.75937 131.2 1.51937 131.18 1.19937C131.16 0.859371 131.42 0.579372 131.74 0.559372C132.74 0.499372 133.74 0.459373 134.74 0.419373C135.08 0.419373 135.34 0.659374 135.36 0.999374C135.36 1.31937 135.12 1.59937 134.78 1.61937C133.8 1.65937 132.8 1.69937 131.82 1.75937C131.82 1.75937 131.8 1.75937 131.78 1.75937ZM146.7 1.75937H146.66C145.68 1.69937 144.68 1.65937 143.7 1.61937C143.36 1.61937 143.1 1.31937 143.12 0.999374C143.12 0.659374 143.42 0.399373 143.74 0.419373C144.74 0.459373 145.74 0.499372 146.74 0.559372C147.08 0.579372 147.32 0.859371 147.3 1.19937C147.28 1.51937 147.02 1.75937 146.7 1.75937ZM125.82 2.23938C125.52 2.23938 125.26 2.01937 125.22 1.69937C125.18 1.37937 125.42 1.07937 125.76 1.03937C126.74 0.939368 127.76 0.839369 128.74 0.759369C129.08 0.739369 129.36 0.979377 129.38 1.29938C129.4 1.61938 129.16 1.91938 128.84 1.93938C127.86 2.01938 126.86 2.11938 125.88 2.21938C125.86 2.21938 125.84 2.21938 125.82 2.21938M152.64 2.21938C152.64 2.21938 152.6 2.21938 152.58 2.21938C151.6 2.11938 150.6 2.01938 149.62 1.93938C149.3 1.91938 149.04 1.61938 149.08 1.29938C149.1 0.979377 149.4 0.719369 149.72 0.759369C150.72 0.839369 151.72 0.939368 152.7 1.03937C153.02 1.07937 153.26 1.37937 153.24 1.69937C153.2 1.99937 152.94 2.23938 152.64 2.23938M119.9 2.99937C119.62 2.99937 119.36 2.77937 119.3 2.49937C119.24 2.17937 119.48 1.85938 119.8 1.81938C120.78 1.65938 121.78 1.51937 122.76 1.39937C123.08 1.35937 123.4 1.57937 123.44 1.91937C123.48 2.23937 123.26 2.53938 122.92 2.59938C121.94 2.71938 120.96 2.87938 119.98 3.01938C119.96 3.01938 119.92 3.01938 119.88 3.01938M158.54 3.01938C158.54 3.01938 158.48 3.01938 158.44 3.01938C157.46 2.85938 156.48 2.71938 155.5 2.59938C155.18 2.55938 154.94 2.25937 154.98 1.91937C155.02 1.59937 155.32 1.35937 155.66 1.39937C156.64 1.53937 157.64 1.67938 158.62 1.81938C158.94 1.87938 159.18 2.17937 159.12 2.49937C159.08 2.79937 158.82 2.99937 158.52 2.99937M113.98 4.03937C113.7 4.03937 113.46 3.83937 113.4 3.55937C113.34 3.23937 113.54 2.91937 113.86 2.85938C114.84 2.65937 115.82 2.45938 116.8 2.29938C117.12 2.23938 117.44 2.45937 117.5 2.77937C117.56 3.09937 117.34 3.41937 117.02 3.47937C116.04 3.65937 115.06 3.83937 114.1 4.03937C114.06 4.03937 114.02 4.03937 113.98 4.03937ZM164.4 4.05937C164.4 4.05937 164.32 4.05937 164.28 4.05937C163.32 3.85937 162.34 3.67937 161.36 3.49937C161.04 3.43937 160.82 3.13938 160.88 2.79938C160.94 2.47938 161.24 2.25938 161.58 2.31938C162.56 2.49938 163.56 2.69937 164.52 2.89937C164.84 2.95937 165.06 3.27938 164.98 3.59938C164.92 3.87938 164.68 4.07938 164.4 4.07938M108.16 5.39937C107.9 5.39937 107.64 5.21938 107.58 4.93938C107.5 4.61938 107.7 4.29938 108.02 4.21938C108.98 3.97938 109.96 3.73938 110.94 3.51938C111.26 3.43938 111.58 3.63938 111.66 3.95938C111.74 4.27938 111.54 4.59937 111.2 4.67937C110.24 4.89937 109.26 5.13938 108.32 5.37938C108.26 5.37938 108.22 5.39937 108.18 5.39937M170.26 5.43938C170.26 5.43938 170.16 5.43937 170.12 5.41937C169.16 5.17937 168.18 4.93938 167.22 4.71938C166.9 4.63938 166.7 4.31937 166.78 3.99937C166.86 3.67937 167.18 3.47937 167.5 3.53937C168.48 3.75937 169.46 3.99937 170.42 4.25937C170.74 4.33937 170.94 4.65937 170.86 4.97937C170.78 5.25937 170.54 5.43938 170.28 5.43938M102.46 7.01938C102.2 7.01938 101.96 6.85938 101.88 6.59938C101.78 6.27938 101.96 5.93937 102.28 5.85938C103.22 5.57937 104.2 5.27938 105.14 5.01938C105.46 4.91938 105.78 5.11938 105.88 5.43938C105.98 5.75938 105.78 6.09937 105.46 6.17937C104.52 6.43937 103.56 6.71938 102.62 7.01938C102.56 7.01938 102.5 7.03937 102.44 7.03937M176.02 7.07938C176.02 7.07938 175.9 7.07937 175.84 7.05937C174.9 6.75937 173.94 6.47938 172.98 6.21938C172.66 6.11938 172.48 5.79937 172.56 5.47937C172.64 5.15937 172.98 4.97937 173.3 5.05937C174.26 5.33937 175.22 5.61937 176.18 5.91937C176.5 6.01937 176.68 6.35938 176.58 6.65938C176.5 6.91938 176.26 7.07938 176 7.07938M96.78 8.89937C96.54 8.89937 96.3 8.73937 96.22 8.49937C96.1 8.17937 96.26 7.83938 96.58 7.73938C97.52 7.39938 98.46 7.07937 99.4 6.75937C99.72 6.65937 100.06 6.81937 100.16 7.13937C100.26 7.45937 100.1 7.79937 99.78 7.89937C98.84 8.19937 97.9 8.53938 96.98 8.85938C96.92 8.87937 96.84 8.89937 96.78 8.89937ZM181.68 8.95938C181.68 8.95938 181.54 8.95937 181.48 8.91937C180.56 8.57937 179.6 8.25938 178.66 7.93938C178.34 7.83938 178.18 7.49937 178.28 7.17937C178.38 6.85937 178.72 6.69938 179.04 6.79938C179.98 7.11938 180.94 7.43937 181.88 7.77937C182.18 7.89937 182.36 8.23937 182.24 8.53937C182.16 8.77937 181.92 8.93938 181.68 8.93938M91.22 11.0194C90.98 11.0194 90.76 10.8794 90.66 10.6594C90.54 10.3594 90.66 9.99938 90.98 9.87938C91.9 9.49938 92.84 9.11937 93.76 8.77937C94.06 8.65937 94.42 8.81937 94.54 9.11937C94.66 9.43937 94.5 9.77937 94.2 9.89937C93.28 10.2594 92.36 10.6194 91.44 10.9994C91.36 11.0394 91.28 11.0394 91.22 11.0394M187.26 11.1194C187.26 11.1194 187.1 11.1194 187.04 11.0794C186.12 10.6994 185.2 10.3194 184.28 9.97937C183.98 9.85937 183.82 9.51937 183.94 9.19937C184.06 8.89937 184.4 8.73938 184.72 8.85938C185.64 9.21938 186.58 9.59937 187.5 9.97937C187.8 10.0994 187.96 10.4594 187.82 10.7594C187.72 10.9994 187.5 11.1194 187.26 11.1194ZM85.78 13.4394C85.56 13.4394 85.34 13.3194 85.24 13.0994C85.1 12.7994 85.24 12.4394 85.54 12.2994C86.44 11.8794 87.36 11.4594 88.26 11.0594C88.56 10.9194 88.92 11.0594 89.04 11.3594C89.18 11.6594 89.04 12.0194 88.74 12.1594C87.84 12.5594 86.94 12.9594 86.04 13.3794C85.96 13.4194 85.88 13.4394 85.78 13.4394ZM192.74 13.5394C192.74 13.5394 192.56 13.5394 192.48 13.4794C191.58 13.0594 190.68 12.6394 189.78 12.2394C189.48 12.0994 189.34 11.7594 189.48 11.4394C189.62 11.1394 189.96 10.9994 190.26 11.1394C191.18 11.5394 192.08 11.9594 192.98 12.3794C193.28 12.5194 193.4 12.8794 193.26 13.1794C193.16 13.3994 192.94 13.5194 192.72 13.5194M80.42 16.0794C80.2 16.0794 80 15.9594 79.9 15.7594C79.74 15.4594 79.86 15.0994 80.16 14.9594C81.04 14.4994 81.94 14.0394 82.82 13.5994C83.12 13.4594 83.48 13.5794 83.62 13.8794C83.76 14.1794 83.64 14.5394 83.34 14.6794C82.46 15.1194 81.56 15.5794 80.7 16.0394C80.6 16.0794 80.52 16.0994 80.42 16.0994M198.06 16.1994C198.06 16.1994 197.86 16.1794 197.78 16.1194C196.9 15.6594 196.02 15.1994 195.14 14.7594C194.84 14.6194 194.72 14.2594 194.88 13.9594C195.04 13.6594 195.38 13.5394 195.68 13.6994C196.58 14.1394 197.46 14.5994 198.34 15.0594C198.64 15.2194 198.74 15.5794 198.58 15.8594C198.48 16.0594 198.26 16.1794 198.04 16.1794M75.18 18.9794C74.98 18.9794 74.78 18.8794 74.66 18.6794C74.5 18.3994 74.58 18.0194 74.88 17.8594C75.74 17.3594 76.62 16.8594 77.48 16.3794C77.78 16.2194 78.14 16.3194 78.3 16.6194C78.46 16.8994 78.36 17.2794 78.06 17.4394C77.2 17.9194 76.34 18.4194 75.48 18.9194C75.38 18.9794 75.28 18.9994 75.18 18.9994M203.24 19.1194C203.14 19.1194 203.04 19.0994 202.94 19.0394C202.1 18.5394 201.22 18.0394 200.36 17.5594C200.06 17.3994 199.96 17.0394 200.12 16.7394C200.28 16.4594 200.64 16.3394 200.94 16.4994C201.8 16.9794 202.68 17.4794 203.54 17.9794C203.82 18.1394 203.92 18.5194 203.76 18.7994C203.64 18.9994 203.46 19.0994 203.24 19.0994M70.08 22.1194C69.88 22.1194 69.7 22.0194 69.58 21.8394C69.4 21.5594 69.48 21.1994 69.76 21.0194C70.6 20.4794 71.46 19.9394 72.3 19.4194C72.58 19.2394 72.94 19.3394 73.12 19.6194C73.3 19.8994 73.2 20.2794 72.92 20.4394C72.08 20.9594 71.24 21.4994 70.4 22.0194C70.3 22.0794 70.18 22.1194 70.08 22.1194ZM208.3 22.2394C208.18 22.2394 208.08 22.1994 207.98 22.1394C207.16 21.5994 206.32 21.0594 205.48 20.5394C205.2 20.3594 205.12 19.9994 205.28 19.7194C205.46 19.4394 205.82 19.3594 206.1 19.5194C206.94 20.0394 207.8 20.5794 208.62 21.1194C208.9 21.2994 208.98 21.6794 208.8 21.9594C208.68 22.1394 208.5 22.2394 208.3 22.2394ZM65.14 25.4794C64.96 25.4794 64.76 25.3994 64.66 25.2194C64.46 24.9594 64.52 24.5794 64.8 24.3794C65.62 23.7994 66.44 23.2194 67.26 22.6594C67.54 22.4794 67.9 22.5394 68.1 22.8194C68.28 23.0994 68.22 23.4594 67.94 23.6594C67.12 24.2194 66.3 24.7794 65.5 25.3594C65.4 25.4394 65.28 25.4794 65.16 25.4794M213.26 25.5994C213.14 25.5994 213.02 25.5594 212.92 25.4794C212.12 24.8994 211.3 24.3394 210.48 23.7794C210.2 23.5994 210.14 23.2194 210.32 22.9394C210.5 22.6594 210.88 22.5994 211.16 22.7794C211.98 23.3394 212.8 23.9194 213.62 24.4994C213.88 24.6994 213.96 25.0594 213.76 25.3394C213.64 25.4994 213.46 25.5994 213.28 25.5994M60.4 29.0594C60.22 29.0594 60.04 28.9794 59.92 28.8194C59.72 28.5594 59.76 28.1794 60.02 27.9794C60.8 27.3594 61.6 26.7594 62.4 26.1594C62.66 25.9594 63.04 26.0194 63.24 26.2794C63.44 26.5394 63.38 26.9194 63.12 27.1194C62.34 27.6994 61.54 28.3194 60.76 28.9194C60.66 28.9994 60.52 29.0394 60.4 29.0394M218.06 29.1594C217.92 29.1594 217.8 29.1194 217.7 29.0394C216.92 28.4394 216.14 27.8194 215.34 27.2394C215.08 27.0394 215.02 26.6594 215.22 26.3994C215.42 26.1394 215.8 26.0794 216.06 26.2794C216.86 26.8794 217.66 27.4794 218.44 28.0994C218.7 28.2994 218.74 28.6794 218.54 28.9394C218.42 29.0994 218.24 29.1594 218.06 29.1594ZM55.78 32.8394C55.62 32.8394 55.44 32.7594 55.32 32.6394C55.1 32.3794 55.14 31.9994 55.38 31.7994C56.14 31.1594 56.92 30.4994 57.68 29.8794C57.94 29.6794 58.32 29.6994 58.52 29.9594C58.74 30.2194 58.7 30.5994 58.44 30.7994C57.68 31.4194 56.9 32.0594 56.16 32.7194C56.04 32.8194 55.92 32.8594 55.78 32.8594M222.66 32.9594C222.52 32.9594 222.38 32.9194 222.28 32.8194C221.54 32.1794 220.76 31.5394 220 30.9194C219.74 30.7194 219.7 30.3394 219.92 30.0794C220.12 29.8194 220.5 29.7794 220.76 29.9994C221.52 30.6394 222.3 31.2794 223.06 31.9194C223.32 32.1394 223.34 32.5194 223.12 32.7594C223 32.8994 222.84 32.9594 222.66 32.9594ZM51.32 36.8394C51.16 36.8394 51 36.7794 50.88 36.6394C50.66 36.3994 50.66 36.0194 50.9 35.7994C51.64 35.1194 52.38 34.4394 53.12 33.7794C53.36 33.5594 53.74 33.5794 53.96 33.8194C54.18 34.0594 54.16 34.4394 53.92 34.6594C53.18 35.3194 52.44 35.9994 51.72 36.6794C51.6 36.7794 51.46 36.8394 51.32 36.8394ZM227.1 36.9394C226.96 36.9394 226.8 36.8794 226.7 36.7794C225.98 36.0994 225.24 35.4394 224.52 34.7794C224.28 34.5594 224.26 34.1794 224.48 33.9394C224.7 33.6994 225.08 33.6794 225.32 33.8994C226.06 34.5594 226.8 35.2394 227.52 35.9194C227.76 36.1394 227.78 36.5194 227.56 36.7594C227.44 36.8794 227.28 36.9394 227.12 36.9394M47.04 41.0194C46.88 41.0194 46.74 40.9594 46.62 40.8394C46.38 40.5994 46.38 40.2194 46.62 39.9994C47.32 39.2794 48.04 38.5794 48.76 37.8794C49 37.6394 49.38 37.6594 49.6 37.8794C49.84 38.1194 49.82 38.4994 49.6 38.7194C48.9 39.3994 48.18 40.1194 47.48 40.8194C47.36 40.9394 47.2 40.9994 47.06 40.9994M231.4 41.0794C231.24 41.0794 231.1 41.0194 230.98 40.8994C230.28 40.1994 229.58 39.4994 228.88 38.7994C228.64 38.5594 228.64 38.1994 228.88 37.9594C229.12 37.7194 229.5 37.7194 229.72 37.9594C230.42 38.6594 231.14 39.3594 231.84 40.0794C232.08 40.3194 232.06 40.6994 231.84 40.9194C231.72 41.0394 231.58 41.0994 231.42 41.0994M42.96 45.3794C42.82 45.3794 42.68 45.3394 42.56 45.2194C42.32 44.9994 42.3 44.6194 42.52 44.3794C43.18 43.6394 43.88 42.8994 44.56 42.1794C44.78 41.9394 45.16 41.9194 45.4 42.1594C45.64 42.3794 45.66 42.7594 45.42 42.9994C44.74 43.7194 44.06 44.4594 43.4 45.1794C43.28 45.3194 43.12 45.3794 42.96 45.3794ZM235.5 45.4394C235.34 45.4394 235.18 45.3794 235.06 45.2394C234.4 44.4994 233.72 43.7794 233.04 43.0594C232.82 42.8194 232.82 42.4394 233.06 42.2194C233.3 41.9994 233.68 41.9994 233.9 42.2394C234.58 42.9594 235.26 43.6994 235.92 44.4394C236.14 44.6794 236.12 45.0594 235.88 45.2794C235.76 45.3794 235.62 45.4394 235.48 45.4394M39.02 49.9194C38.88 49.9194 38.74 49.8794 38.64 49.7794C38.38 49.5594 38.36 49.1994 38.56 48.9394C39.2 48.1594 39.86 47.3994 40.5 46.6394C40.72 46.3994 41.1 46.3594 41.34 46.5794C41.58 46.7994 41.62 47.1794 41.4 47.4194C40.76 48.1594 40.1 48.9394 39.48 49.6994C39.36 49.8394 39.18 49.9194 39.02 49.9194ZM239.38 49.9394C239.2 49.9394 239.04 49.8594 238.92 49.7194C238.3 48.9594 237.64 48.1994 237 47.4594C236.78 47.2194 236.8 46.8394 237.06 46.6194C237.3 46.3994 237.68 46.4194 237.9 46.6794C238.54 47.4394 239.2 48.1994 239.84 48.9594C240.06 49.2194 240.02 49.5994 239.76 49.7994C239.64 49.8994 239.52 49.9394 239.38 49.9394ZM243.08 54.5994C242.9 54.5994 242.72 54.5194 242.6 54.3594C242 53.5794 241.38 52.7994 240.78 52.0194C240.58 51.7594 240.62 51.3794 240.88 51.1794C241.14 50.9794 241.52 51.0194 241.72 51.2794C242.34 52.0594 242.96 52.8394 243.56 53.6394C243.76 53.8994 243.72 54.2794 243.44 54.4794C243.34 54.5594 243.2 54.5994 243.08 54.5994ZM35.28 54.5994C35.16 54.5994 35.02 54.5594 34.92 54.4794C34.66 54.2794 34.6 53.8994 34.8 53.6394C35.4 52.8394 36.02 52.0394 36.66 51.2594C36.86 50.9994 37.24 50.9594 37.5 51.1594C37.76 51.3594 37.8 51.7394 37.6 51.9994C36.98 52.7794 36.36 53.5594 35.76 54.3594C35.64 54.5194 35.46 54.5994 35.28 54.5994ZM246.58 59.3994C246.4 59.3994 246.2 59.3194 246.1 59.1394C245.54 58.3394 244.96 57.5194 244.36 56.7194C244.16 56.4594 244.22 56.0794 244.5 55.8794C244.76 55.6794 245.14 55.7394 245.34 56.0194C245.92 56.8194 246.52 57.6394 247.08 58.4594C247.28 58.7394 247.2 59.0994 246.94 59.2994C246.84 59.3794 246.72 59.3994 246.6 59.3994M31.76 59.4394C31.64 59.4394 31.52 59.3994 31.42 59.3394C31.14 59.1394 31.08 58.7794 31.28 58.4994C31.86 57.6794 32.44 56.8594 33.04 56.0594C33.24 55.7994 33.62 55.7394 33.88 55.9194C34.14 56.1194 34.2 56.4994 34.02 56.7594C33.44 57.5594 32.86 58.3794 32.28 59.1794C32.16 59.3394 31.98 59.4394 31.78 59.4394M249.96 64.3794C249.76 64.3794 249.56 64.2794 249.46 64.0994C248.92 63.2594 248.38 62.4394 247.82 61.6194C247.64 61.3394 247.72 60.9794 247.98 60.7994C248.26 60.6194 248.62 60.6794 248.82 60.9594C249.38 61.7794 249.92 62.6194 250.46 63.4594C250.64 63.7394 250.56 64.0994 250.28 64.2794C250.18 64.3394 250.06 64.3794 249.96 64.3794ZM28.46 64.4394C28.36 64.4394 28.24 64.3994 28.14 64.3394C27.86 64.1594 27.78 63.7794 27.96 63.5194C28.5 62.6794 29.06 61.8394 29.6 60.9994C29.78 60.7194 30.16 60.6594 30.44 60.8394C30.72 61.0194 30.78 61.3994 30.6 61.6794C30.04 62.4994 29.5 63.3394 28.96 64.1794C28.84 64.3594 28.66 64.4594 28.46 64.4594M253.1 69.4994C252.9 69.4994 252.7 69.3994 252.58 69.1994C252.08 68.3594 251.56 67.4994 251.06 66.6594C250.88 66.3794 250.98 65.9994 251.26 65.8394C251.54 65.6594 251.9 65.7594 252.08 66.0394C252.6 66.8794 253.12 67.7594 253.62 68.6194C253.78 68.8994 253.7 69.2794 253.4 69.4394C253.3 69.4994 253.2 69.5194 253.1 69.5194M25.34 69.5794C25.24 69.5794 25.14 69.5594 25.04 69.4994C24.76 69.3394 24.66 68.9594 24.82 68.6794C25.32 67.8194 25.84 66.9594 26.36 66.0994C26.54 65.8194 26.9 65.7394 27.18 65.8994C27.46 66.0794 27.54 66.4394 27.38 66.7194C26.86 67.5594 26.34 68.4194 25.86 69.2794C25.74 69.4794 25.54 69.5794 25.34 69.5794ZM256.02 74.7194C255.8 74.7194 255.6 74.5994 255.5 74.3994C255.04 73.5394 254.56 72.6394 254.08 71.7994C253.92 71.5194 254.02 71.1394 254.3 70.9794C254.58 70.8194 254.96 70.9194 255.12 71.2194C255.6 72.0794 256.08 72.9794 256.56 73.8594C256.72 74.1594 256.6 74.5194 256.32 74.6794C256.24 74.7194 256.14 74.7394 256.04 74.7394M22.46 74.7994C22.46 74.7994 22.26 74.7794 22.18 74.7194C21.88 74.5594 21.78 74.1994 21.94 73.8994C22.4 73.0194 22.9 72.1394 23.38 71.2594C23.54 70.9794 23.9 70.8594 24.2 71.0394C24.48 71.1994 24.6 71.5594 24.42 71.8594C23.94 72.7194 23.46 73.5994 23 74.4794C22.9 74.6794 22.68 74.7994 22.46 74.7994ZM258.76 80.0594C258.54 80.0594 258.32 79.9394 258.22 79.7194C257.8 78.8194 257.34 77.9394 256.9 77.0594C256.74 76.7594 256.86 76.3994 257.16 76.2594C257.46 76.1194 257.82 76.2194 257.96 76.5194C258.42 77.3994 258.86 78.2994 259.3 79.1994C259.44 79.4994 259.3 79.8594 259.02 79.9994C258.94 80.0394 258.84 80.0594 258.76 80.0594ZM19.76 80.1194C19.76 80.1194 19.58 80.0994 19.5 80.0594C19.2 79.9194 19.08 79.5594 19.22 79.2594C19.66 78.3594 20.1 77.4594 20.56 76.5794C20.7 76.2794 21.08 76.1594 21.36 76.3194C21.66 76.4794 21.78 76.8394 21.62 77.1194C21.18 77.9994 20.72 78.8994 20.3 79.7794C20.2 79.9994 19.98 80.1194 19.76 80.1194ZM261.24 85.4794C261.02 85.4794 260.8 85.3394 260.7 85.1194C260.3 84.2194 259.9 83.2994 259.48 82.3994C259.34 82.0994 259.48 81.7394 259.78 81.5994C260.08 81.4594 260.44 81.5994 260.58 81.8994C261 82.7994 261.4 83.7194 261.8 84.6394C261.94 84.9394 261.8 85.2994 261.5 85.4394C261.42 85.4794 261.34 85.4794 261.26 85.4794M17.28 85.5394C17.28 85.5394 17.12 85.5394 17.04 85.4994C16.74 85.3594 16.6 85.0194 16.72 84.7194C17.12 83.7994 17.52 82.8794 17.94 81.9794C18.08 81.6794 18.44 81.5394 18.74 81.6794C19.04 81.8194 19.18 82.1794 19.04 82.4794C18.62 83.3794 18.22 84.2994 17.82 85.1994C17.72 85.4194 17.5 85.5594 17.26 85.5594M263.52 91.0194C263.28 91.0194 263.06 90.8794 262.96 90.6394C262.6 89.7194 262.24 88.7994 261.86 87.8794C261.74 87.5794 261.88 87.2194 262.18 87.0994C262.48 86.9794 262.84 87.0994 262.96 87.4194C263.34 88.3394 263.72 89.2794 264.08 90.1994C264.2 90.4994 264.04 90.8594 263.74 90.9794C263.66 90.9994 263.6 91.0194 263.52 91.0194ZM15 91.0794C15 91.0794 14.86 91.0794 14.78 91.0394C14.48 90.9194 14.32 90.5794 14.44 90.2594C14.8 89.3394 15.18 88.3994 15.56 87.4794C15.68 87.1794 16.04 87.0194 16.34 87.1594C16.64 87.2794 16.8 87.6394 16.66 87.9394C16.28 88.8594 15.92 89.7794 15.56 90.6994C15.46 90.9394 15.24 91.0794 15 91.0794ZM265.58 96.6194C265.34 96.6194 265.1 96.4594 265.02 96.2194C264.7 95.2794 264.36 94.3394 264.02 93.4194C263.9 93.0994 264.06 92.7594 264.38 92.6394C264.68 92.5194 265.04 92.6794 265.14 92.9994C265.48 93.9394 265.82 94.8794 266.14 95.8194C266.24 96.1394 266.08 96.4794 265.78 96.5794C265.72 96.5994 265.64 96.6194 265.58 96.6194ZM12.94 96.6794C12.94 96.6794 12.8 96.6794 12.74 96.6394C12.42 96.5394 12.26 96.1994 12.36 95.8794C12.68 94.9394 13.02 93.9794 13.36 93.0594C13.48 92.7394 13.82 92.5994 14.12 92.6994C14.44 92.8194 14.58 93.1594 14.48 93.4594C14.14 94.3794 13.8 95.3194 13.48 96.2594C13.4 96.4994 13.16 96.6594 12.92 96.6594M267.4 102.279C267.14 102.279 266.9 102.119 266.82 101.859C266.54 100.919 266.24 99.9594 265.94 99.0194C265.84 98.6994 266 98.3594 266.32 98.2594C266.64 98.1594 266.98 98.3394 267.08 98.6394C267.38 99.5794 267.68 100.539 267.98 101.499C268.08 101.819 267.9 102.159 267.58 102.239C267.52 102.239 267.46 102.259 267.4 102.259M11.08 102.319C11.08 102.319 10.96 102.319 10.9 102.299C10.58 102.199 10.4 101.859 10.5 101.559C10.8 100.599 11.1 99.6394 11.4 98.6994C11.5 98.3794 11.84 98.2194 12.16 98.3194C12.48 98.4194 12.64 98.7594 12.54 99.0794C12.24 100.019 11.94 100.979 11.66 101.919C11.58 102.179 11.34 102.339 11.08 102.339M269.02 108.019C268.76 108.019 268.5 107.839 268.44 107.579C268.2 106.619 267.92 105.659 267.66 104.699C267.56 104.379 267.76 104.039 268.08 103.959C268.4 103.879 268.72 104.059 268.82 104.379C269.08 105.339 269.36 106.299 269.6 107.279C269.68 107.599 269.5 107.919 269.18 108.019C269.14 108.019 269.08 108.039 269.02 108.039M9.46001 108.099C9.46001 108.099 9.36001 108.099 9.30001 108.099C8.98001 108.019 8.78001 107.679 8.88001 107.359C9.12001 106.399 9.40001 105.419 9.66001 104.459C9.74001 104.139 10.08 103.959 10.4 104.039C10.72 104.119 10.9 104.459 10.82 104.779C10.56 105.739 10.3 106.699 10.04 107.659C9.96001 107.939 9.72001 108.099 9.46001 108.099ZM270.4 113.839C270.12 113.839 269.88 113.659 269.82 113.379C269.6 112.419 269.38 111.439 269.16 110.479C269.08 110.159 269.28 109.839 269.6 109.759C269.92 109.679 270.24 109.879 270.32 110.199C270.56 111.159 270.78 112.139 271 113.119C271.08 113.439 270.86 113.759 270.54 113.839C270.5 113.839 270.46 113.839 270.42 113.839M8.08001 113.919C8.08001 113.919 8.00001 113.919 7.94001 113.919C7.62001 113.859 7.42001 113.519 7.48001 113.199C7.70001 112.219 7.92001 111.239 8.16001 110.279C8.24001 109.959 8.56001 109.759 8.88001 109.839C9.20001 109.919 9.40001 110.239 9.32001 110.559C9.08001 111.519 8.86001 112.499 8.66001 113.459C8.60001 113.739 8.36001 113.919 8.08001 113.919ZM271.6 119.699C271.32 119.699 271.06 119.499 271 119.199C270.82 118.219 270.64 117.239 270.44 116.279C270.38 115.959 270.58 115.639 270.92 115.579C271.24 115.519 271.56 115.719 271.62 116.039C271.82 117.019 272 117.999 272.18 118.979C272.24 119.299 272.02 119.619 271.7 119.679C271.66 119.679 271.62 119.679 271.6 119.679M6.92001 119.759C6.92001 119.759 6.84001 119.759 6.82001 119.759C6.50001 119.699 6.28001 119.399 6.34001 119.059C6.52001 118.079 6.70001 117.099 6.90001 116.119C6.96001 115.799 7.28001 115.579 7.60001 115.639C7.92001 115.699 8.14001 116.019 8.08001 116.339C7.88001 117.299 7.70001 118.279 7.52001 119.259C7.46001 119.539 7.22001 119.759 6.92001 119.759ZM272.54 125.579C272.24 125.579 271.98 125.359 271.94 125.059C271.8 124.079 271.66 123.099 271.5 122.119C271.44 121.799 271.66 121.479 272 121.439C272.32 121.379 272.64 121.599 272.68 121.939C272.84 122.919 273 123.919 273.12 124.899C273.16 125.219 272.94 125.539 272.6 125.579C272.58 125.579 272.54 125.579 272.52 125.579M5.94001 125.659C5.94001 125.659 5.88001 125.659 5.86001 125.659C5.54001 125.619 5.30001 125.319 5.34001 124.979C5.48001 123.999 5.62001 122.999 5.78001 122.019C5.84001 121.699 6.14001 121.459 6.46001 121.519C6.78001 121.579 7.00001 121.879 6.96001 122.199C6.80001 123.179 6.66001 124.159 6.52001 125.139C6.48001 125.439 6.22001 125.659 5.92001 125.659M273.22 131.519C272.92 131.519 272.66 131.299 272.62 130.979C272.52 129.999 272.4 128.999 272.28 128.019C272.24 127.699 272.48 127.399 272.8 127.359C273.12 127.319 273.42 127.559 273.46 127.879C273.58 128.859 273.7 129.879 273.8 130.859C273.84 131.179 273.6 131.479 273.26 131.519C273.24 131.519 273.22 131.519 273.2 131.519M5.18001 131.599C5.18001 131.599 5.14001 131.599 5.12001 131.599C4.78001 131.559 4.54001 131.279 4.58001 130.939C4.68001 129.939 4.80001 128.939 4.92001 127.959C4.96001 127.639 5.26001 127.399 5.58001 127.439C5.90001 127.479 6.14001 127.779 6.10001 128.099C5.98001 129.079 5.88001 130.079 5.76001 131.059C5.72001 131.359 5.46001 131.599 5.16001 131.599M273.68 137.479C273.36 137.479 273.1 137.239 273.08 136.919C273.02 135.939 272.94 134.939 272.86 133.959C272.84 133.619 273.08 133.339 273.4 133.319C273.74 133.299 274.02 133.539 274.04 133.859C274.12 134.859 274.2 135.859 274.26 136.839C274.28 137.159 274.04 137.459 273.7 137.479C273.7 137.479 273.68 137.479 273.66 137.479M4.64001 137.559C4.64001 137.559 4.62001 137.559 4.60001 137.559C4.26001 137.539 4.02001 137.259 4.04001 136.919C4.10001 135.919 4.18001 134.919 4.26001 133.919C4.28001 133.599 4.58001 133.339 4.90001 133.379C5.24001 133.399 5.48001 133.699 5.44001 134.019C5.36001 134.999 5.28001 135.999 5.22001 136.979C5.20001 137.299 4.94001 137.539 4.62001 137.539M273.92 143.439C273.6 143.439 273.34 143.179 273.32 142.859C273.3 141.879 273.26 140.879 273.2 139.899C273.2 139.579 273.44 139.299 273.78 139.279C274.12 139.279 274.38 139.519 274.4 139.839C274.44 140.839 274.48 141.839 274.52 142.839C274.52 143.179 274.26 143.439 273.94 143.459M4.36001 143.539C4.02001 143.539 3.76001 143.259 3.78001 142.919C3.80001 141.919 3.84001 140.919 3.90001 139.919C3.90001 139.599 4.20001 139.339 4.52001 139.359C4.86001 139.359 5.10001 139.659 5.10001 139.979C5.06001 140.959 5.02001 141.959 5.00001 142.959C5.00001 143.279 4.72001 143.539 4.40001 143.539" fill="black"/>
<path d="M274.02 147.979C273.68 147.979 273.42 147.719 273.42 147.379C273.42 146.879 273.42 146.379 273.42 145.879C273.42 145.539 273.68 145.279 274.02 145.279C274.34 145.279 274.62 145.539 274.62 145.879C274.62 146.379 274.62 146.879 274.62 147.379C274.62 147.719 274.34 147.979 274.02 147.979Z" fill="black"/>
<path d="M136.88 168.861C136.88 167.601 137.9 166.561 139.18 166.561C140.46 166.561 141.48 167.581 141.48 168.861C141.48 170.141 140.46 171.161 139.18 171.161C137.9 171.161 136.88 170.141 136.88 168.861Z" fill="black"/>
<path d="M129.26 171.019C128.82 169.839 129.44 168.519 130.64 168.079C131.84 167.639 133.14 168.259 133.58 169.439C134.02 170.639 133.4 171.939 132.2 172.379C131.02 172.819 129.7 172.199 129.26 170.999" fill="black"/>
<path d="M122.84 175.64C122.02 174.68 122.16 173.22 123.12 172.4C124.1 171.58 125.54 171.72 126.36 172.68C127.18 173.66 127.04 175.1 126.08 175.92C125.1 176.74 123.66 176.6 122.84 175.64Z" fill="black"/>
<path d="M118.38 182.199C117.28 181.559 116.9 180.159 117.54 179.059C118.18 177.959 119.58 177.579 120.68 178.219C121.78 178.859 122.16 180.259 121.52 181.359C120.88 182.459 119.48 182.839 118.38 182.199Z" fill="black"/>
<path d="M116.44 189.86C115.2 189.64 114.36 188.46 114.58 187.2C114.8 185.96 116 185.12 117.24 185.34C118.48 185.56 119.32 186.76 119.1 188C118.88 189.24 117.7 190.08 116.44 189.86Z" fill="black"/>
<path d="M117.24 197.741C116 197.961 114.8 197.121 114.58 195.881C114.36 194.641 115.2 193.441 116.44 193.221C117.68 193.001 118.88 193.841 119.1 195.081C119.32 196.321 118.48 197.521 117.24 197.741Z" fill="black"/>
<path d="M120.68 204.879C119.58 205.519 118.18 205.139 117.54 204.039C116.9 202.939 117.28 201.539 118.38 200.899C119.48 200.259 120.88 200.639 121.52 201.739C122.16 202.839 121.78 204.239 120.68 204.879Z" fill="black"/>
<path d="M126.36 210.4C125.54 211.38 124.1 211.5 123.12 210.68C122.16 209.86 122.02 208.42 122.84 207.44C123.66 206.48 125.1 206.34 126.08 207.16C127.06 207.98 127.18 209.42 126.36 210.4Z" fill="black"/>
<path d="M133.58 213.64C133.14 214.84 131.82 215.44 130.64 215.02C129.44 214.58 128.84 213.26 129.26 212.08C129.7 210.9 131.02 210.28 132.2 210.72C133.4 211.16 134 212.48 133.58 213.66" fill="black"/>
<path d="M141.46 214.22C141.46 215.48 140.44 216.52 139.16 216.52C137.88 216.52 136.86 215.5 136.86 214.22C136.86 212.94 137.88 211.92 139.16 211.92C140.44 211.92 141.46 212.94 141.46 214.22Z" fill="black"/>
<path d="M149.08 212.08C149.52 213.28 148.9 214.58 147.7 215.02C146.5 215.46 145.2 214.84 144.76 213.66C144.32 212.46 144.94 211.16 146.14 210.72C147.34 210.28 148.64 210.9 149.08 212.1" fill="black"/>
<path d="M155.52 207.44C156.34 208.42 156.2 209.86 155.24 210.68C154.26 211.5 152.82 211.36 152 210.4C151.18 209.42 151.32 207.98 152.28 207.16C153.26 206.34 154.7 206.48 155.52 207.44Z" fill="black"/>
<path d="M159.96 200.899C161.06 201.539 161.44 202.939 160.8 204.039C160.16 205.139 158.76 205.519 157.66 204.879C156.56 204.239 156.18 202.839 156.82 201.739C157.46 200.639 158.86 200.259 159.96 200.899Z" fill="black"/>
<path d="M161.92 193.221C163.16 193.441 164 194.641 163.78 195.881C163.56 197.121 162.36 197.961 161.12 197.741C159.88 197.521 159.04 196.321 159.26 195.081C159.48 193.841 160.66 193.001 161.92 193.221Z" fill="black"/>
<path d="M161.12 185.34C162.36 185.12 163.56 185.96 163.78 187.2C164 188.44 163.16 189.64 161.92 189.86C160.68 190.08 159.48 189.24 159.26 188C159.04 186.76 159.88 185.56 161.12 185.34Z" fill="black"/>
<path d="M157.68 178.219C158.78 177.579 160.18 177.959 160.82 179.059C161.46 180.159 161.08 181.559 159.98 182.199C158.88 182.839 157.48 182.459 156.84 181.359C156.2 180.259 156.58 178.859 157.68 178.219Z" fill="black"/>
<path d="M152 172.7C152.82 171.74 154.26 171.6 155.24 172.42C156.2 173.24 156.34 174.68 155.52 175.66C154.7 176.62 153.26 176.76 152.28 175.94C151.3 175.12 151.18 173.68 152 172.7Z" fill="black"/>
<path d="M144.78 169.439C145.22 168.259 146.54 167.639 147.72 168.079C148.92 168.519 149.52 169.819 149.1 171.019C148.66 172.199 147.34 172.819 146.16 172.379C144.96 171.939 144.36 170.619 144.78 169.439Z" fill="black"/>
<path d="M1.28 174.339L4.32 179.719L7.36 174.339L4.32 168.779L1.28 174.339ZM4.32 181.539C4.1 181.539 3.9 181.419 3.8 181.239L0.0800049 174.659C-0.0199951 174.479 -0.0199951 174.259 0.0800049 174.079L3.8 167.259C3.9 167.059 4.1 166.939 4.32 166.939C4.54 166.939 4.74 167.059 4.84 167.259L8.56001 174.079C8.66001 174.259 8.66001 174.479 8.56001 174.659L4.84 181.239C4.74 181.419 4.54 181.539 4.32 181.539Z" fill="black"/>
<path d="M2.12 193.341L4.32 197.241L6.52 193.341L4.32 189.321L2.12 193.341ZM4.32 199.041C4.1 199.041 3.9 198.921 3.8 198.741L0.920001 193.641C0.820001 193.461 0.820001 193.241 0.920001 193.061L3.8 187.781C3.9 187.581 4.1 187.461 4.32 187.461C4.54 187.461 4.74 187.581 4.84 187.781L7.72 193.061C7.82 193.241 7.82 193.461 7.72 193.641L4.84 198.741C4.74 198.921 4.54 199.041 4.32 199.041Z" fill="black"/>
<path d="M2.12 215.601L4.32 219.501L6.52 215.601L4.32 211.581L2.12 215.601ZM4.32 221.301C4.1 221.301 3.9 221.181 3.8 221.001L0.920001 215.901C0.820001 215.721 0.820001 215.501 0.920001 215.321L3.8 210.041C3.9 209.841 4.1 209.721 4.32 209.721C4.54 209.721 4.74 209.841 4.84 210.041L7.72 215.321C7.82 215.501 7.82 215.721 7.72 215.901L4.84 221.001C4.74 221.181 4.54 221.301 4.32 221.301Z" fill="black"/>
<path d="M4.32 211.739C3.98 211.739 3.72 211.479 3.72 211.139V198.459C3.72 198.139 4 197.859 4.32 197.859C4.64 197.859 4.92 198.119 4.92 198.459V211.139C4.92 211.479 4.64 211.739 4.32 211.739Z" fill="black"/>
<path d="M4.32 188.66C3.98 188.66 3.72 188.4 3.72 188.06V180.92C3.72 180.58 4 180.32 4.32 180.32C4.64 180.32 4.92 180.58 4.92 180.92V188.06C4.92 188.4 4.64 188.66 4.32 188.66Z" fill="black"/>
<path d="M4.32 168.119C3.98 168.119 3.72 167.859 3.72 167.519V161.379C3.72 161.039 4 160.779 4.32 160.779C4.64 160.779 4.92 161.039 4.92 161.379V167.519C4.92 167.859 4.64 168.119 4.32 168.119Z" fill="black"/>
<path d="M274.02 156.719C273.16 158.239 272.18 160.239 272.18 160.939C272.18 161.959 273 162.779 274.02 162.779C275.04 162.779 275.86 161.959 275.86 160.939C275.86 160.219 274.88 158.239 274.02 156.719ZM274.02 163.979C272.34 163.979 270.98 162.619 270.98 160.939C270.98 159.499 273.08 155.919 273.5 155.219C273.6 155.039 273.8 154.939 274.02 154.939C274.24 154.939 274.42 155.039 274.54 155.219C274.96 155.919 277.06 159.499 277.06 160.939C277.06 162.619 275.7 163.979 274.02 163.979Z" fill="black"/>
<path d="M274.02 227.761C273.42 227.761 272.92 228.241 272.92 228.861C272.92 229.481 273.4 229.961 274.02 229.961C274.64 229.961 275.12 229.481 275.12 228.861C275.12 228.241 274.64 227.761 274.02 227.761ZM274.02 231.141C272.76 231.141 271.72 230.121 271.72 228.861C271.72 227.601 272.74 226.561 274.02 226.561C275.3 226.561 276.3 227.581 276.3 228.861C276.3 230.141 275.28 231.141 274.02 231.141Z" fill="black"/>
<path d="M274.02 236.04C273.42 236.04 272.92 236.52 272.92 237.14C272.92 237.76 273.4 238.24 274.02 238.24C274.64 238.24 275.12 237.76 275.12 237.14C275.12 236.52 274.64 236.04 274.02 236.04ZM274.02 239.42C272.76 239.42 271.72 238.4 271.72 237.14C271.72 235.88 272.74 234.84 274.02 234.84C275.3 234.84 276.3 235.86 276.3 237.14C276.3 238.42 275.28 239.42 274.02 239.42Z" fill="black"/>
<path d="M270.98 176.339L274.02 181.719L277.06 176.339L274.02 170.779L270.98 176.339ZM274.02 183.539C273.8 183.539 273.6 183.419 273.5 183.239L269.78 176.659C269.68 176.479 269.68 176.259 269.78 176.079L273.5 169.259C273.6 169.059 273.8 168.939 274.02 168.939C274.24 168.939 274.44 169.059 274.54 169.259L278.26 176.079C278.36 176.259 278.36 176.479 278.26 176.659L274.54 183.239C274.44 183.419 274.24 183.539 274.02 183.539Z" fill="black"/>
<path d="M271.82 195.341L274.02 199.241L276.22 195.341L274.02 191.321L271.82 195.341ZM274.02 201.041C273.8 201.041 273.6 200.921 273.5 200.741L270.62 195.641C270.52 195.461 270.52 195.241 270.62 195.061L273.5 189.781C273.6 189.581 273.8 189.461 274.02 189.461C274.24 189.461 274.44 189.581 274.54 189.781L277.42 195.061C277.52 195.241 277.52 195.461 277.42 195.641L274.54 200.741C274.44 200.921 274.24 201.041 274.02 201.041Z" fill="black"/>
<path d="M271.82 217.601L274.02 221.501L276.22 217.601L274.02 213.581L271.82 217.601ZM274.02 223.301C273.8 223.301 273.6 223.181 273.5 223.001L270.62 217.901C270.52 217.721 270.52 217.501 270.62 217.321L273.5 212.041C273.6 211.841 273.8 211.721 274.02 211.721C274.24 211.721 274.44 211.841 274.54 212.041L277.42 217.321C277.52 217.501 277.52 217.721 277.42 217.901L274.54 223.001C274.44 223.181 274.24 223.301 274.02 223.301Z" fill="black"/>
<path d="M274.02 213.739C273.68 213.739 273.42 213.479 273.42 213.139V200.459C273.42 200.139 273.7 199.859 274.02 199.859C274.34 199.859 274.62 200.119 274.62 200.459V213.139C274.62 213.479 274.34 213.739 274.02 213.739Z" fill="black"/>
<path d="M274.02 190.66C273.68 190.66 273.42 190.4 273.42 190.06V182.92C273.42 182.58 273.7 182.32 274.02 182.32C274.34 182.32 274.62 182.58 274.62 182.92V190.06C274.62 190.4 274.34 190.66 274.02 190.66Z" fill="black"/>
<path d="M274.02 170.119C273.68 170.119 273.42 169.859 273.42 169.519V163.379C273.42 163.039 273.7 162.779 274.02 162.779C274.34 162.779 274.62 163.039 274.62 163.379V169.519C274.62 169.859 274.34 170.119 274.02 170.119Z" fill="black"/>
</svg>
