<svg width="244" height="458" viewBox="0 0 244 458" fill="none" xmlns="http://www.w3.org/2000/svg">
<path d="M203.82 180.14C203.48 180.14 203.22 179.88 203.22 179.54V118C203.22 117.66 203.5 117.4 203.82 117.4C204.14 117.4 204.42 117.66 204.42 118V179.54C204.42 179.88 204.14 180.14 203.82 180.14Z" fill="black"/>
<path d="M203.82 110.481C202.1 110.481 200.68 111.881 200.68 113.621C200.68 115.361 202.08 116.741 203.82 116.741C205.56 116.741 206.94 115.341 206.94 113.621C206.94 111.901 205.54 110.481 203.82 110.481ZM203.82 117.941C201.44 117.941 199.5 116.001 199.5 113.621C199.5 111.241 201.44 109.301 203.82 109.301C206.2 109.301 208.14 111.241 208.14 113.621C208.14 116.001 206.2 117.941 203.82 117.941Z" fill="black"/>
<path d="M203.98 268.06C190.44 268.06 179.42 257.04 179.42 243.5C179.42 243.16 179.68 242.9 180.02 242.9C180.36 242.9 180.62 243.16 180.62 243.5C180.62 256.38 191.1 266.86 204 266.86C216.9 266.86 227.36 256.38 227.36 243.5C227.36 243.16 227.62 242.9 227.96 242.9C228.3 242.9 228.56 243.16 228.56 243.5C228.56 257.04 217.54 268.06 204 268.06" fill="black"/>
<path d="M204 244.1C193.46 244.1 183.54 243.68 176.06 242.92C165.42 241.84 163.98 240.58 163.98 239.5C163.98 238.66 164.9 238.04 167.08 237.48C168.8 237.02 171.28 236.62 174.46 236.26C180.84 235.54 189.56 235.06 199.04 234.94C199.36 234.94 199.64 235.2 199.64 235.52C199.64 235.86 199.38 236.12 199.04 236.12C189.98 236.24 181.54 236.68 175.28 237.34C167.04 238.24 165.5 239.22 165.22 239.48C165.5 239.76 167.24 240.84 176.92 241.78C184.26 242.48 193.88 242.88 204 242.88C214.12 242.88 223.74 242.5 231.08 241.78C240.76 240.84 242.48 239.76 242.78 239.48C242.5 239.22 240.94 238.22 232.6 237.34C226.26 236.66 217.72 236.22 208.56 236.12C208.22 236.12 207.96 235.84 207.96 235.52C207.96 235.2 208.24 234.92 208.56 234.92C218.12 235.04 226.94 235.5 233.4 236.22C236.6 236.58 239.12 237 240.86 237.44C243.06 238.02 244 238.62 244 239.48C244 240.56 242.56 241.82 231.92 242.9C224.46 243.66 214.54 244.08 203.98 244.08" fill="black"/>
<path d="M206.02 124.34C206.02 124.34 205.86 124.34 205.78 124.3C205.16 124.04 204.5 123.9 203.82 123.9C203.54 123.9 203.26 123.92 202.98 123.96C202.66 124.02 202.34 123.8 202.28 123.46C202.22 123.14 202.44 122.82 202.76 122.76C203.1 122.7 203.46 122.68 203.8 122.68C204.64 122.68 205.46 122.84 206.22 123.18C206.52 123.32 206.66 123.66 206.54 123.96C206.44 124.18 206.22 124.32 206 124.32M198.54 127.66C198.54 127.66 198.42 127.66 198.34 127.62C198.02 127.52 197.86 127.18 197.96 126.86C198.34 125.74 199.04 124.74 199.96 124C200.22 123.8 200.6 123.84 200.8 124.1C201 124.36 200.96 124.74 200.7 124.94C199.94 125.54 199.38 126.34 199.08 127.24C199 127.5 198.76 127.66 198.52 127.66M209.34 128.94C209.04 128.94 208.78 128.7 208.74 128.4C208.66 127.44 208.3 126.54 207.7 125.78C207.5 125.52 207.54 125.14 207.8 124.94C208.06 124.74 208.44 124.78 208.64 125.04C209.38 125.98 209.82 127.1 209.92 128.28C209.94 128.6 209.7 128.9 209.38 128.92C209.38 128.92 209.34 128.92 209.32 128.92M199.1 132.44C198.9 132.44 198.72 132.34 198.6 132.16C197.96 131.16 197.62 130 197.62 128.82C197.62 128.5 197.88 128.22 198.22 128.22C198.56 128.22 198.82 128.48 198.82 128.82C198.82 129.78 199.1 130.72 199.62 131.52C199.8 131.8 199.72 132.18 199.44 132.34C199.34 132.4 199.22 132.44 199.12 132.44M206.86 134.06C206.66 134.06 206.48 133.96 206.36 133.78C206.18 133.5 206.26 133.14 206.54 132.96C207.34 132.44 207.96 131.68 208.36 130.82C208.5 130.52 208.84 130.38 209.16 130.52C209.46 130.66 209.6 131 209.46 131.3C208.98 132.38 208.2 133.32 207.2 133.96C207.1 134.02 206.98 134.06 206.86 134.06ZM203.8 134.98C202.78 134.98 201.76 134.72 200.88 134.24C200.58 134.08 200.48 133.72 200.64 133.42C200.8 133.12 201.16 133.02 201.46 133.18C202.3 133.62 203.26 133.84 204.22 133.76C204.56 133.74 204.84 133.98 204.86 134.32C204.88 134.66 204.64 134.94 204.32 134.96C204.16 134.96 203.98 134.96 203.82 134.96" fill="black"/>
<path d="M121.92 166.66C121.58 166.66 121.32 166.4 121.32 166.06V69.8597C121.32 69.5197 121.6 69.2598 121.92 69.2598C122.24 69.2598 122.52 69.5197 122.52 69.8597V166.06C122.52 166.4 122.24 166.66 121.92 166.66Z" fill="black"/>
<path d="M121.92 262.72C121.58 262.72 121.32 262.46 121.32 262.12V207C121.32 206.66 121.6 206.4 121.92 206.4C122.24 206.4 122.52 206.66 122.52 207V262.12C122.52 262.46 122.24 262.72 121.92 262.72Z" fill="black"/>
<path d="M203.98 271.34C202.18 271.34 200.72 269.88 200.72 268.08C200.72 267.76 200.98 267.48 201.32 267.48C201.66 267.48 201.92 267.74 201.92 268.08C201.92 269.22 202.84 270.14 204 270.14C205.16 270.14 206.06 269.22 206.06 268.08C206.06 267.76 206.32 267.48 206.66 267.48C207 267.48 207.26 267.74 207.26 268.08C207.26 269.88 205.8 271.34 204 271.34" fill="black"/>
<path d="M203.98 272.12C203.54 272.12 203.18 272.48 203.18 272.92C203.18 273.36 203.54 273.72 203.98 273.72C204.42 273.72 204.78 273.36 204.78 272.92C204.78 272.48 204.42 272.12 203.98 272.12ZM203.98 274.92C202.88 274.92 201.98 274.02 201.98 272.92C201.98 271.82 202.88 270.92 203.98 270.92C205.08 270.92 205.98 271.82 205.98 272.92C205.98 274.02 205.08 274.92 203.98 274.92Z" fill="black"/>
<path d="M202.86 275.861C202.86 275.241 203.36 274.721 204 274.721C204.64 274.721 205.14 275.221 205.14 275.861C205.14 276.501 204.64 277.001 204 277.001C203.36 277.001 202.86 276.501 202.86 275.861Z" fill="black"/>
<path d="M202.86 296.56C202.86 295.94 203.36 295.42 204 295.42C204.64 295.42 205.14 295.92 205.14 296.56C205.14 297.2 204.64 297.7 204 297.7C203.36 297.7 202.86 297.2 202.86 296.56Z" fill="black"/>
<path d="M203.18 301.159C203.18 300.719 203.54 300.359 203.98 300.359C204.42 300.359 204.78 300.719 204.78 301.159C204.78 301.599 204.42 301.959 203.98 301.959C203.54 301.959 203.18 301.599 203.18 301.159Z" fill="black"/>
<path d="M203.98 292.761C203.64 292.761 203.38 292.501 203.38 292.161V276.981C203.38 276.641 203.66 276.381 203.98 276.381C204.3 276.381 204.58 276.641 204.58 276.981V292.161C204.58 292.501 204.32 292.761 203.98 292.761Z" fill="black"/>
<path d="M201.36 287.841C201.18 287.841 201.02 287.761 200.9 287.621C200.68 287.361 200.72 286.981 200.98 286.781L203.44 284.721C203.7 284.501 204.08 284.541 204.28 284.801C204.5 285.061 204.46 285.441 204.2 285.641L201.74 287.701C201.62 287.801 201.5 287.841 201.36 287.841Z" fill="black"/>
<path d="M206.62 287.841C206.48 287.841 206.34 287.8 206.24 287.7L203.78 285.64C203.52 285.42 203.5 285.06 203.7 284.8C203.92 284.54 204.3 284.52 204.54 284.72L207 286.781C207.26 287.001 207.28 287.38 207.08 287.62C206.96 287.76 206.8 287.841 206.62 287.841Z" fill="black"/>
<path d="M203.98 180.139C203.5 180.139 203.1 180.539 203.1 181.019C203.1 181.499 203.5 181.899 203.98 181.899C204.46 181.899 204.86 181.499 204.86 181.019C204.86 180.539 204.46 180.139 203.98 180.139ZM203.98 183.099C202.84 183.099 201.9 182.159 201.9 181.019C201.9 179.879 202.84 178.939 203.98 178.939C205.12 178.939 206.06 179.879 206.06 181.019C206.06 182.159 205.12 183.099 203.98 183.099Z" fill="black"/>
<path d="M40.02 180.139C39.54 180.139 39.14 180.539 39.14 181.019C39.14 181.499 39.54 181.899 40.02 181.899C40.5 181.899 40.9 181.499 40.9 181.019C40.9 180.539 40.5 180.139 40.02 180.139ZM40.02 183.099C38.88 183.099 37.94 182.159 37.94 181.019C37.94 179.879 38.88 178.939 40.02 178.939C41.16 178.939 42.1 179.879 42.1 181.019C42.1 182.159 41.16 183.099 40.02 183.099Z" fill="black"/>
<path d="M214.54 163.341H193.44C193.1 163.341 192.84 163.081 192.84 162.741C192.84 162.401 193.1 162.141 193.44 162.141H214.54C214.86 162.141 215.14 162.401 215.14 162.741C215.14 163.081 214.86 163.341 214.54 163.341Z" fill="black"/>
<path d="M192.96 165.98C192.96 165.72 193.18 165.5 193.44 165.5C193.7 165.5 193.92 165.72 193.92 165.98C193.92 166.24 193.7 166.46 193.44 166.46C193.18 166.46 192.96 166.24 192.96 165.98Z" fill="black"/>
<path d="M192.96 168.22C192.96 167.96 193.18 167.74 193.44 167.74C193.7 167.74 193.92 167.96 193.92 168.22C193.92 168.48 193.7 168.7 193.44 168.7C193.18 168.7 192.96 168.48 192.96 168.22Z" fill="black"/>
<path d="M192.96 170.32C192.96 170.06 193.18 169.84 193.44 169.84C193.7 169.84 193.92 170.06 193.92 170.32C193.92 170.58 193.7 170.8 193.44 170.8C193.18 170.8 192.96 170.58 192.96 170.32Z" fill="black"/>
<path d="M214.06 165.98C214.06 165.72 214.28 165.5 214.54 165.5C214.8 165.5 215.02 165.72 215.02 165.98C215.02 166.24 214.8 166.46 214.54 166.46C214.28 166.46 214.06 166.24 214.06 165.98Z" fill="black"/>
<path d="M214.06 168.22C214.06 167.96 214.28 167.74 214.54 167.74C214.8 167.74 215.02 167.96 215.02 168.22C215.02 168.48 214.8 168.7 214.54 168.7C214.28 168.7 214.06 168.48 214.06 168.22Z" fill="black"/>
<path d="M214.06 170.32C214.06 170.06 214.28 169.84 214.54 169.84C214.8 169.84 215.02 170.06 215.02 170.32C215.02 170.58 214.8 170.8 214.54 170.8C214.28 170.8 214.06 170.58 214.06 170.32Z" fill="black"/>
<path d="M202.82 203.74C202.82 203.1 203.34 202.58 203.98 202.58C204.62 202.58 205.14 203.1 205.14 203.74C205.14 204.38 204.62 204.9 203.98 204.9C203.34 204.9 202.82 204.38 202.82 203.74Z" fill="black"/>
<path d="M199.62 203.959C199.62 203.339 200.12 202.859 200.72 202.859C201.32 202.859 201.82 203.359 201.82 203.959C201.82 204.559 201.32 205.079 200.72 205.079C200.12 205.079 199.62 204.579 199.62 203.959Z" fill="black"/>
<path d="M196.56 204.599C196.56 204.019 197.04 203.539 197.62 203.539C198.2 203.539 198.68 204.019 198.68 204.599C198.68 205.179 198.2 205.659 197.62 205.659C197.04 205.659 196.56 205.179 196.56 204.599Z" fill="black"/>
<path d="M193.66 205.619C193.66 205.059 194.1 204.619 194.66 204.619C195.22 204.619 195.66 205.059 195.66 205.619C195.66 206.179 195.22 206.619 194.66 206.619C194.1 206.619 193.66 206.179 193.66 205.619Z" fill="black"/>
<path d="M190.94 207.02C190.94 206.5 191.36 206.08 191.88 206.08C192.4 206.08 192.82 206.5 192.82 207.02C192.82 207.54 192.4 207.96 191.88 207.96C191.36 207.96 190.94 207.54 190.94 207.02Z" fill="black"/>
<path d="M188.46 208.739C188.46 208.259 188.86 207.859 189.34 207.859C189.82 207.859 190.22 208.259 190.22 208.739C190.22 209.219 189.82 209.619 189.34 209.619C188.86 209.619 188.46 209.219 188.46 208.739Z" fill="black"/>
<path d="M186.2 210.76C186.2 210.3 186.58 209.92 187.04 209.92C187.5 209.92 187.88 210.3 187.88 210.76C187.88 211.22 187.5 211.6 187.04 211.6C186.58 211.6 186.2 211.22 186.2 210.76Z" fill="black"/>
<path d="M184.24 213.059C184.24 212.639 184.58 212.279 185.02 212.279C185.46 212.279 185.8 212.619 185.8 213.059C185.8 213.499 185.46 213.839 185.02 213.839C184.58 213.839 184.24 213.499 184.24 213.059Z" fill="black"/>
<path d="M182.58 215.62C182.58 215.22 182.9 214.9 183.3 214.9C183.7 214.9 184.02 215.22 184.02 215.62C184.02 216.02 183.7 216.34 183.3 216.34C182.9 216.34 182.58 216.02 182.58 215.62Z" fill="black"/>
<path d="M181.24 218.381C181.24 218.021 181.54 217.721 181.9 217.721C182.26 217.721 182.56 218.021 182.56 218.381C182.56 218.741 182.26 219.041 181.9 219.041C181.54 219.041 181.24 218.741 181.24 218.381Z" fill="black"/>
<path d="M180.26 221.34C180.26 221 180.54 220.74 180.86 220.74C181.18 220.74 181.46 221.02 181.46 221.34C181.46 221.66 181.18 221.96 180.86 221.96C180.54 221.96 180.26 221.68 180.26 221.34Z" fill="black"/>
<path d="M179.68 224.46C179.68 224.16 179.92 223.9 180.24 223.9C180.56 223.9 180.8 224.14 180.8 224.46C180.8 224.78 180.56 225.02 180.24 225.02C179.92 225.02 179.68 224.78 179.68 224.46Z" fill="black"/>
<path d="M179.52 227.721C179.52 227.441 179.74 227.221 180.02 227.221C180.3 227.221 180.52 227.441 180.52 227.721C180.52 228.001 180.3 228.221 180.02 228.221C179.74 228.221 179.52 228.001 179.52 227.721Z" fill="black"/>
<path d="M205.18 203.74C205.18 203.1 204.66 202.58 204.02 202.58C203.38 202.58 202.86 203.1 202.86 203.74C202.86 204.38 203.38 204.9 204.02 204.9C204.66 204.9 205.18 204.38 205.18 203.74Z" fill="black"/>
<path d="M208.38 203.959C208.38 203.339 207.88 202.859 207.26 202.859C206.64 202.859 206.16 203.359 206.16 203.959C206.16 204.559 206.66 205.079 207.26 205.079C207.86 205.079 208.38 204.579 208.38 203.959Z" fill="black"/>
<path d="M211.44 204.599C211.44 204.019 210.96 203.539 210.38 203.539C209.8 203.539 209.32 204.019 209.32 204.599C209.32 205.179 209.8 205.659 210.38 205.659C210.96 205.659 211.44 205.179 211.44 204.599Z" fill="black"/>
<path d="M214.36 205.619C214.36 205.059 213.92 204.619 213.36 204.619C212.8 204.619 212.36 205.059 212.36 205.619C212.36 206.179 212.8 206.619 213.36 206.619C213.92 206.619 214.36 206.179 214.36 205.619Z" fill="black"/>
<path d="M217.06 207.02C217.06 206.5 216.64 206.08 216.12 206.08C215.6 206.08 215.18 206.5 215.18 207.02C215.18 207.54 215.6 207.96 216.12 207.96C216.64 207.96 217.06 207.54 217.06 207.02Z" fill="black"/>
<path d="M219.56 208.739C219.56 208.259 219.16 207.859 218.68 207.859C218.2 207.859 217.8 208.259 217.8 208.739C217.8 209.219 218.2 209.619 218.68 209.619C219.16 209.619 219.56 209.219 219.56 208.739Z" fill="black"/>
<path d="M221.8 210.76C221.8 210.3 221.42 209.92 220.96 209.92C220.5 209.92 220.12 210.3 220.12 210.76C220.12 211.22 220.5 211.6 220.96 211.6C221.42 211.6 221.8 211.22 221.8 210.76Z" fill="black"/>
<path d="M223.78 213.059C223.78 212.639 223.44 212.279 223 212.279C222.56 212.279 222.22 212.619 222.22 213.059C222.22 213.499 222.56 213.839 223 213.839C223.44 213.839 223.78 213.499 223.78 213.059Z" fill="black"/>
<path d="M225.44 215.62C225.44 215.22 225.12 214.9 224.72 214.9C224.32 214.9 224 215.22 224 215.62C224 216.02 224.32 216.34 224.72 216.34C225.12 216.34 225.44 216.02 225.44 215.62Z" fill="black"/>
<path d="M226.78 218.381C226.78 218.021 226.48 217.721 226.12 217.721C225.76 217.721 225.46 218.021 225.46 218.381C225.46 218.741 225.76 219.041 226.12 219.041C226.48 219.041 226.78 218.741 226.78 218.381Z" fill="black"/>
<path d="M227.74 221.34C227.74 221 227.46 220.74 227.12 220.74C226.78 220.74 226.52 221.02 226.52 221.34C226.52 221.66 226.8 221.96 227.12 221.96C227.44 221.96 227.74 221.68 227.74 221.34Z" fill="black"/>
<path d="M228.32 224.46C228.32 224.16 228.08 223.9 227.76 223.9C227.44 223.9 227.2 224.14 227.2 224.46C227.2 224.78 227.44 225.02 227.76 225.02C228.08 225.02 228.32 224.78 228.32 224.46Z" fill="black"/>
<path d="M228.5 227.721C228.5 227.441 228.28 227.221 228 227.221C227.72 227.221 227.5 227.441 227.5 227.721C227.5 228.001 227.72 228.221 228 228.221C228.28 228.221 228.5 228.001 228.5 227.721Z" fill="black"/>
<path d="M203.98 189.679C203.08 190.899 202.08 192.499 202.08 193.199C202.08 193.899 203.08 195.499 203.98 196.719C204.88 195.499 205.88 193.899 205.88 193.199C205.88 192.499 204.88 190.899 203.98 189.679ZM203.98 198.279C203.8 198.279 203.62 198.199 203.52 198.059C203.08 197.519 200.9 194.699 200.9 193.199C200.9 191.699 203.1 188.879 203.52 188.339C203.64 188.199 203.8 188.119 203.98 188.119C204.16 188.119 204.34 188.199 204.44 188.339C204.88 188.879 207.06 191.699 207.06 193.199C207.06 194.699 204.86 197.519 204.44 198.059C204.32 198.199 204.16 198.279 203.98 198.279Z" fill="black"/>
<path d="M203.98 204.34C203.64 204.34 203.38 204.08 203.38 203.74V197.68C203.38 197.34 203.66 197.08 203.98 197.08C204.3 197.08 204.58 197.34 204.58 197.68V203.74C204.58 204.08 204.32 204.34 203.98 204.34Z" fill="black"/>
<path d="M203.98 189.3C203.64 189.3 203.38 189.04 203.38 188.7V182.5C203.38 182.18 203.66 181.9 203.98 181.9C204.3 181.9 204.58 182.16 204.58 182.5V188.7C204.58 189.04 204.32 189.3 203.98 189.3Z" fill="black"/>
<path d="M199.5 227.721C200.92 228.421 202.08 229.721 202.92 231.581C203.38 232.601 203.74 233.781 204.02 235.141C204.3 233.801 204.66 232.601 205.12 231.581C205.96 229.721 207.12 228.421 208.54 227.721C207.12 227.021 205.96 225.721 205.12 223.841C204.66 222.821 204.3 221.641 204.02 220.281C203.74 221.621 203.38 222.821 202.92 223.841C202.08 225.701 200.92 227.021 199.5 227.721ZM204.04 242.381C203.7 242.381 203.44 242.121 203.44 241.781C203.44 237.741 202.8 228.321 196.86 228.321C196.52 228.321 196.26 228.061 196.26 227.721C196.26 227.381 196.52 227.121 196.86 227.121C202.8 227.121 203.44 217.701 203.44 213.661C203.44 213.321 203.72 213.061 204.04 213.061C204.36 213.061 204.64 213.321 204.64 213.661C204.64 217.701 205.28 227.121 211.22 227.121C211.56 227.121 211.82 227.381 211.82 227.721C211.82 228.061 211.56 228.321 211.22 228.321C205.28 228.321 204.64 237.741 204.64 241.781C204.64 242.121 204.36 242.381 204.04 242.381Z" fill="black"/>
<path d="M198.54 223.019C198.54 222.699 198.8 222.439 199.12 222.439C199.44 222.439 199.7 222.699 199.7 223.019C199.7 223.339 199.44 223.599 199.12 223.599C198.8 223.599 198.54 223.339 198.54 223.019Z" fill="black"/>
<path d="M196.26 221.32C196.26 221 196.52 220.74 196.84 220.74C197.16 220.74 197.42 221 197.42 221.32C197.42 221.64 197.16 221.9 196.84 221.9C196.52 221.9 196.26 221.64 196.26 221.32Z" fill="black"/>
<path d="M194 219.74C194 219.42 194.26 219.16 194.58 219.16C194.9 219.16 195.16 219.42 195.16 219.74C195.16 220.06 194.9 220.32 194.58 220.32C194.26 220.32 194 220.06 194 219.74Z" fill="black"/>
<path d="M209.72 223.019C209.72 222.699 209.46 222.439 209.14 222.439C208.82 222.439 208.56 222.699 208.56 223.019C208.56 223.339 208.82 223.599 209.14 223.599C209.46 223.599 209.72 223.339 209.72 223.019Z" fill="black"/>
<path d="M212 221.32C212 221 211.74 220.74 211.42 220.74C211.1 220.74 210.84 221 210.84 221.32C210.84 221.64 211.1 221.9 211.42 221.9C211.74 221.9 212 221.64 212 221.32Z" fill="black"/>
<path d="M214.26 219.74C214.26 219.42 214 219.16 213.68 219.16C213.36 219.16 213.1 219.42 213.1 219.74C213.1 220.06 213.36 220.32 213.68 220.32C214 220.32 214.26 220.06 214.26 219.74Z" fill="black"/>
<path d="M204.6 210.881C204.6 210.561 204.34 210.301 204.02 210.301C203.7 210.301 203.44 210.561 203.44 210.881C203.44 211.201 203.7 211.461 204.02 211.461C204.34 211.461 204.6 211.201 204.6 210.881Z" fill="black"/>
<path d="M214.84 227.721C214.84 227.401 214.58 227.141 214.26 227.141C213.94 227.141 213.68 227.401 213.68 227.721C213.68 228.041 213.94 228.301 214.26 228.301C214.58 228.301 214.84 228.041 214.84 227.721Z" fill="black"/>
<path d="M217.16 227.721C217.16 227.401 216.9 227.141 216.58 227.141C216.26 227.141 216 227.401 216 227.721C216 228.041 216.26 228.301 216.58 228.301C216.9 228.301 217.16 228.041 217.16 227.721Z" fill="black"/>
<path d="M219.64 227.721C219.64 227.401 219.38 227.141 219.06 227.141C218.74 227.141 218.48 227.401 218.48 227.721C218.48 228.041 218.74 228.301 219.06 228.301C219.38 228.301 219.64 228.041 219.64 227.721Z" fill="black"/>
<path d="M190.18 227.721C190.18 227.401 189.92 227.141 189.6 227.141C189.28 227.141 189.02 227.401 189.02 227.721C189.02 228.041 189.28 228.301 189.6 228.301C189.92 228.301 190.18 228.041 190.18 227.721Z" fill="black"/>
<path d="M192.5 227.721C192.5 227.401 192.24 227.141 191.92 227.141C191.6 227.141 191.34 227.401 191.34 227.721C191.34 228.041 191.6 228.301 191.92 228.301C192.24 228.301 192.5 228.041 192.5 227.721Z" fill="black"/>
<path d="M194.98 227.721C194.98 227.401 194.72 227.141 194.4 227.141C194.08 227.141 193.82 227.401 193.82 227.721C193.82 228.041 194.08 228.301 194.4 228.301C194.72 228.301 194.98 228.041 194.98 227.721Z" fill="black"/>
<path d="M39.84 180.14C39.5 180.14 39.24 179.88 39.24 179.54V118C39.24 117.66 39.52 117.4 39.84 117.4C40.16 117.4 40.44 117.66 40.44 118V179.54C40.44 179.88 40.16 180.14 39.84 180.14Z" fill="black"/>
<path d="M39.84 110.481C38.12 110.481 36.7 111.881 36.7 113.621C36.7 115.361 38.1 116.741 39.84 116.741C41.58 116.741 42.96 115.341 42.96 113.621C42.96 111.901 41.56 110.481 39.84 110.481ZM39.84 117.941C37.46 117.941 35.52 116.001 35.52 113.621C35.52 111.241 37.46 109.301 39.84 109.301C42.22 109.301 44.16 111.241 44.16 113.621C44.16 116.001 42.22 117.941 39.84 117.941Z" fill="black"/>
<path d="M40.02 268.06C26.48 268.06 15.46 257.04 15.46 243.5C15.46 243.16 15.72 242.9 16.06 242.9C16.4 242.9 16.66 243.16 16.66 243.5C16.66 256.38 27.14 266.86 40.04 266.86C52.94 266.86 63.4 256.38 63.4 243.5C63.4 243.16 63.66 242.9 64 242.9C64.34 242.9 64.6 243.16 64.6 243.5C64.6 257.04 53.58 268.06 40.04 268.06" fill="black"/>
<path d="M40.02 244.1C29.48 244.1 19.56 243.68 12.08 242.92C1.44 241.84 0 240.58 0 239.5C0 238.66 0.92 238.04 3.1 237.48C4.82 237.02 7.3 236.62 10.48 236.26C16.86 235.54 25.58 235.06 35.06 234.94C35.38 234.94 35.66 235.2 35.66 235.52C35.66 235.86 35.4 236.12 35.06 236.12C26 236.24 17.56 236.68 11.3 237.34C3.06 238.24 1.52 239.22 1.24 239.48C1.52 239.76 3.26 240.84 12.94 241.78C20.28 242.48 29.9 242.88 40.02 242.88C50.14 242.88 59.76 242.5 67.1 241.78C76.78 240.84 78.5 239.76 78.8 239.48C78.52 239.22 76.96 238.22 68.62 237.34C62.28 236.66 53.74 236.22 44.58 236.12C44.24 236.12 43.98 235.84 43.98 235.52C43.98 235.2 44.26 234.92 44.58 234.92C54.14 235.04 62.96 235.5 69.42 236.22C72.62 236.58 75.14 237 76.88 237.44C79.08 238.02 80.02 238.62 80.02 239.48C80.02 240.56 78.58 241.82 67.94 242.9C60.48 243.66 50.56 244.08 40 244.08" fill="black"/>
<path d="M42.04 124.34C42.04 124.34 41.88 124.34 41.8 124.3C41.18 124.04 40.52 123.9 39.84 123.9C39.56 123.9 39.28 123.92 39 123.96C38.68 124.02 38.36 123.8 38.3 123.46C38.24 123.14 38.46 122.82 38.78 122.76C39.12 122.7 39.48 122.68 39.82 122.68C40.66 122.68 41.48 122.84 42.24 123.18C42.54 123.32 42.68 123.66 42.56 123.96C42.46 124.18 42.24 124.32 42.02 124.32M34.56 127.66C34.56 127.66 34.44 127.66 34.36 127.62C34.04 127.52 33.88 127.18 33.98 126.86C34.36 125.74 35.06 124.74 35.98 124C36.24 123.8 36.62 123.84 36.82 124.1C37.02 124.36 36.98 124.74 36.72 124.94C35.96 125.54 35.42 126.34 35.1 127.24C35.02 127.5 34.78 127.66 34.54 127.66M45.36 128.94C45.06 128.94 44.8 128.7 44.76 128.4C44.68 127.44 44.32 126.54 43.72 125.78C43.52 125.52 43.56 125.14 43.82 124.94C44.08 124.74 44.46 124.78 44.66 125.04C45.4 125.98 45.84 127.1 45.94 128.28C45.96 128.6 45.72 128.9 45.4 128.92C45.4 128.92 45.36 128.92 45.34 128.92M35.12 132.44C34.92 132.44 34.74 132.34 34.62 132.16C33.98 131.16 33.64 130 33.64 128.82C33.64 128.5 33.9 128.22 34.24 128.22C34.58 128.22 34.84 128.48 34.84 128.82C34.84 129.78 35.12 130.72 35.64 131.52C35.82 131.8 35.74 132.18 35.46 132.34C35.36 132.4 35.24 132.44 35.14 132.44M42.88 134.06C42.68 134.06 42.5 133.96 42.38 133.78C42.2 133.5 42.28 133.14 42.56 132.96C43.36 132.42 43.98 131.68 44.38 130.82C44.52 130.52 44.86 130.38 45.18 130.5C45.48 130.64 45.62 130.98 45.48 131.3C45 132.38 44.22 133.32 43.22 133.96C43.12 134.02 43 134.06 42.88 134.06ZM39.82 134.98C38.8 134.98 37.78 134.72 36.9 134.24C36.6 134.08 36.5 133.72 36.66 133.42C36.82 133.12 37.18 133.02 37.48 133.18C38.32 133.62 39.28 133.84 40.24 133.76C40.58 133.74 40.86 133.98 40.88 134.32C40.9 134.66 40.66 134.94 40.34 134.96C40.18 134.96 40 134.96 39.84 134.96" fill="black"/>
<path d="M40.02 271.34C38.22 271.34 36.76 269.88 36.76 268.08C36.76 267.76 37.02 267.48 37.36 267.48C37.7 267.48 37.96 267.74 37.96 268.08C37.96 269.22 38.88 270.14 40.04 270.14C41.2 270.14 42.1 269.22 42.1 268.08C42.1 267.76 42.36 267.48 42.7 267.48C43.04 267.48 43.3 267.74 43.3 268.08C43.3 269.88 41.84 271.34 40.04 271.34" fill="black"/>
<path d="M40.02 272.12C39.58 272.12 39.22 272.48 39.22 272.92C39.22 273.36 39.58 273.72 40.02 273.72C40.46 273.72 40.82 273.36 40.82 272.92C40.82 272.48 40.46 272.12 40.02 272.12ZM40.02 274.92C38.92 274.92 38.02 274.02 38.02 272.92C38.02 271.82 38.92 270.92 40.02 270.92C41.12 270.92 42.02 271.82 42.02 272.92C42.02 274.02 41.12 274.92 40.02 274.92Z" fill="black"/>
<path d="M38.88 275.861C38.88 275.241 39.38 274.721 40.02 274.721C40.66 274.721 41.16 275.221 41.16 275.861C41.16 276.501 40.66 277.001 40.02 277.001C39.38 277.001 38.88 276.501 38.88 275.861Z" fill="black"/>
<path d="M38.88 296.56C38.88 295.94 39.38 295.42 40.02 295.42C40.66 295.42 41.16 295.92 41.16 296.56C41.16 297.2 40.66 297.7 40.02 297.7C39.38 297.7 38.88 297.2 38.88 296.56Z" fill="black"/>
<path d="M39.22 301.159C39.22 300.719 39.58 300.359 40.02 300.359C40.46 300.359 40.82 300.719 40.82 301.159C40.82 301.599 40.46 301.959 40.02 301.959C39.58 301.959 39.22 301.599 39.22 301.159Z" fill="black"/>
<path d="M40.02 292.761C39.68 292.761 39.42 292.501 39.42 292.161V276.981C39.42 276.641 39.7 276.381 40.02 276.381C40.34 276.381 40.62 276.641 40.62 276.981V292.161C40.62 292.501 40.34 292.761 40.02 292.761Z" fill="black"/>
<path d="M37.38 287.841C37.2 287.841 37.04 287.761 36.92 287.621C36.7 287.361 36.74 286.981 37 286.781L39.46 284.721C39.72 284.501 40.1 284.541 40.3 284.801C40.52 285.061 40.48 285.441 40.22 285.641L37.76 287.701C37.64 287.801 37.52 287.841 37.38 287.841Z" fill="black"/>
<path d="M42.64 287.841C42.5 287.841 42.36 287.8 42.26 287.7L39.8 285.64C39.54 285.42 39.52 285.06 39.72 284.8C39.94 284.54 40.32 284.52 40.56 284.72L43.02 286.781C43.28 287.001 43.3 287.38 43.1 287.62C42.98 287.76 42.82 287.841 42.64 287.841Z" fill="black"/>
<path d="M50.56 163.341H29.46C29.12 163.341 28.86 163.081 28.86 162.741C28.86 162.401 29.12 162.141 29.46 162.141H50.56C50.88 162.141 51.16 162.401 51.16 162.741C51.16 163.081 50.88 163.341 50.56 163.341Z" fill="black"/>
<path d="M28.98 165.98C28.98 165.72 29.2 165.5 29.46 165.5C29.72 165.5 29.94 165.72 29.94 165.98C29.94 166.24 29.72 166.46 29.46 166.46C29.2 166.46 28.98 166.24 28.98 165.98Z" fill="black"/>
<path d="M28.98 168.22C28.98 167.96 29.2 167.74 29.46 167.74C29.72 167.74 29.94 167.96 29.94 168.22C29.94 168.48 29.72 168.7 29.46 168.7C29.2 168.7 28.98 168.48 28.98 168.22Z" fill="black"/>
<path d="M28.98 170.32C28.98 170.06 29.2 169.84 29.46 169.84C29.72 169.84 29.94 170.06 29.94 170.32C29.94 170.58 29.72 170.8 29.46 170.8C29.2 170.8 28.98 170.58 28.98 170.32Z" fill="black"/>
<path d="M50.08 165.98C50.08 165.72 50.3 165.5 50.56 165.5C50.82 165.5 51.04 165.72 51.04 165.98C51.04 166.24 50.82 166.46 50.56 166.46C50.3 166.46 50.08 166.24 50.08 165.98Z" fill="black"/>
<path d="M50.08 168.22C50.08 167.96 50.3 167.74 50.56 167.74C50.82 167.74 51.04 167.96 51.04 168.22C51.04 168.48 50.82 168.7 50.56 168.7C50.3 168.7 50.08 168.48 50.08 168.22Z" fill="black"/>
<path d="M50.08 170.32C50.08 170.06 50.3 169.84 50.56 169.84C50.82 169.84 51.04 170.06 51.04 170.32C51.04 170.58 50.82 170.8 50.56 170.8C50.3 170.8 50.08 170.58 50.08 170.32Z" fill="black"/>
<path d="M38.86 203.74C38.86 203.1 39.38 202.58 40.02 202.58C40.66 202.58 41.18 203.1 41.18 203.74C41.18 204.38 40.66 204.9 40.02 204.9C39.38 204.9 38.86 204.38 38.86 203.74Z" fill="black"/>
<path d="M35.66 203.959C35.66 203.339 36.16 202.859 36.76 202.859C37.36 202.859 37.86 203.359 37.86 203.959C37.86 204.559 37.36 205.079 36.76 205.079C36.16 205.079 35.66 204.579 35.66 203.959Z" fill="black"/>
<path d="M32.58 204.599C32.58 204.019 33.06 203.539 33.64 203.539C34.22 203.539 34.7 204.019 34.7 204.599C34.7 205.179 34.22 205.659 33.64 205.659C33.06 205.659 32.58 205.179 32.58 204.599Z" fill="black"/>
<path d="M29.68 205.619C29.68 205.059 30.12 204.619 30.68 204.619C31.24 204.619 31.68 205.059 31.68 205.619C31.68 206.179 31.24 206.619 30.68 206.619C30.12 206.619 29.68 206.179 29.68 205.619Z" fill="black"/>
<path d="M26.98 207.02C26.98 206.5 27.4 206.08 27.92 206.08C28.44 206.08 28.86 206.5 28.86 207.02C28.86 207.54 28.44 207.96 27.92 207.96C27.4 207.96 26.98 207.54 26.98 207.02Z" fill="black"/>
<path d="M24.48 208.739C24.48 208.259 24.88 207.859 25.36 207.859C25.84 207.859 26.24 208.259 26.24 208.739C26.24 209.219 25.84 209.619 25.36 209.619C24.88 209.619 24.48 209.219 24.48 208.739Z" fill="black"/>
<path d="M22.24 210.76C22.24 210.3 22.62 209.92 23.08 209.92C23.54 209.92 23.92 210.3 23.92 210.76C23.92 211.22 23.54 211.6 23.08 211.6C22.62 211.6 22.24 211.22 22.24 210.76Z" fill="black"/>
<path d="M20.26 213.059C20.26 212.639 20.6 212.279 21.04 212.279C21.48 212.279 21.82 212.619 21.82 213.059C21.82 213.499 21.48 213.839 21.04 213.839C20.6 213.839 20.26 213.499 20.26 213.059Z" fill="black"/>
<path d="M18.6 215.62C18.6 215.22 18.92 214.9 19.32 214.9C19.72 214.9 20.04 215.22 20.04 215.62C20.04 216.02 19.72 216.34 19.32 216.34C18.92 216.34 18.6 216.02 18.6 215.62Z" fill="black"/>
<path d="M17.26 218.381C17.26 218.021 17.56 217.721 17.92 217.721C18.28 217.721 18.58 218.021 18.58 218.381C18.58 218.741 18.28 219.041 17.92 219.041C17.56 219.041 17.26 218.741 17.26 218.381Z" fill="black"/>
<path d="M16.3 221.34C16.3 221 16.58 220.74 16.9 220.74C17.22 220.74 17.5 221.02 17.5 221.34C17.5 221.66 17.22 221.96 16.9 221.96C16.58 221.96 16.3 221.68 16.3 221.34Z" fill="black"/>
<path d="M15.72 224.46C15.72 224.16 15.96 223.9 16.28 223.9C16.6 223.9 16.84 224.14 16.84 224.46C16.84 224.78 16.6 225.02 16.28 225.02C15.96 225.02 15.72 224.78 15.72 224.46Z" fill="black"/>
<path d="M15.54 227.721C15.54 227.441 15.76 227.221 16.04 227.221C16.32 227.221 16.54 227.441 16.54 227.721C16.54 228.001 16.32 228.221 16.04 228.221C15.76 228.221 15.54 228.001 15.54 227.721Z" fill="black"/>
<path d="M41.22 203.74C41.22 203.1 40.7 202.58 40.06 202.58C39.42 202.58 38.9 203.1 38.9 203.74C38.9 204.38 39.42 204.9 40.06 204.9C40.7 204.9 41.22 204.38 41.22 203.74Z" fill="black"/>
<path d="M44.42 203.959C44.42 203.339 43.92 202.859 43.3 202.859C42.68 202.859 42.2 203.359 42.2 203.959C42.2 204.559 42.7 205.079 43.3 205.079C43.9 205.079 44.42 204.579 44.42 203.959Z" fill="black"/>
<path d="M47.48 204.599C47.48 204.019 47 203.539 46.42 203.539C45.84 203.539 45.36 204.019 45.36 204.599C45.36 205.179 45.84 205.659 46.42 205.659C47 205.659 47.48 205.179 47.48 204.599Z" fill="black"/>
<path d="M50.38 205.619C50.38 205.059 49.94 204.619 49.38 204.619C48.82 204.619 48.38 205.059 48.38 205.619C48.38 206.179 48.82 206.619 49.38 206.619C49.94 206.619 50.38 206.179 50.38 205.619Z" fill="black"/>
<path d="M53.1 207.02C53.1 206.5 52.68 206.08 52.16 206.08C51.64 206.08 51.22 206.5 51.22 207.02C51.22 207.54 51.64 207.96 52.16 207.96C52.68 207.96 53.1 207.54 53.1 207.02Z" fill="black"/>
<path d="M55.58 208.739C55.58 208.259 55.18 207.859 54.7 207.859C54.22 207.859 53.82 208.259 53.82 208.739C53.82 209.219 54.22 209.619 54.7 209.619C55.18 209.619 55.58 209.219 55.58 208.739Z" fill="black"/>
<path d="M57.84 210.76C57.84 210.3 57.46 209.92 57 209.92C56.54 209.92 56.16 210.3 56.16 210.76C56.16 211.22 56.54 211.6 57 211.6C57.46 211.6 57.84 211.22 57.84 210.76Z" fill="black"/>
<path d="M59.8 213.059C59.8 212.639 59.46 212.279 59.02 212.279C58.58 212.279 58.24 212.619 58.24 213.059C58.24 213.499 58.58 213.839 59.02 213.839C59.46 213.839 59.8 213.499 59.8 213.059Z" fill="black"/>
<path d="M61.46 215.62C61.46 215.22 61.14 214.9 60.74 214.9C60.34 214.9 60.02 215.22 60.02 215.62C60.02 216.02 60.34 216.34 60.74 216.34C61.14 216.34 61.46 216.02 61.46 215.62Z" fill="black"/>
<path d="M62.8 218.381C62.8 218.021 62.5 217.721 62.14 217.721C61.78 217.721 61.48 218.021 61.48 218.381C61.48 218.741 61.78 219.041 62.14 219.041C62.5 219.041 62.8 218.741 62.8 218.381Z" fill="black"/>
<path d="M63.78 221.34C63.78 221 63.5 220.74 63.16 220.74C62.82 220.74 62.56 221.02 62.56 221.34C62.56 221.66 62.84 221.96 63.16 221.96C63.48 221.96 63.78 221.68 63.78 221.34Z" fill="black"/>
<path d="M64.36 224.46C64.36 224.16 64.12 223.9 63.8 223.9C63.48 223.9 63.24 224.14 63.24 224.46C63.24 224.78 63.48 225.02 63.8 225.02C64.12 225.02 64.36 224.78 64.36 224.46Z" fill="black"/>
<path d="M64.52 227.721C64.52 227.441 64.3 227.221 64.02 227.221C63.74 227.221 63.52 227.441 63.52 227.721C63.52 228.001 63.74 228.221 64.02 228.221C64.3 228.221 64.52 228.001 64.52 227.721Z" fill="black"/>
<path d="M40.02 189.679C39.12 190.899 38.12 192.499 38.12 193.199C38.12 193.899 39.12 195.499 40.02 196.719C40.92 195.499 41.92 193.899 41.92 193.199C41.92 192.499 40.92 190.899 40.02 189.679ZM40.02 198.279C39.84 198.279 39.66 198.199 39.56 198.059C39.12 197.519 36.94 194.699 36.94 193.199C36.94 191.699 39.14 188.879 39.56 188.339C39.68 188.199 39.84 188.119 40.02 188.119C40.2 188.119 40.38 188.199 40.48 188.339C40.92 188.879 43.1 191.699 43.1 193.199C43.1 194.699 40.9 197.519 40.48 198.059C40.36 198.199 40.2 198.279 40.02 198.279Z" fill="black"/>
<path d="M40.02 204.34C39.68 204.34 39.42 204.08 39.42 203.74V197.68C39.42 197.34 39.7 197.08 40.02 197.08C40.34 197.08 40.62 197.34 40.62 197.68V203.74C40.62 204.08 40.34 204.34 40.02 204.34Z" fill="black"/>
<path d="M40.02 189.3C39.68 189.3 39.42 189.04 39.42 188.7V182.5C39.42 182.18 39.7 181.9 40.02 181.9C40.34 181.9 40.62 182.16 40.62 182.5V188.7C40.62 189.04 40.34 189.3 40.02 189.3Z" fill="black"/>
<path d="M35.52 227.721C36.94 228.421 38.1 229.721 38.94 231.581C39.4 232.601 39.76 233.781 40.04 235.141C40.32 233.801 40.68 232.601 41.14 231.581C41.98 229.721 43.14 228.421 44.56 227.721C43.14 227.021 41.98 225.721 41.14 223.841C40.68 222.821 40.32 221.641 40.04 220.281C39.76 221.621 39.4 222.821 38.94 223.841C38.1 225.701 36.94 227.021 35.52 227.721ZM40.04 242.381C39.7 242.381 39.44 242.121 39.44 241.781C39.44 237.741 38.8 228.321 32.86 228.321C32.52 228.321 32.26 228.061 32.26 227.721C32.26 227.381 32.52 227.121 32.86 227.121C38.8 227.121 39.44 217.701 39.44 213.661C39.44 213.321 39.72 213.061 40.04 213.061C40.36 213.061 40.64 213.321 40.64 213.661C40.64 217.701 41.28 227.121 47.22 227.121C47.56 227.121 47.82 227.381 47.82 227.721C47.82 228.061 47.56 228.321 47.22 228.321C41.28 228.321 40.64 237.741 40.64 241.781C40.64 242.121 40.36 242.381 40.04 242.381Z" fill="black"/>
<path d="M34.56 223.019C34.56 222.699 34.82 222.439 35.14 222.439C35.46 222.439 35.72 222.699 35.72 223.019C35.72 223.339 35.46 223.599 35.14 223.599C34.82 223.599 34.56 223.339 34.56 223.019Z" fill="black"/>
<path d="M32.28 221.32C32.28 221 32.54 220.74 32.86 220.74C33.18 220.74 33.44 221 33.44 221.32C33.44 221.64 33.18 221.9 32.86 221.9C32.54 221.9 32.28 221.64 32.28 221.32Z" fill="black"/>
<path d="M30.02 219.74C30.02 219.42 30.28 219.16 30.6 219.16C30.92 219.16 31.18 219.42 31.18 219.74C31.18 220.06 30.92 220.32 30.6 220.32C30.28 220.32 30.02 220.06 30.02 219.74Z" fill="black"/>
<path d="M45.74 223.019C45.74 222.699 45.48 222.439 45.16 222.439C44.84 222.439 44.58 222.699 44.58 223.019C44.58 223.339 44.84 223.599 45.16 223.599C45.48 223.599 45.74 223.339 45.74 223.019Z" fill="black"/>
<path d="M48.02 221.32C48.02 221 47.76 220.74 47.44 220.74C47.12 220.74 46.86 221 46.86 221.32C46.86 221.64 47.12 221.9 47.44 221.9C47.76 221.9 48.02 221.64 48.02 221.32Z" fill="black"/>
<path d="M50.3 219.74C50.3 219.42 50.04 219.16 49.72 219.16C49.4 219.16 49.14 219.42 49.14 219.74C49.14 220.06 49.4 220.32 49.72 220.32C50.04 220.32 50.3 220.06 50.3 219.74Z" fill="black"/>
<path d="M40.62 210.881C40.62 210.561 40.36 210.301 40.04 210.301C39.72 210.301 39.46 210.561 39.46 210.881C39.46 211.201 39.72 211.461 40.04 211.461C40.36 211.461 40.62 211.201 40.62 210.881Z" fill="black"/>
<path d="M50.86 227.721C50.86 227.401 50.6 227.141 50.28 227.141C49.96 227.141 49.7 227.401 49.7 227.721C49.7 228.041 49.96 228.301 50.28 228.301C50.6 228.301 50.86 228.041 50.86 227.721Z" fill="black"/>
<path d="M53.18 227.721C53.18 227.401 52.92 227.141 52.6 227.141C52.28 227.141 52.02 227.401 52.02 227.721C52.02 228.041 52.28 228.301 52.6 228.301C52.92 228.301 53.18 228.041 53.18 227.721Z" fill="black"/>
<path d="M55.66 227.721C55.66 227.401 55.4 227.141 55.08 227.141C54.76 227.141 54.5 227.401 54.5 227.721C54.5 228.041 54.76 228.301 55.08 228.301C55.4 228.301 55.66 228.041 55.66 227.721Z" fill="black"/>
<path d="M26.2 227.721C26.2 227.401 25.94 227.141 25.62 227.141C25.3 227.141 25.04 227.401 25.04 227.721C25.04 228.041 25.3 228.301 25.62 228.301C25.94 228.301 26.2 228.041 26.2 227.721Z" fill="black"/>
<path d="M28.52 227.721C28.52 227.401 28.26 227.141 27.94 227.141C27.62 227.141 27.36 227.401 27.36 227.721C27.36 228.041 27.62 228.301 27.94 228.301C28.26 228.301 28.52 228.041 28.52 227.721Z" fill="black"/>
<path d="M31 227.721C31 227.401 30.74 227.141 30.42 227.141C30.1 227.141 29.84 227.401 29.84 227.721C29.84 228.041 30.1 228.301 30.42 228.301C30.74 228.301 31 228.041 31 227.721Z" fill="black"/>
<path d="M121.92 402.54C121.64 402.54 121.4 402.36 121.34 402.08L105.36 332.18C105.36 332.18 105.34 332 105.36 331.92L121.34 262C121.42 261.68 121.74 261.48 122.06 261.54C122.38 261.62 122.58 261.94 122.52 262.26L106.58 332.04L122.52 401.82C122.6 402.14 122.4 402.46 122.06 402.54C122.02 402.54 121.96 402.54 121.92 402.54Z" fill="black"/>
<path d="M203.98 323.881C203.7 323.881 203.46 323.701 203.4 323.421L201.68 315.881C201.68 315.881 201.66 315.701 201.68 315.621L203.4 308.081C203.48 307.761 203.8 307.561 204.12 307.641C204.44 307.721 204.64 308.041 204.58 308.361L202.88 315.761L204.58 323.161C204.66 323.481 204.46 323.801 204.12 323.881C204.08 323.881 204.02 323.881 203.98 323.881Z" fill="black"/>
<path d="M203.98 323.881C203.98 323.881 203.88 323.881 203.84 323.881C203.52 323.801 203.32 323.481 203.38 323.161L205.08 315.761L203.38 308.361C203.3 308.041 203.5 307.721 203.84 307.641C204.18 307.561 204.48 307.761 204.56 308.081L206.28 315.621C206.28 315.621 206.3 315.801 206.28 315.881L204.56 323.421C204.5 323.701 204.26 323.881 203.98 323.881Z" fill="black"/>
<path d="M39.84 323.881C39.56 323.881 39.32 323.701 39.26 323.421L37.54 315.881C37.54 315.881 37.52 315.701 37.54 315.621L39.26 308.081C39.34 307.761 39.66 307.561 39.98 307.641C40.3 307.721 40.5 308.041 40.44 308.361L38.74 315.761L40.44 323.161C40.52 323.481 40.32 323.801 39.98 323.881C39.94 323.881 39.88 323.881 39.84 323.881Z" fill="black"/>
<path d="M39.84 323.881C39.84 323.881 39.74 323.881 39.7 323.881C39.38 323.801 39.18 323.481 39.24 323.161L40.94 315.761L39.24 308.361C39.16 308.041 39.36 307.721 39.7 307.641C40.04 307.561 40.34 307.761 40.42 308.081L42.14 315.621C42.14 315.621 42.16 315.801 42.14 315.881L40.42 323.421C40.36 323.701 40.12 323.881 39.84 323.881Z" fill="black"/>
<path d="M121.92 336.041H116.34C116.34 336.041 116.22 336.041 116.16 336.021L105.76 332.621C105.44 332.521 105.28 332.181 105.38 331.861C105.48 331.541 105.82 331.381 106.14 331.481L116.46 334.861H121.94C122.26 334.861 122.54 335.121 122.54 335.461C122.54 335.801 122.26 336.061 121.94 336.061" fill="black"/>
<path d="M127.5 336.039H121.92C121.6 336.039 121.32 335.779 121.32 335.439C121.32 335.099 121.58 334.839 121.92 334.839H127.4L137.72 331.459C138.04 331.359 138.38 331.519 138.48 331.839C138.58 332.159 138.42 332.499 138.1 332.599L127.7 335.999C127.7 335.999 127.58 336.019 127.52 336.019" fill="black"/>
<path d="M123.12 270.099L128.08 335.399C128.08 335.399 128.08 335.459 128.08 335.499L123.22 393.559L137.28 332.059L123.12 270.119V270.099ZM121.92 402.539C121.92 402.539 121.86 402.539 121.82 402.539C121.5 402.499 121.28 402.219 121.32 401.899L126.9 335.439L121.32 262.179C121.3 261.859 121.52 261.579 121.82 261.539C122.12 261.479 122.42 261.699 122.5 261.999L138.48 331.919C138.48 331.919 138.5 332.099 138.48 332.179L122.5 402.099C122.44 402.379 122.2 402.559 121.92 402.559" fill="black"/>
<path d="M121.92 402.541C121.62 402.541 121.34 402.301 121.32 402.001L115.74 335.501C115.74 335.501 115.74 335.441 115.74 335.401L121.32 262.081C121.34 261.761 121.64 261.501 121.96 261.521C122.28 261.541 122.54 261.841 122.52 262.161L116.94 335.421L122.52 401.881C122.54 402.221 122.3 402.501 121.98 402.521H121.94" fill="black"/>
<path d="M121.92 402.86C120.8 402.86 119.88 403.78 119.88 404.9C119.88 406.02 120.8 406.94 121.92 406.94C123.04 406.94 123.96 406.02 123.96 404.9C123.96 403.78 123.04 402.86 121.92 402.86ZM121.92 408.14C120.14 408.14 118.68 406.68 118.68 404.9C118.68 403.12 120.14 401.66 121.92 401.66C123.7 401.66 125.16 403.12 125.16 404.9C125.16 406.68 123.7 408.14 121.92 408.14Z" fill="black"/>
<path d="M121.92 411.479C121.18 411.479 120.58 412.079 120.58 412.819C120.58 413.559 121.18 414.159 121.92 414.159C122.66 414.159 123.26 413.559 123.26 412.819C123.26 412.079 122.66 411.479 121.92 411.479ZM121.92 415.359C120.52 415.359 119.38 414.219 119.38 412.819C119.38 411.419 120.52 410.279 121.92 410.279C123.32 410.279 124.46 411.419 124.46 412.819C124.46 414.219 123.32 415.359 121.92 415.359Z" fill="black"/>
<path d="M119.98 448.821C119.98 447.741 120.84 446.881 121.92 446.881C123 446.881 123.86 447.741 123.86 448.821C123.86 449.901 123 450.761 121.92 450.761C120.84 450.761 119.98 449.901 119.98 448.821Z" fill="black"/>
<path d="M120.92 455.461C120.92 454.901 121.36 454.461 121.92 454.461C122.48 454.461 122.92 454.921 122.92 455.461C122.92 456.001 122.48 456.461 121.92 456.461C121.36 456.461 120.92 456.001 120.92 455.461Z" fill="black"/>
<path d="M120.92 442.82C120.92 442.26 121.36 441.82 121.92 441.82C122.48 441.82 122.92 442.28 122.92 442.82C122.92 443.36 122.48 443.82 121.92 443.82C121.36 443.82 120.92 443.36 120.92 442.82Z" fill="black"/>
<path d="M121.92 423.02C121.58 423.02 121.32 422.76 121.32 422.42V414.78C121.32 414.44 121.6 414.18 121.92 414.18C122.24 414.18 122.52 414.44 122.52 414.78V422.42C122.52 422.76 122.24 423.02 121.92 423.02Z" fill="black"/>
<path d="M121.92 438.101C121.64 438.101 121.4 437.921 121.34 437.641L119.62 430.101C119.62 430.101 119.6 429.921 119.62 429.841L121.34 422.301C121.42 421.981 121.74 421.781 122.06 421.841C122.38 421.921 122.58 422.241 122.52 422.561L120.82 429.961L122.52 437.361C122.6 437.681 122.4 438.001 122.06 438.081C122.02 438.081 121.96 438.081 121.92 438.081" fill="black"/>
<path d="M121.92 438.099C121.92 438.099 121.84 438.099 121.78 438.099C121.46 438.019 121.26 437.699 121.32 437.379L123.02 429.979L121.32 422.579C121.24 422.259 121.44 421.939 121.78 421.859C122.1 421.779 122.42 421.979 122.5 422.319L124.22 429.859C124.22 429.859 124.24 430.039 124.22 430.119L122.5 437.659C122.44 437.939 122.2 438.119 121.92 438.119" fill="black"/>
<path d="M207.82 158.46H199.62C199.28 158.46 199.02 158.2 199.02 157.86C199.02 157.52 199.28 157.26 199.62 157.26H207.82C208.14 157.26 208.42 157.52 208.42 157.86C208.42 158.2 208.14 158.46 207.82 158.46Z" fill="black"/>
<path d="M43.96 158.46H35.76C35.42 158.46 35.16 158.2 35.16 157.86C35.16 157.52 35.42 157.26 35.76 157.26H43.96C44.28 157.26 44.56 157.52 44.56 157.86C44.56 158.2 44.28 158.46 43.96 158.46Z" fill="black"/>
<path d="M224.78 216.321C224.54 216.321 224.32 216.181 224.22 215.941L203.46 163.541C203.34 163.241 203.48 162.881 203.8 162.761C204.1 162.641 204.46 162.801 204.58 163.101L225.34 215.501C225.46 215.801 225.32 216.161 225 216.281C224.92 216.301 224.86 216.321 224.78 216.321Z" fill="black"/>
<path d="M182.58 216.321C182.58 216.321 182.44 216.321 182.36 216.281C182.06 216.161 181.9 215.821 182.02 215.501L202.78 163.101C202.9 162.801 203.24 162.641 203.56 162.761C203.86 162.881 204.02 163.241 203.9 163.541L183.14 215.941C183.04 216.181 182.82 216.321 182.58 216.321Z" fill="black"/>
<path d="M60.96 216.321C60.72 216.321 60.5 216.181 60.4 215.941L39.64 163.541C39.52 163.241 39.66 162.881 39.98 162.761C40.28 162.641 40.64 162.801 40.76 163.101L61.52 215.501C61.64 215.801 61.5 216.161 61.18 216.281C61.1 216.301 61.04 216.321 60.96 216.321Z" fill="black"/>
<path d="M18.74 216.321C18.74 216.321 18.6 216.321 18.52 216.281C18.22 216.161 18.06 215.821 18.18 215.501L38.94 163.101C39.06 162.801 39.4 162.641 39.72 162.761C40.02 162.881 40.18 163.241 40.06 163.541L19.3 215.941C19.2 216.181 18.98 216.321 18.74 216.321Z" fill="black"/>
<path d="M158.28 125.201C157.94 125.201 157.68 124.941 157.68 124.601C157.68 104.921 141.68 88.9207 122 88.9207C102.32 88.9207 86.32 104.921 86.32 124.601C86.32 124.941 86.06 125.201 85.72 125.201C85.38 125.201 85.12 124.941 85.12 124.601C85.12 104.261 101.66 87.7207 122 87.7207C142.34 87.7207 158.88 104.261 158.88 124.601C158.88 124.941 158.6 125.201 158.28 125.201Z" fill="black"/>
<path d="M153.26 146.201C153.16 146.201 153.06 146.181 152.96 146.121C152.68 145.961 152.58 145.581 152.74 145.301C152.8 145.221 152.84 145.121 152.9 145.041C153.06 144.761 153.44 144.661 153.72 144.821C154 144.981 154.1 145.361 153.94 145.641C153.88 145.741 153.84 145.821 153.78 145.921C153.66 146.121 153.46 146.221 153.26 146.221M91.08 146.801C90.88 146.801 90.68 146.701 90.56 146.521C90 145.601 89.46 144.641 88.98 143.681C88.84 143.381 88.96 143.021 89.24 142.881C89.54 142.741 89.9 142.861 90.04 143.141C90.5 144.081 91.02 145.001 91.56 145.881C91.74 146.161 91.64 146.541 91.36 146.701C91.26 146.761 91.16 146.781 91.04 146.781M149.76 151.081C149.62 151.081 149.48 151.041 149.38 150.941C149.12 150.721 149.1 150.361 149.3 150.101C149.98 149.301 150.62 148.461 151.22 147.601C151.42 147.341 151.78 147.261 152.06 147.461C152.34 147.661 152.4 148.021 152.2 148.301C151.58 149.181 150.92 150.061 150.22 150.881C150.1 151.021 149.92 151.101 149.76 151.101M94.58 151.621C94.42 151.621 94.24 151.561 94.12 151.421C93.42 150.601 92.74 149.761 92.1 148.881C91.9 148.621 91.96 148.241 92.24 148.041C92.5 147.841 92.88 147.901 93.08 148.181C93.7 149.021 94.36 149.861 95.04 150.641C95.26 150.881 95.24 151.261 94.98 151.481C94.86 151.581 94.72 151.621 94.58 151.621ZM145.56 155.361C145.4 155.361 145.22 155.281 145.1 155.161C144.88 154.921 144.92 154.541 145.16 154.321C145.96 153.641 146.72 152.921 147.46 152.181C147.68 151.941 148.06 151.941 148.3 152.181C148.54 152.421 148.54 152.781 148.3 153.021C147.54 153.781 146.74 154.541 145.94 155.241C145.82 155.341 145.68 155.381 145.54 155.381M98.86 155.821C98.72 155.821 98.58 155.781 98.48 155.681C97.64 155.001 96.84 154.261 96.08 153.501C95.84 153.261 95.84 152.881 96.08 152.661C96.32 152.441 96.7 152.421 96.92 152.661C97.66 153.401 98.46 154.101 99.26 154.761C99.52 154.961 99.56 155.341 99.34 155.601C99.22 155.741 99.06 155.821 98.88 155.821M140.72 158.881C140.52 158.881 140.32 158.781 140.2 158.601C140.02 158.321 140.12 157.941 140.4 157.781C141.3 157.241 142.18 156.661 143.02 156.041C143.28 155.841 143.66 155.901 143.86 156.181C144.06 156.441 144 156.821 143.72 157.021C142.86 157.661 141.94 158.261 141.02 158.821C140.92 158.881 140.82 158.901 140.72 158.901M103.8 159.241C103.7 159.241 103.6 159.221 103.5 159.161C102.56 158.621 101.64 158.021 100.76 157.401C100.48 157.201 100.42 156.841 100.62 156.561C100.82 156.281 101.18 156.221 101.46 156.421C102.32 157.021 103.2 157.601 104.1 158.121C104.38 158.281 104.48 158.661 104.32 158.941C104.22 159.141 104 159.241 103.8 159.241ZM135.36 161.561C135.12 161.561 134.9 161.421 134.8 161.181C134.68 160.881 134.82 160.521 135.14 160.401C136.1 160.021 137.08 159.581 138 159.121C138.3 158.961 138.66 159.081 138.8 159.381C138.96 159.681 138.84 160.041 138.54 160.181C137.58 160.661 136.58 161.121 135.58 161.521C135.5 161.561 135.44 161.561 135.36 161.561ZM109.2 161.801C109.2 161.801 109.06 161.801 108.98 161.761C107.98 161.381 106.96 160.961 106 160.481C105.7 160.341 105.58 159.981 105.72 159.681C105.86 159.381 106.22 159.261 106.52 159.401C107.46 159.861 108.44 160.261 109.4 160.641C109.7 160.761 109.86 161.101 109.74 161.421C109.64 161.661 109.42 161.821 109.18 161.821M129.62 163.321C129.34 163.321 129.1 163.121 129.04 162.841C128.96 162.521 129.18 162.201 129.5 162.121C130.52 161.901 131.54 161.641 132.54 161.321C132.86 161.221 133.2 161.401 133.3 161.721C133.4 162.041 133.22 162.381 132.9 162.481C131.86 162.801 130.82 163.081 129.76 163.301C129.72 163.301 129.68 163.301 129.64 163.301M114.96 163.441C114.96 163.441 114.88 163.441 114.84 163.441C113.78 163.241 112.72 162.981 111.68 162.681C111.36 162.581 111.18 162.261 111.28 161.941C111.38 161.621 111.7 161.441 112.02 161.541C113.02 161.821 114.06 162.081 115.08 162.281C115.4 162.341 115.62 162.661 115.56 162.981C115.5 163.261 115.26 163.461 114.98 163.461M123.72 164.101C123.4 164.101 123.14 163.861 123.12 163.521C123.12 163.181 123.36 162.901 123.7 162.901C124.74 162.861 125.8 162.761 126.84 162.621C127.16 162.581 127.46 162.801 127.52 163.141C127.58 163.481 127.34 163.781 127 163.821C125.94 163.961 124.84 164.061 123.76 164.121H123.72M120.92 164.141C119.84 164.101 118.76 164.041 117.68 163.901C117.36 163.861 117.12 163.561 117.16 163.241C117.2 162.921 117.5 162.681 117.82 162.721C118.86 162.841 119.9 162.921 120.96 162.941C121.3 162.941 121.56 163.221 121.54 163.561C121.54 163.881 121.26 164.141 120.94 164.141" fill="black"/>
<path d="M200.1 114.2H43.58C43.26 114.2 42.98 113.94 42.98 113.6C42.98 113.26 43.24 113 43.58 113H200.1C200.42 113 200.7 113.26 200.7 113.6C200.7 113.94 200.42 114.2 200.1 114.2Z" fill="black"/>
<path d="M85.72 125.839C82.44 125.839 79.78 128.499 79.78 131.779C79.78 131.999 79.78 132.219 79.82 132.439C81.12 130.519 83.34 129.319 85.72 129.319C88.1 129.319 90.28 130.479 91.62 132.319C91.62 132.139 91.64 131.959 91.64 131.779C91.64 128.519 88.98 125.839 85.7 125.839M79.6 134.699C79.36 134.699 79.12 134.539 79.04 134.319C78.72 133.499 78.58 132.639 78.58 131.759C78.58 127.819 81.78 124.619 85.72 124.619C89.66 124.619 92.86 127.819 92.86 131.759C92.86 132.579 92.72 133.379 92.46 134.139C92.38 134.379 92.16 134.539 91.92 134.539C91.66 134.539 91.44 134.399 91.34 134.179C90.42 132.019 88.12 130.499 85.74 130.499C83.36 130.499 81.08 132.019 80.2 134.299C80.12 134.519 79.92 134.679 79.68 134.699H79.64" fill="black"/>
<path d="M83.68 135.399C83.68 134.279 84.6 133.359 85.72 133.359C86.84 133.359 87.76 134.279 87.76 135.399C87.76 136.519 86.84 137.439 85.72 137.439C84.6 137.439 83.68 136.519 83.68 135.399Z" fill="black"/>
<path d="M84.96 140.901C84.96 140.481 85.3 140.141 85.72 140.141C86.14 140.141 86.5 140.481 86.5 140.901C86.5 141.321 86.16 141.681 85.72 141.681C85.28 141.681 84.96 141.341 84.96 140.901Z" fill="black"/>
<path d="M84.96 143.42C84.96 143 85.3 142.66 85.72 142.66C86.14 142.66 86.5 143 86.5 143.42C86.5 143.84 86.16 144.2 85.72 144.2C85.28 144.2 84.96 143.86 84.96 143.42Z" fill="black"/>
<path d="M84.96 145.959C84.96 145.539 85.3 145.199 85.72 145.199C86.14 145.199 86.5 145.539 86.5 145.959C86.5 146.379 86.16 146.739 85.72 146.739C85.28 146.739 84.96 146.399 84.96 145.959Z" fill="black"/>
<path d="M84.96 148.5C84.96 148.08 85.3 147.74 85.72 147.74C86.14 147.74 86.5 148.08 86.5 148.5C86.5 148.92 86.16 149.28 85.72 149.28C85.28 149.28 84.96 148.94 84.96 148.5Z" fill="black"/>
<path d="M84.96 151.039C84.96 150.619 85.3 150.279 85.72 150.279C86.14 150.279 86.5 150.619 86.5 151.039C86.5 151.459 86.16 151.819 85.72 151.819C85.28 151.819 84.96 151.479 84.96 151.039Z" fill="black"/>
<path d="M84.96 153.561C84.96 153.141 85.3 152.801 85.72 152.801C86.14 152.801 86.5 153.141 86.5 153.561C86.5 153.981 86.16 154.341 85.72 154.341C85.28 154.341 84.96 154.001 84.96 153.561Z" fill="black"/>
<path d="M84.96 156.1C84.96 155.68 85.3 155.34 85.72 155.34C86.14 155.34 86.5 155.68 86.5 156.1C86.5 156.52 86.16 156.88 85.72 156.88C85.28 156.88 84.96 156.54 84.96 156.1Z" fill="black"/>
<path d="M84.96 158.641C84.96 158.221 85.3 157.881 85.72 157.881C86.14 157.881 86.5 158.221 86.5 158.641C86.5 159.061 86.16 159.421 85.72 159.421C85.28 159.421 84.96 159.081 84.96 158.641Z" fill="black"/>
<path d="M158.28 125.839C155 125.839 152.34 128.499 152.34 131.779C152.34 131.999 152.34 132.219 152.38 132.439C153.68 130.519 155.9 129.319 158.28 129.319C160.66 129.319 162.84 130.479 164.18 132.319C164.18 132.139 164.2 131.959 164.2 131.779C164.2 128.519 161.54 125.839 158.26 125.839M152.16 134.699C151.92 134.699 151.68 134.559 151.6 134.319C151.28 133.499 151.14 132.639 151.14 131.759C151.14 127.819 154.34 124.619 158.28 124.619C162.22 124.619 165.42 127.819 165.42 131.759C165.42 132.579 165.28 133.379 165.02 134.139C164.94 134.379 164.72 134.539 164.48 134.539C164.24 134.539 164 134.399 163.9 134.179C162.98 132.019 160.68 130.499 158.3 130.499C155.92 130.499 153.64 132.019 152.76 134.299C152.68 134.519 152.5 134.659 152.28 134.699C152.26 134.699 152.22 134.699 152.2 134.699" fill="black"/>
<path d="M156.24 135.399C156.24 134.279 157.16 133.359 158.28 133.359C159.4 133.359 160.32 134.279 160.32 135.399C160.32 136.519 159.4 137.439 158.28 137.439C157.16 137.439 156.24 136.519 156.24 135.399Z" fill="black"/>
<path d="M157.5 140.901C157.5 140.481 157.84 140.141 158.26 140.141C158.68 140.141 159.04 140.481 159.04 140.901C159.04 141.321 158.7 141.681 158.26 141.681C157.82 141.681 157.5 141.341 157.5 140.901Z" fill="black"/>
<path d="M157.5 143.42C157.5 143 157.84 142.66 158.26 142.66C158.68 142.66 159.04 143 159.04 143.42C159.04 143.84 158.7 144.2 158.26 144.2C157.82 144.2 157.5 143.86 157.5 143.42Z" fill="black"/>
<path d="M157.5 145.959C157.5 145.539 157.84 145.199 158.26 145.199C158.68 145.199 159.04 145.539 159.04 145.959C159.04 146.379 158.7 146.739 158.26 146.739C157.82 146.739 157.5 146.399 157.5 145.959Z" fill="black"/>
<path d="M157.5 148.5C157.5 148.08 157.84 147.74 158.26 147.74C158.68 147.74 159.04 148.08 159.04 148.5C159.04 148.92 158.7 149.28 158.26 149.28C157.82 149.28 157.5 148.94 157.5 148.5Z" fill="black"/>
<path d="M157.5 151.039C157.5 150.619 157.84 150.279 158.26 150.279C158.68 150.279 159.04 150.619 159.04 151.039C159.04 151.459 158.7 151.819 158.26 151.819C157.82 151.819 157.5 151.479 157.5 151.039Z" fill="black"/>
<path d="M157.5 153.561C157.5 153.141 157.84 152.801 158.26 152.801C158.68 152.801 159.04 153.141 159.04 153.561C159.04 153.981 158.7 154.341 158.26 154.341C157.82 154.341 157.5 154.001 157.5 153.561Z" fill="black"/>
<path d="M157.5 156.1C157.5 155.68 157.84 155.34 158.26 155.34C158.68 155.34 159.04 155.68 159.04 156.1C159.04 156.52 158.7 156.88 158.26 156.88C157.82 156.88 157.5 156.54 157.5 156.1Z" fill="black"/>
<path d="M157.5 158.641C157.5 158.221 157.84 157.881 158.26 157.881C158.68 157.881 159.04 158.221 159.04 158.641C159.04 159.061 158.7 159.421 158.26 159.421C157.82 159.421 157.5 159.081 157.5 158.641Z" fill="black"/>
<path d="M122 192.3C119.32 192.3 117.14 194.48 117.14 197.16C117.14 199.84 119.32 202.02 122 202.02C124.68 202.02 126.86 199.84 126.86 197.16C126.86 194.48 124.68 192.3 122 192.3ZM122 203.22C118.66 203.22 115.94 200.5 115.94 197.16C115.94 193.82 118.66 191.1 122 191.1C125.34 191.1 128.06 193.82 128.06 197.16C128.06 200.5 125.34 203.22 122 203.22Z" fill="black"/>
<path d="M118.3 197.161C118.3 195.121 119.96 193.461 122 193.461C124.04 193.461 125.7 195.121 125.7 197.161C125.7 199.201 124.04 200.861 122 200.861C119.96 200.861 118.3 199.201 118.3 197.161Z" fill="black"/>
<path d="M134.86 194.319C134.6 194.319 134.38 194.159 134.28 193.899C132.8 189.299 128.92 185.959 124.16 185.159C123.84 185.099 123.62 184.799 123.66 184.479C123.72 184.159 124.02 183.939 124.36 183.979C129.56 184.859 133.8 188.519 135.42 193.539C135.52 193.859 135.36 194.199 135.04 194.299C134.98 194.319 134.92 194.319 134.86 194.319Z" fill="black"/>
<path d="M109.16 194.32C109.16 194.32 109.04 194.32 108.98 194.3C108.66 194.2 108.5 193.86 108.6 193.54C110.2 188.58 114.38 184.94 119.5 184C119.82 183.94 120.14 184.16 120.2 184.48C120.26 184.8 120.04 185.12 119.72 185.18C115.04 186.02 111.22 189.36 109.76 193.9C109.68 194.16 109.44 194.32 109.2 194.32" fill="black"/>
<path d="M122 207.08C117.3 207.08 113.22 203.74 112.28 199.16C112.22 198.84 112.42 198.52 112.74 198.46C113.06 198.4 113.38 198.6 113.44 198.92C114.26 202.96 117.86 205.88 121.98 205.88C126.1 205.88 129.7 202.96 130.52 198.92C130.58 198.6 130.9 198.38 131.22 198.46C131.54 198.52 131.76 198.84 131.68 199.16C130.74 203.76 126.66 207.08 121.96 207.08" fill="black"/>
<path d="M122 31.9592C120.34 36.2592 117.4 44.2792 117.4 46.2992C117.4 48.8392 119.46 50.8992 122 50.8992C124.54 50.8992 126.6 48.8392 126.6 46.2992C126.6 44.2992 123.66 36.2792 122 31.9592ZM122 52.0792C118.8 52.0792 116.2 49.4792 116.2 46.2792C116.2 43.3392 121.22 30.6192 121.44 30.0792C121.54 29.8592 121.76 29.6992 122 29.6992C122.24 29.6992 122.46 29.8592 122.56 30.0792C122.78 30.6192 127.8 43.3192 127.8 46.2792C127.8 49.4792 125.2 52.0792 122 52.0792Z" fill="black"/>
<path d="M156.46 168.22C157.26 168.78 157.86 169.7 158.28 170.98C158.68 169.7 159.3 168.76 160.1 168.22C159.3 167.66 158.7 166.74 158.28 165.46C157.88 166.74 157.26 167.68 156.46 168.22ZM158.28 176.28C157.94 176.28 157.68 176.02 157.68 175.68C157.68 173.62 157.36 168.82 154.46 168.82C154.14 168.82 153.86 168.56 153.86 168.22C153.86 167.88 154.12 167.62 154.46 167.62C157.36 167.62 157.68 162.82 157.68 160.76C157.68 160.42 157.96 160.16 158.28 160.16C158.6 160.16 158.88 160.42 158.88 160.76C158.88 162.82 159.2 167.62 162.1 167.62C162.42 167.62 162.7 167.88 162.7 168.22C162.7 168.56 162.44 168.82 162.1 168.82C159.2 168.82 158.88 173.62 158.88 175.68C158.88 176.02 158.6 176.28 158.28 176.28Z" fill="black"/>
<path d="M120.18 12.7807C120.98 13.3407 121.58 14.2607 122 15.5407C122.4 14.2607 123.02 13.3207 123.82 12.7807C123.02 12.2207 122.42 11.3007 122 10.0207C121.6 11.3007 120.98 12.2407 120.18 12.7807ZM122 20.8407C121.66 20.8407 121.4 20.5807 121.4 20.2407C121.4 18.1807 121.08 13.3807 118.18 13.3807C117.86 13.3807 117.58 13.1207 117.58 12.7807C117.58 12.4407 117.84 12.1807 118.18 12.1807C121.08 12.1807 121.4 7.38071 121.4 5.32071C121.4 4.98071 121.68 4.7207 122 4.7207C122.32 4.7207 122.6 4.98071 122.6 5.32071C122.6 7.38071 122.92 12.1807 125.82 12.1807C126.14 12.1807 126.42 12.4407 126.42 12.7807C126.42 13.1207 126.16 13.3807 125.82 13.3807C122.92 13.3807 122.6 18.1807 122.6 20.2407C122.6 20.5807 122.32 20.8407 122 20.8407Z" fill="black"/>
<path d="M83.92 168.22C84.72 168.78 85.32 169.7 85.74 170.98C86.14 169.7 86.76 168.76 87.56 168.22C86.76 167.66 86.16 166.74 85.74 165.46C85.34 166.74 84.72 167.68 83.92 168.22ZM85.74 176.28C85.4 176.28 85.14 176.02 85.14 175.68C85.14 173.62 84.82 168.82 81.92 168.82C81.6 168.82 81.32 168.56 81.32 168.22C81.32 167.88 81.58 167.62 81.92 167.62C84.82 167.62 85.14 162.82 85.14 160.76C85.14 160.42 85.42 160.16 85.74 160.16C86.06 160.16 86.34 160.42 86.34 160.76C86.34 162.82 86.66 167.62 89.56 167.62C89.88 167.62 90.16 167.88 90.16 168.22C90.16 168.56 89.9 168.82 89.56 168.82C86.66 168.82 86.34 173.62 86.34 175.68C86.34 176.02 86.06 176.28 85.74 176.28Z" fill="black"/>
<path d="M104.4 48.1598C104.2 49.2398 104.1 50.3398 104.1 51.4398C104.1 61.2598 112.1 69.2598 121.92 69.2598C131.74 69.2598 139.74 61.2598 139.74 51.4398C139.74 50.3398 139.64 49.2398 139.44 48.1598C138.14 51.2198 136.02 53.9398 133.36 55.9598C130.04 58.4598 126.08 59.7798 121.92 59.7798C117.76 59.7798 113.8 58.4598 110.48 55.9598C107.8 53.9398 105.7 51.2198 104.4 48.1598ZM121.92 70.4598C111.42 70.4598 102.9 61.9198 102.9 51.4398C102.9 49.5598 103.18 47.6999 103.72 45.9199C103.8 45.6599 104.02 45.4998 104.3 45.4998C104.58 45.4998 104.8 45.6799 104.88 45.9199C105.96 49.4999 108.22 52.7198 111.22 54.9998C114.32 57.3398 118.04 58.5798 121.94 58.5798C125.84 58.5798 129.54 57.3398 132.66 54.9998C135.66 52.7398 137.92 49.5199 139 45.9199C139.1 45.5999 139.42 45.4198 139.74 45.5198C139.96 45.5798 140.1 45.7398 140.16 45.9398C140.7 47.7198 140.96 49.5598 140.96 51.4398C140.96 61.9198 132.42 70.4598 121.94 70.4598" fill="black"/>
<path d="M121.92 65.4806C111.86 65.4806 103.68 57.3006 103.68 47.2406C103.68 46.9006 103.94 46.6406 104.28 46.6406C104.62 46.6406 104.88 46.9006 104.88 47.2406C104.88 56.6406 112.52 64.2806 121.92 64.2806C131.32 64.2806 138.96 56.6406 138.96 47.2406C138.96 46.9006 139.22 46.6406 139.56 46.6406C139.9 46.6406 140.16 46.9006 140.16 47.2406C140.16 57.3006 131.98 65.4806 121.92 65.4806Z" fill="black"/>
<path d="M141.72 82.5598C141.54 82.5598 141.36 82.4798 141.24 82.3398L132.46 71.1598C132.26 70.8998 132.3 70.5198 132.56 70.3198C132.82 70.1198 133.2 70.1598 133.4 70.4198L142.18 81.5998C142.38 81.8598 142.34 82.2398 142.08 82.4398C141.96 82.5198 141.84 82.5598 141.72 82.5598Z" fill="black"/>
<path d="M147.7 73.9209C147.58 73.9209 147.44 73.8809 147.34 73.8009L138.42 67.0009C138.16 66.8009 138.1 66.4209 138.3 66.1609C138.5 65.9009 138.88 65.8409 139.14 66.0409L148.06 72.8409C148.32 73.0409 148.38 73.4209 148.18 73.6809C148.06 73.8409 147.88 73.9209 147.7 73.9209Z" fill="black"/>
<path d="M152.36 63.7997C152.36 63.7997 152.26 63.7997 152.22 63.7997L142.24 61.2597C141.92 61.1797 141.72 60.8597 141.8 60.5397C141.88 60.2197 142.2 60.0197 142.52 60.0997L152.5 62.6397C152.82 62.7197 153.02 63.0397 152.94 63.3597C152.88 63.6397 152.62 63.8197 152.36 63.8197" fill="black"/>
<path d="M151.44 53.9403C151.44 53.9403 151.4 53.9403 151.38 53.9403L143.92 53.2803C143.58 53.2403 143.34 52.9603 143.38 52.6203C143.4 52.3003 143.7 52.0402 144.02 52.0802L151.48 52.7402C151.82 52.7802 152.06 53.0603 152.02 53.4003C152 53.7203 151.74 53.9403 151.42 53.9403" fill="black"/>
<path d="M101.62 82.5598C101.48 82.5598 101.36 82.5198 101.24 82.4398C100.98 82.2398 100.94 81.8598 101.14 81.5998L109.92 70.4198C110.12 70.1598 110.5 70.1198 110.76 70.3198C111.02 70.5198 111.06 70.8998 110.86 71.1598L102.08 82.3398C101.96 82.4998 101.78 82.5598 101.6 82.5598" fill="black"/>
<path d="M95.64 73.9209C95.46 73.9209 95.28 73.8409 95.16 73.6809C94.96 73.4209 95.02 73.0409 95.28 72.8409L104.2 66.0409C104.46 65.8409 104.84 65.9009 105.04 66.1609C105.24 66.4209 105.2 66.8009 104.92 67.0009L96 73.8009C95.9 73.8809 95.76 73.9209 95.64 73.9209Z" fill="black"/>
<path d="M90.98 63.8001C90.72 63.8001 90.46 63.6202 90.4 63.3402C90.32 63.0202 90.52 62.7001 90.84 62.6201L100.82 60.0801C101.14 60.0001 101.46 60.2001 101.54 60.5201C101.62 60.8401 101.42 61.1601 101.1 61.2401L91.12 63.7802C91.12 63.7802 91.02 63.7802 90.98 63.7802" fill="black"/>
<path d="M91.9 53.9393C91.6 53.9393 91.34 53.6993 91.3 53.3993C91.26 53.0593 91.52 52.7793 91.84 52.7393L99.3 52.0793C99.62 52.0593 99.92 52.2993 99.94 52.6193C99.98 52.9593 99.72 53.2393 99.4 53.2793L91.94 53.9393C91.94 53.9393 91.9 53.9393 91.88 53.9393" fill="black"/>
<path d="M97.2 46.1C97.2 45.48 97.7 45 98.3 45C98.9 45 99.4 45.5 99.4 46.1C99.4 46.7 98.9 47.2 98.3 47.2C97.7 47.2 97.2 46.7 97.2 46.1Z" fill="black"/>
<path d="M143.98 46.1C143.98 45.48 144.48 45 145.08 45C145.68 45 146.18 45.5 146.18 46.1C146.18 46.7 145.68 47.2 145.08 47.2C144.48 47.2 143.98 46.7 143.98 46.1Z" fill="black"/>
<path d="M129.34 12.7608C129.34 12.2808 129.74 11.8809 130.22 11.8809C130.7 11.8809 131.1 12.2808 131.1 12.7608C131.1 13.2408 130.7 13.6409 130.22 13.6409C129.74 13.6409 129.34 13.2408 129.34 12.7608Z" fill="black"/>
<path d="M121.12 1.13977C121.12 0.659771 121.52 0.259766 122 0.259766C122.48 0.259766 122.88 0.659771 122.88 1.13977C122.88 1.61977 122.48 2.01978 122 2.01978C121.52 2.01978 121.12 1.61977 121.12 1.13977Z" fill="black"/>
<path d="M133.88 12.7607C133.88 12.4607 134.12 12.2207 134.42 12.2207C134.72 12.2207 134.96 12.4607 134.96 12.7607C134.96 13.0607 134.72 13.3007 134.42 13.3007C134.12 13.3007 133.88 13.0607 133.88 12.7607Z" fill="black"/>
<path d="M109.1 12.7607C109.1 12.4607 109.34 12.2207 109.64 12.2207C109.94 12.2207 110.18 12.4607 110.18 12.7607C110.18 13.0607 109.94 13.3007 109.64 13.3007C109.34 13.3007 109.1 13.0607 109.1 12.7607Z" fill="black"/>
<path d="M112.96 12.7608C112.96 12.2808 113.36 11.8809 113.84 11.8809C114.32 11.8809 114.72 12.2808 114.72 12.7608C114.72 13.2408 114.32 13.6409 113.84 13.6409C113.36 13.6409 112.96 13.2408 112.96 12.7608Z" fill="black"/>
<path d="M122 24.3797C121.22 24.3797 120.6 24.9997 120.6 25.7797C120.6 26.5597 121.22 27.1797 122 27.1797C122.78 27.1797 123.4 26.5597 123.4 25.7797C123.4 24.9997 122.78 24.3797 122 24.3797ZM122 28.3797C120.56 28.3797 119.4 27.2197 119.4 25.7797C119.4 24.3397 120.56 23.1797 122 23.1797C123.44 23.1797 124.6 24.3397 124.6 25.7797C124.6 27.2197 123.44 28.3797 122 28.3797Z" fill="black"/>
<path d="M122 30.9001C121.66 30.9001 121.4 30.6401 121.4 30.3001V27.7601C121.4 27.4201 121.68 27.1602 122 27.1602C122.32 27.1602 122.6 27.4201 122.6 27.7601V30.3001C122.6 30.6401 122.32 30.9001 122 30.9001Z" fill="black"/>
<path d="M122 24.3792C121.66 24.3792 121.4 24.1191 121.4 23.7791V20.2191C121.4 19.8991 121.68 19.6191 122 19.6191C122.32 19.6191 122.6 19.8791 122.6 20.2191V23.7791C122.6 24.1191 122.32 24.3792 122 24.3792Z" fill="black"/>
<path d="M121.92 180.92C121.06 182.06 120.14 183.54 120.14 184.18C120.14 185.16 120.94 185.96 121.92 185.96C122.9 185.96 123.7 185.16 123.7 184.18C123.7 183.54 122.78 182.06 121.92 180.92ZM121.92 187.14C120.28 187.14 118.94 185.8 118.94 184.16C118.94 182.7 121.04 180.06 121.46 179.56C121.58 179.42 121.74 179.34 121.92 179.34C122.1 179.34 122.26 179.42 122.38 179.56C122.8 180.08 124.9 182.72 124.9 184.16C124.9 185.8 123.56 187.14 121.92 187.14Z" fill="black"/>
<path d="M121.92 173.641C121.06 174.781 120.14 176.261 120.14 176.901C120.14 177.881 120.94 178.681 121.92 178.681C122.9 178.681 123.7 177.881 123.7 176.901C123.7 176.261 122.78 174.781 121.92 173.641ZM121.92 179.861C120.28 179.861 118.94 178.521 118.94 176.881C118.94 175.421 121.04 172.781 121.46 172.281C121.58 172.141 121.74 172.061 121.92 172.061C122.1 172.061 122.26 172.141 122.38 172.281C122.8 172.801 124.9 175.441 124.9 176.881C124.9 178.521 123.56 179.861 121.92 179.861Z" fill="black"/>
<path d="M121.92 167.041C121.06 168.181 120.14 169.661 120.14 170.301C120.14 171.281 120.94 172.081 121.92 172.081C122.9 172.081 123.7 171.281 123.7 170.301C123.7 169.661 122.78 168.181 121.92 167.041ZM121.92 173.261C120.28 173.261 118.94 171.921 118.94 170.281C118.94 168.821 121.04 166.181 121.46 165.681C121.58 165.541 121.74 165.461 121.92 165.461C122.1 165.461 122.26 165.541 122.38 165.681C122.8 166.201 124.9 168.841 124.9 170.281C124.9 171.921 123.56 173.261 121.92 173.261Z" fill="black"/>
<path d="M134.86 194.479C134.56 194.479 134.3 194.719 134.3 195.019C134.3 195.319 134.54 195.579 134.86 195.579C135.18 195.579 135.4 195.339 135.4 195.019C135.4 194.699 135.16 194.479 134.86 194.479ZM134.86 196.779C133.9 196.779 133.12 195.999 133.12 195.019C133.12 194.039 133.9 193.279 134.86 193.279C135.82 193.279 136.6 194.059 136.6 195.019C136.6 195.979 135.82 196.779 134.86 196.779Z" fill="black"/>
<path d="M132.28 198.479C131.98 198.479 131.72 198.719 131.72 199.019C131.72 199.319 131.96 199.579 132.28 199.579C132.6 199.579 132.82 199.339 132.82 199.019C132.82 198.699 132.58 198.479 132.28 198.479ZM132.28 200.779C131.32 200.779 130.54 199.999 130.54 199.019C130.54 198.039 131.32 197.279 132.28 197.279C133.24 197.279 134.02 198.059 134.02 199.019C134.02 199.979 133.24 200.779 132.28 200.779Z" fill="black"/>
<path d="M111.72 198.479C111.42 198.479 111.16 198.719 111.16 199.019C111.16 199.319 111.4 199.579 111.72 199.579C112.04 199.579 112.26 199.339 112.26 199.019C112.26 198.699 112.02 198.479 111.72 198.479ZM111.72 200.779C110.76 200.779 109.96 199.999 109.96 199.019C109.96 198.039 110.74 197.279 111.72 197.279C112.7 197.279 113.48 198.059 113.48 199.019C113.48 199.979 112.7 200.779 111.72 200.779Z" fill="black"/>
<path d="M109.16 194.479C108.86 194.479 108.6 194.719 108.6 195.019C108.6 195.319 108.84 195.579 109.16 195.579C109.48 195.579 109.7 195.339 109.7 195.019C109.7 194.699 109.46 194.479 109.16 194.479ZM109.16 196.779C108.2 196.779 107.4 195.999 107.4 195.019C107.4 194.039 108.18 193.279 109.16 193.279C110.14 193.279 110.9 194.059 110.9 195.019C110.9 195.979 110.12 196.779 109.16 196.779Z" fill="black"/>
<path d="M121.92 229.959C121.78 229.959 121.64 229.919 121.52 229.799L117.26 226.019C117.02 225.799 116.98 225.419 117.2 225.179C117.42 224.939 117.8 224.899 118.04 225.119L122.3 228.899C122.54 229.119 122.58 229.499 122.36 229.739C122.24 229.879 122.08 229.939 121.92 229.939" fill="black"/>
<path d="M121.92 229.96C121.76 229.96 121.58 229.9 121.48 229.76C121.26 229.52 121.28 229.14 121.54 228.92L125.8 225.14C126.04 224.92 126.42 224.94 126.64 225.2C126.86 225.44 126.84 225.82 126.6 226.04L122.34 229.82C122.22 229.92 122.08 229.98 121.94 229.98" fill="black"/>
<path d="M121.92 234.36C121.78 234.36 121.64 234.32 121.52 234.2L117.26 230.42C117.02 230.2 116.98 229.82 117.2 229.58C117.42 229.34 117.8 229.3 118.04 229.52L122.3 233.3C122.54 233.52 122.58 233.9 122.36 234.14C122.24 234.28 122.08 234.34 121.92 234.34" fill="black"/>
<path d="M121.92 234.36C121.76 234.36 121.58 234.3 121.48 234.16C121.26 233.92 121.28 233.54 121.54 233.32L125.8 229.54C126.04 229.32 126.42 229.34 126.64 229.6C126.86 229.84 126.84 230.22 126.6 230.44L122.34 234.22C122.22 234.32 122.08 234.38 121.94 234.38" fill="black"/>
<path d="M121.92 192.301C121.58 192.301 121.32 192.041 121.32 191.701V186.561C121.32 186.221 121.6 185.961 121.92 185.961C122.24 185.961 122.52 186.221 122.52 186.561V191.701C122.52 192.041 122.24 192.301 121.92 192.301Z" fill="black"/>
<path d="M123.92 102.1C123.92 102.1 123.86 102.1 123.82 102.1C122.82 101.94 121.8 101.92 120.78 102.02C120.46 102.06 120.16 101.82 120.12 101.48C120.08 101.16 120.32 100.86 120.66 100.82C121.76 100.7 122.9 100.74 124 100.9C124.32 100.96 124.54 101.26 124.5 101.58C124.46 101.88 124.2 102.08 123.9 102.08M115.14 104.02C114.94 104.02 114.76 103.92 114.64 103.76C114.46 103.48 114.52 103.12 114.8 102.92C115.72 102.3 116.74 101.78 117.78 101.42C118.1 101.32 118.44 101.48 118.54 101.8C118.64 102.12 118.48 102.46 118.16 102.56C117.2 102.88 116.3 103.34 115.46 103.92C115.36 103.98 115.24 104.02 115.12 104.02M129.34 104.4C129.22 104.4 129.08 104.36 128.98 104.28C128.18 103.66 127.28 103.16 126.34 102.78C126.04 102.66 125.88 102.3 126 102C126.12 101.7 126.48 101.54 126.78 101.66C127.82 102.08 128.8 102.64 129.68 103.3C129.94 103.5 130 103.88 129.8 104.14C129.68 104.3 129.5 104.38 129.32 104.38M111.12 108.42C111.12 108.42 110.92 108.4 110.84 108.36C110.54 108.2 110.44 107.84 110.6 107.54C111.12 106.56 111.78 105.64 112.54 104.82C112.76 104.58 113.14 104.56 113.38 104.78C113.62 105 113.64 105.38 113.42 105.62C112.72 106.36 112.14 107.2 111.66 108.08C111.56 108.28 111.34 108.4 111.12 108.4M133.04 108.98C132.82 108.98 132.6 108.86 132.5 108.64C132.08 107.72 131.52 106.86 130.86 106.08C130.64 105.82 130.68 105.44 130.94 105.24C131.2 105.02 131.58 105.06 131.78 105.32C132.5 106.18 133.1 107.12 133.58 108.14C133.72 108.44 133.58 108.8 133.3 108.94C133.22 108.98 133.14 109 133.04 109M109.68 114.18C109.34 114.18 109.08 113.92 109.08 113.58C109.08 112.46 109.22 111.34 109.52 110.26C109.6 109.94 109.94 109.74 110.26 109.84C110.58 109.92 110.78 110.26 110.68 110.58C110.42 111.56 110.28 112.56 110.28 113.58C110.28 113.92 110 114.18 109.68 114.18ZM134.16 114.82C134.16 114.82 134.14 114.82 134.12 114.82C133.8 114.82 133.54 114.52 133.56 114.2C133.56 114 133.56 113.8 133.56 113.6C133.56 112.78 133.48 111.98 133.32 111.18C133.26 110.86 133.46 110.54 133.78 110.48C134.1 110.42 134.42 110.62 134.48 110.94C134.66 111.8 134.76 112.7 134.76 113.6C134.76 113.82 134.76 114.04 134.76 114.28C134.76 114.6 134.48 114.84 134.16 114.84M110.72 119.16C110.5 119.16 110.28 119.02 110.18 118.8C109.72 117.78 109.4 116.7 109.24 115.6C109.2 115.28 109.42 114.96 109.74 114.92C110.06 114.88 110.38 115.1 110.42 115.42C110.58 116.42 110.86 117.4 111.28 118.32C111.42 118.62 111.28 118.98 110.98 119.12C110.9 119.16 110.82 119.18 110.74 119.18M132.46 120.52C132.36 120.52 132.24 120.5 132.16 120.44C131.88 120.26 131.78 119.9 131.96 119.62C132.48 118.76 132.9 117.82 133.18 116.84C133.28 116.52 133.6 116.34 133.92 116.44C134.24 116.54 134.42 116.86 134.32 117.18C134.02 118.26 133.56 119.28 132.98 120.24C132.86 120.42 132.66 120.54 132.46 120.54M114.4 123.86C114.28 123.86 114.14 123.82 114.04 123.74C113.16 123.06 112.38 122.24 111.7 121.36C111.5 121.1 111.56 120.72 111.82 120.52C112.08 120.32 112.46 120.38 112.66 120.64C113.26 121.46 113.98 122.18 114.78 122.8C115.04 123 115.08 123.38 114.88 123.64C114.76 123.8 114.58 123.86 114.4 123.86ZM128.28 124.72C128.08 124.72 127.88 124.62 127.76 124.44C127.58 124.16 127.68 123.78 127.96 123.62C128.82 123.1 129.62 122.46 130.34 121.74C130.56 121.5 130.94 121.5 131.18 121.74C131.42 121.96 131.42 122.34 131.18 122.58C130.4 123.38 129.52 124.08 128.56 124.66C128.46 124.72 128.36 124.74 128.26 124.74M119.8 126.3C119.8 126.3 119.74 126.3 119.7 126.3C118.6 126.1 117.52 125.76 116.52 125.3C116.22 125.16 116.1 124.8 116.24 124.5C116.38 124.2 116.74 124.08 117.04 124.22C117.96 124.64 118.94 124.96 119.92 125.14C120.24 125.2 120.46 125.5 120.4 125.84C120.36 126.12 120.1 126.34 119.8 126.34M122.58 126.52C122.26 126.52 122 126.28 121.98 125.96C121.98 125.62 122.22 125.34 122.54 125.32C123.56 125.26 124.56 125.08 125.52 124.78C125.84 124.68 126.18 124.86 126.28 125.16C126.38 125.48 126.2 125.82 125.9 125.92C124.84 126.26 123.74 126.46 122.62 126.52H122.58Z" fill="black"/>
<path d="M115.78 113.599C115.78 110.159 118.56 107.359 122.02 107.359C125.48 107.359 128.24 110.159 128.24 113.599C128.24 117.039 125.46 119.839 122.02 119.839C118.58 119.839 115.78 117.059 115.78 113.599Z" fill="black"/>
</svg>
