<svg width="450" height="244" viewBox="0 0 450 244" fill="none" xmlns="http://www.w3.org/2000/svg">
<path d="M36.5 194.8L40 200.8H33L36.5 194.8Z" fill="url(#paint0_diamond)"/>
<path opacity="0.756522" d="M46.2527 160.9L56.9185 153.995L46.4132 148.195L46.2527 160.9Z" fill="url(#paint1_diamond)"/>
<path opacity="0.778751" d="M220.227 205.054L219.954 192.351L209.501 198.243L220.227 205.054Z" fill="url(#paint2_diamond)"/>
<path opacity="0.469432" d="M281.019 161.523L274.147 172.21L286.109 173.164L281.019 161.523Z" fill="url(#paint3_diamond)"/>
<path opacity="0.45184" d="M384.805 191.711L372.602 195.253L380.993 203.831L384.805 191.711Z" fill="url(#paint4_diamond)"/>
<path opacity="0.16051" d="M351.496 169.979L362.153 176.898L363.16 164.941L351.496 169.979Z" fill="url(#paint5_diamond)"/>
<path opacity="0.529213" d="M392.419 176.069L386.633 164.757L379.796 174.619L392.419 176.069Z" fill="url(#paint6_diamond)"/>
<path opacity="0.25489" d="M36.8532 231.084L37.4629 243.775L47.7566 237.607L36.8532 231.084Z" fill="url(#paint7_diamond)"/>
<path opacity="0.879177" d="M376.046 185.741L371.476 197.597L383.384 196.114L376.046 185.741Z" fill="url(#paint8_diamond)"/>
<path opacity="0.958371" d="M349.398 200.617L348.883 213.312L359.682 208.079L349.398 200.617Z" fill="url(#paint9_diamond)"/>
<path d="M171.819 216.915L160.778 223.203L170.937 229.591L171.819 216.915Z" fill="url(#paint10_diamond)"/>
<path opacity="0.884851" d="M23.6479 198.712L23.3582 211.415L34.0624 205.991L23.6479 198.712Z" fill="url(#paint11_diamond)"/>
<path opacity="0.364684" d="M237.359 146.612L224.662 146.154L229.943 156.929L237.359 146.612Z" fill="url(#paint12_diamond)"/>
<path opacity="0.109255" d="M60.9991 164.106L67.1964 153.014L55.1983 152.802L60.9991 164.106Z" fill="url(#paint13_diamond)"/>
<path opacity="0.206147" d="M106.985 181.425L113.762 170.677L101.792 169.828L106.985 181.425Z" fill="url(#paint14_diamond)"/>
<path opacity="0.410868" d="M87.9656 163.736L76.8381 169.869L86.907 176.398L87.9656 163.736Z" fill="url(#paint15_diamond)"/>
<path opacity="0.0456291" d="M233.876 190.266L246.582 190.162L240.829 179.631L233.876 190.266Z" fill="url(#paint16_diamond)"/>
<path opacity="0.152838" d="M375 219.947L368.901 231.093L380.901 231.2L375 219.947Z" fill="url(#paint17_diamond)"/>
<path opacity="0.324199" d="M128.254 178.273L119.284 187.271L130.775 190.726L128.254 178.273Z" fill="url(#paint18_diamond)"/>
<path opacity="0.885527" d="M240.372 183.08L238.626 195.665L249.882 191.506L240.372 183.08Z" fill="url(#paint19_diamond)"/>
<path opacity="0.82524" d="M388.826 224.962L377.981 231.581L388.328 237.658L388.826 224.962Z" fill="url(#paint20_diamond)"/>
<path opacity="0.208063" d="M285.03 231.089L275.027 223.255L272.966 235.077L285.03 231.089Z" fill="url(#paint21_diamond)"/>
<path opacity="0.348793" d="M119.79 156.426L122.641 144.044L111.061 147.192L119.79 156.426Z" fill="url(#paint22_diamond)"/>
<path opacity="0.475618" d="M355.675 147.258L350.498 135.654L343.147 145.139L355.675 147.258Z" fill="url(#paint23_diamond)"/>
<path opacity="0.856777" d="M171.091 154.175L182.109 147.845L171.926 141.496L171.091 154.175Z" fill="url(#paint24_diamond)"/>
<path opacity="0.723167" d="M63.3188 217.07L54.0354 225.745L65.3978 229.605L63.3188 217.07Z" fill="url(#paint25_diamond)"/>
<path opacity="0.950389" d="M357.895 155.381L345.302 153.691L349.512 164.929L357.895 155.381Z" fill="url(#paint26_diamond)"/>
<path opacity="0.503672" d="M211.48 58.3711L215.597 52.7759L208.636 52.0338L211.48 58.3711Z" fill="url(#paint27_diamond)"/>
<path opacity="0.32555" d="M416.382 110.677L409.782 112.843L415.018 117.488L416.382 110.677Z" fill="url(#paint28_diamond)"/>
<path opacity="0.770408" d="M418.527 174.433L415.795 180.819L422.741 179.954L418.527 174.433Z" fill="url(#paint29_diamond)"/>
<path opacity="0.495603" d="M424.865 31.0383L421.653 24.8794L417.923 30.8028L424.865 31.0383Z" fill="url(#paint30_diamond)"/>
<path opacity="0.984518" d="M159.712 3.35119L152.884 4.62424L157.459 9.92186L159.712 3.35119Z" fill="url(#paint31_diamond)"/>
<path opacity="0.726286" d="M172.531 121.537L168.267 127.021L175.206 127.947L172.531 121.537Z" fill="url(#paint32_diamond)"/>
<path opacity="0.797103" d="M75.3493 77.9137L68.4078 77.6572L71.7092 83.8298L75.3493 77.9137Z" fill="url(#paint33_diamond)"/>
<path opacity="0.103418" d="M228.639 20.0219L223.602 24.8049L230.323 26.761L228.639 20.0219Z" fill="url(#paint34_diamond)"/>
<path opacity="0.777679" d="M291.457 53.8175L287.458 48.138L284.544 54.503L291.457 53.8175Z" fill="url(#paint35_diamond)"/>
<path opacity="0.941211" d="M148.377 115.082L150.181 108.374L143.426 110.21L148.377 115.082Z" fill="url(#paint36_diamond)"/>
<path opacity="0.917112" d="M55.762 189.329L54.8016 196.208L61.2776 193.551L55.762 189.329Z" fill="url(#paint37_diamond)"/>
<path opacity="0.953545" d="M44.717 177.213L43.5137 184.054L50.0797 181.628L44.717 177.213Z" fill="url(#paint38_diamond)"/>
<path opacity="0.429398" d="M290.706 213.488L296.391 217.479L296.979 210.504L290.706 213.488Z" fill="url(#paint39_diamond)"/>
<path opacity="0.958244" d="M86.9302 200.822L89.6988 207.193L93.8384 201.548L86.9302 200.822Z" fill="url(#paint40_diamond)"/>
<path opacity="0.395242" d="M280.509 185.463L286.954 188.053L285.936 181.127L280.509 185.463Z" fill="url(#paint41_diamond)"/>
<path opacity="0.700693" d="M125.507 16.7833L121.642 22.555L128.628 22.9885L125.507 16.7833Z" fill="url(#paint42_diamond)"/>
<path opacity="0.542915" d="M124.667 187.933L119.504 192.581L126.171 194.714L124.667 187.933Z" fill="url(#paint43_diamond)"/>
<path opacity="0.259781" d="M294.43 147.453L299.779 151.884L300.92 144.978L294.43 147.453Z" fill="url(#paint44_diamond)"/>
<path opacity="0.315301" d="M364.122 138.582L369.956 134.812L363.712 131.648L364.122 138.582Z" fill="url(#paint45_diamond)"/>
<path opacity="0.830835" d="M321.067 23.3733L325.916 28.3465L327.783 21.6L321.067 23.3733Z" fill="url(#paint46_diamond)"/>
<path opacity="0.058784" d="M359.662 157.563L354.432 152.992L353.108 159.865L359.662 157.563Z" fill="url(#paint47_diamond)"/>
<path opacity="0.212451" d="M392.489 67.7216L395.501 61.4622L388.523 62.019L392.489 67.7216Z" fill="url(#paint48_diamond)"/>
<path opacity="0.223376" d="M391.199 146.288L398.034 147.522L395.637 140.945L391.199 146.288Z" fill="url(#paint49_diamond)"/>
<path opacity="0.317809" d="M281.572 79.7074L279.357 86.291L286.213 84.8762L281.572 79.7074Z" fill="url(#paint50_diamond)"/>
<path opacity="0.0857185" d="M100.031 215.894L103.024 222.163L106.961 216.375L100.031 215.894Z" fill="url(#paint51_diamond)"/>
<path opacity="0.660301" d="M120.609 83.8705L122.244 71.2702L111.025 75.5291L120.609 83.8705Z" fill="url(#paint52_diamond)"/>
<path opacity="0.940423" d="M61.9984 21.4707L66.342 33.4111L74.3453 24.4697L61.9984 21.4707Z" fill="url(#paint53_diamond)"/>
<path opacity="0.958921" d="M368.867 165.001L357.538 159.25L357.803 171.247L368.867 165.001Z" fill="url(#paint54_diamond)"/>
<path opacity="0.635905" d="M160.999 195.106L167.196 184.014L155.198 183.802L160.999 195.106Z" fill="url(#paint55_diamond)"/>
<path opacity="0.125667" d="M363.119 224.871L362.397 212.185L352.159 218.444L363.119 224.871Z" fill="url(#paint56_diamond)"/>
<path opacity="0.476381" d="M420.001 138.471L432.348 135.472L424.345 126.531L420.001 138.471Z" fill="url(#paint57_diamond)"/>
<path opacity="0.442951" d="M104.077 10.7601L91.373 10.9765L97.2189 21.4562L104.077 10.7601Z" fill="url(#paint58_diamond)"/>
<path opacity="0.972943" d="M51.4514 96.2033L39.0823 93.2973L42.1795 104.891L51.4514 96.2033Z" fill="url(#paint59_diamond)"/>
<path opacity="0.0852067" d="M295.803 130.523L304.45 121.213L292.843 118.167L295.803 130.523Z" fill="url(#paint60_diamond)"/>
<path opacity="0.224302" d="M57.6921 177.176L61.18 189.394L69.7959 181.041L57.6921 177.176Z" fill="url(#paint61_diamond)"/>
<path opacity="0.0675823" d="M49.0154 92.8128L42.348 81.9968L36.3172 92.3712L49.0154 92.8128Z" fill="url(#paint62_diamond)"/>
<path opacity="0.270278" d="M266.995 82.3449L254.434 80.432L258.444 91.7423L266.995 82.3449Z" fill="url(#paint63_diamond)"/>
<path opacity="0.946238" d="M254.488 114.576L255.452 101.906L244.475 106.755L254.488 114.576Z" fill="url(#paint64_diamond)"/>
<path opacity="0.306372" d="M88.9063 98.9437L92.8409 86.8624L81.0283 88.9749L88.9063 98.9437Z" fill="url(#paint65_diamond)"/>
<path opacity="0.520499" d="M183.761 72.1293L171.564 68.5708L174.041 80.3123L183.761 72.1293Z" fill="url(#paint66_diamond)"/>
<path opacity="0.957322" d="M323.362 219.292L313.998 217.525L316.703 226.109L323.362 219.292Z" fill="url(#paint67_diamond)"/>
<path opacity="0.108443" d="M196.306 208.554L187.313 205.403L188.7 214.295L196.306 208.554Z" fill="url(#paint68_diamond)"/>
<path opacity="0.85135" d="M171.06 222.5L179.518 226.888L179.399 217.889L171.06 222.5Z" fill="url(#paint69_diamond)"/>
<path opacity="0.56883" d="M314.244 215.443L304.847 217.032L310.36 224.145L314.244 215.443Z" fill="url(#paint70_diamond)"/>
<path opacity="0.462736" d="M383.653 195.815L377.493 188.544L374.187 196.915L383.653 195.815Z" fill="url(#paint71_diamond)"/>
<path opacity="0.561525" d="M273.118 196.245L282.293 193.669L276.057 187.18L273.118 196.245Z" fill="url(#paint72_diamond)"/>
<path opacity="0.214215" d="M396.465 181.765L405.957 180.929L401.028 173.399L396.465 181.765Z" fill="url(#paint73_diamond)"/>
<path opacity="0.918875" d="M201.06 225.299L210.279 222.887L204.159 216.288L201.06 225.299Z" fill="url(#paint74_diamond)"/>
<path opacity="0.802839" d="M30.1273 197.092L35.8928 204.679L39.6381 196.496L30.1273 197.092Z" fill="url(#paint75_diamond)"/>
<path opacity="0.893083" d="M273.727 199.844L267.697 192.466L264.243 200.777L273.727 199.844Z" fill="url(#paint76_diamond)"/>
<path opacity="0.0864417" d="M200.505 189.165L191.719 192.855L198.709 198.524L200.505 189.165Z" fill="url(#paint77_diamond)"/>
<path opacity="0.0111461" d="M288.67 214.15L279.154 214.65L283.814 222.349L288.67 214.15Z" fill="url(#paint78_diamond)"/>
<path opacity="0.687263" d="M187.161 177.653L178.94 182.473L186.619 187.167L187.161 177.653Z" fill="url(#paint79_diamond)"/>
<path opacity="0.601102" d="M132.951 173.963L132.565 183.484L140.664 179.559L132.951 173.963Z" fill="url(#paint80_diamond)"/>
<path opacity="0.0165313" d="M159.881 183.543L156.308 174.708L150.547 181.623L159.881 183.543Z" fill="url(#paint81_diamond)"/>
<path opacity="0.992806" d="M225.66 163.016L227.95 172.266L234.63 166.234L225.66 163.016Z" fill="url(#paint82_diamond)"/>
<path opacity="0.27516" d="M192.66 208.016L194.95 217.266L201.63 211.234L192.66 208.016Z" fill="url(#paint83_diamond)"/>
<path opacity="0.56389" d="M83.0844 202.633L76.0165 196.241L73.8476 204.976L83.0844 202.633Z" fill="url(#paint84_diamond)"/>
<path opacity="0.543846" d="M349.593 180.291L348.13 170.875L340.943 176.293L349.593 180.291Z" fill="url(#paint85_diamond)"/>
<path opacity="0.701663" d="M208.276 156.685L201.498 149.987L198.945 158.617L208.276 156.685Z" fill="url(#paint86_diamond)"/>
<path opacity="0.670497" d="M194.741 187.507L186.097 183.498L186.614 192.483L194.741 187.507Z" fill="url(#paint87_diamond)"/>
<path opacity="0.949585" d="M401.353 149.708L394.694 142.891L391.988 151.475L401.353 149.708Z" fill="url(#paint88_diamond)"/>
<path opacity="0.437424" d="M167.687 163.955L158.689 167.093L165.315 173.184L167.687 163.955Z" fill="url(#paint89_diamond)"/>
<path opacity="0.876603" d="M69.545 221.635L66.2755 230.586L75.1854 229.316L69.545 221.635Z" fill="url(#paint90_diamond)"/>
<path opacity="0.938029" d="M27.1606 183.653L18.9399 188.473L26.6188 193.167L27.1606 183.653Z" fill="url(#paint91_diamond)"/>
<path opacity="0.76427" d="M52.0519 206.995L46.6278 199.16L42.524 207.17L52.0519 206.995Z" fill="url(#paint92_diamond)"/>
<defs>
<radialGradient id="paint0_diamond" cx="0" cy="0" r="1" gradientUnits="userSpaceOnUse" gradientTransform="translate(36.5 197.8) rotate(90) scale(3 3.5)">
<stop stop-color="#781117"/>
<stop offset="1" stop-color="#781117" stop-opacity="0"/>
</radialGradient>
<radialGradient id="paint1_diamond" cx="0" cy="0" r="1" gradientUnits="userSpaceOnUse" gradientTransform="translate(48.9592 155.997) rotate(-61.0977) scale(5.6 6)">
<stop stop-color="#781117"/>
<stop offset="1" stop-color="#781117" stop-opacity="0"/>
</radialGradient>
<radialGradient id="paint2_diamond" cx="0" cy="0" r="1" gradientUnits="userSpaceOnUse" gradientTransform="translate(217.477 200.175) rotate(-119.408) scale(5.6 6)">
<stop stop-color="#781117"/>
<stop offset="1" stop-color="#781117" stop-opacity="0"/>
</radialGradient>
<radialGradient id="paint3_diamond" cx="0" cy="0" r="1" gradientUnits="userSpaceOnUse" gradientTransform="translate(280.573 167.105) rotate(94.5643) scale(5.6 6)">
<stop stop-color="#781117"/>
<stop offset="1" stop-color="#781117" stop-opacity="0"/>
</radialGradient>
<radialGradient id="paint4_diamond" cx="0" cy="0" r="1" gradientUnits="userSpaceOnUse" gradientTransform="translate(380.801 195.626) rotate(135.635) scale(5.6 6)">
<stop stop-color="#781117"/>
<stop offset="1" stop-color="#781117" stop-opacity="0"/>
</radialGradient>
<radialGradient id="paint5_diamond" cx="0" cy="0" r="1" gradientUnits="userSpaceOnUse" gradientTransform="translate(357.076 170.449) rotate(4.81792) scale(5.6 6)">
<stop stop-color="#781117"/>
<stop offset="1" stop-color="#781117" stop-opacity="0"/>
</radialGradient>
<radialGradient id="paint6_diamond" cx="0" cy="0" r="1" gradientUnits="userSpaceOnUse" gradientTransform="translate(387.816 172.878) rotate(-145.267) scale(5.6 6)">
<stop stop-color="#781117"/>
<stop offset="1" stop-color="#781117" stop-opacity="0"/>
</radialGradient>
<radialGradient id="paint7_diamond" cx="0" cy="0" r="1" gradientUnits="userSpaceOnUse" gradientTransform="translate(39.7315 235.888) rotate(59.0708) scale(5.6 6)">
<stop stop-color="#781117"/>
<stop offset="1" stop-color="#781117" stop-opacity="0"/>
</radialGradient>
<radialGradient id="paint8_diamond" cx="0" cy="0" r="1" gradientUnits="userSpaceOnUse" gradientTransform="translate(376.738 191.299) rotate(82.9016) scale(5.6 6)">
<stop stop-color="#781117"/>
<stop offset="1" stop-color="#781117" stop-opacity="0"/>
</radialGradient>
<radialGradient id="paint9_diamond" cx="0" cy="0" r="1" gradientUnits="userSpaceOnUse" gradientTransform="translate(351.84 205.656) rotate(64.1423) scale(5.6 6)">
<stop stop-color="#781117"/>
<stop offset="1" stop-color="#781117" stop-opacity="0"/>
</radialGradient>
<radialGradient id="paint10_diamond" cx="0" cy="0" r="1" gradientUnits="userSpaceOnUse" gradientTransform="translate(168.838 221.656) rotate(122.16) scale(5.6 6)">
<stop stop-color="#781117"/>
<stop offset="1" stop-color="#781117" stop-opacity="0"/>
</radialGradient>
<radialGradient id="paint11_diamond" cx="0" cy="0" r="1" gradientUnits="userSpaceOnUse" gradientTransform="translate(26.1791 203.707) rotate(63.128) scale(5.6 6)">
<stop stop-color="#781117"/>
<stop offset="1" stop-color="#781117" stop-opacity="0"/>
</radialGradient>
<radialGradient id="paint12_diamond" cx="0" cy="0" r="1" gradientUnits="userSpaceOnUse" gradientTransform="translate(232.331 149.077) rotate(153.889) scale(5.6 6)">
<stop stop-color="#781117"/>
<stop offset="1" stop-color="#781117" stop-opacity="0"/>
</radialGradient>
<radialGradient id="paint13_diamond" cx="0" cy="0" r="1" gradientUnits="userSpaceOnUse" gradientTransform="translate(61.0982 158.507) rotate(-88.9857) scale(5.6 6)">
<stop stop-color="#781117"/>
<stop offset="1" stop-color="#781117" stop-opacity="0"/>
</radialGradient>
<radialGradient id="paint14_diamond" cx="0" cy="0" r="1" gradientUnits="userSpaceOnUse" gradientTransform="translate(107.381 175.839) rotate(-85.9428) scale(5.6 6)">
<stop stop-color="#781117"/>
<stop offset="1" stop-color="#781117" stop-opacity="0"/>
</radialGradient>
<radialGradient id="paint15_diamond" cx="0" cy="0" r="1" gradientUnits="userSpaceOnUse" gradientTransform="translate(84.9191 168.435) rotate(122.958) scale(5.6 6)">
<stop stop-color="#781117"/>
<stop offset="1" stop-color="#781117" stop-opacity="0"/>
</radialGradient>
<radialGradient id="paint16_diamond" cx="0" cy="0" r="1" gradientUnits="userSpaceOnUse" gradientTransform="translate(238.791 187.581) rotate(-28.647) scale(5.6 6)">
<stop stop-color="#781117"/>
<stop offset="1" stop-color="#781117" stop-opacity="0"/>
</radialGradient>
<radialGradient id="paint17_diamond" cx="0" cy="0" r="1" gradientUnits="userSpaceOnUse" gradientTransform="translate(374.951 225.547) rotate(90.5071) scale(5.6 6)">
<stop stop-color="#781117"/>
<stop offset="1" stop-color="#781117" stop-opacity="0"/>
</radialGradient>
<radialGradient id="paint18_diamond" cx="0" cy="0" r="1" gradientUnits="userSpaceOnUse" gradientTransform="translate(126.642 183.635) rotate(106.732) scale(5.6 6)">
<stop stop-color="#781117"/>
<stop offset="1" stop-color="#781117" stop-opacity="0"/>
</radialGradient>
<radialGradient id="paint19_diamond" cx="0" cy="0" r="1" gradientUnits="userSpaceOnUse" gradientTransform="translate(242.313 188.333) rotate(69.7192) scale(5.6 6)">
<stop stop-color="#781117"/>
<stop offset="1" stop-color="#781117" stop-opacity="0"/>
</radialGradient>
<radialGradient id="paint20_diamond" cx="0" cy="0" r="1" gradientUnits="userSpaceOnUse" gradientTransform="translate(385.99 229.791) rotate(120.424) scale(5.6 6)">
<stop stop-color="#781117"/>
<stop offset="1" stop-color="#781117" stop-opacity="0"/>
</radialGradient>
<radialGradient id="paint21_diamond" cx="0" cy="0" r="1" gradientUnits="userSpaceOnUse" gradientTransform="translate(279.513 230.128) rotate(-170.112) scale(5.6 6)">
<stop stop-color="#781117"/>
<stop offset="1" stop-color="#781117" stop-opacity="0"/>
</radialGradient>
<radialGradient id="paint22_diamond" cx="0" cy="0" r="1" gradientUnits="userSpaceOnUse" gradientTransform="translate(118.32 151.022) rotate(-105.211) scale(5.6 6)">
<stop stop-color="#781117"/>
<stop offset="1" stop-color="#781117" stop-opacity="0"/>
</radialGradient>
<radialGradient id="paint23_diamond" cx="0" cy="0" r="1" gradientUnits="userSpaceOnUse" gradientTransform="translate(351.249 143.827) rotate(-142.224) scale(5.6 6)">
<stop stop-color="#781117"/>
<stop offset="1" stop-color="#781117" stop-opacity="0"/>
</radialGradient>
<radialGradient id="paint24_diamond" cx="0" cy="0" r="1" gradientUnits="userSpaceOnUse" gradientTransform="translate(174.054 149.423) rotate(-58.0548) scale(5.6 6)">
<stop stop-color="#781117"/>
<stop offset="1" stop-color="#781117" stop-opacity="0"/>
</radialGradient>
<radialGradient id="paint25_diamond" cx="0" cy="0" r="1" gradientUnits="userSpaceOnUse" gradientTransform="translate(61.5177 222.373) rotate(108.761) scale(5.6 6)">
<stop stop-color="#781117"/>
<stop offset="1" stop-color="#781117" stop-opacity="0"/>
</radialGradient>
<radialGradient id="paint26_diamond" cx="0" cy="0" r="1" gradientUnits="userSpaceOnUse" gradientTransform="translate(352.651 157.346) rotate(159.466) scale(5.6 6)">
<stop stop-color="#781117"/>
<stop offset="1" stop-color="#781117" stop-opacity="0"/>
</radialGradient>
<radialGradient id="paint27_diamond" cx="0" cy="0" r="1" gradientUnits="userSpaceOnUse" gradientTransform="translate(211.798 55.388) rotate(-83.9142) scale(3 3.5)">
<stop stop-color="#781117"/>
<stop offset="1" stop-color="#781117" stop-opacity="0"/>
</radialGradient>
<radialGradient id="paint28_diamond" cx="0" cy="0" r="1" gradientUnits="userSpaceOnUse" gradientTransform="translate(414.391 112.921) rotate(131.578) scale(3 3.5)">
<stop stop-color="#781117"/>
<stop offset="1" stop-color="#781117" stop-opacity="0"/>
</radialGradient>
<radialGradient id="paint29_diamond" cx="0" cy="0" r="1" gradientUnits="userSpaceOnUse" gradientTransform="translate(418.898 177.41) rotate(82.9016) scale(3 3.5)">
<stop stop-color="#781117"/>
<stop offset="1" stop-color="#781117" stop-opacity="0"/>
</radialGradient>
<radialGradient id="paint30_diamond" cx="0" cy="0" r="1" gradientUnits="userSpaceOnUse" gradientTransform="translate(422.326 29.4397) rotate(-147.801) scale(3 3.5)">
<stop stop-color="#781117"/>
<stop offset="1" stop-color="#781117" stop-opacity="0"/>
</radialGradient>
<radialGradient id="paint31_diamond" cx="0" cy="0" r="1" gradientUnits="userSpaceOnUse" gradientTransform="translate(157.442 5.31212) rotate(139.183) scale(3 3.5)">
<stop stop-color="#781117"/>
<stop offset="1" stop-color="#781117" stop-opacity="0"/>
</radialGradient>
<radialGradient id="paint32_diamond" cx="0" cy="0" r="1" gradientUnits="userSpaceOnUse" gradientTransform="translate(172.134 124.51) rotate(97.6072) scale(3 3.5)">
<stop stop-color="#781117"/>
<stop offset="1" stop-color="#781117" stop-opacity="0"/>
</radialGradient>
<radialGradient id="paint33_diamond" cx="0" cy="0" r="1" gradientUnits="userSpaceOnUse" gradientTransform="translate(72.7039 79.3286) rotate(151.86) scale(3 3.5)">
<stop stop-color="#781117"/>
<stop offset="1" stop-color="#781117" stop-opacity="0"/>
</radialGradient>
<radialGradient id="paint34_diamond" cx="0" cy="0" r="1" gradientUnits="userSpaceOnUse" gradientTransform="translate(227.801 22.9024) rotate(106.227) scale(3 3.5)">
<stop stop-color="#781117"/>
<stop offset="1" stop-color="#781117" stop-opacity="0"/>
</radialGradient>
<radialGradient id="paint35_diamond" cx="0" cy="0" r="1" gradientUnits="userSpaceOnUse" gradientTransform="translate(288.729 52.569) rotate(-155.407) scale(3 3.5)">
<stop stop-color="#781117"/>
<stop offset="1" stop-color="#781117" stop-opacity="0"/>
</radialGradient>
<radialGradient id="paint36_diamond" cx="0" cy="0" r="1" gradientUnits="userSpaceOnUse" gradientTransform="translate(147.59 112.187) rotate(-105.211) scale(3 3.5)">
<stop stop-color="#781117"/>
<stop offset="1" stop-color="#781117" stop-opacity="0"/>
</radialGradient>
<radialGradient id="paint37_diamond" cx="0" cy="0" r="1" gradientUnits="userSpaceOnUse" gradientTransform="translate(56.9008 192.104) rotate(67.6906) scale(3 3.5)">
<stop stop-color="#781117"/>
<stop offset="1" stop-color="#781117" stop-opacity="0"/>
</radialGradient>
<radialGradient id="paint38_diamond" cx="0" cy="0" r="1" gradientUnits="userSpaceOnUse" gradientTransform="translate(45.7568 180.027) rotate(69.7192) scale(3 3.5)">
<stop stop-color="#781117"/>
<stop offset="1" stop-color="#781117" stop-opacity="0"/>
</radialGradient>
<radialGradient id="paint39_diamond" cx="0" cy="0" r="1" gradientUnits="userSpaceOnUse" gradientTransform="translate(293.695 213.74) rotate(4.81792) scale(3 3.5)">
<stop stop-color="#781117"/>
<stop offset="1" stop-color="#781117" stop-opacity="0"/>
</radialGradient>
<radialGradient id="paint40_diamond" cx="0" cy="0" r="1" gradientUnits="userSpaceOnUse" gradientTransform="translate(89.3494 202.597) rotate(36.2543) scale(3 3.5)">
<stop stop-color="#781117"/>
<stop offset="1" stop-color="#781117" stop-opacity="0"/>
</radialGradient>
<radialGradient id="paint41_diamond" cx="0" cy="0" r="1" gradientUnits="userSpaceOnUse" gradientTransform="translate(283.477 185.026) rotate(-8.36451) scale(3 3.5)">
<stop stop-color="#781117"/>
<stop offset="1" stop-color="#781117" stop-opacity="0"/>
</radialGradient>
<radialGradient id="paint42_diamond" cx="0" cy="0" r="1" gradientUnits="userSpaceOnUse" gradientTransform="translate(125.321 19.7775) rotate(93.55) scale(3 3.5)">
<stop stop-color="#781117"/>
<stop offset="1" stop-color="#781117" stop-opacity="0"/>
</radialGradient>
<radialGradient id="paint43_diamond" cx="0" cy="0" r="1" gradientUnits="userSpaceOnUse" gradientTransform="translate(123.752 190.79) rotate(107.747) scale(3 3.5)">
<stop stop-color="#781117"/>
<stop offset="1" stop-color="#781117" stop-opacity="0"/>
</radialGradient>
<radialGradient id="paint44_diamond" cx="0" cy="0" r="1" gradientUnits="userSpaceOnUse" gradientTransform="translate(297.389 147.942) rotate(9.38053) scale(3 3.5)">
<stop stop-color="#781117"/>
<stop offset="1" stop-color="#781117" stop-opacity="0"/>
</radialGradient>
<radialGradient id="paint45_diamond" cx="0" cy="0" r="1" gradientUnits="userSpaceOnUse" gradientTransform="translate(365.478 135.906) rotate(-63.1263) scale(3 3.5)">
<stop stop-color="#781117"/>
<stop offset="1" stop-color="#781117" stop-opacity="0"/>
</radialGradient>
<radialGradient id="paint46_diamond" cx="0" cy="0" r="1" gradientUnits="userSpaceOnUse" gradientTransform="translate(323.958 24.1733) rotate(15.4663) scale(3 3.5)">
<stop stop-color="#781117"/>
<stop offset="1" stop-color="#781117" stop-opacity="0"/>
</radialGradient>
<radialGradient id="paint47_diamond" cx="0" cy="0" r="1" gradientUnits="userSpaceOnUse" gradientTransform="translate(356.716 156.996) rotate(-169.098) scale(3 3.5)">
<stop stop-color="#781117"/>
<stop offset="1" stop-color="#781117" stop-opacity="0"/>
</radialGradient>
<radialGradient id="paint48_diamond" cx="0" cy="0" r="1" gradientUnits="userSpaceOnUse" gradientTransform="translate(392.25 64.7311) rotate(-94.5626) scale(3 3.5)">
<stop stop-color="#781117"/>
<stop offset="1" stop-color="#781117" stop-opacity="0"/>
</radialGradient>
<radialGradient id="paint49_diamond" cx="0" cy="0" r="1" gradientUnits="userSpaceOnUse" gradientTransform="translate(394.017 145.261) rotate(-20.0272) scale(3 3.5)">
<stop stop-color="#781117"/>
<stop offset="1" stop-color="#781117" stop-opacity="0"/>
</radialGradient>
<radialGradient id="paint50_diamond" cx="0" cy="0" r="1" gradientUnits="userSpaceOnUse" gradientTransform="translate(282.179 82.6455) rotate(78.339) scale(3 3.5)">
<stop stop-color="#781117"/>
<stop offset="1" stop-color="#781117" stop-opacity="0"/>
</radialGradient>
<radialGradient id="paint51_diamond" cx="0" cy="0" r="1" gradientUnits="userSpaceOnUse" gradientTransform="translate(102.512 217.581) rotate(34.2257) scale(3 3.5)">
<stop stop-color="#781117"/>
<stop offset="1" stop-color="#781117" stop-opacity="0"/>
</radialGradient>
<radialGradient id="paint52_diamond" cx="0" cy="0" r="1" gradientUnits="userSpaceOnUse" gradientTransform="translate(118.622 78.6351) rotate(-110.788) scale(5.6 6)">
<stop stop-color="#781117"/>
<stop offset="1" stop-color="#781117" stop-opacity="0"/>
</radialGradient>
<radialGradient id="paint53_diamond" cx="0" cy="0" r="1" gradientUnits="userSpaceOnUse" gradientTransform="translate(66.171 25.2055) rotate(41.8312) scale(5.6 6)">
<stop stop-color="#781117"/>
<stop offset="1" stop-color="#781117" stop-opacity="0"/>
</radialGradient>
<radialGradient id="paint54_diamond" cx="0" cy="0" r="1" gradientUnits="userSpaceOnUse" gradientTransform="translate(363.269 165.125) rotate(178.734) scale(5.6 6)">
<stop stop-color="#781117"/>
<stop offset="1" stop-color="#781117" stop-opacity="0"/>
</radialGradient>
<radialGradient id="paint55_diamond" cx="0" cy="0" r="1" gradientUnits="userSpaceOnUse" gradientTransform="translate(161.098 189.507) rotate(-88.9857) scale(5.6 6)">
<stop stop-color="#781117"/>
<stop offset="1" stop-color="#781117" stop-opacity="0"/>
</radialGradient>
<radialGradient id="paint56_diamond" cx="0" cy="0" r="1" gradientUnits="userSpaceOnUse" gradientTransform="translate(360.199 220.093) rotate(-121.436) scale(5.6 6)">
<stop stop-color="#781117"/>
<stop offset="1" stop-color="#781117" stop-opacity="0"/>
</radialGradient>
<radialGradient id="paint57_diamond" cx="0" cy="0" r="1" gradientUnits="userSpaceOnUse" gradientTransform="translate(424.174 134.736) rotate(-41.8295) scale(5.6 6)">
<stop stop-color="#781117"/>
<stop offset="1" stop-color="#781117" stop-opacity="0"/>
</radialGradient>
<radialGradient id="paint58_diamond" cx="0" cy="0" r="1" gradientUnits="userSpaceOnUse" gradientTransform="translate(99.1865 13.4882) rotate(150.846) scale(5.6 6)">
<stop stop-color="#781117"/>
<stop offset="1" stop-color="#781117" stop-opacity="0"/>
</radialGradient>
<radialGradient id="paint59_diamond" cx="0" cy="0" r="1" gradientUnits="userSpaceOnUse" gradientTransform="translate(46.0411 97.6487) rotate(165.043) scale(5.6 6)">
<stop stop-color="#781117"/>
<stop offset="1" stop-color="#781117" stop-opacity="0"/>
</radialGradient>
<radialGradient id="paint60_diamond" cx="0" cy="0" r="1" gradientUnits="userSpaceOnUse" gradientTransform="translate(297.225 125.107) rotate(-75.2944) scale(5.6 6)">
<stop stop-color="#781117"/>
<stop offset="1" stop-color="#781117" stop-opacity="0"/>
</radialGradient>
<radialGradient id="paint61_diamond" cx="0" cy="0" r="1" gradientUnits="userSpaceOnUse" gradientTransform="translate(61.59 181.197) rotate(45.8884) scale(5.6 6)">
<stop stop-color="#781117"/>
<stop offset="1" stop-color="#781117" stop-opacity="0"/>
</radialGradient>
<radialGradient id="paint62_diamond" cx="0" cy="0" r="1" gradientUnits="userSpaceOnUse" gradientTransform="translate(44.174 89.9984) rotate(-149.83) scale(5.6 6)">
<stop stop-color="#781117"/>
<stop offset="1" stop-color="#781117" stop-opacity="0"/>
</radialGradient>
<radialGradient id="paint63_diamond" cx="0" cy="0" r="1" gradientUnits="userSpaceOnUse" gradientTransform="translate(261.717 84.216) rotate(160.48) scale(5.6 6)">
<stop stop-color="#781117"/>
<stop offset="1" stop-color="#781117" stop-opacity="0"/>
</radialGradient>
<radialGradient id="paint64_diamond" cx="0" cy="0" r="1" gradientUnits="userSpaceOnUse" gradientTransform="translate(252.226 109.453) rotate(-113.831) scale(5.6 6)">
<stop stop-color="#781117"/>
<stop offset="1" stop-color="#781117" stop-opacity="0"/>
</radialGradient>
<radialGradient id="paint65_diamond" cx="0" cy="0" r="1" gradientUnits="userSpaceOnUse" gradientTransform="translate(87.9204 93.4312) rotate(-100.14) scale(5.6 6)">
<stop stop-color="#781117"/>
<stop offset="1" stop-color="#781117" stop-opacity="0"/>
</radialGradient>
<radialGradient id="paint66_diamond" cx="0" cy="0" r="1" gradientUnits="userSpaceOnUse" gradientTransform="translate(178.282 73.2854) rotate(168.085) scale(5.6 6)">
<stop stop-color="#781117"/>
<stop offset="1" stop-color="#781117" stop-opacity="0"/>
</radialGradient>
<radialGradient id="paint67_diamond" cx="0" cy="0" r="1" gradientUnits="userSpaceOnUse" gradientTransform="translate(319.357 220.554) rotate(162.509) scale(4.2 4.5)">
<stop stop-color="#C6382F"/>
<stop offset="1" stop-color="#43150F" stop-opacity="0"/>
<stop offset="1" stop-color="#C6382F"/>
</radialGradient>
<radialGradient id="paint68_diamond" cx="0" cy="0" r="1" gradientUnits="userSpaceOnUse" gradientTransform="translate(192.156 209.202) rotate(171.128) scale(4.2 4.5)">
<stop stop-color="#C6382F"/>
<stop offset="1" stop-color="#43150F" stop-opacity="0"/>
<stop offset="1" stop-color="#C6382F"/>
</radialGradient>
<radialGradient id="paint69_diamond" cx="0" cy="0" r="1" gradientUnits="userSpaceOnUse" gradientTransform="translate(175.259 222.444) rotate(-0.758997) scale(4.2 4.5)">
<stop stop-color="#C6382F"/>
<stop offset="1" stop-color="#43150F" stop-opacity="0"/>
<stop offset="1" stop-color="#C6382F"/>
</radialGradient>
<radialGradient id="paint70_diamond" cx="0" cy="0" r="1" gradientUnits="userSpaceOnUse" gradientTransform="translate(310.924 218.016) rotate(142.226) scale(4.2 4.5)">
<stop stop-color="#C6382F"/>
<stop offset="1" stop-color="#43150F" stop-opacity="0"/>
<stop offset="1" stop-color="#C6382F"/>
</radialGradient>
<radialGradient id="paint71_diamond" cx="0" cy="0" r="1" gradientUnits="userSpaceOnUse" gradientTransform="translate(379.747 194.272) rotate(-158.45) scale(4.2 4.5)">
<stop stop-color="#C6382F"/>
<stop offset="1" stop-color="#43150F" stop-opacity="0"/>
<stop offset="1" stop-color="#C6382F"/>
</radialGradient>
<radialGradient id="paint72_diamond" cx="0" cy="0" r="1" gradientUnits="userSpaceOnUse" gradientTransform="translate(276.146 193.335) rotate(-43.858) scale(4.2 4.5)">
<stop stop-color="#C6382F"/>
<stop offset="1" stop-color="#43150F" stop-opacity="0"/>
<stop offset="1" stop-color="#C6382F"/>
</radialGradient>
<radialGradient id="paint73_diamond" cx="0" cy="0" r="1" gradientUnits="userSpaceOnUse" gradientTransform="translate(399.979 179.465) rotate(-33.2096) scale(4.2 4.5)">
<stop stop-color="#C6382F"/>
<stop offset="1" stop-color="#43150F" stop-opacity="0"/>
<stop offset="1" stop-color="#C6382F"/>
</radialGradient>
<radialGradient id="paint74_diamond" cx="0" cy="0" r="1" gradientUnits="userSpaceOnUse" gradientTransform="translate(204.139 222.443) rotate(-42.8438) scale(4.2 4.5)">
<stop stop-color="#C6382F"/>
<stop offset="1" stop-color="#43150F" stop-opacity="0"/>
<stop offset="1" stop-color="#C6382F"/>
</radialGradient>
<radialGradient id="paint75_diamond" cx="0" cy="0" r="1" gradientUnits="userSpaceOnUse" gradientTransform="translate(33.9464 198.84) rotate(24.5916) scale(4.2 4.5)">
<stop stop-color="#C6382F"/>
<stop offset="1" stop-color="#43150F" stop-opacity="0"/>
<stop offset="1" stop-color="#C6382F"/>
</radialGradient>
<radialGradient id="paint76_diamond" cx="0" cy="0" r="1" gradientUnits="userSpaceOnUse" gradientTransform="translate(269.848 198.233) rotate(-157.435) scale(4.2 4.5)">
<stop stop-color="#C6382F"/>
<stop offset="1" stop-color="#43150F" stop-opacity="0"/>
<stop offset="1" stop-color="#C6382F"/>
</radialGradient>
<radialGradient id="paint77_diamond" cx="0" cy="0" r="1" gradientUnits="userSpaceOnUse" gradientTransform="translate(197.859 192.427) rotate(129.044) scale(4.2 4.5)">
<stop stop-color="#C6382F"/>
<stop offset="1" stop-color="#43150F" stop-opacity="0"/>
<stop offset="1" stop-color="#C6382F"/>
</radialGradient>
<radialGradient id="paint78_diamond" cx="0" cy="0" r="1" gradientUnits="userSpaceOnUse" gradientTransform="translate(285.077 216.325) rotate(148.817) scale(4.2 4.5)">
<stop stop-color="#C6382F"/>
<stop offset="1" stop-color="#43150F" stop-opacity="0"/>
<stop offset="1" stop-color="#C6382F"/>
</radialGradient>
<radialGradient id="paint79_diamond" cx="0" cy="0" r="1" gradientUnits="userSpaceOnUse" gradientTransform="translate(184.97 181.236) rotate(121.438) scale(4.2 4.5)">
<stop stop-color="#C6382F"/>
<stop offset="1" stop-color="#43150F" stop-opacity="0"/>
<stop offset="1" stop-color="#C6382F"/>
</radialGradient>
<radialGradient id="paint80_diamond" cx="0" cy="0" r="1" gradientUnits="userSpaceOnUse" gradientTransform="translate(134.782 177.742) rotate(64.1423) scale(4.2 4.5)">
<stop stop-color="#C6382F"/>
<stop offset="1" stop-color="#43150F" stop-opacity="0"/>
<stop offset="1" stop-color="#C6382F"/>
</radialGradient>
<radialGradient id="paint81_diamond" cx="0" cy="0" r="1" gradientUnits="userSpaceOnUse" gradientTransform="translate(156.654 180.854) rotate(-140.196) scale(4.2 4.5)">
<stop stop-color="#C6382F"/>
<stop offset="1" stop-color="#43150F" stop-opacity="0"/>
<stop offset="1" stop-color="#C6382F"/>
</radialGradient>
<radialGradient id="paint82_diamond" cx="0" cy="0" r="1" gradientUnits="userSpaceOnUse" gradientTransform="translate(228.475 166.133) rotate(47.917) scale(4.2 4.5)">
<stop stop-color="#C6382F"/>
<stop offset="1" stop-color="#43150F" stop-opacity="0"/>
<stop offset="1" stop-color="#C6382F"/>
</radialGradient>
<radialGradient id="paint83_diamond" cx="0" cy="0" r="1" gradientUnits="userSpaceOnUse" gradientTransform="translate(195.475 211.133) rotate(47.917) scale(4.2 4.5)">
<stop stop-color="#C6382F"/>
<stop offset="1" stop-color="#43150F" stop-opacity="0"/>
<stop offset="1" stop-color="#C6382F"/>
</radialGradient>
<radialGradient id="paint84_diamond" cx="0" cy="0" r="1" gradientUnits="userSpaceOnUse" gradientTransform="translate(79.0082 201.62) rotate(-166.055) scale(4.2 4.5)">
<stop stop-color="#C6382F"/>
<stop offset="1" stop-color="#43150F" stop-opacity="0"/>
<stop offset="1" stop-color="#C6382F"/>
</radialGradient>
<radialGradient id="paint85_diamond" cx="0" cy="0" r="1" gradientUnits="userSpaceOnUse" gradientTransform="translate(347.065 176.937) rotate(-127.013) scale(4.2 4.5)">
<stop stop-color="#C6382F"/>
<stop offset="1" stop-color="#43150F" stop-opacity="0"/>
<stop offset="1" stop-color="#C6382F"/>
</radialGradient>
<radialGradient id="paint86_diamond" cx="0" cy="0" r="1" gradientUnits="userSpaceOnUse" gradientTransform="translate(204.249 155.493) rotate(-163.521) scale(4.2 4.5)">
<stop stop-color="#C6382F"/>
<stop offset="1" stop-color="#43150F" stop-opacity="0"/>
<stop offset="1" stop-color="#C6382F"/>
</radialGradient>
<radialGradient id="paint87_diamond" cx="0" cy="0" r="1" gradientUnits="userSpaceOnUse" gradientTransform="translate(190.548 187.749) rotate(176.705) scale(4.2 4.5)">
<stop stop-color="#C6382F"/>
<stop offset="1" stop-color="#43150F" stop-opacity="0"/>
<stop offset="1" stop-color="#C6382F"/>
</radialGradient>
<radialGradient id="paint88_diamond" cx="0" cy="0" r="1" gradientUnits="userSpaceOnUse" gradientTransform="translate(397.347 148.446) rotate(-162.507) scale(4.2 4.5)">
<stop stop-color="#C6382F"/>
<stop offset="1" stop-color="#43150F" stop-opacity="0"/>
<stop offset="1" stop-color="#C6382F"/>
</radialGradient>
<radialGradient id="paint89_diamond" cx="0" cy="0" r="1" gradientUnits="userSpaceOnUse" gradientTransform="translate(164.845 167.047) rotate(132.592) scale(4.2 4.5)">
<stop stop-color="#C6382F"/>
<stop offset="1" stop-color="#43150F" stop-opacity="0"/>
<stop offset="1" stop-color="#C6382F"/>
</radialGradient>
<radialGradient id="paint90_diamond" cx="0" cy="0" r="1" gradientUnits="userSpaceOnUse" gradientTransform="translate(70.1377 225.793) rotate(81.8873) scale(4.2 4.5)">
<stop stop-color="#C6382F"/>
<stop offset="1" stop-color="#43150F" stop-opacity="0"/>
<stop offset="1" stop-color="#C6382F"/>
</radialGradient>
<radialGradient id="paint91_diamond" cx="0" cy="0" r="1" gradientUnits="userSpaceOnUse" gradientTransform="translate(24.97 187.236) rotate(121.438) scale(4.2 4.5)">
<stop stop-color="#C6382F"/>
<stop offset="1" stop-color="#43150F" stop-opacity="0"/>
<stop offset="1" stop-color="#C6382F"/>
</radialGradient>
<radialGradient id="paint92_diamond" cx="0" cy="0" r="1" gradientUnits="userSpaceOnUse" gradientTransform="translate(48.3139 205.08) rotate(-152.873) scale(4.2 4.5)">
<stop stop-color="#C6382F"/>
<stop offset="1" stop-color="#43150F" stop-opacity="0"/>
<stop offset="1" stop-color="#C6382F"/>
</radialGradient>
</defs>
</svg>
