<svg width="144" height="168" viewBox="0 0 144 168" fill="none" xmlns="http://www.w3.org/2000/svg">
<path d="M119.825 4.76074C118.777 7.03258 116.272 10.878 114.291 13.3828C112.31 15.8294 108.583 19.4993 106.078 21.5381C103.515 23.5185 99.787 26.0226 97.748 27.0713C95.7092 28.0616 90.291 30.6832 85.6309 32.7803C80.9707 34.8773 76.7766 36.7416 76.3105 36.9746C75.8451 37.1488 77.1845 35.343 79.2812 32.9551C81.3782 30.5669 84.1164 27.3636 85.3398 25.7324C86.5049 24.1596 88.2522 21.3628 89.126 19.6152C89.9998 17.8677 91.0489 14.7221 91.3984 12.625C91.8062 10.528 91.8639 8.66366 91.6309 8.43066C91.3972 8.1992 90.4078 9.4806 89.418 11.3438C88.3695 13.3825 85.6896 16.6443 82.4277 19.9062C79.5734 22.8189 74.5636 27.5382 71.418 30.3926C67.9811 33.4799 64.5442 37.3245 62.9131 39.7129C61.3986 41.9847 59.4174 45.188 58.4854 46.9355C57.4951 48.7996 54.9319 51.8295 52.1357 54.3926C48.8165 57.4788 47.3018 58.5276 46.8936 58.0625C46.544 57.713 46.1356 56.4307 45.6113 53.1104L44.0977 56.3145C43.2239 58.062 42.3492 61.2076 42.1162 63.3047C41.825 65.8678 41.3009 67.5576 40.4854 68.5479C39.7861 69.3634 38.0967 70.5866 36.6406 71.3438C35.1843 72.1009 32.8542 72.683 31.165 72.7412C29.2428 72.8577 27.6696 72.5089 26.6211 71.8682C25.2817 70.9946 24.9908 70.9941 24.7578 71.751C24.5831 72.217 24.4658 73.9653 24.4658 75.5381C24.4659 77.1692 24.7579 79.8489 25.1074 81.5381C25.457 83.1692 26.4469 86.0231 27.2041 87.7705C27.9614 89.5181 29.5924 92.1401 32.8545 96.2178L33.6123 93.1885C34.0201 91.4992 35.1266 88.9941 36.0586 87.6543C36.9323 86.2564 38.7376 84.2758 39.9609 83.1689C41.1842 82.0622 44.0388 79.9651 46.3105 78.5088C48.5241 77.0525 53.2425 74.3722 56.7959 72.5664C60.291 70.7606 65.1849 68.6639 67.5732 67.9648C69.9612 67.2659 72.0583 66.858 72.2334 67.0908C72.4082 67.3238 71.5921 68.2558 70.4854 69.2461C69.3786 70.1781 63.9614 73.2075 58.5439 75.9453C53.0682 78.6832 47.0095 82.0619 44.9707 83.46C42.9903 84.8579 40.719 86.8967 39.9033 87.9453C39.1462 88.9354 38.4465 89.9839 38.4463 90.2754C38.4463 90.5084 38.9132 90.6836 39.4375 90.6836C40.0205 90.742 41.8267 91.1494 46.4854 92.7217L47.126 90.2754C47.5532 88.6056 48.5829 86.975 50.2139 85.3828C51.6118 84.1013 54.5241 82.1205 56.7959 81.0137C59.0095 79.9069 62.9711 78.6249 65.5342 78.1006C68.3301 77.5764 71.2426 77.4015 72.8154 77.5762C74.2716 77.8092 76.3687 78.3338 77.4756 78.7998C78.5824 79.2658 80.3304 80.4895 81.3789 81.5381C82.4856 82.6449 83.5337 84.509 83.9414 86.0234C84.3491 87.5963 84.4658 89.9847 84.291 92.0234C84.058 93.8291 83.4757 96.3333 83.0098 97.5566C82.5437 98.7217 82.253 99.7702 82.4277 99.8867C82.6033 99.9442 83.651 99.304 84.8154 98.4307C85.9222 97.4986 88.0779 95.227 89.5342 93.3047C90.9905 91.3824 92.7958 88.5275 93.6113 86.8965C94.4269 85.3236 95.5923 82.0035 96.1748 79.6152C96.8156 77.2269 97.2812 74.2558 97.2812 73.0908C97.2813 71.8677 97.4565 70.8779 97.6895 70.8779C97.9808 70.878 99.0291 71.4602 100.136 72.1592C101.243 72.9164 103.048 74.6059 104.097 76.0039C105.145 77.3437 106.311 79.4408 106.66 80.6641C107.01 81.8292 107.418 84.9165 107.593 87.4795C107.826 91.1493 107.65 93.1302 106.66 96.6836C106.019 99.1302 104.621 102.8 103.631 104.839C102.641 106.819 100.718 110.023 99.3203 111.945C97.9805 113.868 94.777 117.421 92.2139 119.81C89.6509 122.198 85.6315 125.285 83.2432 126.625C80.8548 128.023 77.0681 129.77 74.8545 130.586C72.5827 131.343 66.6994 132.683 61.748 133.499C56.7966 134.315 50.738 135.654 48.3496 136.47C45.9613 137.285 42.8157 138.625 41.3594 139.499C39.9031 140.315 37.3403 142.295 35.5928 143.926C33.9035 145.557 31.7475 148.003 30.8154 149.401C29.8835 150.741 29.1262 152.139 29.126 152.431C29.126 152.78 30.4078 153.945 34.9512 157.091L39.1455 152.839C41.4756 150.451 44.5632 147.887 46.0195 147.13C47.4758 146.314 50.0972 145.091 51.8447 144.45C53.5922 143.751 59.4756 142.295 64.9512 141.13C70.3686 140.023 76.8353 138.392 79.2236 137.576C81.612 136.761 85.5727 135.013 87.9609 133.731C90.3493 132.392 93.7866 130.237 95.5342 128.839C97.2817 127.499 100.544 124.411 102.758 122.081C105.03 119.693 108.058 115.965 109.515 113.693C110.971 111.48 113.01 107.634 114 105.246C115.049 102.858 116.33 99.0716 116.854 96.7998C117.612 93.8289 117.903 90.4501 117.845 84.2754C117.845 76.4118 117.903 75.9453 118.719 77.5762C119.185 78.5665 120.058 81.305 120.641 83.6934C121.281 86.0815 121.748 89.6926 121.748 91.7314C121.748 93.712 121.34 97.2656 120.874 99.5957C120.408 101.868 119.301 105.655 118.427 107.868C117.495 110.14 115.456 114.043 113.884 116.605C112.253 119.169 108.874 123.421 106.311 126.101C103.747 128.838 99.9614 132.275 97.8643 133.79C95.7672 135.305 92.6216 137.344 90.874 138.334C89.1265 139.324 85.5729 140.955 83.0098 141.887C80.4467 142.819 73.107 144.684 66.6992 146.023C60.2917 147.363 53.4763 149.11 51.5537 149.926C49.6314 150.741 47.2426 151.906 46.3105 152.605C45.3202 153.246 43.4566 154.878 42.0586 156.159C40.7188 157.499 39.612 158.839 39.5537 159.13C39.5541 159.48 41.5931 160.587 44.0977 161.693C46.6026 162.742 51.1459 164.256 54.1748 165.014C57.2039 165.829 62.214 166.702 65.2432 167.052C68.3306 167.401 73.4568 167.519 76.8936 167.344C80.2722 167.111 84.9906 166.528 87.3789 166.062C89.7673 165.537 94.0777 164.372 96.9902 163.44C99.8445 162.45 104.563 160.47 107.476 158.955C110.33 157.441 114.816 154.644 117.379 152.78C119.942 150.858 123.728 147.537 125.825 145.44C127.922 143.285 130.777 139.965 132.233 137.984C133.69 135.946 135.845 132.45 137.01 130.12C138.233 127.848 139.981 123.596 140.913 120.684C141.845 117.829 142.951 113.111 143.301 110.198C143.767 106.994 143.883 103.033 143.592 100.004C143.359 97.266 142.718 93.2465 142.136 90.9746C141.553 88.7611 140.388 85.441 139.515 83.6934C138.641 81.9459 137.068 79.3245 136.136 77.8682C135.146 76.412 132.874 73.7322 131.068 71.8682C129.321 70.0048 128.04 68.4908 128.271 68.5479C128.563 68.5479 129.961 69.1881 131.476 69.9453C133.048 70.7026 135.437 72.3919 136.835 73.6152C138.291 74.8385 140.447 77.4019 144 82.8193L143.592 79.9062C143.359 78.3334 142.719 75.712 142.078 74.0811C141.496 72.5083 139.923 69.4798 138.583 67.3828C137.243 65.2858 134.796 62.1981 133.165 60.5088C131.534 58.7613 128.505 56.2565 126.408 54.8584C124.311 53.5186 121.514 51.8289 120.116 51.1299C117.845 50.0232 117.495 49.9648 115.631 50.7803C114.524 51.2463 111.029 52.1789 107.884 52.8779C104.796 53.5187 100.893 54.7421 99.3203 55.5576C97.6893 56.315 95.4172 57.9454 94.1357 59.1104C92.9125 60.2754 90.9906 63.13 87.9033 69.4209L88.1943 65.8096C88.4273 63.7125 89.1259 60.9159 89.9414 59.4014C90.6987 57.8286 92.1559 55.848 93.2627 54.916C94.3695 53.9841 96.4661 52.6449 97.9805 51.8877C99.5533 51.1304 104.155 49.557 108.35 48.4502C112.485 47.3435 117.32 45.7127 118.951 44.8389C120.64 44.0233 123.321 41.9846 124.894 40.3535C126.466 38.7225 128.097 36.6833 128.505 35.8096C128.971 34.8778 129.204 34.1791 129.029 34.1787C128.855 34.1787 127.748 34.8193 126.524 35.6348C125.359 36.392 122.796 37.6151 120.874 38.2559C118.952 38.9549 113.942 39.8289 109.806 40.2949C105.612 40.7027 100.835 41.2849 99.1455 41.5762C97.4563 41.8092 96.1162 41.9257 96.1162 41.751C96.1192 41.574 98.2155 39.7694 100.835 37.6738C103.456 35.5767 107.301 32.0814 109.34 29.8096C111.437 27.596 114.291 23.9261 115.631 21.6543C117.029 19.4407 118.893 15.7709 119.709 13.499C120.699 10.936 121.398 7.79051 121.515 5.05273L121.806 0.683594L119.825 4.76074ZM50.3887 32.4307C50.0974 32.4307 47.476 33.0716 44.5635 33.9453C41.7092 34.7608 37.5151 36.2757 35.2432 37.3242C33.0297 38.3727 29.476 40.3529 27.3789 41.751C25.3401 43.2073 21.7862 46.0621 19.6309 48.1592C17.4174 50.2561 14.3307 53.6344 12.7578 55.7314C11.185 57.8285 8.7379 61.7319 7.33984 64.4697C5.94179 67.2076 4.07788 71.6352 3.2041 74.373C2.38859 77.1109 1.28144 81.5376 0.81543 84.2754C0.407677 87.0132 1.66467e-05 91.7899 0 94.9355C0 98.0229 0.291111 102.625 0.640625 105.13C0.990131 107.576 1.92277 111.829 2.73828 114.566C3.5538 117.304 5.24287 121.906 6.52441 124.761C7.80597 127.673 10.2531 132.101 11.9424 134.664C13.6317 137.227 16.6022 141.013 21.9609 146.896L25.2236 143.401C27.146 141.304 30.117 138.916 32.7383 137.46C35.0684 136.12 39.3791 134.256 42.2334 133.266C45.146 132.334 50.505 131.11 54.1748 130.586C57.9029 130.062 63.1455 129.13 65.8252 128.489C68.5629 127.849 73.3977 126.042 76.6016 124.47C79.8054 122.897 84.175 120.218 86.2139 118.528C88.311 116.781 91.34 113.693 93.0293 111.596C94.6603 109.557 96.7578 106.412 97.748 104.664C98.7383 102.916 100.136 99.4792 100.894 97.0908C101.884 93.8289 102.175 91.3822 102.175 87.4795C102.117 84.6252 101.767 81.4797 101.359 80.4893C100.66 78.7417 100.66 78.7416 99.5537 83.1104C98.913 85.4986 97.515 89.1685 96.4082 91.2656C95.3014 93.3627 92.738 97.1498 90.6992 99.7129C88.7186 102.276 85.2233 105.888 83.0098 107.693C80.7961 109.499 76.8345 112.179 74.2715 113.693C71.7084 115.15 67.6896 117.072 65.2432 118.004C62.8549 118.936 56.0393 120.916 50.0977 122.431C44.2142 123.945 37.3978 125.926 34.9512 126.916C32.563 127.906 30.3495 128.955 30 129.246C29.7087 129.479 29.2428 129.712 29.0098 129.712C28.7762 129.711 26.9704 128.197 24.9902 126.392C23.0098 124.528 20.3886 121.441 19.0488 119.519C17.7674 117.596 15.9617 114.451 15.0879 112.528C14.1559 110.606 12.9324 107.227 12.2334 104.955C11.5926 102.741 10.8349 98.6636 10.4854 95.9258C10.0776 92.5473 10.0776 89.2847 10.4854 85.7314C10.7767 82.877 11.7093 78.1586 12.583 75.2461C13.3986 72.3919 15.2039 67.7905 16.4854 65.0527C17.8252 62.3149 20.3885 58.1198 22.1943 55.7314C24.0002 53.3431 27.6701 49.2661 30.3496 46.7031C33.0292 44.0818 36.9905 40.819 39.0293 39.4209C41.1264 37.9646 44.68 35.8678 46.8936 34.6445C49.1649 33.4215 50.7375 32.431 50.3887 32.4307ZM36.4658 76.0605C36.9901 76.0605 37.2812 76.4106 37.1064 76.8184C36.9894 77.2263 36.2325 78.0418 35.4756 78.624C34.7184 79.2063 33.6701 79.5558 33.2041 79.4395C32.5051 79.2647 32.6801 78.857 33.9033 77.6338C34.7769 76.7602 35.9414 76.0608 36.4658 76.0605ZM62.6797 54.4492C64.6603 52.5269 66.2914 51.1869 66.3496 51.4199C66.3496 51.7113 66.0002 53.2844 65.5342 54.9736C65.0681 56.6629 63.7868 58.9932 62.7383 60.1582C61.6897 61.3232 59.8834 62.7206 58.6602 63.3613C57.4951 63.9438 55.5143 64.4102 54.291 64.4102H52.1357C57.5531 59.4006 60.6991 56.3716 62.6797 54.4492Z" fill="black"/>
</svg>
