<svg width="356" height="629" viewBox="0 0 356 629" fill="none" xmlns="http://www.w3.org/2000/svg">
<g clip-path="url(#clip0_1200_1373)">
<path fill-rule="evenodd" clip-rule="evenodd" d="M175.669 5.30315L172.025 11.0001H165.512H159V17.0001V23.0001H148.5H138V39.3651C138 54.4071 137.832 55.9431 135.927 58.3651C134.047 60.7551 133.216 61.0001 126.975 61.0001H120.095L119.798 67.2501L119.5 73.5001L109.25 73.7851L99 74.0701V80.0351V86.0001H49.5H0V357.503V629.005L178.25 628.753L356.5 628.5L356.752 357L357.004 85.5001L308.502 85.7691L260 86.0381V80.0191V74.0001H250.125H240.25L239.625 70.8751C239.281 69.1561 239 66.2311 239 64.3751V61.0001H232.073C225.78 61.0001 224.955 60.7591 223.073 58.3651C221.168 55.9431 221 54.4071 221 39.3651V23.0001H210.5H200V17.0461V11.0911L193.285 10.7961C186.832 10.5121 186.483 10.3641 184.327 7.00015C179.098 -1.15585 179.723 -1.03385 175.669 5.30315ZM177.632 6.21815C176.832 7.47315 174.21 12.1001 171.807 16.5001L167.436 24.5001L153.718 24.7781L140 25.0561V39.1831C140 53.2471 140.009 53.3021 142 51.5001C143.765 49.9021 144 48.4201 144 38.8691V28.0481L160.668 27.7741C172.913 27.5731 177.446 27.1681 177.751 26.2501C178.032 25.4051 177.003 25.0001 174.572 25.0001H170.978L175 17.0001C177.212 12.6001 179.237 9.00015 179.5 9.00015C179.763 9.00015 181.788 12.6001 184 17.0001L188.022 25.0001H184.428C181.997 25.0001 180.968 25.4051 181.249 26.2501C181.554 27.1681 186.087 27.5731 198.332 27.7741L215 28.0481V38.8691C215 48.4201 215.235 49.9021 217 51.5001C218.991 53.3021 219 53.2471 219 39.1831V25.0561L205.397 24.7781L191.794 24.5001L189.602 20.5001C184.494 11.1781 180.753 4.96515 179.948 4.46815C179.475 4.17615 178.433 4.96315 177.632 6.21815ZM177.044 31.4471C176.22 32.4401 176.063 34.7161 176.543 38.6971C177.702 48.2961 178.936 48.3231 178.97 38.7501C178.986 33.9381 178.83 30.0001 178.622 30.0001C178.415 30.0001 177.704 30.6511 177.044 31.4471ZM180 38.3451C180 43.4481 180.41 47.0001 181 47.0001C181.55 47.0001 182 45.3101 182 43.2431C182 41.1771 182.409 38.0601 182.909 36.3161C183.653 33.7241 183.47 32.8311 181.909 31.4181C180.044 29.7301 180 29.8901 180 38.3451ZM148.879 33.8311C151.996 38.2071 153.788 39.0341 151.439 35.0121C150.362 33.1691 148.848 31.4491 148.074 31.1911C147.165 30.8881 147.451 31.8251 148.879 33.8311ZM152.015 32.2501C152.038 34.0851 153.787 36.5461 154.537 35.7961C155.411 34.9221 154.099 31.0001 152.933 31.0001C152.42 31.0001 152.007 31.5631 152.015 32.2501ZM156 32.5001C156 33.3251 156.45 34.0001 157 34.0001C157.55 34.0001 158 33.3251 158 32.5001C158 31.6751 157.55 31.0001 157 31.0001C156.45 31.0001 156 31.6751 156 32.5001ZM160 32.5001C160 33.4171 160.484 34.0051 161.075 33.8081C161.666 33.6111 162.15 33.0231 162.15 32.5001C162.15 31.9781 161.666 31.3891 161.075 31.1921C160.484 30.9951 160 31.5831 160 32.5001ZM164 32.5001C164 33.3251 164.45 34.0001 165 34.0001C165.55 34.0001 166 33.3251 166 32.5001C166 31.6751 165.55 31.0001 165 31.0001C164.45 31.0001 164 31.6751 164 32.5001ZM167 31.9411C167 32.4591 167.45 33.1601 168 33.5001C168.55 33.8401 169 33.4161 169 32.5591C169 31.7021 168.55 31.0001 168 31.0001C167.45 31.0001 167 31.4231 167 31.9411ZM190 32.5591C190 33.4161 190.45 33.8401 191 33.5001C191.55 33.1601 192 32.4591 192 31.9411C192 31.4231 191.55 31.0001 191 31.0001C190.45 31.0001 190 31.7021 190 32.5591ZM193 32.5001C193 33.3251 193.45 34.0001 194 34.0001C194.55 34.0001 195 33.3251 195 32.5001C195 31.6751 194.55 31.0001 194 31.0001C193.45 31.0001 193 31.6751 193 32.5001ZM196.694 31.6391C195.895 32.4381 196.798 34.0001 198.059 34.0001C198.577 34.0001 199 33.3251 199 32.5001C199 30.9541 197.82 30.5131 196.694 31.6391ZM201 32.5001C201 33.3251 201.45 34.0001 202 34.0001C202.55 34.0001 203 33.3251 203 32.5001C203 31.6751 202.55 31.0001 202 31.0001C201.45 31.0001 201 31.6751 201 32.5001ZM204.711 32.9991C204.079 35.4141 205.54 36.6401 206.395 34.4121C207.245 32.1971 207.148 31.0001 206.117 31.0001C205.631 31.0001 204.998 31.9001 204.711 32.9991ZM209.245 32.2501C208.695 32.9381 207.918 34.6251 207.52 36.0001C206.893 38.1601 207.148 38.0321 209.397 35.0561C210.829 33.1611 212 31.4741 212 31.3061C212 30.5001 210.133 31.1401 209.245 32.2501ZM146.033 34.6391C146.015 35.2661 146.885 36.8411 147.967 38.1391C149.048 39.4381 149.948 39.9871 149.967 39.3611C149.985 38.7341 149.115 37.1591 148.033 35.8611C146.952 34.5621 146.052 34.0131 146.033 34.6391ZM210.241 36.9861C209.558 38.0791 209 39.2311 209 39.5451C209 40.6061 210.98 38.9051 212.03 36.9441C213.399 34.3871 211.841 34.4231 210.241 36.9861ZM172.778 36.6631C172.531 37.1231 173.143 39.5251 174.137 42.0001L175.944 46.5001L175.344 42.0001C174.74 37.4681 173.607 35.1131 172.778 36.6631ZM184.684 37.6751C183.219 43.0431 182.987 45.1261 183.921 44.5491C185.058 43.8461 186.518 37.1851 185.711 36.3781C185.421 36.0871 184.958 36.6711 184.684 37.6751ZM155.311 41.2501C151.392 45.3831 142.407 56.2551 133.766 67.3181L127.032 75.9401L114.266 76.2201L101.5 76.5001L101.195 81.2501C100.959 84.9301 101.226 86.0001 102.382 86.0001C103.334 86.0001 103.987 84.8241 104.187 82.7501L104.5 79.5001L120.477 79.2231C129.264 79.0711 136.891 78.5091 137.427 77.9731C138.058 77.3421 137.627 77.0001 136.2 77.0001C134.99 77.0001 134 76.5021 134 75.8931C134 73.8271 159.326 43.0001 161.024 43.0001C162.624 43.0001 166 40.0631 166 38.6711C166 38.3021 164.288 38.0001 162.196 38.0001C159.203 38.0001 157.735 38.6931 155.311 41.2501ZM193 38.8451C193 40.0961 196.239 42.7411 198.267 43.1471C200.241 43.5421 225 73.7081 225 75.7191C225 76.4231 224.073 77.0001 222.941 77.0001C221.809 77.0001 221.16 77.4501 221.5 78.0001C221.871 78.6011 228.677 79.0001 238.559 79.0001C254.1 79.0001 255 79.1051 255 80.9181C255 83.5311 256.024 86.0001 257.107 86.0001C257.598 86.0001 258 83.7501 258 81.0001V76.0001H244.999H231.998L227.249 69.8331C220.064 60.5021 202.788 39.5991 201.572 38.7651C200.083 37.7451 193 37.8111 193 38.8451ZM146.638 41.5001C146.955 42.3251 147.602 43.0001 148.076 43.0001C148.549 43.0001 148.678 42.3251 148.362 41.5001C148.045 40.6751 147.398 40.0001 146.924 40.0001C146.451 40.0001 146.322 40.6751 146.638 41.5001ZM170 40.5501C170 41.4001 173 47.0001 173.456 47.0001C173.678 47.0001 173.442 45.5401 172.93 43.7571C172.419 41.9731 172 40.3981 172 40.2571C172 40.1151 171.55 40.0001 171 40.0001C170.45 40.0001 170 40.2471 170 40.5501ZM186.25 43.5381C185.665 45.4421 185.359 47.0001 185.568 47.0001C186.505 47.0001 188.903 41.0581 188.153 40.5941C187.691 40.3091 186.834 41.6331 186.25 43.5381ZM211 41.5001C211 42.3251 211.177 43.0001 211.393 43.0001C211.609 43.0001 212.045 42.3251 212.362 41.5001C212.678 40.6751 212.501 40.0001 211.969 40.0001C211.436 40.0001 211 40.6751 211 41.5001ZM168.036 45.7501C168.086 46.7991 172.989 52.6821 172.995 51.7001C173.005 50.1251 169.929 45.0001 168.974 45.0001C168.438 45.0001 168.016 45.3371 168.036 45.7501ZM188.236 46.2611C187.046 47.7491 185.66 52.0001 186.365 52.0001C187.499 52.0001 190.964 46.0961 190.131 45.5811C189.634 45.2741 188.781 45.5801 188.236 46.2611ZM159.441 48.0961C159.068 48.6991 159.508 49.9361 160.418 50.8461C161.78 52.2071 162.221 52.2591 162.914 51.1391C163.563 50.0891 165.097 50.8651 169.628 54.5371C172.857 57.1541 175.831 59.7921 176.235 60.3981C176.639 61.0041 176.976 64.9871 176.985 69.2501C176.997 75.4791 176.706 77.0001 175.5 77.0001C174.675 77.0001 174 77.4351 174 77.9661C174 79.6161 177.326 86.0001 178.185 86.0001C179.573 86.0001 179.166 61.5811 177.75 59.8851C175.627 57.3431 162.34 47.0001 161.198 47.0001C160.604 47.0001 159.813 47.4931 159.441 48.0961ZM188.75 53.6941L180 60.2621V73.1311C180 80.2091 180.338 85.9971 180.75 85.9941C181.756 85.9851 185 80.2031 185 78.4191C185 77.6391 184.325 77.0001 183.5 77.0001C182.292 77.0001 182 75.4491 182 69.0431V61.0861L188.861 55.5431C192.634 52.4941 195.956 50.0001 196.244 50.0001C196.531 50.0001 197.002 50.9001 197.289 51.9991C197.906 54.3571 196.137 55.8401 194.967 53.9461C194.356 52.9581 192.784 53.6951 188.578 56.9391C185.51 59.3071 183 61.4131 183 61.6221C183 62.9641 186.461 61.5341 189.347 59.0001C193.22 55.6001 194 55.3541 194 57.5351C194 58.7201 194.4 58.8371 195.75 58.0491C199.375 55.9321 203.395 52.0611 202.694 51.3611C202.294 50.9611 201.434 51.1661 200.783 51.8171C198.789 53.8111 197.574 53.1281 199.443 51.0631C201.233 49.0851 200.832 46.9501 198.691 47.0631C198.036 47.0981 193.563 50.0821 188.75 53.6941ZM157 51.7501C157 53.2451 164.366 58.4031 164.77 57.1911C165.389 55.3321 166.65 55.7531 170.448 59.0891C172.383 60.7881 174.474 62.0091 175.094 61.8021C175.713 61.5961 173.583 59.2541 170.36 56.5981C165.846 52.8791 164.425 52.1441 164.174 53.3981C163.887 54.8331 163.545 54.7871 161.289 53.0131C158.643 50.9311 157 50.4471 157 51.7501ZM155.056 54.2501C155.139 56.1131 166.29 64.6311 166.768 63.1971C167.376 61.3711 168.913 61.7491 172.231 64.5411C173.892 65.9391 175.532 66.8021 175.875 66.4591C176.486 65.8481 168.153 58.0891 166.823 58.0301C166.451 58.0131 166.001 58.6771 165.823 59.5041C165.587 60.6011 164.285 59.9381 161 57.0461C156.211 52.8311 154.966 52.2451 155.056 54.2501ZM199.452 57.0551C193.964 61.4031 193.293 61.6561 192.823 59.5501C192.584 58.4781 191.202 59.0451 187.523 61.7251C184.786 63.7181 183.092 65.5311 183.759 65.7531C184.425 65.9751 186.284 65.2221 187.89 64.0781C191.386 61.5891 192 61.5121 192 63.5621C192 64.7431 193.038 64.3761 196.25 62.0611C203.984 56.4871 206.343 54.3301 205.368 53.7271C204.838 53.4001 202.176 54.8971 199.452 57.0551ZM153 56.8521C153 57.3211 155.784 59.9091 159.188 62.6021C168.914 70.3001 169.317 70.5491 169.787 69.1381C170.096 68.2121 170.826 68.3111 172.687 69.5301C176.62 72.1071 176.855 70.1481 172.994 66.9811C170.284 64.7581 169.425 64.4521 169.165 65.6171C168.766 67.4101 166.326 66.0301 158.936 59.8291C154.326 55.9621 153 55.2971 153 56.8521ZM199.044 61.5341C191.644 67.0321 190 67.8431 190 66.0001C190 64.3491 188.637 64.8541 185.674 67.6011C182.352 70.6821 182.863 71.9751 186.469 69.6121C187.861 68.7001 189 68.4141 189 68.9771C189 71.1151 191.732 69.8041 198.5 64.4211C206.901 57.7381 207.505 57.1711 206.884 56.5511C206.619 56.2861 203.091 58.5281 199.044 61.5341ZM152 59.8271C152 61.4621 171.295 76.1411 171.982 75.0291C172.355 74.4261 173.524 74.2351 174.58 74.6051C176.268 75.1971 176.224 74.9891 174.217 72.8891C172.452 71.0421 171.748 70.7991 171.116 71.8181C170.508 72.7971 168.09 71.3171 161.721 66.0681C153.16 59.0131 152 58.2681 152 59.8271ZM201.327 63.6691C198.672 65.6871 194.786 68.7091 192.692 70.3841C189.53 72.9121 188.729 73.1801 187.974 71.9641C187.215 70.7411 186.691 70.8931 184.783 72.8891C182.776 74.9891 182.732 75.1971 184.42 74.6051C185.522 74.2191 186.655 74.4421 187.079 75.1271C187.583 75.9441 190.856 74.0081 197.409 69.0181C202.684 65.0001 207 61.3281 207 60.8571C207 59.5021 206.45 59.7751 201.327 63.6691ZM201.058 74.7621L187.617 85.5001L191.339 85.8121C194.638 86.0891 195.931 85.4061 202.699 79.8121C216.976 68.0121 217.258 67.7101 215.8 65.7621C214.618 64.1821 213.28 64.9991 201.058 74.7621ZM142.645 66.4821C142.28 67.4351 143.719 69.3101 146.677 71.7321C149.207 73.8041 153.303 77.2191 155.779 79.3191C162.633 85.1341 164.58 86.1651 168.043 85.8191C171.124 85.5101 170.816 85.1691 158.485 75.2501C151.476 69.6121 145.173 65.0001 144.478 65.0001C143.783 65.0001 142.958 65.6671 142.645 66.4821ZM139 79.0001C139 83.0001 139.429 86.0001 140 86.0001C140.571 86.0001 141 83.0001 141 79.0001C141 75.0001 140.571 72.0001 140 72.0001C139.429 72.0001 139 75.0001 139 79.0001ZM142 78.9411C142 82.9801 142.428 86.0001 143 86.0001C143.563 86.0001 144 83.1861 144 79.5591C144 76.0161 143.55 72.8401 143 72.5001C142.369 72.1101 142 74.4901 142 78.9411ZM215.667 72.6671C214.59 73.7431 214.897 86.0001 216 86.0001C216.571 86.0001 217 83.0001 217 79.0001C217 71.9611 216.891 71.4431 215.667 72.6671ZM218.444 79.0001C218.413 82.8501 218.751 86.0001 219.194 86.0001C219.637 86.0001 220 82.8501 220 79.0001C220 75.1501 219.662 72.0001 219.25 72.0001C218.838 72.0001 218.475 75.1501 218.444 79.0001ZM145.32 80.0001C145.32 83.5751 145.502 85.0371 145.723 83.2501C145.945 81.4631 145.945 78.5371 145.723 76.7501C145.502 74.9631 145.32 76.4251 145.32 80.0001ZM212.599 78.2381C212.147 80.8431 212.142 83.7681 212.589 84.7381C213.233 86.1341 213.478 85.8241 213.765 83.2501C213.964 81.4631 213.968 78.5371 213.774 76.7501C213.448 73.7451 213.36 73.8571 212.599 78.2381ZM108 82.8001C108 83.8521 110.172 86.0001 111.235 86.0001C111.695 86.0001 111.589 85.1001 111 84.0001C109.943 82.0251 108 81.2481 108 82.8001ZM113.032 83.1911C113.014 84.1211 113.48 85.1791 114.067 85.5411C115.829 86.6301 116.076 85.4821 114.521 83.4271C113.241 81.7351 113.06 81.7061 113.032 83.1911ZM117 83.4411C117 84.2981 117.45 85.0001 118 85.0001C118.55 85.0001 119 84.5771 119 84.0591C119 83.5411 118.55 82.8401 118 82.5001C117.45 82.1601 117 82.5841 117 83.4411ZM120.694 82.6391C119.895 83.4381 120.798 85.0001 122.059 85.0001C122.577 85.0001 123 84.3251 123 83.5001C123 81.9541 121.82 81.5131 120.694 82.6391ZM125.079 83.5831C125.127 84.7481 125.364 84.9851 125.683 84.1881C125.972 83.4661 125.936 82.6031 125.604 82.2711C125.272 81.9391 125.036 82.5291 125.079 83.5831ZM128 83.5591C128 84.4161 128.45 84.8401 129 84.5001C129.55 84.1601 130 83.4591 130 82.9411C130 82.4231 129.55 82.0001 129 82.0001C128.45 82.0001 128 82.7021 128 83.5591ZM229 82.9411C229 83.4591 229.45 84.1601 230 84.5001C230.55 84.8401 231 84.4161 231 83.5591C231 82.7021 230.55 82.0001 230 82.0001C229.45 82.0001 229 82.4231 229 82.9411ZM233 83.5591C233 84.4161 233.457 84.8351 234.016 84.4901C234.575 84.1441 234.774 83.4431 234.457 82.9311C233.6 81.5441 233 81.8021 233 83.5591ZM236 83.5001C236 84.4171 236.484 85.0051 237.075 84.8081C237.666 84.6111 238.15 84.0231 238.15 83.5001C238.15 82.9771 237.666 82.3891 237.075 82.1921C236.484 81.9951 236 82.5831 236 83.5001ZM240.583 82.8661C240.152 83.5631 240.07 84.4031 240.4 84.7331C241.295 85.6281 242.271 84.3121 241.787 82.8621C241.449 81.8461 241.213 81.8461 240.583 82.8661ZM243.71 84.0001C243.121 86.2521 244.008 86.5921 245.8 84.8001C247.397 83.2031 247.319 82.0001 245.617 82.0001C244.856 82.0001 243.998 82.9001 243.71 84.0001ZM248 84.0001C247.411 85.1001 247.305 86.0001 247.765 86.0001C248.828 86.0001 251 83.8521 251 82.8001C251 81.2481 249.057 82.0251 248 84.0001ZM0.493 357.5C0.493 507.1 0.609 568.151 0.75 493.169C0.891 418.188 0.891 295.788 0.75 221.169C0.609 146.551 0.493 207.9 0.493 357.5ZM2 94.5001C2 99.6111 2.321 101 3.5 101C4.633 101 5 99.7781 5 96.0001V91.0001H10C13.778 91.0001 15 90.6331 15 89.5001C15 88.3211 13.611 88.0001 8.5 88.0001H2V94.5001ZM17 89.5001C17 90.8091 22.222 91.0001 58 91.0001C93.778 91.0001 99 90.8091 99 89.5001C99 88.1911 93.778 88.0001 58 88.0001C22.222 88.0001 17 88.1911 17 89.5001ZM101.733 89.7421C102.099 90.6991 110.322 90.9821 137.604 90.9731C169.112 90.9631 173 90.7891 173 89.3901C173 87.9851 169.218 87.8551 137.129 88.1591C109.078 88.4261 101.362 88.7711 101.733 89.7421ZM178.079 89.5831C178.127 90.7481 178.364 90.9851 178.683 90.1881C178.972 89.4661 178.936 88.6031 178.604 88.2711C178.272 87.9391 178.036 88.5291 178.079 89.5831ZM180 89.5001C180 90.3251 180.436 91.0001 180.969 91.0001C181.501 91.0001 181.678 90.3251 181.362 89.5001C181.045 88.6751 180.609 88.0001 180.393 88.0001C180.177 88.0001 180 88.6751 180 89.5001ZM186.674 89.4081C186.108 90.8821 189.213 91.0021 221.693 90.7631C244.33 90.5961 257.455 90.1351 257.666 89.5001C257.881 88.8501 245.612 88.3761 222.646 88.1461C190.803 87.8261 187.232 87.9521 186.674 89.4081ZM260 89.5001C260 90.8081 265.056 91.0001 299.5 91.0001C333.944 91.0001 339 90.8081 339 89.5001C339 88.1921 333.944 88.0001 299.5 88.0001C265.056 88.0001 260 88.1921 260 89.5001ZM341 89.5001C341 90.6331 342.222 91.0001 346 91.0001H351V96.0001C351 99.7781 351.367 101 352.5 101C353.679 101 354 99.6111 354 94.5001V88.0001H347.5C342.389 88.0001 341 88.3211 341 89.5001ZM7 97.0001C7 99.8891 7.417 101 8.5 101C9.433 101 10 100.056 10 98.5001C10 96.5001 10.5 96.0001 12.5 96.0001C14.056 96.0001 15 95.4331 15 94.5001C15 93.4171 13.889 93.0001 11 93.0001H7V97.0001ZM17 94.5001C17 95.4331 17.944 96.0001 19.5 96.0001C21.056 96.0001 22 95.4331 22 94.5001C22 93.5671 21.056 93.0001 19.5 93.0001C17.944 93.0001 17 93.5671 17 94.5001ZM24 94.5001C24 95.8251 37.958 96.0001 143.622 96.0001C249.84 96.0001 263.105 95.8321 262 94.5001C260.906 93.1821 246.382 93.0001 142.378 93.0001C37.82 93.0001 24 93.1751 24 94.5001ZM264 94.5001C265.059 95.7761 269.993 96.0001 297 96.0001C324.007 96.0001 328.941 95.7761 330 94.5001C331.102 93.1721 327.327 93.0001 297 93.0001C266.673 93.0001 262.898 93.1721 264 94.5001ZM332.638 94.5001C332.195 95.6561 332.859 96.0001 335.531 96.0001C337.948 96.0001 339 95.5451 339 94.5001C339 93.5121 338.012 93.0001 336.107 93.0001C334.458 93.0001 332.966 93.6451 332.638 94.5001ZM341 94.5001C341 95.4331 341.944 96.0001 343.5 96.0001C345.5 96.0001 346 96.5001 346 98.5001C346 100.056 346.567 101 347.5 101C348.583 101 349 99.8891 349 97.0001V93.0001H345C342.111 93.0001 341 93.4171 341 94.5001ZM12 99.5001C12 100.325 12.675 101 13.5 101C14.325 101 15 100.325 15 99.5001C15 98.6751 14.325 98.0001 13.5 98.0001C12.675 98.0001 12 98.6751 12 99.5001ZM17 99.5001C17 100.433 17.944 101 19.5 101C21.056 101 22 100.433 22 99.5001C22 98.5671 21.056 98.0001 19.5 98.0001C17.944 98.0001 17 98.5671 17 99.5001ZM24 99.5001C24 100.827 41.375 101 174.378 101C306.827 101 324.904 100.821 326 99.5001C327.102 98.1731 323.896 98.0001 298.122 98.0001C276.138 98.0001 269 98.2941 269 99.2001C269 100.133 268.733 100.133 267.8 99.2001C266.88 98.2801 238.311 98.0001 145.3 98.0001C38.144 98.0001 24 98.1751 24 99.5001ZM328 99.5001C326.916 100.806 327.549 101 332.878 101C337.653 101 339 100.67 339 99.5001C339 98.3721 337.791 98.0001 334.122 98.0001C331.007 98.0001 328.795 98.5421 328 99.5001ZM341 99.5001C341 100.325 341.675 101 342.5 101C343.325 101 344 100.325 344 99.5001C344 98.6751 343.325 98.0001 342.5 98.0001C341.675 98.0001 341 98.6751 341 99.5001ZM2 357.5C2 583.056 2.171 612 3.5 612C4.829 612 5 583.056 5 357.5C5 131.944 4.829 103 3.5 103C2.171 103 2 131.944 2 357.5ZM7 105.893C7 107.542 7.645 109.034 8.5 109.362C9.656 109.805 10 109.141 10 106.469C10 104.052 9.545 103 8.5 103C7.512 103 7 103.988 7 105.893ZM12 107.878C12 110.993 12.542 113.205 13.5 114C14.806 115.084 15 114.451 15 109.122C15 104.347 14.67 103 13.5 103C12.372 103 12 104.209 12 107.878ZM17 357.5V612H178H339V357.5V103H178H17V357.5ZM341 109.122C341 114.451 341.194 115.084 342.5 114C343.458 113.205 344 110.993 344 107.878C344 104.209 343.628 103 342.5 103C341.33 103 341 104.347 341 109.122ZM346 106.469C346 109.141 346.344 109.805 347.5 109.362C348.355 109.034 349 107.542 349 105.893C349 103.988 348.488 103 347.5 103C346.455 103 346 104.052 346 106.469ZM351 357.5C351 583.056 351.171 612 352.5 612C353.829 612 354 583.056 354 357.5C354 131.944 353.829 103 352.5 103C351.171 103 351 131.944 351 357.5ZM7 357.5C7 576.715 7.167 604.106 8.5 603C9.826 601.9 10 573.396 10 357.5C10 141.604 9.826 113.1 8.5 112C7.167 110.894 7 138.285 7 357.5ZM347.2 112.2C346.273 113.127 346 168.995 346 357.578C346 573.404 346.174 601.9 347.5 603C348.833 604.106 349 576.729 349 357.622C349 221.98 348.865 111 348.7 111C348.535 111 347.86 111.54 347.2 112.2ZM12 357.5C12 573.16 12.167 600.106 13.5 599C14.826 597.9 15 569.84 15 357.5C15 145.16 14.826 117.1 13.5 116C12.167 114.894 12 141.84 12 357.5ZM342.2 116.2C341.273 117.127 341 172.106 341 357.578C341 569.849 341.174 597.9 342.5 599C343.833 600.106 344 573.173 344 357.622C344 224.18 343.865 115 343.7 115C343.535 115 342.86 115.54 342.2 116.2ZM13.2 601.2C11.373 603.027 11.622 612 13.5 612C14.667 612 15 610.667 15 606C15 602.7 14.865 600 14.7 600C14.535 600 13.86 600.54 13.2 601.2ZM341 605.878C341 610.653 341.33 612 342.5 612C343.628 612 344 610.791 344 607.122C344 604.007 343.458 601.795 342.5 601C341.194 599.916 341 600.549 341 605.878ZM8.25 605.662C6.417 606.402 6.638 612 8.5 612C9.548 612 10 610.944 10 608.5C10 606.575 9.887 605.036 9.75 605.079C9.613 605.122 8.938 605.385 8.25 605.662ZM346 608.531C346 610.948 346.455 612 347.5 612C348.488 612 349 611.012 349 609.107C349 607.458 348.355 605.966 347.5 605.638C346.344 605.195 346 605.859 346 608.531ZM2 620.5V627H8.5C13.611 627 15 626.679 15 625.5C15 624.367 13.778 624 10 624H5V619C5 615.222 4.633 614 3.5 614C2.321 614 2 615.389 2 620.5ZM7 618V622H11C13.889 622 15 621.583 15 620.5C15 619.567 14.056 619 12.5 619C10.5 619 10 618.5 10 616.5C10 614.944 9.433 614 8.5 614C7.417 614 7 615.111 7 618ZM12 615.5C12 616.325 12.675 617 13.5 617C14.325 617 15 616.325 15 615.5C15 614.675 14.325 614 13.5 614C12.675 614 12 614.675 12 615.5ZM17 615.5C17 616.605 18.153 617 21.378 617C24.049 617 26.24 616.415 27 615.5C28.081 614.197 27.507 614 22.622 614C18.291 614 17 614.345 17 615.5ZM29 615.5C27.894 616.832 44.562 617 178 617C311.438 617 328.106 616.832 327 615.5C325.904 614.179 308.118 614 178 614C47.882 614 30.096 614.179 29 615.5ZM329 615.5C329.76 616.415 331.951 617 334.622 617C337.847 617 339 616.605 339 615.5C339 614.345 337.709 614 333.378 614C328.493 614 327.919 614.197 329 615.5ZM341 615.5C341 616.325 341.675 617 342.5 617C343.325 617 344 616.325 344 615.5C344 614.675 343.325 614 342.5 614C341.675 614 341 614.675 341 615.5ZM346 616.5C346 618.5 345.5 619 343.5 619C341.944 619 341 619.567 341 620.5C341 621.583 342.111 622 345 622H349V618C349 615.111 348.583 614 347.5 614C346.567 614 346 614.944 346 616.5ZM351 619V624H346C342.222 624 341 624.367 341 625.5C341 626.679 342.389 627 347.5 627H354V620.5C354 615.389 353.679 614 352.5 614C351.367 614 351 615.222 351 619ZM17 620.5C17 621.413 17.931 622 19.378 622C20.685 622 22.315 621.325 23 620.5C24.068 619.214 23.729 619 20.622 619C18.069 619 17 619.443 17 620.5ZM25 620.5C23.894 621.832 41.007 622 178 622C314.993 622 332.106 621.832 331 620.5C329.903 619.179 311.673 619 178 619C44.327 619 26.097 619.179 25 620.5ZM333 620.5C333.685 621.325 335.315 622 336.622 622C338.069 622 339 621.413 339 620.5C339 619.443 337.931 619 335.378 619C332.271 619 331.932 619.214 333 620.5ZM17 625.5C17 626.827 35.556 627 178 627C320.444 627 339 626.827 339 625.5C339 624.173 320.444 624 178 624C35.556 624 17 624.173 17 625.5Z" fill="black"/>
</g>
<defs>
<clipPath id="clip0_1200_1373">
<rect width="356" height="629" fill="white"/>
</clipPath>
</defs>
</svg>
