<svg width="69" height="15" viewBox="0 0 69 15" fill="none" xmlns="http://www.w3.org/2000/svg">
<path d="M49.3 1H67L60.7 7.5L67 14H49.3L43 7.5L49.3 1Z" fill="hsl(205, 8%, 30%)" stroke="hsl(205, 8%, 30%)"/>
<path d="M15.3 1H29L22.7 7.5L29 14H15.3L9 7.5L15.3 1Z" fill="hsl(205, 8%, 30%)" stroke="hsl(205, 8%, 30%)"/>
<path d="M51.41 3H55L50.59 7.5L55 12H51.41L47 7.5L51.41 3Z" fill="#CCCCCC"/>
<path d="M19.41 3H23L18.59 7.5L23 12H19.41L15 7.5L19.41 3Z" fill="#CCCCCC"/>
<path d="M58.41 3H62L57.59 7.5L62 12H58.41L54 7.5L58.41 3Z" fill="#CCCCCC"/>
<path d="M40.625 5H48L45.375 7.5L48 10H40.625L38 7.5L40.625 5Z" fill="hsl(205, 8%, 30%)" stroke="hsl(205, 8%, 30%)"/>
<path d="M9.625 5H17L14.375 7.5L17 10H9.625L7 7.5L9.625 5Z" fill="hsl(205, 8%, 30%)" stroke="hsl(205, 8%, 30%)"/>
<path d="M3.625 5H6L3.375 7.5L6 10H3.625L1 7.5L3.625 5Z" fill="hsl(205, 8%, 30%)" stroke="hsl(205, 8%, 30%)"/>
<circle cx="31.5" cy="7.5" r="2.5" fill="hsl(205, 8%, 30%)"/>
<line x1="38" y1="7.5" x2="22" y2="7.5" stroke="hsl(205, 8%, 30%)"/>
</svg>
