<svg width="57" height="13" viewBox="0 0 57 13" fill="none" xmlns="http://www.w3.org/2000/svg">
<path d="M9 3.5H2L5 6.5L2 9.5H9L12 6.5L9 3.5Z" fill="#9E8382" stroke="#9E8382"/>
<path d="M15.5 4L12 0.5H11L15 4.5H17L19 6.5L17 8.5H15L11 12.5H12L15.5 9H17L19.5 6.5L17 4H15.5Z" stroke="#9E8382"/>
<path d="M34.5 4L31 0.5H30L34 4.5H36L38 6.5L36 8.5H34L30 12.5H31L34.5 9H36L38.5 6.5L36 4H34.5Z" stroke="#9E8382"/>
<path d="M48.5 4L45 0.5H44L48 4.5H53L55 6.5L53 8.5H48L44 12.5H45L48.5 9H53L55.5 6.5L53 4H48.5Z" stroke="#9E8382"/>
<path d="M24 6.5L18 0.5H17L23 6.5L17 12.5H18L24 6.5Z" stroke="#9E8382"/>
<path d="M28 6.5L22 0.5H21L27 6.5L21 12.5H22L28 6.5Z" stroke="#9E8382"/>
<path d="M32 6.5L26 0.5H25L31 6.5L25 12.5H26L32 6.5Z" stroke="#9E8382"/>
<path d="M51 6.5L45 0.5H42L48 6.5L42 12.5H45L51 6.5Z" fill="#9E8382" stroke="#9E8382"/>
<path d="M44 6.5L38 0.5H37L43 6.5L37 12.5H38L44 6.5Z" stroke="#9E8382"/>
<rect x="38" width="6" height="2" fill="#9E8382"/>
<rect x="38" y="11" width="6" height="2" fill="#9E8382"/>
</svg>
