<svg width="369" height="373" viewBox="0 0 369 373" fill="none" xmlns="http://www.w3.org/2000/svg">
<g clip-path="url(#clip0_1146_4389)">
<path fill-rule="evenodd" clip-rule="evenodd" d="M339.444 84.3975C327 88 324.189 88.69 314.5 96C301.918 105.493 297.369 110.636 293.453 124.915C293.453 130 290.076 136.169 288.63 140.146C286.1 147.103 285.391 154.745 287 163C289 165.5 291.102 175.37 292.606 181C294.472 184.68 295.508 184.837 294 188C293.116 189.852 292.606 197.727 292.606 199C292.606 200.274 289.298 200.444 287.217 204.514C282.65 213.449 280.617 214.265 275.749 209.122C270.233 203.295 255.356 200.36 243.363 202.734C239.598 203.479 238.911 203.276 235.721 200.476C231.51 196.779 224.958 193.752 219.158 192.824C215.576 192.252 216.569 191.237 215 188.195C202.5 167.791 183.071 166.051 167.5 167.5C159.146 168.277 152.372 172.42 146.764 175.707C142.462 178.228 136.586 182.773 134.5 186.5C133.483 188.318 131.298 188.013 127.5 185.5C119.283 180.062 108.757 181.077 99.4085 183.895C96.7085 184.708 95.162 184.474 95 184C94.838 183.526 93.815 180.515 92 177.5C90.015 174.205 87.0795 170.736 86.7305 167.791C86.7305 163 87.6285 158.099 85.5 154C74.5 141 68.5 129.5 47.4605 132.427C43.7175 132.416 46.717 131.28 43.5 126.5C33.5 116.5 21.527 109.104 9 110C5.322 110.263 1.76048 113.444 1.13548 113.831L1.13477 372.42L368 372V82.6236C368 82.6236 362.875 82.4475 358.444 82.1575C351.771 81.7215 348.511 82.1055 339.444 84.3975Z" fill="#E9E4D7"/>
<path d="M96.0005 199C91.8205 196.79 87.2705 195.9 82.7005 194.86C79.1205 194.05 75.6305 194.18 72.0905 193.98C70.2805 193.88 68.8905 195.19 67.0005 195.1C65.1605 195 63.2705 194.49 61.3305 195.87C60.1105 196.74 58.0305 196.3 56.2805 196.78C54.0805 197.39 51.5605 197.19 49.2505 197.98C48.7705 198.14 48.1605 197.96 48.0305 197.46C47.8705 196.85 48.0605 196.41 48.7805 195.94C50.7005 194.7 53.2005 195.51 54.9805 194C59.8205 194.16 64.2505 191.71 69.1405 191.95C73.9605 192.19 78.8505 191.57 83.6105 192.15C87.0705 192.57 90.6905 192.88 93.9305 194.93C97.4405 197.16 101.43 198.57 104.94 200.92C106.63 202.05 107.96 203.45 109.24 204.87C110.39 206.14 112.58 205.9 113.1 208.17C113.43 209.62 115.41 210.25 116.44 211.27C117.6 212.42 119 213.83 119.66 215.34C120.36 216.96 121.69 217.83 122.58 219.13C123.18 220.01 123.97 221.09 123.9 222.03C123.74 224.33 126.37 224.98 126.55 226.99C126.55 227.03 127.49 226.99 127.99 226.99C128.19 229.37 126.16 230.67 125.04 232.22C123.01 235.03 121.09 237.86 119.5 240.94C118.15 243.55 116.63 245.99 115.88 248.95C115.17 251.75 113.59 254.29 112.82 257.17C112.46 258.54 112.08 259.87 111.97 261.29C111.9 262.22 112.02 263.1 111.51 264.1C110.79 265.51 110.48 267.22 110.4 268.82C110.36 269.53 114.32 271.52 115.98 271.99C115.95 272.68 116.29 273.02 116.98 272.99C116.98 273.16 116.91 273.41 116.99 273.47C117.95 274.18 118.52 275.9 119.77 275.57C121.28 275.17 121.01 273.48 120.98 272.18C120.9 269.13 121.94 266.3 123.05 263.58C124.52 259.98 125.11 255.93 127.99 252.98H128.99C129.17 254.46 128.66 255.74 128.02 257.06C125.06 263.16 122.74 269.45 122.97 276.4C123 277.32 123.34 278.34 122.36 279.14C121.48 279.87 122.04 280.55 122.68 281.18C123.22 281.73 123.21 282.44 122.57 282.84C121.96 283.22 121.34 282.94 120.88 282.36C120.67 282.1 120.29 281.93 120.2 281.65C118.39 275.98 113.31 273.86 108.88 270.9C105.76 268.82 102.69 266.62 99.3105 265.07C96.9405 263.98 94.4505 263.07 92.2605 261.66C90.0105 260.21 87.4405 259.62 85.0405 258.63C82.0605 257.4 78.9205 256.54 75.7205 255.79C71.6505 254.84 67.6605 255.17 63.6405 254.97C62.9805 254.94 62.2505 255.13 61.6605 254.92C61.0905 254.71 60.3705 254.17 60.2505 253.65C59.9905 252.55 61.0505 253.19 61.4805 252.95C62.6705 252.3 61.2105 250.39 62.5605 250.14C63.1505 250.03 63.9505 251.8 64.7305 251.87C67.0105 252.08 69.3405 251.98 71.6305 251.74C72.3505 251.67 71.8505 250.57 71.9905 249.96C73.8705 252.42 73.8605 252.5 77.6605 252.9C78.6105 253 78.9805 253.83 79.7405 253.93C80.3605 254.01 81.2605 254.09 81.6105 253.74C82.3805 252.97 81.1805 252.79 80.8805 252.4C79.9905 251.27 78.4705 250.51 78.9905 248.68C75.5605 243.29 73.1605 237.25 67.2905 233.54C64.2605 231.63 61.6005 229.07 58.2005 227.68C54.3605 226.11 50.5905 224.05 46.5905 223.28C43.6705 222.72 40.6705 221.94 37.6105 221.95C29.9505 221.97 22.3005 222.03 14.6405 221.9C12.8005 221.87 11.2405 222.51 9.55047 222.93C7.88047 223.34 6.05047 222.35 4.39047 223.86C3.75047 224.44 2.15047 223.95 0.980469 223.95V221.95C2.96047 221.62 4.77047 220.95 6.61047 220.06C8.36047 219.2 10.5805 220.55 12.6505 219.09C13.7505 218.32 15.8405 218.96 17.4805 218.95C19.3205 218.95 20.8205 218.283 21.9805 216.95V217.95C21.9805 218.12 21.9305 218.41 21.9805 218.43C25.3505 219.61 28.8405 218.62 32.2605 218.95C32.8805 217.75 34.0805 216.85 33.9805 215.28C33.8505 213.02 35.0205 211.34 36.5505 209.85C37.1405 209.28 37.7505 208.48 38.5905 209.13C39.4905 209.83 38.8505 210.49 38.2805 211.17C37.3705 212.26 36.7505 213.62 35.7405 214.58C34.8505 215.43 35.0505 216.33 34.9505 217.28C34.8105 218.57 35.2705 219.12 36.6005 218.95C37.2605 218.87 37.9305 218.89 38.6005 218.95C39.6905 219.04 39.7905 218.48 40.0305 217.53C40.8705 214.24 42.5205 211.36 45.2405 209.22C45.5405 208.98 46.2505 208.89 46.5505 209.08C47.2005 209.49 47.2605 210.26 46.6505 210.72C44.5205 212.34 43.5405 214.71 42.4405 216.99C41.3605 219.23 41.7805 220.07 44.1105 219.88C46.4605 219.69 48.6105 220.41 50.5905 221.2C53.8805 222.51 57.1605 223.85 60.4605 225.13C62.8505 226.06 65.3605 227.48 67.0705 229.61C68.5405 231.44 70.6305 232.43 72.4305 233.7C74.9605 235.49 78.1505 235.63 81.0905 234.24C82.0905 233.77 83.0205 234.12 83.9605 233.93C81.8305 235.74 79.5705 237.22 76.5805 236.93C74.1505 236.7 75.7205 237.76 75.8805 238.67C76.0505 239.61 76.6205 240.07 77.1705 240.63C78.0605 241.54 78.8805 242.88 80.2905 241.17C80.5105 240.9 81.2005 240.92 81.6505 240.96C82.0905 241 82.5105 241.26 82.9405 241.42C82.7205 241.65 82.4905 241.88 82.2805 242.12C81.8405 242.61 81.2905 242.79 80.6605 243.01C79.8205 243.31 78.8105 243.99 79.0005 245.11C79.2505 246.62 80.5805 245.87 81.4005 245.9C83.1205 245.96 83.5105 246.49 82.4805 247.94C82.2205 248.3 82.0405 248.77 81.9805 249.21C81.8105 250.34 82.0405 251.12 83.5005 250.96C84.6405 250.84 85.8105 250.94 86.9605 250.94V251.94C85.9005 252.08 85.2605 253.13 83.9605 253.03C82.8105 252.95 82.5905 254.04 83.4605 254.94C83.6905 255.17 83.8905 255.45 84.1505 255.62C85.3405 256.36 86.6605 255.77 87.9105 255.93C89.4505 256.12 88.5705 254.38 89.4205 253.95C89.9605 253.68 90.1305 252.82 90.9505 252.94C90.9505 253.42 91.0905 253.96 90.9305 254.37C89.5605 257.85 89.5505 257.85 92.9905 257.94C93.3105 257.94 93.6305 257.94 102.95 255.57C111.99 250.95 111.99 250.98 109.88 250.93C106.96 250.87 104.45 252.19 102.01 253.46C99.5405 254.73 97.3405 256.53 94.9005 257.87C94.3205 258.18 93.8705 258.08 93.9205 258.94C93.9805 259.89 94.5305 259.97 95.2205 259.94C96.3205 259.9 97.2905 259.95 98.3805 259.14C101.78 256.59 105.83 255.45 110.01 255C111.37 254.85 112.27 254.78 102.96 255.57C93.9505 257.13 93.9805 256.44 94.6105 255.7C95.4005 254.75 96.5605 254.65 97.4805 254.08C101.7 251.46 105.8 248.21 111.28 248.96C112.73 249.16 113.35 248.19 113.91 247.23C114.06 246.98 113.6 246.01 113.48 246.02C110.58 246.25 107.72 245.62 104.76 246.52C100.94 247.68 97.6105 249.59 94.5805 251.98C93.3405 252.95 92.2405 252.9 90.9605 252.95L92.9605 249.95H93.9605C95.4605 249.86 94.8105 248.71 94.9605 247.95C95.9405 247.57 97.4905 248.88 97.9605 246.95C98.6505 246.98 98.9905 246.64 98.9605 245.95C99.7805 245.95 100.97 246.3 101.35 245.89C102.66 244.49 104.53 244.72 106.06 244.09C107.6 243.46 109.62 243.85 111.41 243.97C114.09 244.16 115.67 243.24 117.11 240.73C118.39 238.48 119.74 236.24 120.96 233.94C123.19 232.99 123.78 230.66 124.8 228.85C125.16 228.22 123.41 226.59 123.01 225.29C122.01 222.13 120.36 219.18 118.24 216.89C111.71 209.85 104.97 202.96 95.9705 198.94L96.0005 199ZM111.01 257.99C111.07 257.05 110.41 257.08 109.73 256.98C105.93 256.42 103.31 259.17 100.18 260.42C98.5105 261.08 98.7905 262.09 100.61 263.12C103.04 264.49 105.45 265.89 107.82 267.36C108.41 267.73 108.61 268.26 109.04 267.17C110.2 264.21 109.39 260.85 111.01 258V257.99Z" fill="#96A29B"/>
<path d="M39 153C44.26 152.3 49.39 153.75 54.56 154.17C59.46 154.57 64.22 156.51 69.09 157.55C74.9 158.78 79.5 161.93 83.56 166.06C83.79 166.3 83.99 166.64 84.28 166.74C84.7 166.88 85.19 166.94 85.62 166.85C85.8 166.82 86 166.33 86 166.05C85.91 162.83 86.43 159.59 85.07 156.45C84.52 155.16 84.16 153.77 83.21 152.73C78.89 148.01 75.13 142.71 70.11 138.71C66.06 135.48 61.65 132.63 56.01 132.98C53.69 133.12 51.35 133 49.02 133C49.17 132.29 48.54 131.1 49.81 131.03C55.29 130.73 60.78 130.74 65.91 133.04C67.6 133.8 69.13 134.98 70.61 136.13C72.56 137.65 74.36 139.32 75.88 141.31C77.34 143.22 79.23 144.7 80.54 146.85C81.94 149.14 84.48 150.63 85.74 153.19C86.93 155.59 87.75 158.25 87.84 160.73C87.97 163.98 88.91 167.08 88.96 170.28C88.98 171.46 89.54 172.11 90.27 172.74C92.72 174.87 94.58 177.58 95.74 180.45C96.51 182.35 97.48 181.8 98.63 182.02C99.79 182.25 100.23 181.16 101.2 180.92C106.84 179.55 112.58 179.76 118.24 180.11C121.57 180.32 124.78 181.92 127.54 184.03C128.54 184.8 129.19 185.95 130.65 186.2C131.39 186.33 130.88 187.37 131.01 187.98C129.92 187.83 128.66 188.44 127.81 187.27C126.92 186.04 125.44 185.73 124.24 185.02C121.61 183.46 118.78 182.59 115.6 182.92C114.24 183.06 112.67 183.52 111.44 182.06C111.18 181.75 109.83 181.59 109.18 182.33C108.69 182.89 108.15 183.08 107.45 182.99C102.67 182.37 98.63 185 94.22 185.98C92.45 186.37 91.81 188.11 90.45 188.95C90.13 189.15 89.42 189.17 89.15 188.6C89.02 188.33 88.9 187.83 89.03 187.68C90.35 186.31 91.28 184.48 93.36 183.96C94.14 183.76 94.1 183.04 93.9 182.38C93.29 180.38 91.85 178.69 90.61 177.31C85.02 171.08 79.01 165.25 71.22 161.64C68.36 160.32 65.3 159.78 62.32 159.07C58.34 158.11 54.44 156.42 50.19 156.99C43.43 154.81 36.48 156.55 29.64 155.99C22.02 158.03 14.11 159 6.88 162.52C5.11 163.38 3.17 164.35 1.01 163.99V161.99C4.42 160.66 7.77 159.08 11.27 158.07C13.63 157.39 15.59 155.29 18.35 155.96C18.49 155.99 18.92 155.5 18.88 155.42C18.73 155.14 18.48 154.89 18.21 154.71C15.57 152.88 12.49 152.32 9.42 152.04C6.63 151.79 3.81 151.99 1 151.99V149.99C4.53 150.18 8.02 149.89 11.61 150.83C14.81 151.67 18.15 151.94 20.67 154.25C21.89 155.37 23.14 154.94 24.38 154.92C24.87 154.92 25.66 154.17 25.76 153.65C25.97 152.63 24.84 153.26 24.49 152.94C19.52 148.39 13.27 147.62 6.98 147.02C5 146.83 2.99 146.99 1 146.99V144.99C2.82 144.99 4.64 144.96 6.46 144.99C8.36 145.02 10.17 145.01 12.06 145.85C13.52 146.49 15.37 146.29 17.08 146.9C22.1 148.68 23 149.07 27.11 153.63C27.53 154.1 28.17 154.16 28.43 153.95C31.1 151.85 34.16 153.5 36.98 152.98H38.98L39 153Z" fill="#96A29B"/>
<path d="M1 185C4.45 182.74 8.54 182.27 12.35 181.03C16.29 179.75 20.27 178.69 24.52 178.95C26.22 179.05 27.88 178.87 29.68 178.24C31.52 177.6 33.99 177.78 36.34 178.61C38.78 179.46 41.61 179.56 44.28 179.96C47.71 180.48 50.83 181.83 54.03 183.01C54.32 183.12 54.7 183.18 54.86 183.39C55.59 184.41 57.7 185.21 56.88 186.41C55.65 188.21 54.84 185.98 53.89 185.38C51.09 183.62 47.89 182.58 44.77 182.16C41.77 181.76 38.88 180.42 35.7 180.93C34.21 181.17 32.74 179.44 30.98 180.93C30.05 181.72 28.24 180.16 27.2 181.68C28.44 182.41 29.78 181.82 31.07 181.97C31.89 182.07 32.73 181.99 33.57 181.99C34.23 181.99 34.98 181.88 34.99 182.84C35 183.47 35.06 184.32 34.7 184.68C34.34 185.04 33.2 185.21 32.92 184.94C31.68 183.75 30.16 184.26 28.79 183.95C23.11 182.66 19.18 182.62 13.11 183.97C12.47 184.11 11.78 184.01 11.11 183.98C10.24 183.94 9.94 184.41 10.02 185.18C10.08 185.71 10.37 186.01 10.99 186C13.32 185.97 15.66 185.99 17.99 185.99C18.99 185.99 20 185.9 20.99 186.01C22.47 186.17 24.39 187.74 24 188.35C23.18 189.65 21.87 189.02 20.85 188.93C18.81 188.75 16.93 187.49 14.76 187.98C11.71 188.67 8.45 188.88 5.67 190.15C4.02 190.91 2.56 190.78 1.01 190.98V188.98C2.99 189.5 4.53 187.68 6.5 187.93C6.9 187.98 7.11 187.24 7 186.74C6.89 186.24 6.6 185.99 6 185.96C4.23 185.86 2.84 187.5 1.01 186.98V184.98L1 185Z" fill="#96A29B"/>
<path d="M309 114C309 113.19 308.96 112.48 309.67 111.78C313.34 108.16 317.38 105.02 321.39 101.8C324.01 99.7 326.89 97.99 329.61 96.18C332.71 94.11 336.61 93.14 340.27 92.05C345.69 90.44 351.14 88.95 356.9 88.93C359.07 88.93 361.43 87.05 363.35 88.15C365 89.1 366.45 88.77 367.99 89V92C364.23 90.56 360.11 90.32 356.47 91.24C353.57 91.97 350.59 91.84 347.68 92.79C344.92 93.68 342.05 94.56 339.23 95.37C329.14 98.25 328.84 100.27 319.59 105.85C317.32 107.22 315.44 108.96 313.7 110.86C312.36 112.32 310.77 113.27 308.99 114.01L309 114Z" fill="#96A29B"/>
<path d="M1.00023 256C1.83023 256.14 1.98023 255.13 2.58023 255.02C6.96023 254.24 24.6602 253.13 28.5302 254.13C32.4502 255.13 36.6102 254.93 40.3802 256.76C41.5502 257.33 43.5902 257.38 44.6102 256.71C46.9202 255.19 47.0102 256.27 47.0102 258.13C47.0102 259.09 47.8102 258.85 48.4002 259.03C52.8502 260.44 56.6302 262.95 59.7902 266.35C60.0202 266.59 59.9502 267.28 59.7902 267.66C59.5502 268.23 58.9202 268.04 58.4802 267.95C58.2102 267.89 58.0102 267.51 57.7702 267.28C54.4202 264.1 50.5602 261.78 46.0802 260.62C43.6702 260 41.3402 258.87 38.7802 259.02C36.3502 259.16 34.2202 257.27 31.7202 258.01C29.9302 256.27 27.6602 256.93 25.6602 257.09C22.2002 257.36 19.0802 255.56 15.6002 255.92C13.3702 256.15 11.4102 257.41 9.04023 257.08C6.85023 256.77 4.55023 256.77 2.47023 257.98C2.10023 258.2 1.49023 258.01 0.990234 258.01V256.01L1.00023 256Z" fill="#96A29B"/>
<path d="M47 133C46.65 134.52 45.26 134.32 45.1 133.45C43.88 126.91 38.09 124.21 34.06 120.07C33.74 119.74 32.91 119.53 32.57 119.04C31.18 117.02 29.2 116.74 27 117.01C25.73 117.5 25.06 116.15 24 116.01C24.24 114.5 23.5 113.35 22.18 113.06C17.3 111.98 12.47 110.35 7.35 111.2C7.19 111.23 7.12 111.73 7 112.01H1V111.01C1.55 110.76 8.2 109.01 8.66 109.01C9.82 109.01 11 109.11 12.15 108.99C19.82 108.19 25.99 112.36 32.59 115.1C36.17 118.77 41.1 121.08 43.51 125.96C43.93 126.81 45.06 127.29 45.55 128.12C46.42 129.6 47.37 131.13 47 133V133Z" fill="#96A29B"/>
<path d="M368 107C366.51 107 365.01 107.13 363.54 106.98C357.38 106.34 351.76 108.77 345.94 110.02C345.51 110.11 345.13 110.48 344.76 110.75C344.5 110.95 344.29 111.21 344.05 111.44C344.27 111.62 344.48 111.96 344.71 111.97C351.65 112.18 356.67 116.68 362.3 119.8C363.2 120.3 363 121.18 362.99 121.99C361.11 122.06 359.76 120.94 358.41 119.89C353.86 116.38 348.98 113.77 343 113.98C341.02 114.05 339.02 113.86 337.05 114.03C335.32 114.18 333.45 113.26 331.85 114.62C330.58 115.69 328.58 114.16 327.38 115.94C327.12 116.32 325.81 116 324.98 116H323.98C325.59 113.85 328.22 113.49 330.44 113.14C333.71 112.63 336.67 111.07 340.05 110.87C341.74 110.77 343.33 109.27 345 108.49C349.28 106.5 353.68 104.92 358.51 104.99C361.67 105.04 364.82 104.99 367.98 104.99V106.99L368 107Z" fill="#96A29B"/>
<path d="M368.001 99.9998C365.311 99.7498 362.571 100.52 359.901 99.1098C359.011 98.6398 357.221 98.3898 356.171 99.3998C355.281 100.26 354.321 100.05 353.421 99.9698C348.981 99.5298 345.111 101.32 341.251 103.04C338.721 104.17 335.851 104.35 333.501 105.95C333.191 106.16 332.491 106.22 332.181 105.67C331.821 105.04 331.871 104.36 332.541 104.02C335.821 102.34 339.031 100.49 342.451 99.1298C347.091 97.2898 358.331 96.0898 362.921 97.1298C364.621 97.5198 366.251 98.0198 368.001 97.9998V99.9998V99.9998Z" fill="#96A29B"/>
<path d="M1 112H7C8.18 112.95 9.57 113.21 11 112.98C15.76 112.22 19.84 114.24 24 116C25.06 116.14 25.73 117.49 27 117C26.78 118.26 27.69 119.97 26.62 120.73C25.1 121.82 24.68 119.48 23.58 119.13C20.24 118.04 17.44 115.21 13.51 115.99C12.05 116.28 11.15 114.51 9.46 114.93C8.07 115.28 6.48 115.19 5.04 114.95C3.46 114.7 2.54 116.47 1 116V112V112Z" fill="#96A29B"/>
<path d="M37 150C34.65 150.19 33.38 148.18 31.78 147.11C27.49 144.22 22.6 142.91 17.93 141C14.97 141.76 12.35 139.77 9.42 139.96C6.62 140.14 3.81 140 1 140V139C2.01 139.05 2.41 137.94 3.57 137.94C9.98 137.89 16.33 138.04 22.3 140.8C27.23 140.58 30.31 144.63 34.5 146.17C35.71 146.61 37.45 147.9 37 150V150Z" fill="#96A29B"/>
<path d="M1 118C3.87 116.21 7.21 116.59 10.04 117.21C12.58 117.76 15.26 117.98 17.8 118.88C19.28 119.41 18.99 120.16 18.99 121.04C18.99 122.4 17.71 122.22 17.2 121.94C12.04 119.16 6.46 120.15 1.01 119.99V117.99L1 118Z" fill="#96A29B"/>
<path d="M1 215C3.33 215.73 5.25 213.95 7.5 213.97C9.7 213.99 11.95 214.46 14.04 213.07C14.62 212.69 16.06 212.56 16.02 214.25C15.99 215.35 15.97 216.03 14.49 216.06C12.8 216.09 11.12 215.55 9.38 216.88C8.18 217.8 6 216.37 4.37 217.91C3.76 218.48 2.15 218 1 218V215V215Z" fill="#96A29B"/>
<path d="M1.00023 195C3.62023 193.93 6.20023 192.65 9.17023 193C11.4602 193.27 13.3902 191.5 15.7602 191.94C16.8902 192.15 17.0002 192.61 17.0202 193.54C17.0402 194.56 16.7702 195.09 15.6602 195.01C14.8302 194.95 13.9902 195.01 13.1602 195C9.79023 194.98 6.42023 194.75 3.45023 196.94C2.91023 197.34 1.83023 197 0.990234 197V195H1.00023Z" fill="#96A29B"/>
<path d="M363 122C364.77 122.17 366.16 120.49 368 121V123C363.22 124.45 359.27 127.51 354.87 129.7C354.19 130.04 353.61 129.87 353 130C353.15 129.29 352.7 128.57 353.76 127.94C356.91 126.08 360.08 124.23 363 122Z" fill="#96A29B"/>
<path d="M1 209C2.69 209.48 3.77 207.27 5.51 207.99C6.39 206.59 7.79 207.02 9.05 207.01C11.07 206.99 11.02 207.02 11.02 209.29C11.02 210.43 10.89 211.25 9.46 211.01C9.3 210.98 9.13 211.01 8.97 211.01C7.49 211.01 6 211.12 4.53 210.98C3.17 210.85 2.4 212.49 1 212.01V209.01V209Z" fill="#96A29B"/>
<path d="M352 81.0001H359.46C360.95 81.0001 362.47 81.1801 363.93 80.9501C365.52 80.7001 366.45 82.4701 368 82.0001V83.0001H352V81.0001Z" fill="#96A29B"/>
<path d="M1 123H9.86C10.68 123 11.58 122.79 12.3 123.06C12.93 123.3 13.45 124.02 13.84 124.64C14.03 124.95 11.79 126.3 11.54 125.96C10.41 124.48 8.86 125.2 7.48 124.98C5.19 124.61 3.14 125.53 1 126V123V123Z" fill="#96A29B"/>
<path d="M1 202C3.23 201.88 5.14 200.76 7.12 199.94C8.31 199.44 9.37 198.72 10.71 199.01C11.52 199.19 12.83 198.33 12.99 200C13.12 201.36 11.84 200.76 11.29 201.2C10.92 201.49 10.49 202 10.14 201.96C6.84 201.56 4.28 204.43 1 204V202V202Z" fill="#96A29B"/>
<path d="M360 133C361.85 130.02 364.4 128.17 368 128V130C365.54 129.98 363.82 131.68 361.84 132.73C361.18 133.08 360.61 132.88 360 133Z" fill="#96A29B"/>
<path d="M1 129C2.51 128.73 4.28 129.72 5.54 128.03C5.68 127.84 6.57 127.76 6.8 128.34C6.95 128.72 7.01 129.4 6.8 129.63C6.28 130.18 5.93 131.03 4.93 131.01C3.62 130.97 2.31 131.01 1 131.01V129.01V129Z" fill="#96A29B"/>
<path d="M1 172C2.73 171.5 4 169.83 6 170V171C4.27 171.5 3 173.17 1 173V172Z" fill="#96A29B"/>
<path d="M214.999 190C218.379 190.67 221.779 191.24 225.139 192.02C229.989 193.15 234.149 195.58 237.639 199.14C237.689 201.43 239.499 201.32 240.749 200.94C247.539 198.88 254.469 200.64 261.289 199.94C262.659 199.8 263.419 200.7 264.329 201.11C268.949 203.21 274.039 204.27 278.159 207.53C279.139 208.3 280.399 209.38 282.539 209.52C282.899 209.73 282.759 209.26 282.449 209.04C282.069 208.77 281.909 209 281.989 209.48C282.079 210.02 281.809 210.7 282.599 210.89C282.669 210.91 282.869 210.42 282.539 209.52C282.139 208.4 281.609 207.52 282.359 207.19C285.449 205.84 286.539 202.55 288.939 200.54C290.189 199.5 290.989 198.05 290.959 196.44C290.899 192.73 292.739 189.52 293.619 186.08C294.069 184.32 293.699 183.55 292.849 182.25C291.429 180.07 289.659 177.92 289.999 175.01H290.999C291.979 174.93 292.009 175.61 291.999 176.29C291.969 178.42 293.329 179.75 294.629 181.18C295.389 182.02 295.739 181.75 296.439 181.13C297.359 180.31 298.329 178.24 299.409 179.14C301.339 180.75 298.629 181.39 297.999 182.46C294.989 187.54 292.759 196.71 294.129 202.66C295.069 206.75 296.789 210.8 299.819 214.01C301.779 214.05 300.809 217.41 302.949 216.95C304.699 216.58 304.329 214.43 305.239 213.3C306.069 212.28 307.089 211.41 308.029 210.47C308.969 209.53 310.279 208.73 310.669 207.6C310.849 207.09 308.869 206.44 307.969 205.62C306.419 204.2 307.239 202.55 306.989 201.02C307.609 200.91 307.959 201.29 307.969 201.8C307.989 202.97 308.849 203.74 309.639 203.94C310.949 204.28 312.479 203.71 313.609 204.9C314.999 203.35 312.089 202.49 312.989 201.02C313.149 201.02 313.369 200.95 313.469 201.03C314.169 201.61 314.869 202.78 315.789 201.64C316.609 200.62 315.389 200 314.809 199.33C314.289 198.73 313.599 199.14 312.549 197.92C311.949 197.98 311.849 198.78 312.539 198.97C313.439 199.23 312.979 198.35 312.969 198.07C312.939 197.39 313.419 196.51 312.409 196.15C312.379 196.14 312.079 196.9 312.559 197.92C313.009 199.68 313.009 200.35 313.009 201.02C310.569 200.04 310.339 197.83 310.009 195.67C312.359 192.93 308.839 191.4 308.619 189.19C308.619 189.15 307.419 189.1 307.389 189.21C306.879 191.3 306.459 193.42 306.019 195.53C307.939 197.07 306.609 199.2 307.009 201.02C306.019 201.1 306.229 200.32 305.979 199.74C304.299 195.85 304.649 189.82 307.089 186.54C307.739 185.67 308.059 184.94 308.029 183.91C307.979 182.08 308.219 180.22 307.979 178.42C307.399 174.07 309.269 170.42 310.809 166.59C311.409 165.1 312.449 164.23 313.409 163.19C313.609 162.98 314.339 163.07 314.709 163.25C315.229 163.51 315.179 164.3 314.929 164.54C312.349 166.96 311.889 170.24 310.879 173.38C310.429 174.81 309.519 175.84 310.699 177.22C310.889 177.44 311.009 177.8 310.999 178.08C310.669 186.39 310.949 187.79 313.979 193.5C314.189 193.89 313.879 194.43 314.339 194.86C315.789 196.23 317.129 197.72 318.599 199.07C319.869 200.23 320.149 202.61 322.709 202.29C323.139 202.24 323.269 203.57 322.599 203.86C321.189 204.47 319.609 204.7 318.219 205.34C309.119 209.53 303.809 218.54 305.009 228.14C305.079 228.71 305.339 228.98 305.929 229.03C306.509 229.08 306.869 228.82 306.999 228.31C307.079 228 307.019 227.65 307.009 227.32C306.839 219.01 311.389 213.84 318.199 209.95C319.949 208.95 321.579 209.08 323.319 209.06C323.809 209.06 324.069 209.55 324.019 210.13C323.959 210.71 323.699 211.04 323.119 211.02C317.639 210.81 311.669 217.79 310.039 221.88C309.759 222.58 309.799 223.36 309.489 224.15C308.139 227.64 308.479 228.14 312.209 227.98C314.999 227.86 317.619 228.47 320.279 229.04C320.799 229.15 321.049 229.51 321.009 230.1C320.969 230.69 320.699 231 320.129 231.02C319.469 231.05 318.799 231.01 318.129 231.02C313.829 231.14 309.369 230.27 305.479 233.02C299.699 232.8 295.239 236.41 290.199 238.33C289.779 238.49 289.619 239.18 288.989 239.02C283.859 241.81 280.309 246.39 276.189 250.34C275.129 251.36 270.909 257.79 271.079 258.65C271.289 259.67 269.349 260.32 270.559 260.91C271.389 261.31 272.819 261.43 273.839 260.64C274.229 260.34 274.709 260 274.879 259.58C275.429 258.14 275.599 256.49 276.389 255.22C277.329 253.72 278.999 252.67 279.909 251.16C280.779 249.73 281.969 248.94 283.169 247.91C285.439 245.96 288.179 244.51 289.979 242.02C291.689 242.13 292.849 240.93 294.249 240.28C300.959 237.14 307.929 235.24 315.459 235.98C316.409 236.07 316.929 236.5 317.529 237.05C317.949 237.43 318.079 237.89 317.959 238.36C317.829 238.87 317.399 239.04 316.849 239.03C314.349 239 311.849 239.17 309.369 238.97C307.209 238.8 305.229 239.3 303.299 240.03C295.009 243.15 287.079 246.89 280.959 253.58C279.559 255.11 278.319 256.8 277.099 258.47C276.909 258.73 277.039 259.53 277.299 259.77C279.299 261.59 282.049 261.4 284.099 259.42C285.149 258.41 285.789 257.13 286.619 255.99C289.309 252.32 296.989 248.46 301.789 246.89C306.039 245.5 310.209 246.16 314.399 246.13C316.439 246.12 318.499 247.35 320.529 248.08C321.069 248.27 321.079 248.91 320.959 249.37C320.829 249.88 320.349 249.94 319.829 250.04C318.279 250.33 317.099 249.24 315.739 249.05C304.899 247.51 294.989 251.07 287.439 259.03C286.089 260.45 285.069 261.99 284.979 264.01C282.279 263.75 279.489 264.61 276.859 263.06C275.469 262.24 274.449 264.45 272.789 264.07C271.529 263.77 269.869 263.53 268.849 264.1C265.899 265.74 262.559 265.72 259.479 266.84C248.779 270.75 244.669 273.04 236.759 278.47C233.659 280.59 232.219 283.61 229.969 286.18C229.329 286.91 228.709 287.66 228.079 288.39C227.449 289.12 226.889 288.88 225.999 288.64C223.589 287.99 221.259 287.02 218.669 286.97C212.839 286.87 207.589 288.87 202.289 290.91C201.319 291.29 200.589 292.54 199.229 292.04C198.799 291.88 198.229 291.98 198.039 291.47C197.989 291.34 198.469 291.01 198.709 290.78C199.739 289.78 201.179 288.76 202.229 288.49C204.529 287.9 206.459 286.58 208.709 285.94C212.719 284.8 216.769 284.93 220.809 285.08C221.929 285.12 223.039 286.08 224.129 286.66C225.489 287.39 226.589 287.14 227.549 285.95C228.169 285.18 228.319 284.4 227.299 284.03C224.809 283.14 222.449 281.86 219.639 281.94C217.939 281.99 216.119 282.61 214.489 281.1C213.399 280.1 212.849 282.27 211.459 282.07C206.889 281.4 202.869 283.68 198.639 284.83C198.179 284.95 197.689 284.95 197.209 285C196.689 285.06 196.159 284.93 196.009 284.43C195.879 284 195.809 283.28 196.379 283.13C197.929 282.74 199.209 281.37 200.529 281.13C206.679 280 212.819 278.2 219.169 279.05C221.609 279.38 224.019 280.15 226.329 281.04C229.169 282.13 229.239 282.38 230.829 280.59C232.879 278.28 235.449 276.51 237.119 273.73C237.939 272.37 240.189 271.88 241.789 270.99C243.139 270.25 243.509 269.13 242.529 268.08C241.109 266.55 239.559 265.21 237.699 264.11C234.069 261.97 230.889 259.03 226.929 257.5C221.159 255.27 215.389 253.08 209.239 251.87C204.729 250.98 200.459 250.31 196.029 251.94C195.149 252.26 194.039 252.08 193.049 251.96C192.399 251.88 191.279 252.59 191.219 251.33C191.199 250.91 192.029 250.25 192.599 250.03C195.389 248.96 198.519 249.33 201.259 248C204.169 249.38 207.479 248.31 210.289 249.18C213.129 250.05 216.099 250.16 218.889 251.32C223.159 253.1 227.569 254.48 231.559 256.95C234.789 258.95 238.359 260.5 240.809 263.45C242.109 265.01 245.039 264.76 245.099 267.57C245.109 268.09 245.939 267.86 246.369 268.02C247.999 268.64 249.019 267.09 250.449 266.91C251.019 266.84 251.729 265.83 251.919 265.12C252.249 263.9 251.069 264.12 250.379 263.87C250.099 263.77 249.889 263.43 249.669 263.18C244.129 257.06 236.889 253.59 229.699 249.86C225.119 247.49 220.109 246.42 215.579 244.09C212.469 244.53 209.609 242.94 206.529 242.98C203.199 243.03 199.859 242.9 196.529 243.03C194.819 243.1 193.129 242.58 191.349 243.86C190.119 244.75 187.829 243.38 186.319 244.96C186.089 245.2 185.269 245.09 185.059 244.55C184.829 243.93 185.099 243.51 185.629 242.95C187.259 241.25 189.529 242.24 191.469 241.25C194.219 239.83 206.279 239.12 208.889 240.12C212.429 241.47 216.269 240.89 219.779 242.85C222.799 244.53 226.349 245.38 229.579 246.91C232.939 248.5 236.549 249.35 239.579 251.86C240.909 252.96 242.829 253.57 244.339 254.77C245.689 255.85 246.879 257.1 248.349 258.07C249.979 259.16 251.249 260.78 252.659 262.18C255.169 264.67 255.109 264.51 259.279 263.29C261.519 262.63 263.729 261.51 266.259 261.97C267.769 262.24 268.689 261.42 268.999 259.86C269.999 254.69 272.749 250.56 276.499 246.96C278.359 245.17 279.279 242.57 281.459 241.02C282.069 240.59 282.089 240.01 281.819 239.32C280.139 235.09 278.909 230.58 275.079 227.62C270.989 224.47 267.329 220.56 261.959 219.49C259.339 218.96 256.849 217.85 254.069 217.97C250.739 218.12 247.409 218.02 244.069 217.99C243.449 217.99 242.429 218.36 242.259 217.69C241.929 216.37 243.529 217.48 243.869 216.66C244.159 215.97 244.889 215.99 245.579 215.99C247.819 215.98 250.019 216.17 252.219 215.12C253.159 214.67 254.849 214.49 255.949 215.51C256.519 216.04 257.109 215.99 257.749 216.01C264.279 216.22 269.609 219 274.099 223.61C275.259 224.8 276.439 225.98 277.639 227.14C277.929 227.42 278.179 228.11 278.659 227.76C278.939 227.55 278.949 226.89 278.979 226.43C279.039 225.44 278.869 224.41 279.079 223.46C279.669 220.72 279.439 220.83 277.519 218.92C275.099 216.51 272.419 214.32 269.389 213.13C263.869 210.97 258.289 208.57 252.099 209.01C251.929 209.02 251.769 209.03 251.599 209.01C243.199 208.09 235.989 210.88 229.479 215.98C229.169 216.22 228.499 216.01 227.999 216.01C227.989 215.2 227.829 214.36 228.699 213.8C235.199 209.61 241.709 205.8 249.959 205.89C255.169 205.95 260.129 207.11 265.089 208.16C268.159 208.81 271.239 210.49 273.719 212.46C275.739 214.06 278.509 214.37 280.059 216.57C280.519 217.23 280.919 216.78 280.969 216.35C281.189 214.67 281.129 213.03 279.469 211.99C276.829 210.33 274.349 207.94 271.469 207.27C268.989 206.69 266.929 205.29 264.459 204.7C261.899 204.1 259.349 203.42 256.739 202.85C254.009 202.26 251.359 202.02 248.629 202.02C244.189 202.02 230.109 206.33 226.599 209.08C225.029 210.31 224.029 212.24 222.689 213.78C222.329 214.2 221.929 215.14 221.339 214.76C220.579 214.27 221.079 213.25 221.069 212.47C221.069 212.35 221.309 212.25 221.399 212.11C221.969 211.24 223.619 210.83 222.799 209.36C222.059 208.04 220.429 207.33 219.269 207.14C214.309 206.31 209.299 205.64 204.209 205.97C203.249 206.03 202.969 206.96 202.129 207.03C201.569 207.07 201.139 206.87 201.009 206.36C200.889 205.89 200.929 205.18 201.449 205.1C202.559 204.93 203.779 205.22 204.509 204.02C210.929 204.27 217.519 202.96 223.609 206.16C224.029 206.38 224.439 207.04 224.739 206.97C226.089 206.68 227.839 206.56 228.599 205.66C229.209 204.94 227.539 203.74 226.739 203.38C222.349 201.43 218.019 199.57 213.079 198.86C206.359 197.9 199.689 198.19 192.989 198.02V197.02C195.739 197.14 198.199 195.56 201.069 195.94C203.849 196.31 206.719 196.13 209.549 196C216.249 195.68 222.169 197.99 227.979 200.96C229.239 201.6 229.879 202.71 230.929 203.47C232.129 204.34 233.389 204.28 234.329 203.16C235.269 202.04 235.339 200.91 234.229 199.75C231.859 197.29 229.019 195.95 225.729 194.9C221.199 193.44 216.499 193.2 211.919 192.18C208.429 191.41 204.629 192.03 200.969 192.03C198.469 192.03 195.979 192.07 193.479 192.01C192.699 191.99 191.219 192.38 191.259 191.69C191.339 190.33 192.799 191.03 193.559 191.1C195.559 191.27 197.089 189.67 199.149 189.98C201.099 190.27 203.139 190.06 205.129 190.02C205.399 190.02 205.839 189.79 205.899 189.57C206.029 189.14 206.059 188.68 205.679 188.22C201.829 183.55 196.619 180.79 191.379 178.09C190.329 177.55 188.739 178.59 187.719 177.29C183.199 177.69 178.919 174.61 174.089 176.87C171.829 177.93 168.679 176.75 166.089 178.02C165.599 178.26 165.119 177.88 164.989 177.38C164.869 176.91 165.019 176.46 165.419 176.07C166.859 174.65 168.549 174.12 170.579 173.99C172.949 173.84 175.489 174.92 177.699 173.1C178.059 172.8 179.239 172.89 179.549 173.23C180.339 174.14 181.289 174.19 182.239 174.02C185.219 173.49 187.919 174.92 190.799 175.19C193.529 175.45 195.819 177.52 198.119 179.08C201.139 181.11 204.029 183.34 206.929 185.54C207.699 186.13 208.729 186.87 208.889 187.69C209.379 190.23 211.159 190.07 212.969 190.04C213.639 190.04 214.299 190.04 214.969 190.04L214.999 190ZM303.019 223.03C302.939 221.57 303.129 220.54 302.119 219.54C299.229 216.69 296.029 214.1 293.939 210.5C293.459 209.68 292.599 209.73 291.999 210.62C288.349 216.02 286.029 221.86 287.079 228.47C287.429 230.7 287.919 233.17 290.119 234.69C290.609 235.03 291.199 235.18 291.469 234.97C294.729 232.47 298.819 231.82 302.379 230C302.859 229.76 303.259 229.23 302.969 228.85C301.349 226.75 301.839 224.73 303.019 223.03V223.03ZM280.619 226.88C282.329 228.77 281.399 231.58 282.489 233.79C283.009 234.86 282.569 235.98 283.369 236.93C284.249 237.97 285.349 238.36 286.399 237.93C287.479 237.49 287.259 236.11 286.809 235.38C284.549 231.71 284.929 227.67 285.049 223.7C285.099 222 284.189 220.05 285.899 218.6C286.159 214.62 288.999 211.92 290.819 208.71C291.199 208.04 292.139 207.73 292.019 206.71C291.939 206.09 292.189 205.31 291.429 205.03C291.029 204.88 290.519 204.94 290.099 205.38C288.339 207.22 286.309 208.86 285.909 211.6C281.449 215.62 282.909 221.6 280.629 226.88H280.619Z" fill="#96A29B"/>
<path d="M80 287C86.17 284.16 92.44 281.69 99.42 281.99C100.58 282.04 101.75 281.99 102.92 281.99H109.42C110.86 284.22 113.4 282.19 115.29 283.59C116.81 284.72 119.05 284.88 120.98 285.47C123.05 286.1 125.03 286.95 126.97 287.93C127.61 288.25 128.82 288.45 129.06 286.79C129.92 280.71 131.66 274.93 135.52 269.99C135.71 269.75 135.95 269.48 135.99 269.19C136.14 268.18 135.65 266.28 137.54 267.18C139.34 268.04 137.3 269.15 136.93 269.95C135.78 272.49 135.09 275.22 133.91 277.69C132.7 280.23 132.17 282.96 131.11 285.53C130.05 288.09 131.05 290.16 133.8 291.16C136.18 292.03 137.15 294.56 139.62 295.24C140.55 295.5 139.81 297.05 140 297.99C138.36 297.69 137.7 298.35 138 299.99C135.38 299.57 132.84 298.48 130.81 297.08C127.62 294.87 124.08 294.06 120.56 293.01C114.68 291.25 108.62 292.27 102.64 291.95C101.48 291.89 101 292.82 100.08 293.01C97.04 293.65 94.02 294.33 90.99 295H89.99C92.32 292.61 95.57 292.18 98.46 290.96C100.45 290.12 102.43 289.96 104.52 289.98C105.92 289.99 107.49 290.5 108.61 289.03C108.73 288.87 109.3 288.89 109.57 289.03C112.3 290.43 115.54 289.18 118.03 290.2C121.45 291.59 125.25 291.67 128.49 293.8C130.29 294.98 132.61 295.92 135.96 296.37C136.76 296.1 136.4 295.97 135.92 296.01C135.61 296.03 135.06 295.93 135.03 296.03C134.84 296.57 135.23 296.93 135.68 296.99C136.08 297.04 136.51 296.83 135.95 296.38C134.85 295.41 135.37 294.55 134.63 294.2C132.45 293.18 130.19 292.31 128 291.3C127.49 291.06 122.75 288.22 121.88 288.03C117.32 287.07 113.16 284.25 108.22 285.02C105.02 283.3 101.5 283.78 98.22 284.15C94.4 284.58 90.48 284.66 86.81 286.51C84.85 287.5 82.42 288.21 80 288.02V287.02V287Z" fill="#96A29B"/>
<path d="M130 313C131.64 313.16 131.21 314.77 130.91 315.16C130.21 316.07 130.5 318.01 128.99 317.92C127.44 317.83 126.53 319.48 125 319C124.31 318.97 123.97 319.31 124 320C123.24 320.15 122.09 319.5 122 321.22C122.15 321 122 320.87 121.53 320.99C121.11 321.1 120.65 321.11 120.25 321.27C119.94 321.39 120.01 321.75 120.42 321.9C121.02 322.12 121.6 322.08 122 321.22C122.75 320.85 123.91 321.5 124 320H125C128.2 320.85 128.29 320.95 127.05 323.45C124.43 328.71 123.6 334.29 124 340.1C124.13 341.99 125.37 343.61 125.07 345.67C124.8 347.53 125.09 349.37 125.9 351.26C126.88 353.55 127.6 355.91 129.29 357.82C129.51 358.06 130.42 358.26 129.62 358.84C129.39 359 129.01 358.97 128.69 358.99C127.14 359.09 126.26 358.37 125.99 356.83C125.22 352.55 122.4 348.75 123 344.14C121.37 341.62 122.13 338.8 122.01 336.1C121.93 334.28 121.35 332.05 122.17 330.74C123.04 329.35 122.42 327.51 123.93 326.4C124.33 326.11 123.99 324.82 124.28 323.53C124.38 323.23 124.1 323.35 124.01 323.55C123.81 323.97 124.01 324.18 124.43 323.97C124.63 323.87 124.76 323.6 124.88 323.39C124.9 323.35 124.69 323.19 124.28 323.53C121.39 324.97 119.92 327.06 118.13 329.09C115.01 332.63 112.89 336.5 111.62 340.9C110.93 343.29 109.93 345.63 109.97 348.2C109.97 348.71 109.61 349.01 108.98 349.01C108.35 349.01 107.99 348.7 108.01 348.19C108.09 346.13 107.69 344.09 108.91 342.08C109.76 340.68 109.65 338.74 110.34 337.21C111.17 335.39 111.01 333.06 112.77 331.76C114.41 330.55 114.86 328.55 116.24 327.18C116.9 326.52 117.97 326.09 117.97 324.92C117.97 323.96 119.71 323.42 118.83 322.43C118.08 321.59 117.51 323.54 116.46 323.01C116.06 322.81 115.48 322.98 114.98 322.98C116.48 319.86 119.57 318.98 122.45 318.07C123.87 317.62 125.18 316.65 126.92 316.9C128.08 317.07 128.93 316.03 128.96 314.74C128.97 314.25 128.6 313.86 127.99 313.98C128.08 312.48 129.23 313.13 129.99 312.98L130 313Z" fill="#96A29B"/>
<path d="M279.29 269C284.83 269.79 290.45 270.41 295.21 273.94C295.87 274.43 296.17 274.86 295.96 275.44C295.69 276.19 294.86 275.89 294.25 276.01C293.25 276.21 292.92 275.24 292.17 274.96C289.2 273.83 286.3 272.7 282.99 272.95C280.01 273.17 276.99 272.85 274 273.02C262.02 273.69 250.92 277 241.21 284.29C240.95 284.49 240.76 284.91 240.49 284.96C240.04 285.03 239.45 285.22 239.16 284.64C239.03 284.37 238.9 283.93 239.03 283.73C239.37 283.19 239.8 282.68 240.27 282.25C244.95 277.94 250.31 274.9 256.4 272.92C259.11 272.03 261.93 272.08 264.63 271.11C267.14 270.2 269.88 269.71 272.68 269.97C274.91 270.18 276.89 268.19 279.3 269.01L279.29 269Z" fill="#96A29B"/>
<path d="M132.001 188C136.161 183.35 140.121 178.47 145.461 175.06C147.941 173.48 150.411 171.82 153.041 170.53C156.071 169.05 159.551 168.71 162.521 167C166.761 167.45 170.811 166.01 175.041 165.85C184.871 165.48 193.571 168.52 202.001 173C202.031 173.69 201.691 174.03 201.001 174C200.391 173.87 199.801 174.07 199.131 173.69C194.321 170.98 189.221 169.29 183.631 168.89C181.641 168.75 179.631 168.13 177.561 167.9C175.321 167.65 173.611 169.06 171.481 169.08C169.261 169.1 166.981 168.39 164.761 169.66C163.001 170.67 160.841 170.01 158.781 170.85C154.601 172.56 150.721 174.74 146.861 177C142.431 179.59 139.121 183.45 135.531 186.98C134.801 187.7 134.811 188.36 135.551 189.04C136.111 189.55 136.311 190.27 135.731 190.7C135.291 191.03 134.441 191.14 133.891 190.96C132.531 190.52 131.771 189.54 132.011 188H132.001Z" fill="#96A29B"/>
<path d="M121 234C119.21 233.73 118.87 232.08 118.45 230.87C117 226.69 114.37 223.21 111.99 219.6C111.46 218.8 111.32 217.49 110.62 217.22C107.5 216.05 106.26 212.74 103.62 211.23C100.61 209.51 98.0798 207.17 95.1098 205.39C93.1598 204.22 91.1498 203.69 89.1098 202.97C81.2398 200.2 73.0798 201.13 65.0098 200.99H64.0098C64.3598 199.82 65.0098 199.02 66.3598 198.98C68.7398 198.93 71.0398 198.86 73.4298 198.16C75.1798 197.65 77.6498 197.05 79.4498 198.9C79.5398 198.99 79.7598 199 79.8998 198.98C85.3098 198.11 90.0098 200.81 95.0098 201.99C96.7198 203.74 99.0298 204.6 101.02 205.95C108.12 210.77 114.41 216.38 117.78 224.42C119.06 227.48 121.13 230.41 121.01 233.99L121 234Z" fill="#96A29B"/>
<path d="M102 298C102.49 297.77 109.18 296 109.59 296C111.57 296 113.59 296.24 115.53 295.95C121.12 295.12 125.96 297.83 131.13 298.98C131.68 299.1 131.75 299.54 132.04 299.86C134.38 302.42 135.34 302.56 138 300.99C139.09 300.75 139.76 300.08 140 298.99C140.5 298.99 141.22 299.21 141.46 298.96C145.74 294.51 151.27 292.52 156.9 290.43C161.68 288.65 166.45 289.18 171.26 289.02C171.49 289.02 171.73 289.35 171.96 289.53C171.69 289.68 171.42 289.98 171.15 289.97C168.24 289.9 165.58 291.28 162.58 291.13C160.73 291.04 158.84 292.38 156.93 292.98C151.66 294.63 146.91 296.99 142.6 300.65C139.51 303.27 136.66 305.92 134.3 309.17C133.81 309.85 133 310.52 132.31 309.7C131.7 308.97 131.69 307.87 132.47 307.06C132.64 306.89 133.24 307.13 133.4 306.96C135.56 304.71 135.25 302.67 132.33 302.06C128.51 301.27 125.22 299.07 121.25 298.59C117.95 298.19 112 297.69 108.85 298.64C106.59 299.32 104.29 298.81 102.01 298.98V297.98L102 298Z" fill="#96A29B"/>
<path d="M276.71 277.99C281.75 277.61 286.64 278.39 291.36 280.03C294.84 281.24 298.31 282.58 301.59 284.24C302.61 284.76 304.82 285.96 303.76 287.51C302.77 288.96 301.38 287.41 300.09 286.69C296.17 284.52 292.19 282.73 287.61 281.79C281.02 280.44 274.52 281.45 268.01 281.01C266.43 280.9 257.58 284.31 255.94 285.58C252.66 288.13 248.78 289.94 246.14 293.32C245.93 293.59 245.61 294.33 245.12 293.57C244.96 293.33 245.06 292.94 245 292.62C244.81 291.68 245.39 291.14 245.95 290.51C249.62 286.4 253.91 283.14 259 281C261.45 279.97 264.09 279.52 266.6 278.79C270.04 277.79 273.37 278.33 276.72 277.98L276.71 277.99Z" fill="#96A29B"/>
<path d="M130.999 336.44C130.999 333.65 130.229 331.1 131.189 329.8C132.469 328.06 130.969 325.7 132.989 324.5C132.769 320.73 134.119 317.49 135.939 314.24C138.949 308.88 143.339 304.87 147.929 301.02C150.309 299.02 152.779 297 156.009 296.49C158.489 296.1 160.779 294.88 163.369 294.96C164.309 294.99 164.879 295.35 165.469 295.96C165.869 296.37 165.839 297.06 165.469 296.93C163.789 296.34 162.869 298.03 161.369 298.03C155.889 298.05 151.539 300.95 147.459 304.11C143.349 307.3 140.349 311.63 137.649 315.99C135.719 319.09 134.509 322.8 134.149 326.44C133.939 328.54 132.769 330.35 132.949 332.5C133.119 334.48 133.079 336.49 132.959 338.48C132.779 341.57 133.759 344.39 134.709 347.24C134.909 347.83 134.949 348.49 134.969 349.12C134.989 349.68 134.649 349.96 134.059 350C133.469 350.04 133.089 349.79 132.989 349.27C132.149 344.75 130.139 340.4 130.979 336.43L130.999 336.44Z" fill="#96A29B"/>
<path d="M286 160C285.02 160.08 285 159.39 285 158.72C285 155.57 284.53 152.33 285.1 149.28C286.2 143.37 287.45 137.4 291.15 132.4C292.33 130.81 292.91 129.21 293.06 127.19C293.7 118.66 296.01 110.77 302.69 104.82C303.77 103.86 304.48 102.44 306 102C306.69 101.97 307.03 102.31 307 103C305.44 105.84 303.32 108.21 301.05 110.51C297.85 113.75 297 118.16 296.11 122.36C295.62 124.65 294.41 126.87 294.96 129.4C295.29 130.92 293.92 131.94 293.3 133.17C291.13 137.42 289.29 141.76 287.78 146.33C286.85 149.17 287.5 151.79 286.99 154.45C288.88 156.02 287.64 158.16 287.99 160.01H285.99L286 160Z" fill="#96A29B"/>
<path d="M258.961 236.93C258.731 238.32 259.611 239.91 258.351 241.14C256.581 242.86 255.971 245.51 253.161 246.49C250.671 247.35 248.301 246.77 245.891 246.96C244.941 247.04 243.571 245.09 244.021 244.54C244.751 243.65 246.021 243.66 246.641 244.25C248.921 246.41 250.891 244.19 252.921 243.91C254.711 243.66 255.521 241.92 256.391 240.29C257.001 239.14 257.111 238.09 256.961 237.04C256.471 233.69 251.641 228.8 248.251 228C247.161 227.74 243.771 229.2 243.241 230.31C242.821 231.18 242.721 232.19 243.521 233C244.201 233.68 244.871 234.66 245.911 233.57C246.441 233.01 247.021 233.01 247.681 232.99C248.721 232.96 249.331 233.6 249.011 234.46C247.561 238.34 245.481 238.91 242.481 235.91C237.641 231.07 237.841 232.86 242.311 228.26C243.171 227.37 243.921 226.39 245.311 225.88C246.701 225.37 247.781 224.34 249.161 225.66C249.891 226.36 250.741 225.87 251.521 225.99C252.011 226.07 252.921 225.89 252.961 226.02C253.561 228.18 256.021 228.47 257.061 230.23C258.301 232.33 259.491 234.35 258.981 236.93H258.961Z" fill="#96A29B"/>
<path d="M197.841 231C195.511 231 192.891 230.33 190.931 231.18C188.671 232.16 186.151 231.1 184.431 232.28C182.381 233.68 179.851 232.03 178.061 233.95C177.671 234.36 176.461 234.05 175.631 233.98C175.431 233.96 175.251 233.62 175.101 233.39C175.081 233.36 175.351 233.05 175.431 233.07C176.571 233.39 177.051 232.21 177.981 231.97C183.481 230.52 188.871 228.59 194.701 228.99C195.471 229.04 196.331 229.29 196.991 228.51C197.761 227.59 198.931 227.84 199.761 228.07C204.601 229.44 209.641 229.77 214.491 231.02C220.651 232.61 226.261 235.55 231.831 238.49C232.791 239 234.671 240.2 233.831 241.45C232.751 243.06 231.451 241.57 230.151 240.81C227.101 239.02 223.851 237.59 220.681 236.02C215.931 233.67 210.601 233.16 205.651 231.39C203.321 230.56 200.441 231.25 197.821 231.25V231.02L197.841 231Z" fill="#96A29B"/>
<path d="M35.1406 272C45.1006 272.04 53.9906 275.72 62.6506 280.15C64.9306 283.7 69.6506 284.75 71.4706 288.86C71.8606 289.75 72.7606 290.74 74.0006 291.02C74.3406 291.1 75.1906 290.52 74.9806 291.49C74.6006 293.25 75.7506 294.17 76.7106 295.29C77.0606 295.69 76.9706 296.51 76.9806 297.14C76.9906 297.69 76.6606 298.05 76.0706 297.98C75.7706 297.95 75.2506 297.82 75.2306 297.68C74.7106 293.9 70.7306 292.4 69.5706 289.06C65.6606 287.51 63.8106 283.32 59.6106 281.83C55.7606 280.46 52.5806 277.34 48.2706 276.74C47.8506 276.68 47.4006 275.96 47.1006 276.04C44.8806 276.66 43.0906 275.01 41.0306 275C36.9906 274.98 33.0906 273.3 28.9906 273.97C28.7306 274.01 28.4306 273.75 28.1406 273.64C28.4006 273.29 28.6606 272.94 28.9106 272.58C29.3506 271.94 29.9906 271.98 30.6606 271.99C32.1506 272.01 33.6506 271.99 35.1406 271.99V272Z" fill="#96A29B"/>
<path d="M130 313C129.24 313.15 128.09 312.5 128 314C127.02 314 125.99 313.81 125.06 314.04C122.85 314.59 120.93 316.1 118.51 316C116.41 318.72 112.71 318.89 110.35 321.17C110.15 321.36 110.11 321.72 110 322C103.98 325.22 99.6898 330.28 96.0598 335.83C92.7598 340.88 90.6898 346.48 90.9898 352.69C91.0198 353.35 90.9898 354.02 90.9898 354.69C90.9898 355.37 90.9898 356 90.0098 356.01C89.0398 356.01 89.0398 355.41 88.9898 354.72C88.5198 348.04 90.3298 341.9 93.4298 336.09C94.8498 333.43 96.4198 330.85 98.6998 328.78C101.96 325.82 104.57 322.13 108.54 319.98C111.53 318.36 114.21 316.21 117.45 314.96C120.62 313.73 126.72 311.93 128.71 312C129.39 312.03 130.08 312.01 130 313Z" fill="#96A29B"/>
<path d="M66 278C65.39 277.87 64.72 278.27 64.15 277.66C61.62 275 58.24 273.59 55.27 271.59C49.7 267.83 43.24 266.85 37.07 265.15C33.12 264.06 28.79 263.2 24.62 264.08C21.09 264.83 17.43 264.75 14 266C15.77 262.83 19.15 262.52 22.06 262.13C25.99 261.61 30.04 262.13 34.03 261.94C35.61 261.86 36.65 262.88 38.1 263.11C44.39 264.12 50.5 265.84 56.12 269C59.61 270.97 62.83 273.28 65.66 276.14C66.25 276.74 65.86 277.39 66 278.01V278Z" fill="#96A29B"/>
<path d="M292.001 156.08C292.001 153.92 291.971 151.76 292.001 149.6C292.071 145.85 293.231 142.6 295.701 139.65C297.151 137.92 298.891 136.25 299.161 133.59C299.241 132.76 299.811 131.12 301.041 130.43C301.181 130.35 301.361 130.09 301.381 130.1C301.601 130.26 301.971 130.48 301.951 130.65C301.821 131.89 301.781 133.07 301.341 134.36C300.501 136.83 298.891 138.77 297.531 140.73C295.161 144.15 293.861 147.64 293.971 151.75C294.031 153.91 293.861 156.08 294.011 158.22C294.191 160.81 293.391 163.44 294.461 165.99C295.341 168.11 297.161 169.88 296.981 172.42C298.861 172.93 299.331 174.21 298.991 175.99C298.821 176.9 297.911 177.4 297.301 176.77C296.201 175.64 294.541 174.8 294.971 172.76C295.151 171.89 294.681 171.29 294.151 170.6C292.701 168.69 291.971 166.47 291.971 164.04C291.971 161.38 291.971 158.73 291.971 156.07L292.001 156.08Z" fill="#96A29B"/>
<path d="M246.319 220C250.949 219.24 254.989 221.33 258.599 224.98C260.209 226.61 262.529 227.4 263.509 229.86C263.889 230.81 263.519 231.98 264.139 232.55C265.609 233.91 265.069 235.12 263.749 235.59C262.779 235.94 261.859 234.86 261.999 233.56C262.149 232.17 260.809 231.39 260.639 230.14L256.559 227C255.919 226.12 255.049 225.88 253.989 225.96C253.699 225.98 253.009 226.49 252.979 225.5C252.889 222.93 250.969 222.63 249.169 223.08C247.569 223.48 246.939 221.94 245.589 221.94C244.099 221.94 243.209 223.47 241.509 223.08C240.209 222.78 238.559 222.47 237.429 223.96C237.279 224.16 236.369 224.2 236.169 223.61C236.029 223.22 236.019 222.57 236.259 222.3C237.439 220.96 238.849 219.98 240.749 219.99C242.409 219.99 244.059 219.99 246.329 219.99L246.319 220Z" fill="#96A29B"/>
<path d="M108.84 194C114.2 193.71 119.08 195.09 123.63 197.97C126.87 200.03 129.45 202.59 131.47 205.86C132.19 207.03 131.83 208.06 131.97 209.14C132 209.39 131.7 209.68 131.55 209.95C131.37 209.73 131.08 209.53 131.01 209.28C129.96 205.42 127 202.81 124.05 200.83C121.09 198.84 117.66 196.97 113.73 196.99C109.91 197.01 106.1 197.01 102.28 196.97C101.85 196.97 101.18 196.77 101.04 196.47C100.74 195.83 101.19 195.3 101.67 194.77C102.3 194.06 103 193.96 103.86 193.98C105.52 194.02 107.18 193.99 108.84 193.99V194Z" fill="#96A29B"/>
<path d="M356.001 123.3C355.811 123.8 355.491 124.03 354.911 124.02C354.071 124.02 353.451 123.69 352.701 123.3C348.311 121 343.661 119.98 338.611 119.9C332.601 119.8 326.991 121.1 321.371 122.92C320.121 123.33 319.581 124.24 318.661 124.82C318.051 125.2 317.351 125.13 317.041 124.43C316.871 124.05 316.841 123.41 317.391 123.11C320.231 121.57 329.051 117.32 333.241 117.89C336.831 118.38 340.541 117.96 344.201 118C348.601 118.05 352.011 120.81 355.851 122.38C356.001 122.44 355.961 122.97 356.001 123.29V123.3Z" fill="#96A29B"/>
<path d="M78.9103 212C82.3803 210.63 84.4903 214.41 87.6303 215.23C88.4803 215.45 87.9803 216.74 87.9503 217.51C87.9303 218.28 87.7703 218.28 87.1403 217.66C83.2603 213.85 79.1403 212.94 75.2003 215.01C72.2403 216.57 71.5903 217.76 71.9803 220.74C72.1503 222.05 72.8403 222.97 74.0903 222.96C76.0403 222.96 78.5803 223.83 79.0203 220.55C79.0403 220.4 79.4303 220.27 79.6703 220.2C79.7403 220.18 79.9803 220.42 79.9803 220.54C79.9803 222.15 80.1303 223.66 78.6203 225C77.1203 226.33 75.7003 226.23 74.1703 225.65C70.4503 224.26 69.2103 221.59 69.9903 217.02C70.4903 214.14 73.1303 212.09 76.4903 212C77.1503 211.98 77.8203 212 78.9003 212H78.9103Z" fill="#96A29B"/>
<path d="M42.6693 284C48.6393 284.06 53.8793 286.14 58.9093 289.29C62.6793 291.65 66.6393 293.66 69.5993 297.09C70.0293 297.59 70.6493 297.97 70.9593 298.53C71.1693 298.91 71.1893 299.7 70.9493 299.95C70.6993 300.2 69.9093 300.18 69.5293 299.96C68.9693 299.65 68.5593 299.07 68.0993 298.6C63.9593 294.38 59.0293 291.36 53.6593 289C50.2293 287.49 46.8293 285.74 42.9593 286.07C41.4993 286.19 40.7593 284.72 39.3793 284.99C38.9193 285.08 38.1993 285.1 38.1193 284.57C38.0593 284.1 38.6793 283.99 39.1793 284C40.3393 284.02 41.4993 284 42.6593 284H42.6693Z" fill="#96A29B"/>
<path d="M10.0002 167C13.6002 164.73 17.7802 164.12 21.7702 163.03C26.5302 161.73 31.3102 160.73 36.3502 160.85C38.4302 160.9 40.6302 159.8 42.8902 160.01C43.5202 160.07 44.1902 160.08 44.7502 160.31C45.1702 160.48 45.8002 161.05 45.7502 161.31C45.6402 161.83 45.1902 162.36 44.7402 162.7C44.4002 162.95 43.7602 162.78 43.4002 163.02C41.7502 164.12 40.7702 160.91 39.0002 162.44C37.6302 163.63 35.8502 162.99 34.2702 162.96C29.3002 162.87 24.6502 164.26 19.8902 165.45C16.5902 166.28 13.5302 168.12 9.99023 168V167H10.0002Z" fill="#96A29B"/>
<path d="M90.0002 220C90.4702 220 90.9502 219.94 91.4102 220.01C93.1902 220.3 93.0202 219.1 93.0002 218C93.1702 218 93.4702 217.98 93.4802 218C94.4702 223.76 94.9302 229.42 90.3802 234.11C90.0902 234.41 89.6102 234.86 89.3502 234.78C88.7702 234.6 89.0302 233.95 89.0102 233.49C88.9802 233 89.0102 232.5 89.2902 231.55C89.3902 231.25 89.1102 231.37 89.0202 231.57C88.8202 231.99 89.0202 232.2 89.4402 231.99C89.6402 231.89 89.7702 231.62 89.8902 231.4C89.9102 231.36 89.7002 231.2 89.2902 231.54C87.9802 231.87 87.0802 232.04 86.5002 233C85.9202 233.96 85.0202 234.13 84.0002 234C84.1202 233.4 83.6802 232.66 84.3202 232.19C88.4802 229.12 89.6702 224.92 89.0002 220H90.0002ZM91.0002 227C89.1702 227.28 90.0902 228.67 90.1102 229.54C90.1202 230.1 90.7502 229.83 91.0302 229.46C91.3802 228.99 92.1202 228.78 92.0002 228C92.1202 227.4 91.7502 226.74 92.3002 226.16C92.5102 225.93 93.4402 225.7 92.6302 225.18C92.3202 224.98 91.6702 225.01 91.3402 225.21C90.6602 225.62 91.1202 226.39 91.0002 227V227Z" fill="#96A29B"/>
<path d="M298.999 198C297.699 193.26 301.369 188.7 302.049 183.55C302.119 183.02 302.879 182.55 303.399 182.14C303.609 181.97 304.039 181.94 304.329 182.02C304.839 182.16 305.019 182.56 305.019 183.12C305.019 183.97 304.689 184.58 304.259 185.32C301.279 190.47 300.679 196.11 300.969 201.95C301.099 204.48 302.799 206.2 303.809 208.28C304.079 208.84 304.829 209.24 304.939 209.8C305.079 210.51 305.379 211.54 304.399 211.97C303.719 212.27 303.109 211.82 302.739 211.23C300.709 208.03 298.069 205.06 298.979 200.79C299.119 200.15 298.999 199.46 298.999 198V198Z" fill="#96A29B"/>
<path d="M115 323C115.44 325.11 113.71 326.26 112.48 326.86C108.59 328.75 106.96 332.41 104.86 335.69C102.04 340.07 99.96 344.77 99.99 350.15C99.99 350.71 99.66 350.98 99.06 351.02C98.46 351.06 98.05 350.79 98.02 350.28C97.94 349.12 97.7 347.85 98.05 346.81C99.38 342.88 100.53 338.81 102.49 335.19C104.58 331.3 107.08 327.49 111 325.02C111.98 325.06 112.34 324.19 112.82 323.64C113.47 322.9 114.22 323.03 115 323.02V323Z" fill="#96A29B"/>
<path d="M110.05 189C107.12 188.05 103.94 190.11 100.54 189.99C100.07 189.97 99.3098 190.22 99.2298 189.66C99.0798 188.62 100.1 189.21 100.53 188.95C102.75 187.63 105.22 187.26 107.71 187.02C109.19 186.87 110.73 187.17 112.19 186.96C116.33 186.37 119.98 188.15 123.72 189.3C126.42 190.13 128.1 192.55 129.97 194.57C130.19 194.81 130.18 195.59 129.61 195.86C129.34 195.99 128.93 196.08 128.68 195.97C127.07 195.25 126.58 192.95 124.45 192.93C121.16 189.65 117.06 188.79 112.61 188.98C111.95 189.01 111.28 188.98 110.06 188.98L110.05 189Z" fill="#96A29B"/>
<path d="M22 218V217C23.6 211.96 25.98 207.76 30.66 204.56C34.57 201.88 39.1 200.49 42.82 197.64C43.39 197.21 43.86 196.94 44.57 196.99C45.22 197.04 45.91 196.9 46.01 197.86C46.07 198.42 45.86 198.87 45.36 198.99C42.6 199.67 40.61 201.82 37.89 202.7C32.02 204.59 27.98 208.73 24.98 214.03C24.17 215.46 23.01 216.69 22.01 218.01L22 218Z" fill="#96A29B"/>
<path d="M116.001 272C117.521 270.17 113.791 268.8 115.681 266.67C116.881 265.31 115.761 263.09 116.821 261.17C117.621 259.71 118.191 257.76 118.591 255.94C119.401 252.28 121.661 249.23 122.981 245.78C123.431 244.59 124.301 245.15 125.011 245C125.121 247.61 123.291 249.58 122.441 251.83C121.491 254.34 120.411 256.93 119.351 259.42C117.851 262.92 116.801 266.88 118.971 270.8C119.631 271.99 118.881 272.68 117.021 273.01C117.051 272.32 116.711 271.98 116.021 272.01L116.001 272Z" fill="#96A29B"/>
<path d="M42.5 240C40.17 240 37.68 239.47 35.57 240.15C33.52 240.81 31.1 240.31 29.35 241.98C29.18 242.15 28.71 242 28.37 242C27.71 242 27.04 242.06 26.98 241.09C26.94 240.51 27.25 240.28 27.68 239.98C29.54 238.69 31.9 238.54 33.87 238.21C37.31 237.63 40.76 236.43 44.39 236.96C45.95 237.19 47.54 236.89 49 237.94C49.62 238.39 51.19 237.55 50.97 239.24C50.81 240.48 49.69 239.96 48.97 239.98C46.81 240.03 44.65 240 42.49 240H42.5Z" fill="#96A29B"/>
<path d="M43.4594 242.92C47.3194 243.47 51.1494 244.08 54.6794 245.96C55.5094 246.4 57.4995 245.4 56.8995 247.41C56.5195 248.7 54.8294 248 53.7794 247.93C52.9294 247.87 51.9794 247.35 51.3194 246.75C50.6294 246.12 49.9594 246 49.1194 245.99C47.3794 245.97 45.7194 246.02 43.9794 245.15C42.9694 244.64 41.0594 244.38 39.8494 245.68C39.2794 246.29 38.5795 246.06 37.9895 245.98C35.5095 245.65 33.3594 246.8 31.0994 247.44C30.7294 247.55 30.3694 248.24 30.0694 247.54C29.8194 246.95 30.1194 246.51 30.6794 245.96C32.2594 244.44 34.3194 245.14 36.0994 244.57C38.4394 243.82 40.8294 242.7 43.4594 242.93V242.92Z" fill="#96A29B"/>
<path d="M39.9 234C34.43 233.55 28.42 234.59 22.86 237.7C22.19 238.08 21.61 237.9 20.99 238C20.67 238.05 20.33 238 20 238C20.12 237.72 20.16 237.26 20.36 237.17C25.75 234.8 30.83 231.38 37.12 232.02C39.64 232.28 42.3 231.11 44.71 232.94C45.58 233.6 46.14 231.76 47.24 231.98C47.96 232.13 48.98 231.66 49.01 233.01C49.03 233.99 48.37 233.99 47.7 233.99C45.38 233.99 43.06 233.99 39.9 233.99V234Z" fill="#96A29B"/>
<path d="M209.231 260.17C215.591 259.3 220.441 262.16 225.611 263.3C227.851 263.79 229.751 265.9 232.131 266.68C232.421 266.78 233.031 267.13 232.771 267.68C232.681 267.87 232.221 267.99 231.931 267.98C231.311 267.94 230.731 268.07 230.081 267.64C226.041 264.99 221.261 264.15 216.881 262.32C216.401 262.12 215.991 262.02 215.521 262C213.621 261.93 211.791 262.05 209.921 261.1C208.581 260.41 206.711 261.36 205.141 260.65C206.611 259.26 208.431 260.45 209.221 260.17H209.231Z" fill="#96A29B"/>
<path d="M192.12 277C193.3 277 193.97 276.96 194 277.93C194.03 278.82 193.48 278.85 192.79 279.04C187.76 280.39 182.94 282.15 179.32 286.17C179.01 286.51 178.48 287.04 178.2 286.96C177.27 286.7 176.94 288.31 176.27 287.7C175.48 286.99 176.3 286.33 176.81 285.68C180.3 281.27 185.23 279.19 190.26 277.29C190.99 277.01 191.84 277.05 192.12 277.02V277Z" fill="#96A29B"/>
<path d="M128.001 227C128.131 226.39 127.721 225.71 128.331 225.16C132.061 221.81 135.111 217.74 139.401 214.94C140.661 214.12 141.731 214.07 142.991 214.01C142.261 216.66 139.371 216.88 137.791 218.64C135.491 221.2 132.911 223.5 130.541 226.01C129.781 226.81 129.031 227.16 127.991 227.01L128.001 227Z" fill="#96A29B"/>
<path d="M161.699 302C162.779 302 163.279 302.03 163.779 302C164.989 301.91 164.889 302.7 165.049 303.56C165.269 304.74 163.849 305.08 163.979 306.15C164.009 306.4 163.609 306.94 163.569 306.92C163.059 306.73 162.969 306.28 163.009 305.78C163.099 304.69 163.009 304.01 161.499 303.94C159.089 303.83 157.159 304.59 155.379 306.11C153.799 307.46 152.159 308.75 150.479 309.97C150.149 310.21 149.309 310.2 149.059 309.95C148.809 309.7 148.789 308.81 149.039 308.54C151.319 306.07 154.039 304.03 157.239 303.13C158.849 302.67 160.279 300.79 161.699 302.01V302Z" fill="#96A29B"/>
<path d="M324 278C324.19 276.93 324.93 276.16 325.88 276.06C326.91 275.95 327.72 275.27 328.38 274.88C331.24 273.17 332.76 270.53 331.99 267H332.99C333.62 266.89 333.93 267.27 333.98 267.79C334.38 272.66 332.79 275.36 328.08 278.01C326.79 278.74 325.48 279.18 323.99 279V278H324Z" fill="#96A29B"/>
<path d="M77.9497 207C80.4097 206.75 82.9397 207.47 85.2997 208.82C85.5797 208.98 85.9297 209.25 85.9697 209.51C86.1297 210.49 85.2697 210.01 85.0197 209.96C83.1797 209.63 81.3997 210 79.4097 209.23C76.9497 208.29 73.6997 208.5 71.1797 210.35C70.4697 210.88 69.7497 211.49 69.1697 210.58C68.4497 209.46 69.6197 208.4 70.2797 208.32C72.1597 208.09 73.6797 206.6 75.6897 206.97C76.3297 207.09 76.9997 206.99 77.9497 206.99V207Z" fill="#96A29B"/>
<path d="M99.5705 223.03C99.9805 223.72 101.271 224.09 100.951 224.9C99.4205 228.73 100.051 233.33 96.9105 236.56C95.8805 237.62 95.5605 238.98 95.0405 240.24C94.7005 241.07 94.1405 241.06 93.5005 240.98C92.3305 240.85 92.9605 239.75 93.0705 239.54C93.9605 237.76 95.1605 236.12 95.9805 234.31C97.5005 230.93 99.4205 227.64 99.0405 223.7C99.0205 223.5 99.3805 223.26 99.5805 223.02L99.5705 223.03Z" fill="#96A29B"/>
<path d="M190.94 285.91C191.97 286.06 192.64 285.76 192.8 286.36C192.87 286.63 192.33 287.04 192.1 287.4C191.19 288.85 189.58 289.5 188.18 289.9C185.42 290.68 182.87 291.66 180.82 293.7C180.39 294.13 179.79 294.16 179.49 293.94C178.55 293.23 179.96 293.01 179.9 292.58C179.58 290.35 181.8 290.66 182.75 289.94C185.3 287.99 188.25 286.57 190.93 285.92L190.94 285.91Z" fill="#96A29B"/>
<path d="M64.9891 241.2C64.8391 241.45 64.7391 241.82 64.4991 241.94C64.2391 242.08 63.7291 242.13 63.5491 241.97C60.0691 238.75 55.3891 237.62 51.5791 235C50.9291 234.56 50.8391 234 51.1391 233.37C51.4091 232.8 52.0991 232.84 52.4391 233.02C56.3391 235.17 60.2191 237.36 64.0691 239.6C64.5891 239.9 65.1491 240.39 64.9891 241.2V241.2Z" fill="#96A29B"/>
<path d="M73.881 189.84C71.591 190.29 70.091 189.53 70.111 188.27C70.161 185 68.531 182.84 66.341 180.85C65.721 180.29 66.131 179.61 66.001 179C66.611 179.13 67.281 178.73 67.851 179.33C69.831 181.4 72.261 183.21 71.991 186.55C71.911 187.57 72.231 188.08 73.331 188C74.121 187.95 75.091 187.81 74.991 189.1C74.891 190.43 73.811 189.84 73.881 189.83V189.84Z" fill="#96A29B"/>
<path d="M318.001 94C318.001 93.2 317.921 92.46 318.671 91.8C322.201 88.66 326.081 86.53 331.001 87C329.511 88.51 327.461 89.04 325.721 90.08C323.621 91.34 321.021 91.83 319.431 93.96C319.261 94.19 318.491 93.99 318.001 93.99V94Z" fill="#96A29B"/>
<path d="M320 131C323.64 129.07 327.33 127.24 331.33 126.19C332.09 125.99 332.93 125.99 333.72 126.02C334.15 126.04 334.57 126.33 335 126.49C334.65 126.84 334.36 127.36 333.94 127.51C332.36 128.07 330.74 128.54 329.12 128.98C327.05 129.54 324.74 129.53 323.19 131.32C322.26 132.39 321.08 131.84 320 131.99V130.99V131Z" fill="#96A29B"/>
<path d="M27.0002 168C27.8902 166.58 29.2002 165.98 30.8502 165.99C33.5002 166.01 36.1602 166 38.8102 165.99C39.3002 165.99 39.9102 166.08 39.8602 166.56C39.8202 166.95 39.2302 167.28 38.8602 167.62C38.0102 168.4 36.9702 167.92 36.0302 167.97C34.3802 168.06 32.6902 168.18 31.0602 167.94C29.4702 167.71 28.5402 169.47 26.9902 168.99V167.99L27.0002 168Z" fill="#96A29B"/>
<path d="M235.21 225C235.72 225.12 236.31 225.55 235.97 225.94C234.03 228.18 233.5 231.31 231.2 233.31C230.95 233.52 230.74 233.77 230.5 234C230.33 233.58 230.1 233.17 230.01 232.73C229.17 228.7 232.51 227.19 234.73 225.01C234.81 224.93 235.05 225 235.21 225.01V225Z" fill="#96A29B"/>
<path d="M138.001 285C138.001 283.84 137.601 282.47 138.071 281.55C139.511 278.76 139.141 275.44 140.931 272.74C141.591 271.74 142.281 272.14 142.991 272C141.761 275.73 140.601 279.47 139.261 283.16C139.021 283.82 139.121 284.4 138.991 285H137.991H138.001Z" fill="#96A29B"/>
<path d="M95.9997 246C96.1197 245.4 95.7197 244.71 96.3197 244.18C98.5597 242.18 100.51 239.98 101.52 237.05C101.68 236.59 102.18 235.88 103 236C103.21 238.98 101.56 241.26 99.9397 243.46C99.3197 244.29 98.8597 244.98 98.9997 246H95.9997Z" fill="#96A29B"/>
<path d="M72.0002 302C75.1302 303.08 74.1002 306.7 76.0002 308.53C75.2902 310.58 77.1602 312.16 77.0002 314.1C76.9502 314.68 76.6802 314.95 76.1002 315C75.5302 315.06 74.9702 314.77 75.0302 314.31C75.3702 311.66 74.0902 309.39 73.5202 306.94C73.0702 305.01 71.9702 303.57 70.9902 301.99H71.9902L72.0002 302Z" fill="#96A29B"/>
<path d="M17.7708 238C18.5108 238 19.0108 237.97 19.5108 238C20.6508 238.08 19.8408 238.53 19.6608 238.84C18.5208 240.74 16.2608 241.21 14.6908 242.6C13.9408 243.26 13.0708 241.48 12.3608 240.75C11.6508 240.03 12.8108 239.61 13.1408 239.43C14.6508 238.63 16.1208 237.52 17.7808 237.98L17.7708 238Z" fill="#96A29B"/>
<path d="M52.7501 256C52.1101 255.99 51.31 256.2 51.03 255.45C50.67 254.49 51.4301 253.69 52.1101 253.47C54.0301 252.84 56.0301 252.47 58.0001 252.01C58.6301 251.87 58.9101 252.28 58.9801 252.8C59.0201 253.09 58.92 253.64 58.78 253.68C56.67 254.22 55.1301 256.23 52.7401 256.01L52.7501 256Z" fill="#96A29B"/>
<path d="M45.5507 170C47.4907 169.7 49.5207 170.35 51.3007 171.81C51.5507 172.02 51.7707 172.27 52.0007 172.5C51.7407 172.67 51.5007 172.93 51.2207 172.98C50.7407 173.06 50.1707 173.16 49.7607 172.98C47.5307 171.95 45.1807 171.92 42.8007 171.99C42.2907 172 41.9907 171.65 41.9807 171.05C41.9707 170.46 42.2307 170.09 42.7307 170.03C43.5407 169.95 44.3607 170.01 45.5507 170.01V170Z" fill="#96A29B"/>
<path d="M290.999 175H289.999C290.159 174.38 289.359 174.19 289.349 173.81C289.209 170.82 287.749 168.04 287.999 165V164C290.109 165.91 290.429 168.6 290.959 171.15C291.219 172.38 290.999 173.71 290.999 175Z" fill="#96A29B"/>
<path d="M302.001 126.02C300.941 123.52 303.791 122.17 304.581 120.01C304.621 119.91 305.261 119.91 305.511 120.05C305.741 120.18 305.931 120.54 305.971 120.83C306.011 121.11 305.931 121.51 305.751 121.72C304.151 123.54 303.791 125.69 304.011 128C304.071 128.64 303.731 128.93 303.211 128.99C302.461 129.08 301.941 128.82 302.001 127.92C302.031 127.42 302.001 126.92 302.001 126.03V126.02Z" fill="#96A29B"/>
<path d="M156.64 180.27C155.71 179.89 155.23 179.82 155.19 179.64C155.08 179.22 155.011 178.59 155.241 178.32C156.811 176.49 159.18 176.61 161.26 176.03C161.45 175.98 161.93 176.33 161.97 176.55C162.05 177 162.05 177.45 161.65 177.9C160.12 179.61 157.61 178.56 156.65 180.27H156.64Z" fill="#96A29B"/>
<path d="M87 252V251C88.21 248.07 91.96 248.51 93.61 246.05C93.87 245.67 95.18 246 96 246L95 248C94.24 248.15 93.09 247.5 93 249V250C90.62 249.53 88.99 251.3 87 252Z" fill="#96A29B"/>
<path d="M22.9993 244.93C23.0693 245.85 22.3293 246.46 21.9293 246.5C19.4893 246.77 18.0093 248.4 16.4493 249.98C16.2893 250.14 15.7593 250.1 15.4993 249.97C14.8993 249.65 15.4393 249.32 15.4993 248.94C15.9493 246.55 18.0193 245.98 19.7293 245.02C20.5193 244.58 21.3893 244.23 22.2693 244.05C22.6793 243.97 23.1593 244.41 22.9893 244.93H22.9993Z" fill="#96A29B"/>
<path d="M352 80.9999V82.9999C348.58 82.4699 345.42 84.5299 342 83.9999V82.9999C342.93 82.8299 344.01 83.4299 344.81 82.6699C346.9 80.6799 349.48 80.9999 352 80.9999Z" fill="#96A29B"/>
<path d="M14.2808 232.85C14.0608 232.62 13.0708 233.69 13.0508 232.51C13.0508 232.16 13.6308 231.65 14.0508 231.49C16.3208 230.61 18.6208 229.81 20.9208 229.02C21.4608 228.83 21.9308 229.2 21.9608 229.7C21.9908 230.11 21.6108 230.94 21.5408 230.93C18.8108 230.38 17.2208 233.7 14.2808 232.86V232.85Z" fill="#96A29B"/>
<path d="M72.0103 282.48C71.9903 283.69 71.5903 284.18 71.1203 283.96C68.8703 282.89 67.2803 281.08 66.0203 278.98C65.8703 278.74 65.8703 278.2 66.0403 278.03C66.2103 277.86 66.7203 277.88 66.9903 278.01C69.2503 279.12 70.4303 281.3 72.0103 282.47V282.48Z" fill="#96A29B"/>
<path d="M27 168V169C24.24 168.6 21.69 169.7 19.21 170.48C17.73 170.95 16.38 170.73 15 171V170C17.29 170.51 19.17 168.3 21.49 169C23.04 167.07 25.17 168.4 27 168Z" fill="#96A29B"/>
<path d="M137.7 191.96C137.22 191.82 136.73 191.43 137.02 190.96C138 189.37 139.11 187.86 140.17 186.32C140.52 185.8 141.15 185.86 141.49 186.05C142.13 186.4 142.29 187.21 141.76 187.67C140.65 188.64 140.08 189.93 139.32 191.13C138.99 191.65 138.53 192.23 137.7 191.96V191.96Z" fill="#96A29B"/>
<path d="M133 199.11C133.38 200.96 131.71 201.57 130.83 202.64C130.66 202.85 130.28 202.88 130 203C130 202.67 130.02 202.34 130 202.01C129.84 200.08 131.64 198.55 131.07 196.48C130.96 196.07 131.64 196.22 132.06 196.52C133.01 197.19 133.07 198.11 133 199.11Z" fill="#96A29B"/>
<path d="M149.001 310.49C149.001 310.82 149.141 311.27 148.981 311.44C147.881 312.63 146.781 313.84 145.551 314.88C145.101 315.26 144.181 315.12 144.041 314.35C143.811 313.11 147.131 310.02 148.521 309.97C149.011 309.95 149.171 309.99 149.011 310.48L149.001 310.49Z" fill="#96A29B"/>
<path d="M342 83V84C340.07 86.07 337.53 86.02 335 86V85C335.11 84.73 335.2 84.22 335.32 84.21C337.59 84.06 339.84 83.8 342 83Z" fill="#96A29B"/>
<path d="M177.75 243.89L178.97 244.47C178.65 244.81 178.39 245.33 177.99 245.47C176.44 246.04 174.85 246.56 173.25 246.97C172.63 247.13 171.99 246.97 171.98 246.01C171.98 245.41 172.29 244.96 172.74 245.03C174.55 245.35 175.85 243.34 177.75 243.88V243.89Z" fill="#96A29B"/>
<path d="M101.001 357.6C101.031 358.1 101.131 358.83 100.301 358.98C99.6709 359.1 98.9508 359 99.0208 358.08C99.0808 357.28 98.2808 357.08 98.0708 356.53C97.6108 355.34 98.6208 354.62 99.3608 354.27C100.071 353.94 100.621 355 100.951 355.57C101.231 356.05 101.011 356.83 101.011 357.6H101.001Z" fill="#96A29B"/>
<path d="M265 238.97C265 239.85 265.17 240.72 264.94 241.46C264.77 242.01 264.13 242.73 263.63 242.79C262.71 242.91 263.04 241.98 263.01 241.45C262.97 240.64 263.01 239.82 262.99 239.01C262.96 238.02 263.94 237.24 264.36 237.24C265.55 237.24 264.75 238.41 265 238.97Z" fill="#96A29B"/>
<path d="M129.001 253H128.001C127.561 250.93 129.461 250.29 130.451 249.12C130.611 248.93 131.451 249.03 131.701 249.28C131.951 249.53 132.071 250.38 131.891 250.53C130.901 251.32 130.431 252.74 129.001 253Z" fill="#96A29B"/>
<path d="M307 103C307.03 102.31 306.69 101.97 306 102C306.99 99.8602 308.51 98.6202 311 99.0002C310.05 100.71 308.71 102.05 307 103Z" fill="#96A29B"/>
<path d="M66.0096 270.98C65.8796 271.29 65.8296 271.73 65.6396 271.81C65.2196 271.97 64.7196 272 64.2596 271.99C62.9696 271.95 62.2396 271.17 62.0196 269.98C61.8396 269.05 62.5796 269.04 63.2496 268.99C64.7596 268.88 65.6096 269.63 66.0196 270.98H66.0096Z" fill="#96A29B"/>
<path d="M324 278V279C321.87 280.33 320.19 279.87 320.03 277.85C319.95 276.91 321 276.72 321.39 277.05C322.19 277.74 322.95 278.17 324.01 278H324Z" fill="#96A29B"/>
<path d="M7.0005 248C7.0305 249.47 7.2205 251.02 5.6005 251.85C5.2605 252.02 4.5705 251.97 4.3205 251.73C4.0605 251.48 3.9505 250.56 4.0905 250.48C5.5005 249.66 5.4505 247.66 7.0005 246.99V247.99V248Z" fill="#96A29B"/>
<path d="M152.999 208.27C152.999 208.83 153.139 209.32 152.969 209.46C152.639 209.74 152.149 209.84 151.719 210C150.909 210.3 150.399 211.65 149.269 210.73C149.069 210.57 148.939 210.09 149.029 209.87C149.489 208.8 150.129 207.81 151.509 208.03C151.999 208.11 152.799 207.46 153.009 208.27H152.999Z" fill="#96A29B"/>
<path d="M176 298C176.38 300.49 175.14 302.01 173 303C173.35 300.95 173.73 298.91 176 298Z" fill="#96A29B"/>
<path d="M149.99 263.53C150.28 264.46 149.62 265 148.99 265.49C148.05 266.22 147.57 267.49 146.25 267.75C145.24 265.71 147.58 265.54 148.17 264.38C148.45 263.83 149.01 263.38 149.53 263.02C149.94 262.74 150.16 263 149.99 263.52V263.53Z" fill="#96A29B"/>
<path d="M80 287V288C79.49 290.1 77.3 289.95 76 291V290C76.51 287.9 78.7 288.05 80 287Z" fill="#96A29B"/>
<path d="M61.9702 205.47C61.7502 205.71 61.5802 206.01 61.3102 206.16C60.2502 206.8 59.2002 207.5 58.0602 207.94C57.5602 208.14 56.4702 208.35 56.2702 207.68C55.9502 206.58 57.1602 207.29 57.4702 206.97C58.5002 205.9 59.9602 205.7 61.1802 205.03C61.3202 204.95 61.7002 205.31 61.9702 205.47V205.47Z" fill="#96A29B"/>
<path d="M10 167V168C9.49 170.1 7.3 169.95 6 171V170C6.51 167.9 8.7 168.05 10 167Z" fill="#96A29B"/>
<path d="M288.001 164V165C286.091 163.83 285.911 161.97 286.001 160H288.001V164Z" fill="#96A29B"/>
<path d="M105.001 232.07C105.001 232.64 104.941 233.14 105.011 233.63C105.191 234.87 103.891 235.95 103.531 235.87C102.271 235.58 103.161 234.32 103.081 233.5C103.031 233.03 104.061 232.75 104.031 231.93C104.011 231.32 103.761 230.16 104.401 230.2C105.501 230.27 104.811 231.46 105.011 232.07H105.001Z" fill="#96A29B"/>
<path d="M144.949 319.23C144.669 320.11 144.089 321.01 142.759 320.98C142.279 320.97 141.859 320.62 142.009 320.02C142.289 318.85 142.969 318.04 144.249 318.03C144.729 318.03 145.129 318.37 144.949 319.24V319.23Z" fill="#96A29B"/>
<path d="M64.9994 217C64.9994 217.64 64.9794 218.28 64.9994 218.92C65.0294 219.74 64.6194 220.04 63.8594 220C63.3094 219.97 62.8794 219.64 63.0194 219.14C63.3194 218.09 62.0594 216.53 63.9894 216C63.9594 216.69 64.2994 217.03 64.9894 217H64.9994Z" fill="#96A29B"/>
<path d="M135.23 230.95C134.37 231.12 134.02 230.72 134.02 230.25C134.03 228.97 134.84 228.3 136.01 228.01C136.61 227.86 136.96 228.28 136.97 228.76C137.01 230.08 136.11 230.67 135.22 230.95H135.23Z" fill="#96A29B"/>
<path d="M26.2102 228C26.5402 228 26.8802 227.94 27.1802 228.02C27.4602 228.09 27.7102 228.31 27.9702 228.47C27.7602 228.7 27.5302 228.91 27.3502 229.16C26.8202 229.89 26.1202 230.1 25.2602 230.01C24.6002 229.94 23.9902 229.96 23.9902 229.01C23.9902 228.09 24.5502 227.99 25.2402 228C25.5702 228 25.8902 228 26.2202 228H26.2102Z" fill="#96A29B"/>
<path d="M335 84.9998V85.9998C335.06 86.8698 334.51 86.9998 333.82 86.9998C332.88 86.9998 331.94 86.9998 331 86.9998C331.56 84.7898 333.29 84.9198 335 84.9998Z" fill="#96A29B"/>
<path d="M111.751 353.99C113.041 354.02 113.671 354.85 113.991 355.98C114.151 356.56 113.751 356.96 113.271 356.97C111.981 357 111.321 356.16 111.001 355.01C110.841 354.43 111.241 354.17 111.741 353.99H111.751Z" fill="#96A29B"/>
<path d="M63 176C65.24 176.21 65.79 176.76 66 179C63.76 178.79 63.21 178.24 63 176Z" fill="#96A29B"/>
<path d="M288 265.17C287.83 266.37 286.871 265.93 286.171 266C285.011 266.11 284.81 265.33 285.02 264.49C285.31 263.32 286.281 264.2 286.921 264.04C287.701 263.84 288.02 264.39 288 265.17Z" fill="#96A29B"/>
<path d="M49.9696 162.36C50.1196 163.42 49.9296 164.13 48.7796 163.99C47.8696 163.88 48.0296 163.16 47.9896 162.52C47.9396 161.6 48.0596 160.86 49.2296 161.01C50.0996 161.13 50.1196 161.79 49.9796 162.35L49.9696 162.36Z" fill="#96A29B"/>
<path d="M138 285H139C139.16 286.55 138.58 287.61 137 288H136C137.03 287.24 136.3 285.31 138 285Z" fill="#96A29B"/>
<path d="M88.0003 213C88.1103 212.39 87.7303 212.01 87.2403 212.03C85.5603 212.08 86.0903 210.87 86.0003 210C87.5503 209.84 88.6103 210.42 89.0003 212C89.0303 212.69 88.6903 213.03 88.0003 213Z" fill="#96A29B"/>
<path d="M89.0592 244.73C89.4392 246.06 88.1792 245.93 87.3092 246.2C86.9292 246.32 86.7992 247.21 86.2792 246.72C85.7392 246.22 85.8692 245.53 86.4592 245.06C86.9492 244.67 87.1792 243.85 88.0092 244.01C88.3692 244.08 89.0292 243.63 89.0692 244.73H89.0592Z" fill="#96A29B"/>
<path d="M6.99936 248V247C6.83936 245.94 7.14935 245.13 8.02935 244.42C8.60935 243.95 8.91935 244.21 8.97935 244.65C9.17935 246.23 8.75936 247.53 7.00936 248H6.99936Z" fill="#96A29B"/>
<path d="M324.01 253.01C325.42 252.52 326.16 254.27 327.5 254.03C327.56 254.02 327.74 254.45 327.79 254.69C327.81 254.77 327.59 254.95 327.45 254.99C326.74 255.21 323.3 254.18 323.18 253.65C323.05 253.08 323.53 252.95 324.01 253.01V253.01Z" fill="#96A29B"/>
<path d="M193.001 197V198C192.701 199.83 191.311 198.95 190.441 198.87C189.801 198.81 190.321 198.28 190.551 197.93C191.151 197.01 192.031 196.9 193.001 197Z" fill="#96A29B"/>
<path d="M320.001 131V132C319.831 133.07 319.051 133.6 318.161 133.97C317.931 134.06 317.551 133.9 317.291 133.76C316.941 133.58 317.031 133.34 317.421 133.07C318.321 132.43 318.761 131.21 320.011 131H320.001Z" fill="#96A29B"/>
<path d="M88 213C88.69 213.03 89.03 212.69 89 212C90.7 212.31 89.97 214.24 91 215C89.45 215.16 88.39 214.58 88 213Z" fill="#96A29B"/>
<path d="M33.0798 228.05L32.0098 227.52C32.7198 226.96 33.0798 225.83 34.2598 226.02C34.7498 226.1 35.0298 226.42 35.0098 227.02C34.9498 228.35 33.9598 227.89 33.0798 228.05Z" fill="#96A29B"/>
<path d="M52.0108 215.92C51.8208 216.73 52.5808 217.99 50.9208 218C50.3508 218 50.0608 217.7 50.0108 217.19C49.9008 216.05 50.8408 215.42 51.5608 215.06C52.3708 214.66 51.7608 215.66 52.0108 215.91V215.92Z" fill="#96A29B"/>
<path d="M317.62 274.14C318.19 274.26 319.28 276.03 318.97 276.47C318.75 276.78 318.15 277.03 317.77 276.97C316.55 276.79 317.12 275.75 317.01 275.05C316.93 274.57 317.08 274.2 317.62 274.14V274.14Z" fill="#96A29B"/>
<path d="M333 267H332V262H333V267Z" fill="#96A29B"/>
<path d="M63.9998 201H64.9998C65.1398 201.58 64.6398 201.81 64.3498 202.14C63.8398 202.74 63.2398 203.33 62.4198 202.85C62.1398 202.69 61.9398 202 62.0398 201.65C62.3498 200.61 63.2998 201.1 63.9998 200.99V201Z" fill="#96A29B"/>
<path d="M235.001 269C235.581 268.86 235.811 269.36 236.141 269.65C236.741 270.16 237.331 270.76 236.851 271.58C236.691 271.86 236.001 272.06 235.651 271.96C234.611 271.65 235.101 270.7 234.991 270V269H235.001Z" fill="#96A29B"/>
<path d="M129.01 239.5C129.3 240.64 128.44 241.39 127.69 241.71C126.73 242.13 127.07 241.06 127.03 240.6C126.97 239.85 126.83 238.92 128.06 239.01C128.37 239.03 129.08 238.53 129.02 239.49L129.01 239.5Z" fill="#96A29B"/>
<path d="M102 298V299C102.1 300.55 100.37 299.63 99.9303 300.54C99.5903 301.22 99.1803 300.8 99.0303 300.35C98.9303 300.08 98.9604 299.53 99.1204 299.44C100.05 298.91 101.04 298.47 102 298.01V298Z" fill="#96A29B"/>
<path d="M132.01 361.21C131.86 361.73 131.63 362.03 131.02 362.02C130.1 362.02 129.95 361.45 130.03 360.77C130.09 360.27 130.38 359.97 131 359.98C131.93 359.98 132.01 360.55 132.02 361.21H132.01Z" fill="#96A29B"/>
<path d="M333.001 262H332.001C330.071 261.53 331.381 259.98 331.001 259C332.701 259.31 331.971 261.24 333.001 262Z" fill="#96A29B"/>
<path d="M90.0004 360.46C90.0004 360.79 90.0804 361.14 89.9704 361.43C89.9004 361.62 89.5004 361.87 89.3604 361.82C88.8604 361.62 88.8204 358.54 89.3204 358.22C89.4404 358.14 89.9504 358.38 89.9704 358.5C90.0404 359.15 90.0004 359.8 90.0004 360.46V360.46Z" fill="#96A29B"/>
<path d="M147.84 180.99C148.69 181.03 148.96 181.32 149 181.86C149.08 183.02 148.31 183 147.47 183.02C146.52 183.04 147.07 182.37 147.02 182.05C146.88 181.23 147.41 180.98 147.84 180.99Z" fill="#96A29B"/>
<path d="M143.999 221C143.959 220 144.899 219.69 145.439 219.14C145.639 218.94 146.469 219.03 146.709 219.28C147.199 219.81 146.419 219.99 146.179 220.28C145.889 220.63 145.629 221.15 144.999 220.99H143.999V221Z" fill="#96A29B"/>
<path d="M23.0305 252.19C23.1205 252.63 22.7305 252.93 22.2305 252.98C21.5505 253.06 20.9905 252.91 20.9805 251.99C20.9805 251.37 21.2705 251.08 21.7705 251.02C22.4705 250.93 23.0305 251.15 23.0305 252.19V252.19Z" fill="#96A29B"/>
<path d="M173.32 291.86C173.2 291.53 172.98 291.24 173.02 290.98C173.15 290.02 173.78 289.45 174.7 289.23C174.73 289.23 175.02 289.77 174.98 290.02C174.83 290.96 174.19 291.51 173.33 291.86H173.32Z" fill="#96A29B"/>
<path d="M109 235.46C109 235.79 109.08 236.14 108.97 236.43C108.9 236.62 108.5 236.87 108.36 236.82C107.86 236.62 107.82 233.54 108.32 233.22C108.44 233.14 108.95 233.38 108.97 233.5C109.04 234.15 109 234.8 109 235.46Z" fill="#96A29B"/>
<path d="M345.381 136.05C345.611 136.27 345.911 136.42 345.981 136.65C346.061 136.94 346.061 137.43 345.891 137.57C345.281 138.06 344.991 139.15 344.021 138.96C343.401 138.84 344.161 139.15 344.001 138.51C343.691 137.23 344.891 136.87 345.391 136.06L345.381 136.05Z" fill="#96A29B"/>
<path d="M13 233.92C13.04 234.77 12.59 235.04 11.85 235C10.96 234.95 10.88 234.29 11.01 233.67C11.18 232.87 11.9 233.02 12.51 232.99C13.48 232.94 12.75 233.67 12.99 233.92H13Z" fill="#96A29B"/>
<path d="M43.0007 167.95C43.0607 168.9 42.4507 169.06 41.7707 168.98C41.2707 168.92 40.9707 168.63 40.9807 168.01C40.9807 167.09 41.5507 166.94 42.2307 167.02C42.7307 167.08 43.1207 167.37 43.0007 167.95V167.95Z" fill="#96A29B"/>
<path d="M14.9993 170V171C14.6993 172.83 13.3093 171.94 12.4393 171.87C11.8193 171.82 12.3093 170.97 12.5693 171.05C13.7593 171.45 13.9893 169.84 14.9993 170Z" fill="#96A29B"/>
<path d="M65.8397 212.99C66.6797 213.03 66.9598 213.32 66.9998 213.86C67.0798 215.02 66.3098 215 65.4698 215.02C64.5198 215.04 65.0697 214.37 65.0197 214.05C64.8797 213.23 65.4097 212.98 65.8397 212.99V212.99Z" fill="#96A29B"/>
<path d="M201 174C201.69 174.03 202.03 173.69 202 173C203.09 173.24 203.76 173.91 204 175C203.02 174.62 201.47 175.93 201 174Z" fill="#96A29B"/>
<path d="M90.0005 295H91.0005C90.8805 296.57 89.6605 295.85 88.8805 295.97C88.6505 296.01 88.1405 295.72 88.1505 295.6C88.1905 295.09 88.5805 294.95 89.0705 294.99C89.3805 295.02 89.7005 294.99 90.0105 294.99L90.0005 295Z" fill="#96A29B"/>
<path d="M130.071 237.94C129.901 238.25 129.591 238.97 129.491 238.94C128.341 238.64 129.271 237.71 129.021 237.09C128.851 236.65 129.191 236 129.561 236.13C130.291 236.4 129.891 237.22 130.071 237.94V237.94Z" fill="#96A29B"/>
<path d="M78.9696 321.09L78.4996 322C77.8596 321.56 77.9496 320.87 78.0196 320.26C78.0696 319.83 78.3296 319.42 78.4996 319C79.1296 319.45 79.0096 320.11 78.9696 321.09Z" fill="#96A29B"/>
<path d="M324.001 116H325.001C324.881 117.57 323.661 116.85 322.881 116.97C322.651 117.01 322.141 116.72 322.151 116.6C322.191 116.09 322.581 115.95 323.071 115.99C323.381 116.02 323.701 115.99 324.011 115.99L324.001 116Z" fill="#96A29B"/>
<path d="M90.0002 220H89.0002C87.5002 219.91 88.1502 218.76 88.0002 218C89.0902 218.24 89.7602 218.91 90.0002 220Z" fill="#96A29B"/>
<path d="M204 175C205.09 175.24 205.76 175.91 206 177C204.36 177.3 203.7 176.64 204 175Z" fill="#96A29B"/>
<path d="M136.001 288H137.001C137.001 288.82 137.031 289.65 136.971 290.46C136.961 290.6 136.561 290.74 136.321 290.8C136.251 290.82 136.021 290.59 136.011 290.46C135.981 289.64 136.001 288.82 136.001 287.99V288Z" fill="#96A29B"/>
<path d="M146.96 183.59L145.38 184.87C145.26 184.61 145.04 184.36 145.02 184.09C144.93 182.93 145.75 183.02 146.54 182.97C147.01 182.94 147.16 182.99 146.97 183.59H146.96Z" fill="#96A29B"/>
<path d="M54.0002 211C53.8502 211.76 54.5002 212.91 53.0002 213V212C53.1502 211.24 52.5002 210.09 54.0002 210V211Z" fill="#96A29B"/>
<path d="M92 216C93.5 216.09 92.85 217.24 93 218C91.91 217.76 91.24 217.09 91 216H92Z" fill="#96A29B"/>
<path d="M53.0006 212V213C52.8506 213.76 53.5006 214.91 52.0006 215C52.3806 214.02 51.0706 212.47 53.0006 212Z" fill="#96A29B"/>
<path d="M91 243C90.91 244.5 89.76 243.85 89 244C89.24 242.91 89.91 242.24 91 242V243Z" fill="#96A29B"/>
<path d="M59.6203 175C59.0103 174.97 58.0703 175.17 58.1603 174.43C58.2403 173.75 59.2203 173.99 59.8003 174.03C60.2103 174.06 60.9403 174.37 60.9403 174.53C60.9003 175.67 59.9803 174.64 59.6203 175.01V175Z" fill="#96A29B"/>
<path d="M151 262C150.94 261.52 151.11 261.15 151.62 261.16C151.75 261.16 151.96 261.62 151.99 261.88C152.05 262.56 151.82 263.06 151.01 263V262H151Z" fill="#96A29B"/>
<path d="M64.9999 217C64.3099 217.03 63.9699 216.69 63.9999 216C63.9699 215.31 64.3099 214.97 64.9999 215V217Z" fill="#96A29B"/>
<path d="M316 95.0002C316.09 93.5002 317.24 94.1502 318 94.0002C317.91 95.5002 316.76 94.8502 316 95.0002Z" fill="#96A29B"/>
<path d="M313 97.0002C313.09 95.5002 314.24 96.1502 315 96.0002C314.91 97.5002 313.76 96.8502 313 97.0002Z" fill="#96A29B"/>
<path d="M6.02012 239C5.53012 239.04 5.10012 238.93 5.20012 238.35C5.23012 238.19 5.70012 238.06 5.99012 238.01C6.47012 237.93 6.91012 238.06 6.81012 238.65C6.78012 238.81 6.30012 238.89 6.02012 239V239Z" fill="#96A29B"/>
<path d="M330.559 259.01C329.919 258.6 329.879 258.02 330.099 257.42C330.249 257.01 330.599 256.95 330.729 257.25C330.889 257.65 330.899 258.11 331.009 258.53C331.139 259 331.009 259.15 330.559 259.01Z" fill="#96A29B"/>
<path d="M308 116C308.15 115.24 307.5 114.09 309 114C308.85 114.76 309.5 115.91 308 116Z" fill="#96A29B"/>
<path d="M53.9998 211V210C53.9398 209.52 54.1098 209.15 54.6198 209.16C54.7498 209.16 54.9598 209.62 54.9898 209.88C55.0498 210.56 54.8198 211.06 54.0098 211H53.9998Z" fill="#96A29B"/>
<path d="M234.999 269V270C234.669 270 234.349 269.99 234.019 270C233.529 270.02 233.069 269.95 233.209 269.33C233.249 269.17 233.729 269.06 234.019 269.01C234.339 268.96 234.669 269 234.999 269Z" fill="#96A29B"/>
<path d="M351 131C351.09 129.5 352.24 130.15 353 130C353.03 130.69 352.69 131.03 352 131H351Z" fill="#96A29B"/>
<path d="M228 216C227.91 217.5 226.76 216.85 226 217C226.09 215.5 227.24 216.15 228 216Z" fill="#96A29B"/>
<path d="M143.71 270.07C143.8 270.48 144.02 270.91 143.97 271.31C143.91 271.76 143.55 272.16 143.01 271.96C142.91 271.92 143.01 271.38 142.99 271.07C142.95 270.59 143.08 270.23 143.71 270.07V270.07Z" fill="#96A29B"/>
<path d="M189.02 192C189.29 192.11 189.78 192.19 189.81 192.35C189.91 192.94 189.47 193.07 188.99 192.99C188.7 192.94 188.23 192.81 188.2 192.65C188.1 192.06 188.53 191.96 189.02 192V192Z" fill="#96A29B"/>
<path d="M63.9492 190.71C63.5192 190.81 63.0892 191.02 62.6892 190.97C62.2392 190.91 61.8392 190.55 62.0392 190.01C62.0792 189.91 62.6192 190.01 62.9292 189.99C63.4092 189.95 63.7492 190.1 63.9492 190.7V190.71Z" fill="#96A29B"/>
<path d="M125 244C124.95 243.19 125.44 242.95 126.12 243.02C126.38 243.05 126.84 243.25 126.84 243.39C126.84 243.89 126.48 244.07 126 244.01H125V244Z" fill="#96A29B"/>
<path d="M213 185C214.5 185.09 213.85 186.24 214 187C212.5 186.91 213.15 185.76 213 185Z" fill="#96A29B"/>
<path d="M159.69 254.95L159 254.5C159.41 254.33 159.82 254.08 160.25 254.03C160.48 254 160.75 254.33 161 254.5C160.68 254.9 160.28 255.09 159.69 254.95Z" fill="#96A29B"/>
<path d="M211 182C212.5 182.09 211.85 183.24 212 184C210.5 183.91 211.15 182.76 211 182Z" fill="#96A29B"/>
<path d="M351 131H352C352.05 131.81 351.56 132.05 350.88 131.98C350.62 131.95 350.16 131.75 350.16 131.61C350.16 131.11 350.52 130.93 351 130.99V131Z" fill="#96A29B"/>
<path d="M220 218.02C219.89 218.29 219.81 218.78 219.65 218.81C219.06 218.91 218.93 218.47 219.01 217.99C219.06 217.7 219.19 217.23 219.35 217.2C219.94 217.1 220.04 217.53 220 218.02V218.02Z" fill="#96A29B"/>
<path d="M358 134C358.09 132.5 359.24 133.15 360 133C360.03 133.69 359.69 134.03 359 134H358Z" fill="#96A29B"/>
<path d="M207 178C207.69 177.97 208.03 178.31 208 179C207.24 178.85 206.09 179.5 206 178H207Z" fill="#96A29B"/>
<path d="M358 134H359C358.91 135.5 357.76 134.85 357 135C356.97 134.31 357.31 133.97 358 134Z" fill="#96A29B"/>
<path d="M162.86 252.63C162.52 253.21 161.99 253 161.54 252.97C161.4 252.97 161.13 252.49 161.19 252.36C161.45 251.79 162.02 252.01 162.47 252.04C162.62 252.05 162.74 252.44 162.86 252.63Z" fill="#96A29B"/>
<path d="M144 221H145C145.05 221.81 144.56 222.05 143.88 221.98C143.62 221.95 143.16 221.75 143.16 221.61C143.16 221.11 143.52 220.93 144 220.99V221Z" fill="#96A29B"/>
<path d="M81.9492 304.71C81.5192 304.81 81.0892 305.02 80.6892 304.97C80.2392 304.91 79.8392 304.55 80.0392 304.01C80.0792 303.91 80.6192 304.01 80.9292 303.99C81.4092 303.95 81.7492 304.1 81.9492 304.7V304.71Z" fill="#96A29B"/>
<path d="M172.989 303.88C173.079 304.42 172.889 304.75 172.419 304.91C172.279 304.5 172.059 304.1 172.039 303.68C172.029 303.46 172.339 303.05 172.549 303.02C173.489 302.87 172.779 303.65 172.999 303.87L172.989 303.88Z" fill="#96A29B"/>
<path d="M61 175C61.76 175.15 62.91 174.5 63 176C62.24 175.85 61.09 176.5 61 175Z" fill="#96A29B"/>
<path d="M79.5594 304.01C78.9194 303.6 78.8794 303.02 79.0994 302.42C79.2494 302.01 79.5994 301.95 79.7294 302.25C79.8894 302.65 79.8994 303.11 80.0094 303.53C80.1394 304 80.0094 304.15 79.5594 304.01Z" fill="#96A29B"/>
<path d="M61.5594 190.01C60.9194 189.6 60.8794 189.02 61.0994 188.42C61.2494 188.01 61.5994 187.95 61.7294 188.25C61.8894 188.65 61.8994 189.11 62.0094 189.53C62.1394 190 62.0094 190.15 61.5594 190.01Z" fill="#96A29B"/>
<path d="M72 302H71V300C72.5 300.09 71.85 301.24 72 302Z" fill="#96A29B"/>
<path d="M168.05 298.69L168.5 298C168.67 298.41 168.92 298.82 168.97 299.25C169 299.48 168.67 299.75 168.5 300C168.1 299.68 167.91 299.28 168.05 298.69Z" fill="#96A29B"/>
<path d="M70.64 247.86L70 247.5C70.11 247.39 70.25 247.17 70.33 247.19C70.57 247.24 70.78 247.39 71 247.5L70.64 247.86Z" fill="#96A29B"/>
<path d="M71.5506 250C71.4006 249.8 71.0806 249.55 71.1206 249.42C71.2406 249.03 71.5406 248.97 71.7106 249.23C71.8506 249.46 71.9106 249.74 72.0006 250C71.8506 250 71.7006 250 71.5506 250Z" fill="#96A29B"/>
<path d="M176.579 297.08C176.699 297.2 176.909 297.36 176.889 297.4C176.769 297.62 176.639 297.89 176.439 297.98C176.019 298.18 175.819 297.98 176.019 297.56C176.119 297.36 176.389 297.24 176.589 297.08H176.579Z" fill="#96A29B"/>
<path d="M344 139.45C343.8 139.6 343.55 139.92 343.42 139.88C343.03 139.76 342.97 139.46 343.23 139.29C343.46 139.15 343.74 139.09 344 139C344 139.15 344 139.3 344 139.45Z" fill="#96A29B"/>
<path d="M91 243V242H92C92.03 242.69 91.69 243.03 91 243Z" fill="#96A29B"/>
<path d="M75.9999 290V291H74.9999C74.9699 290.31 75.3099 289.97 75.9999 290Z" fill="#96A29B"/>
<path d="M226 217.45C225.8 217.6 225.55 217.92 225.42 217.88C225.03 217.76 224.97 217.46 225.23 217.29C225.46 217.15 225.74 217.09 226 217C226 217.15 226 217.3 226 217.45Z" fill="#96A29B"/>
<path d="M357 135.45C356.8 135.6 356.55 135.92 356.42 135.88C356.03 135.76 355.97 135.46 356.23 135.29C356.46 135.15 356.74 135.09 357 135C357 135.15 357 135.3 357 135.45Z" fill="#96A29B"/>
<path d="M207 178H206V177C206.69 176.97 207.03 177.31 207 178Z" fill="#96A29B"/>
<path d="M208 179C208.69 178.97 209.03 179.31 209 180C208.31 180.03 207.97 179.69 208 179Z" fill="#96A29B"/>
<path d="M210 181C210.69 180.97 211.03 181.31 211 182C210.31 182.03 209.97 181.69 210 181Z" fill="#96A29B"/>
<path d="M8.50073 237C8.61073 237.22 8.76073 237.44 8.81073 237.67C8.83073 237.75 8.61073 237.89 8.50073 238C8.39073 237.78 8.24073 237.56 8.19073 237.33C8.17073 237.25 8.39073 237.11 8.50073 237Z" fill="#96A29B"/>
<path d="M153.579 207.08C153.699 207.2 153.909 207.36 153.889 207.4C153.769 207.62 153.639 207.89 153.439 207.98C153.019 208.18 152.819 207.98 153.019 207.56C153.119 207.36 153.389 207.24 153.589 207.08H153.579Z" fill="#96A29B"/>
<path d="M156.141 256.64L156.501 256C156.611 256.11 156.831 256.25 156.811 256.33C156.761 256.57 156.611 256.78 156.501 257L156.141 256.64Z" fill="#96A29B"/>
<path d="M125 244H126C126.03 244.69 125.69 245.03 125 245V244Z" fill="#96A29B"/>
<path d="M308 116.45C307.8 116.6 307.55 116.92 307.42 116.88C307.03 116.76 306.97 116.46 307.23 116.29C307.46 116.15 307.74 116.09 308 116C308 116.15 308 116.3 308 116.45Z" fill="#96A29B"/>
<path d="M14 266.45C13.8 266.6 13.55 266.92 13.42 266.88C13.03 266.76 12.97 266.46 13.23 266.29C13.46 266.15 13.74 266.09 14 266C14 266.15 14 266.3 14 266.45Z" fill="#96A29B"/>
<path d="M311 98.9999C310.97 98.3099 311.31 97.9699 312 97.9999C312.03 98.6899 311.69 99.0299 311 98.9999Z" fill="#96A29B"/>
<path d="M312 97.9999C311.97 97.3099 312.31 96.9699 313 96.9999C313.03 97.6899 312.69 98.0299 312 97.9999Z" fill="#96A29B"/>
<path d="M92 216H91V215C91.69 214.97 92.03 215.31 92 216Z" fill="#96A29B"/>
<path d="M143.579 213.08C143.699 213.2 143.909 213.36 143.889 213.4C143.769 213.62 143.639 213.89 143.439 213.98C143.019 214.18 142.819 213.98 143.019 213.56C143.119 213.36 143.389 213.24 143.589 213.08H143.579Z" fill="#96A29B"/>
<path d="M315 95.9999C314.97 95.3099 315.31 94.9699 316 94.9999C316.03 95.6899 315.69 96.0299 315 95.9999Z" fill="#96A29B"/>
<path d="M151 262V263H150C149.97 262.31 150.31 261.97 151 262Z" fill="#96A29B"/>
<path d="M91.9999 242C91.9699 241.31 92.3099 240.97 92.9999 241C93.0299 241.69 92.6899 242.03 91.9999 242Z" fill="#96A29B"/>
<path d="M37 153V150C38.58 150.39 39.16 151.45 39 153H37Z" fill="#96A29B"/>
</g>
<defs>
<clipPath id="clip0_1146_4389">
<rect width="368.04" height="372.07" fill="white"/>
</clipPath>
</defs>
</svg>
