<svg width="587" height="263" viewBox="0 0 587 263" fill="none" xmlns="http://www.w3.org/2000/svg">
<g clip-path="url(#clip0_1193_881)">
<path fill-rule="evenodd" clip-rule="evenodd" d="M3.00019 3.895L0.500188 4.59L0.246188 133.795L-0.0078125 263H374.128H748.263L747.758 259.235C746.928 253.042 741.182 240.538 736.075 233.807C727.819 222.927 716.376 216.794 703.836 216.529C697.658 216.398 696.876 216.121 693.122 212.729C690.894 210.717 686.831 207.934 684.092 206.547C679.995 204.471 678.259 204.134 674.306 204.65C671.663 204.994 668.869 205.776 668.098 206.387C667.236 207.07 663.421 207.369 658.198 207.165C651.754 206.912 648.778 207.247 645.887 208.551L642.076 210.27L636.288 204.964C629.953 199.156 615.041 191.415 607.812 190.181C604.562 189.626 603.035 188.691 601.39 186.251L599.232 183.049L595.366 185.858C593.24 187.403 590.882 189.417 590.128 190.333C588.248 192.616 587.324 192.426 586.618 189.613C586.288 188.3 584.214 184.824 582.009 181.89C579.528 178.588 578 175.473 578 173.72C578 172.161 577.51 168.941 576.912 166.564C576.02 163.022 576.113 161.683 577.424 159.147C579.615 154.911 583.994 138.258 583.997 134.154C583.999 132.314 583.187 129.614 582.194 128.154C580.166 125.173 577.384 113.73 577.1 107.199C576.997 104.834 576.08 100.222 575.062 96.951C569.962 80.566 552.69 65.21 535.917 62.149C532.846 61.588 528.706 60.169 526.717 58.995C523.731 57.234 521.788 56.91 515.593 57.14C511.464 57.294 507.73 57.063 507.293 56.626C506.857 56.189 506.5 51.46 506.5 46.116C506.5 36.952 506.298 36.006 502.943 29.45C496.781 17.409 483.393 8.254 470.525 7.28C462.204 6.651 458.018 7.734 450 12.593C443.146 16.746 437.974 17.189 432.775 14.068C430.727 12.839 426.677 11.2 423.775 10.428C409.151 6.535 395.219 10.86 382.266 23.314L378.032 27.385L374.266 25.577C371.986 24.482 366.554 23.446 360.5 22.951C351.537 22.219 349.478 22.392 340.644 24.611C335.224 25.974 328.699 27.892 326.144 28.874C320.755 30.946 306.7 41.299 301.981 46.674C298.425 50.724 294.025 59.403 294.01 62.397C294.004 63.441 292.239 69.516 290.086 75.897C287.933 82.279 285.908 90.379 285.586 93.898C284.699 103.577 281.449 105.731 276.356 100.015C271.214 94.244 255.053 90.525 245.125 92.828C240.735 93.847 236 92.793 236 90.797C236 89.5 224.116 84.072 219.694 83.349C216.463 82.821 215.306 81.868 212.026 77.039C205.579 67.545 198.182 62.213 187.5 59.359C180.44 57.473 174.135 57.676 163.624 60.128C150.971 63.08 144.458 66.602 137.386 74.32L131.492 80.752L127.996 78.342C120.666 73.289 108.358 71.804 96.7682 74.573C94.5102 75.113 93.8772 74.817 93.1182 72.863C92.6132 71.563 91.1022 68.898 89.7602 66.941C88.1982 64.664 87.1072 61.33 86.7322 57.688C86.0602 51.183 82.4342 42.598 77.9852 36.981C72.2082 29.687 57.9532 23 48.1812 23C43.4062 23 43.2312 22.891 40.2002 18.015C36.7112 12.402 30.1922 7.331 23.2032 4.792C18.4312 3.058 7.71719 2.583 3.00019 3.895ZM376.5 25C376.16 25.55 376.359 26 376.941 26C377.523 26 378 25.55 378 25C378 24.45 377.802 24 377.559 24C377.316 24 376.84 24.45 376.5 25Z" fill="#E9E4D7"/>
<path fill-rule="evenodd" clip-rule="evenodd" d="M3.1491 0.791692C1.4801 1.25269 0.552105 2.29969 0.358105 3.94269C0.0711046 6.37069 0.169105 6.40269 7.8581 6.40269C14.5181 6.40269 16.3601 6.80369 20.5511 9.16769C25.6441 12.0397 26.8201 12.0927 25.7881 9.40369C24.9131 7.12469 17.3291 3.9527 12.6491 3.9097C10.4491 3.8887 7.9741 3.39469 7.1491 2.81169C3.9711 0.565689 18.5481 3.0637 24.5801 5.7987C31.4111 8.8957 42.8501 18.8647 43.7681 22.5197C44.3761 24.9417 45.5971 25.6047 46.5661 24.0377C47.4351 22.6307 41.3181 14.2047 36.3011 9.8967C29.6531 4.1907 18.8261 -0.123309 11.4691 0.00269053C8.2681 0.0576905 4.5241 0.412692 3.1491 0.791692ZM455.649 9.34569C452.899 10.7307 449.081 12.7727 447.165 13.8827C442.388 16.6517 440.903 16.4677 431.149 11.9027C423.416 8.28269 421.908 7.92369 414.434 7.91369C402.358 7.89769 387.207 13.7757 380.668 21.0137L377.396 24.6357L370.522 23.3057C360.086 21.2867 351.222 21.5957 340.33 24.3577C325.457 28.1297 323.393 29.0857 312.451 37.2707C298.685 47.5687 295.527 51.9307 293.172 63.9027C292.468 67.4777 291.114 71.7837 290.161 73.4717C287.269 78.5987 284.984 86.6427 284.576 93.1357C284.045 101.578 282.68 102.732 277.606 99.0297C275.43 97.4417 270.385 94.9727 266.396 93.5427C260.01 91.2547 257.827 90.9717 248.146 91.1837C242.098 91.3157 237.149 91.0717 237.149 90.6417C237.149 90.2107 235.075 88.5437 232.541 86.9367C227.927 84.0097 216.937 80.9027 211.202 80.9027C209.153 80.9027 208.149 80.4087 208.149 79.4007C208.149 77.6967 197.32 69.3467 192.397 67.2557C184.391 63.8547 167.663 63.9367 164.251 67.3937C162.775 68.8897 163.08 68.9527 168.149 68.2097C177.835 66.7887 186.578 67.4947 192.422 70.1697C197.544 72.5147 205.149 78.3067 205.149 79.8627C205.149 80.2767 202.04 80.9047 198.24 81.2577C186.441 82.3537 185.921 83.6287 197.483 83.1147C214.279 82.3677 228.798 85.3977 233.424 90.6137C235.05 92.4467 235.064 92.7287 233.59 93.9517C232.336 94.9917 231.614 95.0257 230.315 94.1047C222.604 88.6367 213.781 86.4817 201.535 87.0757C187.353 87.7637 187.308 89.3977 201.47 89.4357C214.168 89.4697 219.345 90.4627 225.033 93.9567C227.53 95.4917 228.123 96.3287 227.296 97.1557C226.469 97.9827 224.775 97.8347 220.824 96.5897C215.286 94.8437 208.69 94.4447 203.274 95.5277C198.024 96.5777 199.793 97.5557 206.115 97.0987C212.893 96.6087 218.01 97.3497 220.519 99.1837C222.121 100.356 222.067 100.76 219.721 105.172C216.517 111.198 217.764 111.297 221.402 105.305C223.714 101.496 225.395 100.192 231.902 97.1587C238.928 93.8837 240.487 93.5407 248.649 93.4747C255.567 93.4197 259.178 93.9317 264.258 95.6867C273.06 98.7297 280.149 103.278 280.149 105.881C280.149 107.995 278.701 108.605 277.664 106.927C277.332 106.391 274.268 104.401 270.855 102.507C263.66 98.5117 254.503 96.4597 246.746 97.1027C240.142 97.6507 229.856 102.475 225.639 107.002C222.47 110.404 223.104 110.201 229.869 105.644C236.848 100.943 242.182 99.6117 252.132 100.088C259.815 100.455 261.937 100.988 268.369 104.167C277.876 108.866 279.268 110.395 278.477 115.268L277.865 119.041L273.757 115.081C266.423 108.011 257.606 105.315 247.233 106.97C238.49 108.366 239.532 109.431 249.269 109.051C257.721 108.721 258.695 108.897 264.668 111.838C271.974 115.434 278.136 121.803 280.117 127.806C281.423 131.763 281.386 131.902 278.203 135.121C273.983 139.388 269.69 145.657 268.504 149.283C267.684 151.791 266.714 152.376 260.991 153.817L254.419 155.471L249.534 151.029C242.913 145.009 236.293 140.935 226.026 136.563C215.46 132.062 209.866 130.929 200.149 131.319C192.74 131.617 184.149 133.554 184.149 134.927C184.149 135.316 186.061 135.264 188.399 134.812C195.22 133.493 208.24 133.781 214.689 135.394C226.033 138.231 251.149 152.556 251.149 156.19C251.149 156.554 249.909 157.493 248.393 158.277C245.766 159.635 245.473 159.539 242.143 156.236C233.202 147.367 214.754 139.877 202.001 139.938C197.958 139.958 193.614 140.548 192.348 141.251C190.361 142.354 191.453 142.53 200.348 142.541C208.988 142.552 211.853 142.988 218.113 145.242C226.576 148.289 237.507 154.491 240.993 158.223L243.338 160.733L240.84 162.37C238.456 163.932 238.231 163.894 235.872 161.535C230.413 156.076 216.61 150.842 208.149 151.023C203.943 151.113 204.106 151.204 210.649 152.416C214.499 153.13 220.189 154.671 223.294 155.841C228.969 157.979 237.23 163.274 237.055 164.659C237.003 165.068 235.017 167.113 232.642 169.202L228.324 173.001L223.164 171.313C216.75 169.215 206.266 169.873 199.681 172.786C193.212 175.647 194.072 176.958 200.899 174.641C211.012 171.209 227.149 172.443 227.149 176.649C227.149 177.851 226.497 177.985 223.899 177.314C217.155 175.573 208.955 176.272 202.899 179.104C199.737 180.582 197.149 182.242 197.149 182.792C197.149 183.342 199.737 182.595 202.899 181.132C207.352 179.072 210.228 178.464 215.649 178.438C219.499 178.419 223.549 178.722 224.649 179.111C226.243 179.676 227.346 178.897 230.083 175.274C236.39 166.925 251.157 159.017 267.091 155.455C274.507 153.798 281.324 154.061 283.855 156.102C284.519 156.637 285.639 156.718 286.345 156.282C287.258 155.717 286.965 155.332 285.329 154.946C283.065 154.411 283.086 154.337 286.697 150.119L290.364 145.834L292.056 148.991C292.988 150.727 295.961 154.745 298.664 157.921L303.579 163.694L304.747 160.296C307.259 152.989 314.363 146.229 320.593 145.218C323.5 144.747 324.531 145.131 327.009 147.61C329.321 149.921 330.121 151.834 330.694 156.416C331.487 162.763 331.993 161.83 324.441 167.928C322.68 169.35 321.737 169.153 318.638 166.716C316.987 165.417 316.044 165.088 316.316 165.905C316.569 166.662 317.985 168.185 319.465 169.289C321.553 170.849 322.422 171.03 323.352 170.1C324.01 169.442 325.319 168.903 326.26 168.903C327.201 168.903 329.107 167.553 330.496 165.903C333.52 162.308 333.76 162.264 334.538 165.153C335.434 168.483 338.71 172.293 339.994 171.499C340.754 171.029 340.313 169.597 338.62 167.039C327.529 150.278 329.628 123.053 343.26 106.887C348.294 100.916 347.733 98.9387 342.583 104.506C335.448 112.219 330.195 125.791 329.411 138.538L328.91 146.673L326.28 145.268C324.833 144.495 322.429 143.44 320.937 142.922C317.217 141.632 311.455 133.417 310.192 127.604C308.574 120.157 308.938 115.438 311.594 109.432C312.939 106.391 313.624 103.903 313.117 103.903C311.566 103.903 309.3 108.154 307.868 113.746C307.12 116.671 306.029 119.365 305.444 119.733C304.859 120.102 303.07 122.878 301.467 125.903C297.704 133.008 297.007 143.492 299.941 148.85C301.82 152.28 304.149 154.029 304.149 152.011C304.149 151.428 303.251 149.478 302.153 147.677C299.355 143.088 299.489 133.899 302.44 127.954C304.781 123.239 307.173 121.507 307.114 124.57C307.094 125.578 306.435 127.528 305.649 128.903C303.062 133.428 304.314 142.557 308.076 146.594C310.004 148.663 309.999 148.695 307.477 151.041C306.08 152.34 304.532 154.452 304.037 155.734C302.747 159.076 301.209 158.125 296.399 151.009C293.059 146.068 292.149 143.815 292.149 140.49C292.149 135.801 294.475 128.159 297.424 123.161C299.538 119.578 299.217 118.978 296.592 121.603C294.992 123.203 294.783 123.17 293.052 121.032C292.041 119.782 290.945 117.105 290.617 115.082C290.29 113.058 289.598 110.365 289.081 109.096C288.445 107.536 288.527 106.078 289.335 104.596C290.489 102.48 290.556 102.521 291.24 105.782C291.872 108.793 292.722 111.016 295.086 115.843C296.223 118.164 298.149 118.254 298.149 115.986C298.149 114.841 297.805 113.903 297.385 113.903C295.216 113.903 293.149 105.482 293.15 96.6457C293.15 87.6137 293.241 87.2547 297.149 80.9027C299.348 77.3277 301.134 73.5027 301.117 72.4027C301.086 70.4297 301.066 70.4287 299.617 72.3437C298.81 73.4117 298.149 74.9007 298.149 75.6527C298.149 76.4047 296.79 78.7117 295.128 80.7787C292.659 83.8517 291.992 85.8017 291.472 91.4697C290.792 98.8827 288.618 103.772 286.807 101.961C286.081 101.235 286.432 100.012 287.956 97.9497C290.542 94.4527 290.717 93.4707 288.611 94.2787C284.727 95.7687 286.179 85.4337 291.121 76.4027C292.626 73.6527 294.418 68.1157 295.104 64.0977C296.064 58.4687 297.158 55.7147 299.87 52.0977C309.564 39.1667 319.546 32.1247 335.13 27.2227C344.605 24.2427 346.85 23.9137 357.745 23.9087C371.343 23.9017 377.05 25.4877 375.036 28.7117C374.132 30.1607 372.096 30.4027 360.815 30.4027C346.357 30.4027 337.176 32.4587 328.23 37.7007C323.128 40.6907 324.147 41.7767 329.806 39.3797C344.222 33.2757 358.023 30.9047 367.585 32.8897C372.98 34.0097 373.538 33.9587 374.487 32.2557C377.047 27.6647 385.809 19.8047 391.954 16.5867C407.609 8.39069 417.377 8.11069 433.149 15.4047C444.153 20.4937 447.149 21.4707 447.149 19.9697C447.149 19.3827 446.699 18.9027 446.149 18.9027C443.403 18.9027 445.905 16.7927 452.807 13.2897C460.036 9.62069 460.974 9.40269 469.557 9.40269C477.652 9.40269 479.307 9.73069 484.649 12.3957C492.197 16.1617 500.334 24.3047 503.736 31.4947C506.468 37.2707 507.807 38.0557 506.683 33.2247C505.484 28.0617 495.167 16.7807 487.185 11.9027C479.969 7.49269 479.631 7.39669 470.236 7.11569C461.656 6.85869 460.124 7.09269 455.649 9.34569ZM1.3991 8.56469C-1.5909 9.77169 0.593104 10.8517 5.8991 10.7917C9.0611 10.7557 12.9491 11.2287 14.5381 11.8427C16.1261 12.4567 17.6711 12.7137 17.9711 12.4137C20.3261 10.0587 5.9641 6.72269 1.3991 8.56469ZM0.859105 14.5257C-0.664895 16.0497 0.369104 16.3997 6.1501 16.3147C9.4511 16.2657 12.1561 15.8157 12.1621 15.3147C12.1741 14.2247 1.8791 13.5057 0.859105 14.5257ZM404.383 17.3087C398.598 20.0737 392.149 24.6527 392.149 25.9957C392.149 26.4657 394.48 25.4767 397.329 23.7967C406.347 18.4797 410.017 17.3947 418.649 17.4987C426.685 17.5947 430.479 18.8707 442.403 25.4877C445.332 27.1127 447.149 26.6867 447.149 24.3747C447.149 23.5477 446.544 23.1977 445.684 23.5277C444.879 23.8367 442.967 23.2057 441.434 22.1267C434.016 16.8997 429.895 15.5857 419.649 15.1837C410.571 14.8267 409.163 15.0227 404.383 17.3087ZM457.992 15.8097C454.705 16.8867 449.149 20.1167 449.149 20.9517C449.149 22.6367 450.641 22.5447 453.83 20.6627C458.278 18.0387 469.479 17.2067 477.616 18.8957C482.656 19.9427 484.386 20.9407 489.339 25.6657C495.786 31.8147 497.091 31.1087 491.619 24.4307C486.758 18.4987 480.3 15.8717 469.297 15.3497C464.541 15.1237 459.453 15.3307 457.992 15.8097ZM2.3991 19.9337C-1.0799 21.3317 -0.396895 22.9887 3.1491 21.7527C4.7991 21.1777 6.1491 20.3007 6.1491 19.8047C6.1491 18.7157 5.3621 18.7427 2.3991 19.9337ZM48.1491 22.7687C48.1491 23.4747 50.1941 23.9027 53.5661 23.9027C62.8391 23.9027 68.4291 27.3117 78.2441 38.9527C84.4051 46.2607 85.1491 47.8837 85.1491 54.0237V59.2767L82.3991 56.7507C74.4211 49.4227 65.3911 46.4067 45.3171 44.3687C39.6291 43.7917 38.6381 43.3427 35.5781 39.9557C29.9841 33.7637 16.7871 28.9027 5.5721 28.9027C-2.1459 28.9027 -0.00189495 30.5947 8.4741 31.1927C13.0181 31.5137 19.2561 32.7197 22.3371 33.8717C28.1141 36.0337 36.1491 41.2317 36.1491 42.8087C36.1491 43.2997 34.0231 43.8707 31.4241 44.0767C27.7911 44.3657 26.2661 44.0197 24.8231 42.5767C23.7911 41.5447 21.0371 39.8557 18.7021 38.8227C13.8511 36.6777 0.149105 35.0467 0.149105 36.6157C0.149105 37.1657 3.4121 37.9157 7.3991 38.2817C14.7181 38.9547 23.2021 42.2237 23.9371 44.6527C24.4881 46.4717 22.3751 46.1907 17.4001 43.7827C12.6751 41.4947 0.149105 39.9327 0.149105 41.6317C0.149105 42.1827 3.2041 42.8527 6.9371 43.1197C10.6701 43.3867 14.7861 44.1727 16.0831 44.8677C18.3661 46.0897 18.2701 46.1917 13.0451 48.0927C10.0771 49.1717 6.0991 50.6197 4.2051 51.3097C2.3111 52.0007 0.586105 53.0907 0.372105 53.7337C-0.188895 55.4167 1.0631 55.2037 7.7881 52.4717C11.0781 51.1347 17.5421 49.2757 22.1511 48.3417C37.3091 45.2707 61.4151 47.8847 73.0361 53.8597C77.8681 56.3437 88.4701 66.0687 91.2501 70.5657L93.4851 74.1827L90.8171 76.1257C86.5031 79.2687 87.7571 80.0097 92.8991 77.3557C103.062 72.1127 115.454 71.7667 124.124 76.4857C129.595 79.4627 131.879 79.1577 128.041 75.9617C123.664 72.3177 116.6 70.5957 108.77 71.2637C104.853 71.5967 100.222 72.1487 98.4771 72.4887C95.6251 73.0447 95.1351 72.7697 93.6101 69.7547C92.6781 67.9107 91.1031 65.5027 90.1101 64.4027C89.0191 63.1947 87.9191 59.5987 87.3311 55.3187C86.7971 51.4227 85.4581 46.4727 84.3571 44.3187C81.4581 38.6487 70.5651 27.1557 65.7681 24.7057C61.0591 22.3017 48.1491 20.8817 48.1491 22.7687ZM459.803 23.0677C455.018 23.7557 447.149 28.0107 447.149 29.9097C447.149 30.4477 449.935 29.4287 453.34 27.6447C458.414 24.9877 460.654 24.4057 465.756 24.4207C469.179 24.4307 471.797 24.1427 471.574 23.7807C470.898 22.6887 464.947 22.3277 459.803 23.0677ZM397.903 29.2297C393.807 30.5127 382.149 38.6017 382.149 40.1617C382.149 40.6957 383.387 40.3137 384.899 39.3117C394.954 32.6547 398.706 30.9027 402.906 30.9027C405.312 30.9027 408.151 31.3687 409.215 31.9377C410.499 32.6257 411.149 32.6337 411.149 31.9637C411.149 30.6577 405.781 27.8797 403.449 27.9797C402.459 28.0217 399.963 28.5847 397.903 29.2297ZM461.048 29.8857C455.523 30.5977 447.149 34.3977 447.149 36.1937C447.149 36.7017 447.712 36.8697 448.399 36.5687C458.474 32.1537 462.323 30.9467 466.399 30.9267C469.012 30.9137 471.149 30.4527 471.149 29.9027C471.149 28.8057 469.458 28.8037 461.048 29.8857ZM458.89 36.3317C454.849 37.7737 452.149 39.6377 452.149 40.9837C452.149 41.4437 454.512 40.6077 457.399 39.1267C461.385 37.0817 463.919 36.4767 467.923 36.6117C471.017 36.7157 472.956 36.3997 472.614 35.8457C471.765 34.4717 463.258 34.7727 458.89 36.3317ZM370.812 37.3377C370.37 38.4907 368.313 38.6897 360.328 38.3547C353.232 38.0567 348.858 38.3827 345.021 39.4957C337.654 41.6307 331.295 44.7607 330.212 46.7847C329.508 48.0997 330.61 47.8477 335.213 45.6387C341.298 42.7177 352.239 39.9507 357.823 39.9197C359.568 39.9107 363.279 40.4297 366.069 41.0737C368.858 41.7177 371.331 42.0537 371.564 41.8217C371.796 41.5887 372.297 40.1617 372.676 38.6507C373.391 35.8027 371.825 34.6997 370.812 37.3377ZM395.649 36.8317C391.354 37.8677 387.997 39.8477 388.674 40.9437C389.019 41.5007 390.713 41.2757 392.825 40.3937C394.787 39.5737 398.868 38.9027 401.894 38.9027C406.669 38.9027 407.23 38.7047 406.149 37.4027C404.845 35.8317 400.722 35.6067 395.649 36.8317ZM498.583 42.3137C498.952 44.7727 498.829 46.9827 498.306 47.3057C497.789 47.6247 495.242 46.9467 492.645 45.7977C487.498 43.5207 481.094 43.7597 477.536 46.3617C475.138 48.1147 476.315 49.4197 478.998 47.9837C482.537 46.0897 488.914 46.7757 495.421 49.7497C502.191 52.8447 506.34 56.4547 508.351 60.9967C509.878 64.4467 511.404 64.8307 510.962 61.6527C510.674 59.5827 511.089 59.3797 516.151 59.1107C520.384 58.8847 524.446 59.7217 533.77 62.7397C551.091 68.3467 560.496 74.8477 570.398 88.0577C572.979 91.5007 574.204 94.4927 575.106 99.5577C576.824 109.198 577.215 110.413 578.128 108.937C579.304 107.034 575.682 92.4817 572.839 87.6897C569.592 82.2157 560.663 72.9027 558.662 72.9027C557.819 72.9027 556.346 71.9677 555.389 70.8247C552.709 67.6227 546.408 64.2477 535.554 60.1997C527.301 57.1217 524.231 56.4767 517.149 56.3327C508.937 56.1657 508.527 56.0437 505.039 52.7307C502.011 49.8537 501.314 48.3827 500.717 43.6017C500.326 40.4677 499.536 37.9027 498.963 37.9027C498.299 37.9027 498.161 39.4987 498.583 42.3137ZM451.649 43.9297C449.999 44.3827 445.949 45.5007 442.649 46.4167C433.065 49.0737 421.701 55.5307 415.007 62.1217C407.963 69.0577 407.858 71.3187 414.885 64.7457C426.11 54.2467 443.7 46.9767 459.899 46.1407C466.869 45.7817 469.149 45.3237 469.149 44.2837C469.149 43.2267 467.448 42.9267 461.899 43.0047C457.911 43.0617 453.299 43.4777 451.649 43.9297ZM505.952 46.4637C505.482 50.4907 506.607 52.0527 507.522 48.6417C508.394 45.3857 508.28 42.9027 507.258 42.9027C506.769 42.9027 506.181 44.5047 505.952 46.4637ZM374.159 46.3907C373.192 47.5567 372.555 47.6547 371.523 46.7987C370.637 46.0627 366.761 45.8117 360.406 46.0777C352.34 46.4157 349.609 46.9737 344.649 49.2977C341.349 50.8427 335.884 52.7037 332.505 53.4307C327.092 54.5967 318.149 58.2697 318.149 59.3267C318.149 59.5377 320.424 58.8457 323.205 57.7897C328.54 55.7617 335.791 54.6757 342.959 54.8307C347.205 54.9217 352.95 57.2617 358.457 61.1427C361.655 63.3967 363.514 62.6917 360.576 60.3387C357.545 57.9117 346.853 52.9047 344.699 52.9037C341.228 52.9017 344.395 51.1227 350.793 49.4797C357.261 47.8197 363.79 47.4807 369.05 48.5327C371.736 49.0697 372.091 49.4757 371.457 51.2827C371.048 52.4487 370.693 54.9217 370.669 56.7777C370.63 59.7567 370.158 60.3447 366.637 61.7917C356.261 66.0577 344.792 74.8247 341.657 80.8877C340.787 82.5697 342.776 81.0767 346.957 76.9077C354.83 69.0577 364.335 63.9737 377.132 60.7677C386.469 58.4287 395.962 58.6037 405.896 61.2977C408.929 62.1197 411.381 62.3357 411.707 61.8097C412.519 60.4957 407.979 59.0067 398.728 57.5517C392.002 56.4947 390.984 56.1017 392.649 55.2087C393.749 54.6177 396.562 53.8177 398.899 53.4307C401.236 53.0437 403.149 52.2857 403.149 51.7477C403.149 51.2087 402.361 51.0067 401.399 51.2977C400.437 51.5897 397.704 52.2547 395.327 52.7757C392.951 53.2957 390.251 54.3827 389.327 55.1907C387.592 56.7087 381.149 58.0587 381.149 56.9037C381.149 55.4767 385.94 51.8817 390.661 49.7647C394.015 48.2607 397.695 47.5077 401.894 47.4657C408.387 47.3997 410.037 46.4147 405.542 45.2867C402.398 44.4977 392.978 46.4647 388.149 48.9177C386.224 49.8957 382.943 52.5427 380.859 54.7997C377.291 58.6617 373.069 60.2007 371.777 58.1097C371.507 57.6737 372.367 54.6597 373.687 51.4117C376.186 45.2627 376.325 43.7807 374.159 46.3907ZM310.643 51.2477C304.444 57.7167 304.975 58.9777 311.341 52.9057C314.197 50.1817 316.219 47.6397 315.835 47.2557C315.451 46.8717 313.115 48.6677 310.643 51.2477ZM449.649 52.9817C445.249 54.0397 439.849 55.6707 437.649 56.6057C428.661 60.4287 416.149 69.6457 416.149 72.4437C416.149 73.0757 417.871 71.9757 419.976 69.9977C425.711 64.6097 436.87 59.1177 447.854 56.2777C456.147 54.1327 458.979 53.8377 466.321 54.3537C471.283 54.7017 475.238 54.5667 475.566 54.0377C477.394 51.0797 460.434 50.3887 449.649 52.9817ZM479.801 52.6107C477.669 53.7297 477.239 54.3927 478.092 55.2457C478.946 56.0997 479.411 56.0967 479.943 55.2357C481.07 53.4117 487.685 52.5947 491.4 53.8207C493.26 54.4347 496.69 56.7707 499.024 59.0137C502.676 62.5217 503.178 63.4947 502.628 65.9967C501.919 69.2287 503.126 69.7837 505.563 67.3457C506.973 65.9357 506.962 65.5337 505.447 63.0957C502.561 58.4497 500.933 56.9257 495.594 53.8707C489.807 50.5607 484.51 50.1377 479.801 52.6107ZM19.1491 54.5117C10.2781 57.1237 1.0531 61.6917 0.342105 63.8247C0.114105 64.5087 1.6651 63.9997 3.7881 62.6947C12.4601 57.3647 22.7911 54.3777 36.1491 53.3377C40.8241 52.9737 44.8361 52.5017 45.0661 52.2897C45.2951 52.0767 41.4701 51.9267 36.5661 51.9557C30.1071 51.9947 25.3051 52.6987 19.1491 54.5117ZM47.6591 53.9187C48.0051 54.4777 48.7061 54.6767 49.2181 54.3597C50.6051 53.5027 50.3471 52.9027 48.5901 52.9027C47.7331 52.9027 47.3141 53.3597 47.6591 53.9187ZM20.9101 59.3197C16.1041 60.5447 11.8661 61.8527 11.4931 62.2247C10.4081 63.3107 12.3821 63.0327 20.7721 60.9177C25.1051 59.8267 30.7601 58.9267 33.3401 58.9177C35.9201 58.9097 38.3091 58.4527 38.6491 57.9027C39.7061 56.1917 30.2031 56.9507 20.9101 59.3197ZM163.149 57.9887C154.742 59.6097 142.899 66.3257 136.765 72.9507C130.807 79.3857 130.227 80.6117 132.692 81.5577C134.651 82.3087 136.007 81.0507 134.345 80.0237C132.235 78.7197 144.127 68.3147 152.09 64.4977C161.443 60.0157 173.486 58.1357 183.204 59.6397C195.2 61.4967 203.31 66.3297 212.168 76.9027L214.262 79.4027L213.07 76.9647C210.964 72.6587 202.831 64.7757 197.936 62.2947C188.132 57.3267 175.011 55.7027 163.149 57.9887ZM40.6491 58.9027C40.3091 59.4527 40.5081 59.9027 41.0901 59.9027C41.6721 59.9027 42.1491 59.4527 42.1491 58.9027C42.1491 58.3527 41.9511 57.9027 41.7081 57.9027C41.4651 57.9027 40.9891 58.3527 40.6491 58.9027ZM323.709 60.9247C320.993 61.9857 318.068 63.5657 317.209 64.4367C316.075 65.5877 317.013 65.4167 320.649 63.8117C324.179 62.2537 328.342 61.4677 334.807 61.1387C343.064 60.7177 344.514 60.9237 349.538 63.2237C352.603 64.6267 355.349 65.3887 355.64 64.9167C355.932 64.4447 353.636 62.8987 350.539 61.4807C343.329 58.1797 331.374 57.9317 323.709 60.9247ZM458.649 59.9197C454.249 60.3207 448.098 61.5587 444.981 62.6707C438.886 64.8457 430.149 70.3527 430.149 72.0187C430.149 72.5797 431.502 72.0757 433.155 70.8977C442.401 64.3147 460.521 60.8317 475.348 62.7877C485.689 64.1527 498.752 70.3657 503.443 76.1527C505.116 78.2157 506.858 79.9027 507.316 79.9027C509.095 79.9027 507.982 77.6767 504.093 73.4577C498.085 66.9397 485.955 61.2717 475.175 59.9457C470.515 59.3717 466.69 58.9677 466.675 59.0467C466.661 59.1257 463.049 59.5187 458.649 59.9197ZM42.1491 61.9027C42.1491 62.4527 43.3041 62.9027 44.7151 62.9027C46.1261 62.9027 48.1511 63.3687 49.2151 63.9377C50.5621 64.6587 51.1491 64.6507 51.1491 63.9127C51.1491 62.6957 46.9411 60.9027 44.0841 60.9027C43.0201 60.9027 42.1491 61.3527 42.1491 61.9027ZM302.39 62.8887C301.17 64.8417 300.592 70.7927 301.732 69.6527C302.053 69.3317 302.269 68.8017 302.212 68.4757C302.155 68.1487 302.793 66.5587 303.629 64.9417C304.465 63.3247 305.149 61.7547 305.149 61.4527C305.149 60.2027 303.546 61.0377 302.39 62.8887ZM388.149 62.6007C374.916 64.3237 367.672 66.8807 359.939 72.5567C354.23 76.7477 354.098 78.2467 359.782 74.3507C372.213 65.8297 387.58 63.1697 405.026 66.5187C409.367 67.3517 408.954 64.8357 404.581 63.8017C400.689 62.8807 391.276 62.1927 388.149 62.6007ZM512.525 64.1017C511.773 65.3197 519.184 66.1937 521.465 65.1557C523.302 64.3197 522.8 64.1017 518.303 63.7827C515.363 63.5737 512.763 63.7177 512.525 64.1017ZM56.1491 64.2347C56.1491 64.4167 58.4551 66.0597 61.2721 67.8857C64.9641 70.2777 66.9901 72.4907 68.5221 75.8037C70.4201 79.9077 74.1491 82.6537 74.1491 79.9467C74.1491 79.3727 73.5231 78.9027 72.7571 78.9027C71.9921 78.9027 71.0921 77.8127 70.7581 76.4797C69.8681 72.9357 65.4531 68.0987 61.0631 65.8587C57.3191 63.9487 56.1491 63.5617 56.1491 64.2347ZM459.149 67.1147C449.981 68.7397 451.333 69.7587 461.886 69.1777C470.894 68.6807 472.684 68.8947 480.597 71.4147C494.647 75.8887 503.532 84.2597 509.664 98.7987C513.758 108.505 515.022 112.937 516.682 123.403L517.951 131.403L518.05 125.903C518.163 119.604 516.165 109.131 513.538 102.251C512.268 98.9257 512.077 97.4267 512.888 97.1567C513.52 96.9457 515.619 95.5157 517.553 93.9797C522.131 90.3407 529.163 88.3047 531.967 89.8057C533.095 90.4087 535.06 90.9147 536.333 90.9287C537.607 90.9427 541.687 91.9897 545.399 93.2547C549.111 94.5197 552.149 95.3877 552.149 95.1827C552.149 94.1407 541.032 89.8407 536.899 89.2847C534.287 88.9327 532.149 88.2527 532.149 87.7737C532.149 86.1317 524.07 86.9027 520.109 88.9227C517.931 90.0347 516.149 91.3117 516.149 91.7627C516.149 92.4537 514.053 93.7617 509.76 95.7507C509.271 95.9767 509.181 95.6597 509.56 95.0467C510.573 93.4067 505.797 85.8317 500.101 80.0457C494.295 74.1477 485.082 69.4197 475.395 67.3667C467.818 65.7617 466.87 65.7467 459.149 67.1147ZM157.223 67.7797C153.595 68.7937 153.198 71.1707 156.801 70.3077C160.39 69.4487 161.149 69.0187 161.149 67.8437C161.149 66.8007 160.749 66.7947 157.223 67.7797ZM326.521 68.7407C320.768 70.7287 316.149 73.4697 316.149 74.8957C316.149 75.4167 317.684 74.8007 319.561 73.5277C321.437 72.2537 325.149 70.6257 327.811 69.9097C332.745 68.5817 335.78 66.8747 333.099 66.9357C332.301 66.9537 329.341 67.7657 326.521 68.7407ZM20.6411 70.4047C10.2141 71.9617 0.149105 75.4167 0.149105 77.4387C0.149105 78.5227 1.2031 78.3537 4.8991 76.6787C8.6461 74.9817 11.6561 74.5137 19.1491 74.4647C24.3741 74.4307 29.9451 74.8037 31.5291 75.2937C33.8111 75.9997 34.3141 75.8957 33.9521 74.7937C33.6911 74.0017 31.5881 73.1817 29.0711 72.8907C24.8881 72.4067 24.8031 72.3367 27.5041 71.5957C32.3991 70.2517 50.0891 73.6717 53.3411 76.5897C54.2721 77.4247 55.5881 77.9227 56.2651 77.6977C58.4661 76.9637 51.7841 73.1207 45.6101 71.5687C36.2971 69.2277 30.3741 68.9517 20.6411 70.4047ZM514.149 70.9027C514.149 71.4527 516.062 71.9087 518.399 71.9167C520.736 71.9237 523.774 72.1537 525.149 72.4277C527.356 72.8657 527.297 72.7527 524.649 71.4587C521.217 69.7817 514.149 69.4077 514.149 70.9027ZM539.364 73.4027C541.387 74.7777 543.629 75.9007 544.346 75.8977C545.805 75.8917 538.21 70.9827 536.667 70.9337C536.127 70.9167 537.34 72.0277 539.364 73.4027ZM145.349 73.1027C143.437 75.0147 143.959 76.0377 146.149 74.6707C148.169 73.4087 148.822 71.9027 147.349 71.9027C146.909 71.9027 146.009 72.4427 145.349 73.1027ZM383.835 73.8597C380.088 74.8707 376.713 76.0247 376.335 76.4237C375.958 76.8237 376.549 76.9047 377.649 76.6027C389.121 73.4567 402.649 73.6357 402.649 76.9347C402.649 78.0537 400.746 78.5447 394.649 78.9987C390.249 79.3267 385.349 80.1267 383.76 80.7767C379.226 82.6317 381.214 82.9917 386.696 81.3077C391.782 79.7447 398.454 80.0807 400.787 82.0177C402.336 83.3027 404.927 78.4547 404.396 75.2667C403.762 71.4667 394.949 70.8637 383.835 73.8597ZM520.149 76.9027C520.149 77.4527 520.808 77.9027 521.614 77.9027C522.42 77.9027 525.149 78.6057 527.679 79.4647C534.071 81.6347 535.472 80.7447 529.834 78.0947C524.941 75.7947 520.149 75.2047 520.149 76.9027ZM6.6491 78.4637C3.8991 79.2067 1.3121 79.8347 0.899105 79.8587C0.486105 79.8827 0.149105 80.5307 0.149105 81.2977C0.149105 82.4297 1.3301 82.3197 6.3991 80.7167C10.6581 79.3697 14.1621 78.9107 17.3991 79.2747C20.1161 79.5797 22.1491 79.4007 22.1491 78.8557C22.1491 78.3317 21.3611 77.8567 20.3991 77.8017C19.4371 77.7457 17.0741 77.5677 15.1491 77.4067C13.2241 77.2447 9.3991 77.7207 6.6491 78.4637ZM137.865 79.8067C136.921 81.4047 136.151 83.0917 136.154 83.5567C136.16 84.5687 141.061 78.7337 141.113 77.6527C141.195 75.9477 139.467 77.0937 137.865 79.8067ZM101.399 79.0217C99.6121 79.5377 98.1491 80.0817 98.1491 80.2307C98.1491 80.3787 102.832 80.4787 108.557 80.4517C118.755 80.4037 119.059 80.4687 123.667 83.7097C128.876 87.3737 130.75 87.2357 127.193 83.4497C122.698 78.6647 110.116 76.5047 101.399 79.0217ZM60.1491 79.7217C60.1491 80.9297 62.0461 82.3387 62.7401 81.6457C62.9911 81.3937 62.5111 80.6187 61.6731 79.9227C60.7231 79.1337 60.1491 79.0577 60.1491 79.7217ZM10.6491 83.5497C5.41311 84.1897 0.149105 85.9457 0.149105 87.0517C0.149105 87.7397 1.1281 87.8417 2.8991 87.3387C4.4121 86.9087 8.1241 86.2977 11.1491 85.9807C14.1741 85.6627 16.5601 84.9527 16.4521 84.4027C16.2231 83.2437 14.8301 83.0387 10.6491 83.5497ZM56.2541 84.9067C51.6361 85.9807 47.6241 87.0947 47.3371 87.3817C46.0281 88.6907 48.2371 88.7087 54.3031 87.4397C72.2941 83.6757 84.9471 84.6047 96.2221 90.5177C105.333 95.2957 116.3 105.559 120.699 113.425C124.159 119.612 124.214 119.875 122.579 122.37L120.894 124.94L117.55 117.172C111.669 103.508 98.3001 92.9777 83.5901 90.4237C79.4951 89.7117 73.7831 89.3417 70.8961 89.5987C65.8131 90.0537 60.3501 92.4377 61.5791 93.6657C61.9111 93.9977 62.7151 93.7367 63.3661 93.0857C65.1361 91.3157 80.3251 91.6077 86.9951 93.5417C98.4111 96.8507 110.405 107.193 116.376 118.877L120.102 126.17L117.34 130.286C114.776 134.107 114.17 134.447 108.902 135.017C101.791 135.786 92.9081 140.059 89.4751 144.362L86.8531 147.647L81.5261 145.775C78.5961 144.746 75.5241 143.903 74.7001 143.903C73.8751 143.903 72.5491 142.665 71.7531 141.153C69.6481 137.153 61.3781 129.476 55.9571 126.488C50.9251 123.716 50.1491 123.473 50.1491 124.672C50.1491 125.095 52.9431 126.977 56.3581 128.855C62.3051 132.124 71.1491 139.845 71.1491 141.767C71.1491 143.229 64.0141 143.716 63.4681 142.292C63.2071 141.613 62.2911 140.788 61.4301 140.457C60.1351 139.96 60.0821 140.117 61.1201 141.368C62.1441 142.602 62.0801 142.992 60.7671 143.496C57.4651 144.763 60.4911 145.903 67.1561 145.903C72.3731 145.903 76.1561 146.667 82.7451 149.051C87.5301 150.783 92.2411 152.995 93.2141 153.968C94.1871 154.941 95.2011 155.517 95.4691 155.25C97.0701 153.648 115.739 166.093 118.335 170.493C119.441 172.368 120.66 173.903 121.042 173.903C121.425 173.903 121.846 170.96 121.979 167.363C122.232 160.524 125.723 149.105 129.425 143.014C130.834 140.694 131.05 139.769 130.11 140.083C129.354 140.335 127.954 141.86 127 143.472C124.725 147.314 120.149 161.33 120.149 164.455C120.149 165.801 119.861 166.903 119.508 166.903C119.155 166.903 116.745 165.285 114.152 163.307L109.437 159.712L110.666 153.82C114.083 137.447 121.09 125.095 133.937 112.795C139.045 107.904 142.798 103.903 142.277 103.903C140.692 103.903 131.528 111.562 129.199 114.833C127.997 116.522 126.645 117.903 126.195 117.903C125.745 117.903 124.665 116.44 123.794 114.653C118.798 104.394 107.672 93.4337 96.5061 87.7727C88.2001 83.5607 87.9611 83.5067 76.3751 83.2327C67.4941 83.0217 62.6121 83.4287 56.2541 84.9067ZM509.785 83.6827C509.447 84.2287 509.841 85.2317 510.66 85.9117C512.286 87.2617 512.625 86.2027 511.259 84.0457C510.736 83.2217 510.158 83.0787 509.785 83.6827ZM554.149 83.5757C554.149 83.9847 556.399 86.4657 559.149 89.0887C564.778 94.4577 565.697 94.2357 561.071 88.6237C558.047 84.9557 554.149 82.1127 554.149 83.5757ZM100.738 85.7587C100.447 86.2297 103.683 86.9077 107.929 87.2657C118.018 88.1157 124.67 91.2977 128.399 97.0557C130.732 100.659 131.149 100.95 131.149 98.9717C131.149 95.1857 123.553 88.3967 117.21 86.5137C111.416 84.7927 101.613 84.3437 100.738 85.7587ZM130.149 88.7617C130.149 89.8497 129.84 91.5637 129.462 92.5707C128.857 94.1837 128.977 94.2387 130.462 93.0307C132.325 91.5147 132.709 88.3667 131.149 87.4027C130.599 87.0627 130.149 87.6747 130.149 88.7617ZM38.1491 90.6297C28.1811 96.2277 26.2101 97.9347 22.9801 103.765L19.7121 109.664L13.8041 110.281C5.9621 111.101 0.149105 112.912 0.149105 114.537C0.149105 115.556 0.762105 115.62 2.8691 114.82C6.2261 113.543 27.5011 111.994 33.3531 112.599C55.7061 114.913 69.5581 122.865 77.0341 137.675C78.7231 141.02 80.4831 143.991 80.9451 144.277C82.0671 144.971 91.3471 140.617 95.5041 137.446C99.3411 134.519 104.184 126.224 104.073 122.768C104.003 120.604 103.897 120.657 102.821 123.403C99.7731 131.176 96.1061 135.522 89.0311 139.744C85.2271 142.014 81.6601 142.539 80.6921 140.972C80.3751 140.46 80.5741 139.759 81.1331 139.413C82.7101 138.438 82.3301 136.62 80.6811 137.252C77.8581 138.336 77.9191 135.661 80.7721 133.279L83.6491 130.877L80.9031 132.049C78.5891 133.036 77.8421 132.935 76.1531 131.407C73.5951 129.092 73.6071 127.903 76.1891 127.903C82.1571 127.903 90.1371 120.538 90.1451 115.021C90.1501 111.975 86.8221 106.574 83.6671 104.506C80.1761 102.219 73.6251 102.427 71.1491 104.903C67.5131 108.539 68.9981 115.146 73.7181 116.331C76.8371 117.114 79.1491 115.508 79.1491 112.558V110.458L77.6851 112.549C76.6431 114.036 75.4891 114.499 73.6851 114.155C71.5721 113.751 71.1491 113.112 71.1491 110.322C71.1491 106.393 73.2141 104.903 78.6601 104.903C83.4751 104.903 88.1491 109.346 88.1491 113.922C88.1491 124.078 75.9401 129.692 68.8451 122.798C64.9451 119.009 51.0771 112.235 45.3431 111.318C43.0361 110.949 41.1491 110.225 41.1491 109.709C41.1491 108.233 43.2081 104.613 45.4451 102.157C46.5701 100.922 47.2021 99.6217 46.8491 99.2697C45.9101 98.3307 40.2291 104.735 39.5301 107.52C38.7901 110.468 34.1491 110.99 34.1491 108.126C34.1491 106.143 36.6231 102.065 38.9861 100.153C40.3711 99.0327 40.3721 98.9027 38.9951 98.9027C36.7841 98.9027 34.2091 102.102 33.0541 106.285C32.0601 109.884 32.0261 109.903 26.5451 109.903H21.0361L22.8421 106.834C26.4491 100.707 30.4711 96.7677 36.0031 93.9457C39.1081 92.3607 42.5491 90.3677 43.6491 89.5157C46.8811 87.0117 43.2991 87.7377 38.1491 90.6297ZM4.3991 91.5647C2.0611 92.3927 0.149105 93.6407 0.149105 94.3387C0.149105 95.2717 1.7381 95.0507 6.1491 93.5057C11.9761 91.4637 13.9581 89.8207 10.3991 89.9817C9.43611 90.0247 6.7371 90.7377 4.3991 91.5647ZM373.149 90.9027C372.324 91.4357 370.637 91.8787 369.399 91.8877C368.161 91.8957 367.149 92.4087 367.149 93.0277C367.149 93.7847 368.212 93.9067 370.399 93.3997C373.228 92.7437 375.895 92.3307 379.649 91.9687C381.141 91.8247 377.889 89.9337 376.149 89.9337C375.324 89.9337 373.974 90.3697 373.149 90.9027ZM534.149 95.7627C534.149 96.2357 536.511 96.8727 539.399 97.1767C542.287 97.4817 546.851 98.6817 549.543 99.8427C553.081 101.37 554.095 101.543 553.202 100.467C550.388 97.0757 534.149 93.0667 534.149 95.7627ZM56.4391 97.8677C53.4291 99.7027 48.1211 107.903 49.9431 107.903C50.4031 107.903 51.5371 106.313 52.4641 104.369C53.3901 102.426 55.7241 99.9057 57.6491 98.7707C59.5741 97.6347 61.1491 96.5247 61.1491 96.3037C61.1491 95.4487 59.5191 95.9897 56.4391 97.8677ZM565.149 97.4527C565.149 97.7547 565.833 99.3247 566.669 100.942C567.505 102.559 568.143 104.149 568.086 104.476C568.029 104.802 568.245 105.332 568.566 105.653C569.781 106.868 569.024 100.323 567.757 98.6527C566.464 96.9487 565.149 96.3437 565.149 97.4527ZM3.3991 99.0107C1.5521 99.5497 0.149105 100.624 0.149105 101.499C0.149105 102.652 0.713105 102.848 2.3991 102.281C3.6371 101.865 5.7741 101.458 7.1491 101.376C8.5541 101.293 9.64911 100.615 9.64911 99.8287C9.64911 98.0667 7.5641 97.7937 3.3991 99.0107ZM69.1391 100.153C65.0421 102.942 61.7631 107.251 62.3701 109.049C62.6511 109.884 63.4831 109.139 64.5361 107.109C69.2981 97.9347 82.9591 97.5437 89.7051 106.388C92.8491 110.509 92.8251 114.909 89.6221 121.79C87.7401 125.833 87.5311 126.831 88.7861 125.79C91.3901 123.631 93.1491 118.448 93.1491 112.935C93.1491 108.389 92.7591 107.513 89.1091 103.863C86.8871 101.641 83.9331 99.3907 82.5441 98.8627C78.2151 97.2167 72.6681 97.7507 69.1391 100.153ZM150.149 99.4027C148.547 100.319 148.209 100.845 149.208 100.868C150.065 100.887 151.64 100.242 152.708 99.4347C155.194 97.5547 153.421 97.5327 150.149 99.4027ZM283.333 104.653C282.846 105.616 281.914 109.103 281.264 112.403C279.798 119.837 281.462 128.152 284.532 128.74C286.174 129.055 286.303 128.735 285.542 126.252C284.444 122.669 284.457 110.457 285.563 106.153C286.478 102.597 284.909 101.542 283.333 104.653ZM536.357 103.411C537.308 104.407 550.541 108.835 551.054 108.328C551.655 107.732 543.177 104.214 539.149 103.388C537.224 102.993 535.968 103.003 536.357 103.411ZM7.7121 105.012C2.2901 105.803 -0.887895 107.2 0.219105 108.306C1.2301 109.317 15.1491 106.404 15.1491 105.182C15.1491 104.478 14.8111 103.958 14.3991 104.025C13.9871 104.092 10.9771 104.536 7.7121 105.012ZM519.274 107.519C519.48 108.132 522.081 111.282 525.054 114.519C528.784 118.58 529.972 119.473 528.886 117.403C527.315 114.406 518.564 105.407 519.274 107.519ZM569.181 108.403C569.164 109.503 570.95 113.328 573.149 116.903C577.057 123.255 577.148 123.614 577.148 132.646C577.149 141.482 575.082 149.903 572.913 149.903C572.493 149.903 572.149 150.841 572.149 151.986C572.149 154.253 574.055 154.165 575.244 151.843C579.016 144.483 579.388 142.467 578.947 131.755C578.519 121.386 578.365 120.755 575.325 116.972C573.578 114.799 572.149 112.405 572.149 111.653C572.149 110.901 571.488 109.412 570.681 108.344C569.232 106.429 569.212 106.43 569.181 108.403ZM286.682 111.213C285.624 115.026 286.601 122.783 288.36 124.543C289.149 125.331 290.538 125.691 291.447 125.342C292.976 124.755 292.971 124.473 291.377 121.556C290.429 119.822 289.16 116.153 288.557 113.403C287.522 108.679 287.418 108.558 286.682 111.213ZM138.79 115.497C135.568 118.534 133.222 121.309 133.577 121.664C133.932 122.019 137.014 119.518 140.426 116.106C148.104 108.428 146.805 107.944 138.79 115.497ZM234.207 115.153C230.439 119.067 228.235 123.322 229.382 124.469C229.642 124.729 231.383 122.595 233.252 119.726C237.071 113.863 240.028 112.518 246.905 113.515C252.176 114.279 259.528 119.682 260.985 123.864C262.326 127.709 263.149 127.742 263.149 123.951C263.149 121.861 262.054 119.925 259.399 117.319C254.554 112.563 250.505 110.903 243.756 110.903C238.645 110.903 238.04 111.172 234.207 115.153ZM97.9351 117.317C96.7971 123.56 92.1661 131.729 88.4711 134.013C85.0371 136.135 83.6691 138.766 86.8991 137.036C93.1371 133.694 99.4661 123.216 98.9551 117.076L98.6491 113.403L97.9351 117.317ZM241.728 119.448L237.807 122.91L240.152 125.407C241.442 126.78 243.544 127.903 244.823 127.903C246.713 127.903 247.134 127.387 247.07 125.153C247.027 123.641 246.764 122.966 246.487 123.653C245.786 125.39 243.208 125.219 242.506 123.39C241.696 121.281 243.939 118.903 246.738 118.903C249.818 118.903 256.149 125.242 256.149 128.326C256.149 129.621 255.289 131.744 254.237 133.042C252.698 134.942 251.422 135.384 247.705 135.306C242.34 135.194 241.877 137.215 247.149 137.729C251.31 138.135 254.314 136.586 256.48 132.92C259.878 127.167 257.177 120.066 250.532 117.29C246.169 115.467 246.264 115.443 241.728 119.448ZM31.6491 117.903C31.3091 118.453 31.7331 118.903 32.5901 118.903C33.4471 118.903 34.1491 118.453 34.1491 117.903C34.1491 117.353 33.7261 116.903 33.2081 116.903C32.6901 116.903 31.9891 117.353 31.6491 117.903ZM18.3711 120.373C13.9331 121.758 8.9851 125.024 3.3991 130.253C-1.8769 135.192 -0.313895 135.303 5.6861 130.416C12.2181 125.096 17.3421 122.333 22.4571 121.373C24.5001 120.99 26.4181 120.277 26.7191 119.79C27.5021 118.523 23.3701 118.812 18.3711 120.373ZM189.633 120.372C180.798 121.718 174.149 123.635 174.149 124.834C174.149 125.261 176.512 124.977 179.399 124.203C182.286 123.43 188.699 122.549 193.649 122.247C204.311 121.596 214.457 123.903 225.4 129.469C232.799 133.233 233.149 133.344 233.149 131.945C233.149 129.326 218.888 123.091 208.149 121.014C198.116 119.074 198.142 119.075 189.633 120.372ZM29.6491 123.837C27.9991 124.243 24.8491 125.485 22.6491 126.597C20.4491 127.709 17.4851 128.898 16.0611 129.239C12.4641 130.101 8.4571 133.455 5.5831 138.008C2.9721 142.144 2.7141 142.903 3.9221 142.903C4.3471 142.903 5.5291 141.352 6.5501 139.456C7.5711 137.561 9.54611 134.973 10.9391 133.706C12.3321 132.44 13.1471 131.966 12.7511 132.653C11.7771 134.344 13.6181 134.247 15.0411 132.533C15.6661 131.78 18.9841 129.885 22.4141 128.323C28.3611 125.613 31.8741 125.116 46.3991 124.926C47.3611 124.913 48.1491 124.55 48.1491 124.119C48.1491 123.101 33.5471 122.878 29.6491 123.837ZM107.307 125.903C107.307 127.278 107.534 127.841 107.811 127.153C108.089 126.466 108.089 125.341 107.811 124.653C107.534 123.966 107.307 124.528 107.307 125.903ZM127.093 129.653C126.326 131.165 124.723 133.618 123.531 135.103C117.925 142.082 113.204 162.372 116.891 163.638C117.818 163.956 117.974 162.906 117.506 159.488C116.746 153.949 120.333 143.155 125.701 134.822C128.671 130.212 129.974 126.903 128.818 126.903C128.636 126.903 127.86 128.141 127.093 129.653ZM32.3991 129.559C28.9621 130.374 26.1491 131.49 26.1491 132.04C26.1491 132.589 26.9371 132.802 27.8991 132.514C33.9141 130.713 43.2161 129.827 46.5251 130.741C49.8431 131.657 51.4871 130.848 49.1911 129.429C47.0421 128.101 38.2641 128.169 32.3991 129.559ZM262.149 130.903C262.149 132.553 262.599 133.903 263.149 133.903C263.699 133.903 264.149 132.553 264.149 130.903C264.149 129.253 263.699 127.903 263.149 127.903C262.599 127.903 262.149 129.253 262.149 130.903ZM287.068 130.843C279.831 135.652 270.149 146.925 270.149 150.543C270.149 153.31 273.3 151.787 274.749 148.318C276.359 144.465 283.49 136.996 288.236 134.193C290.9 132.619 292.941 129.361 291.909 128.33C291.676 128.097 289.498 129.228 287.068 130.843ZM306.219 132.218C304.915 135.647 304.916 135.523 306.204 140.162C307.268 143.992 311.223 147.593 313.096 146.436C313.744 146.035 313.361 144.756 312.069 143.009C310.936 141.476 309.884 138.659 309.733 136.749C309.581 134.839 308.969 132.405 308.373 131.34C307.356 129.522 307.224 129.575 306.219 132.218ZM584.191 132.903C584.037 133.728 583.994 134.827 584.095 135.345C584.195 135.863 583.393 138.788 582.314 141.845C581.234 144.902 580.065 149.058 579.718 151.082C579.37 153.105 578.257 155.782 577.246 157.032C575.495 159.194 575.322 159.219 573.659 157.556C570.883 154.78 571.025 156.045 574.196 162.33C579.023 171.901 578.078 182.063 571.567 190.599C568.603 194.485 567.415 194.719 566.23 191.653C565.752 190.415 564.218 188.34 562.821 187.041C560.299 184.695 560.294 184.663 562.222 182.594C565.999 178.54 567.184 169.995 564.724 164.554C563.94 162.821 563.135 158.478 562.935 154.903C562.724 151.129 561.749 146.748 560.61 144.457C557.506 138.212 556.056 139.097 558.694 145.627C561.621 152.875 561.439 162.537 558.263 168.526C555.933 172.92 550.687 178.903 549.163 178.903C547.009 178.903 548.286 180.72 550.899 181.372C558.443 183.255 566.149 193.223 566.149 201.099C566.149 203.741 565.699 205.903 565.149 205.903C564.599 205.903 564.139 204.665 564.127 203.153C564.089 198.441 560.552 192.207 556.075 188.965C551.849 185.903 547.813 185.02 546.649 186.903C546.309 187.453 547.016 187.903 548.222 187.903C553.501 187.903 560.836 195.199 561.852 201.46C562.385 204.744 562.272 204.903 559.405 204.903C555.156 204.903 550.149 206.008 550.149 206.946C550.149 207.382 553.187 207.939 556.899 208.183C569.51 209.012 579.92 213.295 588.858 221.331C594.115 226.057 600.149 234.204 600.149 236.574C600.149 238.976 597.078 237.961 595.847 235.153C593.679 230.207 591.092 227.102 585.621 222.881C576.288 215.681 561.089 211.07 554.731 213.51C551.397 214.789 553.421 215.698 560.399 216.057C569.999 216.549 580.745 221.534 588.591 229.133C594.758 235.106 595.522 237.353 591.5 237.686C589.494 237.852 587.736 236.745 584.25 233.122C577.295 225.892 571.451 223.403 561.434 223.403C554.805 223.403 552.875 223.755 551.434 225.226C549.711 226.986 549.788 227.02 553.649 226.227C564.329 224.032 576.801 228.174 583.667 236.195C587.22 240.346 587.237 240.41 584.969 240.946C583.333 241.332 583.04 241.717 583.953 242.282C584.659 242.718 585.779 242.637 586.443 242.102C590.645 238.713 604.072 240.438 618.149 246.176C627.495 249.985 633.557 253.896 638.416 259.251C640.8 261.879 642.452 262.999 642.916 262.303C645.659 258.185 659.632 257.304 669.399 260.633C676.225 262.959 677.089 261.649 670.617 258.786C664.032 255.873 653.548 255.215 647.134 257.313L641.974 259.001L637.656 255.202C635.281 253.113 633.295 251.068 633.243 250.659C633.068 249.274 641.329 243.979 647.004 241.841C650.109 240.671 655.799 239.13 659.649 238.416C666.192 237.204 666.355 237.113 662.149 237.023C653.688 236.842 639.885 242.076 634.426 247.535C632.067 249.894 631.842 249.932 629.458 248.37L626.96 246.733L629.305 244.223C632.791 240.491 643.722 234.289 652.185 231.242C658.445 228.988 661.31 228.552 669.95 228.541C678.845 228.53 679.937 228.354 677.95 227.251C676.684 226.548 672.34 225.958 668.297 225.938C655.544 225.877 637.096 233.367 628.155 242.236C624.825 245.539 624.532 245.635 621.905 244.277C620.389 243.493 619.149 242.554 619.149 242.19C619.149 238.556 644.265 224.231 655.609 221.394C662.058 219.781 675.078 219.493 681.899 220.812C684.236 221.264 686.149 221.316 686.149 220.927C686.149 219.554 677.558 217.617 670.149 217.319C660.432 216.929 654.838 218.062 644.272 222.563C634.005 226.935 627.385 231.009 620.764 237.029L615.879 241.471L609.307 239.817C603.584 238.376 602.614 237.791 601.794 235.283C600.608 231.657 596.315 225.388 592.095 221.121C588.912 217.902 588.875 217.763 590.181 213.806C593.163 204.77 606.373 194.922 615.559 194.888C618.568 194.876 619.253 194.616 618.149 193.903C613.663 191.004 603.298 194.42 596.541 201.025L592.433 205.041L591.824 201.285C591.092 196.778 591.887 195.664 598.555 191.856C602.373 189.675 603.163 188.846 601.888 188.356C600.856 187.961 598.464 188.899 595.633 190.809C590.205 194.473 590.149 194.483 590.149 191.862C590.149 190.495 591.792 188.799 595.125 186.727C597.862 185.026 599.86 183.245 599.566 182.769C598.641 181.272 596.777 181.862 592.708 184.94C590.541 186.58 588.409 187.563 587.972 187.126C585.389 184.543 580.389 174.561 579.334 169.881C578.655 166.868 577.701 163.767 577.215 162.99C576.621 162.042 577.149 160.28 578.82 157.633C580.189 155.463 581.542 152.049 581.826 150.046C582.11 148.042 583.007 144.562 583.821 142.312C584.634 140.062 585.113 136.687 584.884 134.812C584.656 132.937 584.344 132.078 584.191 132.903ZM549.649 133.903C549.989 134.453 550.69 134.903 551.208 134.903C551.726 134.903 552.149 134.453 552.149 133.903C552.149 133.353 551.447 132.903 550.59 132.903C549.733 132.903 549.309 133.353 549.649 133.903ZM38.4591 134.975C32.8841 135.69 27.4411 137.529 28.3151 138.402C28.5001 138.587 31.1121 138.101 34.1181 137.321C41.0891 135.513 44.8461 135.532 50.1491 137.403C55.0161 139.12 56.1491 139.244 56.1491 138.061C56.1491 137.33 50.7181 135.384 46.1491 134.478C45.3241 134.314 41.8631 134.538 38.4591 134.975ZM18.1221 136.595C15.5611 138.347 14.0241 140.111 14.5761 140.663C15.0661 141.153 22.0591 136.502 22.1071 135.653C22.1751 134.448 20.7751 134.779 18.1221 136.595ZM172.899 135.592C169.98 136.355 170.941 137.99 173.899 137.293C177.349 136.48 179.272 134.86 176.599 135.019C175.526 135.083 173.862 135.341 172.899 135.592ZM101.4 138.394C96.2091 140.65 89.1491 145.87 89.1491 147.451C89.1491 149.54 90.8251 149.246 94.4661 146.517C98.8541 143.228 105.672 139.903 108.027 139.903C110.676 139.903 113.149 138.885 113.149 137.796C113.149 136.407 105.019 136.82 101.4 138.394ZM282.112 142.702C275.442 149.189 274.694 151.367 279.023 151.697C281.323 151.872 282.596 151.064 285.39 147.653C289.006 143.241 291.247 136.903 289.192 136.903C288.578 136.903 285.392 139.513 282.112 142.702ZM311.149 139.377C311.149 140.188 312.576 141.589 314.319 142.491L317.489 144.13L315.069 141.072C312.388 137.684 311.149 137.148 311.149 139.377ZM515.044 144.725C519.932 151.786 521.44 157.791 520.952 168.257C520.652 174.711 519.899 178.801 518.394 182.153C516.041 187.394 513.549 188.657 514.448 184.153C515.939 176.678 516.362 168.903 515.278 168.903C514.623 168.903 514.149 170.623 514.149 172.999C514.149 179.484 511.351 187.903 509.196 187.903C507.532 187.903 507.493 187.599 508.723 184.153C510.316 179.689 510.613 171.498 509.149 172.403C508.599 172.743 508.139 174.682 508.127 176.712C508.103 180.714 504.847 188.903 503.28 188.903C502.748 188.903 501.626 188.64 500.788 188.318C499.426 187.795 499.432 187.378 500.838 184.429C503.385 179.088 501.906 174.287 496.06 168.914C491.978 165.163 490.393 164.354 486.65 164.113C484.015 163.943 482.149 164.254 482.149 164.863C482.149 165.435 483.274 165.97 484.649 166.053C486.024 166.136 487.712 166.248 488.399 166.303C489.087 166.358 490.521 167.191 491.588 168.153C492.654 169.115 494.047 169.903 494.683 169.903C497.264 169.903 499.149 173.599 499.149 178.66C499.149 186.554 495.211 189.339 491.222 184.268C489.714 182.352 489.149 182.079 489.149 183.265C489.149 184.163 490.823 186.75 492.868 189.014L496.587 193.13L494.133 195.117C492.307 196.596 490.718 196.974 487.914 196.598C485.205 196.235 484.149 196.464 484.149 197.415C484.149 199.238 486.056 199.708 489.922 198.839C494.178 197.882 498.149 195.247 498.149 193.38C498.149 192.535 499.112 191.873 500.399 191.834C501.637 191.796 503.819 191.609 505.248 191.418L507.847 191.072L506.495 196.737C504.993 203.027 506.019 213.817 508.591 218.791C510.544 222.567 512.392 233.521 511.648 236.908C511.306 238.463 510.374 239.986 509.576 240.293C507.4 241.128 503.513 238.996 502.281 236.293C501.665 234.941 500.329 233.903 499.206 233.903C495.783 233.903 494.767 237.588 494.957 249.309C495.068 256.117 494.715 260.721 494.019 261.559C493.165 262.589 493.279 262.903 494.508 262.903C496.679 262.903 497.175 260.052 496.89 249.199C496.697 241.824 496.971 239.672 498.269 238.365C499.766 236.858 500.074 236.911 502.328 239.069C503.669 240.353 505.637 241.9 506.701 242.508C508.368 243.459 508.446 243.84 507.27 245.258C505.219 247.729 503.721 247.257 502.386 243.719C501.725 241.968 500.935 240.783 500.632 241.087C499.996 241.723 501.65 249.737 502.617 250.704C503.789 251.877 508.519 248.44 511.983 243.899C515.382 239.441 515.39 239.409 514.521 232.416C513.471 223.969 513.805 204.231 515.085 199.099C515.592 197.066 517.428 191.353 519.166 186.403C525.365 168.74 524.194 153.514 515.951 144.613L512.052 140.403L515.044 144.725ZM20.1491 142.903C20.1491 143.453 20.5721 143.903 21.0901 143.903C21.6081 143.903 22.3091 143.453 22.6491 142.903C22.9891 142.353 22.5651 141.903 21.7081 141.903C20.8511 141.903 20.1491 142.353 20.1491 142.903ZM105.149 142.587C102.303 143.585 93.1491 149.328 93.1491 150.114C93.1491 151.449 95.5431 150.997 99.6881 148.879C101.866 147.765 105.297 146.589 107.312 146.265C109.749 145.873 111.14 145.044 111.469 143.789C111.864 142.279 111.433 141.919 109.305 141.982C107.844 142.025 105.974 142.298 105.149 142.587ZM52.8991 144.065C51.3861 144.618 50.1491 145.531 50.1491 146.095C50.1491 147.466 55.2271 146.185 57.1131 144.337C58.3991 143.078 58.3991 142.913 57.1131 142.982C56.3081 143.025 54.4121 143.513 52.8991 144.065ZM156.617 146.234C152.375 149.569 141.502 161.607 139.434 165.258C137.957 167.868 137.769 171.256 139.149 170.403C139.699 170.063 140.149 168.935 140.149 167.897C140.149 166.156 153.617 148.937 155.027 148.876C155.369 148.861 157.224 147.523 159.149 145.903C163.845 141.95 161.712 142.228 156.617 146.234ZM4.2281 145.762C2.3471 146.115 0.616105 146.985 0.381105 147.697C0.0611047 148.665 0.670105 148.796 2.8011 148.219C7.5891 146.922 27.1631 147.541 36.0011 149.268C45.2961 151.084 52.4731 153.92 55.8831 157.122C57.1251 158.289 58.4801 158.902 58.8951 158.484C59.8611 157.51 54.8771 153.478 49.3961 150.8C47.0571 149.657 45.4071 148.294 45.7301 147.772C46.0741 147.215 45.3101 147.075 43.8791 147.435C42.5381 147.771 38.2981 147.396 34.4571 146.601C27.2411 145.107 10.2411 144.636 4.2281 145.762ZM531.149 146.782C531.149 147.266 532.291 150.155 533.686 153.204C540.744 168.619 540.654 184.872 533.431 199.685C529.865 206.996 529.693 210.485 533.121 205.94C540.465 196.204 543.142 177.724 539.259 163.57C536.63 153.99 531.149 142.643 531.149 146.782ZM102.449 149.695C100.688 150.634 99.1901 151.796 99.1181 152.275C99.0461 152.755 100.933 154.436 103.31 156.01C107.206 158.589 107.702 158.7 108.321 157.137C108.699 156.184 109.04 153.716 109.079 151.653C109.16 147.322 107.701 146.891 102.449 149.695ZM314.223 152.965C309.935 156.071 306.212 162.399 306.171 166.653C306.137 170.174 307.825 169.289 308.446 165.46C309.462 159.199 316.797 151.903 322.076 151.903C323.282 151.903 323.989 151.453 323.649 150.903C322.485 149.02 318.449 149.903 314.223 152.965ZM21.4751 153.053C16.6591 153.883 11.1491 156.497 11.1491 157.952C11.1491 158.5 12.2451 158.231 13.5841 157.354C18.0411 154.433 29.3791 154.416 40.5821 157.312C51.6621 160.177 59.1821 164.188 65.8261 170.776C68.2521 173.181 70.5271 174.858 70.8831 174.503C71.9321 173.453 62.5791 164.586 56.6011 160.963C47.4181 155.398 30.2741 151.537 21.4751 153.053ZM133.867 162.121C132.479 164.49 130.569 169.123 129.623 172.416C128.678 175.709 127.774 178.551 127.615 178.731C127.456 178.912 124.023 177.852 119.987 176.375C105.4 171.038 88.5431 172.096 77.6021 179.035L72.9831 181.964L66.9241 176.355C60.2261 170.154 53.5441 166.68 43.9781 164.425C36.6871 162.706 28.5501 162.446 27.6491 163.903C27.2681 164.52 28.9781 164.903 32.1081 164.903C38.5011 164.903 51.2071 168.265 57.2571 171.559C62.1981 174.248 68.9401 180.205 73.4891 185.903C75.1151 187.94 75.9991 188.567 75.6031 187.403C73.9401 182.518 74.0131 182.325 78.3461 180.161C88.7081 174.986 101.218 173.656 113.149 176.46C120.935 178.291 136.149 185.634 136.149 187.562C136.149 188.545 134.527 188.115 130.399 186.038C118.311 179.954 102.736 179.198 91.8791 184.169C88.7281 185.612 86.1491 187.008 86.1491 187.272C86.1491 187.536 88.7371 186.822 91.8991 185.687C99.1811 183.072 111.607 182.244 119.008 183.881C122.11 184.568 127.273 186.424 130.481 188.006C135.515 190.489 136.506 190.688 137.731 189.464C139.966 187.228 139.478 186.4 134.245 183.552C130.18 181.339 129.427 180.5 129.839 178.643C130.914 173.805 133.517 166.217 135.356 162.556C138.044 157.206 136.937 156.882 133.867 162.121ZM566.149 159.215C566.149 159.937 567.049 162.39 568.149 164.667C570.915 170.392 570.837 178.907 567.971 184.006C565.461 188.472 566.357 190.581 569.196 186.888C573.047 181.877 573.04 171.282 569.18 162.653C567.025 157.835 566.149 156.841 566.149 159.215ZM61.7551 161.319C62.0901 162.19 62.8021 162.903 63.3391 162.903C64.6541 162.903 63.8311 160.63 62.3361 160.132C61.6051 159.888 61.3821 160.346 61.7551 161.319ZM260.649 162.867C251.456 165.301 245.444 168.027 241.149 171.708C236.82 175.418 237.866 177.115 242.372 173.692C249.524 168.259 258.545 165.396 273.442 163.833C281.144 163.025 282.969 163.158 288.16 164.907C294.926 167.186 295.149 167.221 295.149 166.013C295.149 165.524 293.129 164.174 290.66 163.013C284.784 160.251 270.784 160.183 260.649 162.867ZM473.267 172.772C469.365 177.101 464.705 181.365 462.911 182.25C460.163 183.604 459.998 183.861 461.864 183.88C463.947 183.902 469.405 179.895 473.413 175.403C475.928 172.583 481.334 164.903 480.803 164.903C480.56 164.903 477.169 168.444 473.267 172.772ZM561.389 168.275C560.781 169.61 560.504 171.546 560.774 172.578C561.047 173.623 560.154 176.091 558.756 178.15C557.371 180.192 556.673 182.109 557.198 182.434C557.721 182.757 558.149 182.544 558.149 181.962C558.149 181.38 559.06 180.903 560.174 180.903C561.454 180.903 562.596 179.892 563.278 178.153C565.743 171.877 563.971 162.61 561.389 168.275ZM184.539 170.396C181.788 171.767 178.383 174.129 176.972 175.646C173.505 179.374 170.703 183.903 171.865 183.903C172.385 183.903 173.429 182.749 174.183 181.339C176.045 177.861 183.709 172.399 188.899 170.853C191.237 170.156 193.149 169.208 193.149 168.745C193.149 167.197 189.589 167.879 184.539 170.396ZM263.883 169.991C258.32 171.302 252.754 174.407 248.194 178.746C242.835 183.843 242.979 186.061 248.369 181.447C257.681 173.476 267.545 170.732 282.041 172.081C287.307 172.57 291.282 173.678 295.861 175.933C302.104 179.006 304.119 179.281 302.62 176.856C301.676 175.328 294.027 171.957 287.654 170.26C282.072 168.773 269.649 168.633 263.883 169.991ZM136.662 175.217C134.89 179.459 134.724 181.903 136.208 181.903C136.79 181.903 137.018 181.501 136.715 181.009C136.411 180.518 136.861 178.444 137.714 176.401C138.568 174.358 139.021 172.441 138.721 172.141C138.421 171.841 137.494 173.226 136.662 175.217ZM407.306 174.54C405.467 175.477 402.7 177.506 401.157 179.049C397.912 182.294 393.78 190.303 394.401 192.146C394.634 192.837 395.731 191.378 396.84 188.903C400.715 180.249 407.177 175.779 416.107 175.574C420.753 175.467 423.026 176.073 428.674 178.923C438.921 184.095 440.582 187.237 438.751 197.991L437.97 202.58L443.31 204.896C449.31 207.498 458.091 207.85 461.445 205.622C463.271 204.41 463.828 204.684 467.385 208.543C472.242 213.812 475.203 214.818 486.827 215.145C495.742 215.396 495.957 215.457 494.327 217.291C490.532 221.561 480.69 223.818 476.022 221.49C473.521 220.242 473.149 220.244 473.149 221.504C473.149 224.894 481.112 225.511 488.649 222.705C492.092 221.423 498.149 216.083 498.149 214.329C498.149 213.68 498.819 212.592 499.638 211.912C502.613 209.443 499.996 209.067 496.474 211.458C493.152 213.711 492.196 213.867 484.839 213.353C474.909 212.66 471.587 211.303 467.225 206.156L463.802 202.116L459.929 204.134C455.565 206.409 450.151 206.232 443.951 203.611L440.253 202.049L440.826 195.217C441.381 188.595 441.294 188.248 437.976 183.898C431.286 175.127 415.57 170.332 407.306 174.54ZM555.767 176.597L552.884 179.981L555.497 178.79C556.935 178.135 558.385 176.734 558.721 175.676C559.671 172.684 558.895 172.926 555.767 176.597ZM42.8471 176.393C59.3421 180.196 74.1491 192.886 74.1491 203.219C74.1491 204.695 74.5881 205.903 75.1241 205.903C76.6381 205.903 75.2381 199.99 72.3001 193.979C67.6401 184.446 53.9541 175.803 42.6491 175.255L36.6491 174.964L42.8471 176.393ZM71.6491 176.903C71.9891 177.453 72.4651 177.903 72.7081 177.903C72.9511 177.903 73.1491 177.453 73.1491 176.903C73.1491 176.353 72.6721 175.903 72.0901 175.903C71.5081 175.903 71.3091 176.353 71.6491 176.903ZM186.156 178.496C182.343 180.149 178.149 183.678 178.149 185.232C178.149 185.772 178.936 185.52 179.899 184.672C180.862 183.824 184.012 181.947 186.899 180.5C194.181 176.851 193.595 175.27 186.156 178.496ZM154.149 182.136C149.549 183.836 144.464 186.802 136.72 192.301C135.896 192.886 133.444 192.216 129.691 190.38C122.174 186.702 110.869 185.839 103.272 188.362C100.455 189.298 98.1491 190.493 98.1491 191.019C98.1491 191.544 99.1621 191.404 100.399 190.708C101.8 189.921 106.424 189.446 112.649 189.451C120.726 189.457 123.754 189.9 128.399 191.753C134.511 194.191 135.135 195.156 132.488 198.08C131.575 199.09 131.088 200.175 131.405 200.492C131.723 200.81 134.747 198.305 138.126 194.926C144.857 188.195 152.954 183.844 162.149 182.016C165.174 181.415 168.549 180.745 169.649 180.529C170.749 180.312 168.949 180.128 165.649 180.119C162.049 180.109 157.449 180.916 154.149 182.136ZM413.172 181.598C411.246 182.598 408.443 185.443 406.888 187.975C403.808 192.993 402.145 199.903 404.018 199.903C404.64 199.903 405.149 198.76 405.149 197.363C405.149 194.063 408.261 188.05 411.565 184.966C413.541 183.122 415.584 182.427 419.961 182.11C425.099 181.739 426.1 181.991 428.928 184.37C432.642 187.496 434.649 193.459 433.236 197.174C430.856 203.435 420.963 206.331 417.729 201.713C416.885 200.509 415.905 199.814 415.55 200.168C415.196 200.523 416.256 202.164 417.906 203.814C420.216 206.124 421.541 206.699 423.663 206.315C435.316 204.202 438.564 193.558 430.268 184.665C427.068 181.234 425.795 180.582 421.584 180.219C418.104 179.918 415.624 180.324 413.172 181.598ZM579.149 182.753C579.149 183.313 580.611 186.121 582.399 188.995C585.321 193.693 585.649 194.985 585.649 201.812C585.649 205.987 585.252 210.685 584.766 212.252C583.995 214.738 584.123 215.055 585.766 214.74C587.082 214.488 588.032 212.878 588.921 209.391C590.631 202.684 588.887 193.491 584.704 187.161C581.761 182.709 579.149 180.636 579.149 182.753ZM157.649 186.879C150.082 188.824 142.284 194.771 136.661 202.885C133.305 207.728 130.19 219.153 130.166 226.71C130.145 233.387 131.99 240.903 133.651 240.903C134.636 240.903 134.588 239.964 133.434 236.653C131.628 231.473 132.176 219.855 134.589 212.137C137.867 201.657 149.125 191.171 159.623 188.821C162.624 188.15 164.844 187.218 164.555 186.752C163.944 185.762 161.842 185.801 157.649 186.879ZM573.149 192.137C569.177 196.678 568.648 197.839 568.637 202.031L568.624 206.781L574.588 209.354C581.923 212.519 583.254 211.68 583.935 203.465C584.315 198.888 583.926 196.968 581.698 192.414C580.215 189.383 578.697 186.923 578.325 186.948C577.953 186.973 575.624 189.308 573.149 192.137ZM173.207 191.04C171.233 194.278 170.685 195.903 171.567 195.903C172.411 195.903 176.36 188.78 175.817 188.238C175.509 187.93 174.334 189.191 173.207 191.04ZM418.419 188.613C416 189.073 411.497 194.584 412.621 195.709C413.001 196.089 414.213 195.163 415.314 193.651C416.729 191.709 418.196 190.903 420.316 190.903C422.187 190.903 423.167 190.456 422.92 189.716C422.448 188.3 421.41 188.045 418.419 188.613ZM470.306 190.903C469.124 192.828 468.155 194.763 468.153 195.202C468.151 195.641 466.236 196.869 463.899 197.93C458.743 200.27 449.801 200.491 445.75 198.379C441.919 196.381 441.214 197.246 444.777 199.573C448.303 201.877 460.254 202.003 464.445 199.782C467.139 198.353 467.378 198.43 471.064 201.937C477.708 208.258 491.02 209.618 498.853 204.777C501.956 202.859 503.349 199.903 501.149 199.903C500.599 199.903 500.149 200.341 500.149 200.877C500.149 204.439 487.071 206.305 478.426 203.978C472.477 202.376 469.809 199.384 470.505 195.094C470.82 193.153 471.599 191.243 472.235 190.85C472.872 190.456 473.182 189.52 472.924 188.769C472.624 187.894 471.684 188.66 470.306 190.903ZM165.655 190.897C164.656 192 162.769 192.903 161.462 192.903C160.154 192.903 157.551 193.544 155.677 194.327C151.332 196.142 142.969 203.803 143.823 205.185C144.214 205.817 145.304 205.241 146.561 203.737C149.6 200.1 155.477 195.956 159.046 194.932C161.83 194.134 162.157 194.267 162.228 196.223C162.281 197.68 162.488 197.906 162.853 196.903C163.153 196.078 164.547 194.17 165.951 192.663C167.355 191.157 168.271 189.691 167.987 189.407C167.703 189.123 166.653 189.793 165.655 190.897ZM511.895 191.148C507.147 195.302 506.242 204.042 509.384 215.403L510.491 219.403L511.262 215.403C511.687 213.203 512.06 209.135 512.091 206.363C512.123 203.591 512.835 198.69 513.673 195.471C514.512 192.252 515.034 189.455 514.835 189.256C514.635 189.056 513.312 189.908 511.895 191.148ZM77.1491 191.601C77.1491 192.94 79.8981 196.488 80.4811 195.901C80.7541 195.627 80.1161 194.341 79.0631 193.042C78.0101 191.744 77.1491 191.095 77.1491 191.601ZM419.645 192.91C419.302 193.464 419.726 194.139 420.586 194.41C421.445 194.681 422.824 195.114 423.649 195.372C425.66 196 425.583 193.283 423.567 192.51C421.334 191.653 420.36 191.752 419.645 192.91ZM418.618 196.953C417.668 198.491 418.969 199.483 420.253 198.199C420.971 197.481 420.988 196.922 420.305 196.5C419.745 196.154 418.986 196.358 418.618 196.953ZM617.649 198.311C612.612 200.544 607.149 206.6 607.149 209.951C607.149 213.742 607.972 213.709 609.313 209.864C610.823 205.53 618.111 200.286 623.812 199.431C627.131 198.933 628.075 198.469 627.068 197.832C625.058 196.559 621.152 196.758 617.649 198.311ZM412.149 203.195C412.149 208.523 422.71 211.733 429.199 208.377C433.53 206.137 432.795 204.81 428.219 206.608C423.212 208.574 418.215 207.696 414.761 204.242C412.837 202.318 412.149 202.043 412.149 203.195ZM619.545 203.332C615.693 205.009 612.149 209.835 612.149 213.403C612.149 216.779 614.815 221.386 617.645 222.901C620.2 224.268 626.341 223.872 626.854 222.306C627.083 221.609 625.533 221.245 622.593 221.306C618.876 221.384 617.6 220.942 616.061 219.042C615.009 217.744 614.149 215.621 614.149 214.326C614.149 211.242 620.48 204.903 623.56 204.903C626.359 204.903 628.602 207.281 627.792 209.39C627.09 211.219 624.512 211.39 623.811 209.653C623.534 208.966 623.271 209.641 623.228 211.153C623.164 213.387 623.585 213.903 625.475 213.903C626.754 213.903 628.856 212.78 630.146 211.407L632.491 208.91L628.57 205.448C624.141 201.538 623.833 201.466 619.545 203.332ZM119.649 204.784C108.383 208.705 96.0991 219.402 91.6161 229.194C88.8271 235.286 87.3181 245.272 89.0271 246.328C89.7931 246.801 90.1491 245.587 90.1491 242.5C90.1491 228.342 104.839 211.689 122.466 205.865C125.317 204.923 127.772 204.257 127.923 204.385C128.863 205.183 126.598 207.903 124.992 207.903C120.106 207.903 107.453 217.203 103.223 223.903C99.6441 229.571 96.7291 238.436 97.7041 240.69C98.2501 241.953 98.6481 241.328 99.2181 238.31C101.282 227.382 109.718 216.914 120.613 211.76C123.933 210.19 127.159 208.904 127.782 208.904C129.034 208.903 130.349 205.036 129.542 203.729C128.766 202.474 125.191 202.855 119.649 204.784ZM403.149 205.844C403.149 206.362 403.599 207.063 404.149 207.403C404.699 207.743 405.149 207.319 405.149 206.462C405.149 205.605 404.699 204.903 404.149 204.903C403.599 204.903 403.149 205.326 403.149 205.844ZM669.214 206.368C667.223 207.434 668.218 207.673 676.768 208.183C682.184 208.506 686.78 208.605 686.983 208.402C687.487 207.899 680.548 206.206 675.578 205.621C673.316 205.354 670.487 205.687 669.214 206.368ZM545.692 208.834C545.375 209.346 545.574 210.047 546.133 210.393C546.692 210.738 547.149 210.319 547.149 209.462C547.149 207.705 546.549 207.447 545.692 208.834ZM650.912 209.895C644.849 212.202 637.149 216.706 637.149 217.945C637.149 219.346 637.498 219.234 644.961 215.43C648.709 213.52 654.672 211.221 658.212 210.322C661.752 209.422 664.837 208.51 665.066 208.295C666.357 207.081 654.904 208.377 650.912 209.895ZM141.692 209.834C141.375 210.346 141.574 211.047 142.133 211.393C142.692 211.738 143.149 211.319 143.149 210.462C143.149 208.705 142.549 208.447 141.692 209.834ZM639.649 209.903C639.989 210.453 640.465 210.903 640.708 210.903C640.951 210.903 641.149 210.453 641.149 209.903C641.149 209.353 640.672 208.903 640.09 208.903C639.508 208.903 639.309 209.353 639.649 209.903ZM77.2281 211.486C77.2761 212.651 77.5131 212.888 77.8321 212.091C78.1211 211.369 78.0851 210.506 77.7531 210.174C77.4211 209.842 77.1851 210.432 77.2281 211.486ZM403.149 210.857C403.149 214.551 411.075 224.315 416.196 226.927C420.322 229.032 425.149 229.558 425.149 227.903C425.149 227.353 424.304 226.903 423.271 226.903C420.831 226.903 415.224 224.439 412.524 222.181C411.355 221.203 408.768 217.99 406.774 215.041C404.78 212.092 403.149 210.209 403.149 210.857ZM121.512 212.946C119.787 214.052 116.77 217.016 114.809 219.533C110.842 224.625 106.582 236.036 107.657 238.689C108.15 239.904 108.763 238.838 109.761 235.032C110.536 232.078 111.934 228.05 112.869 226.081C114.627 222.375 122.785 213.205 123.599 214.019C123.853 214.273 123.383 216.447 122.556 218.849C120.093 225.998 122.414 244.614 126.395 249.642C128.684 252.533 128.677 249.568 126.384 244.934C122.733 237.557 122.063 224.146 125.013 217.478C127.992 210.744 126.985 209.44 121.512 212.946ZM460.149 212.248C460.149 212.988 461.049 214.408 462.149 215.403C464.513 217.542 464.954 215.547 462.757 212.653C461.17 210.562 460.149 210.404 460.149 212.248ZM548.732 213.769C548.301 214.466 548.219 215.306 548.549 215.636C549.444 216.531 550.42 215.215 549.936 213.765C549.598 212.749 549.362 212.749 548.732 213.769ZM606.149 216.903C606.149 218.553 606.599 219.903 607.149 219.903C607.699 219.903 608.149 218.553 608.149 216.903C608.149 215.253 607.699 213.903 607.149 213.903C606.599 213.903 606.149 215.253 606.149 216.903ZM469.724 216.781C469.39 217.322 469.554 218.035 470.089 218.366C470.624 218.697 470.808 219.628 470.498 220.435C470.189 221.242 470.433 221.903 471.042 221.903C471.651 221.903 472.149 221.003 472.149 219.903C472.149 218.803 472.183 217.577 472.224 217.178C472.344 216.014 470.39 215.704 469.724 216.781ZM497.07 221.502C493.516 225.306 489.833 226.903 484.615 226.903C481.353 226.903 480.106 227.273 480.399 228.153C480.963 229.842 487.34 229.822 491.374 228.117C494.539 226.78 500.886 220.307 499.95 219.371C499.697 219.118 498.401 220.077 497.07 221.502ZM633.149 220.903C633.149 221.453 633.572 221.903 634.09 221.903C634.608 221.903 635.309 221.453 635.649 220.903C635.989 220.353 635.565 219.903 634.708 219.903C633.851 219.903 633.149 220.353 633.149 220.903ZM692.699 221.774C694.131 223.087 699.149 224.071 699.149 223.039C699.149 222.122 695.839 220.942 693.199 220.917C692.315 220.908 692.12 221.243 692.699 221.774ZM462.756 223.485C460.564 229.198 463.998 242.571 468.351 245.275C470.859 246.833 471.883 245.105 469.458 243.407C465.507 240.639 462.732 229.748 464.552 224.153C465.377 221.616 463.711 220.996 462.756 223.485ZM468.899 223.477C468.486 223.895 468.149 226.098 468.149 228.374C468.149 234.633 475.329 245.056 477.882 242.504C478.237 242.148 477.54 241.165 476.333 240.319C473.207 238.13 470.825 233.18 470.193 227.561C469.894 224.898 469.312 223.06 468.899 223.477ZM612.337 223.966C612.577 224.687 613.365 225.475 614.087 225.716C614.837 225.966 615.212 225.591 614.962 224.841C614.721 224.119 613.933 223.331 613.212 223.091C612.462 222.841 612.087 223.216 612.337 223.966ZM407.988 228.603C409.635 231.68 416.454 235.9 422.293 237.454C429.026 239.246 434.524 239.221 439.649 237.374C444.838 235.505 445.149 235.533 445.149 237.877C445.149 242.958 429.831 245.554 420.277 242.093C415.131 240.228 414.831 240.221 413.129 241.923C409.54 245.512 401.667 249.308 395.244 250.545C389.138 251.722 388.448 251.671 385.939 249.859C384.449 248.783 382.563 247.903 381.749 247.903C380.934 247.903 379.989 247.453 379.649 246.903C379.309 246.353 378.552 245.903 377.968 245.903C376.117 245.903 379.309 248.944 383.292 250.976C391.525 255.176 405.105 252.417 413.139 244.913L416.242 242.014L420.945 244.053C424.787 245.719 427.023 245.998 433.149 245.577C437.274 245.293 441.661 244.748 442.899 244.365C444.825 243.77 445.149 244.036 445.149 246.215C445.149 247.615 445.824 249.435 446.649 250.26C447.474 251.085 448.149 251.956 448.149 252.195C448.149 252.434 445.337 252.861 441.899 253.145C436.509 253.591 432.504 254.79 426.216 257.841C424.186 258.826 422.573 261.66 423.509 262.597C423.944 263.031 424.738 262.603 425.274 261.645C425.81 260.687 426.795 259.903 427.463 259.903C428.132 259.903 430.247 259.069 432.164 258.05C437.38 255.275 442.703 254.604 448.237 256.022C450.919 256.71 453.409 256.976 453.771 256.614C454.133 256.252 452.791 254.143 450.789 251.927C447.464 248.246 447.149 247.384 447.149 241.965C447.149 238.703 447.588 234.879 448.124 233.468C448.758 231.801 448.758 230.903 448.124 230.903C447.588 230.903 447.149 231.282 447.149 231.745C447.149 232.608 437.972 235.552 432.708 236.378C427.409 237.21 416.651 234.067 411.603 230.213C408.423 227.784 407.277 227.274 407.988 228.603ZM428.899 227.592C427.937 227.844 427.149 228.467 427.149 228.976C427.149 230.461 430.787 230.044 432.149 228.403C433.478 226.801 432.684 226.603 428.899 227.592ZM711.149 231.805C713.074 233.479 714.929 234.861 715.271 234.876C716.681 234.937 730.149 252.156 730.149 253.897C730.149 254.935 730.599 256.063 731.149 256.403C732.529 257.256 732.341 253.868 730.864 251.258C728.648 247.345 717.712 235.328 713.649 232.343C708.237 228.365 706.852 228.067 711.149 231.805ZM543.366 231.464C540.317 233.599 538.384 237.651 537.602 243.548C537.014 247.978 537.231 248.846 539.635 251.704C541.116 253.464 542.968 254.903 543.751 254.903C544.535 254.903 546.051 255.449 547.12 256.117C548.763 257.143 549.458 256.961 551.607 254.943C554.956 251.796 554.885 250.179 551.514 252.83C548.547 255.164 547.591 255.344 545.857 253.892C545.193 253.336 543.412 251.953 541.899 250.82C539.58 249.081 539.151 248.026 539.164 244.08C539.182 238.233 540.736 235.098 545.061 232.183C546.922 230.929 547.803 229.903 547.019 229.903C546.235 229.903 544.591 230.605 543.366 231.464ZM723.649 232.903C723.989 233.453 724.465 233.903 724.708 233.903C724.951 233.903 725.149 233.453 725.149 232.903C725.149 232.353 724.672 231.903 724.09 231.903C723.508 231.903 723.309 232.353 723.649 232.903ZM728.149 237.344C728.149 238.201 728.599 238.903 729.149 238.903C729.699 238.903 730.149 238.48 730.149 237.962C730.149 237.444 729.699 236.743 729.149 236.403C728.599 236.063 728.149 236.487 728.149 237.344ZM369.149 240.732C369.149 241.166 369.712 242.224 370.399 243.084C371.923 244.991 376.433 246.255 375.889 244.623C375.432 243.253 369.149 239.626 369.149 240.732ZM460.43 241.129C459.362 242.485 457.904 249.077 457.938 252.403C457.978 256.384 459.432 262.903 460.281 262.903C461.415 262.903 461.374 260.257 460.171 255.903C459.479 253.402 459.602 250.692 460.601 246.411C462.082 240.063 462.05 239.073 460.43 241.129ZM733.149 244.443C733.149 244.74 733.987 246.652 735.012 248.693C736.037 250.733 737.648 254.766 738.592 257.653C739.537 260.54 740.699 262.903 741.175 262.903C742.464 262.903 739.297 253.03 736.445 248.153C734.144 244.22 733.149 243.099 733.149 244.443ZM98.2191 247.094C98.1811 248.574 98.5991 250.063 99.1491 250.403C100.343 251.141 100.343 249.181 99.1491 246.403C98.3821 244.617 98.2821 244.691 98.2191 247.094ZM111.149 246.285C111.149 247.11 111.599 248.063 112.149 248.403C112.699 248.743 113.149 248.346 113.149 247.521C113.149 246.696 112.699 245.743 112.149 245.403C111.599 245.063 111.149 245.46 111.149 246.285ZM579.399 249.064C577.062 250.197 575.149 251.525 575.149 252.014C575.149 253.221 575.372 253.186 582.138 250.907C587.329 249.158 589.154 249.025 596.856 249.833C611.753 251.396 620.774 254.259 627.926 259.692C632.432 263.115 633.478 261.418 629.149 257.708C618.378 248.477 590.571 243.646 579.399 249.064ZM88.3071 250.903C88.3071 252.278 88.5341 252.841 88.8111 252.153C89.0891 251.466 89.0891 250.341 88.8111 249.653C88.5341 248.966 88.3071 249.528 88.3071 250.903ZM370.676 249.947C371.727 251.648 368.253 255.962 364.603 257.487C362.739 258.266 358.499 258.903 355.181 258.903C351.826 258.903 349.149 259.347 349.149 259.903C349.149 261.024 358.162 261.25 363.139 260.255C364.92 259.899 367.899 258.087 369.757 256.228C373.038 252.947 373.21 252.897 375.643 254.491C378.99 256.684 378.801 258.289 374.899 260.788L371.649 262.869L374.369 262.886C376.219 262.898 377.771 261.981 379.219 260.023C380.664 258.068 381.959 257.302 383.249 257.639C385.528 258.235 385.716 259.471 383.649 260.265C381.659 261.028 381.725 262.903 383.743 262.903C384.619 262.903 385.541 262.115 385.791 261.153C386.186 259.637 387.298 259.446 394.111 259.726C401.036 260.011 402.644 259.722 407.583 257.304C410.667 255.794 413.695 253.95 414.312 253.206C416.537 250.525 414.304 250.889 409.249 254.032C404.901 256.735 402.883 257.306 396.371 257.678C386.868 258.22 378.592 256.053 374.086 251.845C370.863 248.833 369.529 248.091 370.676 249.947ZM472.649 249.903C472.989 250.453 473.915 250.903 474.708 250.903C475.501 250.903 476.149 250.453 476.149 249.903C476.149 249.353 475.222 248.903 474.09 248.903C472.958 248.903 472.309 249.353 472.649 249.903ZM422.281 252.445C418.64 255.509 414.628 261.737 415.672 262.706C416.085 263.089 416.645 262.777 416.916 262.011C417.74 259.689 424.177 253.029 426.227 252.378C427.284 252.043 428.149 251.349 428.149 250.836C428.149 249.109 425.325 249.884 422.281 252.445ZM129.149 251.903C129.149 252.453 129.599 252.903 130.149 252.903C130.699 252.903 131.149 252.453 131.149 251.903C131.149 251.353 130.699 250.903 130.149 250.903C129.599 250.903 129.149 251.353 129.149 251.903ZM568.371 253.069C568.888 254.619 572.03 254.879 572.399 253.403C572.537 252.853 571.586 252.253 570.288 252.069C568.669 251.84 568.066 252.154 568.371 253.069ZM669.665 254.878C668.857 256.185 671.158 257.294 672.303 256.149C672.943 255.509 672.751 254.964 671.748 254.579C670.904 254.255 669.966 254.39 669.665 254.878ZM677.149 254.745C677.149 255.208 679.062 256.152 681.399 256.842C683.736 257.533 687.081 259.179 688.832 260.5C692.744 263.453 695.203 263.725 692.669 260.925C689.089 256.969 677.149 252.214 677.149 254.745ZM466.149 258.903C466.149 261.103 466.541 262.903 467.021 262.903C467.5 262.903 467.845 261.103 467.788 258.903C467.73 256.703 467.338 254.903 466.916 254.903C466.494 254.903 466.149 256.703 466.149 258.903ZM582.149 256.268C579.674 256.988 575.399 258.629 572.649 259.914C568.608 261.802 568.068 262.324 569.831 262.637C571.032 262.85 573.282 262.369 574.831 261.569C579.885 258.957 586.002 257.822 595.099 257.808C602.37 257.796 605.224 258.269 610.42 260.348C613.932 261.753 617.388 262.903 618.1 262.903C620.593 262.903 617.243 260.19 611.868 257.856C605.439 255.064 589.258 254.199 582.149 256.268ZM731.567 259.235C731.887 260.242 732.149 261.48 732.149 261.985C732.149 262.49 732.599 262.903 733.149 262.903C734.597 262.903 734.379 261.567 732.567 259.344C731.12 257.568 731.035 257.559 731.567 259.235ZM652.399 262.619C653.912 262.848 656.386 262.848 657.899 262.619C659.412 262.39 658.174 262.203 655.149 262.203C652.124 262.203 650.886 262.39 652.399 262.619Z" fill="#6D8076"/>
</g>
<defs>
<clipPath id="clip0_1193_881">
<rect width="587" height="263" fill="white"/>
</clipPath>
</defs>
</svg>
