<svg width="587" height="371" viewBox="0 0 587 371" fill="none" xmlns="http://www.w3.org/2000/svg">
<g clip-path="url(#clip0_1193_881)">
<path fill-rule="evenodd" clip-rule="evenodd" d="M3.00019 111.895L0.500188 112.59L0.246188 241.795L-0.0078125 371H374.128H748.263L747.758 367.235C746.928 361.042 741.182 348.538 736.075 341.807C727.819 330.927 716.376 324.794 703.836 324.529C697.658 324.398 696.876 324.121 693.122 320.729C690.894 318.717 686.831 315.934 684.092 314.547C679.995 312.471 678.259 312.134 674.306 312.65C671.663 312.994 668.869 313.776 668.098 314.387C667.236 315.07 663.421 315.369 658.198 315.165C651.754 314.912 648.778 315.247 645.887 316.551L642.076 318.27L636.288 312.964C629.953 307.156 615.041 299.415 607.812 298.181C604.562 297.626 603.035 296.691 601.39 294.251L599.232 291.049L595.366 293.858C593.24 295.403 590.882 297.417 590.128 298.333C588.248 300.616 587.324 300.426 586.618 297.613C586.288 296.3 584.214 292.824 582.009 289.89C579.528 286.588 578 283.473 578 281.72C578 280.161 577.51 276.941 576.912 274.564C576.02 271.022 576.113 269.683 577.424 267.147C579.615 262.911 583.994 246.258 583.997 242.154C583.999 240.314 583.187 237.614 582.194 236.154C580.166 233.173 577.384 221.73 577.1 215.199C576.997 212.834 576.08 208.222 575.062 204.951C569.962 188.566 552.69 173.21 535.917 170.149C532.846 169.588 528.706 168.169 526.717 166.995C523.731 165.234 521.788 164.91 515.593 165.14C511.464 165.294 507.73 165.063 507.293 164.626C506.857 164.189 506.5 159.46 506.5 154.116C506.5 144.952 506.298 144.006 502.943 137.45C496.781 125.409 483.393 116.254 470.525 115.28C462.204 114.651 458.018 115.734 450 120.593C443.146 124.746 437.974 125.189 432.775 122.068C430.727 120.839 426.677 119.2 423.775 118.428C409.151 114.535 395.219 118.86 382.266 131.314L378.032 135.385L374.266 133.577C371.986 132.482 366.554 131.446 360.5 130.951C351.537 130.219 349.478 130.392 340.644 132.611C335.224 133.974 328.699 135.892 326.144 136.874C320.755 138.946 306.7 149.299 301.981 154.674C298.425 158.724 294.025 167.403 294.01 170.397C294.004 171.441 292.239 177.516 290.086 183.897C287.933 190.279 285.908 198.379 285.586 201.898C284.699 211.577 281.449 213.731 276.356 208.015C271.214 202.244 255.053 198.525 245.125 200.828C240.735 201.847 236 200.793 236 198.797C236 197.5 224.116 192.072 219.694 191.349C216.463 190.821 215.306 189.868 212.026 185.039C205.579 175.545 198.182 170.213 187.5 167.359C180.44 165.473 174.135 165.676 163.624 168.128C150.971 171.08 144.458 174.602 137.386 182.32L131.492 188.752L127.996 186.342C120.666 181.289 108.358 179.804 96.7682 182.573C94.5102 183.113 93.8772 182.817 93.1182 180.863C92.6132 179.563 91.1022 176.898 89.7602 174.941C88.1982 172.664 87.1072 169.33 86.7322 165.688C86.0602 159.183 82.4342 150.598 77.9852 144.981C72.2082 137.687 57.9532 131 48.1812 131C43.4062 131 43.2312 130.891 40.2002 126.015C36.7112 120.402 30.1922 115.331 23.2032 112.792C18.4312 111.058 7.71719 110.583 3.00019 111.895ZM376.5 133C376.16 133.55 376.359 134 376.941 134C377.523 134 378 133.55 378 133C378 132.45 377.802 132 377.559 132C377.316 132 376.84 132.45 376.5 133Z" fill="#00FFFF"/>
<path fill-rule="evenodd" clip-rule="evenodd" d="M3.1491 108.792C1.4801 109.253 0.552105 110.3 0.358105 111.943C0.0711046 114.371 0.169105 114.403 7.8581 114.403C14.5181 114.403 16.3601 114.804 20.5511 117.168C25.6441 120.04 26.8201 120.093 25.7881 117.404C24.9131 115.125 17.3291 111.953 12.6491 111.91C10.4491 111.889 7.9741 111.395 7.1491 110.812C3.9711 108.566 18.5481 111.064 24.5801 113.799C31.4111 116.896 42.8501 126.865 43.7681 130.52C44.3761 132.942 45.5971 133.605 46.5661 132.038C47.4351 130.631 41.3181 122.205 36.3011 117.897C29.6531 112.191 18.8261 107.877 11.4691 108.003C8.2681 108.058 4.5241 108.413 3.1491 108.792ZM455.649 117.346C452.899 118.731 449.081 120.773 447.165 121.883C442.388 124.652 440.903 124.468 431.149 119.903C423.416 116.283 421.908 115.924 414.434 115.914C402.358 115.898 387.207 121.776 380.668 129.014L377.396 132.636L370.522 131.306C360.086 129.287 351.222 129.596 340.33 132.358C325.457 136.13 323.393 137.086 312.451 145.271C298.685 155.569 295.527 159.931 293.172 171.903C292.468 175.478 291.114 179.784 290.161 181.472C287.269 186.599 284.984 194.643 284.576 201.136C284.045 209.578 282.68 210.732 277.606 207.03C275.43 205.442 270.385 202.973 266.396 201.543C260.01 199.255 257.827 198.972 248.146 199.184C242.098 199.316 237.149 199.072 237.149 198.642C237.149 198.211 235.075 196.544 232.541 194.937C227.927 192.01 216.937 188.903 211.202 188.903C209.153 188.903 208.149 188.409 208.149 187.401C208.149 185.697 197.32 177.347 192.397 175.256C184.391 171.855 167.663 171.937 164.251 175.394C162.775 176.89 163.08 176.953 168.149 176.21C177.835 174.789 186.578 175.495 192.422 178.17C197.544 180.515 205.149 186.307 205.149 187.863C205.149 188.277 202.04 188.905 198.24 189.258C186.441 190.354 185.921 191.629 197.483 191.115C214.279 190.368 228.798 193.398 233.424 198.614C235.05 200.447 235.064 200.729 233.59 201.952C232.336 202.992 231.614 203.026 230.315 202.105C222.604 196.637 213.781 194.482 201.535 195.076C187.353 195.764 187.308 197.398 201.47 197.436C214.168 197.47 219.345 198.463 225.033 201.957C227.53 203.492 228.123 204.329 227.296 205.156C226.469 205.983 224.775 205.835 220.824 204.59C215.286 202.844 208.69 202.445 203.274 203.528C198.024 204.578 199.793 205.556 206.115 205.099C212.893 204.609 218.01 205.35 220.519 207.184C222.121 208.356 222.067 208.76 219.721 213.172C216.517 219.198 217.764 219.297 221.402 213.305C223.714 209.496 225.395 208.192 231.902 205.159C238.928 201.884 240.487 201.541 248.649 201.475C255.567 201.42 259.178 201.932 264.258 203.687C273.06 206.73 280.149 211.278 280.149 213.881C280.149 215.995 278.701 216.605 277.664 214.927C277.332 214.391 274.268 212.401 270.855 210.507C263.66 206.512 254.503 204.46 246.746 205.103C240.142 205.651 229.856 210.475 225.639 215.002C222.47 218.404 223.104 218.201 229.869 213.644C236.848 208.943 242.182 207.612 252.132 208.088C259.815 208.455 261.937 208.988 268.369 212.167C277.876 216.866 279.268 218.395 278.477 223.268L277.865 227.041L273.757 223.081C266.423 216.011 257.606 213.315 247.233 214.97C238.49 216.366 239.532 217.431 249.269 217.051C257.721 216.721 258.695 216.897 264.668 219.838C271.974 223.434 278.136 229.803 280.117 235.806C281.423 239.763 281.386 239.902 278.203 243.121C273.983 247.388 269.69 253.657 268.504 257.283C267.684 259.791 266.714 260.376 260.991 261.817L254.419 263.471L249.534 259.029C242.913 253.009 236.293 248.935 226.026 244.563C215.46 240.062 209.866 238.929 200.149 239.319C192.74 239.617 184.149 241.554 184.149 242.927C184.149 243.316 186.061 243.264 188.399 242.812C195.22 241.493 208.24 241.781 214.689 243.394C226.033 246.231 251.149 260.556 251.149 264.19C251.149 264.554 249.909 265.493 248.393 266.277C245.766 267.635 245.473 267.539 242.143 264.236C233.202 255.367 214.754 247.877 202.001 247.938C197.958 247.958 193.614 248.548 192.348 249.251C190.361 250.354 191.453 250.53 200.348 250.541C208.988 250.552 211.853 250.988 218.113 253.242C226.576 256.289 237.507 262.491 240.993 266.223L243.338 268.733L240.84 270.37C238.456 271.932 238.231 271.894 235.872 269.535C230.413 264.076 216.61 258.842 208.149 259.023C203.943 259.113 204.106 259.204 210.649 260.416C214.499 261.13 220.189 262.671 223.294 263.841C228.969 265.979 237.23 271.274 237.055 272.659C237.003 273.068 235.017 275.113 232.642 277.202L228.324 281.001L223.164 279.313C216.75 277.215 206.266 277.873 199.681 280.786C193.212 283.647 194.072 284.958 200.899 282.641C211.012 279.209 227.149 280.443 227.149 284.649C227.149 285.851 226.497 285.985 223.899 285.314C217.155 283.573 208.955 284.272 202.899 287.104C199.737 288.582 197.149 290.242 197.149 290.792C197.149 291.342 199.737 290.595 202.899 289.132C207.352 287.072 210.228 286.464 215.649 286.438C219.499 286.419 223.549 286.722 224.649 287.111C226.243 287.676 227.346 286.897 230.083 283.274C236.39 274.925 251.157 267.017 267.091 263.455C274.507 261.798 281.324 262.061 283.855 264.102C284.519 264.637 285.639 264.718 286.345 264.282C287.258 263.717 286.965 263.332 285.329 262.946C283.065 262.411 283.086 262.337 286.697 258.119L290.364 253.834L292.056 256.991C292.988 258.727 295.961 262.745 298.664 265.921L303.579 271.694L304.747 268.296C307.259 260.989 314.363 254.229 320.593 253.218C323.5 252.747 324.531 253.131 327.009 255.61C329.321 257.921 330.121 259.834 330.694 264.416C331.487 270.763 331.993 269.83 324.441 275.928C322.68 277.35 321.737 277.153 318.638 274.716C316.987 273.417 316.044 273.088 316.316 273.905C316.569 274.662 317.985 276.185 319.465 277.289C321.553 278.849 322.422 279.03 323.352 278.1C324.01 277.442 325.319 276.903 326.26 276.903C327.201 276.903 329.107 275.553 330.496 273.903C333.52 270.308 333.76 270.264 334.538 273.153C335.434 276.483 338.71 280.293 339.994 279.499C340.754 279.029 340.313 277.597 338.62 275.039C327.529 258.278 329.628 231.053 343.26 214.887C348.294 208.916 347.733 206.939 342.583 212.506C335.448 220.219 330.195 233.791 329.411 246.538L328.91 254.673L326.28 253.268C324.833 252.495 322.429 251.44 320.937 250.922C317.217 249.632 311.455 241.417 310.192 235.604C308.574 228.157 308.938 223.438 311.594 217.432C312.939 214.391 313.624 211.903 313.117 211.903C311.566 211.903 309.3 216.154 307.868 221.746C307.12 224.671 306.029 227.365 305.444 227.733C304.859 228.102 303.07 230.878 301.467 233.903C297.704 241.008 297.007 251.492 299.941 256.85C301.82 260.28 304.149 262.029 304.149 260.011C304.149 259.428 303.251 257.478 302.153 255.677C299.355 251.088 299.489 241.899 302.44 235.954C304.781 231.239 307.173 229.507 307.114 232.57C307.094 233.578 306.435 235.528 305.649 236.903C303.062 241.428 304.314 250.557 308.076 254.594C310.004 256.663 309.999 256.695 307.477 259.041C306.08 260.34 304.532 262.452 304.037 263.734C302.747 267.076 301.209 266.125 296.399 259.009C293.059 254.068 292.149 251.815 292.149 248.49C292.149 243.801 294.475 236.159 297.424 231.161C299.538 227.578 299.217 226.978 296.592 229.603C294.992 231.203 294.783 231.17 293.052 229.032C292.041 227.782 290.945 225.105 290.617 223.082C290.29 221.058 289.598 218.365 289.081 217.096C288.445 215.536 288.527 214.078 289.335 212.596C290.489 210.48 290.556 210.521 291.24 213.782C291.872 216.793 292.722 219.016 295.086 223.843C296.223 226.164 298.149 226.254 298.149 223.986C298.149 222.841 297.805 221.903 297.385 221.903C295.216 221.903 293.149 213.482 293.15 204.646C293.15 195.614 293.241 195.255 297.149 188.903C299.348 185.328 301.134 181.503 301.117 180.403C301.086 178.43 301.066 178.429 299.617 180.344C298.81 181.412 298.149 182.901 298.149 183.653C298.149 184.405 296.79 186.712 295.128 188.779C292.659 191.852 291.992 193.802 291.472 199.47C290.792 206.883 288.618 211.772 286.807 209.961C286.081 209.235 286.432 208.012 287.956 205.95C290.542 202.453 290.717 201.471 288.611 202.279C284.727 203.769 286.179 193.434 291.121 184.403C292.626 181.653 294.418 176.116 295.104 172.098C296.064 166.469 297.158 163.715 299.87 160.098C309.564 147.167 319.546 140.125 335.13 135.223C344.605 132.243 346.85 131.914 357.745 131.909C371.343 131.902 377.05 133.488 375.036 136.712C374.132 138.161 372.096 138.403 360.815 138.403C346.357 138.403 337.176 140.459 328.23 145.701C323.128 148.691 324.147 149.777 329.806 147.38C344.222 141.276 358.023 138.905 367.585 140.89C372.98 142.01 373.538 141.959 374.487 140.256C377.047 135.665 385.809 127.805 391.954 124.587C407.609 116.391 417.377 116.111 433.149 123.405C444.153 128.494 447.149 129.471 447.149 127.97C447.149 127.383 446.699 126.903 446.149 126.903C443.403 126.903 445.905 124.793 452.807 121.29C460.036 117.621 460.974 117.403 469.557 117.403C477.652 117.403 479.307 117.731 484.649 120.396C492.197 124.162 500.334 132.305 503.736 139.495C506.468 145.271 507.807 146.056 506.683 141.225C505.484 136.062 495.167 124.781 487.185 119.903C479.969 115.493 479.631 115.397 470.236 115.116C461.656 114.859 460.124 115.093 455.649 117.346ZM1.3991 116.565C-1.5909 117.772 0.593104 118.852 5.8991 118.792C9.0611 118.756 12.9491 119.229 14.5381 119.843C16.1261 120.457 17.6711 120.714 17.9711 120.414C20.3261 118.059 5.9641 114.723 1.3991 116.565ZM0.859105 122.526C-0.664895 124.05 0.369104 124.4 6.1501 124.315C9.4511 124.266 12.1561 123.816 12.1621 123.315C12.1741 122.225 1.8791 121.506 0.859105 122.526ZM404.383 125.309C398.598 128.074 392.149 132.653 392.149 133.996C392.149 134.466 394.48 133.477 397.329 131.797C406.347 126.48 410.017 125.395 418.649 125.499C426.685 125.595 430.479 126.871 442.403 133.488C445.332 135.113 447.149 134.687 447.149 132.375C447.149 131.548 446.544 131.198 445.684 131.528C444.879 131.837 442.967 131.206 441.434 130.127C434.016 124.9 429.895 123.586 419.649 123.184C410.571 122.827 409.163 123.023 404.383 125.309ZM457.992 123.81C454.705 124.887 449.149 128.117 449.149 128.952C449.149 130.637 450.641 130.545 453.83 128.663C458.278 126.039 469.479 125.207 477.616 126.896C482.656 127.943 484.386 128.941 489.339 133.666C495.786 139.815 497.091 139.109 491.619 132.431C486.758 126.499 480.3 123.872 469.297 123.35C464.541 123.124 459.453 123.331 457.992 123.81ZM2.3991 127.934C-1.0799 129.332 -0.396895 130.989 3.1491 129.753C4.7991 129.178 6.1491 128.301 6.1491 127.805C6.1491 126.716 5.3621 126.743 2.3991 127.934ZM48.1491 130.769C48.1491 131.475 50.1941 131.903 53.5661 131.903C62.8391 131.903 68.4291 135.312 78.2441 146.953C84.4051 154.261 85.1491 155.884 85.1491 162.024V167.277L82.3991 164.751C74.4211 157.423 65.3911 154.407 45.3171 152.369C39.6291 151.792 38.6381 151.343 35.5781 147.956C29.9841 141.764 16.7871 136.903 5.5721 136.903C-2.1459 136.903 -0.00189495 138.595 8.4741 139.193C13.0181 139.514 19.2561 140.72 22.3371 141.872C28.1141 144.034 36.1491 149.232 36.1491 150.809C36.1491 151.3 34.0231 151.871 31.4241 152.077C27.7911 152.366 26.2661 152.02 24.8231 150.577C23.7911 149.545 21.0371 147.856 18.7021 146.823C13.8511 144.678 0.149105 143.047 0.149105 144.616C0.149105 145.166 3.4121 145.916 7.3991 146.282C14.7181 146.955 23.2021 150.224 23.9371 152.653C24.4881 154.472 22.3751 154.191 17.4001 151.783C12.6751 149.495 0.149105 147.933 0.149105 149.632C0.149105 150.183 3.2041 150.853 6.9371 151.12C10.6701 151.387 14.7861 152.173 16.0831 152.868C18.3661 154.09 18.2701 154.192 13.0451 156.093C10.0771 157.172 6.0991 158.62 4.2051 159.31C2.3111 160.001 0.586105 161.091 0.372105 161.734C-0.188895 163.417 1.0631 163.204 7.7881 160.472C11.0781 159.135 17.5421 157.276 22.1511 156.342C37.3091 153.271 61.4151 155.885 73.0361 161.86C77.8681 164.344 88.4701 174.069 91.2501 178.566L93.4851 182.183L90.8171 184.126C86.5031 187.269 87.7571 188.01 92.8991 185.356C103.062 180.113 115.454 179.767 124.124 184.486C129.595 187.463 131.879 187.158 128.041 183.962C123.664 180.318 116.6 178.596 108.77 179.264C104.853 179.597 100.222 180.149 98.4771 180.489C95.6251 181.045 95.1351 180.77 93.6101 177.755C92.6781 175.911 91.1031 173.503 90.1101 172.403C89.0191 171.195 87.9191 167.599 87.3311 163.319C86.7971 159.423 85.4581 154.473 84.3571 152.319C81.4581 146.649 70.5651 135.156 65.7681 132.706C61.0591 130.302 48.1491 128.882 48.1491 130.769ZM459.803 131.068C455.018 131.756 447.149 136.011 447.149 137.91C447.149 138.448 449.935 137.429 453.34 135.645C458.414 132.988 460.654 132.406 465.756 132.421C469.179 132.431 471.797 132.143 471.574 131.781C470.898 130.689 464.947 130.328 459.803 131.068ZM397.903 137.23C393.807 138.513 382.149 146.602 382.149 148.162C382.149 148.696 383.387 148.314 384.899 147.312C394.954 140.655 398.706 138.903 402.906 138.903C405.312 138.903 408.151 139.369 409.215 139.938C410.499 140.626 411.149 140.634 411.149 139.964C411.149 138.658 405.781 135.88 403.449 135.98C402.459 136.022 399.963 136.585 397.903 137.23ZM461.048 137.886C455.523 138.598 447.149 142.398 447.149 144.194C447.149 144.702 447.712 144.87 448.399 144.569C458.474 140.154 462.323 138.947 466.399 138.927C469.012 138.914 471.149 138.453 471.149 137.903C471.149 136.806 469.458 136.804 461.048 137.886ZM458.89 144.332C454.849 145.774 452.149 147.638 452.149 148.984C452.149 149.444 454.512 148.608 457.399 147.127C461.385 145.082 463.919 144.477 467.923 144.612C471.017 144.716 472.956 144.4 472.614 143.846C471.765 142.472 463.258 142.773 458.89 144.332ZM370.812 145.338C370.37 146.491 368.313 146.69 360.328 146.355C353.232 146.057 348.858 146.383 345.021 147.496C337.654 149.631 331.295 152.761 330.212 154.785C329.508 156.1 330.61 155.848 335.213 153.639C341.298 150.718 352.239 147.951 357.823 147.92C359.568 147.911 363.279 148.43 366.069 149.074C368.858 149.718 371.331 150.054 371.564 149.822C371.796 149.589 372.297 148.162 372.676 146.651C373.391 143.803 371.825 142.7 370.812 145.338ZM395.649 144.832C391.354 145.868 387.997 147.848 388.674 148.944C389.019 149.501 390.713 149.276 392.825 148.394C394.787 147.574 398.868 146.903 401.894 146.903C406.669 146.903 407.23 146.705 406.149 145.403C404.845 143.832 400.722 143.607 395.649 144.832ZM498.583 150.314C498.952 152.773 498.829 154.983 498.306 155.306C497.789 155.625 495.242 154.947 492.645 153.798C487.498 151.521 481.094 151.76 477.536 154.362C475.138 156.115 476.315 157.42 478.998 155.984C482.537 154.09 488.914 154.776 495.421 157.75C502.191 160.845 506.34 164.455 508.351 168.997C509.878 172.447 511.404 172.831 510.962 169.653C510.674 167.583 511.089 167.38 516.151 167.111C520.384 166.885 524.446 167.722 533.77 170.74C551.091 176.347 560.496 182.848 570.398 196.058C572.979 199.501 574.204 202.493 575.106 207.558C576.824 217.198 577.215 218.413 578.128 216.937C579.304 215.034 575.682 200.482 572.839 195.69C569.592 190.216 560.663 180.903 558.662 180.903C557.819 180.903 556.346 179.968 555.389 178.825C552.709 175.623 546.408 172.248 535.554 168.2C527.301 165.122 524.231 164.477 517.149 164.333C508.937 164.166 508.527 164.044 505.039 160.731C502.011 157.854 501.314 156.383 500.717 151.602C500.326 148.468 499.536 145.903 498.963 145.903C498.299 145.903 498.161 147.499 498.583 150.314ZM451.649 151.93C449.999 152.383 445.949 153.501 442.649 154.417C433.065 157.074 421.701 163.531 415.007 170.122C407.963 177.058 407.858 179.319 414.885 172.746C426.11 162.247 443.7 154.977 459.899 154.141C466.869 153.782 469.149 153.324 469.149 152.284C469.149 151.227 467.448 150.927 461.899 151.005C457.911 151.062 453.299 151.478 451.649 151.93ZM505.952 154.464C505.482 158.491 506.607 160.053 507.522 156.642C508.394 153.386 508.28 150.903 507.258 150.903C506.769 150.903 506.181 152.505 505.952 154.464ZM374.159 154.391C373.192 155.557 372.555 155.655 371.523 154.799C370.637 154.063 366.761 153.812 360.406 154.078C352.34 154.416 349.609 154.974 344.649 157.298C341.349 158.843 335.884 160.704 332.505 161.431C327.092 162.597 318.149 166.27 318.149 167.327C318.149 167.538 320.424 166.846 323.205 165.79C328.54 163.762 335.791 162.676 342.959 162.831C347.205 162.922 352.95 165.262 358.457 169.143C361.655 171.397 363.514 170.692 360.576 168.339C357.545 165.912 346.853 160.905 344.699 160.904C341.228 160.902 344.395 159.123 350.793 157.48C357.261 155.82 363.79 155.481 369.05 156.533C371.736 157.07 372.091 157.476 371.457 159.283C371.048 160.449 370.693 162.922 370.669 164.778C370.63 167.757 370.158 168.345 366.637 169.792C356.261 174.058 344.792 182.825 341.657 188.888C340.787 190.57 342.776 189.077 346.957 184.908C354.83 177.058 364.335 171.974 377.132 168.768C386.469 166.429 395.962 166.604 405.896 169.298C408.929 170.12 411.381 170.336 411.707 169.81C412.519 168.496 407.979 167.007 398.728 165.552C392.002 164.495 390.984 164.102 392.649 163.209C393.749 162.618 396.562 161.818 398.899 161.431C401.236 161.044 403.149 160.286 403.149 159.748C403.149 159.209 402.361 159.007 401.399 159.298C400.437 159.59 397.704 160.255 395.327 160.776C392.951 161.296 390.251 162.383 389.327 163.191C387.592 164.709 381.149 166.059 381.149 164.904C381.149 163.477 385.94 159.882 390.661 157.765C394.015 156.261 397.695 155.508 401.894 155.466C408.387 155.4 410.037 154.415 405.542 153.287C402.398 152.498 392.978 154.465 388.149 156.918C386.224 157.896 382.943 160.543 380.859 162.8C377.291 166.662 373.069 168.201 371.777 166.11C371.507 165.674 372.367 162.66 373.687 159.412C376.186 153.263 376.325 151.781 374.159 154.391ZM310.643 159.248C304.444 165.717 304.975 166.978 311.341 160.906C314.197 158.182 316.219 155.64 315.835 155.256C315.451 154.872 313.115 156.668 310.643 159.248ZM449.649 160.982C445.249 162.04 439.849 163.671 437.649 164.606C428.661 168.429 416.149 177.646 416.149 180.444C416.149 181.076 417.871 179.976 419.976 177.998C425.711 172.61 436.87 167.118 447.854 164.278C456.147 162.133 458.979 161.838 466.321 162.354C471.283 162.702 475.238 162.567 475.566 162.038C477.394 159.08 460.434 158.389 449.649 160.982ZM479.801 160.611C477.669 161.73 477.239 162.393 478.092 163.246C478.946 164.1 479.411 164.097 479.943 163.236C481.07 161.412 487.685 160.595 491.4 161.821C493.26 162.435 496.69 164.771 499.024 167.014C502.676 170.522 503.178 171.495 502.628 173.997C501.919 177.229 503.126 177.784 505.563 175.346C506.973 173.936 506.962 173.534 505.447 171.096C502.561 166.45 500.933 164.926 495.594 161.871C489.807 158.561 484.51 158.138 479.801 160.611ZM19.1491 162.512C10.2781 165.124 1.0531 169.692 0.342105 171.825C0.114105 172.509 1.6651 172 3.7881 170.695C12.4601 165.365 22.7911 162.378 36.1491 161.338C40.8241 160.974 44.8361 160.502 45.0661 160.29C45.2951 160.077 41.4701 159.927 36.5661 159.956C30.1071 159.995 25.3051 160.699 19.1491 162.512ZM47.6591 161.919C48.0051 162.478 48.7061 162.677 49.2181 162.36C50.6051 161.503 50.3471 160.903 48.5901 160.903C47.7331 160.903 47.3141 161.36 47.6591 161.919ZM20.9101 167.32C16.1041 168.545 11.8661 169.853 11.4931 170.225C10.4081 171.311 12.3821 171.033 20.7721 168.918C25.1051 167.827 30.7601 166.927 33.3401 166.918C35.9201 166.91 38.3091 166.453 38.6491 165.903C39.7061 164.192 30.2031 164.951 20.9101 167.32ZM163.149 165.989C154.742 167.61 142.899 174.326 136.765 180.951C130.807 187.386 130.227 188.612 132.692 189.558C134.651 190.309 136.007 189.051 134.345 188.024C132.235 186.72 144.127 176.315 152.09 172.498C161.443 168.016 173.486 166.136 183.204 167.64C195.2 169.497 203.31 174.33 212.168 184.903L214.262 187.403L213.07 184.965C210.964 180.659 202.831 172.776 197.936 170.295C188.132 165.327 175.011 163.703 163.149 165.989ZM40.6491 166.903C40.3091 167.453 40.5081 167.903 41.0901 167.903C41.6721 167.903 42.1491 167.453 42.1491 166.903C42.1491 166.353 41.9511 165.903 41.7081 165.903C41.4651 165.903 40.9891 166.353 40.6491 166.903ZM323.709 168.925C320.993 169.986 318.068 171.566 317.209 172.437C316.075 173.588 317.013 173.417 320.649 171.812C324.179 170.254 328.342 169.468 334.807 169.139C343.064 168.718 344.514 168.924 349.538 171.224C352.603 172.627 355.349 173.389 355.64 172.917C355.932 172.445 353.636 170.899 350.539 169.481C343.329 166.18 331.374 165.932 323.709 168.925ZM458.649 167.92C454.249 168.321 448.098 169.559 444.981 170.671C438.886 172.846 430.149 178.353 430.149 180.019C430.149 180.58 431.502 180.076 433.155 178.898C442.401 172.315 460.521 168.832 475.348 170.788C485.689 172.153 498.752 178.366 503.443 184.153C505.116 186.216 506.858 187.903 507.316 187.903C509.095 187.903 507.982 185.677 504.093 181.458C498.085 174.94 485.955 169.272 475.175 167.946C470.515 167.372 466.69 166.968 466.675 167.047C466.661 167.126 463.049 167.519 458.649 167.92ZM42.1491 169.903C42.1491 170.453 43.3041 170.903 44.7151 170.903C46.1261 170.903 48.1511 171.369 49.2151 171.938C50.5621 172.659 51.1491 172.651 51.1491 171.913C51.1491 170.696 46.9411 168.903 44.0841 168.903C43.0201 168.903 42.1491 169.353 42.1491 169.903ZM302.39 170.889C301.17 172.842 300.592 178.793 301.732 177.653C302.053 177.332 302.269 176.802 302.212 176.476C302.155 176.149 302.793 174.559 303.629 172.942C304.465 171.325 305.149 169.755 305.149 169.453C305.149 168.203 303.546 169.038 302.39 170.889ZM388.149 170.601C374.916 172.324 367.672 174.881 359.939 180.557C354.23 184.748 354.098 186.247 359.782 182.351C372.213 173.83 387.58 171.17 405.026 174.519C409.367 175.352 408.954 172.836 404.581 171.802C400.689 170.881 391.276 170.193 388.149 170.601ZM512.525 172.102C511.773 173.32 519.184 174.194 521.465 173.156C523.302 172.32 522.8 172.102 518.303 171.783C515.363 171.574 512.763 171.718 512.525 172.102ZM56.1491 172.235C56.1491 172.417 58.4551 174.06 61.2721 175.886C64.9641 178.278 66.9901 180.491 68.5221 183.804C70.4201 187.908 74.1491 190.654 74.1491 187.947C74.1491 187.373 73.5231 186.903 72.7571 186.903C71.9921 186.903 71.0921 185.813 70.7581 184.48C69.8681 180.936 65.4531 176.099 61.0631 173.859C57.3191 171.949 56.1491 171.562 56.1491 172.235ZM459.149 175.115C449.981 176.74 451.333 177.759 461.886 177.178C470.894 176.681 472.684 176.895 480.597 179.415C494.647 183.889 503.532 192.26 509.664 206.799C513.758 216.505 515.022 220.937 516.682 231.403L517.951 239.403L518.05 233.903C518.163 227.604 516.165 217.131 513.538 210.251C512.268 206.926 512.077 205.427 512.888 205.157C513.52 204.946 515.619 203.516 517.553 201.98C522.131 198.341 529.163 196.305 531.967 197.806C533.095 198.409 535.06 198.915 536.333 198.929C537.607 198.943 541.687 199.99 545.399 201.255C549.111 202.52 552.149 203.388 552.149 203.183C552.149 202.141 541.032 197.841 536.899 197.285C534.287 196.933 532.149 196.253 532.149 195.774C532.149 194.132 524.07 194.903 520.109 196.923C517.931 198.035 516.149 199.312 516.149 199.763C516.149 200.454 514.053 201.762 509.76 203.751C509.271 203.977 509.181 203.66 509.56 203.047C510.573 201.407 505.797 193.832 500.101 188.046C494.295 182.148 485.082 177.42 475.395 175.367C467.818 173.762 466.87 173.747 459.149 175.115ZM157.223 175.78C153.595 176.794 153.198 179.171 156.801 178.308C160.39 177.449 161.149 177.019 161.149 175.844C161.149 174.801 160.749 174.795 157.223 175.78ZM326.521 176.741C320.768 178.729 316.149 181.47 316.149 182.896C316.149 183.417 317.684 182.801 319.561 181.528C321.437 180.254 325.149 178.626 327.811 177.91C332.745 176.582 335.78 174.875 333.099 174.936C332.301 174.954 329.341 175.766 326.521 176.741ZM20.6411 178.405C10.2141 179.962 0.149105 183.417 0.149105 185.439C0.149105 186.523 1.2031 186.354 4.8991 184.679C8.6461 182.982 11.6561 182.514 19.1491 182.465C24.3741 182.431 29.9451 182.804 31.5291 183.294C33.8111 184 34.3141 183.896 33.9521 182.794C33.6911 182.002 31.5881 181.182 29.0711 180.891C24.8881 180.407 24.8031 180.337 27.5041 179.596C32.3991 178.252 50.0891 181.672 53.3411 184.59C54.2721 185.425 55.5881 185.923 56.2651 185.698C58.4661 184.964 51.7841 181.121 45.6101 179.569C36.2971 177.228 30.3741 176.952 20.6411 178.405ZM514.149 178.903C514.149 179.453 516.062 179.909 518.399 179.917C520.736 179.924 523.774 180.154 525.149 180.428C527.356 180.866 527.297 180.753 524.649 179.459C521.217 177.782 514.149 177.408 514.149 178.903ZM539.364 181.403C541.387 182.778 543.629 183.901 544.346 183.898C545.805 183.892 538.21 178.983 536.667 178.934C536.127 178.917 537.34 180.028 539.364 181.403ZM145.349 181.103C143.437 183.015 143.959 184.038 146.149 182.671C148.169 181.409 148.822 179.903 147.349 179.903C146.909 179.903 146.009 180.443 145.349 181.103ZM383.835 181.86C380.088 182.871 376.713 184.025 376.335 184.424C375.958 184.824 376.549 184.905 377.649 184.603C389.121 181.457 402.649 181.636 402.649 184.935C402.649 186.054 400.746 186.545 394.649 186.999C390.249 187.327 385.349 188.127 383.76 188.777C379.226 190.632 381.214 190.992 386.696 189.308C391.782 187.745 398.454 188.081 400.787 190.018C402.336 191.303 404.927 186.455 404.396 183.267C403.762 179.467 394.949 178.864 383.835 181.86ZM520.149 184.903C520.149 185.453 520.808 185.903 521.614 185.903C522.42 185.903 525.149 186.606 527.679 187.465C534.071 189.635 535.472 188.745 529.834 186.095C524.941 183.795 520.149 183.205 520.149 184.903ZM6.6491 186.464C3.8991 187.207 1.3121 187.835 0.899105 187.859C0.486105 187.883 0.149105 188.531 0.149105 189.298C0.149105 190.43 1.3301 190.32 6.3991 188.717C10.6581 187.37 14.1621 186.911 17.3991 187.275C20.1161 187.58 22.1491 187.401 22.1491 186.856C22.1491 186.332 21.3611 185.857 20.3991 185.802C19.4371 185.746 17.0741 185.568 15.1491 185.407C13.2241 185.245 9.3991 185.721 6.6491 186.464ZM137.865 187.807C136.921 189.405 136.151 191.092 136.154 191.557C136.16 192.569 141.061 186.734 141.113 185.653C141.195 183.948 139.467 185.094 137.865 187.807ZM101.399 187.022C99.6121 187.538 98.1491 188.082 98.1491 188.231C98.1491 188.379 102.832 188.479 108.557 188.452C118.755 188.404 119.059 188.469 123.667 191.71C128.876 195.374 130.75 195.236 127.193 191.45C122.698 186.665 110.116 184.505 101.399 187.022ZM60.1491 187.722C60.1491 188.93 62.0461 190.339 62.7401 189.646C62.9911 189.394 62.5111 188.619 61.6731 187.923C60.7231 187.134 60.1491 187.058 60.1491 187.722ZM10.6491 191.55C5.41311 192.19 0.149105 193.946 0.149105 195.052C0.149105 195.74 1.1281 195.842 2.8991 195.339C4.4121 194.909 8.1241 194.298 11.1491 193.981C14.1741 193.663 16.5601 192.953 16.4521 192.403C16.2231 191.244 14.8301 191.039 10.6491 191.55ZM56.2541 192.907C51.6361 193.981 47.6241 195.095 47.3371 195.382C46.0281 196.691 48.2371 196.709 54.3031 195.44C72.2941 191.676 84.9471 192.605 96.2221 198.518C105.333 203.296 116.3 213.559 120.699 221.425C124.159 227.612 124.214 227.875 122.579 230.37L120.894 232.94L117.55 225.172C111.669 211.508 98.3001 200.978 83.5901 198.424C79.4951 197.712 73.7831 197.342 70.8961 197.599C65.8131 198.054 60.3501 200.438 61.5791 201.666C61.9111 201.998 62.7151 201.737 63.3661 201.086C65.1361 199.316 80.3251 199.608 86.9951 201.542C98.4111 204.851 110.405 215.193 116.376 226.877L120.102 234.17L117.34 238.286C114.776 242.107 114.17 242.447 108.902 243.017C101.791 243.786 92.9081 248.059 89.4751 252.362L86.8531 255.647L81.5261 253.775C78.5961 252.746 75.5241 251.903 74.7001 251.903C73.8751 251.903 72.5491 250.665 71.7531 249.153C69.6481 245.153 61.3781 237.476 55.9571 234.488C50.9251 231.716 50.1491 231.473 50.1491 232.672C50.1491 233.095 52.9431 234.977 56.3581 236.855C62.3051 240.124 71.1491 247.845 71.1491 249.767C71.1491 251.229 64.0141 251.716 63.4681 250.292C63.2071 249.613 62.2911 248.788 61.4301 248.457C60.1351 247.96 60.0821 248.117 61.1201 249.368C62.1441 250.602 62.0801 250.992 60.7671 251.496C57.4651 252.763 60.4911 253.903 67.1561 253.903C72.3731 253.903 76.1561 254.667 82.7451 257.051C87.5301 258.783 92.2411 260.995 93.2141 261.968C94.1871 262.941 95.2011 263.517 95.4691 263.25C97.0701 261.648 115.739 274.093 118.335 278.493C119.441 280.368 120.66 281.903 121.042 281.903C121.425 281.903 121.846 278.96 121.979 275.363C122.232 268.524 125.723 257.105 129.425 251.014C130.834 248.694 131.05 247.769 130.11 248.083C129.354 248.335 127.954 249.86 127 251.472C124.725 255.314 120.149 269.33 120.149 272.455C120.149 273.801 119.861 274.903 119.508 274.903C119.155 274.903 116.745 273.285 114.152 271.307L109.437 267.712L110.666 261.82C114.083 245.447 121.09 233.095 133.937 220.795C139.045 215.904 142.798 211.903 142.277 211.903C140.692 211.903 131.528 219.562 129.199 222.833C127.997 224.522 126.645 225.903 126.195 225.903C125.745 225.903 124.665 224.44 123.794 222.653C118.798 212.394 107.672 201.434 96.5061 195.773C88.2001 191.561 87.9611 191.507 76.3751 191.233C67.4941 191.022 62.6121 191.429 56.2541 192.907ZM509.785 191.683C509.447 192.229 509.841 193.232 510.66 193.912C512.286 195.262 512.625 194.203 511.259 192.046C510.736 191.222 510.158 191.079 509.785 191.683ZM554.149 191.576C554.149 191.985 556.399 194.466 559.149 197.089C564.778 202.458 565.697 202.236 561.071 196.624C558.047 192.956 554.149 190.113 554.149 191.576ZM100.738 193.759C100.447 194.23 103.683 194.908 107.929 195.266C118.018 196.116 124.67 199.298 128.399 205.056C130.732 208.659 131.149 208.95 131.149 206.972C131.149 203.186 123.553 196.397 117.21 194.514C111.416 192.793 101.613 192.344 100.738 193.759ZM130.149 196.762C130.149 197.85 129.84 199.564 129.462 200.571C128.857 202.184 128.977 202.239 130.462 201.031C132.325 199.515 132.709 196.367 131.149 195.403C130.599 195.063 130.149 195.675 130.149 196.762ZM38.1491 198.63C28.1811 204.228 26.2101 205.935 22.9801 211.765L19.7121 217.664L13.8041 218.281C5.9621 219.101 0.149105 220.912 0.149105 222.537C0.149105 223.556 0.762105 223.62 2.8691 222.82C6.2261 221.543 27.5011 219.994 33.3531 220.599C55.7061 222.913 69.5581 230.865 77.0341 245.675C78.7231 249.02 80.4831 251.991 80.9451 252.277C82.0671 252.971 91.3471 248.617 95.5041 245.446C99.3411 242.519 104.184 234.224 104.073 230.768C104.003 228.604 103.897 228.657 102.821 231.403C99.7731 239.176 96.1061 243.522 89.0311 247.744C85.2271 250.014 81.6601 250.539 80.6921 248.972C80.3751 248.46 80.5741 247.759 81.1331 247.413C82.7101 246.438 82.3301 244.62 80.6811 245.252C77.8581 246.336 77.9191 243.661 80.7721 241.279L83.6491 238.877L80.9031 240.049C78.5891 241.036 77.8421 240.935 76.1531 239.407C73.5951 237.092 73.6071 235.903 76.1891 235.903C82.1571 235.903 90.1371 228.538 90.1451 223.021C90.1501 219.975 86.8221 214.574 83.6671 212.506C80.1761 210.219 73.6251 210.427 71.1491 212.903C67.5131 216.539 68.9981 223.146 73.7181 224.331C76.8371 225.114 79.1491 223.508 79.1491 220.558V218.458L77.6851 220.549C76.6431 222.036 75.4891 222.499 73.6851 222.155C71.5721 221.751 71.1491 221.112 71.1491 218.322C71.1491 214.393 73.2141 212.903 78.6601 212.903C83.4751 212.903 88.1491 217.346 88.1491 221.922C88.1491 232.078 75.9401 237.692 68.8451 230.798C64.9451 227.009 51.0771 220.235 45.3431 219.318C43.0361 218.949 41.1491 218.225 41.1491 217.709C41.1491 216.233 43.2081 212.613 45.4451 210.157C46.5701 208.922 47.2021 207.622 46.8491 207.27C45.9101 206.331 40.2291 212.735 39.5301 215.52C38.7901 218.468 34.1491 218.99 34.1491 216.126C34.1491 214.143 36.6231 210.065 38.9861 208.153C40.3711 207.033 40.3721 206.903 38.9951 206.903C36.7841 206.903 34.2091 210.102 33.0541 214.285C32.0601 217.884 32.0261 217.903 26.5451 217.903H21.0361L22.8421 214.834C26.4491 208.707 30.4711 204.768 36.0031 201.946C39.1081 200.361 42.5491 198.368 43.6491 197.516C46.8811 195.012 43.2991 195.738 38.1491 198.63ZM4.3991 199.565C2.0611 200.393 0.149105 201.641 0.149105 202.339C0.149105 203.272 1.7381 203.051 6.1491 201.506C11.9761 199.464 13.9581 197.821 10.3991 197.982C9.43611 198.025 6.7371 198.738 4.3991 199.565ZM373.149 198.903C372.324 199.436 370.637 199.879 369.399 199.888C368.161 199.896 367.149 200.409 367.149 201.028C367.149 201.785 368.212 201.907 370.399 201.4C373.228 200.744 375.895 200.331 379.649 199.969C381.141 199.825 377.889 197.934 376.149 197.934C375.324 197.934 373.974 198.37 373.149 198.903ZM534.149 203.763C534.149 204.236 536.511 204.873 539.399 205.177C542.287 205.482 546.851 206.682 549.543 207.843C553.081 209.37 554.095 209.543 553.202 208.467C550.388 205.076 534.149 201.067 534.149 203.763ZM56.4391 205.868C53.4291 207.703 48.1211 215.903 49.9431 215.903C50.4031 215.903 51.5371 214.313 52.4641 212.369C53.3901 210.426 55.7241 207.906 57.6491 206.771C59.5741 205.635 61.1491 204.525 61.1491 204.304C61.1491 203.449 59.5191 203.99 56.4391 205.868ZM565.149 205.453C565.149 205.755 565.833 207.325 566.669 208.942C567.505 210.559 568.143 212.149 568.086 212.476C568.029 212.802 568.245 213.332 568.566 213.653C569.781 214.868 569.024 208.323 567.757 206.653C566.464 204.949 565.149 204.344 565.149 205.453ZM3.3991 207.011C1.5521 207.55 0.149105 208.624 0.149105 209.499C0.149105 210.652 0.713105 210.848 2.3991 210.281C3.6371 209.865 5.7741 209.458 7.1491 209.376C8.5541 209.293 9.64911 208.615 9.64911 207.829C9.64911 206.067 7.5641 205.794 3.3991 207.011ZM69.1391 208.153C65.0421 210.942 61.7631 215.251 62.3701 217.049C62.6511 217.884 63.4831 217.139 64.5361 215.109C69.2981 205.935 82.9591 205.544 89.7051 214.388C92.8491 218.509 92.8251 222.909 89.6221 229.79C87.7401 233.833 87.5311 234.831 88.7861 233.79C91.3901 231.631 93.1491 226.448 93.1491 220.935C93.1491 216.389 92.7591 215.513 89.1091 211.863C86.8871 209.641 83.9331 207.391 82.5441 206.863C78.2151 205.217 72.6681 205.751 69.1391 208.153ZM150.149 207.403C148.547 208.319 148.209 208.845 149.208 208.868C150.065 208.887 151.64 208.242 152.708 207.435C155.194 205.555 153.421 205.533 150.149 207.403ZM283.333 212.653C282.846 213.616 281.914 217.103 281.264 220.403C279.798 227.837 281.462 236.152 284.532 236.74C286.174 237.055 286.303 236.735 285.542 234.252C284.444 230.669 284.457 218.457 285.563 214.153C286.478 210.597 284.909 209.542 283.333 212.653ZM536.357 211.411C537.308 212.407 550.541 216.835 551.054 216.328C551.655 215.732 543.177 212.214 539.149 211.388C537.224 210.993 535.968 211.003 536.357 211.411ZM7.7121 213.012C2.2901 213.803 -0.887895 215.2 0.219105 216.306C1.2301 217.317 15.1491 214.404 15.1491 213.182C15.1491 212.478 14.8111 211.958 14.3991 212.025C13.9871 212.092 10.9771 212.536 7.7121 213.012ZM519.274 215.519C519.48 216.132 522.081 219.282 525.054 222.519C528.784 226.58 529.972 227.473 528.886 225.403C527.315 222.406 518.564 213.407 519.274 215.519ZM569.181 216.403C569.164 217.503 570.95 221.328 573.149 224.903C577.057 231.255 577.148 231.614 577.148 240.646C577.149 249.482 575.082 257.903 572.913 257.903C572.493 257.903 572.149 258.841 572.149 259.986C572.149 262.253 574.055 262.165 575.244 259.843C579.016 252.483 579.388 250.467 578.947 239.755C578.519 229.386 578.365 228.755 575.325 224.972C573.578 222.799 572.149 220.405 572.149 219.653C572.149 218.901 571.488 217.412 570.681 216.344C569.232 214.429 569.212 214.43 569.181 216.403ZM286.682 219.213C285.624 223.026 286.601 230.783 288.36 232.543C289.149 233.331 290.538 233.691 291.447 233.342C292.976 232.755 292.971 232.473 291.377 229.556C290.429 227.822 289.16 224.153 288.557 221.403C287.522 216.679 287.418 216.558 286.682 219.213ZM138.79 223.497C135.568 226.534 133.222 229.309 133.577 229.664C133.932 230.019 137.014 227.518 140.426 224.106C148.104 216.428 146.805 215.944 138.79 223.497ZM234.207 223.153C230.439 227.067 228.235 231.322 229.382 232.469C229.642 232.729 231.383 230.595 233.252 227.726C237.071 221.863 240.028 220.518 246.905 221.515C252.176 222.279 259.528 227.682 260.985 231.864C262.326 235.709 263.149 235.742 263.149 231.951C263.149 229.861 262.054 227.925 259.399 225.319C254.554 220.563 250.505 218.903 243.756 218.903C238.645 218.903 238.04 219.172 234.207 223.153ZM97.9351 225.317C96.7971 231.56 92.1661 239.729 88.4711 242.013C85.0371 244.135 83.6691 246.766 86.8991 245.036C93.1371 241.694 99.4661 231.216 98.9551 225.076L98.6491 221.403L97.9351 225.317ZM241.728 227.448L237.807 230.91L240.152 233.407C241.442 234.78 243.544 235.903 244.823 235.903C246.713 235.903 247.134 235.387 247.07 233.153C247.027 231.641 246.764 230.966 246.487 231.653C245.786 233.39 243.208 233.219 242.506 231.39C241.696 229.281 243.939 226.903 246.738 226.903C249.818 226.903 256.149 233.242 256.149 236.326C256.149 237.621 255.289 239.744 254.237 241.042C252.698 242.942 251.422 243.384 247.705 243.306C242.34 243.194 241.877 245.215 247.149 245.729C251.31 246.135 254.314 244.586 256.48 240.92C259.878 235.167 257.177 228.066 250.532 225.29C246.169 223.467 246.264 223.443 241.728 227.448ZM31.6491 225.903C31.3091 226.453 31.7331 226.903 32.5901 226.903C33.4471 226.903 34.1491 226.453 34.1491 225.903C34.1491 225.353 33.7261 224.903 33.2081 224.903C32.6901 224.903 31.9891 225.353 31.6491 225.903ZM18.3711 228.373C13.9331 229.758 8.9851 233.024 3.3991 238.253C-1.8769 243.192 -0.313895 243.303 5.6861 238.416C12.2181 233.096 17.3421 230.333 22.4571 229.373C24.5001 228.99 26.4181 228.277 26.7191 227.79C27.5021 226.523 23.3701 226.812 18.3711 228.373ZM189.633 228.372C180.798 229.718 174.149 231.635 174.149 232.834C174.149 233.261 176.512 232.977 179.399 232.203C182.286 231.43 188.699 230.549 193.649 230.247C204.311 229.596 214.457 231.903 225.4 237.469C232.799 241.233 233.149 241.344 233.149 239.945C233.149 237.326 218.888 231.091 208.149 229.014C198.116 227.074 198.142 227.075 189.633 228.372ZM29.6491 231.837C27.9991 232.243 24.8491 233.485 22.6491 234.597C20.4491 235.709 17.4851 236.898 16.0611 237.239C12.4641 238.101 8.4571 241.455 5.5831 246.008C2.9721 250.144 2.7141 250.903 3.9221 250.903C4.3471 250.903 5.5291 249.352 6.5501 247.456C7.5711 245.561 9.54611 242.973 10.9391 241.706C12.3321 240.44 13.1471 239.966 12.7511 240.653C11.7771 242.344 13.6181 242.247 15.0411 240.533C15.6661 239.78 18.9841 237.885 22.4141 236.323C28.3611 233.613 31.8741 233.116 46.3991 232.926C47.3611 232.913 48.1491 232.55 48.1491 232.119C48.1491 231.101 33.5471 230.878 29.6491 231.837ZM107.307 233.903C107.307 235.278 107.534 235.841 107.811 235.153C108.089 234.466 108.089 233.341 107.811 232.653C107.534 231.966 107.307 232.528 107.307 233.903ZM127.093 237.653C126.326 239.165 124.723 241.618 123.531 243.103C117.925 250.082 113.204 270.372 116.891 271.638C117.818 271.956 117.974 270.906 117.506 267.488C116.746 261.949 120.333 251.155 125.701 242.822C128.671 238.212 129.974 234.903 128.818 234.903C128.636 234.903 127.86 236.141 127.093 237.653ZM32.3991 237.559C28.9621 238.374 26.1491 239.49 26.1491 240.04C26.1491 240.589 26.9371 240.802 27.8991 240.514C33.9141 238.713 43.2161 237.827 46.5251 238.741C49.8431 239.657 51.4871 238.848 49.1911 237.429C47.0421 236.101 38.2641 236.169 32.3991 237.559ZM262.149 238.903C262.149 240.553 262.599 241.903 263.149 241.903C263.699 241.903 264.149 240.553 264.149 238.903C264.149 237.253 263.699 235.903 263.149 235.903C262.599 235.903 262.149 237.253 262.149 238.903ZM287.068 238.843C279.831 243.652 270.149 254.925 270.149 258.543C270.149 261.31 273.3 259.787 274.749 256.318C276.359 252.465 283.49 244.996 288.236 242.193C290.9 240.619 292.941 237.361 291.909 236.33C291.676 236.097 289.498 237.228 287.068 238.843ZM306.219 240.218C304.915 243.647 304.916 243.523 306.204 248.162C307.268 251.992 311.223 255.593 313.096 254.436C313.744 254.035 313.361 252.756 312.069 251.009C310.936 249.476 309.884 246.659 309.733 244.749C309.581 242.839 308.969 240.405 308.373 239.34C307.356 237.522 307.224 237.575 306.219 240.218ZM584.191 240.903C584.037 241.728 583.994 242.827 584.095 243.345C584.195 243.863 583.393 246.788 582.314 249.845C581.234 252.902 580.065 257.058 579.718 259.082C579.37 261.105 578.257 263.782 577.246 265.032C575.495 267.194 575.322 267.219 573.659 265.556C570.883 262.78 571.025 264.045 574.196 270.33C579.023 279.901 578.078 290.063 571.567 298.599C568.603 302.485 567.415 302.719 566.23 299.653C565.752 298.415 564.218 296.34 562.821 295.041C560.299 292.695 560.294 292.663 562.222 290.594C565.999 286.54 567.184 277.995 564.724 272.554C563.94 270.821 563.135 266.478 562.935 262.903C562.724 259.129 561.749 254.748 560.61 252.457C557.506 246.212 556.056 247.097 558.694 253.627C561.621 260.875 561.439 270.537 558.263 276.526C555.933 280.92 550.687 286.903 549.163 286.903C547.009 286.903 548.286 288.72 550.899 289.372C558.443 291.255 566.149 301.223 566.149 309.099C566.149 311.741 565.699 313.903 565.149 313.903C564.599 313.903 564.139 312.665 564.127 311.153C564.089 306.441 560.552 300.207 556.075 296.965C551.849 293.903 547.813 293.02 546.649 294.903C546.309 295.453 547.016 295.903 548.222 295.903C553.501 295.903 560.836 303.199 561.852 309.46C562.385 312.744 562.272 312.903 559.405 312.903C555.156 312.903 550.149 314.008 550.149 314.946C550.149 315.382 553.187 315.939 556.899 316.183C569.51 317.012 579.92 321.295 588.858 329.331C594.115 334.057 600.149 342.204 600.149 344.574C600.149 346.976 597.078 345.961 595.847 343.153C593.679 338.207 591.092 335.102 585.621 330.881C576.288 323.681 561.089 319.07 554.731 321.51C551.397 322.789 553.421 323.698 560.399 324.057C569.999 324.549 580.745 329.534 588.591 337.133C594.758 343.106 595.522 345.353 591.5 345.686C589.494 345.852 587.736 344.745 584.25 341.122C577.295 333.892 571.451 331.403 561.434 331.403C554.805 331.403 552.875 331.755 551.434 333.226C549.711 334.986 549.788 335.02 553.649 334.227C564.329 332.032 576.801 336.174 583.667 344.195C587.22 348.346 587.237 348.41 584.969 348.946C583.333 349.332 583.04 349.717 583.953 350.282C584.659 350.718 585.779 350.637 586.443 350.102C590.645 346.713 604.072 348.438 618.149 354.176C627.495 357.985 633.557 361.896 638.416 367.251C640.8 369.879 642.452 370.999 642.916 370.303C645.659 366.185 659.632 365.304 669.399 368.633C676.225 370.959 677.089 369.649 670.617 366.786C664.032 363.873 653.548 363.215 647.134 365.313L641.974 367.001L637.656 363.202C635.281 361.113 633.295 359.068 633.243 358.659C633.068 357.274 641.329 351.979 647.004 349.841C650.109 348.671 655.799 347.13 659.649 346.416C666.192 345.204 666.355 345.113 662.149 345.023C653.688 344.842 639.885 350.076 634.426 355.535C632.067 357.894 631.842 357.932 629.458 356.37L626.96 354.733L629.305 352.223C632.791 348.491 643.722 342.289 652.185 339.242C658.445 336.988 661.31 336.552 669.95 336.541C678.845 336.53 679.937 336.354 677.95 335.251C676.684 334.548 672.34 333.958 668.297 333.938C655.544 333.877 637.096 341.367 628.155 350.236C624.825 353.539 624.532 353.635 621.905 352.277C620.389 351.493 619.149 350.554 619.149 350.19C619.149 346.556 644.265 332.231 655.609 329.394C662.058 327.781 675.078 327.493 681.899 328.812C684.236 329.264 686.149 329.316 686.149 328.927C686.149 327.554 677.558 325.617 670.149 325.319C660.432 324.929 654.838 326.062 644.272 330.563C634.005 334.935 627.385 339.009 620.764 345.029L615.879 349.471L609.307 347.817C603.584 346.376 602.614 345.791 601.794 343.283C600.608 339.657 596.315 333.388 592.095 329.121C588.912 325.902 588.875 325.763 590.181 321.806C593.163 312.77 606.373 302.922 615.559 302.888C618.568 302.876 619.253 302.616 618.149 301.903C613.663 299.004 603.298 302.42 596.541 309.025L592.433 313.041L591.824 309.285C591.092 304.778 591.887 303.664 598.555 299.856C602.373 297.675 603.163 296.846 601.888 296.356C600.856 295.961 598.464 296.899 595.633 298.809C590.205 302.473 590.149 302.483 590.149 299.862C590.149 298.495 591.792 296.799 595.125 294.727C597.862 293.026 599.86 291.245 599.566 290.769C598.641 289.272 596.777 289.862 592.708 292.94C590.541 294.58 588.409 295.563 587.972 295.126C585.389 292.543 580.389 282.561 579.334 277.881C578.655 274.868 577.701 271.767 577.215 270.99C576.621 270.042 577.149 268.28 578.82 265.633C580.189 263.463 581.542 260.049 581.826 258.046C582.11 256.042 583.007 252.562 583.821 250.312C584.634 248.062 585.113 244.687 584.884 242.812C584.656 240.937 584.344 240.078 584.191 240.903ZM549.649 241.903C549.989 242.453 550.69 242.903 551.208 242.903C551.726 242.903 552.149 242.453 552.149 241.903C552.149 241.353 551.447 240.903 550.59 240.903C549.733 240.903 549.309 241.353 549.649 241.903ZM38.4591 242.975C32.8841 243.69 27.4411 245.529 28.3151 246.402C28.5001 246.587 31.1121 246.101 34.1181 245.321C41.0891 243.513 44.8461 243.532 50.1491 245.403C55.0161 247.12 56.1491 247.244 56.1491 246.061C56.1491 245.33 50.7181 243.384 46.1491 242.478C45.3241 242.314 41.8631 242.538 38.4591 242.975ZM18.1221 244.595C15.5611 246.347 14.0241 248.111 14.5761 248.663C15.0661 249.153 22.0591 244.502 22.1071 243.653C22.1751 242.448 20.7751 242.779 18.1221 244.595ZM172.899 243.592C169.98 244.355 170.941 245.99 173.899 245.293C177.349 244.48 179.272 242.86 176.599 243.019C175.526 243.083 173.862 243.341 172.899 243.592ZM101.4 246.394C96.2091 248.65 89.1491 253.87 89.1491 255.451C89.1491 257.54 90.8251 257.246 94.4661 254.517C98.8541 251.228 105.672 247.903 108.027 247.903C110.676 247.903 113.149 246.885 113.149 245.796C113.149 244.407 105.019 244.82 101.4 246.394ZM282.112 250.702C275.442 257.189 274.694 259.367 279.023 259.697C281.323 259.872 282.596 259.064 285.39 255.653C289.006 251.241 291.247 244.903 289.192 244.903C288.578 244.903 285.392 247.513 282.112 250.702ZM311.149 247.377C311.149 248.188 312.576 249.589 314.319 250.491L317.489 252.13L315.069 249.072C312.388 245.684 311.149 245.148 311.149 247.377ZM515.044 252.725C519.932 259.786 521.44 265.791 520.952 276.257C520.652 282.711 519.899 286.801 518.394 290.153C516.041 295.394 513.549 296.657 514.448 292.153C515.939 284.678 516.362 276.903 515.278 276.903C514.623 276.903 514.149 278.623 514.149 280.999C514.149 287.484 511.351 295.903 509.196 295.903C507.532 295.903 507.493 295.599 508.723 292.153C510.316 287.689 510.613 279.498 509.149 280.403C508.599 280.743 508.139 282.682 508.127 284.712C508.103 288.714 504.847 296.903 503.28 296.903C502.748 296.903 501.626 296.64 500.788 296.318C499.426 295.795 499.432 295.378 500.838 292.429C503.385 287.088 501.906 282.287 496.06 276.914C491.978 273.163 490.393 272.354 486.65 272.113C484.015 271.943 482.149 272.254 482.149 272.863C482.149 273.435 483.274 273.97 484.649 274.053C486.024 274.136 487.712 274.248 488.399 274.303C489.087 274.358 490.521 275.191 491.588 276.153C492.654 277.115 494.047 277.903 494.683 277.903C497.264 277.903 499.149 281.599 499.149 286.66C499.149 294.554 495.211 297.339 491.222 292.268C489.714 290.352 489.149 290.079 489.149 291.265C489.149 292.163 490.823 294.75 492.868 297.014L496.587 301.13L494.133 303.117C492.307 304.596 490.718 304.974 487.914 304.598C485.205 304.235 484.149 304.464 484.149 305.415C484.149 307.238 486.056 307.708 489.922 306.839C494.178 305.882 498.149 303.247 498.149 301.38C498.149 300.535 499.112 299.873 500.399 299.834C501.637 299.796 503.819 299.609 505.248 299.418L507.847 299.072L506.495 304.737C504.993 311.027 506.019 321.817 508.591 326.791C510.544 330.567 512.392 341.521 511.648 344.908C511.306 346.463 510.374 347.986 509.576 348.293C507.4 349.128 503.513 346.996 502.281 344.293C501.665 342.941 500.329 341.903 499.206 341.903C495.783 341.903 494.767 345.588 494.957 357.309C495.068 364.117 494.715 368.721 494.019 369.559C493.165 370.589 493.279 370.903 494.508 370.903C496.679 370.903 497.175 368.052 496.89 357.199C496.697 349.824 496.971 347.672 498.269 346.365C499.766 344.858 500.074 344.911 502.328 347.069C503.669 348.353 505.637 349.9 506.701 350.508C508.368 351.459 508.446 351.84 507.27 353.258C505.219 355.729 503.721 355.257 502.386 351.719C501.725 349.968 500.935 348.783 500.632 349.087C499.996 349.723 501.65 357.737 502.617 358.704C503.789 359.877 508.519 356.44 511.983 351.899C515.382 347.441 515.39 347.409 514.521 340.416C513.471 331.969 513.805 312.231 515.085 307.099C515.592 305.066 517.428 299.353 519.166 294.403C525.365 276.74 524.194 261.514 515.951 252.613L512.052 248.403L515.044 252.725ZM20.1491 250.903C20.1491 251.453 20.5721 251.903 21.0901 251.903C21.6081 251.903 22.3091 251.453 22.6491 250.903C22.9891 250.353 22.5651 249.903 21.7081 249.903C20.8511 249.903 20.1491 250.353 20.1491 250.903ZM105.149 250.587C102.303 251.585 93.1491 257.328 93.1491 258.114C93.1491 259.449 95.5431 258.997 99.6881 256.879C101.866 255.765 105.297 254.589 107.312 254.265C109.749 253.873 111.14 253.044 111.469 251.789C111.864 250.279 111.433 249.919 109.305 249.982C107.844 250.025 105.974 250.298 105.149 250.587ZM52.8991 252.065C51.3861 252.618 50.1491 253.531 50.1491 254.095C50.1491 255.466 55.2271 254.185 57.1131 252.337C58.3991 251.078 58.3991 250.913 57.1131 250.982C56.3081 251.025 54.4121 251.513 52.8991 252.065ZM156.617 254.234C152.375 257.569 141.502 269.607 139.434 273.258C137.957 275.868 137.769 279.256 139.149 278.403C139.699 278.063 140.149 276.935 140.149 275.897C140.149 274.156 153.617 256.937 155.027 256.876C155.369 256.861 157.224 255.523 159.149 253.903C163.845 249.95 161.712 250.228 156.617 254.234ZM4.2281 253.762C2.3471 254.115 0.616105 254.985 0.381105 255.697C0.0611047 256.665 0.670105 256.796 2.8011 256.219C7.5891 254.922 27.1631 255.541 36.0011 257.268C45.2961 259.084 52.4731 261.92 55.8831 265.122C57.1251 266.289 58.4801 266.902 58.8951 266.484C59.8611 265.51 54.8771 261.478 49.3961 258.8C47.0571 257.657 45.4071 256.294 45.7301 255.772C46.0741 255.215 45.3101 255.075 43.8791 255.435C42.5381 255.771 38.2981 255.396 34.4571 254.601C27.2411 253.107 10.2411 252.636 4.2281 253.762ZM531.149 254.782C531.149 255.266 532.291 258.155 533.686 261.204C540.744 276.619 540.654 292.872 533.431 307.685C529.865 314.996 529.693 318.485 533.121 313.94C540.465 304.204 543.142 285.724 539.259 271.57C536.63 261.99 531.149 250.643 531.149 254.782ZM102.449 257.695C100.688 258.634 99.1901 259.796 99.1181 260.275C99.0461 260.755 100.933 262.436 103.31 264.01C107.206 266.589 107.702 266.7 108.321 265.137C108.699 264.184 109.04 261.716 109.079 259.653C109.16 255.322 107.701 254.891 102.449 257.695ZM314.223 260.965C309.935 264.071 306.212 270.399 306.171 274.653C306.137 278.174 307.825 277.289 308.446 273.46C309.462 267.199 316.797 259.903 322.076 259.903C323.282 259.903 323.989 259.453 323.649 258.903C322.485 257.02 318.449 257.903 314.223 260.965ZM21.4751 261.053C16.6591 261.883 11.1491 264.497 11.1491 265.952C11.1491 266.5 12.2451 266.231 13.5841 265.354C18.0411 262.433 29.3791 262.416 40.5821 265.312C51.6621 268.177 59.1821 272.188 65.8261 278.776C68.2521 281.181 70.5271 282.858 70.8831 282.503C71.9321 281.453 62.5791 272.586 56.6011 268.963C47.4181 263.398 30.2741 259.537 21.4751 261.053ZM133.867 270.121C132.479 272.49 130.569 277.123 129.623 280.416C128.678 283.709 127.774 286.551 127.615 286.731C127.456 286.912 124.023 285.852 119.987 284.375C105.4 279.038 88.5431 280.096 77.6021 287.035L72.9831 289.964L66.9241 284.355C60.2261 278.154 53.5441 274.68 43.9781 272.425C36.6871 270.706 28.5501 270.446 27.6491 271.903C27.2681 272.52 28.9781 272.903 32.1081 272.903C38.5011 272.903 51.2071 276.265 57.2571 279.559C62.1981 282.248 68.9401 288.205 73.4891 293.903C75.1151 295.94 75.9991 296.567 75.6031 295.403C73.9401 290.518 74.0131 290.325 78.3461 288.161C88.7081 282.986 101.218 281.656 113.149 284.46C120.935 286.291 136.149 293.634 136.149 295.562C136.149 296.545 134.527 296.115 130.399 294.038C118.311 287.954 102.736 287.198 91.8791 292.169C88.7281 293.612 86.1491 295.008 86.1491 295.272C86.1491 295.536 88.7371 294.822 91.8991 293.687C99.1811 291.072 111.607 290.244 119.008 291.881C122.11 292.568 127.273 294.424 130.481 296.006C135.515 298.489 136.506 298.688 137.731 297.464C139.966 295.228 139.478 294.4 134.245 291.552C130.18 289.339 129.427 288.5 129.839 286.643C130.914 281.805 133.517 274.217 135.356 270.556C138.044 265.206 136.937 264.882 133.867 270.121ZM566.149 267.215C566.149 267.937 567.049 270.39 568.149 272.667C570.915 278.392 570.837 286.907 567.971 292.006C565.461 296.472 566.357 298.581 569.196 294.888C573.047 289.877 573.04 279.282 569.18 270.653C567.025 265.835 566.149 264.841 566.149 267.215ZM61.7551 269.319C62.0901 270.19 62.8021 270.903 63.3391 270.903C64.6541 270.903 63.8311 268.63 62.3361 268.132C61.6051 267.888 61.3821 268.346 61.7551 269.319ZM260.649 270.867C251.456 273.301 245.444 276.027 241.149 279.708C236.82 283.418 237.866 285.115 242.372 281.692C249.524 276.259 258.545 273.396 273.442 271.833C281.144 271.025 282.969 271.158 288.16 272.907C294.926 275.186 295.149 275.221 295.149 274.013C295.149 273.524 293.129 272.174 290.66 271.013C284.784 268.251 270.784 268.183 260.649 270.867ZM473.267 280.772C469.365 285.101 464.705 289.365 462.911 290.25C460.163 291.604 459.998 291.861 461.864 291.88C463.947 291.902 469.405 287.895 473.413 283.403C475.928 280.583 481.334 272.903 480.803 272.903C480.56 272.903 477.169 276.444 473.267 280.772ZM561.389 276.275C560.781 277.61 560.504 279.546 560.774 280.578C561.047 281.623 560.154 284.091 558.756 286.15C557.371 288.192 556.673 290.109 557.198 290.434C557.721 290.757 558.149 290.544 558.149 289.962C558.149 289.38 559.06 288.903 560.174 288.903C561.454 288.903 562.596 287.892 563.278 286.153C565.743 279.877 563.971 270.61 561.389 276.275ZM184.539 278.396C181.788 279.767 178.383 282.129 176.972 283.646C173.505 287.374 170.703 291.903 171.865 291.903C172.385 291.903 173.429 290.749 174.183 289.339C176.045 285.861 183.709 280.399 188.899 278.853C191.237 278.156 193.149 277.208 193.149 276.745C193.149 275.197 189.589 275.879 184.539 278.396ZM263.883 277.991C258.32 279.302 252.754 282.407 248.194 286.746C242.835 291.843 242.979 294.061 248.369 289.447C257.681 281.476 267.545 278.732 282.041 280.081C287.307 280.57 291.282 281.678 295.861 283.933C302.104 287.006 304.119 287.281 302.62 284.856C301.676 283.328 294.027 279.957 287.654 278.26C282.072 276.773 269.649 276.633 263.883 277.991ZM136.662 283.217C134.89 287.459 134.724 289.903 136.208 289.903C136.79 289.903 137.018 289.501 136.715 289.009C136.411 288.518 136.861 286.444 137.714 284.401C138.568 282.358 139.021 280.441 138.721 280.141C138.421 279.841 137.494 281.226 136.662 283.217ZM407.306 282.54C405.467 283.477 402.7 285.506 401.157 287.049C397.912 290.294 393.78 298.303 394.401 300.146C394.634 300.837 395.731 299.378 396.84 296.903C400.715 288.249 407.177 283.779 416.107 283.574C420.753 283.467 423.026 284.073 428.674 286.923C438.921 292.095 440.582 295.237 438.751 305.991L437.97 310.58L443.31 312.896C449.31 315.498 458.091 315.85 461.445 313.622C463.271 312.41 463.828 312.684 467.385 316.543C472.242 321.812 475.203 322.818 486.827 323.145C495.742 323.396 495.957 323.457 494.327 325.291C490.532 329.561 480.69 331.818 476.022 329.49C473.521 328.242 473.149 328.244 473.149 329.504C473.149 332.894 481.112 333.511 488.649 330.705C492.092 329.423 498.149 324.083 498.149 322.329C498.149 321.68 498.819 320.592 499.638 319.912C502.613 317.443 499.996 317.067 496.474 319.458C493.152 321.711 492.196 321.867 484.839 321.353C474.909 320.66 471.587 319.303 467.225 314.156L463.802 310.116L459.929 312.134C455.565 314.409 450.151 314.232 443.951 311.611L440.253 310.049L440.826 303.217C441.381 296.595 441.294 296.248 437.976 291.898C431.286 283.127 415.57 278.332 407.306 282.54ZM555.767 284.597L552.884 287.981L555.497 286.79C556.935 286.135 558.385 284.734 558.721 283.676C559.671 280.684 558.895 280.926 555.767 284.597ZM42.8471 284.393C59.3421 288.196 74.1491 300.886 74.1491 311.219C74.1491 312.695 74.5881 313.903 75.1241 313.903C76.6381 313.903 75.2381 307.99 72.3001 301.979C67.6401 292.446 53.9541 283.803 42.6491 283.255L36.6491 282.964L42.8471 284.393ZM71.6491 284.903C71.9891 285.453 72.4651 285.903 72.7081 285.903C72.9511 285.903 73.1491 285.453 73.1491 284.903C73.1491 284.353 72.6721 283.903 72.0901 283.903C71.5081 283.903 71.3091 284.353 71.6491 284.903ZM186.156 286.496C182.343 288.149 178.149 291.678 178.149 293.232C178.149 293.772 178.936 293.52 179.899 292.672C180.862 291.824 184.012 289.947 186.899 288.5C194.181 284.851 193.595 283.27 186.156 286.496ZM154.149 290.136C149.549 291.836 144.464 294.802 136.72 300.301C135.896 300.886 133.444 300.216 129.691 298.38C122.174 294.702 110.869 293.839 103.272 296.362C100.455 297.298 98.1491 298.493 98.1491 299.019C98.1491 299.544 99.1621 299.404 100.399 298.708C101.8 297.921 106.424 297.446 112.649 297.451C120.726 297.457 123.754 297.9 128.399 299.753C134.511 302.191 135.135 303.156 132.488 306.08C131.575 307.09 131.088 308.175 131.405 308.492C131.723 308.81 134.747 306.305 138.126 302.926C144.857 296.195 152.954 291.844 162.149 290.016C165.174 289.415 168.549 288.745 169.649 288.529C170.749 288.312 168.949 288.128 165.649 288.119C162.049 288.109 157.449 288.916 154.149 290.136ZM413.172 289.598C411.246 290.598 408.443 293.443 406.888 295.975C403.808 300.993 402.145 307.903 404.018 307.903C404.64 307.903 405.149 306.76 405.149 305.363C405.149 302.063 408.261 296.05 411.565 292.966C413.541 291.122 415.584 290.427 419.961 290.11C425.099 289.739 426.1 289.991 428.928 292.37C432.642 295.496 434.649 301.459 433.236 305.174C430.856 311.435 420.963 314.331 417.729 309.713C416.885 308.509 415.905 307.814 415.55 308.168C415.196 308.523 416.256 310.164 417.906 311.814C420.216 314.124 421.541 314.699 423.663 314.315C435.316 312.202 438.564 301.558 430.268 292.665C427.068 289.234 425.795 288.582 421.584 288.219C418.104 287.918 415.624 288.324 413.172 289.598ZM579.149 290.753C579.149 291.313 580.611 294.121 582.399 296.995C585.321 301.693 585.649 302.985 585.649 309.812C585.649 313.987 585.252 318.685 584.766 320.252C583.995 322.738 584.123 323.055 585.766 322.74C587.082 322.488 588.032 320.878 588.921 317.391C590.631 310.684 588.887 301.491 584.704 295.161C581.761 290.709 579.149 288.636 579.149 290.753ZM157.649 294.879C150.082 296.824 142.284 302.771 136.661 310.885C133.305 315.728 130.19 327.153 130.166 334.71C130.145 341.387 131.99 348.903 133.651 348.903C134.636 348.903 134.588 347.964 133.434 344.653C131.628 339.473 132.176 327.855 134.589 320.137C137.867 309.657 149.125 299.171 159.623 296.821C162.624 296.15 164.844 295.218 164.555 294.752C163.944 293.762 161.842 293.801 157.649 294.879ZM573.149 300.137C569.177 304.678 568.648 305.839 568.637 310.031L568.624 314.781L574.588 317.354C581.923 320.519 583.254 319.68 583.935 311.465C584.315 306.888 583.926 304.968 581.698 300.414C580.215 297.383 578.697 294.923 578.325 294.948C577.953 294.973 575.624 297.308 573.149 300.137ZM173.207 299.04C171.233 302.278 170.685 303.903 171.567 303.903C172.411 303.903 176.36 296.78 175.817 296.238C175.509 295.93 174.334 297.191 173.207 299.04ZM418.419 296.613C416 297.073 411.497 302.584 412.621 303.709C413.001 304.089 414.213 303.163 415.314 301.651C416.729 299.709 418.196 298.903 420.316 298.903C422.187 298.903 423.167 298.456 422.92 297.716C422.448 296.3 421.41 296.045 418.419 296.613ZM470.306 298.903C469.124 300.828 468.155 302.763 468.153 303.202C468.151 303.641 466.236 304.869 463.899 305.93C458.743 308.27 449.801 308.491 445.75 306.379C441.919 304.381 441.214 305.246 444.777 307.573C448.303 309.877 460.254 310.003 464.445 307.782C467.139 306.353 467.378 306.43 471.064 309.937C477.708 316.258 491.02 317.618 498.853 312.777C501.956 310.859 503.349 307.903 501.149 307.903C500.599 307.903 500.149 308.341 500.149 308.877C500.149 312.439 487.071 314.305 478.426 311.978C472.477 310.376 469.809 307.384 470.505 303.094C470.82 301.153 471.599 299.243 472.235 298.85C472.872 298.456 473.182 297.52 472.924 296.769C472.624 295.894 471.684 296.66 470.306 298.903ZM165.655 298.897C164.656 300 162.769 300.903 161.462 300.903C160.154 300.903 157.551 301.544 155.677 302.327C151.332 304.142 142.969 311.803 143.823 313.185C144.214 313.817 145.304 313.241 146.561 311.737C149.6 308.1 155.477 303.956 159.046 302.932C161.83 302.134 162.157 302.267 162.228 304.223C162.281 305.68 162.488 305.906 162.853 304.903C163.153 304.078 164.547 302.17 165.951 300.663C167.355 299.157 168.271 297.691 167.987 297.407C167.703 297.123 166.653 297.793 165.655 298.897ZM511.895 299.148C507.147 303.302 506.242 312.042 509.384 323.403L510.491 327.403L511.262 323.403C511.687 321.203 512.06 317.135 512.091 314.363C512.123 311.591 512.835 306.69 513.673 303.471C514.512 300.252 515.034 297.455 514.835 297.256C514.635 297.056 513.312 297.908 511.895 299.148ZM77.1491 299.601C77.1491 300.94 79.8981 304.488 80.4811 303.901C80.7541 303.627 80.1161 302.341 79.0631 301.042C78.0101 299.744 77.1491 299.095 77.1491 299.601ZM419.645 300.91C419.302 301.464 419.726 302.139 420.586 302.41C421.445 302.681 422.824 303.114 423.649 303.372C425.66 304 425.583 301.283 423.567 300.51C421.334 299.653 420.36 299.752 419.645 300.91ZM418.618 304.953C417.668 306.491 418.969 307.483 420.253 306.199C420.971 305.481 420.988 304.922 420.305 304.5C419.745 304.154 418.986 304.358 418.618 304.953ZM617.649 306.311C612.612 308.544 607.149 314.6 607.149 317.951C607.149 321.742 607.972 321.709 609.313 317.864C610.823 313.53 618.111 308.286 623.812 307.431C627.131 306.933 628.075 306.469 627.068 305.832C625.058 304.559 621.152 304.758 617.649 306.311ZM412.149 311.195C412.149 316.523 422.71 319.733 429.199 316.377C433.53 314.137 432.795 312.81 428.219 314.608C423.212 316.574 418.215 315.696 414.761 312.242C412.837 310.318 412.149 310.043 412.149 311.195ZM619.545 311.332C615.693 313.009 612.149 317.835 612.149 321.403C612.149 324.779 614.815 329.386 617.645 330.901C620.2 332.268 626.341 331.872 626.854 330.306C627.083 329.609 625.533 329.245 622.593 329.306C618.876 329.384 617.6 328.942 616.061 327.042C615.009 325.744 614.149 323.621 614.149 322.326C614.149 319.242 620.48 312.903 623.56 312.903C626.359 312.903 628.602 315.281 627.792 317.39C627.09 319.219 624.512 319.39 623.811 317.653C623.534 316.966 623.271 317.641 623.228 319.153C623.164 321.387 623.585 321.903 625.475 321.903C626.754 321.903 628.856 320.78 630.146 319.407L632.491 316.91L628.57 313.448C624.141 309.538 623.833 309.466 619.545 311.332ZM119.649 312.784C108.383 316.705 96.0991 327.402 91.6161 337.194C88.8271 343.286 87.3181 353.272 89.0271 354.328C89.7931 354.801 90.1491 353.587 90.1491 350.5C90.1491 336.342 104.839 319.689 122.466 313.865C125.317 312.923 127.772 312.257 127.923 312.385C128.863 313.183 126.598 315.903 124.992 315.903C120.106 315.903 107.453 325.203 103.223 331.903C99.6441 337.571 96.7291 346.436 97.7041 348.69C98.2501 349.953 98.6481 349.328 99.2181 346.31C101.282 335.382 109.718 324.914 120.613 319.76C123.933 318.19 127.159 316.904 127.782 316.904C129.034 316.903 130.349 313.036 129.542 311.729C128.766 310.474 125.191 310.855 119.649 312.784ZM403.149 313.844C403.149 314.362 403.599 315.063 404.149 315.403C404.699 315.743 405.149 315.319 405.149 314.462C405.149 313.605 404.699 312.903 404.149 312.903C403.599 312.903 403.149 313.326 403.149 313.844ZM669.214 314.368C667.223 315.434 668.218 315.673 676.768 316.183C682.184 316.506 686.78 316.605 686.983 316.402C687.487 315.899 680.548 314.206 675.578 313.621C673.316 313.354 670.487 313.687 669.214 314.368ZM545.692 316.834C545.375 317.346 545.574 318.047 546.133 318.393C546.692 318.738 547.149 318.319 547.149 317.462C547.149 315.705 546.549 315.447 545.692 316.834ZM650.912 317.895C644.849 320.202 637.149 324.706 637.149 325.945C637.149 327.346 637.498 327.234 644.961 323.43C648.709 321.52 654.672 319.221 658.212 318.322C661.752 317.422 664.837 316.51 665.066 316.295C666.357 315.081 654.904 316.377 650.912 317.895ZM141.692 317.834C141.375 318.346 141.574 319.047 142.133 319.393C142.692 319.738 143.149 319.319 143.149 318.462C143.149 316.705 142.549 316.447 141.692 317.834ZM639.649 317.903C639.989 318.453 640.465 318.903 640.708 318.903C640.951 318.903 641.149 318.453 641.149 317.903C641.149 317.353 640.672 316.903 640.09 316.903C639.508 316.903 639.309 317.353 639.649 317.903ZM77.2281 319.486C77.2761 320.651 77.5131 320.888 77.8321 320.091C78.1211 319.369 78.0851 318.506 77.7531 318.174C77.4211 317.842 77.1851 318.432 77.2281 319.486ZM403.149 318.857C403.149 322.551 411.075 332.315 416.196 334.927C420.322 337.032 425.149 337.558 425.149 335.903C425.149 335.353 424.304 334.903 423.271 334.903C420.831 334.903 415.224 332.439 412.524 330.181C411.355 329.203 408.768 325.99 406.774 323.041C404.78 320.092 403.149 318.209 403.149 318.857ZM121.512 320.946C119.787 322.052 116.77 325.016 114.809 327.533C110.842 332.625 106.582 344.036 107.657 346.689C108.15 347.904 108.763 346.838 109.761 343.032C110.536 340.078 111.934 336.05 112.869 334.081C114.627 330.375 122.785 321.205 123.599 322.019C123.853 322.273 123.383 324.447 122.556 326.849C120.093 333.998 122.414 352.614 126.395 357.642C128.684 360.533 128.677 357.568 126.384 352.934C122.733 345.557 122.063 332.146 125.013 325.478C127.992 318.744 126.985 317.44 121.512 320.946ZM460.149 320.248C460.149 320.988 461.049 322.408 462.149 323.403C464.513 325.542 464.954 323.547 462.757 320.653C461.17 318.562 460.149 318.404 460.149 320.248ZM548.732 321.769C548.301 322.466 548.219 323.306 548.549 323.636C549.444 324.531 550.42 323.215 549.936 321.765C549.598 320.749 549.362 320.749 548.732 321.769ZM606.149 324.903C606.149 326.553 606.599 327.903 607.149 327.903C607.699 327.903 608.149 326.553 608.149 324.903C608.149 323.253 607.699 321.903 607.149 321.903C606.599 321.903 606.149 323.253 606.149 324.903ZM469.724 324.781C469.39 325.322 469.554 326.035 470.089 326.366C470.624 326.697 470.808 327.628 470.498 328.435C470.189 329.242 470.433 329.903 471.042 329.903C471.651 329.903 472.149 329.003 472.149 327.903C472.149 326.803 472.183 325.577 472.224 325.178C472.344 324.014 470.39 323.704 469.724 324.781ZM497.07 329.502C493.516 333.306 489.833 334.903 484.615 334.903C481.353 334.903 480.106 335.273 480.399 336.153C480.963 337.842 487.34 337.822 491.374 336.117C494.539 334.78 500.886 328.307 499.95 327.371C499.697 327.118 498.401 328.077 497.07 329.502ZM633.149 328.903C633.149 329.453 633.572 329.903 634.09 329.903C634.608 329.903 635.309 329.453 635.649 328.903C635.989 328.353 635.565 327.903 634.708 327.903C633.851 327.903 633.149 328.353 633.149 328.903ZM692.699 329.774C694.131 331.087 699.149 332.071 699.149 331.039C699.149 330.122 695.839 328.942 693.199 328.917C692.315 328.908 692.12 329.243 692.699 329.774ZM462.756 331.485C460.564 337.198 463.998 350.571 468.351 353.275C470.859 354.833 471.883 353.105 469.458 351.407C465.507 348.639 462.732 337.748 464.552 332.153C465.377 329.616 463.711 328.996 462.756 331.485ZM468.899 331.477C468.486 331.895 468.149 334.098 468.149 336.374C468.149 342.633 475.329 353.056 477.882 350.504C478.237 350.148 477.54 349.165 476.333 348.319C473.207 346.13 470.825 341.18 470.193 335.561C469.894 332.898 469.312 331.06 468.899 331.477ZM612.337 331.966C612.577 332.687 613.365 333.475 614.087 333.716C614.837 333.966 615.212 333.591 614.962 332.841C614.721 332.119 613.933 331.331 613.212 331.091C612.462 330.841 612.087 331.216 612.337 331.966ZM407.988 336.603C409.635 339.68 416.454 343.9 422.293 345.454C429.026 347.246 434.524 347.221 439.649 345.374C444.838 343.505 445.149 343.533 445.149 345.877C445.149 350.958 429.831 353.554 420.277 350.093C415.131 348.228 414.831 348.221 413.129 349.923C409.54 353.512 401.667 357.308 395.244 358.545C389.138 359.722 388.448 359.671 385.939 357.859C384.449 356.783 382.563 355.903 381.749 355.903C380.934 355.903 379.989 355.453 379.649 354.903C379.309 354.353 378.552 353.903 377.968 353.903C376.117 353.903 379.309 356.944 383.292 358.976C391.525 363.176 405.105 360.417 413.139 352.913L416.242 350.014L420.945 352.053C424.787 353.719 427.023 353.998 433.149 353.577C437.274 353.293 441.661 352.748 442.899 352.365C444.825 351.77 445.149 352.036 445.149 354.215C445.149 355.615 445.824 357.435 446.649 358.26C447.474 359.085 448.149 359.956 448.149 360.195C448.149 360.434 445.337 360.861 441.899 361.145C436.509 361.591 432.504 362.79 426.216 365.841C424.186 366.826 422.573 369.66 423.509 370.597C423.944 371.031 424.738 370.603 425.274 369.645C425.81 368.687 426.795 367.903 427.463 367.903C428.132 367.903 430.247 367.069 432.164 366.05C437.38 363.275 442.703 362.604 448.237 364.022C450.919 364.71 453.409 364.976 453.771 364.614C454.133 364.252 452.791 362.143 450.789 359.927C447.464 356.246 447.149 355.384 447.149 349.965C447.149 346.703 447.588 342.879 448.124 341.468C448.758 339.801 448.758 338.903 448.124 338.903C447.588 338.903 447.149 339.282 447.149 339.745C447.149 340.608 437.972 343.552 432.708 344.378C427.409 345.21 416.651 342.067 411.603 338.213C408.423 335.784 407.277 335.274 407.988 336.603ZM428.899 335.592C427.937 335.844 427.149 336.467 427.149 336.976C427.149 338.461 430.787 338.044 432.149 336.403C433.478 334.801 432.684 334.603 428.899 335.592ZM711.149 339.805C713.074 341.479 714.929 342.861 715.271 342.876C716.681 342.937 730.149 360.156 730.149 361.897C730.149 362.935 730.599 364.063 731.149 364.403C732.529 365.256 732.341 361.868 730.864 359.258C728.648 355.345 717.712 343.328 713.649 340.343C708.237 336.365 706.852 336.067 711.149 339.805ZM543.366 339.464C540.317 341.599 538.384 345.651 537.602 351.548C537.014 355.978 537.231 356.846 539.635 359.704C541.116 361.464 542.968 362.903 543.751 362.903C544.535 362.903 546.051 363.449 547.12 364.117C548.763 365.143 549.458 364.961 551.607 362.943C554.956 359.796 554.885 358.179 551.514 360.83C548.547 363.164 547.591 363.344 545.857 361.892C545.193 361.336 543.412 359.953 541.899 358.82C539.58 357.081 539.151 356.026 539.164 352.08C539.182 346.233 540.736 343.098 545.061 340.183C546.922 338.929 547.803 337.903 547.019 337.903C546.235 337.903 544.591 338.605 543.366 339.464ZM723.649 340.903C723.989 341.453 724.465 341.903 724.708 341.903C724.951 341.903 725.149 341.453 725.149 340.903C725.149 340.353 724.672 339.903 724.09 339.903C723.508 339.903 723.309 340.353 723.649 340.903ZM728.149 345.344C728.149 346.201 728.599 346.903 729.149 346.903C729.699 346.903 730.149 346.48 730.149 345.962C730.149 345.444 729.699 344.743 729.149 344.403C728.599 344.063 728.149 344.487 728.149 345.344ZM369.149 348.732C369.149 349.166 369.712 350.224 370.399 351.084C371.923 352.991 376.433 354.255 375.889 352.623C375.432 351.253 369.149 347.626 369.149 348.732ZM460.43 349.129C459.362 350.485 457.904 357.077 457.938 360.403C457.978 364.384 459.432 370.903 460.281 370.903C461.415 370.903 461.374 368.257 460.171 363.903C459.479 361.402 459.602 358.692 460.601 354.411C462.082 348.063 462.05 347.073 460.43 349.129ZM733.149 352.443C733.149 352.74 733.987 354.652 735.012 356.693C736.037 358.733 737.648 362.766 738.592 365.653C739.537 368.54 740.699 370.903 741.175 370.903C742.464 370.903 739.297 361.03 736.445 356.153C734.144 352.22 733.149 351.099 733.149 352.443ZM98.2191 355.094C98.1811 356.574 98.5991 358.063 99.1491 358.403C100.343 359.141 100.343 357.181 99.1491 354.403C98.3821 352.617 98.2821 352.691 98.2191 355.094ZM111.149 354.285C111.149 355.11 111.599 356.063 112.149 356.403C112.699 356.743 113.149 356.346 113.149 355.521C113.149 354.696 112.699 353.743 112.149 353.403C111.599 353.063 111.149 353.46 111.149 354.285ZM579.399 357.064C577.062 358.197 575.149 359.525 575.149 360.014C575.149 361.221 575.372 361.186 582.138 358.907C587.329 357.158 589.154 357.025 596.856 357.833C611.753 359.396 620.774 362.259 627.926 367.692C632.432 371.115 633.478 369.418 629.149 365.708C618.378 356.477 590.571 351.646 579.399 357.064ZM88.3071 358.903C88.3071 360.278 88.5341 360.841 88.8111 360.153C89.0891 359.466 89.0891 358.341 88.8111 357.653C88.5341 356.966 88.3071 357.528 88.3071 358.903ZM370.676 357.947C371.727 359.648 368.253 363.962 364.603 365.487C362.739 366.266 358.499 366.903 355.181 366.903C351.826 366.903 349.149 367.347 349.149 367.903C349.149 369.024 358.162 369.25 363.139 368.255C364.92 367.899 367.899 366.087 369.757 364.228C373.038 360.947 373.21 360.897 375.643 362.491C378.99 364.684 378.801 366.289 374.899 368.788L371.649 370.869L374.369 370.886C376.219 370.898 377.771 369.981 379.219 368.023C380.664 366.068 381.959 365.302 383.249 365.639C385.528 366.235 385.716 367.471 383.649 368.265C381.659 369.028 381.725 370.903 383.743 370.903C384.619 370.903 385.541 370.115 385.791 369.153C386.186 367.637 387.298 367.446 394.111 367.726C401.036 368.011 402.644 367.722 407.583 365.304C410.667 363.794 413.695 361.95 414.312 361.206C416.537 358.525 414.304 358.889 409.249 362.032C404.901 364.735 402.883 365.306 396.371 365.678C386.868 366.22 378.592 364.053 374.086 359.845C370.863 356.833 369.529 356.091 370.676 357.947ZM472.649 357.903C472.989 358.453 473.915 358.903 474.708 358.903C475.501 358.903 476.149 358.453 476.149 357.903C476.149 357.353 475.222 356.903 474.09 356.903C472.958 356.903 472.309 357.353 472.649 357.903ZM422.281 360.445C418.64 363.509 414.628 369.737 415.672 370.706C416.085 371.089 416.645 370.777 416.916 370.011C417.74 367.689 424.177 361.029 426.227 360.378C427.284 360.043 428.149 359.349 428.149 358.836C428.149 357.109 425.325 357.884 422.281 360.445ZM129.149 359.903C129.149 360.453 129.599 360.903 130.149 360.903C130.699 360.903 131.149 360.453 131.149 359.903C131.149 359.353 130.699 358.903 130.149 358.903C129.599 358.903 129.149 359.353 129.149 359.903ZM568.371 361.069C568.888 362.619 572.03 362.879 572.399 361.403C572.537 360.853 571.586 360.253 570.288 360.069C568.669 359.84 568.066 360.154 568.371 361.069ZM669.665 362.878C668.857 364.185 671.158 365.294 672.303 364.149C672.943 363.509 672.751 362.964 671.748 362.579C670.904 362.255 669.966 362.39 669.665 362.878ZM677.149 362.745C677.149 363.208 679.062 364.152 681.399 364.842C683.736 365.533 687.081 367.179 688.832 368.5C692.744 371.453 695.203 371.725 692.669 368.925C689.089 364.969 677.149 360.214 677.149 362.745ZM466.149 366.903C466.149 369.103 466.541 370.903 467.021 370.903C467.5 370.903 467.845 369.103 467.788 366.903C467.73 364.703 467.338 362.903 466.916 362.903C466.494 362.903 466.149 364.703 466.149 366.903ZM582.149 364.268C579.674 364.988 575.399 366.629 572.649 367.914C568.608 369.802 568.068 370.324 569.831 370.637C571.032 370.85 573.282 370.369 574.831 369.569C579.885 366.957 586.002 365.822 595.099 365.808C602.37 365.796 605.224 366.269 610.42 368.348C613.932 369.753 617.388 370.903 618.1 370.903C620.593 370.903 617.243 368.19 611.868 365.856C605.439 363.064 589.258 362.199 582.149 364.268ZM731.567 367.235C731.887 368.242 732.149 369.48 732.149 369.985C732.149 370.49 732.599 370.903 733.149 370.903C734.597 370.903 734.379 369.567 732.567 367.344C731.12 365.568 731.035 365.559 731.567 367.235ZM652.399 370.619C653.912 370.848 656.386 370.848 657.899 370.619C659.412 370.39 658.174 370.203 655.149 370.203C652.124 370.203 650.886 370.39 652.399 370.619Z" fill="black"/>
</g>
<defs>
<clipPath id="clip0_1193_881">
<rect width="587" height="371" fill="white"/>
</clipPath>
</defs>
</svg>
