<svg width="69" height="52" viewBox="0 0 69 52" fill="none" xmlns="http://www.w3.org/2000/svg">
<g clip-path="url(#clip0_1301_1958)">
<path fill-rule="evenodd" clip-rule="evenodd" d="M32.911 1.24855C32.7576 1.40203 32.3919 2.55883 32.0982 3.81944C31.3695 6.94759 31.1365 7.75864 30.354 9.8951C29.9827 10.9089 29.2779 12.9171 28.7881 14.3578C28.2982 15.7985 27.7294 17.3323 27.5238 17.7661C27.3183 18.2 27.1474 18.6802 27.1439 18.8333C27.1406 18.9864 27.0142 19.2749 26.8629 19.4745C26.7118 19.6744 26.3585 20.5912 26.0777 21.5119C25.5469 23.2525 24.9358 25.0403 24.643 25.7085C24.5495 25.922 24.2848 26.6205 24.0548 27.2608C23.8248 27.9011 23.4761 28.7742 23.2803 29.2011C22.3283 31.2752 22.1109 31.7976 21.8103 32.7355C21.5938 33.4109 21.3538 33.7893 21.0885 33.8735C20.3531 34.1071 17.8547 36.2938 17.5221 36.9949L17.1949 37.6848L18.0151 38.4425C18.9547 39.3106 18.9502 39.4299 17.9235 40.9895C17.5586 41.5443 17.2597 42.1112 17.2597 42.2496C17.2597 42.6021 15.7172 44.2384 15.3848 44.2384C15.2339 44.2384 14.5687 44.0756 13.9065 43.8767C13.2442 43.6778 12.28 43.4141 11.7637 43.2907C11.2473 43.1673 10.4619 42.8905 10.0184 42.6757C9.02855 42.1962 7.57369 41.8111 4.88699 41.3173C2.07346 40.8 1.85276 40.8167 1.03826 41.6083C0.430871 42.1985 0.35136 42.3881 0.357759 43.2314C0.362608 43.8391 0.518333 44.4604 0.78615 44.94C1.21241 45.7029 2.83269 47.5675 3.19612 47.7131C3.30472 47.7565 3.50776 47.9531 3.6472 48.1496C3.78644 48.3462 4.05076 48.507 4.23422 48.507C4.41787 48.507 4.74988 48.6345 4.97232 48.7903C5.52075 49.1749 7.34389 49.8862 7.99898 49.9714C8.29181 50.0094 8.85906 50.1367 9.25952 50.2541C10.5408 50.6295 12.2515 50.8451 14.7386 50.9444C16.0719 50.9978 17.7736 51.1278 18.5203 51.2337C19.2669 51.3395 21.1432 51.4049 22.6897 51.3791C25.2531 51.3364 27.9844 51.505 28.3453 51.7281C28.4244 51.777 29.5624 51.7244 30.8742 51.6111C34.9575 51.2584 37.0502 51.1394 43.0524 50.9184C53.7268 50.5255 55.3782 50.4 60.8435 49.5657C64.419 49.0201 68.6393 47.1624 68.6482 46.1302C68.6521 45.6858 68.2146 45.6965 67.8038 46.1505C67.5065 46.4792 66.2175 47.1803 65.2573 47.5355C65.044 47.6145 64.6296 47.7926 64.3365 47.9315C64.0433 48.0705 63.7499 48.1306 63.6844 48.065C63.5046 47.8854 64.758 47.1657 65.7059 46.9044C67.1751 46.4992 68.3928 44.5242 67.633 43.7789C66.207 42.3804 59.3522 41.9108 54.9327 42.9087C51.4652 43.6918 51.0588 43.7372 50.5433 43.3992C50.2842 43.2294 49.7969 42.6821 49.4602 42.183L48.848 41.2754L49.339 40.7625C49.6091 40.4806 49.934 39.9521 50.0606 39.5881L50.2912 38.9264L48.9505 37.7C48.213 37.0253 47.1767 36.2341 46.6476 35.9417C45.7897 35.4677 45.6404 35.2837 45.2703 34.2458C45.0421 33.6055 44.6242 32.577 44.3416 31.9602C44.0592 31.3435 43.8281 30.7529 43.8281 30.648C43.8281 30.543 43.7408 30.2836 43.6342 30.0715C43.5275 29.8596 43.353 29.5127 43.2463 29.3008C43.1396 29.0887 43.0524 28.8225 43.0524 28.7092C43.0524 28.5959 42.8778 28.1419 42.6645 27.7001C42.4512 27.2583 42.2766 26.7811 42.2766 26.6397C42.2766 26.498 42.1997 26.2307 42.1054 26.0454C41.875 25.5923 41.589 24.8808 41.307 24.0593C41.1788 23.6858 41.0043 23.2055 40.9191 22.9921C40.834 22.7787 40.6581 22.2985 40.5282 21.925C40.3982 21.5514 40.1818 20.9839 40.0472 20.6638C38.4085 16.7659 38.1611 16.0957 37.6103 14.0667C37.3788 13.213 36.8807 11.5977 36.5039 10.4772C36.1031 9.28526 35.7996 7.97653 35.7726 7.32343C35.7463 6.68022 35.5899 5.9982 35.4038 5.71395C35.2261 5.4427 35.1298 5.06608 35.1897 4.87691C35.2585 4.65998 35.1195 4.36486 34.8125 4.07634C34.5414 3.82138 34.1378 3.03343 33.8998 2.29456C33.6654 1.56579 33.4096 0.969727 33.3316 0.969727C33.2535 0.969727 33.0642 1.09526 32.911 1.24855ZM32.9746 4.89883C32.8424 5.56591 32.6936 6.26441 32.644 6.45107C32.5864 6.66838 32.6635 6.79062 32.8581 6.79062C33.0252 6.79062 33.1619 6.70331 33.1619 6.59659C33.1619 6.48988 33.2492 6.40256 33.3559 6.40256C33.4625 6.40256 33.5498 6.49608 33.5498 6.61037C33.5498 6.87464 33.0582 7.37271 32.7976 7.37271C32.6886 7.37271 32.5138 7.52561 32.4093 7.71226C32.2621 7.97517 32.3098 8.10032 32.6209 8.26719C33.0089 8.47538 33.002 8.49479 32.4136 8.84268C31.7959 9.20765 31.6396 9.57612 32.0063 9.80294C32.1172 9.87162 32.1551 10.095 32.0901 10.2995C32.0108 10.55 32.0647 10.6712 32.2555 10.6712C32.7708 10.6712 32.7733 11.2258 32.2598 11.6299C31.8878 11.9227 31.6739 11.9732 31.4086 11.8311C30.9015 11.5597 30.8348 11.5886 30.8348 12.0797C30.8348 12.3209 31.0093 12.6272 31.2227 12.7605C31.787 13.1131 31.6987 13.3545 30.9802 13.4239C30.2852 13.4909 30.0682 14.0665 30.7378 14.0669C31.0221 14.0671 31.1257 14.1967 31.1257 14.552C31.1257 14.9793 31.0528 15.0299 30.5131 14.9783C29.7655 14.9069 29.5134 15.2261 30.0515 15.5623C30.5179 15.8538 30.5639 16.3476 30.156 16.6861C29.933 16.8714 29.8013 16.8747 29.5915 16.7005C29.1844 16.3625 28.9781 16.8235 29.3514 17.2364C29.7044 17.6264 29.5576 17.9367 28.9271 18.1336C28.4871 18.2712 28.4844 18.2857 28.8301 18.6356C29.026 18.8337 29.281 19.1119 29.3966 19.2535C29.696 19.6205 29.8655 21.1252 29.6978 21.925C29.583 22.4721 29.4629 22.6064 29.0799 22.6165C28.3847 22.6349 27.538 22.9097 27.538 23.1171C27.538 23.2158 27.3524 23.1974 27.1255 23.0759C26.6744 22.8344 26.3831 23.0788 26.3773 23.7036C26.3758 23.8815 26.1964 24.4427 25.9788 24.9507C25.73 25.531 25.6264 26.0719 25.6997 26.4059C25.7819 26.7809 25.7249 26.9884 25.5056 27.1112C25.1486 27.311 25.2998 27.9399 25.705 27.9399C26.5156 27.9399 26.0961 28.9374 25.0594 29.4748C24.4692 29.7806 24.3998 29.8728 24.6775 29.9822C25.4622 30.2909 24.7832 31.5273 23.9447 31.3166C23.5624 31.2207 23.46 31.2896 23.3536 31.7136C23.2 32.3263 23.3545 32.5423 23.7259 32.2338C24.0891 31.9322 24.4948 32.383 24.233 32.7972C24.1341 32.9536 24.0519 33.278 24.0502 33.5182C24.0465 34.0708 23.5521 34.0912 23.263 33.5506C23.0551 33.1622 23.0365 33.1604 22.7774 33.5021C22.3616 34.0512 22.4204 34.7309 22.8837 34.7309C23.1823 34.7309 23.2715 34.8603 23.2715 35.2928C23.2715 35.6933 23.4686 36.028 23.9571 36.457C24.7454 37.1497 25.3078 37.2168 25.8772 36.686C26.4495 36.1524 28.6769 34.925 29.0729 34.925C29.3679 34.925 30.1566 35.451 32.069 36.9229C32.3742 37.158 32.9851 37.4095 33.4265 37.4819C33.8677 37.5541 34.4518 37.6703 34.7248 37.7399C35.1086 37.8377 35.4907 37.6874 36.4122 37.0748C37.0675 36.6394 37.7792 36.2832 37.9939 36.2832C38.4287 36.2832 39.8956 37.0449 40.8881 37.7861C41.4389 38.1975 41.6074 38.2372 42.0143 38.0517C42.342 37.9023 42.6075 37.895 42.8567 38.0285C43.4488 38.3455 43.5688 38.271 44.0986 37.2568C44.7056 36.0953 44.7161 35.9698 44.2159 35.8388C44.0026 35.7831 43.8281 35.6361 43.8281 35.5121C43.8281 35.3751 43.9801 35.3351 44.2159 35.41C44.4937 35.4983 44.6038 35.445 44.6038 35.2222C44.6038 34.695 43.9993 33.9552 43.5634 33.9486C43.1641 33.9428 43.1623 33.9327 43.5129 33.6669C44.0106 33.2901 43.798 32.8748 42.9672 32.6005C42.2555 32.3655 42.1971 32.0145 42.8699 32.0145C43.077 32.0145 43.2463 31.974 43.2463 31.9243C43.2463 31.7712 42.6569 30.0049 42.4349 29.4921C41.8872 28.228 40.9893 25.8251 40.7118 24.8816C40.4289 23.9198 39.9495 23.3804 39.9495 24.0242C39.9495 24.2442 40.0368 24.4784 40.1434 24.5444C40.2501 24.6103 40.3373 24.79 40.3373 24.9439C40.3373 25.2867 39.6491 25.3166 39.4833 24.9809C39.4173 24.8476 39.1908 24.4764 38.9798 24.1563C38.4285 23.3196 38.3335 23.0891 38.4799 22.9426C38.5513 22.8712 38.7712 22.9137 38.9686 23.0369C39.256 23.2166 39.3842 23.1958 39.6132 22.9327C39.9247 22.5744 39.9022 22.4257 39.3501 21.1995C39.1464 20.747 38.9798 20.305 38.9798 20.2173C38.9798 20.1294 38.8018 19.689 38.5842 19.2382C38.1712 18.3831 37.728 18.3045 37.9334 19.123C37.9988 19.383 37.9989 19.7342 37.934 19.9035C37.8355 20.1602 37.7195 20.1201 37.2343 19.662C36.5439 19.01 36.527 18.8824 37.0572 18.3177C37.4581 17.8907 37.4583 17.886 37.0751 17.7642C36.501 17.582 36.3602 17.0259 36.8121 16.7255C37.1873 16.476 37.1873 16.4675 36.8111 15.6882C36.6025 15.256 36.4851 14.7629 36.5505 14.5924C36.6618 14.3023 35.6815 10.7857 35.2824 10.0433C35.1827 9.85804 35.1012 9.54119 35.1012 9.3394C35.1012 9.13741 34.905 8.8388 34.6649 8.67562C34.3096 8.43406 34.2681 8.31317 34.4415 8.02465C34.5999 7.76116 34.5836 7.42122 34.3781 6.69691C34.226 6.16158 34.0226 5.34646 33.926 4.88583C33.5876 3.27073 33.2965 3.2748 32.9746 4.89883ZM27.6126 20.9168C27.4998 20.9911 27.3105 21.3357 27.192 21.6824C27.014 22.2028 27.0254 22.313 27.2572 22.313C27.4381 22.313 27.538 22.1118 27.538 21.747C27.538 21.4358 27.6472 21.1422 27.7804 21.0945C27.9138 21.047 27.9767 20.9571 27.9202 20.8948C27.8638 20.8328 27.7253 20.8427 27.6126 20.9168ZM34.7595 20.9862C34.305 21.441 34.4801 21.7592 35.1497 21.6946C35.6305 21.6483 35.78 21.5417 35.78 21.2458C35.78 20.7905 35.1224 20.6232 34.7595 20.9862ZM37.9002 21.0157C37.8415 21.169 37.5704 21.2944 37.2979 21.2944C36.6985 21.2944 36.4184 21.6811 36.673 22.157C36.9015 22.5841 37.5368 22.6041 38.4714 22.2135C39.3266 21.8559 39.3601 21.5367 38.5904 21.0817C38.0988 20.7912 37.9904 20.7808 37.9002 21.0157ZM27.2828 23.5577C26.9818 23.7902 26.9671 23.888 27.181 24.2306C27.3693 24.5323 27.3762 24.6868 27.2089 24.8542C26.9034 25.1598 27.1121 25.6115 27.5587 25.6115C27.9749 25.6115 28.0583 25.0455 27.6957 24.6827C27.518 24.505 27.609 24.4023 28.0934 24.2335C28.5084 24.0888 28.701 23.9068 28.6614 23.6972C28.5842 23.2901 27.7399 23.2046 27.2828 23.5577ZM39.6309 25.9051C39.4856 26.2836 39.9444 26.8584 40.1933 26.6094C40.4081 26.3944 40.2018 25.6115 39.9303 25.6115C39.8275 25.6115 39.6927 25.7437 39.6309 25.9051ZM40.0412 27.9484C39.9724 28.0598 40.0139 28.2689 40.1335 28.4131C40.2532 28.5573 40.3375 28.7498 40.3213 28.8411C40.2437 29.2731 40.3779 29.4603 40.8503 29.5788C41.3921 29.7149 41.8896 29.4413 41.5178 29.2115C41.4018 29.1398 41.307 28.871 41.307 28.6143C41.307 27.9692 40.342 27.4616 40.0412 27.9484ZM40.3373 30.2382C40.3373 30.3284 40.5119 30.5602 40.7252 30.7533C40.9385 30.9464 41.122 31.2875 41.1328 31.511C41.1474 31.8092 41.2056 31.7526 41.3516 31.298C41.5104 30.804 41.4895 30.6171 41.2488 30.3763C40.9271 30.0544 40.3373 29.965 40.3373 30.2382ZM40.7252 32.6822C40.7252 32.8484 40.8125 32.9847 40.9191 32.9847C41.0258 32.9847 41.1131 32.9026 41.1131 32.8021C41.1131 32.7016 41.0258 32.5655 40.9191 32.4996C40.8125 32.4336 40.7252 32.5159 40.7252 32.6822ZM20.0818 35.7319C18.9991 36.601 18.6327 37.0315 18.6221 37.4473C18.6114 37.869 19.9893 38.9996 20.514 38.9996C20.9219 38.9996 20.8924 38.9346 20.1768 38.2535C19.7457 37.8432 19.3956 37.3847 19.3991 37.2349C19.411 36.7131 19.9478 36.2463 20.5707 36.2162C21.281 36.1819 21.5558 36.574 20.955 36.7649C20.7312 36.836 20.5565 37.0583 20.5565 37.2725C20.5565 37.7297 21.1139 37.9947 21.3322 37.6414C21.4174 37.5036 21.6305 37.4458 21.8058 37.5131C22.056 37.6092 22.081 37.7172 21.9224 38.0137C21.6447 38.5329 21.665 38.6115 22.0779 38.6115C22.6715 38.6115 23.1164 37.9621 22.9593 37.3247C22.8156 36.7413 21.6786 35.2191 21.269 35.0617C21.1379 35.0115 20.6036 35.313 20.0818 35.7319ZM27.5196 36.6959C26.2666 37.5038 25.9949 37.7603 25.9895 38.1406C25.986 38.3942 28.0649 40.5518 28.3127 40.5518C28.4097 40.5518 29.1521 40.2026 29.9621 39.7757C30.7722 39.3488 31.5545 38.9996 31.7005 38.9996C32.1405 38.9996 32.1605 38.5481 31.7466 37.9573C31.3983 37.4598 29.2349 35.8951 28.8955 35.8951C28.822 35.8951 28.2028 36.2554 27.5196 36.6959ZM45.6223 36.6056C45.3733 36.7061 44.2103 38.9354 44.2231 39.2877C44.2307 39.498 45.402 40.2842 46.5846 40.8725C47.4084 41.2825 47.6506 41.6752 47.1887 41.8526C46.8511 41.9822 45.5033 41.3656 44.4576 40.603C43.8727 40.1766 43.7951 40.1649 43.3964 40.4443C42.8848 40.8027 42.4029 40.8281 41.9132 40.5221C41.6183 40.3378 41.2618 40.4404 39.8911 41.1042C38.9758 41.5474 38.0604 41.91 37.8566 41.91C37.0696 41.91 36.2774 41.464 35.5785 40.6271C35.063 40.0101 34.7599 39.7947 34.5396 39.8888C34.0957 40.0782 33.5306 40.025 33.0062 39.7443C32.6034 39.5285 32.3538 39.6018 30.7725 40.3991C29.7936 40.8929 28.6938 41.3483 28.3288 41.4112C27.7119 41.5175 27.5876 41.443 26.5623 40.3514C25.537 39.26 25.4251 39.1926 24.974 39.3983C24.5883 39.5741 24.368 39.557 23.8997 39.3147C23.3859 39.0489 23.2027 39.0436 22.4669 39.2745C22.0028 39.4202 21.1891 39.6678 20.6587 39.8248C19.6404 40.1261 19.5205 40.2664 18.2976 42.5891C18.0166 43.1227 17.6247 43.6734 17.4263 43.8129C16.9141 44.173 16.9797 44.5451 17.5991 44.7914C18.3767 45.1007 23.7088 46.83 25.4048 47.3229C26.2047 47.5555 27.2083 47.9081 27.6349 48.1062C29.8818 49.1504 32.6488 50.0593 33.5816 50.0593C34.0812 50.0593 36.0847 49.4514 37.2345 48.9512C37.6078 48.7886 38.4368 48.4141 39.0768 48.119C41.2319 47.1248 42.5257 46.604 44.2159 46.05C44.6959 45.8927 45.4377 45.6059 45.8643 45.4125C46.291 45.2192 47.2397 44.8558 47.9724 44.6049C48.7052 44.354 49.3438 44.0465 49.3917 43.9215C49.4396 43.7968 49.1623 43.2537 48.7754 42.7149C48.3885 42.176 48.0606 41.578 48.0466 41.386C48.0329 41.1941 48.2638 40.6717 48.5602 40.2253C48.9259 39.6738 49.0574 39.284 48.9703 39.0097C48.8445 38.6125 46.3245 36.4626 46.0201 36.4925C45.9345 36.5009 45.7554 36.5519 45.6223 36.6056ZM27.9691 37.3614C27.4082 37.7543 27.4228 38.2417 28.0121 38.7955C28.7124 39.4538 29.3894 39.2289 29.5421 38.2871C29.6088 37.876 29.5682 37.46 29.4472 37.314C29.1627 36.9712 28.4954 36.9925 27.9691 37.3614ZM36.8906 37.8174C35.0867 38.8932 35.1063 38.823 36.2685 40.0524C36.8307 40.6473 37.4125 41.1339 37.5614 41.1339C37.7104 41.1339 38.3313 40.8739 38.9416 40.5563C39.5517 40.2385 40.3337 39.922 40.6791 39.8529C41.0244 39.7837 41.307 39.669 41.307 39.5978C41.307 39.246 38.6494 37.0379 38.2712 37.0756C38.181 37.0845 37.5597 37.4184 36.8906 37.8174ZM24.1337 37.8523C23.934 38.1759 24.3833 38.5469 24.651 38.2791C24.8747 38.0552 24.7347 37.6414 24.4351 37.6414C24.3411 37.6414 24.2055 37.7363 24.1337 37.8523ZM46.0418 37.9838C44.955 38.7198 45.7336 40.1638 47.2172 40.1638C47.7336 40.1638 48.3445 39.6544 48.2334 39.3166C48.1395 39.0308 47.3188 38.9084 47.3188 39.18C47.3188 39.2943 47.1879 39.3876 47.0279 39.3876C46.6849 39.3876 46.6443 38.9759 46.9568 38.6633C47.4552 38.1647 46.6536 37.5696 46.0418 37.9838ZM37.186 38.2339C36.751 38.4939 36.756 38.8356 37.2023 39.3506C37.9293 40.1892 39.3677 40.2875 39.3677 39.4986C39.3677 39.208 38.8449 38.9402 38.5879 39.0991C38.4981 39.1546 38.3701 39.1111 38.303 39.0027C38.2351 38.8927 38.3641 38.8055 38.5947 38.8055C38.8838 38.8055 38.989 38.7033 38.944 38.466C38.8681 38.0659 37.7207 37.9146 37.186 38.2339ZM33.1619 38.3804C33.1619 38.4668 33.2795 38.6983 33.4232 38.8948C33.7176 39.2976 34.0538 39.0004 33.864 38.5052C33.7513 38.2114 33.1619 38.1067 33.1619 38.3804ZM42.233 38.72C42.1808 38.772 42.1795 39.0308 42.2301 39.2953C42.3028 39.6758 42.4395 39.7757 42.8879 39.7757C43.3915 39.7757 43.4313 39.7334 43.2486 39.3921C43.0306 38.9844 42.3913 38.5615 42.233 38.72ZM42.3938 42.716C42.1824 43.0181 42.1488 43.218 42.2865 43.3557C42.4242 43.4935 42.5346 43.4788 42.6397 43.3086C42.7277 43.1658 42.9368 43.1165 43.1334 43.192C43.4084 43.2975 43.4618 43.2335 43.4088 42.861C43.3217 42.2469 42.7768 42.1691 42.3938 42.716ZM46.4729 43.2092C46.3986 43.2834 45.9117 43.3538 45.3906 43.3656C44.4973 43.3858 43.8281 43.6868 43.8281 44.068C43.8281 44.295 45.8754 44.2871 46.3034 44.0585C46.4886 43.9596 46.7913 43.8319 46.9761 43.7748C47.1827 43.711 47.2682 43.5558 47.1978 43.3726C47.0785 43.0614 46.7048 42.977 46.4729 43.2092ZM66.2229 44.2337C66.4135 44.4446 66.6495 44.5678 66.7471 44.5075C66.9889 44.3581 66.5456 43.8503 66.1733 43.8503C65.9229 43.8503 65.9308 43.9109 66.2229 44.2337ZM60.1052 45.0933C59.618 45.3166 58.8326 45.6575 58.3598 45.8506C57.887 46.0436 57.3256 46.299 57.1123 46.4179C56.899 46.5369 55.9826 47.0245 55.076 47.5016C54.1694 47.9787 53.2554 48.4872 53.045 48.632C52.674 48.8871 52.6738 48.8951 53.0337 48.8951C53.3173 48.8951 60.7271 45.3903 61.0595 45.0989C61.0973 45.0659 61.0973 44.9596 61.0595 44.8628C61.0217 44.766 60.5923 44.8698 60.1052 45.0933ZM39.1738 45.317C39.1738 45.4833 39.261 45.5655 39.3677 45.4996C39.4744 45.4336 39.5616 45.2976 39.5616 45.1971C39.5616 45.0966 39.4744 45.0145 39.3677 45.0145C39.261 45.0145 39.1738 45.1507 39.1738 45.317ZM53.1367 45.53C51.1117 46.4629 48.348 47.7847 48.0945 47.9414C47.9345 48.0404 47.6727 48.1756 47.5128 48.2418C47.3528 48.308 46.6761 48.6132 46.0092 48.9197C45.3423 49.2263 44.7097 49.4772 44.6032 49.4772C44.4969 49.4772 44.4099 49.6082 44.4099 49.7682C44.4099 50.2013 44.688 50.1342 46.3195 49.3066C47.7108 48.601 49.9033 47.559 51.0035 47.0805C51.2701 46.9645 51.8531 46.6269 52.2989 46.3302C52.7448 46.0334 53.2092 45.7906 53.331 45.7906C53.4526 45.7906 53.6832 45.6597 53.8432 45.4996C54.2157 45.1268 53.9908 45.1365 53.1367 45.53ZM61.6696 46.0052C61.1896 46.31 60.9009 46.5611 61.0279 46.5631C61.1549 46.5652 61.3128 46.4794 61.3787 46.3727C61.4447 46.266 61.6572 46.1787 61.8513 46.1787C62.1847 46.1787 62.7818 45.6653 62.6185 45.519C62.5766 45.4815 62.1496 45.7004 61.6696 46.0052ZM64.7725 45.5966C64.7725 45.7033 64.9034 45.7906 65.0634 45.7906C65.2234 45.7906 65.3543 45.7033 65.3543 45.5966C65.3543 45.4899 65.2234 45.4026 65.0634 45.4026C64.9034 45.4026 64.7725 45.4899 64.7725 45.5966ZM6.01178 45.9847C6.01178 46.0914 6.14792 46.1787 6.31412 46.1787C6.48032 46.1787 6.56254 46.0914 6.49661 45.9847C6.43067 45.8779 6.29473 45.7906 6.19427 45.7906C6.09381 45.7906 6.01178 45.8779 6.01178 45.9847ZM16.4822 46.6616C16.6141 46.8205 16.8007 46.9018 16.8971 46.8423C17.1445 46.6892 16.9077 46.3727 16.5459 46.3727C16.2992 46.3727 16.2873 46.4267 16.4822 46.6616ZM54.2357 46.5021C54.1645 46.5731 54.1064 46.7216 54.1064 46.832C54.1064 46.9534 54.1967 46.942 54.3358 46.8029C54.462 46.6766 54.5202 46.5281 54.4651 46.473C54.4101 46.4177 54.3067 46.4309 54.2357 46.5021ZM17.3495 46.7724C17.2874 46.8727 17.373 46.9548 17.5392 46.9548C17.7054 46.9548 17.8423 47.0204 17.843 47.1003C17.845 47.2847 18.7927 47.7309 19.1823 47.7309C19.4401 47.7309 19.4412 47.6974 19.192 47.4568C18.7578 47.0377 17.479 46.5627 17.3495 46.7724ZM58.8576 47.3132C58.2177 47.6166 57.1939 48.1025 56.5828 48.3924C55.3043 48.9991 55.0359 49.2832 55.7418 49.2832C56.0263 49.2832 56.3391 49.1184 56.4785 48.8951C56.6183 48.6712 56.9308 48.507 57.2172 48.507C57.49 48.507 57.7965 48.4279 57.8977 48.3312C58.2192 48.0247 59.5378 47.3429 59.8094 47.3429C59.9531 47.3429 60.1793 47.2119 60.3121 47.0518C60.6943 46.591 60.188 46.682 58.8576 47.3132ZM43.8281 47.3429C43.8281 47.586 44.0338 47.586 44.4099 47.3429C44.6451 47.1907 44.6172 47.1543 44.2644 47.1517C44.0243 47.1502 43.8281 47.2361 43.8281 47.3429ZM23.3685 48.0039C23.9018 48.2684 24.5346 48.4898 24.7745 48.4958C25.0146 48.502 25.2108 48.5944 25.2108 48.7011C25.2108 48.8078 25.4726 48.8951 25.7926 48.8951C26.1126 48.8951 26.3744 48.9725 26.3744 49.0672C26.3744 49.2564 27.4806 49.4698 27.6392 49.3113C27.7624 49.1881 26.3837 48.5226 25.9865 48.5134C25.8266 48.5098 25.2593 48.3425 24.726 48.1417C24.1927 47.9409 23.4509 47.7195 23.0776 47.6498C22.4508 47.5328 22.4731 47.56 23.3685 48.0039ZM51.1668 48.0321C50.2739 48.481 49.818 48.8951 50.2163 48.8951C50.3292 48.8951 50.4217 48.8078 50.4217 48.7011C50.4217 48.5944 50.5935 48.507 50.8037 48.507C51.1177 48.507 52.4289 47.8993 52.7328 47.6131C52.9979 47.363 51.928 47.6494 51.1668 48.0321ZM19.7808 47.8739C19.7808 47.9566 20.0645 48.1411 20.4111 48.2841C20.7576 48.4271 21.5907 48.7975 22.2621 49.1076C22.9335 49.4176 23.6249 49.6712 23.7982 49.6712C23.9718 49.6712 24.2782 49.8202 24.4793 50.0022C24.7326 50.2316 25.2438 50.348 26.143 50.3808C26.8569 50.407 27.2665 50.3825 27.0532 50.3265C26.4568 50.1699 24.6003 49.4917 23.9503 49.1929C22.1838 48.3813 19.7808 47.6211 19.7808 47.8739ZM42.1797 47.925C42.1137 48.0317 42.2396 48.119 42.4591 48.119C42.6787 48.119 42.8584 48.0317 42.8584 47.925C42.8584 47.8182 42.7328 47.7309 42.579 47.7309C42.4252 47.7309 42.2456 47.8182 42.1797 47.925ZM12.3145 48.1935C13.0666 48.5507 14.5666 48.8996 15.2609 48.8788C15.7794 48.8631 15.7684 48.8458 15.0295 48.5136C14.6029 48.3217 13.6866 48.1091 12.9933 48.041C11.8031 47.9242 11.7651 47.9327 12.3145 48.1935ZM59.8273 48.3526C58.8976 48.8447 59.2197 49.0315 60.3974 48.6836C60.9525 48.5197 61.2083 48.347 61.1441 48.1795C61.0114 47.834 60.7401 47.8695 59.8273 48.3526ZM7.95263 48.2738C7.95476 48.4609 8.9217 48.8951 9.33574 48.8951C9.52152 48.8951 9.72748 48.9824 9.79341 49.0891C9.85935 49.1958 10.1648 49.2832 10.4722 49.2832C10.7795 49.2832 11.085 49.3705 11.1509 49.4772C11.2169 49.5839 11.5929 49.6656 11.9866 49.659C12.6653 49.6474 12.6773 49.6363 12.2175 49.4473C11.9509 49.3375 11.2964 49.1274 10.7631 48.9799C10.2298 48.8326 9.37879 48.5827 8.87225 48.4248C8.3657 48.2668 7.95185 48.1989 7.95263 48.2738ZM40.6983 48.5233C40.3385 48.841 40.317 48.9031 40.5978 48.8134C40.7942 48.7507 41.1647 48.6467 41.4206 48.5825C41.6766 48.5183 41.838 48.3877 41.779 48.2923C41.602 48.0057 41.1831 48.0951 40.6983 48.5233ZM15.9022 49.1654C15.9022 49.3495 16.4826 49.4423 16.5862 49.2746C16.6492 49.1726 16.521 49.0891 16.3015 49.0891C16.082 49.0891 15.9022 49.1235 15.9022 49.1654ZM48.2885 49.3802L47.8036 49.6574L48.5309 49.6644C49.051 49.6693 49.2581 49.5884 49.2581 49.3802C49.2581 49.0187 48.9205 49.0187 48.2885 49.3802ZM51.5853 49.4772C51.3367 49.6378 51.3436 49.6658 51.6338 49.6683C51.8203 49.6699 51.9731 49.5839 51.9731 49.4772C51.9731 49.2405 51.9512 49.2405 51.5853 49.4772ZM37.5356 49.8488C37.4732 49.9498 37.5048 50.0835 37.6058 50.146C37.7069 50.2085 37.8405 50.1769 37.9029 50.0758C37.9654 49.9747 37.9338 49.841 37.8327 49.7785C37.7317 49.716 37.5981 49.7477 37.5356 49.8488ZM41.0153 49.8666C40.8679 50.1051 41.4016 50.3375 41.6887 50.1602C41.8023 50.0899 41.845 49.9512 41.7835 49.8519C41.6355 49.6122 41.1668 49.6212 41.0153 49.8666ZM29.1379 50.1858C28.567 50.4211 28.9484 50.7415 29.8651 50.7966C30.7204 50.848 31.1294 50.6437 30.6893 50.3847C30.4081 50.219 29.3776 50.0868 29.1379 50.1858Z" fill="hsl(205,8%,42%)"/>
</g>
<defs>
<clipPath id="clip0_1301_1958">
<rect width="68.8451" height="52" fill="white"/>
</clipPath>
</defs>
</svg>
