<svg width="74" height="52" viewBox="0 0 74 52" fill="none" xmlns="http://www.w3.org/2000/svg">
<g clip-path="url(#clip0_1301_1956)">
<path fill-rule="evenodd" clip-rule="evenodd" d="M48.6669 0.633707C47.8523 0.78602 46.3392 2.21288 46.9923 2.21288C47.1995 2.21288 47.836 1.96505 48.4068 1.66191C49.7717 0.937225 50.2828 0.963041 51.9799 1.84409C52.7616 2.24976 53.6925 2.58168 54.0486 2.58168C54.405 2.58168 54.6966 2.81955 54.6966 3.11016C54.6966 3.40077 55.028 3.74559 55.4334 3.87652C55.8383 4.00744 56.4903 4.46474 56.8823 4.89291C57.3861 5.44352 57.5926 5.51581 57.5879 5.14074C57.5814 4.62406 55.0164 2.21288 54.4731 2.21288C54.3235 2.21288 53.5382 1.89867 52.7282 1.51476C51.0149 0.702303 49.7576 0.429764 48.6669 0.633707ZM44.9439 1.99493C44.6951 2.29992 44.5976 2.72366 44.7269 2.93683C44.8566 3.14999 44.6668 3.43544 44.3053 3.57115C42.9683 4.07382 41.3368 5.58477 41.5422 6.12985C41.6549 6.42894 41.4596 6.88772 41.1086 7.1492C40.7573 7.41067 40.5519 7.85913 40.6519 8.14568C40.7522 8.43223 40.6816 8.96772 40.4954 9.33578C40.269 9.78313 40.3027 10.1833 40.5968 10.5443C40.9703 11.0024 41.1405 10.9098 41.7244 9.93212C42.2305 9.085 42.3087 8.65388 42.0207 8.30057C41.7259 7.93915 41.8519 7.64154 42.5293 7.09941C43.1875 6.57203 43.3215 6.26852 43.0281 5.96979C42.5427 5.47561 44.0025 4.0882 45.0283 4.06903C45.3895 4.06239 45.5785 3.88389 45.45 3.67184C45.3214 3.46015 45.384 3.0814 45.5891 2.82988C45.7941 2.57836 45.8343 2.16273 45.6789 1.90642C45.4568 1.54131 45.2978 1.56049 44.9439 1.99493ZM55.7833 5.42582C55.7833 5.57039 56.2317 6.06236 56.7794 6.51893C57.6458 7.2414 57.6842 7.3513 57.0739 7.36273C56.4422 7.37453 56.469 7.4789 57.3456 8.41047C58.467 9.60242 58.5558 9.95757 57.7313 9.95757C57.2499 9.95757 57.2249 10.0575 57.5944 10.5108C57.9226 10.9135 57.9378 11.1956 57.6506 11.5482C57.3586 11.9063 57.4495 12.4303 57.999 13.5614C58.7753 15.1583 58.6771 15.9752 57.7527 15.6141C57.305 15.439 57.2499 15.658 57.4397 16.8666C57.6198 18.012 57.5448 18.3805 57.0949 18.556C56.758 18.6877 56.6088 19.0159 56.7341 19.3485C56.8518 19.6609 56.8435 20.3406 56.716 20.8588C56.5356 21.5893 56.3237 21.7494 55.7713 21.5705C55.1678 21.3758 55.0588 21.5148 55.0588 22.4796C55.0588 23.6269 53.7374 26.0407 52.2798 27.5557C51.8469 28.0056 51.3941 28.6901 51.2735 29.0773C51.0515 29.7891 47.3531 31.7164 46.2088 31.7164C45.6456 31.7164 45.6481 31.6335 46.2418 30.61C46.595 30.0015 47.0677 29.5037 47.293 29.5037C47.7219 29.5037 48.9009 28.3331 48.9009 27.9072C48.9009 27.2621 48.0182 27.8319 46.1233 29.7006C44.9852 30.8232 43.8406 31.6582 43.5794 31.556C43.3186 31.4542 43.1052 31.6146 43.1052 31.9123C43.1052 32.648 42.5434 32.5934 41.761 31.7821C41.0188 31.012 38.9338 29.5037 38.6122 29.5037C37.9938 29.5037 38.5448 30.2066 39.6286 30.8007C40.3527 31.1979 40.7852 31.6766 40.6776 31.962C40.407 32.6797 42.5597 33.3823 43.2864 32.8132C43.4856 32.6572 44.4636 32.5141 45.4597 32.495C47.9037 32.4481 49.6413 32.2604 50.6193 31.937C51.2808 31.7183 51.3891 31.7821 51.2014 32.2799C51.0026 32.807 51.1735 32.7863 52.4374 32.1298C53.2871 31.6884 54.902 31.2949 56.2788 31.1938C58.6923 31.0165 60.13 30.5134 60.13 29.8466C60.13 29.6091 59.8714 29.6187 59.4056 29.8725C58.6297 30.2951 58.4257 29.9112 59.0748 29.2503C59.3346 28.9859 59.3447 28.7712 59.1038 28.6197C58.9031 28.4935 58.4174 28.8066 58.024 29.3156C57.6306 29.8249 57.1286 30.2413 56.9084 30.2413C56.277 30.2413 56.4309 29.906 57.5039 28.9446C58.2522 28.2737 58.3515 28.0488 57.9038 28.0403C57.5756 28.0336 56.8062 28.6093 56.194 29.3193C55.5819 30.0292 54.9943 30.61 54.8889 30.61C54.4043 30.61 54.7853 29.816 55.6927 28.9354C56.5414 28.1115 56.5831 27.9872 55.9742 28.0938C55.5811 28.1627 54.8911 28.8815 54.4408 29.691C53.9902 30.5009 53.619 30.9449 53.6157 30.6779C53.6084 30.0701 54.2851 28.7635 54.9672 28.0691C55.4167 27.6114 55.3971 27.493 54.8194 27.1773C54.4532 26.9771 54.1007 26.7705 54.0366 26.7182C53.9725 26.6658 54.3101 25.985 54.7875 25.205C55.2646 24.4254 55.7684 23.4754 55.9068 23.0944C56.114 22.5246 56.4154 22.4365 57.6009 22.5984C58.4149 22.7094 59.1433 22.6301 59.2733 22.4162C59.4135 22.1853 60.5524 22.1057 62.1904 22.2126C64.1493 22.3406 64.7694 22.2779 64.4786 21.9814C64.2439 21.742 62.6696 21.5746 60.6567 21.5746C57.5325 21.5746 56.7135 21.3913 57.5325 20.8761C57.6976 20.7721 58.0512 19.7251 58.3178 18.5494C58.5844 17.3733 58.9582 16.2042 59.1484 15.9505C59.7518 15.1461 59.2726 9.17609 58.5043 7.9292C57.2257 5.85288 55.7833 4.52633 55.7833 5.42582ZM44.7914 6.94415C44.0329 7.79717 44.0195 9.36086 44.7643 10.1191C45.2862 10.6502 45.2352 10.7224 44.1898 10.9352C43.5591 11.0636 42.9553 11.4014 42.8484 11.6854C42.5279 12.5351 43.073 12.7232 43.641 11.959C44.1202 11.3136 44.1698 11.3077 44.1803 11.8937C44.1916 12.5133 44.9164 12.8541 44.9164 12.24C44.9164 12.0752 45.2558 11.5696 45.6709 11.1159C46.2787 10.4521 46.34 10.1862 45.9853 9.75141C45.618 9.30111 45.6858 9.22735 46.3932 9.30775C46.9746 9.37413 47.285 9.189 47.3806 8.71989C47.5835 7.72304 46.8934 7.14551 46.1994 7.73189C45.8922 7.99152 45.6409 8.03799 45.6409 7.83515C45.6409 6.94489 46.5533 6.70775 47.3741 7.38523C48.0048 7.90559 48.1457 8.29393 47.9675 9.01751C47.8389 9.53972 47.4661 10.1257 47.1398 10.3197C46.6073 10.6365 46.6058 10.6738 47.1242 10.6841C47.8059 10.697 48.9009 9.56185 48.9009 8.84233C48.9009 8.03615 47.0275 6.26962 46.1726 6.26962C45.7426 6.26962 45.1211 6.57314 44.7914 6.94415ZM51.3014 7.42137C50.5599 8.49862 50.5422 10.0925 51.2641 10.7025C51.9335 11.2683 52.4696 10.8618 51.865 10.2463C50.5712 8.929 52.3569 6.80327 53.9221 7.79864C55.2388 8.63581 54.6854 10.3135 53.0847 10.3374C52.4008 10.3478 52.3928 10.3787 52.9832 10.7287C53.8899 11.2664 54.8752 10.846 55.3866 9.7031C55.7717 8.8427 55.7239 8.6229 54.9885 7.87498C54.5292 7.40772 53.6439 6.92165 53.022 6.79515C52.1016 6.60781 51.7806 6.72471 51.3014 7.42137ZM52.2928 8.6642C52.1675 8.99723 52.2385 9.44642 52.4508 9.66253C53.0028 10.2246 54.0482 9.71084 53.904 8.94891C53.7436 8.09995 52.583 7.8949 52.2928 8.6642ZM54.5176 11.7993C54.1558 12.2061 54.0283 12.5391 54.234 12.5391C54.6897 12.5391 55.5931 11.4851 55.3497 11.2373C55.2537 11.1396 54.8791 11.3922 54.5176 11.7993ZM39.9176 11.8753C39.4178 12.3842 39.3359 13.2767 39.789 13.2767C40.1397 13.2767 41.2941 12.0523 41.2941 11.6802C41.2941 11.2719 40.3838 11.4007 39.9176 11.8753ZM45.8024 11.8336C45.6687 12.0542 45.7039 12.382 45.8806 12.562C46.0679 12.7527 46.3889 12.5856 46.6493 12.1611C47.017 11.5615 47.0032 11.4327 46.5707 11.4327C46.282 11.4327 45.9364 11.6131 45.8024 11.8336ZM55.9944 11.7521C55.8383 12.0092 55.8086 12.319 55.9282 12.4407C56.2524 12.7707 56.6059 12.2854 56.4306 11.7506C56.3081 11.3759 56.2226 11.3759 55.9944 11.7521ZM37.0107 14.7832C35.9657 15.391 33.9274 16.1891 32.4814 16.5571C29.041 17.4323 28.5154 17.7469 25.6885 20.622C22.9403 23.4167 21.7337 25.0807 21.7337 26.0754C21.7337 26.46 21.566 26.9453 21.361 27.1541C20.8111 27.7139 20.2019 33.0515 20.5351 34.3902C20.7662 35.3188 21.3711 35.1857 21.373 34.2058C21.3737 33.7496 21.7084 32.818 22.117 32.1358C22.916 30.8011 22.8186 30.2151 21.9235 30.9715C20.9441 31.799 21.3099 30.7074 22.4582 29.3757C23.7818 27.8408 23.8531 27.3691 22.6393 28.179C22.1412 28.5112 21.7337 28.6259 21.7337 28.4342C21.7337 27.829 23.5851 25.8157 24.1418 25.8157C24.4345 25.8157 24.583 25.6653 24.4715 25.4816C24.3599 25.2979 23.902 25.2437 23.454 25.361C22.7494 25.5461 22.702 25.4967 23.104 24.9974C23.3598 24.6798 24.0553 24.2148 24.6493 23.9644C25.5071 23.6026 25.6447 23.4042 25.3176 23.0026C25.0905 22.7241 25.0539 22.4966 25.2361 22.4966C25.636 22.4966 28.2491 20.0316 28.2651 19.6392C28.2995 18.8035 30.8282 17.7495 35.4984 16.625C36.1957 16.4568 37.0419 16.2016 37.3784 16.0578C38.0025 15.7912 39.2877 14.0611 39.045 13.814C38.9715 13.7392 38.0561 14.1755 37.0107 14.7832ZM15.0325 21.4042C13.8371 21.7697 12.8185 22.1027 12.7686 22.1444C12.7186 22.186 12.515 22.2613 12.3158 22.3122C12.1165 22.3631 11.913 22.4379 11.863 22.4789C11.813 22.5194 11.4747 22.6105 11.1103 22.6806C9.84501 22.9247 8.11066 23.9415 6.8664 25.1685C6.1778 25.8474 4.83973 26.7834 3.8925 27.2492C2.63339 27.8681 2.11649 28.3593 1.96942 29.0762C1.85858 29.6154 1.61661 30.3058 1.43188 30.61C0.178202 32.6738 -0.044207 33.2941 0.331425 33.6766C0.547675 33.8967 0.724443 34.6041 0.724443 35.2487C0.724443 35.893 0.979815 36.6361 1.29169 36.8998C1.60357 37.1635 2.09946 37.8528 2.39396 38.4322C2.68809 39.0112 3.05756 39.4043 3.21513 39.3051C3.37234 39.2059 4.1399 39.5673 4.92014 40.108C5.70038 40.6486 6.7465 41.1251 7.24457 41.1664C7.74263 41.2081 8.63915 41.5042 9.23683 41.8247C10.6209 42.5664 10.9288 42.5557 13.7078 41.6687C14.9716 41.2653 16.1427 41.0215 16.3101 41.127C16.6212 41.3228 19.5604 39.9103 19.5604 39.5651C19.5604 39.4607 19.1528 39.4545 18.6548 39.5515C17.8956 39.699 17.7492 39.5869 17.7492 38.8567C17.7492 38.378 17.6036 37.9859 17.4257 37.9859C17.0034 37.9859 16.602 39.0632 16.8639 39.4943C16.9759 39.6791 16.9081 39.8299 16.7136 39.8299C16.5187 39.8299 16.0757 39.9409 15.7291 40.0763C15.1832 40.2894 15.1307 40.16 15.3371 39.1093C15.5432 38.0593 15.5023 37.9575 15.0321 38.3551C14.7337 38.6074 14.4891 39.1908 14.4891 39.651C14.4891 40.5365 13.581 41.1601 13.2018 40.535C13.0786 40.3322 13.2492 39.7443 13.5814 39.2284C14.2562 38.1796 14.1592 37.855 13.2731 38.2009C12.7157 38.4189 12.5012 39.2007 12.6095 40.6195C12.6349 40.9525 12.3487 41.3069 11.9735 41.4065C11.0646 41.6488 10.7951 40.5435 11.45 39.2583C12.0119 38.1559 12.0883 37.6149 11.6819 37.6212C11.2327 37.6282 10.0392 40.4679 10.3029 40.9024C10.664 41.4972 9.57768 41.3921 9.08216 40.784C8.75434 40.382 8.78114 39.9612 9.20024 38.94C9.51176 38.1807 9.58891 37.6171 9.38099 37.6171C9.18177 37.6171 8.78042 38.198 8.48919 38.9079C8.08494 39.8926 7.74553 40.1987 7.05874 40.1987C6.01842 40.1987 5.91337 39.6119 6.73817 38.413C7.05729 37.9491 7.19784 37.4556 7.05077 37.3166C6.90371 37.1775 6.711 37.269 6.62298 37.5201C6.33284 38.3466 5.1382 39.6503 4.89587 39.4047C4.76547 39.2723 4.99585 38.4904 5.40807 37.6677C6.24626 35.9948 6.29661 35.7732 5.83948 35.7732C5.66452 35.7732 5.31533 36.2795 5.06322 36.8987C4.7872 37.5777 4.41483 37.9502 4.12541 37.8369C3.86135 37.7337 3.53824 37.8259 3.40747 38.0413C2.94563 38.8024 2.60333 37.5294 2.97678 36.4388C3.46724 35.0057 3.01482 34.6413 2.1567 35.7787C1.18121 37.0713 1.20548 35.8679 2.19111 34.0815C3.04597 32.5318 2.79096 31.8706 1.81258 33.0994C1.4489 33.5556 1.04465 33.9292 0.913527 33.9292C0.344465 33.9292 1.26018 32.3002 2.47727 31.1481C3.51216 30.1682 3.65741 29.8902 3.13942 29.8824C2.02629 29.8658 2.66056 29.0548 4.6376 27.9673C5.66996 27.3997 7.39888 26.2018 8.47977 25.3053C9.66752 24.3203 11.0661 23.5333 12.0144 23.316C12.8776 23.1184 14.8793 22.5947 16.4629 22.1521C18.7196 21.5211 19.836 21.4009 21.6247 21.596C23.0359 21.7498 23.9071 21.7074 23.9071 21.4846C23.9071 21.0852 20.906 20.6367 18.6548 20.6994C17.8579 20.7216 16.2278 21.0387 15.0325 21.4042ZM62.1357 23.212C61.8803 23.6328 62.2632 23.721 63.8689 23.6114C64.6325 23.5594 64.9411 23.7361 65.0886 24.3099C65.215 24.8026 65.5794 25.0781 66.105 25.0781C67.1696 25.0781 69.548 26.0927 69.548 26.5467C69.548 26.7403 69.2629 26.7963 68.9141 26.671C68.5652 26.5456 69.2176 27.3455 70.363 28.4485C71.5084 29.5516 72.4458 30.738 72.4458 31.0851C72.4458 31.4325 72.6088 31.7164 72.808 31.7164C73.2746 31.7164 73.2695 31.6707 72.641 30.194C72.1745 29.098 69.878 26.4689 67.3221 24.1049C66.3499 23.2058 62.5378 22.5497 62.1357 23.212ZM65.3823 23.9717C65.5055 24.1746 65.8507 24.3405 66.1495 24.3405C66.4484 24.3405 66.5922 24.1746 66.469 23.9717C66.3459 23.7689 66.0007 23.603 65.7018 23.603C65.403 23.603 65.2592 23.7689 65.3823 23.9717ZM36.5851 26.4146C36.884 26.5452 37.7682 26.9605 38.5499 27.3377C39.3315 27.715 40.0292 27.9639 40.1006 27.8917C40.3751 27.6117 38.3361 26.5256 37.2176 26.3556C36.571 26.2575 36.2863 26.2841 36.5851 26.4146ZM37.1285 28.0285C37.2516 28.2313 37.5646 28.3973 37.8236 28.3973C38.0829 28.3973 38.9038 28.8177 39.6478 29.3318C40.3918 29.8459 40.9315 30.0532 40.8475 29.7928C40.6736 29.2544 38.0978 27.6748 37.3788 27.6656C37.118 27.6623 37.0053 27.8257 37.1285 28.0285ZM53.076 28.7476C52.3685 30.1402 52.3837 30.6403 53.1046 29.6881C54.0558 28.4316 54.3941 27.6597 53.9942 27.6597C53.7932 27.6597 53.3799 28.1495 53.076 28.7476ZM70.6426 30.3847C70.6383 30.5654 71.1237 31.5221 71.7213 32.5108C72.8736 34.4171 73.2931 36.2729 72.2571 34.8781C71.9666 34.4872 71.6225 34.2759 71.4924 34.4083C71.3624 34.5407 71.4337 34.867 71.6511 35.134C72.39 36.0405 72.4625 37.8399 71.8119 39.1347C71.2428 40.2684 71.174 40.3068 71.0657 39.5533C70.9165 38.5155 70.2724 38.4558 70.2724 39.4796C70.2724 40.4056 69.4353 42.1102 68.658 42.767C68.1711 43.1786 68.1154 43.166 68.2965 42.6855C68.4142 42.3727 68.3367 42.0076 68.1237 41.8738C67.9111 41.7399 67.7368 41.852 67.7368 42.1231C67.7368 42.3941 67.275 43.1092 66.7103 43.7122C64.0769 46.525 60.0728 48.8089 57.0359 49.2312C56.0481 49.3684 54.3843 49.829 53.3389 50.255C51.4869 51.0088 51.3865 51.0125 49.4475 50.39C48.0167 49.9308 47.1253 49.8416 46.2773 50.0728C44.7346 50.4929 40.7116 50.2266 39.2569 49.6074C38.5763 49.3179 37.9775 49.2548 37.7837 49.4521C37.5899 49.6494 36.8807 49.4853 36.0389 49.0483C35.259 48.6434 34.3466 48.3122 34.0119 48.3122C33.6768 48.3122 33.3044 48.0518 33.1845 47.7335C33.0371 47.3426 32.7245 47.2331 32.2203 47.3961C31.6208 47.5897 31.3911 47.4134 31.0524 46.4996C30.6047 45.2917 30.065 44.9816 30.065 45.9316C30.065 46.6721 31.6795 48.3122 32.4079 48.3122C32.7187 48.3122 33.2559 48.47 33.6018 48.6633C35.096 49.4967 37.073 50.2767 37.6215 50.2491C37.9478 50.2329 38.7857 50.4309 39.483 50.6894C40.2788 50.9848 42.1464 51.1264 44.4984 51.0697C46.6442 51.018 48.9802 51.1762 49.9637 51.4403C51.4626 51.843 51.902 51.8165 53.419 51.2301C54.3753 50.8605 56.3726 50.3022 57.8585 49.9895C61.1323 49.3002 62.8069 48.5301 63.7842 47.2652C64.5369 46.2912 66.2727 45.0823 68.3635 44.0769C69.0072 43.7672 69.811 43.0583 70.1493 42.5018C70.488 41.9449 71.203 40.9916 71.738 40.3831C73.5803 38.288 73.965 35.8064 72.824 33.376C72.0839 31.799 70.656 29.8411 70.6426 30.3847ZM21.9105 34.437C21.0357 35.7968 20.6557 37.4785 21.1176 37.9487C21.7189 38.5609 22.0492 38.4373 21.8529 37.6732C21.7102 37.1167 22.1909 35.6415 23.1033 33.837C23.459 33.133 22.4104 33.6607 21.9105 34.437ZM4.20257 35.4626C3.88344 35.9266 3.63532 36.5594 3.65089 36.8696C3.67589 37.3634 3.70414 37.3645 3.8791 36.8796C3.98921 36.5753 4.32826 36.035 4.63326 35.6788C4.93825 35.3225 5.09655 34.9382 4.98534 34.825C4.87378 34.7118 4.52169 34.9987 4.20257 35.4626ZM22.4763 37.9513C21.9934 38.8703 21.9815 41.1893 22.4582 41.4895C22.6784 41.6281 22.8204 41.0875 22.8204 40.1098C22.8204 39.2258 22.9975 38.3219 23.2142 38.1014C23.4833 37.8274 23.4891 37.6256 23.2323 37.4641C23.0258 37.3339 22.6857 37.5533 22.4763 37.9513ZM23.8408 41.8583C23.6054 42.9307 24.4204 44.962 24.8931 44.4808C25.0054 44.3668 24.9242 44.0611 24.7127 43.8018C24.5015 43.5426 24.2733 42.7504 24.2063 42.0412L24.0839 40.7519L23.8408 41.8583ZM25.8773 43.9232C25.6418 44.3111 26.8473 45.9862 27.905 46.7404C28.2962 47.0196 28.6161 47.0859 28.6161 46.8886C28.6161 46.6913 28.4433 46.4712 28.2321 46.3992C28.0206 46.3277 27.8329 45.7328 27.8145 45.0779C27.7964 44.4225 27.6841 43.8741 27.5649 43.8582C27.4457 43.8428 27.0636 43.7745 26.7158 43.707C26.3681 43.6392 25.9906 43.7362 25.8773 43.9232Z" fill="hsl(205,8%,42%)"/>
</g>
<defs>
<clipPath id="clip0_1301_1956">
<rect width="73.8947" height="52" fill="white"/>
</clipPath>
</defs>
</svg>
