<svg width="52" height="52" viewBox="0 0 52 52" fill="none" xmlns="http://www.w3.org/2000/svg">
<path fill-rule="evenodd" clip-rule="evenodd" d="M42.1013 1.03605C40.0789 2.01655 38.7633 3.33504 38.1565 4.98993C37.5216 6.72121 37.3931 6.8295 36.5994 6.30146C36.1873 6.02725 35.708 5.92191 35.3696 6.031C34.9729 6.15886 34.3496 5.90341 33.179 5.1328C31.1222 3.77919 29.497 3.13267 26.6911 2.55236C23.3275 1.85626 19.7049 2.29746 14.336 4.05688C12.8005 4.56026 8.97444 6.99381 8.97444 7.46717C8.97444 8.09733 9.4501 7.89228 10.7789 6.68985C12.3919 5.22983 13.8669 4.56616 17.6136 3.61541C21.5305 2.62152 23.9573 2.52073 26.9218 3.2289C29.3423 3.80733 32.4592 5.20329 32.654 5.79647C32.706 5.95515 32.1804 6.29851 31.486 6.55958C28.7798 7.5768 23.8652 10.7528 22.7304 12.2177C22.0718 13.0682 22.0407 13.2933 22.5549 13.4935C22.8107 13.5932 22.8888 13.5139 22.7906 13.2542C22.6135 12.7856 23.0015 12.7428 23.4349 13.1829C23.6068 13.3574 23.8385 13.4013 23.9497 13.2802C24.061 13.1593 24.003 13.0062 23.8206 12.9403C23.6382 12.8741 23.5566 12.7087 23.6395 12.5728C23.7221 12.4369 23.99 12.5289 24.235 12.7776C24.6523 13.2016 24.6853 13.2014 24.7661 12.7763C24.8181 12.5018 24.9741 12.4029 25.162 12.5256C25.7084 12.8827 26.6597 12.7789 26.6597 12.3624C26.6597 12.0697 26.817 12.1185 27.2705 12.5511C27.9832 13.2309 28.2897 13.2997 28.0751 12.7318C27.8436 12.1198 28.343 12.2514 29.0174 12.9805C29.3487 13.3383 29.761 13.5761 29.9339 13.5085C30.107 13.4413 30.5265 13.6865 30.8662 14.0537L31.4838 14.7214L32.5925 14.0615C34.1659 13.1252 34.3697 13.2343 33.6135 14.6081C32.9433 15.8255 32.0759 16.2203 31.7816 15.4419C31.7042 15.2369 31.4271 15.1262 31.166 15.1953C30.905 15.2648 29.7248 14.849 28.5436 14.2714L26.3958 13.2209V13.9816C26.3958 14.3998 26.5013 14.7421 26.6304 14.7421C26.7595 14.7421 26.8485 14.945 26.8284 15.1929C26.7904 15.6604 26.9321 15.751 29.9069 17.1571L31.7021 18.0057L30.9842 18.9873C29.4334 21.1072 28.1033 22.7587 27.9368 22.7707C27.7918 22.7812 23.6675 18.1325 22.1291 16.2249C21.8876 15.9252 21.5941 15.7772 21.4769 15.8957C21.3597 16.0145 21.3832 16.1954 21.5291 16.2978C21.8303 16.5095 24.9511 20.1235 26.5048 22.0601C27.4358 23.22 27.4973 23.3877 27.1301 23.7606C26.7629 24.1334 26.533 24.0265 24.7978 22.6748C23.7393 21.85 22.8043 21.1788 22.7207 21.1836C22.637 21.1882 22.3308 21.378 22.0404 21.6053C21.5268 22.0071 21.5479 22.0521 22.8323 23.2832C23.5582 23.9788 24.3807 24.8169 24.6602 25.1458C25.167 25.7422 25.1662 25.7457 24.2785 26.6758C23.2172 27.7876 22.8571 27.8321 22.2714 26.9245C22.0288 26.5485 21.6809 26.2992 21.4983 26.3705C21.1007 26.5252 20.7951 25.817 19.9499 22.7833C19.2762 20.3653 19.0192 19.5842 18.0531 17.0204C17.144 14.6083 17.2997 15.7102 18.3284 18.9702C21.1823 28.0123 21.3977 28.7944 21.2391 29.528C21.0569 30.3705 20.5887 30.8251 20.5887 30.1593C20.5887 29.9234 20.3624 28.9815 20.0861 28.0661C19.8094 27.1508 19.2641 25.3163 18.874 23.9895C18.4836 22.6627 17.6384 19.8968 16.9959 17.843C16.1642 15.1854 15.9089 14.0264 16.1106 13.8224C16.3117 13.6187 16.5395 13.7297 16.8969 14.206C17.3652 14.8297 17.3897 14.8356 17.2527 14.2915C17.0936 13.6613 16.4838 13.2957 16.048 13.5694C15.8997 13.6624 15.6655 13.5723 15.528 13.3692C15.2448 12.9516 15.4536 14.4295 15.8358 15.5462C16.6298 17.8677 17.6975 21.52 17.6083 21.6104C17.5027 21.7176 14.5435 18.4721 12.758 16.2914C11.7906 15.1098 10.8491 14.4255 10.4956 14.6475C10.1409 14.8699 10.2805 15.2666 10.6614 15.1181C11.1505 14.9276 16.1779 20.9617 16.398 22.0038C16.4886 22.4324 16.4653 22.7833 16.3463 22.7833C16.2273 22.7833 15.3372 21.7524 14.3685 20.4924C13.3995 19.2323 12.5455 18.2636 12.4706 18.3397C12.3956 18.4156 12.5265 18.7758 12.7615 19.1398C13.1228 19.6998 17.2089 24.6818 18.7177 26.4019C19.1435 26.887 19.7949 28.6347 20.1457 30.2319C20.2357 30.6409 20.09 31.0304 19.7089 31.4006C19.0445 32.0452 16.4442 34.041 16.2687 34.041C16.203 34.041 16.0116 33.1667 15.8432 32.0977C15.272 28.4714 14.7253 27.173 13.9036 27.4931C13.509 27.6469 13.4443 27.9726 13.4905 29.5768C13.5206 30.6227 13.7043 32.3264 13.8991 33.3626C14.0937 34.3991 14.2531 35.2561 14.2534 35.2668C14.2534 35.2775 13.7136 35.56 13.0537 35.8948L11.8534 36.5035L10.5571 35.2722C9.84419 34.5951 9.16687 34.0437 9.05178 34.0472C8.9367 34.0507 9.30096 34.4729 9.86135 34.9854C10.422 35.4978 10.7717 35.9173 10.6392 35.9173C10.1652 35.9173 8.71048 34.1386 8.71048 33.5591C8.71048 32.7145 9.10616 32.8287 9.91625 33.907C10.3037 34.423 10.7939 34.8452 11.0056 34.8452C11.2308 34.8452 11.0455 34.5503 10.56 34.1354C10.1031 33.7451 9.8463 33.3524 9.98937 33.2627C10.1496 33.1621 10.106 32.9008 9.87586 32.581C9.62563 32.2334 9.50236 32.1854 9.50236 32.4352C9.50236 32.6912 9.4171 32.7215 9.23048 32.532C9.0634 32.3623 9.04545 32.0168 9.18323 31.6381C9.40707 31.0237 9.41209 31.0253 10.1013 31.9195C10.4824 32.414 10.875 32.7368 10.9734 32.6368C11.0719 32.5365 10.7812 32.1377 10.3275 31.7498C9.50843 31.05 9.29383 30.2335 9.74098 29.517C9.86768 29.3139 10.1034 29.2305 10.2647 29.3318C10.6289 29.5605 10.6527 29.1514 10.2961 28.7893C9.96429 28.4524 11.419 25.3187 12.7731 23.4534L13.746 22.1132L12.3991 23.5874C9.99042 26.2231 7.90409 31.4566 7.87743 34.9291C7.86766 36.2084 7.86212 36.2167 7.33314 35.7345C6.40242 34.8862 4.78989 32.2787 3.7689 29.9714L2.78248 27.7421L2.79278 23.8555C2.80386 19.6971 3.21907 17.2598 4.37706 14.5552C4.97414 13.1612 7.64594 9.2676 8.42752 8.65271C8.68356 8.45115 8.72131 8.32275 8.52598 8.31766C7.55856 8.29166 4.18833 13.2309 3.44951 15.7571C1.86892 21.1617 1.70368 27.0422 3.05067 29.9553C4.21895 32.4829 5.87741 35.1799 6.87993 36.1824C8.35889 37.6617 9.6127 39.6651 9.27456 40.0084C9.06947 40.2167 8.7968 40.21 8.30927 39.9843C7.9355 39.8114 7.47489 39.6699 7.28589 39.6699C6.96545 39.6699 4.33061 43.8822 1.48433 48.9436C-0.589069 52.631 -0.1018 52.6648 3.99063 49.1184C5.64908 47.6811 7.89458 45.7877 8.98025 44.9112C10.0659 44.0347 11.0529 43.2346 11.1738 43.1335C11.2946 43.0325 11.2424 42.7039 11.0576 42.4037C10.7855 41.9611 10.7863 41.7789 11.0618 41.4419C11.367 41.0685 11.5069 41.0803 12.4318 41.5596C12.9982 41.8531 13.4618 42.1983 13.4618 42.3267C13.4618 42.6835 15.456 43.4174 17.9491 43.9784C22.2265 44.9407 28.4473 44.4228 32.4668 42.7701C34.7767 41.8204 38.309 39.3574 39.6542 37.7582C40.9555 36.2116 42.4973 33.4865 42.4973 32.7333C42.4973 32.4861 42.685 32.0122 42.9141 31.6799C43.7659 30.445 44.6084 26.3544 44.6087 23.4534C44.609 19.9914 43.5769 15.2286 42.2853 12.7318C41.5877 11.3832 40.2354 9.42655 39.7326 9.03816C39.5837 8.9229 39.7635 8.89958 40.1319 8.98589C41.083 9.2089 42.0454 8.76395 43.4433 7.45564C44.5137 6.4537 44.6874 6.37356 44.9101 6.77803C45.2245 7.34843 46.2743 7.37067 47.0952 6.8244C47.4903 6.56146 48.4435 6.39125 49.7229 6.35533C51.9243 6.29341 52.2973 5.95247 50.9245 5.2569C50.4417 5.01218 49.7736 4.90469 49.2747 4.99127L48.4364 5.13682L49.0963 4.58465C49.4592 4.28096 49.8581 4.02954 49.9824 4.02632C50.1067 4.02311 50.1352 3.8261 50.0455 3.58861C49.9132 3.23908 50.0085 3.18896 50.5451 3.32566C50.9281 3.42323 51.2079 3.37927 51.2079 3.22139C51.2079 3.07129 51.0269 2.94826 50.8054 2.94826C50.5842 2.94826 50.2891 2.64377 50.1497 2.27146L49.8963 1.59492L48.6383 2.24653C47.0836 3.05226 45.8021 4.37076 46.0182 4.94249C46.1051 5.17247 46.358 5.36063 46.5805 5.36063C47.0353 5.36063 47.1229 5.77824 46.7206 6.03073C46.5755 6.12187 46.4567 6.05003 46.4567 5.87098C46.4567 5.67129 46.2484 5.73696 45.9174 6.04119C45.3805 6.53465 45.3789 6.53197 45.5597 5.34562C45.6598 4.69053 45.843 3.87515 45.967 3.53393C46.3537 2.47061 46.2199 1.86243 45.4212 1.05133C44.4622 0.0775387 44.0821 0.0756623 42.1013 1.03605ZM42.8932 1.25987C41.3939 1.86832 40.0174 2.9496 40.3336 3.27071C40.4999 3.43958 40.9866 3.23962 41.7154 2.70381C43.3976 1.46626 44.345 1.65308 44.345 3.22247C44.345 3.87354 44.8679 4.1917 45.1622 3.71968C45.4774 3.21443 45.4592 1.95141 45.1276 1.32232C44.8009 0.702343 44.302 0.688405 42.8932 1.25987ZM50.5842 2.01092C50.4295 2.42022 51.2724 3.06137 51.5693 2.7601C51.862 2.46257 51.7496 2.1704 51.2343 1.8903C50.8556 1.68471 50.6964 1.7142 50.5842 2.01092ZM48.7003 2.94826C48.5079 3.26455 48.7576 3.75238 49.1118 3.75238C49.2486 3.75238 49.3602 3.51115 49.3602 3.2163C49.3602 2.651 48.9762 2.495 48.7003 2.94826ZM47.6445 3.48434C47.5547 3.63177 47.6001 3.75238 47.7453 3.75238C47.8905 3.75238 48.0827 3.63177 48.1724 3.48434C48.2622 3.33692 48.2168 3.2163 48.0716 3.2163C47.9264 3.2163 47.7342 3.33692 47.6445 3.48434ZM23.4922 3.68859C23.4922 3.84647 23.6321 4.02311 23.8029 4.081C24.264 4.237 23.8042 4.82455 23.2209 4.82455C22.8592 4.82455 22.7645 4.69857 22.8854 4.37853C22.9989 4.07859 22.9529 3.99603 22.7452 4.1263C22.2938 4.40962 22.3669 4.76799 22.9397 5.07919C23.3209 5.28638 23.5825 5.23814 24.0164 4.88137L24.5898 4.40989L24.041 3.9057C23.7393 3.62828 23.4922 3.53045 23.4922 3.68859ZM40.5677 4.42838C40.1597 4.94758 39.7157 5.30327 39.5808 5.21857C39.4438 5.13253 39.4127 5.26843 39.5106 5.52735C39.6444 5.8817 39.5821 5.94952 39.2437 5.81764C38.729 5.61715 38.6625 5.91601 39.1186 6.37919C39.3649 6.62927 39.3649 6.7724 39.1186 7.02249C38.7984 7.34762 38.6744 8.30908 38.9526 8.30908C39.0357 8.30908 39.2662 8.15845 39.4649 7.97403C39.6637 7.78989 40.2235 7.34762 40.7092 6.99166C42.1935 5.90341 42.5261 5.29308 42.1642 4.3201C41.7659 3.24847 41.4795 3.26777 40.5677 4.42838ZM39.5122 3.9376C39.4311 4.07082 39.4607 4.33805 39.5782 4.53104C39.6956 4.72377 39.8582 4.77255 39.9393 4.63933C40.0203 4.50612 39.9907 4.23888 39.8733 4.04589C39.7558 3.85317 39.5932 3.80438 39.5122 3.9376ZM20.4158 5.58284C21.9876 7.34655 18.7248 9.41395 16.3431 8.16354C15.5729 7.75906 15.4927 7.7529 15.7925 8.11985C17.1831 9.82218 21.1166 8.7342 21.1166 6.64696C21.1166 5.96265 20.6451 5.09259 20.2745 5.09259C20.108 5.09259 20.1695 5.30649 20.4158 5.58284ZM42.3598 6.43923C41.9865 6.85791 41.9477 7.05412 42.1898 7.29991C42.4316 7.54544 42.6303 7.48915 43.06 7.05251C43.3665 6.74131 43.5365 6.35399 43.4375 6.19183C43.1772 5.76403 42.9059 5.82622 42.3598 6.43923ZM38.186 6.7456C38.0987 7.0844 38.1596 7.48432 38.3214 7.63442C38.5308 7.82822 38.5706 7.77649 38.4595 7.45537C38.3737 7.2069 38.4455 6.95038 38.6187 6.88579C38.8512 6.79867 38.8565 6.68422 38.6393 6.44861C38.4154 6.20603 38.3064 6.2776 38.186 6.7456ZM36.4323 7.66418C36.4289 7.82554 37.0273 8.65513 37.7619 9.5075C38.4965 10.3599 39.2823 11.3436 39.5079 11.6936C39.7336 12.0434 40.0311 12.3297 40.1686 12.3297C40.676 12.3297 40.2301 11.1031 39.4905 10.4647C39.0706 10.1023 38.2122 9.25795 37.5829 8.58838C36.9533 7.91882 36.4357 7.50282 36.4323 7.66418ZM36.5991 9.02717C36.5041 9.12366 36.4281 9.57451 36.4302 10.0291C36.4331 10.5944 36.5059 10.7405 36.6611 10.4917C36.8298 10.2218 36.9375 10.2092 37.0798 10.443C37.1854 10.6164 37.4316 10.6957 37.6272 10.6193C37.8416 10.536 37.9311 10.6183 37.8527 10.8263C37.7809 11.0163 37.9054 11.3264 38.1298 11.5154C38.4735 11.8049 38.536 11.78 38.5268 11.3572C38.5141 10.7732 36.8546 8.76744 36.5991 9.02717ZM10.9449 10.3044C10.517 10.7389 10.3594 11.1184 10.4774 11.4302C10.6266 11.8247 10.6933 11.784 10.8929 11.1763C11.15 10.3931 12.2523 9.92216 12.719 10.3961C13.079 10.7617 12.8 11.1846 11.7832 11.8143C11.0244 12.2841 11.0056 12.3278 11.5599 12.3286C12.1644 12.3297 13.4618 11.2519 13.4618 10.7488C13.4618 10.414 12.403 9.64929 11.9392 9.64929C11.7471 9.64929 11.2997 9.94414 10.9449 10.3044ZM28.9221 11.6786C28.6426 11.8864 28.4887 12.1322 28.58 12.2249C28.6716 12.3176 28.9443 12.1925 29.1861 11.9467C29.7552 11.369 29.5794 11.1908 28.9221 11.6786ZM25.6725 11.9236C25.4925 12.1314 25.4389 12.3603 25.5537 12.4321C25.6683 12.5042 25.9059 12.3297 26.0811 12.0442C26.4483 11.4473 26.1593 11.3621 25.6725 11.9236ZM27.1876 11.7936C27.1876 11.941 27.3064 12.0617 27.4516 12.0617C27.5968 12.0617 27.7156 11.941 27.7156 11.7936C27.7156 11.6462 27.5968 11.5256 27.4516 11.5256C27.3064 11.5256 27.1876 11.6462 27.1876 11.7936ZM38.8103 11.736C38.7992 12.185 39.5866 13.4019 39.888 13.4019C40.3006 13.4019 40.1391 12.9156 39.4702 12.1437C39.1117 11.7301 38.8148 11.5465 38.8103 11.736ZM36.1623 12.0617C36.1623 12.2091 36.2882 12.3297 36.4418 12.3297C36.5954 12.3297 36.6479 12.2091 36.5582 12.0617C36.4685 11.9142 36.3428 11.7936 36.2787 11.7936C36.2145 11.7936 36.1623 11.9142 36.1623 12.0617ZM41.1176 12.3967C41.0534 12.5811 40.9745 13.3349 40.9418 14.0717C40.909 14.8088 40.5881 16.3021 40.2283 17.3901C39.8688 18.4783 39.6085 19.4004 39.65 19.4395C39.6917 19.4786 40.1713 19.6979 40.7156 19.9271C41.7801 20.375 42.0264 21.1708 41.3755 22.0591C41.0738 22.4708 40.9349 22.4751 39.7482 22.1097C39.0347 21.8899 38.4299 21.7406 38.4043 21.7776C38.379 21.8149 37.6037 23.0514 36.682 24.5256C35.7602 25.9998 34.4309 27.9621 33.728 28.8863C32.8509 30.0395 32.5582 30.609 32.7949 30.7012C33.0264 30.7913 33.1056 31.1974 33.0362 31.9375C32.957 32.7791 33.0119 32.9898 33.2685 32.8287C33.4955 32.6864 33.539 32.7252 33.4026 32.9493C33.1444 33.3734 34.5054 34.8452 35.1558 34.8452C35.6628 34.8452 35.8149 34.1861 35.3717 33.9078C35.2273 33.8172 34.9723 33.4784 34.805 33.1549C34.5933 32.7456 34.7873 32.8485 35.4435 33.4937C36.1921 34.2295 36.3341 34.5192 36.133 34.9009C35.6457 35.8251 34.6595 35.4684 33.0156 33.773C32.158 32.8885 31.3534 32.1648 31.2275 32.1648C31.1016 32.1648 30.3016 32.8799 29.4498 33.754L27.9011 35.3432L28.5893 36.1736C29.3096 37.0428 29.2972 37.6331 28.5531 37.9258C28.2527 38.0437 27.8935 37.8349 27.4297 37.2731L26.7479 36.4467L24.9221 37.6666C23.918 38.3375 22.7993 38.9558 22.4364 39.0408C22.0734 39.1258 21.0226 39.6077 20.1014 40.1119C19.1799 40.6158 17.5782 41.2095 16.5416 41.4309C14.6971 41.825 13.9865 42.1581 14.4286 42.4214C14.5501 42.4937 15.778 42.8328 17.1572 43.1745C20.8568 44.0915 25.544 44.0516 29.2046 43.0724C32.4022 42.2168 33.6755 41.685 35.7724 40.329C37.2751 39.3574 40.6496 36.0916 40.6496 35.6094C40.6496 35.4839 40.6406 35.314 40.6298 35.2319C40.619 35.1497 40.8972 34.6975 41.2485 34.2268C41.901 33.3519 43.8171 27.983 43.8171 27.0291C43.8171 26.7385 43.9385 26.2705 44.0866 25.9891C44.3181 25.5503 44.0768 21.0815 43.7255 19.2988C43.1889 16.5744 42.5754 14.3759 42.0612 13.3349C41.3865 11.9687 41.2971 11.8797 41.1176 12.3967ZM29.4331 12.5948C29.3408 12.7465 29.4466 12.7915 29.6815 12.7001C30.1387 12.5219 30.2224 12.3297 29.8428 12.3297C29.7061 12.3297 29.5218 12.449 29.4331 12.5948ZM37.878 12.8658C37.9677 13.0132 38.0934 13.1338 38.1575 13.1338C38.2217 13.1338 38.2739 13.0132 38.2739 12.8658C38.2739 12.7184 38.148 12.5977 37.9944 12.5977C37.8408 12.5977 37.7883 12.7184 37.878 12.8658ZM35.6343 13.4019C35.7898 13.6967 36.0356 13.938 36.1807 13.938C36.3507 13.938 36.3439 13.7466 36.1623 13.4019C36.0068 13.107 35.761 12.8658 35.6159 12.8658C35.4459 12.8658 35.4527 13.0572 35.6343 13.4019ZM35.0257 13.5731C34.7216 13.8822 34.819 14.206 35.2165 14.206C35.4221 14.206 35.6433 14.3569 35.7082 14.541C35.7729 14.7255 35.9247 14.7823 36.0456 14.6676C36.1662 14.5528 36.0274 14.2178 35.737 13.9229C35.4467 13.6281 35.1265 13.4708 35.0257 13.5731ZM38.9354 13.9396C39.1988 14.2355 39.4718 14.4191 39.5417 14.3481C39.7191 14.1679 39.0608 13.4019 38.7287 13.4019C38.5788 13.4019 38.6717 13.6439 38.9354 13.9396ZM5.95765 14.5282C5.42947 15.294 4.51459 18.0977 4.40108 19.2988C4.2823 20.5556 4.63838 21.2474 5.29511 21.036C5.72959 20.8958 5.80957 21.0054 5.82356 21.7602C5.83887 22.5622 5.86368 22.5901 6.07934 22.0459C6.48055 21.0319 6.08356 20.4816 5.05438 20.6253C4.37178 20.7205 4.96701 17.2515 6.00648 15.0771C6.60488 13.8251 6.5864 13.6166 5.95765 14.5282ZM36.4682 14.407C36.5088 14.6027 36.3742 15.0326 35.8769 16.2959C35.5723 17.0692 35.5689 17.4225 35.8664 17.4225C36.1514 17.4225 36.6297 16.2469 36.82 15.0771C36.9021 14.5724 36.8491 14.206 36.6939 14.206C36.5466 14.206 36.445 14.2963 36.4682 14.407ZM20.7206 14.7421C20.5301 15.0549 20.7766 15.5462 21.124 15.5462C21.2559 15.5462 21.2876 15.3444 21.1944 15.0975C21.0669 14.7603 21.1324 14.6909 21.4581 14.8179C21.6965 14.9107 21.9618 14.8713 22.0476 14.7303C22.1333 14.5893 21.9066 14.474 21.5437 14.474C21.1807 14.474 20.8104 14.5947 20.7206 14.7421ZM27.4516 15.113C27.4516 15.6598 27.7206 15.8534 29.3144 16.4532C30.3391 16.839 31.2225 17.1544 31.2777 17.1544C31.3329 17.1544 31.359 16.8952 31.3355 16.5782C31.2801 15.8314 28.8556 14.6056 28.3224 15.0549C28.065 15.2717 27.9795 15.2353 27.9795 14.9088C27.9795 14.6697 27.8607 14.474 27.7156 14.474C27.5704 14.474 27.4516 14.7616 27.4516 15.113ZM34.4518 14.7332C34.365 14.8758 34.5363 15.1463 34.8322 15.3339C35.1283 15.5215 35.3783 15.9174 35.3883 16.2139C35.4055 16.735 35.4147 16.7342 35.6779 16.1828C36.0722 15.3559 34.9095 13.9814 34.4518 14.7332ZM34.3145 15.6633C34.3145 15.911 34.2008 16.0426 34.0619 15.9552C33.9228 15.8681 33.618 16.1718 33.3846 16.6304C33.151 17.0888 32.5489 18.0277 32.0463 18.7163C31.5438 19.4052 30.3934 20.9802 29.4902 22.2164C27.293 25.2228 24.414 28.3527 21.4489 30.9586C19.5307 32.6445 19.0089 33.2535 19.007 33.8073C19.0044 34.6731 19.6796 35.3394 20.1135 34.8988C20.33 34.679 20.3123 34.4729 20.0465 34.1193C19.8477 33.8553 20.0433 33.9705 20.4812 34.3761C21.3824 35.2105 21.6445 35.2872 21.6445 34.7173C21.6445 34.4997 21.3444 34.1217 20.9777 33.8778C20.4818 33.5478 20.3543 33.2892 20.4796 32.8665C20.7837 31.8415 21.1398 31.719 21.0601 32.6671C21.0041 33.3318 21.12 33.6427 21.5086 33.8695C21.7965 34.0376 22.1909 34.3882 22.3844 34.6487C22.7716 35.1692 23.3447 35.0036 23.129 34.4332C23.0548 34.2367 23.1359 34.0231 23.309 33.9585C23.5036 33.8864 23.2958 33.4899 22.7663 32.9233C22.2946 32.4183 21.9085 31.9112 21.9085 31.7965C21.9085 31.6815 22.216 31.9586 22.5918 32.4122C22.9677 32.8657 23.3623 33.2369 23.4692 33.2369C23.5759 33.2369 23.7831 32.8448 23.9296 32.3658C24.0763 31.8868 24.1687 31.7013 24.1355 31.9538C24.102 32.2066 24.2405 32.5529 24.4433 32.7239C24.9477 33.1487 24.9062 33.453 24.3501 33.4082C24.0075 33.3806 23.8881 33.5728 23.8881 34.1528C23.8881 34.587 24.0534 34.9904 24.2601 35.0604C24.5195 35.1483 24.5805 35.0494 24.4612 34.7339C24.3662 34.4828 24.3992 34.3496 24.5348 34.4348C24.6695 34.5192 24.9073 34.3748 25.0633 34.1137C25.2995 33.7186 25.3212 33.7567 25.1918 34.3396C24.9801 35.2955 25.7892 35.6587 26.0231 34.7128C26.2506 33.7918 26.8387 33.3358 26.812 34.1011C26.8009 34.4227 26.2889 35.2344 25.6744 35.9047C25.0599 36.5751 24.5549 37.213 24.5525 37.3224C24.5502 37.4315 25.2621 36.9697 26.1344 36.2958C27.0071 35.622 27.6501 34.9543 27.5635 34.8122C27.4769 34.6699 27.5849 34.2766 27.8032 33.9381C28.0218 33.5996 28.3367 32.8086 28.5032 32.1806C28.6698 31.5523 28.8638 31.0971 28.9343 31.1684C29.0047 31.24 28.8274 32.005 28.5404 32.8684C28.2535 33.7317 28.055 34.475 28.0996 34.5203C28.2949 34.7189 32.4629 29.7722 33.9909 27.5284C35.7014 25.0169 37.6542 21.2606 37.3894 20.9917C37.3089 20.91 37.4158 20.6679 37.6267 20.454C37.9828 20.0924 38.172 19.0307 37.8806 19.0307C37.8094 19.0307 37.4013 19.8148 36.9734 20.773C36.1177 22.6895 35.6977 23.1438 36.3565 21.4402C36.7731 20.3637 36.6245 19.6368 36.1398 20.3787C35.9556 20.661 35.9302 20.5634 36.0509 20.0359C36.1831 19.458 36.1245 19.2988 35.7793 19.2988C35.5372 19.2988 35.4044 19.1918 35.4839 19.061C35.6626 18.7678 34.9916 18.1644 34.7546 18.4054C34.6603 18.5011 34.7305 18.7608 34.9108 18.9828C35.179 19.3127 35.1666 19.3615 34.8425 19.2519C34.4325 19.113 34.2705 18.0269 34.5899 17.5565C34.976 16.9875 35.0243 15.8108 34.6735 15.5151C34.3951 15.2803 34.3145 15.3135 34.3145 15.6633ZM22.9643 15.7826C22.9643 15.93 23.0831 16.1252 23.2282 16.2163C23.3734 16.3074 23.4922 16.2613 23.4922 16.1139C23.4922 15.9665 23.3734 15.7714 23.2282 15.6802C23.0831 15.5891 22.9643 15.6352 22.9643 15.7826ZM36.8736 16.2833C36.7931 16.6889 36.6466 17.2314 36.5484 17.4895C36.4428 17.7669 36.4919 17.9586 36.6685 17.9586C36.833 17.9586 37.0391 17.5943 37.1268 17.1488C37.2144 16.7036 37.3918 16.2731 37.5203 16.1922C37.6491 16.1115 37.6864 15.933 37.6027 15.7957C37.3237 15.3371 37.0215 15.539 36.8736 16.2833ZM10.8786 16.6706C11.0901 16.9944 11.4134 17.3099 11.5969 17.3721C11.8139 17.4455 11.7724 17.24 11.4778 16.7835C11.2289 16.3978 10.9058 16.0823 10.7596 16.0823C10.6134 16.0823 10.667 16.3471 10.8786 16.6706ZM31.851 16.2611C31.577 16.539 31.6441 17.4225 31.9389 17.4225C32.0841 17.4225 32.2029 17.1209 32.2029 16.7524C32.2029 16.0507 32.1419 15.9654 31.851 16.2611ZM37.746 16.7682C37.746 16.9979 37.8648 17.1116 38.01 17.0204C38.1552 16.9293 38.2739 16.7414 38.2739 16.6025C38.2739 16.4637 38.1552 16.3503 38.01 16.3503C37.8648 16.3503 37.746 16.5385 37.746 16.7682ZM25.7359 18.7906C26.8973 20.0284 28.0257 21.0829 28.2435 21.1341C28.6489 21.2292 27.3281 19.7108 25.506 17.987C23.5197 16.1083 23.6516 16.569 25.7359 18.7906ZM33.8075 17.0427C33.8201 17.3549 33.8827 17.4185 33.9669 17.2048C34.0432 17.0113 34.0337 16.78 33.9461 16.691C33.8584 16.602 33.7961 16.7602 33.8075 17.0427ZM34.9673 17.4343C34.7567 17.7803 35.3427 18.5437 35.6642 18.3419C36.053 18.098 35.9268 17.6222 35.5158 17.7822C35.26 17.8819 35.1819 17.8026 35.2801 17.5428C35.4488 17.0963 35.2212 17.0172 34.9673 17.4343ZM38.2739 17.5723C38.2739 17.802 38.3927 17.9157 38.5379 17.8245C38.6831 17.7334 38.8019 17.5455 38.8019 17.4067C38.8019 17.2678 38.6831 17.1544 38.5379 17.1544C38.3927 17.1544 38.2739 17.3426 38.2739 17.5723ZM37.3828 17.6367C37.2751 17.8138 37.2717 17.9586 37.3754 17.9586C37.4792 17.9586 37.3569 18.191 37.1038 18.4748C36.8509 18.7587 36.6923 19.2109 36.7514 19.48C36.8303 19.84 36.9774 19.6912 37.3086 18.9157C37.7421 17.9009 37.797 16.9564 37.3828 17.6367ZM35.8983 18.6287C35.8983 18.8745 36.0261 19.0321 36.1821 18.9793C36.3381 18.9265 36.4658 18.7689 36.4658 18.6287C36.4658 18.4885 36.3381 18.3309 36.1821 18.2781C36.0261 18.2253 35.8983 18.3829 35.8983 18.6287ZM38.01 18.4947C38.01 18.6421 38.1359 18.7627 38.2895 18.7627C38.4431 18.7627 38.4957 18.6421 38.4059 18.4947C38.3162 18.3472 38.1905 18.2266 38.1264 18.2266C38.0622 18.2266 38.01 18.3472 38.01 18.4947ZM39.9825 20.6159C40.0929 20.9689 40.0414 21.1751 39.8432 21.1751C39.6069 21.1751 39.6104 21.2745 39.8577 21.5771C40.3642 22.1968 40.9135 22.0625 40.9135 21.3185C40.9135 20.9223 40.6923 20.5377 40.3605 20.3573C39.8672 20.0892 39.8265 20.1168 39.9825 20.6159ZM38.942 20.7175C38.829 20.9818 38.8108 21.2734 38.9011 21.3654C39.1693 21.6374 39.3855 21.2552 39.2619 20.7269C39.1527 20.2586 39.1384 20.2584 38.942 20.7175ZM22.1724 22.1038C22.1724 22.4595 23.1641 23.2181 23.352 23.0061C23.3953 22.9573 23.3296 22.6458 23.2061 22.3142C22.9569 21.6457 22.1724 21.486 22.1724 22.1038ZM23.7562 23.1696C23.7562 23.5467 23.8749 23.8555 24.0201 23.8555C24.1653 23.8555 24.2841 23.6215 24.2841 23.3352C24.2841 23.0489 24.1653 22.7404 24.0201 22.6493C23.8705 22.5552 23.7562 22.7806 23.7562 23.1696ZM4.90525 23.7271C4.81339 24.0986 4.86275 24.639 5.01505 24.9276C5.16736 25.2163 5.22305 25.731 5.13911 26.0708C5.0235 26.5383 5.18715 26.8709 5.80904 27.4336C6.71099 28.2497 6.73105 28.7684 5.86553 28.8981C5.36427 28.9732 5.33708 29.0576 5.60632 29.7023C6.03156 30.72 6.4436 31.113 6.25434 30.3204C6.16301 29.9373 6.25434 29.5278 6.4824 29.2962C7.06311 28.7065 6.95225 27.6748 6.26886 27.3092C5.42709 26.8591 5.39119 26.7554 5.40149 24.8038C5.41126 22.9996 5.19903 22.5389 4.90525 23.7271ZM16.8932 23.3036C16.8932 23.4424 17.012 23.6303 17.1572 23.7215C17.3024 23.8126 17.4211 23.6989 17.4211 23.4692C17.4211 23.2395 17.3024 23.0514 17.1572 23.0514C17.012 23.0514 16.8932 23.1647 16.8932 23.3036ZM24.7355 24.1235C24.8115 24.4184 24.9192 24.6596 24.9749 24.6596C25.0303 24.6596 25.076 24.4184 25.076 24.1235C25.076 23.8287 24.9683 23.5874 24.8368 23.5874C24.7051 23.5874 24.6597 23.8287 24.7355 24.1235ZM18.2547 24.6596C18.2547 25.0282 18.3146 25.1791 18.3878 24.9947C18.4611 24.8105 18.4611 24.509 18.3878 24.3245C18.3146 24.1404 18.2547 24.291 18.2547 24.6596ZM25.3399 24.9276C25.3399 25.0751 25.4658 25.1957 25.6195 25.1957C25.7731 25.1957 25.8256 25.0751 25.7359 24.9276C25.6461 24.7802 25.5205 24.6596 25.4563 24.6596C25.3922 24.6596 25.3399 24.7802 25.3399 24.9276ZM13.9387 28.1932C13.6822 28.9416 14.1871 33.5655 14.5511 33.7998C15.2865 34.2729 15.6436 34.0783 15.462 33.3039C15.3667 32.8984 15.2345 32.1447 15.168 31.6287C15.0033 30.3531 14.4822 28.3272 14.2497 28.0592C14.1451 27.9385 14.0052 27.9989 13.9387 28.1932ZM31.766 29.3618C31.68 29.5894 31.6686 29.8355 31.7407 29.9087C31.813 29.9818 31.9352 29.7955 32.0126 29.4951C32.1773 28.8563 31.9943 28.7577 31.766 29.3618ZM34.3259 29.0882C34.3196 29.2388 34.6785 29.8108 35.1236 30.359C35.8756 31.2856 35.9622 31.8967 35.3413 31.8967C35.1972 31.8967 34.6704 31.4445 34.1704 30.8916C33.0159 29.6151 32.9681 30.1276 34.1166 31.4697C35.018 32.5234 35.6613 32.5794 36.1528 31.6466C36.3354 31.2998 36.148 30.9087 35.3648 30.003C34.7994 29.3492 34.332 28.9375 34.3259 29.0882ZM29.7393 31.5394C29.6425 31.6375 29.567 31.909 29.5712 32.1425C29.5778 32.491 29.6295 32.4794 29.8594 32.0776C30.1437 31.5812 30.0614 31.2124 29.7393 31.5394ZM31.6749 31.6445C31.6749 31.8005 31.7937 31.8538 31.9389 31.7627C32.0841 31.6716 32.2029 31.544 32.2029 31.4788C32.2029 31.4137 32.0841 31.3606 31.9389 31.3606C31.7937 31.3606 31.6749 31.4885 31.6749 31.6445ZM14.7815 32.9689C14.7815 33.1163 14.9075 33.2369 15.0611 33.2369C15.2147 33.2369 15.2672 33.1163 15.1775 32.9689C15.0877 32.8215 14.9621 32.7008 14.898 32.7008C14.8338 32.7008 14.7815 32.8215 14.7815 32.9689ZM25.3608 33.1251C25.3734 33.4374 25.436 33.5009 25.5202 33.2873C25.5965 33.0938 25.587 32.8625 25.4994 32.7735C25.4117 32.6845 25.3494 32.8426 25.3608 33.1251ZM11.5528 33.55C11.7064 33.706 11.9875 33.7805 12.1781 33.7162C12.3758 33.6492 12.256 33.5277 11.8991 33.4329C11.4601 33.3163 11.3569 33.3511 11.5528 33.55ZM17.9586 33.8952C17.7833 34.1099 17.7162 34.4115 17.81 34.5653C17.9037 34.7192 17.8514 34.8452 17.6941 34.8452C17.5368 34.8452 17.2873 35.1676 17.1398 35.5616C16.9312 36.1189 16.9619 36.3701 17.2783 36.6912C17.6447 37.0635 17.6883 37.0522 17.7162 36.5778C17.7337 36.2883 17.7316 35.9543 17.7118 35.8358C17.692 35.7174 17.8559 35.4375 18.0763 35.2137C18.2967 34.9899 18.477 34.5139 18.477 34.156C18.477 33.401 18.3959 33.3602 17.9586 33.8952ZM8.44652 34.7382C8.44652 35.2389 10.1826 36.7215 10.7688 36.7215C11.0885 36.7215 11.3501 36.6081 11.3501 36.4692C11.3501 36.0664 10.876 35.8803 10.678 36.2052C10.564 36.3928 10.12 36.1277 9.47201 35.4852C8.90792 34.9258 8.44652 34.5897 8.44652 34.7382ZM14.7322 34.7602C14.9225 34.8377 15.1503 34.828 15.2379 34.739C15.3256 34.65 15.1698 34.5868 14.8916 34.5983C14.5841 34.6112 14.5215 34.6747 14.7322 34.7602ZM15.8179 35.1649C15.4422 35.4252 15.4475 35.5429 15.8722 36.3888C16.4247 37.4891 17.4211 38.3377 17.4211 37.7076C17.4211 37.1337 16.7185 36.6032 16.5437 37.0452C16.4685 37.2358 16.3975 37.0838 16.3862 36.7081C16.3748 36.3323 16.217 35.8621 16.0354 35.6635C15.8416 35.4517 15.8295 35.3729 16.0055 35.4729C16.1705 35.5667 16.4521 35.4638 16.6316 35.2443C16.8938 34.9237 16.8866 34.8484 16.5955 34.861C16.3965 34.8696 16.0464 35.0063 15.8179 35.1649ZM18.7874 35.2947C18.8378 35.56 19.0854 35.8176 19.3378 35.8669C19.9676 35.99 19.915 35.5852 19.2464 35.1612C18.761 34.8535 18.7069 34.869 18.7874 35.2947ZM20.3247 35.2145C20.3247 35.4174 20.4923 35.7249 20.6971 35.8975C21.1992 36.3207 21.5418 35.7675 21.1071 35.2354C20.7045 34.743 20.3247 34.7329 20.3247 35.2145ZM21.8279 35.2078C21.6857 35.5844 22.0919 36.1854 22.4892 36.1854C22.8342 36.1854 22.7291 35.4713 22.3353 35.1392C22.0555 34.9033 21.937 34.9194 21.8279 35.2078ZM23.3681 35.1001C23.1404 35.4745 23.4307 35.9173 23.9037 35.9173C24.3883 35.9173 24.3923 35.5381 23.9116 35.133C23.6569 34.9183 23.4851 34.9082 23.3681 35.1001ZM24.7083 35.8053C24.4604 36.4612 24.5143 36.5261 24.944 36.0897C25.3927 35.634 25.45 35.3812 25.1042 35.3812C24.9746 35.3812 24.7964 35.5721 24.7083 35.8053ZM27.4516 35.99C27.4516 36.2132 27.6298 36.4655 27.8475 36.5504C28.0653 36.6351 28.2435 36.6024 28.2435 36.4778C28.2435 36.3532 28.0653 36.1009 27.8475 35.9173C27.5252 35.6458 27.4516 35.6592 27.4516 35.99ZM14.3964 36.1674C14.3009 36.3248 14.3186 36.4553 14.436 36.4574C14.5535 36.4598 14.4883 36.5652 14.2914 36.692C14.0615 36.8402 14.0311 36.9839 14.2064 37.094C14.3566 37.1881 14.5582 37.0134 14.6546 36.7051C14.8481 36.0865 14.6707 35.7171 14.3964 36.1674ZM18.4458 36.2301C18.4284 36.4266 18.4337 36.7383 18.4572 36.9225C18.4809 37.1069 18.3616 37.2575 18.1922 37.2575C17.967 37.2575 17.9726 37.3653 18.213 37.6596C18.3938 37.8807 18.6604 38.0617 18.8056 38.0617C18.9529 38.0617 18.9241 37.8839 18.7409 37.6596C18.4788 37.3388 18.4788 37.2575 18.7409 37.2575C18.9899 37.2575 18.9817 37.1479 18.7072 36.8054C18.3883 36.407 18.4028 36.3751 18.8291 36.5373C19.1464 36.6582 19.277 36.6121 19.2084 36.4033C19.0566 35.9407 18.4825 35.8104 18.4458 36.2301ZM19.9802 36.28C19.838 36.6566 20.2442 37.2575 20.6414 37.2575C20.9864 37.2575 20.8814 36.5435 20.4876 36.2114C20.2078 35.9755 20.0892 35.9916 19.9802 36.28ZM21.5062 36.1958C21.2401 36.6327 21.8311 37.1752 22.1835 36.8174C22.3746 36.6234 22.3413 36.4389 22.075 36.2146C21.7915 35.9758 21.6432 35.9707 21.5062 36.1958ZM22.8761 36.2998C22.7967 36.5102 22.9118 36.834 23.1322 37.0198C23.4563 37.2929 23.5759 37.2857 23.7612 36.9812C23.8974 36.7574 23.8763 36.4663 23.7087 36.2615C23.3418 35.8123 23.0554 35.8257 22.8761 36.2998ZM12.6699 36.9895C12.6699 37.1369 12.7887 37.2575 12.9338 37.2575C13.079 37.2575 13.1978 37.1369 13.1978 36.9895C13.1978 36.8421 13.079 36.7215 12.9338 36.7215C12.7887 36.7215 12.6699 36.8421 12.6699 36.9895ZM22.4364 37.2356C22.4364 37.3709 22.3548 37.7028 22.255 37.9727C22.0953 38.405 22.127 38.4198 22.519 38.096C23.0057 37.6936 23.1213 36.9895 22.7003 36.9895C22.5552 36.9895 22.4364 37.1002 22.4364 37.2356ZM19.9148 37.5028C19.9969 37.6376 19.9148 37.8089 19.7324 37.8837C19.55 37.9582 19.6827 38.029 20.0269 38.0405C20.5546 38.0584 20.6016 37.9981 20.3247 37.6596C19.9657 37.2205 19.6754 37.1093 19.9148 37.5028ZM21.1166 37.7714C21.1166 38.0539 20.9682 38.3458 20.7866 38.4203C20.6053 38.4945 20.5823 38.565 20.7362 38.5766C21.2282 38.6138 21.9958 37.8858 21.8013 37.5663C21.5086 37.0855 21.1166 37.2029 21.1166 37.7714ZM36.4262 37.5256C36.1884 37.6816 36.1557 37.7869 36.3447 37.7896C36.5175 37.7917 36.7324 37.673 36.8222 37.5256C37.0246 37.1927 36.9333 37.1927 36.4262 37.5256ZM13.6006 37.7826C13.5058 37.9381 13.6191 38.1399 13.8524 38.2308C14.4331 38.457 14.6137 38.2083 14.1515 37.8188C13.8915 37.5996 13.7188 37.5883 13.6006 37.7826ZM16.2333 38.3297C16.496 38.6245 16.8299 38.8658 16.9751 38.8658C17.1202 38.8658 17.0239 38.6245 16.7612 38.3297C16.4986 38.0349 16.1647 37.7936 16.0195 37.7936C15.8743 37.7936 15.9707 38.0349 16.2333 38.3297ZM17.9491 38.4637C18.1299 38.6849 18.3965 38.8658 18.5417 38.8658C18.6889 38.8658 18.6602 38.6881 18.477 38.4637C18.2962 38.2426 18.0296 38.0617 17.8844 38.0617C17.7371 38.0617 17.7659 38.2394 17.9491 38.4637ZM19.1984 38.9336C19.116 39.1518 19.2649 39.3078 19.5787 39.3316C19.8625 39.3534 20.0499 39.2349 19.9953 39.0682C19.8451 38.6109 19.3517 38.5275 19.1984 38.9336ZM14.9135 39.1338C15.0033 39.2812 15.1883 39.4019 15.325 39.4019C15.4618 39.4019 15.5734 39.2812 15.5734 39.1338C15.5734 38.9864 15.3881 38.8658 15.1619 38.8658C14.9357 38.8658 14.8238 38.9864 14.9135 39.1338ZM17.9206 39.6855C18.2677 39.9792 18.6153 40.1548 18.6932 40.076C18.8613 39.905 17.9314 39.1507 17.5531 39.1512C17.4079 39.1515 17.5732 39.3919 17.9206 39.6855ZM32.4668 40.4094C31.378 40.9377 29.8932 41.5202 29.1673 41.7033C27.9827 42.0027 27.9378 42.0391 28.7286 42.0595C29.5733 42.0812 33.2606 40.6107 34.409 39.7937C35.3094 39.1534 34.5753 39.3861 32.4668 40.4094ZM5.93363 42.4144C4.22344 45.0262 3.16734 46.8663 3.16734 47.2346C3.16734 47.4016 3.69235 46.7631 4.33377 45.8156C4.97546 44.8678 5.75731 43.7307 6.07168 43.2885C6.38606 42.8462 6.74557 42.3069 6.87069 42.0901C6.9958 41.8732 7.16659 41.7652 7.25026 41.8504C7.33394 41.9354 6.86646 42.7762 6.21158 43.7189C4.23558 46.5629 4.33826 46.6159 6.84244 44.0443C8.16013 42.691 9.2384 41.5194 9.2384 41.4403C9.2384 41.3615 8.99318 41.1637 8.69359 41.001C8.28788 40.7804 8.05059 40.7876 7.76366 41.0294C7.44849 41.295 7.40864 41.2741 7.54484 40.9139C7.94922 39.8436 7.09769 40.6367 5.93363 42.4144ZM9.10642 43.6905C8.84378 43.9854 8.74744 44.2266 8.89261 44.2266C9.03779 44.2266 9.3717 43.9854 9.63434 43.6905C9.89698 43.3957 9.99333 43.1544 9.84815 43.1544C9.70297 43.1544 9.36906 43.3957 9.10642 43.6905Z" fill="#413737"/>
</svg>
