<svg width="58" height="52" viewBox="0 0 58 52" fill="none" xmlns="http://www.w3.org/2000/svg">
<path fill-rule="evenodd" clip-rule="evenodd" d="M11.4192 0.445705C10.2745 0.891496 10.0361 2.39625 10.7424 4.71539C10.9651 5.44664 11.1473 6.48258 11.1476 7.01748C11.1478 9.56927 13.1319 12.9103 15.9995 15.1877C18.7674 17.3861 18.8167 17.4971 17.5102 18.5997C15.7102 20.1193 12.2221 22.322 9.51593 23.648C7.58466 24.594 6.77849 25.1522 6.32116 25.8593C5.66806 26.8696 5.51336 28.0569 6.01364 28.2229C6.639 28.4306 5.69553 31.4623 4.64057 32.6359C4.10467 33.2317 3.43336 34.2397 3.14841 34.8759C2.78135 35.6963 2.42571 36.0779 1.92678 36.1876C0.510752 36.499 0.271484 36.6057 0.271484 36.9259C0.271484 37.5721 1.86207 39.1551 3.16037 39.8008C3.88932 40.1631 7.48351 42.3425 11.1473 44.6435C21.2618 50.9962 22.0557 51.4588 22.8451 51.4588C23.5895 51.4588 26.6217 49.4525 41.7924 38.9219C48.6795 34.1412 50.4438 33.0421 51.2318 33.0421C51.4569 33.0421 51.9914 32.7071 52.4197 32.2973C52.8482 31.8876 53.8197 31.065 54.5788 30.4692C55.3379 29.8734 56.1588 29.0546 56.4024 28.65C56.8187 27.9591 56.8124 27.8486 56.2996 26.8473C55.9992 26.2607 55.4711 25.556 55.1261 25.2814C54.7813 25.0065 53.8093 23.8676 52.9664 22.7505C51.0768 20.2458 50.1727 19.3751 48.9206 18.854C48.3864 18.6316 46.2528 16.8669 44.1796 14.9326C41.1472 12.1026 40.31 11.1599 39.8964 10.1088C39.6137 9.39025 39.1892 8.58912 38.9532 8.32858C38.2985 7.60491 36.7414 7.72814 35.3313 8.61485C33.7345 9.61937 25.0064 14.486 24.418 14.6999C23.5705 15.0081 17.0825 9.22964 16.5926 7.72977C16.4446 7.2772 16.1983 6.01593 16.0452 4.92718C15.7467 2.80439 15.3345 1.78173 14.459 0.992517C13.8913 0.480642 12.1386 0.165392 11.4192 0.445705ZM11.5647 1.45591L10.9192 2.09887L11.4342 4.36737C11.7172 5.6151 11.9521 7.01314 11.9559 7.47437C11.9668 8.7546 13.8847 12.2738 14.2504 11.6845C14.3978 11.4467 15.7695 12.5238 15.7695 12.8772C15.7695 13.1892 15.114 12.952 14.8021 12.527C14.611 12.2665 14.3758 12.1319 14.2795 12.2278C14.1833 12.3236 14.7352 12.9937 15.5066 13.7168C18.6652 16.6786 19.2212 17.2341 19.8072 18.0109C20.392 18.7863 20.4121 18.7925 20.2468 18.1463C20.1519 17.7739 19.8406 17.1401 19.5551 16.7382L19.0363 16.0072L19.8352 16.4639C20.643 16.9256 20.9249 17.4876 20.9317 18.6492C20.9344 19.1061 20.8197 19.2432 20.5277 19.1316C20.2082 19.0094 20.1198 19.2042 20.1198 20.0299C20.1198 20.6098 20.0018 21.6723 19.8575 22.3913C18.8664 27.3297 18.4572 29.69 18.2226 31.8234C18.0749 33.164 17.7092 35.8452 17.4099 37.7817L16.8653 41.3025L17.8808 42.1892C18.4393 42.6767 19.3246 43.401 19.848 43.7983C21.6098 45.1359 22.6115 46.1716 23.1507 47.2137C23.7706 48.4125 23.7257 49.5147 23.0397 49.9418C22.646 50.187 22.4155 50.0854 21.7458 49.372C21.2974 48.8945 20.7406 48.3978 20.5081 48.2684C20.2759 48.1389 20.0573 47.841 20.0228 47.6065C19.9127 46.8587 19.2696 46.275 18.8963 46.5838C18.6576 46.781 18.4518 46.7233 18.1848 46.3839C17.8433 45.9506 17.8525 45.9408 18.2846 46.2783C18.5855 46.5134 18.7604 46.5407 18.7604 46.3522C18.7604 46.1886 18.4507 45.8525 18.0722 45.6055C17.6937 45.3583 17.4493 45.0912 17.529 45.0119C17.6086 44.9322 17.4999 44.6747 17.287 44.4391C17.0741 44.2037 16.8598 43.8373 16.8106 43.6249C16.7614 43.4129 16.3413 42.8977 15.8769 42.4804C15.4128 42.0633 14.7399 41.2931 14.3815 40.7693C14.0234 40.2452 13.5802 39.8159 13.3967 39.8149C13.2129 39.8138 12.2675 38.9904 11.2955 37.9848C10.3232 36.9792 9.52708 36.3395 9.52599 36.563C9.52327 37.1712 9.68695 37.3478 12.7787 40.0721C14.3489 41.4556 15.8171 42.7721 16.0414 42.9977C16.6309 43.5905 14.7467 42.2819 13.4057 41.1671C12.7784 40.6458 11.5889 39.6708 10.762 39.0005C9.93546 38.3301 9.25572 37.6254 9.25137 37.4348C9.2473 37.2438 9.03005 37.0058 8.76822 36.9058C8.50665 36.8059 7.4971 36.0806 6.52508 35.2946C5.55305 34.5084 4.66613 33.8627 4.55384 33.86C3.99835 33.8454 4.46493 34.7251 5.36952 35.3981C7.89326 37.2761 11.9287 40.6347 11.1245 40.1878C10.5472 39.8671 8.25515 38.1053 6.14415 36.3598C4.52828 35.0238 3.80612 34.6514 3.80612 35.1546C3.80612 35.2738 3.95893 35.5422 4.14599 35.751C4.43067 36.069 4.41544 36.0782 4.05301 35.8073C3.5568 35.4371 3.26233 35.6278 3.26233 36.3189C3.26233 36.5822 3.50704 36.8747 3.80612 36.9692C4.10521 37.0637 4.34992 37.2547 4.34992 37.3936C4.34992 37.7988 3.95295 37.6875 3.32786 37.1073C2.58287 36.4159 2.3871 36.7463 2.81208 37.9778C3.08914 38.7808 3.22889 38.9051 3.61281 38.6912C4.05817 38.4431 4.22376 38.6687 4.10358 39.359C4.0821 39.482 4.20853 39.4936 4.38445 39.3856C4.56444 39.2748 4.86461 39.407 5.07098 39.6878C5.27246 39.9627 5.4375 40.1006 5.4375 39.9947C5.4375 39.8888 5.92691 40.0507 6.52508 40.3546C7.25892 40.7276 7.61266 41.0875 7.61266 41.4618C7.61266 41.893 7.73365 41.978 8.15645 41.8442C8.54227 41.7223 8.70024 41.7955 8.70024 42.0969C8.70024 42.3401 8.93135 42.5213 9.24186 42.5213C9.53958 42.5213 9.9235 42.745 10.0948 43.0183C10.2838 43.3194 10.6326 43.4743 10.9809 43.4112C11.3847 43.3381 11.7142 43.5477 12.0902 44.1168C12.3847 44.5623 12.8129 44.9913 13.0419 45.0701C13.2711 45.1492 13.6419 45.3301 13.8663 45.4723C15.3416 46.4067 16.4968 46.9741 16.7891 46.9077C16.9759 46.8655 17.129 47.019 17.129 47.249C17.129 47.6807 17.4471 47.8015 17.7612 47.4889C17.8596 47.3909 17.7881 47.1271 17.6024 46.9028C17.3109 46.5505 17.3419 46.5358 17.831 46.7956C18.1424 46.9608 18.5649 47.3159 18.7696 47.5845C19.088 48.0024 19.0866 48.0243 18.7609 47.7348C18.2508 47.2817 17.799 47.3012 18.181 47.7597C18.3474 47.9596 18.402 48.2047 18.302 48.3041C18.0369 48.5685 19.1038 49.2997 19.5334 49.148C19.7389 49.0752 19.9605 49.2558 20.0407 49.5619C20.209 50.2024 20.6161 50.2723 20.8371 49.6984C21.0992 49.018 21.413 49.2453 21.2662 50.0096C21.1726 50.4976 21.2262 50.6666 21.4342 50.5385C21.6025 50.435 21.9986 50.4884 22.3151 50.6568C22.7948 50.9128 23.003 50.8586 23.5702 50.331C24.5653 49.4053 24.3505 47.643 23.0174 45.7943C22.4709 45.0368 22.1319 44.4171 22.2637 44.4171C22.7273 44.4171 24.4704 46.5922 24.4892 47.194C24.4998 47.5287 24.6243 48.0463 24.7663 48.3442C24.9522 48.7356 24.9857 48.5248 24.8862 47.5853C24.8054 46.8208 24.8525 46.349 25.0006 46.44C25.139 46.5253 25.3769 46.3793 25.5292 46.1155C25.7356 45.7577 25.7766 45.9798 25.6907 46.99L25.5757 48.3442L25.8498 47.2609C26.0311 46.5437 26.033 45.9777 25.8549 45.586C25.6624 45.1633 25.6785 44.9639 25.9112 44.8865C26.0901 44.8272 25.7228 44.4231 25.095 43.9884C24.2257 43.3869 23.9911 43.0722 24.1115 42.67C24.2654 42.1559 24.2497 42.1546 23.5305 42.6239C22.7344 43.1437 22.298 43.0348 22.7937 42.4403C22.9609 42.2394 24.2934 41.4507 25.7552 40.6872C27.2169 39.9237 28.9632 38.8087 29.6362 38.2096C30.9791 37.0136 31.7858 36.7192 31.2121 37.6341C30.7197 38.4195 31.0794 38.5495 32.2578 38.0116C32.8348 37.7484 33.5515 37.5176 33.8506 37.4992C34.6208 37.4516 36.1617 36.8235 36.1617 36.5575C36.1617 36.4346 36.5899 36.1933 37.1133 36.0213C37.6367 35.8493 38.0649 35.592 38.0649 35.4496C38.0649 35.3071 38.432 34.8331 38.8806 34.3963C39.3293 33.9594 39.6963 33.4847 39.6963 33.3414C39.6963 33.1981 39.8494 32.9151 40.0362 32.7125C40.6167 32.0831 41.0811 31.1352 40.9288 30.8898C40.8489 30.7609 40.5386 30.7192 40.2398 30.7972C39.5693 30.9716 39.5362 30.6561 40.1721 30.1512C41.5278 29.0755 41.9011 28.9008 42.2032 29.2017C42.427 29.4246 42.9259 29.2821 44.0975 28.66C45.7395 27.7882 46.0617 27.2893 44.5904 27.8963C44.1323 28.0853 43.6831 28.166 43.5923 28.0758C43.3375 27.8218 44.9178 27.3059 45.4923 27.4556C45.7745 27.529 46.5674 27.2474 47.2675 26.8246C47.9636 26.4045 48.8268 25.9723 49.1857 25.864C49.7336 25.6987 49.8095 25.7434 49.6564 26.1407C49.5218 26.4896 49.9112 27.0394 51.1328 28.2262C52.7995 29.8457 53.4814 30.1288 52.6418 28.8526C52.3938 28.4756 52.3041 28.1671 52.4425 28.1671C52.5806 28.1671 52.9602 28.5633 53.2854 29.0473C53.8286 29.8558 53.867 29.8723 53.7549 29.2505C53.6878 28.8781 53.5486 28.3296 53.4453 28.0317C53.3422 27.7338 53.5404 27.9458 53.8863 28.503C54.5021 29.4958 55.1413 29.9167 54.8156 29.115C54.2993 27.844 54.2941 27.7479 54.7732 28.3025C55.0734 28.65 55.0299 28.4799 54.6517 27.8286C53.9398 26.6017 54.3316 26.4926 55.3061 27.6463C55.9543 28.4136 56.01 28.4328 56.01 27.8898C56.01 27.5504 55.2803 26.4782 54.2911 25.364C53.3455 24.2988 52.3131 23.001 51.9969 22.4796C51.6807 21.9583 50.9555 21.0935 50.3853 20.5578C49.4291 19.6594 49.1485 19.5581 46.7656 19.2491C45.3449 19.065 43.5708 18.8597 42.8231 18.7928C41.272 18.6541 39.6544 18.4209 33.7146 17.4787C31.3967 17.1109 28.3575 16.6738 26.9607 16.5072C24.3288 16.1936 24.4104 16.2318 22.0424 14.1978C21.5084 13.739 20.5125 12.9864 19.8289 12.5254C18.3797 11.548 16.4087 9.11264 15.8862 7.65393C15.6855 7.09385 15.5161 6.19414 15.5096 5.65437C15.4838 3.52562 13.9182 0.812955 12.7153 0.812955C12.4374 0.812955 11.9198 1.1022 11.5647 1.45591ZM12.1669 1.81206C11.6291 1.95208 11.4817 3.63125 11.9804 3.9381C12.1762 4.05889 12.2104 3.80187 12.0859 3.14158C11.913 2.22318 11.9437 2.16712 12.6191 2.16712C13.1452 2.16712 13.4179 2.36537 13.6438 2.91191C13.8973 3.52481 13.9726 3.56923 14.0688 3.1627C14.195 2.6297 13.4274 1.60541 12.9405 1.65687C12.7768 1.6742 12.4285 1.74408 12.1669 1.81206ZM13.3225 4.97783C13.3225 5.50839 13.515 6.04843 13.7812 6.26429C14.1857 6.592 14.2175 6.57629 14.0501 6.13185C13.9024 5.73995 13.959 5.66547 14.3037 5.79737C14.6577 5.93252 14.714 5.84287 14.5824 5.35347C14.4916 5.01602 14.4158 4.58783 14.4139 4.4015C14.4117 4.21543 14.1653 4.06295 13.8663 4.06295C13.4299 4.06295 13.3225 4.2436 13.3225 4.97783ZM12.5128 7.38906C12.5166 8.10406 12.7178 8.7852 13.0506 9.20879C13.3431 9.58118 13.5851 10.0232 13.5884 10.1914C13.5916 10.3593 13.7779 10.6483 14.0022 10.8338C14.5558 11.2915 14.5498 10.6342 13.9935 9.90185C13.4516 9.1882 13.4818 9.07608 14.3173 8.69664C15.0699 8.35512 15.0846 8.36297 15.7567 9.47745C15.8911 9.69954 16.0773 9.80516 16.1708 9.71172C16.2646 9.61856 15.9653 8.95204 15.5061 8.23054C15.0468 7.50931 14.735 6.73364 14.8133 6.50668C14.9065 6.23558 14.8217 6.26564 14.5653 6.59443C14.351 6.8696 14.2469 7.27991 14.3339 7.50633C14.4701 7.85977 14.4016 7.86925 13.8456 7.57268C13.2265 7.24281 13.2219 7.21925 13.7363 7.02858C14.2271 6.84685 14.2325 6.81516 13.7983 6.66485C12.491 6.2131 12.5065 6.20416 12.5128 7.38906ZM13.1234 8.1761C13.5519 8.4472 14.6118 8.45831 14.7747 8.19316C14.8434 8.08131 14.4245 7.98408 13.844 7.97704C13.2357 7.96945 12.9304 8.05395 13.1234 8.1761ZM36.0257 9.07039C35.278 9.43818 34.4243 9.894 34.1287 10.0833C31.0555 12.0509 29.5726 12.9108 27.6758 13.8243C24.5594 15.3256 24.2124 15.8342 26.861 15.019C27.3041 14.8825 27.4613 14.9291 27.4047 15.1801C27.3455 15.4428 28.9176 15.7613 33.5599 16.427C39.1767 17.2322 39.9038 17.2842 40.891 16.9519C41.4935 16.7491 42.0322 16.4471 42.0876 16.2813C42.2092 15.9184 41.4256 15.8735 41.2043 16.2304C41.1172 16.3704 40.7195 16.3888 40.3045 16.2721C39.8951 16.157 39.4076 16.1153 39.2205 16.1792C39.0337 16.2431 38.8806 16.1635 38.8806 16.0021C38.8806 15.841 39.0337 15.6944 39.2205 15.6768C39.695 15.6319 39.7692 15.6441 40.3219 15.8586C40.7282 16.0159 40.7956 15.9284 40.7176 15.347C40.6656 14.9616 40.5174 14.5499 40.388 14.4326C40.2589 14.3153 40.2409 14.3717 40.3486 14.5577C40.5792 14.9567 40.0786 15.0225 39.8323 14.6255C39.5783 14.2162 39.1525 14.301 39.1525 14.7609C39.1525 14.9843 38.969 15.1671 38.7447 15.1671C38.5204 15.1671 38.3368 15.0452 38.3368 14.8963C38.3368 14.7473 38.4567 14.6255 38.6036 14.6255C38.7501 14.6255 38.9483 14.3162 39.0435 13.9381C39.208 13.2848 39.2482 13.2716 39.8548 13.6672C40.2058 13.8964 40.6896 14.0838 40.9296 14.0838C41.17 14.0838 41.5558 14.2723 41.7872 14.503C42.0188 14.7335 42.2769 14.8535 42.3612 14.7698C42.6676 14.4646 40.676 12.7296 40.0191 12.7296C39.5025 12.7296 39.3904 12.617 39.4984 12.2061C39.6177 11.7522 39.5495 11.7153 38.9864 11.9285C38.4834 12.1189 38.3368 12.0842 38.3368 11.7749C38.3368 11.5553 38.5815 11.3755 38.8806 11.3755C39.2009 11.3755 39.4244 11.1948 39.4244 10.9362C39.4244 10.6277 39.323 10.5735 39.0846 10.7542C38.6359 11.0943 36.4336 11.1485 36.4336 10.8194C36.4336 10.6783 36.2427 10.563 36.0097 10.563C35.7737 10.563 35.6668 10.4324 35.7685 10.2686C35.9001 10.0565 36.0339 10.0565 36.2468 10.2686C36.6318 10.6521 37.5902 10.6434 38.46 10.2485C39.2966 9.86881 39.3097 9.74991 38.5981 8.98914C37.9007 8.24327 37.6935 8.25004 36.0257 9.07039ZM37.1133 9.47962C37.2058 9.62858 37.4575 9.75045 37.6731 9.75045C37.8888 9.75045 38.0649 9.62858 38.0649 9.47962C38.0649 9.33066 37.8129 9.20879 37.5051 9.20879C37.1973 9.20879 37.0209 9.33066 37.1133 9.47962ZM15.9734 10.4971C15.7119 10.5551 15.4976 10.7157 15.4976 10.8536C15.4976 11.1997 16.2404 11.1704 16.4604 10.8156C16.6896 10.4462 16.5667 10.3658 15.9734 10.4971ZM15.564 11.714C15.6251 11.9003 16.0637 12.0907 16.5382 12.1373C17.1018 12.1928 17.4009 12.3686 17.4009 12.6446C17.4009 12.9828 17.4795 13.0018 17.7954 12.7407C18.2788 12.341 20.0032 13.4381 22.2966 15.6051C23.1202 16.3829 24.1602 17.096 24.6078 17.1894C25.4213 17.3592 25.421 17.359 24.4702 16.8292C23.9468 16.5375 22.8336 15.5796 21.9965 14.7002C20.5527 13.1833 19.0249 12.188 18.1407 12.188C17.9199 12.188 17.3 12.0051 16.763 11.7817C15.5765 11.2877 15.4204 11.279 15.564 11.714ZM36.4336 12.9921C36.4336 13.1361 36.6171 13.1841 36.8414 13.0985C37.0657 13.0126 37.2493 12.8946 37.2493 12.8361C37.2493 12.7776 37.0657 12.7296 36.8414 12.7296C36.6171 12.7296 36.4336 12.8477 36.4336 12.9921ZM37.6571 13.2713C37.4431 13.6161 38.0731 13.6161 38.6087 13.2713C38.9402 13.0579 38.9051 13.008 38.4209 13.0045C38.0932 13.0023 37.7495 13.1223 37.6571 13.2713ZM16.8571 13.9947C16.8571 14.1407 17.1828 14.5556 17.5806 14.9169C17.9787 15.2779 18.2207 15.4285 18.1187 15.2513C18.0167 15.0745 18.15 14.7909 18.4148 14.6217C18.8626 14.3354 18.8602 14.3251 18.3811 14.4762C18.0806 14.5707 17.6559 14.4491 17.3615 14.1837C17.0841 13.9337 16.8571 13.8484 16.8571 13.9947ZM19.4428 14.9006C19.5369 15.052 19.7275 15.1059 19.8667 15.0201C20.2438 14.788 20.1737 14.6255 19.696 14.6255C19.463 14.6255 19.349 14.7492 19.4428 14.9006ZM35.4819 15.1671C35.5744 15.3161 35.8191 15.438 36.0257 15.438C36.2324 15.438 36.4771 15.3161 36.5695 15.1671C36.6652 15.013 36.4311 14.8963 36.0257 14.8963C35.6203 14.8963 35.3862 15.013 35.4819 15.1671ZM20.5277 15.438C20.4352 15.5869 20.5576 15.7088 20.7996 15.7088C21.0416 15.7088 21.1639 15.5869 21.0715 15.438C20.979 15.289 20.8567 15.1671 20.7996 15.1671C20.7425 15.1671 20.6201 15.289 20.5277 15.438ZM37.1424 16.1372C36.8871 16.7997 36.9426 16.8872 37.3852 16.5213C37.8371 16.1475 37.9263 15.7088 37.5502 15.7088C37.4167 15.7088 37.2332 15.9016 37.1424 16.1372ZM42.6872 15.9956C42.6872 16.1532 42.8095 16.2071 42.9591 16.115C43.1086 16.023 43.231 15.894 43.231 15.8282C43.231 15.7624 43.1086 15.7088 42.9591 15.7088C42.8095 15.7088 42.6872 15.838 42.6872 15.9956ZM42.2761 17.2412L41.8024 17.9613L42.6526 17.3582C43.5918 16.6922 43.6883 16.5213 43.1263 16.5213C42.9191 16.5213 42.5365 16.8452 42.2761 17.2412ZM44.3185 17.3338C43.9447 17.6252 43.7728 17.8662 43.9365 17.8695C44.1002 17.8727 44.4558 17.6317 44.7264 17.3338C45.3463 16.6513 45.1943 16.6513 44.3185 17.3338ZM31.5395 18.1403C32.8106 18.428 34.1564 18.6601 34.5303 18.6565C35.9395 18.6427 33.2228 17.9126 31.2086 17.7639L29.2283 17.6176L31.5395 18.1403ZM44.9983 17.8755C44.9058 18.0244 45.0282 18.1463 45.2702 18.1463C45.5122 18.1463 45.6345 18.0244 45.5421 17.8755C45.4496 17.7265 45.3273 17.6046 45.2702 17.6046C45.2131 17.6046 45.0907 17.7265 44.9983 17.8755ZM18.0806 19.2811C17.7815 19.4493 17.2701 19.8468 16.9441 20.1648C16.6181 20.4828 16.0063 20.9166 15.5846 21.129C14.9106 21.4686 14.1365 21.9339 12.0946 23.2274C11.7979 23.4153 10.681 24.0047 9.61272 24.5369C8.54445 25.0691 7.33234 25.8561 6.91906 26.2856L6.16754 27.067L6.88452 28.091C7.27904 28.6543 8.91939 30.5239 10.5301 32.2456C12.1405 33.9676 14.0585 36.1919 14.7921 37.1883C16.1108 38.9801 16.5191 39.3837 16.2149 38.5942C16.129 38.3708 16.1771 38.188 16.3217 38.188C16.8 38.188 16.5969 37.6035 15.7467 36.5342C15.1175 35.7429 15.0156 35.4796 15.3388 35.4796C16.08 35.4796 15.8103 35.055 14.8244 34.6698C14.0881 34.3819 13.9454 34.2213 14.1781 33.9421C14.3423 33.7449 14.6452 33.5838 14.8511 33.5838C15.0572 33.5838 15.2257 33.4657 15.2257 33.3213C15.2257 33.1773 15.3997 33.1258 15.6126 33.2071C16.0338 33.3679 16.76 32.3038 16.434 32.0032C16.3266 31.9043 16.1842 31.9758 16.1175 32.1619C16.0507 32.3482 15.8878 32.5005 15.7554 32.5005C15.623 32.5005 15.595 32.2873 15.6931 32.0265C15.8457 31.6211 15.8087 31.6032 15.4367 31.9043C15.1977 32.0977 14.9367 32.1505 14.8568 32.0216C14.7768 31.8927 15.1026 31.5596 15.5803 31.2809C16.3272 30.8457 16.3968 30.8389 16.0762 31.2313C15.7499 31.6303 15.7693 31.688 16.2279 31.688C17.0879 31.688 17.6119 31.0816 17.8079 29.8598C17.9876 28.7391 17.9757 28.7147 17.3568 28.9425C16.7119 29.1795 16.3022 30.063 16.8373 30.063C16.9977 30.063 17.129 30.2038 17.129 30.3758C17.129 30.564 16.9324 30.5115 16.6358 30.2441C16.2595 29.9048 16.0675 29.8745 15.8247 30.1163C15.6499 30.2905 15.4348 30.3614 15.3467 30.2737C15.1322 30.06 16.0787 28.9796 16.4805 28.9796C16.6556 28.9796 16.8693 28.7968 16.9555 28.5734C17.0414 28.3499 17.3079 28.1671 17.5472 28.1671C17.843 28.1671 17.9547 27.9718 17.8957 27.5577C17.7854 26.784 17.3419 26.7737 17.0056 27.5366C16.7543 28.1067 15.4976 28.6007 15.4976 28.1295C15.4976 28.0014 15.62 27.8963 15.7695 27.8963C15.9191 27.8963 16.0414 27.6525 16.0414 27.3546C16.0414 27.0567 16.1676 26.813 16.3217 26.813C16.4762 26.813 16.6779 26.5998 16.7701 26.339C16.8625 26.0782 17.1858 25.5907 17.4887 25.2557C17.9697 24.7237 17.9817 24.6463 17.5842 24.6463C17.033 24.6463 16.9884 24.0123 17.5037 23.4993C17.8221 23.1822 17.8221 23.0492 17.5037 22.6156C16.9428 21.8516 17.0491 21.1306 17.8104 20.534C18.5317 19.9687 19.1979 18.9531 18.8379 18.9669C18.7204 18.9715 18.3797 19.1129 18.0806 19.2811ZM21.4285 19.1438C21.6245 19.222 21.8592 19.2123 21.9494 19.1224C22.0397 19.0325 21.8793 18.9685 21.5927 18.9802C21.2759 18.9932 21.2115 19.0574 21.4285 19.1438ZM38.6321 19.0612C38.7199 19.1549 40.7118 19.5308 43.0589 19.8967C45.4056 20.2628 47.7681 20.645 48.3086 20.746C48.9359 20.8633 49.2309 20.8321 49.124 20.6599C48.9476 20.3758 47.1612 19.9993 43.7747 19.5324C40.2738 19.0501 38.4665 18.8843 38.6321 19.0612ZM33.0349 19.7713C32.9424 19.9202 33.0504 20.0421 33.2747 20.0421C33.499 20.0421 33.7581 19.9202 33.8506 19.7713C33.943 19.6223 33.8351 19.5005 33.6108 19.5005C33.3864 19.5005 33.1273 19.6223 33.0349 19.7713ZM34.5303 19.9227C34.5303 20.1548 34.6546 20.2683 34.8066 20.1748C34.9585 20.0811 35.0126 19.8913 34.9265 19.7526C34.6934 19.377 34.5303 19.4468 34.5303 19.9227ZM22.8388 20.4031C22.8388 20.6515 22.7165 20.8546 22.5669 20.8546C22.4174 20.8546 22.295 20.9765 22.295 21.1255C22.295 21.2744 22.4092 21.3963 22.5487 21.3963C22.8548 21.3963 23.2265 20.3379 22.9995 20.112C22.9111 20.024 22.8388 20.1551 22.8388 20.4031ZM20.6636 20.7352C20.6636 20.9673 20.786 21.0821 20.9355 20.99C21.0851 20.898 21.2074 20.7081 21.2074 20.5678C21.2074 20.4275 21.0851 20.313 20.9355 20.313C20.786 20.313 20.6636 20.5031 20.6636 20.7352ZM31.1183 20.8874C30.4785 21.1287 29.6079 21.5677 29.1838 21.8632C28.7596 22.1584 27.753 22.7261 26.9471 23.1247C26.141 23.5234 25.1167 24.1553 24.6714 24.5287C24.2257 24.902 23.5047 25.3911 23.0691 25.6156C22.6335 25.8398 22.3535 26.1464 22.4465 26.2965C22.5476 26.4592 22.962 26.3106 23.475 25.9271C24.4473 25.2004 25.3054 24.691 24.878 25.094C23.3255 26.5581 21.0989 27.9161 21.6153 27.0838C21.7077 26.9348 21.661 26.813 21.5114 26.813C21.3619 26.813 21.1639 26.9348 21.0715 27.0838C20.979 27.2327 21.0244 27.3546 21.1724 27.3546C21.3205 27.3546 21.4807 27.629 21.5283 27.964C21.6906 29.1018 23.4759 28.4829 26.5094 26.2374C27.2571 25.6838 29.1161 24.6024 30.6403 23.8341C32.1645 23.0657 33.5586 22.2608 33.7377 22.0455C34.2946 21.3773 33.7451 21.2657 32.9626 21.8878C32.5536 22.2128 31.4851 22.861 30.5878 23.3276C29.6906 23.7945 27.5173 25.0745 25.7581 26.1719C23.999 27.2693 22.49 28.1671 22.4049 28.1671C21.6329 28.1671 25.688 25.2917 28.7175 23.6908C31.2725 22.3407 33.7146 20.8175 33.7146 20.574C33.7146 20.2493 32.3837 20.4099 31.1183 20.8874ZM34.3944 21.3963C34.4868 21.5452 34.6847 21.6671 34.8343 21.6671C34.9838 21.6671 35.0306 21.5452 34.9381 21.3963C34.8457 21.2473 34.6478 21.1255 34.4982 21.1255C34.3487 21.1255 34.3019 21.2473 34.3944 21.3963ZM44.7264 21.6671C44.6339 21.8161 44.6807 21.938 44.8302 21.938C44.9798 21.938 45.1777 21.8161 45.2702 21.6671C45.3626 21.5182 45.3159 21.3963 45.1663 21.3963C45.0168 21.3963 44.8188 21.5182 44.7264 21.6671ZM20.4132 22.0958C20.4263 22.4114 20.4907 22.4756 20.5774 22.2597C20.656 22.0642 20.6462 21.8304 20.556 21.7405C20.4657 21.6506 20.4015 21.8104 20.4132 22.0958ZM43.989 21.8147C43.7133 22.0893 44.3917 23.0224 44.8599 23.0126C45.2147 23.0053 45.2117 22.9593 44.8384 22.6741C44.601 22.4926 44.3539 22.1841 44.2889 21.9889C44.2242 21.7933 44.0893 21.7151 43.989 21.8147ZM15.6768 22.1294C14.3565 22.4685 13.3393 24.9285 14.3584 25.3182C14.6985 25.4482 14.6803 25.5357 14.2483 25.8504C13.6104 26.3149 13.8992 26.6886 14.6053 26.3122C14.9044 26.1527 15.2782 26.1361 15.4993 26.2724C16.1205 26.6548 16.3859 26.2586 15.881 25.7028C15.6238 25.4195 15.5167 25.188 15.6428 25.188C15.769 25.188 15.6042 24.9393 15.2771 24.6357C14.5291 23.9418 14.5308 23.6992 15.2864 23.1721C15.9985 22.6752 16.5656 22.6075 16.0958 23.0755C15.7113 23.4584 15.6564 24.6463 16.0232 24.6463C16.1627 24.6463 16.3625 24.3719 16.4675 24.0369C16.5727 23.7019 16.7774 23.3514 16.9229 23.2583C17.2734 23.0337 16.9101 21.9293 16.499 21.9694C16.322 21.9867 15.9522 22.0587 15.6768 22.1294ZM26.9852 23.5711C25.5635 24.383 25.1284 24.7871 26.0336 24.4545C27.023 24.0908 28.9736 22.7345 28.4806 22.7529C28.4431 22.7545 27.7704 23.1226 26.9852 23.5711ZM47.7172 23.2572C48.1659 23.5342 48.6411 23.6989 48.7735 23.6233C49.0599 23.4595 47.894 22.7732 47.3094 22.7616C47.0851 22.757 47.2686 22.9801 47.7172 23.2572ZM31.2676 25.0999C29.8469 25.9327 28.3189 26.8046 27.8716 27.0367C27.4246 27.269 26.632 27.7476 26.1102 28.1002C24.3353 29.3 24.3209 29.803 26.0336 30.7677C26.7438 31.168 27.7533 31.7735 28.2767 32.1134C28.8001 32.4533 29.7789 33.0207 30.4519 33.3742C31.1248 33.7276 32.2532 34.3554 32.9593 34.7695C35.0605 36.0012 35.1937 35.8501 35.0795 32.3645C35.0257 30.7262 34.9572 28.2281 34.9267 26.813C34.8963 25.3978 34.8558 24.0878 34.8367 23.9015C34.7726 23.2732 33.8614 23.5789 31.2676 25.0999ZM37.7422 24.2896C37.9382 24.3679 38.1729 24.3581 38.2632 24.2682C38.3534 24.1783 38.193 24.1144 37.9064 24.126C37.5897 24.139 37.5252 24.2032 37.7422 24.2896ZM47.9717 24.6273C48.4299 25.1316 48.4076 25.1744 47.3341 25.8493C46.7224 26.2342 46.2218 26.6678 46.2218 26.813C46.2218 26.9581 46.8888 26.6521 47.7042 26.1326C48.5196 25.6129 49.3076 25.188 49.4555 25.188C49.6034 25.188 49.7891 25.0837 49.8682 24.9561C49.9473 24.8288 49.7097 24.782 49.3404 24.8524C48.8502 24.9458 48.6689 24.8619 48.6689 24.5426C48.6689 24.2747 48.4413 24.1046 48.0829 24.1046C47.5215 24.1046 47.5168 24.1263 47.9717 24.6273ZM19.7996 25.0525C19.6242 25.864 19.709 26.229 20.0043 25.9349C20.0905 25.8493 20.119 25.4328 20.0679 25.0095L19.9749 24.24L19.7996 25.0525ZM33.1708 24.6501C32.9465 24.7839 31.3192 25.7101 29.5549 26.709C27.7903 27.7078 26.4444 28.5967 26.564 28.6847C26.6834 28.7724 26.7813 29.0162 26.7813 29.2263C26.7813 29.4362 27.6378 30.138 28.6846 30.7853C29.7314 31.4326 30.6262 32.1375 30.6729 32.3518C30.7197 32.566 30.9239 32.6778 31.127 32.6001C31.3298 32.5227 32.0101 32.956 32.6382 33.5632C33.2663 34.1704 34.0102 34.6671 34.2913 34.6671C34.8873 34.6671 34.967 34.2484 34.4305 33.9359C34.0148 33.6935 33.6336 29.5213 34.0273 29.5213C34.1545 29.5213 34.2584 29.3385 34.2584 29.115C34.2584 28.8916 34.1331 28.7088 33.9797 28.7088C33.4968 28.7088 33.2018 27.4711 33.437 26.4322L33.6621 25.4379L31.9117 26.3961C30.121 27.3766 29.0687 27.6704 30.044 26.9175C30.3431 26.6867 31.4136 26.0798 32.4231 25.5687C33.4327 25.0577 34.2584 24.5802 34.2584 24.5073C34.2584 24.2993 33.6189 24.3833 33.1708 24.6501ZM11.963 25.2692C11.963 25.7386 12.5201 26.2713 13.0111 26.2713C13.3197 26.2713 13.2928 26.1421 12.8888 25.6836C12.4081 25.1384 12.4062 25.1089 12.8608 25.2743C13.1536 25.3808 13.2839 25.345 13.1846 25.185C12.9402 24.7912 11.963 24.8586 11.963 25.2692ZM16.452 25.1923C16.5461 25.3437 16.7367 25.3976 16.8759 25.3117C17.253 25.0796 17.1828 24.9171 16.7051 24.9171C16.4721 24.9171 16.3582 25.0409 16.452 25.1923ZM44.9012 25.1582C44.6772 25.2998 44.6383 25.4563 44.8025 25.5574C44.951 25.6489 45.2237 25.5422 45.4086 25.3204C45.7756 24.88 45.4877 24.7882 44.9012 25.1582ZM17.7351 25.7805C17.9031 26.2827 18.4885 26.3658 18.4885 25.8875C18.4885 25.6519 18.2946 25.4588 18.0581 25.4588C17.8212 25.4588 17.6758 25.6034 17.7351 25.7805ZM36.8414 25.7296C36.749 25.8786 36.8713 26.0005 37.1133 26.0005C37.3553 26.0005 37.4777 25.8786 37.3852 25.7296C37.2928 25.5807 37.1704 25.4588 37.1133 25.4588C37.0562 25.4588 36.9339 25.5807 36.8414 25.7296ZM8.34895 26.4221C7.71517 26.9692 7.63822 27.1672 7.88292 27.6222C8.2266 28.2622 8.70024 28.3423 8.70024 27.7609C8.70024 27.5374 8.80846 27.3546 8.94033 27.3546C9.25545 27.3546 9.55481 26.2001 9.30303 25.9563C9.19591 25.8523 8.76658 26.0619 8.34895 26.4221ZM42.1434 26.3777C42.1434 26.4362 42.3269 26.5543 42.5512 26.6402C42.7755 26.7257 42.9591 26.6778 42.9591 26.5337C42.9591 26.3894 42.7755 26.2713 42.5512 26.2713C42.3269 26.2713 42.1434 26.3192 42.1434 26.3777ZM34.0295 27.6255C34.0295 27.9978 34.0912 28.1503 34.1665 27.964C34.2421 27.7779 34.2421 27.4732 34.1665 27.2869C34.0912 27.1008 34.0295 27.2531 34.0295 27.6255ZM41.3277 27.1902C41.3277 27.2487 41.5112 27.3668 41.7355 27.4527C41.9598 27.5382 42.1434 27.4903 42.1434 27.3462C42.1434 27.2019 41.9598 27.0838 41.7355 27.0838C41.5112 27.0838 41.3277 27.1317 41.3277 27.1902ZM47.8532 27.3005C47.8532 27.4196 47.9742 27.6376 48.1218 27.7847C48.2988 27.961 48.0204 28.0669 47.3069 28.0953C46.5119 28.1268 45.9874 28.3578 45.339 28.9617C44.8248 29.4406 44.2712 29.7274 44.017 29.6472C43.1978 29.3886 42.7478 29.8252 42.1494 31.4602C41.1488 34.194 38.9859 36.1001 34.3944 38.2949C32.7785 39.0674 31.8345 39.3466 30.7238 39.3804C29.5272 39.417 28.7735 39.6678 26.9518 40.6352C24.7078 41.8269 23.999 42.5091 24.7611 42.7442C25.5047 42.9733 27.7506 45.521 27.9102 46.3162C27.9988 46.7566 28.1883 47.0445 28.3319 46.9562C28.7476 46.7 28.3129 45.4531 27.4167 44.3315C26.4784 43.1572 26.585 42.6578 27.5763 43.5851C28.1739 44.1447 28.3656 44.503 28.9627 46.1775C29.1392 46.6726 29.1786 46.6545 29.4219 45.9644C29.6245 45.3902 29.8121 45.2488 30.2061 45.3732C30.6384 45.5099 30.7238 45.3997 30.7238 44.7061C30.7238 44.2492 30.8461 43.8755 30.9957 43.8755C31.1452 43.8755 31.2676 44.0583 31.2676 44.2817C31.2676 44.5051 31.3709 44.688 31.4973 44.688C31.7825 44.688 32.505 43.8787 32.7062 43.3338C32.8247 43.0123 32.8606 43.0264 32.8775 43.4015C32.9095 44.1086 33.359 43.9738 33.5545 43.1984C33.6681 42.7466 33.9139 42.5213 34.2927 42.5213C34.703 42.5213 34.8139 42.4002 34.6924 42.085C34.5556 41.7305 34.6546 41.6812 35.2182 41.822C35.8204 41.9726 35.9531 41.8797 36.2185 41.1213C36.485 40.36 36.5494 40.3153 36.7177 40.7747C36.8942 41.2565 36.942 41.2365 37.2645 40.5472C37.4679 40.113 37.7694 39.8498 37.9739 39.9281C38.1723 40.0039 38.507 39.739 38.7303 39.3292L39.1308 38.5942L39.1639 39.2713C39.1941 39.8934 39.2311 39.8715 39.6172 39.0005C39.9813 38.1796 40.0631 38.1227 40.2279 38.5763C40.441 39.1627 40.6208 38.9598 40.8935 37.8256C41.0463 37.1894 41.1466 37.1133 41.4751 37.3849C41.8051 37.6577 41.9003 37.5707 42.0414 36.8671C42.2366 35.8953 42.3571 35.8387 42.8373 36.4925C43.1554 36.9259 43.21 36.9053 43.5162 36.2358C43.6994 35.8352 44.1078 35.4707 44.4238 35.426C44.7797 35.3753 44.9988 35.1468 44.9994 34.8247C45.0002 34.539 45.153 34.2546 45.3392 34.1929C45.5255 34.1309 45.678 34.2124 45.678 34.3738C45.678 34.5352 45.8137 34.6671 45.9793 34.6671C46.1677 34.6671 46.2145 34.4044 46.1041 33.9659C45.9369 33.3024 45.9714 33.2745 46.7545 33.4459C47.4867 33.6063 47.5843 33.5545 47.6085 32.9958C47.6351 32.3715 47.6376 32.3721 47.8276 33.0421C48.0193 33.7176 48.0201 33.7176 48.183 33.1098C48.2727 32.7748 48.5547 32.5005 48.8097 32.5005C49.1953 32.5005 49.2437 32.3296 49.0979 31.4848L48.9228 30.4692L49.4696 31.1463C49.9275 31.7131 50.0172 31.744 50.0224 31.3359C50.0256 31.068 49.8416 30.489 49.6134 30.0494C49.3853 29.6101 49.3029 29.2505 49.4302 29.2505C49.8081 29.2505 50.7858 30.4115 51.0974 31.2302C51.434 32.1159 51.9316 31.9634 51.9316 30.9748C51.9316 30.1485 49.1148 27.0838 48.3556 27.0838C48.0794 27.0838 47.8532 27.1813 47.8532 27.3005ZM27.8797 27.9903C27.604 28.191 27.4896 28.4236 27.6252 28.507C27.7607 28.5904 28.1598 28.4263 28.5122 28.1422C29.2512 27.5461 28.6783 27.4085 27.8797 27.9903ZM37.901 28.754C37.824 28.8781 38.0168 28.9796 38.3292 28.9796C38.6419 28.9796 38.9682 29.1624 39.0541 29.3859C39.2537 29.9037 39.8638 29.9121 40.0612 29.3997C40.1678 29.1234 40.0819 29.0571 39.7711 29.176C39.4549 29.2968 39.3747 29.2288 39.4872 28.9363C39.6055 28.6297 39.4454 28.5281 38.8428 28.5281C38.4018 28.5281 37.9779 28.6297 37.901 28.754ZM13.3225 29.2174C13.3225 29.5987 14.1324 30.1605 14.3486 29.9292C14.4571 29.813 14.3924 29.6632 14.2045 29.5966C14.0166 29.5297 13.9321 29.3637 14.0166 29.2274C14.1012 29.0912 13.9794 28.9796 13.7463 28.9796C13.5133 28.9796 13.3225 29.0866 13.3225 29.2174ZM25.4474 29.2093C25.3035 29.4408 28.8186 31.7901 29.7909 32.1121C30.0796 32.2077 29.4842 31.7668 28.4676 31.1325C27.4512 30.4982 26.4985 29.7542 26.3509 29.4793C26.0648 28.9471 25.6812 28.8323 25.4474 29.2093ZM6.79697 29.7431C6.79697 30.0703 7.31276 30.4519 7.50146 30.2642C7.5697 30.1959 7.43919 29.986 7.21134 29.7975C6.95304 29.5838 6.79697 29.5633 6.79697 29.7431ZM10.1957 30.3338C10.2881 30.4827 10.4175 30.6046 10.4836 30.6046C10.5497 30.6046 10.6035 30.4827 10.6035 30.3338C10.6035 30.1848 10.4738 30.063 10.3156 30.063C10.1573 30.063 10.1032 30.1848 10.1957 30.3338ZM43.231 30.9418C43.231 31.4921 42.9025 32.3686 42.4014 33.1559C41.5506 34.4919 41.5096 35.2976 42.3527 34.1092C43.6606 32.2656 44.1511 30.5973 43.5029 30.1984C43.3422 30.0995 43.231 30.4037 43.231 30.9418ZM18.8675 30.9881C18.7862 31.1988 18.7639 31.7169 18.8175 32.1392C18.8974 32.7656 18.9398 32.6949 19.0489 31.7557C19.1864 30.5713 19.1261 30.3165 18.8675 30.9881ZM6.53296 31.0786C6.53731 31.1902 7.50961 32.2532 8.69344 33.4402C9.87755 34.6276 10.7922 35.653 10.7261 35.7188C10.6598 35.7846 9.7261 34.9656 8.65076 33.8985C7.57541 32.8317 6.6265 31.9607 6.54221 31.9628C6.45819 31.9653 6.2056 32.0934 5.98129 32.2478C5.6281 32.4907 5.64387 32.572 6.09712 32.8531C6.78202 33.2775 9.48412 35.6299 11.6231 37.6642C13.6017 39.5459 13.9255 39.2247 12.0285 37.2622C11.2533 36.4606 10.8751 35.8859 11.0777 35.8187C11.2868 35.7494 10.9249 35.1305 10.1255 34.1896C7.82936 31.4875 6.50414 30.34 6.53296 31.0786ZM8.7519 31.8626C8.7984 32.0333 9.93166 33.313 11.2707 34.7064C12.6096 36.0998 13.4348 36.8546 13.1044 36.3837C12.339 35.2922 8.63988 31.4499 8.7519 31.8626ZM13.1865 32.5005C13.0935 32.6502 13.2917 32.7713 13.6302 32.7713C14.2265 32.7713 14.2287 32.7813 13.7143 33.1689C13.0859 33.6423 13.3929 33.7103 14.205 33.2772C14.7619 32.9806 14.7638 32.959 14.2711 32.6001C13.6659 32.1592 13.4127 32.1359 13.1865 32.5005ZM16.952 32.8376C16.6929 33.255 16.6216 35.2887 16.8759 35.0067C17.0703 34.7917 17.4167 32.5005 17.2552 32.5005C17.2035 32.5005 17.067 32.6521 16.952 32.8376ZM5.16886 33.3807C5.17077 33.567 5.56855 33.9919 6.05252 34.3251C6.53677 34.6585 7.25675 35.1906 7.65236 35.5081C8.04824 35.8255 8.52133 36.0356 8.70378 35.975C9.01836 35.8704 5.80374 33.0421 5.37061 33.0421C5.25777 33.0421 5.16723 33.1946 5.16886 33.3807ZM18.5516 33.8546C18.5516 34.376 18.6076 34.5894 18.6758 34.3286C18.7443 34.0678 18.7443 33.6415 18.6758 33.3807C18.6076 33.1198 18.5516 33.3333 18.5516 33.8546ZM18.1013 36.8717C17.9993 37.6373 17.8531 38.643 17.7761 39.1061C17.6777 39.7014 17.7122 39.8292 17.8938 39.5421C18.1622 39.1188 18.6236 35.4796 18.4091 35.4796C18.3419 35.4796 18.2033 36.1061 18.1013 36.8717ZM38.3368 36.859C37.6639 37.3004 36.7155 37.8348 36.2297 38.0466C35.7438 38.2581 35.346 38.4921 35.346 38.5666C35.346 38.9219 39.1803 37.0469 39.6797 36.4473C40.2143 35.8057 39.7028 35.9625 38.3368 36.859ZM26.7813 37.3755C26.8737 37.5244 27.0032 37.6463 27.0692 37.6463C27.1353 37.6463 27.1891 37.5244 27.1891 37.3755C27.1891 37.2265 27.0594 37.1046 26.9012 37.1046C26.7429 37.1046 26.6888 37.2265 26.7813 37.3755ZM27.5698 38.1384C26.9866 38.5579 25.595 39.4324 24.4772 40.0816C23.3595 40.7308 22.5887 41.3099 22.7643 41.3681C22.9399 41.4263 23.4261 41.2405 23.8448 40.9548C24.2635 40.6691 25.6157 39.7926 26.8493 39.0067C28.0829 38.221 29.0924 37.5325 29.0924 37.4767C29.0924 37.2035 28.5293 37.448 27.5698 38.1384ZM25.5578 38.188C25.5578 38.3369 25.7413 38.4588 25.9656 38.4588C26.1899 38.4588 26.3734 38.3369 26.3734 38.188C26.3734 38.039 26.1899 37.9171 25.9656 37.9171C25.7413 37.9171 25.5578 38.039 25.5578 38.188ZM5.70939 38.4493C5.70939 38.6034 5.86247 38.7358 6.04926 38.7434C6.23633 38.751 7.12325 39.2967 8.0205 39.9565C9.80767 41.2706 11.2933 42.1632 11.0559 41.7808C10.8868 41.5078 7.26898 38.9961 6.32116 38.4935C5.928 38.2849 5.70939 38.2692 5.70939 38.4493ZM20.3809 38.7296C20.3515 39.102 20.3512 39.5765 20.3803 39.7842C20.4097 39.9917 20.2748 40.2593 20.0807 40.3787C19.8866 40.4982 19.8132 40.681 19.9173 40.7847C20.2422 41.1086 20.9565 40.3051 20.7947 39.7975C20.7104 39.5332 20.7689 39.2385 20.9244 39.1426C21.0802 39.0468 21.2074 38.8466 21.2074 38.6977C21.2074 38.5487 21.0954 38.4956 20.9586 38.5799C20.8219 38.6641 20.6481 38.5798 20.5723 38.3927C20.4967 38.2056 20.4105 38.3572 20.3809 38.7296ZM7.88456 38.5663C7.88456 38.6359 8.28207 38.9704 8.76822 39.31C9.39521 39.748 9.53986 39.7883 9.26633 39.449C8.87725 38.9663 7.88456 38.332 7.88456 38.5663ZM14.41 39.4067C14.7613 39.7791 15.1099 40.0838 15.1847 40.0838C15.2594 40.0838 15.0332 39.7791 14.6819 39.4067C14.3307 39.0343 13.9821 38.7296 13.9073 38.7296C13.8325 38.7296 14.0588 39.0343 14.41 39.4067ZM32.763 39.813C32.4201 39.9597 32.3701 40.0456 32.627 40.0456C32.8514 40.0456 33.2796 39.9411 33.5787 39.813C33.9215 39.6662 33.9716 39.5803 33.7146 39.5803C33.4903 39.5803 33.0621 39.6848 32.763 39.813ZM9.78782 39.9029C9.78782 39.9773 10.2772 40.4245 10.8754 40.8963C11.4736 41.3681 11.963 41.6933 11.963 41.6189C11.963 41.5444 11.4736 41.0972 10.8754 40.6255C10.2772 40.1537 9.78782 39.8284 9.78782 39.9029ZM28.8205 40.0838C28.8205 40.2327 29.2795 40.3424 29.8401 40.3275C30.7501 40.3034 30.7866 40.2774 30.18 40.0838C29.208 39.7737 28.8205 39.7737 28.8205 40.0838ZM11.963 40.7102C11.963 40.7771 12.4122 41.1733 12.9611 41.5904C13.5101 42.0075 13.8736 42.2104 13.7686 42.0414C13.5536 41.6947 11.963 40.5223 11.963 40.7102ZM17.7342 41.1436C18.0912 41.6508 19.6228 42.8636 20.6636 43.463C21.5 43.9445 19.9755 42.4687 18.6755 41.5384C17.7622 40.8849 17.4648 40.7601 17.7342 41.1436ZM20.9442 40.964C20.9644 41.7527 22.295 42.7531 22.295 41.9796C22.295 41.8307 22.0973 41.7088 21.8554 41.7088C21.5497 41.7088 21.4592 41.5438 21.5582 41.1671C21.6506 40.815 21.5663 40.6255 21.3178 40.6255C21.1076 40.6255 20.9393 40.7779 20.9442 40.964ZM11.7863 42.4492C11.9763 42.7615 16.0392 45.9855 16.7891 46.4191C17.5665 46.8687 17.0246 46.3243 15.4297 45.0533C12.8714 43.0145 11.5592 42.0766 11.7863 42.4492ZM25.5578 42.3569C25.5578 42.4154 25.7475 42.5359 25.9797 42.6247C26.2217 42.7171 26.3308 42.6716 26.2356 42.5183C26.076 42.2607 25.5578 42.1375 25.5578 42.3569ZM13.3225 42.6237C13.3225 42.6797 13.5367 42.8931 13.7983 43.0976C14.2295 43.4343 14.239 43.4248 13.9011 42.9952C13.5457 42.544 13.3225 42.4008 13.3225 42.6237ZM14.6819 43.707C14.6819 43.7631 14.8962 43.9765 15.1578 44.181C15.589 44.5176 15.5985 44.5081 15.2605 44.0786C14.9052 43.6274 14.6819 43.4841 14.6819 43.707ZM18.3968 44.8694C18.2625 45.0035 18.6889 45.4048 20.1878 46.5556C21.0378 47.2081 20.6908 46.6956 19.6054 45.6955C19.0233 45.1589 18.4795 44.7873 18.3968 44.8694ZM16.5852 45.3361C16.5852 45.3946 16.775 45.5151 17.0072 45.6039C17.2492 45.6963 17.3582 45.6508 17.263 45.4975C17.1034 45.2399 16.5852 45.1167 16.5852 45.3361Z" fill="hsl(205,8%,42%)"/>
</svg>
