<svg width="748" height="372" viewBox="0 0 748 372" fill="none" xmlns="http://www.w3.org/2000/svg">
<path fill-rule="evenodd" clip-rule="evenodd" d="M111.738 7.87989C109.711 8.91289 105.288 12.1529 101.91 15.0799L95.7677 20.3999L91.6347 18.7899C74.0357 11.9359 75.3717 12.2149 60.0007 12.1869C48.8317 12.1659 44.7337 12.5219 42.1597 13.7369C40.3217 14.6049 36.2717 15.8249 33.1597 16.4479C28.5937 17.3629 27.5017 17.9599 27.5017 19.5409C27.5017 21.1169 28.2987 21.5579 31.5767 21.7989C35.3027 22.0719 35.8357 22.4779 37.8137 26.5489C39.7737 30.5839 40.3097 30.9999 43.5507 30.9999C46.6517 30.9999 48.0927 31.9609 54.4007 38.2319L61.6757 45.4649L55.5887 50.3559C52.2407 53.0459 47.7767 56.3459 45.6677 57.6889C43.5587 59.0319 41.0977 61.4129 40.1987 62.9789C39.2997 64.5459 37.2327 66.6139 35.6057 67.5749C32.0197 69.6929 24.0427 78.0349 24.0187 79.6909C23.9837 82.1159 26.0417 81.9989 30.2147 79.3389C32.5727 77.8359 37.7647 74.9659 41.7517 72.9609L49.0017 69.3169V74.0989C49.0017 76.7299 48.5877 79.1379 48.0817 79.4499C46.7607 80.2669 42.0017 88.9989 42.0017 90.6069C42.0017 91.3519 40.7637 92.2369 39.2517 92.5739C37.7387 92.9099 35.7967 93.3729 34.9357 93.6019C34.0747 93.8309 30.9637 93.5619 28.0237 93.0039C22.5867 91.9729 20.4097 92.3979 22.9827 93.9879C25.7097 95.6729 34.0287 96.1929 39.2677 95.0049C46.7007 93.3199 57.6927 87.9449 59.1067 85.3039C59.7657 84.0729 62.1487 81.8539 64.4037 80.3729C66.6577 78.8919 70.8287 75.7029 73.6717 73.2869C77.5657 69.9779 79.0477 69.2169 79.6717 70.2059C80.1287 70.9279 82.1007 72.5869 84.0547 73.8939C87.5237 76.2129 92.0017 81.9219 92.0017 84.0259C92.0017 84.6049 92.8407 86.7489 93.8667 88.7899C94.8917 90.8299 96.0247 94.1189 96.3827 96.0969C96.8317 98.5709 97.7977 100.041 99.4777 100.807C102.117 102.009 106.002 108.652 106.002 111.96C106.002 113.082 106.877 114.875 107.946 115.944C109.926 117.924 111.617 124.004 111.118 127.351C110.966 128.368 111.891 130.318 113.172 131.683C115.105 133.743 115.502 135.243 115.502 140.496C115.502 143.978 115.84 147.166 116.252 147.58C116.664 147.995 117.002 149.807 117.002 151.608C117.002 157.017 120.82 157.268 123.001 152.003C123.651 150.434 126.842 145.654 130.092 141.381C133.343 137.109 136.002 132.675 136.002 131.529C136.002 130.383 136.692 128.46 137.535 127.256C138.378 126.052 140.126 122.253 141.419 118.813L143.771 112.559L148.136 112.808C150.537 112.946 154.583 113.526 157.125 114.098L161.749 115.139L163.384 121.764C164.283 125.408 165.98 129.412 167.154 130.662C168.329 131.912 172.44 134.139 176.291 135.61C180.141 137.082 186.489 140.685 190.397 143.617C198.577 149.755 208.869 154.993 212.797 155.016C216.109 155.036 242.351 148.34 246.502 146.417C248.152 145.652 250.685 144.073 252.132 142.908C255.777 139.971 257.63 140.823 266.6 149.564L274.238 157.006L268.37 159.6C260.077 163.267 258.858 166.109 263.667 170.565C267.155 173.798 267.709 181.238 264.502 181.771C263.402 181.954 261.602 182.478 260.502 182.937C259.402 183.396 256.702 184.16 254.502 184.636C251.457 185.294 250.502 185.977 250.502 187.5C250.502 189.23 251.178 189.504 255.502 189.528C258.252 189.543 261.464 189.895 262.64 190.31C264.845 191.087 264.83 191.967 262.477 199.658C261.602 202.519 265.075 206 268.805 206C270.361 206 273.467 207.367 275.785 209.072C280.911 212.842 283.691 212.598 286.057 208.171C287.035 206.339 288.521 204.084 289.359 203.158C290.892 201.464 292.98 191.22 292.994 185.321C292.999 183.573 292.239 181.38 291.307 180.448C290.375 179.515 289.282 176.671 288.879 174.126C288.475 171.582 287.445 166.8 286.589 163.5C284.478 155.357 284.658 147.601 287.113 141C288.237 137.975 290.399 131.45 291.916 126.5C295.269 115.561 296.788 112.543 301.25 107.956C303.146 106.007 304.879 103.972 305.1 103.433C305.902 101.481 322.557 89.7159 326.478 88.3309C328.691 87.5489 335.002 85.7629 340.502 84.3609C349.068 82.1779 351.864 81.8949 360.002 82.3929C365.227 82.7119 371.403 83.2509 373.727 83.5889C377.662 84.1629 378.039 84.0099 379.227 81.3529C379.928 79.7839 381.837 77.3749 383.469 75.9999C396.853 64.7229 420.792 41.6159 420.332 40.4169C420.033 39.6379 419.37 38.9999 418.858 38.9999C418.347 38.9999 409.733 46.5369 399.715 55.7499C389.698 64.9619 380.802 73.0449 379.945 73.7119C378.691 74.6889 377.503 74.4749 373.821 72.6109C371.309 71.3399 368.3 70.0499 367.133 69.7449C365.967 69.4389 364.754 68.5159 364.437 67.6919C363.701 65.7739 376.336 44.3079 380.002 41.2479C381.321 40.1469 388.135 36.7359 397.502 32.4869C407.685 27.8679 413.875 27.4589 419.039 31.0619C420.434 32.0359 423.12 33.2329 425.009 33.7219C427.743 34.4299 428.57 35.2339 429.067 37.6659C429.411 39.3449 430.437 41.7829 431.347 43.0819C432.472 44.6889 433.002 47.5119 433.002 51.9039C433.002 58.6929 436.546 73.9799 438.41 75.2349C440.571 76.6889 444.608 75.9519 448.325 73.4259C455.504 68.5479 460.08 67.0449 467.825 67.0219C474.252 67.0029 475.108 66.7859 474.819 65.2499C474.638 64.2879 473.55 63.0859 472.4 62.5789C471.211 62.0549 469.489 59.5209 468.406 56.7009C467.359 53.9749 464.893 49.8889 462.926 47.6219C460.96 45.3549 458.486 42.0129 457.428 40.1949C454.559 35.2619 447.323 30.9999 441.817 30.9999C438.635 30.9999 436.601 30.3729 434.905 28.8699C431.487 25.8399 423.006 22.0209 419.67 22.0099C418.112 22.0039 413.612 20.9109 409.67 19.5799C405.728 18.2489 400.477 16.8559 398.002 16.4829C395.527 16.1109 390.127 14.8859 386.002 13.7609C381.877 12.6349 377.29 11.5069 375.808 11.2519C372.329 10.6549 364.079 15.3289 354.606 23.2659C350.699 26.5389 345.477 30.2549 343.002 31.5229C340.527 32.7919 336.027 35.9629 333.002 38.5689C329.977 41.1759 325.363 44.6289 322.749 46.2419C319.863 48.0229 317.754 50.1419 317.379 51.6359C316.936 53.3999 314.885 55.0639 310.132 57.5159C306.485 59.3969 301.897 61.8909 299.936 63.0589L296.37 65.1829L287.436 56.3559C282.522 51.5009 276.805 45.5709 274.73 43.1789C269.156 36.7489 255.367 26.1379 248.431 22.9409C245.091 21.4019 236.991 18.7099 230.431 16.9589C219.718 14.1009 216.668 13.7269 200.502 13.2879C186.075 12.8969 181.708 13.0969 178.502 14.2939C176.302 15.1149 173.152 16.2679 171.502 16.8559C169.852 17.4439 163.335 19.7889 157.019 22.0669C146.148 25.9879 145.482 26.1099 144.522 24.3539C143.073 21.7039 131.06 10.0649 127.502 7.86389C123.611 5.45589 116.477 5.46289 111.738 7.87989ZM368.905 48.8339C367.583 49.8579 362.339 53.5159 357.252 56.9629C352.165 60.4109 348.002 63.6199 348.002 64.0959C348.002 65.0469 350.281 65.6319 356.762 66.3439L361.022 66.8119L366.651 57.3789C369.748 52.1909 372.062 47.7269 371.794 47.4589C371.526 47.1909 370.226 47.8099 368.905 48.8339ZM161.641 54.7739C161.3 55.3269 162.18 59.3169 163.597 63.6399C165.157 68.3989 166.442 75.1849 166.852 80.8409C167.63 91.5549 167.988 92.0399 176.908 94.4779C184.518 96.5569 187.281 98.1129 188.734 101.135C189.966 103.696 192.848 115.567 193.755 121.812C194.132 124.415 194.585 124.973 195.869 124.419C196.767 124.032 200.248 122.72 203.604 121.505C207.198 120.205 213.23 116.608 218.276 112.758C222.99 109.161 227.419 106.028 228.12 105.794C228.984 105.506 228.381 104.105 226.244 101.435C224.512 99.2709 221.908 94.7999 220.457 91.4999C217.695 85.2179 208.835 69.8579 206.097 66.6059C202.964 62.8839 188.425 57.5469 177.002 55.9239C173.977 55.4949 169.423 54.8339 166.882 54.4559C164.1 54.0419 162.016 54.1689 161.641 54.7739ZM11.6407 78.6939C9.11468 81.2199 13.0887 89.8919 15.9377 88.0699C17.1667 87.2839 17.1057 86.5569 15.5137 83.0279C13.5337 78.6359 12.6677 77.6669 11.6407 78.6939Z" fill="#E9E4D7"/>
<path fill-rule="evenodd" clip-rule="evenodd" d="M114.446 4.502C111.726 5.879 106.398 9.531 102.606 12.617L95.713 18.23L88.606 16.02C84.698 14.804 77.571 12.864 72.77 11.708C64.606 9.742 63.276 9.688 52.27 10.865C40.673 12.106 36.046 12.951 28.845 15.145C25.928 16.033 25.104 16.839 24.767 19.135C24.267 22.543 24.603 23 27.608 23C28.859 23 30.16 23.45 30.5 24C30.84 24.55 32.003 25 33.084 25C35.078 25 37.523 29.345 36.479 31.034C35.654 32.368 39.099 33.801 43.129 33.801C47.317 33.8 51.346 35.631 50.427 37.117C50.082 37.677 50.769 38.388 51.954 38.698C53.514 39.106 54.025 39.904 53.804 41.588C53.622 42.982 54.254 44.465 55.38 45.289C57.124 46.564 56.572 47.181 47.795 53.778C42.589 57.691 36.682 62.829 34.667 65.196C32.653 67.563 29.555 71.195 27.783 73.267C26.01 75.339 24.187 77.701 23.731 78.517C22.994 79.834 17.942 83 16.577 83C16.29 83 15.09 80.756 13.91 78.014C12.731 75.271 11.368 73.272 10.883 73.573C10.397 73.873 10 77.047 10 80.626C10 86.68 9.86 87.09 8 86.5C6.598 86.055 6 86.32 6 87.387C6 88.367 7.337 89.135 9.75 89.543C14.518 90.348 18.888 92.3 22.032 95.03C24.251 96.957 25.41 97.133 33.5 96.774C39.653 96.5 44.285 95.672 48.143 94.155C54.645 91.599 64.946 84.206 73.282 76.113C78.412 71.133 79.033 70.782 78.782 73C78.543 75.116 78.961 75.55 81.5 75.827C83.15 76.007 85.741 77.333 87.259 78.773C89.532 80.93 89.911 81.957 89.413 84.61C88.906 87.312 89.22 88.098 91.366 89.504C94.329 91.445 95.476 94.088 95.49 99C95.498 101.849 95.912 102.559 97.716 102.815C100.942 103.274 105.309 108.814 104.493 111.414C102.678 117.198 102.738 117.826 105.14 118.167C106.542 118.367 108.035 119.658 108.861 121.387C110.061 123.898 110.027 124.72 108.603 127.705C106.853 131.377 107.194 133.246 109.458 132.378C110.256 132.071 111.571 132.942 112.538 134.417C114.467 137.361 113.9 143.008 111.474 145.022C109.45 146.701 109.626 148 111.878 148C115.189 148 116.327 150.559 115.635 156.449L114.998 161.865L122.365 154.664C131.809 145.432 139.262 133.876 142.625 123.25C145.521 114.097 145.187 114.301 154.295 116.13L159.924 117.261L161.996 123.488C164.709 131.641 168.795 135.206 180.873 139.955C183.828 141.117 188.103 143.568 190.373 145.402C192.643 147.235 198.091 150.82 202.479 153.368C212.975 159.461 214.996 159.441 235.5 153.039C246.344 149.653 251.445 146.867 251.836 144.117C252.16 141.837 252.321 141.898 256.336 145.827C258.626 148.068 263.65 152.327 267.5 155.293C272.313 159 274.398 161.245 274.175 162.478C273.94 163.772 274.297 164.1 275.455 163.656C276.337 163.317 278.865 163.762 281.071 164.645C285.672 166.486 286.495 166.107 285.604 162.557C285.113 160.601 283.998 159.775 280.734 158.948C278.405 158.359 274.98 156.631 273.123 155.11C270.097 152.631 269.871 152.109 270.954 150.086C272.577 147.054 271.577 146.303 269.362 148.891L267.58 150.972L264.79 148.299C261.642 145.283 261.454 144.305 263.501 141.602C264.707 140.008 265.19 139.913 266.511 141.009C267.56 141.88 268.418 141.982 269.085 141.315C269.751 140.649 269.571 139.889 268.542 139.035C266.978 137.736 266.503 133.459 267.605 130.588C268.133 129.211 268.577 129.275 271.14 131.1C272.896 132.35 274.758 132.922 275.785 132.526C277.341 131.927 277.315 131.766 275.5 130.792C274.4 130.201 272.209 128.431 270.631 126.859C269.054 125.286 267.366 124 266.881 124C265.652 124 265.778 125.745 267.065 126.54C267.775 126.979 267.624 127.758 266.613 128.875C265.778 129.798 264.796 132.424 264.43 134.712C264.06 137.027 262.783 139.795 261.551 140.952C259.442 142.933 259.263 142.948 257.747 141.266C256.872 140.294 255.861 138.318 255.5 136.873C254.959 134.703 255.38 133.866 257.923 132.055C261.209 129.715 261.911 127.287 259.561 126.385C257.568 125.62 256.707 120.9 257.959 117.607C258.811 115.366 259.412 114.993 261.251 115.565C262.488 115.95 263.629 116.591 263.786 116.99C263.943 117.39 264.695 118.568 265.457 119.608C266.708 121.317 266.911 120.894 267.55 115.25C268.138 110.063 268.576 109 270.129 109C272.498 109 272.513 107.775 270.171 105.655C267.868 103.57 266.605 103.529 267.386 105.563C268.173 107.614 265.356 113 263.497 113C260.073 113 256.294 102.118 257.849 96.734C258.363 94.956 259.105 92.713 259.499 91.75C260.044 90.416 259.721 90 258.138 90C256.844 90 256.251 90.49 256.563 91.303C256.838 92.019 256.375 94.252 255.534 96.265C254.094 99.71 254.148 100.317 256.462 106.691C258.904 113.419 258.907 113.47 256.959 115.544C254.499 118.162 254.34 124.613 256.671 127.189C258.25 128.933 258.16 129.215 255.059 132.246L251.776 135.457L249.393 132.478C246.575 128.956 246.416 127.302 248.661 124.823C249.574 123.813 249.985 122.653 249.574 122.244C249.164 121.835 247.967 122.562 246.914 123.861L245 126.222L243.028 123.861C239.591 119.745 239.472 117.851 242.487 115.257C246.137 112.118 244.961 111.179 240.954 114.033C237.621 116.406 237.59 116.394 234.931 111.75C233.634 109.484 234.951 107.097 238.93 104.5C242.043 102.468 242.809 100.618 241 99.5C239.293 98.445 239.897 94.738 242.171 92.318C245.477 88.799 243.522 88.324 240.045 91.801C236.896 94.95 236.116 98.716 238.183 100.783C238.834 101.434 239.172 102.088 238.933 102.237C238.695 102.385 237.05 103.522 235.279 104.762L232.057 107.017L230.323 104.37C228.594 101.731 228.601 101.712 232.544 98.376C236.977 94.626 236.247 93.942 231.137 97.058C229.288 98.185 227.629 98.962 227.45 98.784C226.688 98.022 221 86.029 221 85.184C221 83.224 211.147 69.327 207.316 65.885C199.689 59.032 183.712 53.046 173 53.029C169.261 53.023 157.091 55.859 150.496 58.272C145.9 59.955 139.132 65.814 140.616 66.826C141.161 67.197 141.706 70.425 141.828 74C141.95 77.575 142.239 82.075 142.469 84C143.304 90.956 142.999 109.872 142.011 112.471C141.455 113.934 141 116.226 141 117.565C141 118.904 140.645 120 140.212 120C139.778 120 136.997 124.738 134.032 130.53C131.067 136.321 127.147 142.805 125.32 144.939C123.494 147.072 122 149.201 122 149.668C122 150.136 121.1 151.081 120 151.768C118.212 152.884 118 152.767 118 150.657C118 149.359 119.35 146.884 121 145.157C123.888 142.136 124.821 139.997 123.25 140.003C122.838 140.004 121.6 141.349 120.5 142.992C118.381 146.155 116.41 147.371 114.907 146.443C113.925 145.836 115.351 142.502 117.663 140C123.776 133.384 132.039 114.388 132.771 105.264C133.133 100.757 132.935 99 132.065 99C131.401 99 130.969 100.012 131.105 101.25C131.449 104.358 130.06 111.89 128.478 115.5C127.755 117.15 126.204 120.746 125.032 123.491C121.656 131.392 116.854 138.375 115.867 136.819C114.61 134.837 114.818 133.578 116.757 131.439C118.315 129.72 121 124.666 121 123.453C121 121.808 119.021 123.617 117.12 127C115.884 129.2 114.212 131 113.405 131C111.192 131 110.551 128.153 112.324 126.195C114.42 123.879 117.951 115.982 117.978 113.55C118.009 110.772 116.634 112.676 114.583 118.25C113.621 120.862 112.52 123 112.137 123C110.602 123 109.116 116.824 110.056 114.353C111.227 111.273 111.228 111 110.067 111C109.554 111 108.849 111.9 108.5 113C107.405 116.451 106.503 115.19 106.429 110.105C106.37 105.994 105.89 104.801 103.429 102.638C101.818 101.222 99.938 100.049 99.25 100.032C98.563 100.014 98 98.89 98 97.534C98 96.178 97.278 93.555 96.396 91.705C94.854 88.47 94.895 88.137 97.472 82.921C98.946 79.94 101.99 75.884 104.236 73.908C109.253 69.496 107.784 67.925 102.333 71.874C99.447 73.965 97.773 76.329 95.975 80.856C94.633 84.235 93.237 87 92.872 87C92.508 87 92.011 85.312 91.767 83.25C91.523 81.188 90.988 78.74 90.578 77.811C89.979 76.453 90.633 75.907 93.914 75.023C96.193 74.409 99.777 72.23 102.029 70.087C105.981 66.328 106.091 66.291 107.489 68.288C108.274 69.409 108.727 70.632 108.496 71.006C108.265 71.38 106.498 74.03 104.571 76.895C101.052 82.124 99.016 87.558 99.006 91.75C98.996 95.616 100.709 94.207 101.291 89.87C101.902 85.308 109.589 73 111.825 73C112.563 73 112.995 73.337 112.785 73.75C108.395 82.387 107.13 86.357 106.573 93.25C106.165 98.292 106.305 101 106.973 101C107.538 101 108.032 99.537 108.071 97.75C108.219 91.004 109.151 86.373 111.139 82.5C114.029 76.871 115.802 75.135 118.057 75.725C120.508 76.366 120.49 77.12 117.902 82.193C114.552 88.759 113.111 93.603 112.448 100.53C112.03 104.898 112.181 107 112.914 107C113.511 107 114.037 105.313 114.082 103.25C114.226 96.676 115.002 93.668 118.435 86.368C120.28 82.446 122.09 77.868 122.457 76.195C123.027 73.6 122.859 73.216 121.312 73.576C118.523 74.224 110.762 69.74 108.25 66.029C104.425 60.377 105.207 55.993 111.599 47.25C114.592 43.157 111.565 44.992 108.173 49.328C105.217 53.105 104.463 53.536 101.423 53.181C97.525 52.726 96.696 54.582 100.215 55.884C102.279 56.647 102.193 56.777 98.965 57.78C92.006 59.943 89.118 60.085 83.214 58.556C75.917 56.665 75 56.636 75 58.3C75 59.849 84.499 62 91.342 62C93.939 62 97.68 61.325 99.654 60.5C103.908 58.723 104 58.712 104 60C104 60.55 103.662 60.909 103.25 60.798C101.994 60.459 94 64.973 94 66.02C94 67.373 95.47 67.248 99.532 65.551C101.439 64.754 103 63.603 103 62.992C103 62.381 103.532 62.211 104.183 62.613C106.326 63.938 96.811 71.477 91.448 72.705C86.228 73.899 82 72.819 82 70.29C82 67.547 79.118 63.446 75.119 60.5C72.092 58.27 71.041 56.794 71.024 54.75C70.996 51.553 70.846 51.58 78 53.5C84.626 55.279 94.338 55.514 93.794 53.883C93.589 53.268 91.162 52.643 88.399 52.495C85.637 52.346 80.03 51.455 75.938 50.515C66.014 48.236 66 48.231 66 46.927C66 45.826 76.345 46.185 86.25 47.629C90.317 48.222 91.675 46.374 87.75 45.587C79.229 43.878 69.526 42.994 65.362 43.546C61.368 44.076 60.022 43.839 58.073 42.26C56.709 41.156 55.99 39.825 56.4 39.162C57.43 37.495 71.342 37.713 78 39.5C84.144 41.149 94 41.501 94 40.072C94 39.562 91.412 38.875 88.25 38.546C85.088 38.217 80.101 37.25 77.168 36.397C73.548 35.344 68.817 34.948 62.435 35.163C53.952 35.448 52.828 35.272 50.913 33.357L48.79 31.235L54.584 30.237C60.563 29.207 78.137 30.834 84.399 32.998C87.992 34.24 92 34.298 92 33.109C92 32.62 90.537 31.997 88.75 31.726C86.963 31.455 82.35 30.514 78.5 29.635C66.657 26.932 57.361 26.551 49.786 28.458C41.246 30.609 38.84 30.273 37.917 26.8C37.223 24.189 37.386 24.059 42.85 22.861C46.081 22.153 54.386 21.69 62.25 21.781C69.813 21.868 76 21.578 76 21.136C76 20.016 56.479 18.069 51 18.643C48.525 18.902 43.917 19.702 40.76 20.421C35.157 21.696 27 20.781 27 18.876C27 17.898 35.169 16.235 46.597 14.887C66.428 12.548 78.768 15.06 111 27.998C119.632 31.463 125 34.201 125 35.139C125 35.613 125.787 36.002 126.75 36.005C128.072 36.009 127.767 36.598 125.5 38.415C121.285 41.795 123.161 42.853 127.741 39.679C130.408 37.831 132.227 37.247 133.928 37.691C135.891 38.205 136.219 38.014 135.699 36.657C135.113 35.13 135.255 35.121 137.438 36.551C139.214 37.715 140 37.809 140.548 36.923C140.967 36.244 140.543 35.324 139.556 34.771C137.964 33.881 137.993 33.693 139.926 32.339C141.811 31.019 142.283 31.078 144.628 32.922C147.522 35.199 149.884 34.741 147.508 32.365C145.545 30.403 145.606 29.727 147.872 28.312C149.462 27.319 149.911 27.508 150.851 29.571C151.953 31.992 154.384 32.805 155.435 31.105C155.74 30.612 155.316 29.952 154.494 29.636C152.296 28.792 152.676 26.244 155.202 24.892C156.823 24.024 157.504 24.012 157.781 24.843C158.539 27.117 161.849 30.478 162.597 29.733C163.02 29.312 162.834 28.434 162.183 27.783C159.941 25.541 160.875 22.95 164.468 21.449C168.858 19.615 168.912 19.621 168.316 21.898C167.617 24.574 169.704 28 172.035 28C174.35 28 174.652 26.464 172.5 25.638C171.64 25.308 171 23.816 171 22.14C171 19.886 171.551 19.078 173.407 18.613C174.731 18.28 176.456 17.762 177.24 17.461C178.334 17.042 178.563 17.62 178.221 19.946C177.73 23.296 179.665 24.795 182.75 23.452C184.417 22.727 184.417 22.671 182.75 22.272C180.71 21.784 180.373 17.739 182.25 16.259C182.938 15.717 185.346 14.992 187.602 14.648L191.704 14.024L191.225 19.012C190.848 22.938 191.056 24 192.206 24C194.352 24 195.128 22.859 193.948 21.438C192.478 19.666 193.859 15.146 196.263 13.859C199.089 12.347 224 14.833 224 16.627C224 16.885 222.86 18.087 221.466 19.298C218.325 22.028 216.818 29 219.369 29C220.513 29 221 28.108 221 26.016C221 24.165 222.056 21.849 223.782 19.918L226.564 16.804L234.032 19.321C238.139 20.705 243.649 23.044 246.276 24.519L251.052 27.2L247.466 31.169C244.874 34.039 243.966 35.881 244.19 37.819C244.495 40.456 246.371 41.162 246.635 38.739C246.709 38.057 246.834 36.825 246.914 36C246.994 35.175 248.389 33.038 250.015 31.25L252.971 28.001L257.986 31.086C262.962 34.148 264.314 36 261.573 36C259.534 36 256 40.842 256 43.635C256 45.246 255.426 46 254.2 46C252.38 46 250 47.779 250 49.141C250 49.548 251.238 49.236 252.75 48.447C254.262 47.658 256.288 47.01 257.25 47.006C258.576 47.001 259 46.168 259 43.568C259 40.915 259.664 39.663 261.926 38.053L264.852 35.969L267.676 38.552C269.906 40.592 270.186 41.261 269.01 41.731C266.547 42.716 262 47.732 262 49.465C262 50.537 263.299 49.718 265.845 47.042C270.357 42.299 272.382 42.034 276.195 45.686C278.968 48.343 278.978 48.395 277.086 50.436C274.782 52.922 274.057 56.137 275.673 56.704C276.318 56.93 276.993 56.123 277.173 54.91C277.353 53.697 278.267 52.223 279.205 51.636C280.546 50.795 281.453 51.077 283.455 52.958C286.327 55.656 286.688 57 284.539 57C283.735 57 282.266 57.871 281.275 58.936C280.076 60.222 277.825 60.977 274.564 61.186C266.597 61.696 268.107 63.5 276.502 63.5C283.314 63.5 285.89 62.797 282.823 61.774C282.176 61.559 281.977 60.846 282.382 60.191C283.561 58.284 288.52 58.812 290.555 61.061C292.445 63.15 292.035 64.006 288.5 65.347C287.95 65.555 287.775 66.025 288.111 66.391C288.448 66.757 289.963 66.584 291.48 66.008C294.041 65.034 294.527 65.297 298.334 69.73C300.588 72.353 306.213 78.266 310.833 82.868C316.728 88.739 318.857 91.47 317.968 92.02C317.19 92.501 315.7 91.875 314.11 90.402C310.745 87.281 301.265 86.671 296.557 89.273C293.679 90.863 290.944 90.246 287.831 87.304C284.458 84.116 281.883 85.182 284.983 88.482L287.117 90.754L284.564 91.395C282.748 91.85 280.926 91.321 278.255 89.561C273.733 86.582 267.104 85.339 264.156 86.917C260.172 89.049 259.721 99 263.608 99C264.612 99 264.659 98.321 263.823 95.922C263.041 93.678 263.064 92.155 263.909 90.3C264.949 88.017 265.471 87.82 268.983 88.381C272.762 88.986 278.758 91.875 282.126 94.715C283.515 95.886 283.84 95.86 284.345 94.543C285.407 91.775 294.801 92.499 299.518 95.713L303.5 98.426L299.559 99.537C297.391 100.148 295.425 101.224 295.19 101.929C294.878 102.865 295.401 103 297.132 102.429C298.434 102 301.075 101.593 303 101.525C304.925 101.457 307.752 100.575 309.281 99.565C312.439 97.48 312.3 96.171 309.131 98.15C307.322 99.28 306.724 99.111 304.284 96.783C302.753 95.322 300.165 93.623 298.534 93.006C294.402 91.445 296.891 90.035 303.816 90.015C309.204 90 312.665 91.196 314.524 93.714C315.366 94.855 316.219 94.604 319.329 92.301L323.111 89.5L322.696 77.5C322.468 70.9 322.636 66.4 323.07 67.5C323.504 68.6 323.891 73.936 323.93 79.357C323.994 88.326 324.158 89.152 325.75 88.522C326.712 88.142 332.675 86.473 339 84.815C345.325 83.156 350.651 81.391 350.836 80.892C351.021 80.393 353.513 76.95 356.375 73.242C359.236 69.534 363.104 63.8 364.97 60.5C369.488 52.51 376.318 42.205 379.551 38.5L382.169 35.5L379.901 39.5C378.654 41.7 376.156 45.848 374.351 48.717C372.545 51.586 369.975 56.086 368.64 58.717C367.305 61.348 363.24 67.439 359.606 72.253C355.973 77.067 353 81.229 353 81.503C353 81.776 353.563 81.993 354.25 81.984C355.894 81.962 363.988 70.462 372.987 55.358L380.221 43.217L391.861 37.211C408.239 28.76 409.626 28.473 416.794 32.055C419.98 33.647 423.578 36.291 424.79 37.93C427.96 42.217 430.75 49.832 432.028 57.683C433.861 68.95 435.933 74.747 438.359 75.398C441.422 76.22 445.695 76.105 444.443 75.235C443.862 74.831 442.795 73.037 442.072 71.25C440.521 67.417 438.557 66.901 439.246 70.509C440.087 74.907 437.344 71.423 436.111 66.527C434.66 60.765 434.706 60 436.5 60C438.406 60 438.409 58.012 436.506 54.364C435.685 52.789 435.029 50.375 435.05 49C435.075 47.322 436.676 49.79 439.916 56.5C443.597 64.125 444.922 66.076 445.493 64.714C446.235 62.945 443.012 54.414 438.847 47.124C437.787 45.267 437.102 43.565 437.325 43.342C437.924 42.742 445.598 55.818 447.542 60.75C449.147 64.821 449.997 65.67 451.233 64.434C451.949 63.718 447.486 52.225 445.665 50.093C443.564 47.633 442.521 45.586 443.759 46.351C444.346 46.714 446.9 50.158 449.434 54.005C453.717 60.506 456 62.554 456 59.895C456 59.287 454.668 56.817 453.04 54.405C451.413 51.993 449.547 49.002 448.895 47.76L447.709 45.5L449.971 47.5C451.215 48.6 453.552 51.412 455.164 53.75C456.777 56.087 458.749 58 459.548 58C461.745 58 461.417 57.298 455.983 50.384C453.224 46.873 451.359 44 451.84 44C452.321 44 456.249 48.753 460.569 54.561C466.46 62.482 468.871 65.005 470.212 64.655C471.303 64.369 472 64.735 472 65.594C472 66.432 473.023 67 474.535 67C477.634 67 477.64 67.012 468.33 53.828C455.18 35.204 453.571 33.44 446.797 30.21C443.334 28.558 438.7 26.895 436.5 26.513C434.3 26.131 430.475 24.88 428 23.733C425.525 22.586 419.225 20.41 414 18.896C408.775 17.383 401.35 15.232 397.5 14.117C384.449 10.335 377.176 9.573 371.164 11.359C364.834 13.238 360.569 15.742 356.563 19.93C354.948 21.618 353.287 23 352.873 23C352.459 23 351.981 21.347 351.81 19.327C351.283 13.088 349.507 14.512 349.412 21.25C349.298 29.348 344.38 68.403 343.182 70.721C342.228 72.569 340.636 79.387 340.55 82C340.522 82.825 339.527 83.639 338.337 83.808C336.179 84.116 336.18 84.097 338.989 75.308C340.638 70.148 342.059 62.98 342.42 58C343.161 47.766 345.796 27.833 347.039 23.051C347.532 21.154 347.755 19.421 347.534 19.201C346.459 18.126 345.164 20.422 344.555 24.481C343.964 28.424 343.294 29.383 339.19 32.163C329.411 38.785 321.89 45.27 322.412 46.631C323.266 48.857 321.747 48.201 319.215 45.25C317.005 42.675 316.885 42.643 317.334 44.751C317.598 45.99 317.405 46.751 316.907 46.442C316.408 46.134 316 46.932 316 48.216C316 50.047 314.007 51.883 306.75 56.736L297.501 62.923L285 50.086C278.125 43.026 268.675 34.428 264 30.98C242.732 15.294 215.103 7.614 191.866 10.93C182.957 12.201 163.371 18.078 153.573 22.42C150.313 23.864 147.357 24.698 147.002 24.273C138.554 14.13 135.977 11.452 131.718 8.393C127.543 5.394 121.179 2 119.728 2C119.544 2 117.167 3.126 114.446 4.502ZM121 7.879C121 8.362 123.497 10.89 126.548 13.497C129.6 16.104 131.868 18.466 131.588 18.745C131.309 19.025 128.794 17.339 126 15C119.161 9.274 118.476 10.645 125 17C127.879 19.804 129.947 22.386 129.596 22.737C129.245 23.088 126.925 21.38 124.44 18.941C121.088 15.652 119.713 14.846 119.111 15.82C118.564 16.705 120.073 18.978 123.739 22.793L129.178 28.454L133.71 23.657L138.241 18.861L135.371 15.83C132.709 13.02 123.461 7.031 121.75 7.009C121.338 7.004 121 7.395 121 7.879ZM109.511 12.597C106.768 14.469 104.928 16 105.424 16C106.426 16 116 10.021 116 9.396C116 8.503 114.242 9.371 109.511 12.597ZM113.885 13.863C112.573 14.887 109.475 16.758 107 18.02C104.525 19.283 103.069 20.509 103.764 20.746C105.01 21.17 115.342 14.874 116.515 12.976C117.43 11.495 116.526 11.8 113.885 13.863ZM368.357 15.022C361.999 17.541 353.852 24.451 354.684 26.618C355.104 27.712 354.733 28.057 353.386 27.825C352.037 27.593 351.403 28.184 351.161 29.902L350.821 32.303L354.661 29.982C366.902 22.58 371 20.805 371 22.906C371 23.404 368.075 25.18 364.5 26.853C360.925 28.526 358 30.192 358 30.554C358 30.917 358.675 30.955 359.5 30.638C362.379 29.533 360.971 31.948 357.268 34.464C353.037 37.339 352 37.574 352 35.661C352 34.924 353.183 33.782 354.629 33.123C356.075 32.464 357.036 31.703 356.765 31.431C356.493 31.16 354.903 31.722 353.232 32.682C351.043 33.938 350.034 35.401 349.627 37.911C349.316 39.827 349.21 41.543 349.391 41.724C349.572 41.905 352.078 40.466 354.96 38.527C359.844 35.24 363.824 33.858 362.573 35.882C362.273 36.368 359.104 38.505 355.531 40.632C350.469 43.646 349.031 45.024 349.017 46.872C349.002 48.977 349.197 49.093 350.75 47.903C351.712 47.164 353.314 45.749 354.31 44.758C355.305 43.767 356.601 43.254 357.191 43.618C358.38 44.353 351.3 50.901 349.25 50.962C348.563 50.983 348 51.978 348 53.174V55.349L350.314 53.174C352.571 51.055 355 50.292 355 51.702C355 52.089 353.538 53.992 351.75 55.931C349.962 57.871 349.42 58.694 350.544 57.76C351.668 56.827 354.143 55.961 356.044 55.836C361.527 55.477 368.961 48.957 377.202 37.281C382.672 29.531 384.619 27.414 385.077 28.72C385.606 30.227 385.857 30.136 386.986 28.025C387.94 26.244 387.98 25.493 387.137 25.212C386.505 25.002 386.242 24.418 386.553 23.915C387.191 22.881 392 22.648 392 23.65C392 24.007 390.223 27.382 388.051 31.15C385.879 34.917 384.331 38 384.612 38C384.894 38 388.808 36.02 393.312 33.601C397.815 31.181 403.75 28.447 406.5 27.524C412.645 25.463 421.921 25.391 425.757 27.375C427.331 28.188 429.157 28.521 429.816 28.114C431.277 27.211 422.797 23.686 415 21.954C411.975 21.283 406.8 19.675 403.5 18.38C397.796 16.144 389.541 14.52 378.5 13.463C374.916 13.119 372.043 13.561 368.357 15.022ZM209.557 17.223C208.701 18.445 208 20.695 208 22.223C208 26.194 210.668 25.805 211.238 21.75C211.49 19.962 212.037 17.713 212.455 16.75C213.554 14.215 211.419 14.564 209.557 17.223ZM375 15.663C370.753 17.199 365 20.28 365 21.019C365 21.482 367.737 20.748 371.082 19.389C374.693 17.921 377.991 17.18 379.2 17.564C380.652 18.024 381.108 17.821 380.79 16.855C380.307 15.389 377.409 14.792 375 15.663ZM110.263 20.312C108.483 21.515 107.02 22.849 107.013 23.276C106.995 24.35 112.356 21.481 113.945 19.566C115.758 17.382 114.101 17.718 110.263 20.312ZM116.093 23.162C115.487 24.901 115.106 26.42 115.245 26.537C115.385 26.653 117.862 27.431 120.75 28.265C124.618 29.382 126 29.468 126 28.593C126 27.399 118.945 20 117.806 20C117.47 20 116.7 21.423 116.093 23.162ZM375 21.5C375 22.325 375.45 23 376 23C376.55 23 377 22.325 377 21.5C377 20.675 376.55 20 376 20C375.45 20 375 20.675 375 21.5ZM86 21.893C86 22.855 88.432 24.02 90.332 23.968C90.974 23.951 90.626 23.276 89.559 22.468C87.355 20.801 86 20.582 86 21.893ZM235.196 26.298C231.765 29.838 230.759 35 233.5 35C234.486 35 235 34.014 235 32.122C235 30.54 235.7 28.664 236.555 27.955C238.543 26.304 240.328 23 239.231 23C238.77 23 236.954 24.484 235.196 26.298ZM117 24.882C117 25.432 117.45 26.16 118 26.5C118.55 26.84 119 26.668 119 26.118C119 25.568 118.55 24.84 118 24.5C117.45 24.16 117 24.332 117 24.882ZM195.223 25.557C193 27.114 192.072 32 194 32C194.55 32 195 31.19 195 30.2C195 27.917 196.89 26 199.141 26C200.099 26 201.16 25.55 201.5 25C202.482 23.411 197.678 23.837 195.223 25.557ZM184 28C182.9 29.1 182 30.645 182 31.433C182 32.868 179.245 34.174 175.5 34.515C174.4 34.615 172.713 35.038 171.75 35.455C170.68 35.919 170 35.784 170 35.107C170 33.282 173.856 30 176 30C177.1 30 178 29.55 178 29C178 27.727 176.823 27.737 173.397 29.039C170.051 30.311 168.074 32.772 168.032 35.715C167.996 38.235 165.333 40 161.566 40C157.692 40 157.988 35.575 162 33.5C165.276 31.806 165.784 31 163.577 31C162.794 31 160.73 32.197 158.991 33.661C156.622 35.654 155.944 36.929 156.291 38.74C156.601 40.365 156.22 41.349 155.126 41.743C154.232 42.064 151.025 43.449 148 44.82C144.975 46.191 142.098 47.221 141.607 47.109C141.115 46.996 139.428 47.352 137.857 47.9C135.746 48.636 135.018 48.583 135.07 47.698C135.225 45.057 136.694 42.84 139.524 40.975C141.776 39.491 142.055 39.012 140.673 39.007C137.615 38.996 132.703 44.667 133.258 47.569C133.593 49.321 133.177 50.37 131.868 51.071C130.841 51.62 130 53.071 130 54.295C130 55.518 129.1 57.081 128 57.768C126.9 58.455 126 59.501 126 60.093C126 60.684 127.688 59.873 129.75 58.29C135.317 54.018 138.424 52.869 139.57 54.659C140.567 56.215 146.687 57.945 148.75 57.253C151.045 56.483 150.036 55.428 146.766 55.179C144.988 55.043 143.146 54.546 142.673 54.073C140.557 51.957 149.445 43.921 152.092 45.557C152.661 45.908 153.965 45.437 154.99 44.509C157.122 42.58 164 40.745 164 42.105C164 42.597 163.175 43 162.167 43C159.656 43 159.209 43.644 159.752 46.482C160.285 49.273 166.414 51.986 168.184 50.216C168.851 49.549 167.97 48.815 165.54 48.013C161.34 46.627 161.354 44.866 165.575 43.84C167.184 43.449 170.3 42.665 172.5 42.096C175.675 41.276 177.398 41.403 180.854 42.707C184.26 43.993 185.612 44.099 187.064 43.192C189.245 41.83 191.973 42.636 193.807 45.184C195.186 47.101 199 47.701 199 46C199 45.45 198.325 45 197.5 45C196.675 45 196 44.581 196 44.07C196 42.752 200.193 42.264 202.09 43.362C203.665 44.273 203.496 47.199 201.499 53.603C201.043 55.066 201.603 56.589 203.337 58.603C206.187 61.915 208.023 61.298 205.602 57.842C203.839 55.326 203.463 52 204.941 52C205.459 52 206.16 52.45 206.5 53C207.28 54.263 211 54.318 211 53.067C211 52.554 210.211 51.884 209.248 51.579C207.407 50.994 204.526 47.141 205.33 46.337C205.587 46.079 207.701 46.381 210.026 47.007C212.658 47.716 214.608 47.792 215.192 47.208C215.776 46.624 214.399 45.834 211.546 45.116C206.775 43.915 202.492 40.63 203.523 38.964C204.366 37.598 208.817 37.844 213.5 39.515C216.692 40.654 218.158 40.705 220.759 39.767C223.215 38.881 225.063 38.871 228.259 39.724C231.803 40.67 232.783 40.6 234.223 39.298C235.4 38.233 236.93 37.936 239.053 38.361C241.288 38.808 242.046 38.634 241.753 37.741C241.165 35.95 235.831 35.67 233.586 37.312C232.117 38.387 230.898 38.475 228.336 37.688C226.084 36.997 223.934 36.992 221.718 37.672C219.299 38.414 217.393 38.317 214.468 37.3C212.286 36.542 208.25 36.052 205.5 36.211C201.263 36.456 200.5 36.805 200.5 38.5C200.5 40.092 199.729 40.564 196.727 40.812C194.652 40.983 191.618 40.457 189.986 39.643C187.098 38.202 185.222 38.933 186.5 41C187.373 42.413 185.827 42.243 181.553 40.458C177.276 38.671 177.337 37.075 181.758 35.092C183.925 34.119 184.991 32.88 185.199 31.092C185.43 29.1 186.137 28.427 188.25 28.184C189.762 28.01 191 27.447 191 26.934C191 25.217 186.025 25.975 184 28ZM207.923 28.923C203.668 33.178 204.166 34 211 34C216.036 34 217.005 34.281 217.032 35.75C217.056 37.105 217.526 36.88 219.115 34.75C220.874 32.392 221.903 31.99 226.333 31.93C230.142 31.878 230.974 31.634 229.5 31C226.343 29.643 221.56 29.866 219.441 31.468C216.795 33.47 208 33.521 208 31.535C208 29.802 211.025 28 213.934 28C215.07 28 216 27.55 216 27C216 24.848 210.747 26.099 207.923 28.923ZM367.917 28.25C367.459 29.623 367.466 33 367.927 33C368.922 33 370.923 29.256 370.274 28.608C369.674 28.007 368.078 27.765 367.917 28.25ZM419 29C419 29.55 419.45 30 420 30C420.55 30 421 29.55 421 29C421 28.45 420.55 28 420 28C419.45 28 419 28.45 419 29ZM383 32.5C382.293 33.352 381.94 34.273 382.215 34.548C382.49 34.823 383.293 34.352 384 33.5C384.707 32.648 385.06 31.727 384.785 31.452C384.51 31.177 383.707 31.648 383 32.5ZM337.431 36.368C323.076 46.141 321.382 49.225 335.25 40.339C339.221 37.794 342 36.547 342 37.309C342 38.707 324.33 50.664 322.877 50.25C322.395 50.113 322 50.45 322 51C322 52.841 323.997 52.035 333.277 46.447C342.157 41.102 342.523 40.739 343.123 36.697C343.465 34.389 343.69 32.44 343.623 32.368C343.555 32.295 340.769 34.095 337.431 36.368ZM448.127 35.538C449.572 37.167 452.664 40.525 454.997 43C458.226 46.425 458.722 46.731 457.073 44.281C454.807 40.911 450.667 36.522 447.414 34.038C446.361 33.234 446.682 33.909 448.127 35.538ZM147.322 37.478C145.41 39.39 143.992 41.664 144.172 42.53C144.745 45.282 146.343 44.615 147.212 41.263C147.754 39.169 149.102 37.482 151.025 36.487C154.354 34.766 154.777 34 152.4 34C151.52 34 149.235 35.565 147.322 37.478ZM187 35C185.924 35.695 186.963 35.974 190.668 35.985C193.511 35.993 196.548 36.273 197.418 36.607C198.456 37.005 199 36.662 199 35.607C199 34.333 197.912 34.003 193.75 34.015C190.863 34.024 187.825 34.467 187 35ZM171 38.157C169.075 39.34 168.021 40.487 168.657 40.706C170.282 41.266 177 38.323 177 37.051C177 35.41 174.818 35.812 171 38.157ZM418.5 39C418.16 39.55 418.809 40 419.941 40C421.073 40 422 39.55 422 39C422 38.45 421.352 38 420.559 38C419.766 38 418.84 38.45 418.5 39ZM103.75 40.749C102.787 40.968 102 41.564 102 42.073C102 43.281 105.71 43.278 106.457 42.069C107.206 40.858 105.956 40.248 103.75 40.749ZM118 42.393C118 44.214 121.043 45.357 122.367 44.033C123.078 43.322 122.869 43 121.7 43C120.765 43 120 42.55 120 42C120 41.45 119.55 41 119 41C118.45 41 118 41.627 118 42.393ZM405.424 48.22C401.066 52.191 394.543 58.48 390.929 62.196C381.665 71.721 374.971 74.2 370.318 69.829C369.048 68.636 367.771 67.896 367.48 68.186C366.283 69.384 368.408 71.993 372.05 73.795L375.935 75.717L371.729 79.097C368.615 81.6 367.958 82.561 369.197 82.799C371.151 83.176 383.056 73.671 391.097 65.316C394.175 62.117 400.779 55.9 405.773 51.5C413.922 44.321 416.579 41 414.174 41C413.719 41 409.782 44.249 405.424 48.22ZM244.537 43.35C242.895 44.55 243.205 44.688 247.345 44.6C252.069 44.499 253.288 43.708 250.418 42.607C248.015 41.685 246.563 41.868 244.537 43.35ZM410 50.898C402.146 58.899 387.593 72.004 377.155 80.474C374.033 83.008 373.332 84 374.662 84C378.817 84 421.55 45.075 419.494 43.164C418.862 42.577 415.4 45.398 410 50.898ZM114.5 44C114.16 44.55 114.584 45 115.441 45C116.298 45 117 44.55 117 44C117 43.45 116.577 43 116.059 43C115.541 43 114.84 43.45 114.5 44ZM218.894 43.75C218.534 46.301 219.37 50.723 220.455 52C221.156 52.825 221.996 55.243 222.322 57.374C222.648 59.505 223.657 62.068 224.564 63.07C226.102 64.77 226.071 65.091 224.106 67.851C222.948 69.478 222 71.922 222 73.282C222 76.233 224.036 78.214 225.89 77.068C226.817 76.495 226.882 76.045 226.107 75.566C224.558 74.609 224.739 71.024 226.506 67.636C228.438 63.932 228.395 63.318 226 60.273C222.79 56.193 223.473 54.379 227.077 57.411C230.043 59.907 233 60.818 233 59.237C233 58.817 230.525 56.541 227.5 54.178C222.06 49.929 220.564 46.765 223.468 45.651C224.275 45.341 225.202 45.518 225.527 46.044C225.852 46.57 227.182 47 228.482 47C229.783 47 232.184 48.125 233.818 49.5C235.452 50.875 237.849 52.003 239.144 52.006C243.118 52.015 249.027 54.027 251.065 56.065C253.514 58.514 254 58.495 254 55.949C254 53.731 249.329 51.252 243.306 50.275C241.488 49.98 240 49.363 240 48.904C240 46.071 219.281 41.011 218.894 43.75ZM125.884 46.116C124.225 47.775 123.878 49.055 124.278 52.039C124.744 55.511 124.532 55.951 121.854 57.061C118.184 58.581 114 61.822 114 63.145C114 63.695 115.186 63.212 116.635 62.073C118.084 60.933 119.831 60 120.516 60C122.637 60 128.135 53.735 127.005 52.605C125.414 51.014 125.823 48.818 128.174 46.314C130.897 43.417 128.768 43.232 125.884 46.116ZM169.473 45.044C168.617 46.428 170.82 48.981 173.872 50.141C177.573 51.549 178.7 49.533 175.056 48.023C173.375 47.327 172 46.137 172 45.379C172 43.757 170.399 43.545 169.473 45.044ZM180 45.932C180 48.504 185.746 52.654 187.24 51.16C188.021 50.379 187.551 49.78 185.566 49.025C184.048 48.448 182.573 47.081 182.287 45.988C181.621 43.441 180 43.401 180 45.932ZM333 49.5C328.325 52.516 324.05 55.152 323.5 55.355C322.95 55.559 322.828 56.078 323.228 56.508C323.629 56.938 327.383 54.974 331.572 52.145C335.76 49.315 339.595 47 340.094 47C341.923 47 340.925 49.002 338.25 50.695C332.544 54.309 324.862 60.195 325.291 60.624C325.801 61.134 337.775 54.173 338.553 52.914C338.834 52.459 339.725 52.341 340.532 52.651C341.692 53.096 342 52.247 342 48.607C342 46.073 341.887 44.003 341.75 44.007C341.613 44.011 337.675 46.483 333 49.5ZM191.683 46.65C189.067 49.266 194.152 56.923 197.622 55.592C199.161 55.001 199.103 54.76 197.07 53.337C195.819 52.46 194.249 50.444 193.581 48.855C192.913 47.266 192.059 46.274 191.683 46.65ZM94.499 48.574C96.786 50.302 101.146 50.107 101.756 48.25C102.047 47.363 100.763 47.009 97.333 47.032C92.804 47.062 92.626 47.159 94.499 48.574ZM150 47.895C148.216 48.391 147.5 49.281 147.5 51.004C147.5 52.934 148.164 53.554 150.816 54.096C152.912 54.525 154.54 54.337 155.242 53.586C155.852 52.933 157.569 52.577 159.057 52.795C160.546 53.014 162.068 52.699 162.441 52.096C162.842 51.446 162.334 51 161.194 51C160.136 51 158.126 50.1 156.727 49C154.008 46.861 153.824 46.831 150 47.895ZM364 48.622C364 49.951 364.271 50.02 365.5 49C366.325 48.315 367 47.585 367 47.378C367 47.17 366.325 47 365.5 47C364.675 47 364 47.73 364 48.622ZM59.099 50.25C57.722 52.492 57.724 52.493 59.858 50.595C62.15 48.557 62.446 48 61.241 48C60.823 48 59.859 49.013 59.099 50.25ZM136.75 50.16C134.137 51.312 132 52.685 132 53.211C132 53.737 132.563 53.933 133.25 53.648C133.938 53.363 136.188 52.579 138.25 51.907C140.313 51.234 142 50.08 142 49.342C142 47.71 142.472 47.637 136.75 50.16ZM318.086 49C318.116 49.825 318.527 51.4 319 52.5L319.859 54.5L319.914 52.5C319.945 51.4 319.533 49.825 319 49C318.138 47.667 318.037 47.667 318.086 49ZM461.174 50.868C462.453 52.446 463.657 53.602 463.848 53.437C464.39 52.97 460.603 48.067 459.674 48.031C459.22 48.014 459.895 49.291 461.174 50.868ZM117.5 49.719C113.226 50.76 109.559 56.959 111.858 59.258C113.506 60.906 115.143 59.136 113.98 56.962C113.179 55.467 113.399 54.601 114.977 53.023C116.09 51.91 117.675 51 118.5 51C119.325 51 120 50.55 120 50C120 49.45 119.888 49.052 119.75 49.116C119.612 49.18 118.6 49.451 117.5 49.719ZM150.5 49.96C148.651 50.718 148.718 50.865 151.389 51.918C154.693 53.22 155.306 52.962 154.417 50.643C153.719 48.826 153.402 48.771 150.5 49.96ZM214.557 49.907C213.657 51.365 219.217 59.183 220.349 58.051C220.983 57.417 220.345 55.663 218.526 53.038C215.484 48.647 215.384 48.569 214.557 49.907ZM51.689 61.049C39.313 71.689 36.53 74.654 45.25 67.908C48.138 65.674 53.763 61.351 57.75 58.302C64.369 53.24 66.344 51 64.189 51C63.742 51 58.117 55.522 51.689 61.049ZM358.667 51.667C358.3 52.033 358 52.988 358 53.789C358 54.97 358.283 55.01 359.5 54C360.325 53.315 361 52.36 361 51.878C361 50.842 359.616 50.717 358.667 51.667ZM316.015 54.064C316.004 55.927 314.772 57.548 311.511 59.992C309.042 61.842 307.221 63.554 307.464 63.797C308.186 64.519 318.001 56.932 317.985 55.665C317.976 55.024 317.533 53.825 317 53C316.235 51.817 316.027 52.041 316.015 54.064ZM48.945 58.328C41.706 64.313 37.306 69.173 43.5 64.342C48.831 60.184 56.64 53.092 55.945 53.041C55.639 53.018 52.489 55.398 48.945 58.328ZM59.402 60.063C52.498 65.388 48.883 69.03 51.648 67.875C55.233 66.378 68.692 55.358 67.901 54.568C67.572 54.239 63.747 56.712 59.402 60.063ZM239 54.883C239 55.369 238.1 56.002 237 56.29C234.646 56.905 234.212 61 236.5 61C237.325 61 238 60.355 238 59.567C238 55.471 246.979 57.661 252.637 63.138C254.61 65.047 256.024 65.77 256.446 65.087C256.816 64.489 256.84 63.55 256.5 63C255.593 61.532 256.612 61.761 261.04 64.02C264.648 65.861 266.82 68.913 263.659 67.7C262.922 67.417 261.708 67.562 260.961 68.024C259.981 68.63 260.423 69.048 262.552 69.532C271.026 71.455 273.282 72.282 275.153 74.153C276.712 75.712 277.474 75.921 278.35 75.029C279.9 73.451 276.128 70.381 270.917 68.978C268.776 68.401 267.072 67.608 267.13 67.215C267.478 64.887 266.544 63.796 262.628 61.955C260.223 60.825 257.185 59.774 255.878 59.62C254.57 59.467 250.9 58.139 247.721 56.67C241.758 53.914 239 53.349 239 54.883ZM260 55C260 55.565 262.853 56 266.559 56C270.677 56 272.888 55.628 272.5 55C272.16 54.45 269.209 54 265.941 54C262.647 54 260 54.446 260 55ZM358.86 58.714C354.46 61.976 353.018 63.535 354.181 63.774C356.494 64.25 363.468 59.464 364.835 56.462C365.452 55.108 365.791 54 365.589 54C365.386 54 362.358 56.122 358.86 58.714ZM134.485 57.025C134.077 57.684 134.364 58.616 135.122 59.096C137.004 60.289 141.742 60.227 142.5 59C142.857 58.422 141.91 58 140.259 58C138.687 58 136.911 57.511 136.313 56.913C135.53 56.13 135.018 56.161 134.485 57.025ZM165.325 57.06L162.151 58.018L164.491 62.259C166.721 66.301 170.826 78.98 172.649 87.458C173.419 91.037 173.978 91.597 178.5 93.306C181.25 94.346 185.075 95.793 187 96.522C189.711 97.549 190.465 98.372 190.344 100.174C190.258 101.453 190.852 105.875 191.662 110C193.609 119.901 195.32 121.391 202.348 119.304C207.933 117.646 220.218 109.947 222.54 106.652C223.813 104.845 224.204 104.736 224.974 105.971C225.478 106.78 226.17 107.164 226.51 106.824C226.85 106.483 225.471 102.914 223.445 98.892C221.42 94.869 219.164 89.883 218.433 87.811C216.452 82.194 209.794 72.9 204.061 67.745C195.41 59.966 174.663 54.244 165.325 57.06ZM214.2 57.2C211.358 60.042 214.758 68 218.814 68C220.584 68 220.25 66.659 218 64.732C216.064 63.074 215.575 61.412 215.948 57.75C216.158 55.686 215.82 55.58 214.2 57.2ZM307.142 59.019C301.77 62.549 301.295 63.01 303.083 62.962C303.863 62.942 306.3 61.373 308.5 59.477C313.319 55.324 312.953 55.201 307.142 59.019ZM333.237 59.527C330.356 61.466 328 63.505 328 64.057C328 64.608 329.462 64.034 331.25 62.78C340.861 56.037 342.568 53.242 333.237 59.527ZM63.933 62.281C61.971 63.502 58.371 66.049 55.933 67.943C53.495 69.836 51.313 71.524 51.083 71.693C50.854 71.862 50.952 72.285 51.3 72.633C51.648 72.981 53.425 71.969 55.25 70.383C57.074 68.797 60.689 66.173 63.283 64.551C65.877 62.928 68 61.241 68 60.801C68 59.741 68.04 59.726 63.933 62.281ZM313 63.461C308.491 66.878 307.41 68.97 309.751 69.75C310.517 70.006 310.781 69.593 310.433 68.686C310.069 67.737 311.237 66.2 313.682 64.408C319.012 60.503 319.563 59.996 318.45 60.025C317.928 60.039 315.475 61.585 313 63.461ZM338.216 63.55C335.119 68.33 331.419 69.679 327.597 67.421C324.693 65.705 324.69 65.706 325.331 68.102C325.684 69.421 325.979 74.25 325.986 78.833C325.995 84.327 326.366 87.045 327.075 86.808C327.666 86.611 328.072 86.082 327.977 85.632C327.883 85.181 328.988 83.578 330.434 82.069C332.008 80.426 332.822 78.699 332.463 77.764C332.133 76.905 332.344 75.905 332.932 75.542C334.37 74.653 334.334 80.478 332.883 83.316C331.886 85.266 331.929 85.339 333.287 84C335.319 81.997 342.16 59.933 340.725 60.012C340.601 60.019 339.472 61.611 338.216 63.55ZM461.014 61.25C461.063 65.801 462.21 67.001 466.367 66.85C469.217 66.747 469.67 66.573 467.827 66.291C465.951 66.004 464.849 65.005 464.129 62.941C463.11 60.016 460.988 58.864 461.014 61.25ZM129 62C129 62.55 130.575 63 132.5 63C134.425 63 136 62.55 136 62C136 61.45 134.425 61 132.5 61C130.575 61 129 61.45 129 62ZM229.75 61.577C228.502 62.836 228.909 69.493 230.355 71.471C231.249 72.693 232.324 73.09 233.509 72.635C235.236 71.972 235.235 71.892 233.49 70.616C232.463 69.865 231.418 67.447 231.086 65.054C230.764 62.726 230.162 61.161 229.75 61.577ZM333.985 63.046C332.133 64.469 331.914 64.961 333.128 64.978C334.741 65 337.66 62.327 336.878 61.544C336.653 61.32 335.352 61.996 333.985 63.046ZM63.102 67.496C53.927 74.21 50 77.925 50 79.889C50 80.723 48.568 82.882 46.818 84.687C45.068 86.493 43.887 88.22 44.193 88.526C45.113 89.446 50.959 83.986 52.646 80.631C54.985 75.979 60.966 70.1 65.5 67.996C69.012 66.367 73.302 61.93 71.258 62.041C70.841 62.064 67.171 64.519 63.102 67.496ZM156.595 63.846C156.23 64.437 157.319 67.669 159.015 71.029C162.429 77.794 166.066 88.601 165.214 89.453C164.913 89.754 165.192 90 165.833 90C167.441 90 167.315 88.599 164.932 79.98C162.679 71.829 157.662 62.12 156.595 63.846ZM161.592 65.5C162.493 66.875 163.394 68 163.594 68C163.794 68 163.445 66.875 162.818 65.5C162.192 64.125 161.291 63 160.816 63C160.342 63 160.691 64.125 161.592 65.5ZM237.015 64.75C237.024 65.712 237.432 67.133 237.921 67.907C238.926 69.494 235.276 75.967 233.364 75.988C231.745 76.005 228.809 82.636 229.177 85.443C229.347 86.742 228.632 88.749 227.588 89.902C225.609 92.089 226.73 92.692 229.764 91.073C230.719 90.563 232.4 89.858 233.5 89.506C235.357 88.911 235.375 88.795 233.75 87.883C231.632 86.694 231.394 81.211 233.345 78.542C234.588 76.842 234.741 76.956 235.357 80.036C235.724 81.869 236.763 84.186 237.667 85.184C239.418 87.12 243 87.667 243 86C243 85.45 242.582 85 242.071 85C239.828 85 238 81.627 238 77.488C238 72.392 239.343 71.096 242.069 73.563C245.313 76.498 245.193 74.62 241.759 68.696C238.392 62.889 236.989 61.722 237.015 64.75ZM345.191 71.795C342.417 82.561 342.423 82.833 345.433 82.258C347.771 81.811 349.959 79 347.969 79C347.436 79 347 79.477 347 80.059C347 80.641 346.592 80.866 346.094 80.558C344.679 79.683 346.077 75.815 347.597 76.399C348.92 76.906 358 68.661 358 66.952C358 65.274 355.197 67.138 354.666 69.17C354.374 70.287 353.674 70.917 353.111 70.569C352.548 70.221 352.341 69.275 352.651 68.468C352.96 67.661 352.733 67 352.146 67C351.559 67 350.258 66.12 349.256 65.045C347.476 63.134 347.383 63.288 345.191 71.795ZM437.154 64.438C437.345 65.355 437.95 66.082 438.5 66.053C439.984 65.974 439.712 63.737 438.154 63.218C437.313 62.938 436.939 63.395 437.154 64.438ZM456.07 64.25C456.109 64.938 456.447 66.271 456.821 67.213C457.837 69.776 460.393 67.813 459.54 65.125C458.822 62.865 455.952 62.141 456.07 64.25ZM69.827 67.26C67.447 69.053 64.159 71.381 62.519 72.434C59.384 74.448 56.693 77.245 54.883 80.371C54.083 81.753 54.099 82.057 54.944 81.535C55.573 81.146 56.743 81.372 57.544 82.036C58.736 83.026 59 82.884 59 81.257C59 78.219 62.264 74.715 69.459 70.026C75.457 66.119 77.432 64 75.077 64C74.569 64 72.206 65.467 69.827 67.26ZM117.732 65.122C116.76 65.671 115.001 65.98 113.825 65.81C112.648 65.639 111.494 66.063 111.26 66.75C110.771 68.182 113.158 68.301 123.25 67.348C126.963 66.998 130 66.269 130 65.728C130 65.153 127.943 64.943 125.033 65.223C122.302 65.485 119.939 65.345 119.783 64.912C119.628 64.479 118.704 64.573 117.732 65.122ZM315 66.5C313.136 67.875 312.124 69 312.75 69C313.883 69 320.003 64.092 318.944 64.032C318.639 64.014 316.864 65.125 315 66.5ZM152 65.858C152 66.395 152.9 68.934 154 71.5C156.322 76.918 156.336 77 154.945 77C154.364 77 152.954 74.75 151.811 72C150.668 69.25 149.329 67 148.835 67C147.428 67 146.585 70.126 147.792 70.871C150.352 72.453 152.272 83 150 83C149.45 83 149 82.129 149 81.065C149 80.001 148.493 77.863 147.874 76.315L146.748 73.5L145.856 76.5C145.366 78.15 145.281 82.425 145.668 86C146.054 89.575 146.313 96.016 146.243 100.314C146.161 105.37 146.486 108.005 147.164 107.779C147.74 107.587 150.399 103.17 153.072 97.965C157.455 89.43 158.181 88.532 160.466 88.822C162.063 89.024 162.999 88.654 162.997 87.822C162.993 86.354 158.1 74.027 155.61 69.213C153.942 65.988 152 64.183 152 65.858ZM90.781 66.552C90.507 66.826 88.631 67.112 86.613 67.188C82.282 67.351 82.254 69.359 86.577 69.794C89.691 70.107 94.02 67.748 92.291 66.68C91.734 66.336 91.055 66.278 90.781 66.552ZM451.599 66.841C450.583 68.483 452.276 71.066 453.764 70.146C454.734 69.546 454.71 68.986 453.653 67.54C452.726 66.272 452.085 66.054 451.599 66.841ZM69.5 73.151C65.1 76.398 61.336 79.536 61.135 80.123C60.728 81.312 68.894 75.881 74.662 71.127C81.265 65.684 77.75 67.062 69.5 73.151ZM248.411 70.496C247.295 72.198 246.974 74.048 247.4 76.318C247.791 78.402 247.478 80.739 246.563 82.574C244.786 86.134 245.963 92.973 249.093 97.287L251.115 100.075L248.558 103.114C245.454 106.803 245.156 111.926 247.901 114.41C249.283 115.661 250 115.809 250.529 114.953C250.929 114.306 250.674 113.416 249.961 112.976C247.967 111.743 248.426 106.615 250.833 103.234C253.097 100.054 253.686 97 252.035 97C250.413 97 249.234 93.79 248.545 87.5C247.952 82.081 248.032 81.679 249.377 83.35C251.917 86.504 253.012 84.392 251.357 79.534C250.527 77.097 249.994 74.068 250.174 72.802C250.451 70.854 251.019 70.541 253.864 70.769C257.575 71.066 265.109 75.991 267.548 79.714C268.585 81.296 269.712 81.909 270.895 81.533C271.875 81.222 274.311 81.65 276.307 82.484C280.297 84.151 283 84.439 283 83.198C283 82.111 273.314 78.688 272.195 79.379C271.706 79.682 270.01 78.576 268.427 76.923C263.966 72.268 256.677 68 253.186 68C250.942 68 249.58 68.712 248.411 70.496ZM130.985 71.046L128.5 72.956L130.781 72.978C132.036 72.99 133.329 72.306 133.655 71.457C134.566 69.083 133.711 68.952 130.985 71.046ZM282.122 70.353C281.196 71.469 281.872 71.623 285.983 71.228C289.624 70.878 291.669 71.208 293.57 72.454C296.431 74.328 297.361 74.103 296.46 71.755C295.408 69.016 284.146 67.914 282.122 70.353ZM215 70.941C215 71.459 215.45 72.16 216 72.5C216.55 72.84 217 72.416 217 71.559C217 70.702 216.55 70 216 70C215.45 70 215 70.423 215 70.941ZM313.559 71.532C312.491 72.339 312.068 73 312.618 73C313.168 73 314.491 72.339 315.559 71.532C316.626 70.724 317.05 70.064 316.5 70.064C315.95 70.064 314.626 70.724 313.559 71.532ZM445.393 71.582C445.727 72.452 446 73.593 446 74.117C446 74.679 446.831 74.626 448.024 73.987C449.793 73.041 449.865 72.722 448.595 71.452C446.654 69.511 444.63 69.593 445.393 71.582ZM41.023 74.067C37.48 75.742 32.48 78.623 29.91 80.469C27.341 82.315 23.85 84.543 22.154 85.421C18.193 87.469 18.924 89.297 24.281 90.74C30.177 92.328 40.756 89.773 42.017 86.456C42.49 85.212 43.32 83.92 43.861 83.586C44.403 83.251 45.141 81.635 45.501 79.994C45.862 78.354 46.813 76.644 47.616 76.195C48.637 75.624 48.833 74.724 48.27 73.2L47.464 71.021L41.023 74.067ZM316.75 73.886C313.668 76.84 313.305 78 315.461 78C316.322 78 317.369 79.657 318.008 82.03C318.605 84.247 319.522 85.795 320.047 85.471C321.166 84.779 321.35 72.321 320.25 71.684C319.837 71.445 318.262 72.436 316.75 73.886ZM335 72.559C335 73.416 335.457 73.835 336.016 73.49C336.575 73.144 336.774 72.443 336.457 71.931C335.6 70.544 335 70.802 335 72.559ZM368.459 75.067C368.096 75.653 368.04 76.373 368.333 76.667C369.05 77.383 371 76.121 371 74.941C371 73.663 369.274 73.748 368.459 75.067ZM28.872 77.75C27.629 79.336 27.664 79.371 29.25 78.128C30.212 77.373 31 76.585 31 76.378C31 75.555 30.179 76.084 28.872 77.75ZM220 77C220 77.55 220.45 78 221 78C221.55 78 222 77.55 222 77C222 76.45 221.55 76 221 76C220.45 76 220 76.45 220 77ZM328 77C328 77.55 328.45 78 329 78C329.55 78 330 77.55 330 77C330 76.45 329.55 76 329 76C328.45 76 328 76.45 328 77ZM292.5 79C292.121 79.614 293.749 80 296.718 80C299.536 80 302.51 80.669 303.842 81.602C306.955 83.782 308.09 82.306 305.139 79.914C302.577 77.837 293.619 77.189 292.5 79ZM361 79.5C361 80.325 361.45 81 362 81C362.55 81 363 80.325 363 79.5C363 78.675 362.55 78 362 78C361.45 78 361 78.675 361 79.5ZM12.068 81.55C12.003 84.456 13.469 87 15.208 87C15.653 87 15.609 86.213 15.111 85.25C14.613 84.287 13.74 82.375 13.171 81L12.135 78.5L12.068 81.55ZM155 81.417C155 82.287 155.713 83 156.583 83C158.349 83 158.042 80.847 156.188 80.229C155.534 80.011 155 80.546 155 81.417ZM123.243 84.313C122.127 86.205 120.921 88.675 120.563 89.802C119.571 92.926 117.178 108.443 117.615 108.917C118.478 109.851 119.32 107.798 119.721 103.786C120.406 96.94 122.847 88.721 125.107 85.652C126.456 83.821 126.86 82.46 126.239 81.839C125.617 81.217 124.548 82.1 123.243 84.313ZM224.02 83.476C223.231 84.426 223.155 85 223.819 85C225.027 85 226.436 83.103 225.743 82.409C225.491 82.158 224.716 82.638 224.02 83.476ZM160 93.326C160 94.056 160.492 99.568 161.094 105.576C162.19 116.523 165.05 127.242 167.594 129.94C169.424 131.881 170.427 130.667 169.078 128.146C168.395 126.87 168.351 125.901 168.959 125.525C169.489 125.198 170.808 126.663 171.889 128.782C172.969 130.9 174.562 133.221 175.427 133.939C177.294 135.489 177.394 134.959 175.869 131.611C175.246 130.245 175.047 128.32 175.426 127.333C175.977 125.897 176.501 126.403 178.054 129.871C179.12 132.253 179.712 134.657 179.368 135.213C178.685 136.319 180.727 137.96 182.817 137.985C183.682 137.995 183.916 137.312 183.5 136C182.423 132.606 184.723 133.787 187.684 138.148C189.233 140.43 191.53 142.971 192.788 143.795L195.076 145.294L193.366 142.316C192.234 140.343 191.936 138.689 192.483 137.418C193.217 135.715 193.355 135.69 193.717 137.195C193.956 138.185 194.722 138.66 195.563 138.338C196.353 138.034 197 138.284 197 138.893C197 139.502 196.519 140 195.932 140C195.344 140 195.881 141.428 197.124 143.174C198.367 144.92 199.552 145.845 199.757 145.23C199.962 144.615 200.775 144.36 201.565 144.663C203.562 145.43 203.395 144.768 200.213 139.294C193.76 128.192 188 111.236 188 103.34C188 101.503 187.55 100 187 100C186.45 100 186 100.9 186 102C186 105.142 184.17 104.343 182.564 100.5C181.018 96.799 178.394 95.514 179.5 99C180.488 102.114 178.24 101.364 176.5 98C175.027 95.152 172.213 93.611 173.302 96.25C173.586 96.938 174.53 99.163 175.4 101.197C178.161 107.647 175.17 106.618 172.228 100.106C168.803 92.523 167.35 92.123 170.19 99.544C171.829 103.827 172.041 105.359 171.123 106.277C170.205 107.195 169.816 107.014 169.413 105.483C169.126 104.392 168.027 101.7 166.971 99.5C165.542 96.521 165.109 96.115 165.276 97.907C165.655 101.973 163.183 101.472 162.355 97.314C161.937 95.216 161.686 93.162 161.798 92.75C161.909 92.338 161.55 92 161 92C160.45 92 160 92.597 160 93.326ZM137.661 101.477C136.912 110.338 133.532 120.538 128.009 130.601C123.758 138.346 123.512 139 124.843 139C125.307 139 127.505 135.95 129.728 132.223C134.406 124.38 140 106.21 140 98.857C140 91.31 138.366 93.14 137.661 101.477ZM99 96.441C99 97.234 99.45 98.16 100 98.5C100.55 98.84 101 98.191 101 97.059C101 95.927 100.55 95 100 95C99.45 95 99 95.648 99 96.441ZM123.956 103.25C123.932 105.588 123.311 109.75 122.576 112.5C120.784 119.211 121.918 120.657 124.104 114.448C126.01 109.03 126.592 99 125 99C124.45 99 123.98 100.912 123.956 103.25ZM283.199 101.176C280.006 101.89 278.654 102.781 277.949 104.634C276.612 108.151 276.768 116.368 278.2 117.8C280.347 119.947 280.791 119.074 279.498 115.25C277.965 110.717 278.634 105.26 280.868 104.088C281.765 103.618 284.471 102.905 286.881 102.506C289.943 101.999 290.846 101.517 289.881 100.905C289.121 100.424 288.275 100.072 288 100.122C287.725 100.173 285.565 100.647 283.199 101.176ZM154.498 104.005C154.148 105.108 152.712 107.377 151.306 109.048C149.901 110.718 148.982 112.315 149.264 112.597C149.935 113.268 157 104.638 157 103.147C157 101.237 155.179 101.862 154.498 104.005ZM179.154 104.552C179.345 105.532 180.105 106.536 180.846 106.782C181.706 107.069 182.066 106.588 181.846 105.448C181.655 104.468 180.895 103.464 180.154 103.218C179.294 102.931 178.934 103.412 179.154 104.552ZM164.469 105.05C163.519 106.588 164.82 107.58 166.104 106.296C166.822 105.578 166.839 105.019 166.156 104.597C165.596 104.251 164.837 104.455 164.469 105.05ZM295.5 105C295.84 105.55 296.541 106 297.059 106C297.577 106 298 105.55 298 105C298 104.45 297.298 104 296.441 104C295.584 104 295.16 104.45 295.5 105ZM155.716 109.489C154.226 111.357 153.416 113.139 153.918 113.449C154.825 114.01 159.591 107.258 158.827 106.494C158.607 106.273 157.207 107.621 155.716 109.489ZM176.51 109.984C175.773 111.177 176.709 113 178.059 113C179.276 113 179.284 110.293 178.069 109.543C177.557 109.226 176.856 109.425 176.51 109.984ZM171.15 111.95C171.58 113.239 172.951 113.471 173.075 112.275C173.116 111.876 172.61 111.37 171.95 111.15C171.29 110.93 170.93 111.29 171.15 111.95ZM221.559 113.532C220.491 114.339 220.068 115 220.618 115C221.168 115 222.491 114.339 223.559 113.532C224.626 112.724 225.05 112.064 224.5 112.064C223.95 112.064 222.626 112.724 221.559 113.532ZM219 118.915C212.292 122.205 207.651 124.224 200.111 127.134C198.798 127.641 197.948 128.281 198.223 128.556C198.853 129.186 223.213 119.665 226.046 117.681C230.382 114.644 226.228 115.371 219 118.915ZM211.5 118.068C207.747 120.472 209.233 120.438 214.5 118C217.062 116.814 217.781 116.148 216.5 116.147C215.4 116.147 213.15 117.011 211.5 118.068ZM225 121.501C223.625 122.287 220.925 123.459 219 124.105C211.721 126.548 200.5 132.33 202.247 132.738C204.231 133.201 212.591 130.255 220.121 126.439C225.259 123.835 227.242 123.798 225.128 126.346C224.063 127.629 221.184 129.035 207.595 134.905C204.898 136.071 202.916 137.25 203.192 137.525C203.779 138.112 215.452 133.83 221.048 130.976C225.457 128.726 226 128.617 226 129.977C226 131.401 222.129 133.716 213.299 137.571C209.01 139.443 206.185 140.981 207.023 140.988C209.228 141.005 223.459 135.393 230.481 131.737C237.689 127.984 237.467 128.134 236.796 127.463C236.5 127.167 235.063 127.47 233.602 128.135C229.572 129.972 227.848 127.708 231.64 125.557L234.5 123.935L231.25 124.547C227.619 125.231 227.209 124.531 229.655 121.829C231.203 120.118 231.187 120.002 229.405 120.035C228.357 120.055 226.375 120.714 225 121.501ZM279.597 127.25C278.566 129.588 277.717 132.85 277.711 134.5C277.704 136.15 276.867 138.573 275.85 139.885C274 142.269 273.369 148.509 274.765 150.6C276.437 153.103 282 154.949 282 153C282 152.45 281.395 152 280.655 152C277.044 152 274.601 144.761 276.955 141.039C277.716 139.836 278.258 140.058 280.012 142.289C281.185 143.78 282.787 145 283.573 145C285.558 145 285.353 143.63 283.057 141.551C280.37 139.12 279.649 134.902 281.095 130.076C282.468 125.494 282.674 125.383 285.777 127.557C288.7 129.604 288.636 127.947 285.686 125.174C282.467 122.15 281.737 122.399 279.597 127.25ZM234.5 132.601C223.651 138.347 216.125 141.95 213.741 142.539C209.605 143.562 209.04 145.364 213.125 144.502C216.9 143.706 231.8 137.405 233.774 135.77C235.772 134.115 236.509 135.78 234.675 137.807C233.21 139.426 223.576 144.069 215.611 146.995C214.023 147.578 212.955 148.288 213.238 148.571C213.856 149.189 229.833 143.753 233.743 141.594C235.259 140.757 237.963 139.375 239.75 138.523C243.229 136.864 244.281 134.459 241.084 135.473C239.014 136.13 237.315 134.542 238.984 133.51C240.405 132.631 240.253 130.999 238.75 131.006C238.063 131.01 236.15 131.727 234.5 132.601ZM239.806 141.41C237.225 142.648 234.525 144.137 233.806 144.719C233.088 145.301 228.767 147.007 224.205 148.51C219.643 150.014 216.134 151.468 216.408 151.741C217.161 152.495 239.27 145.031 241.079 143.412C243.033 141.664 245.308 141.564 244.762 143.25C244.54 143.938 241.465 146.001 237.929 147.834C234.393 149.668 232.756 150.893 234.291 150.555C238.699 149.586 247.432 146.14 249.56 144.531C251.418 143.126 251.383 143.062 248.75 143.032C246.677 143.008 246 142.507 246 141C246 138.562 245.701 138.581 239.806 141.41ZM205.208 149.195C206.563 150.953 208.305 152.602 209.078 152.859C209.851 153.117 209.137 151.712 207.492 149.736C203.78 145.279 201.832 144.818 205.208 149.195ZM228.813 151.683C229.534 151.972 230.397 151.936 230.729 151.604C231.061 151.272 230.471 151.036 229.417 151.079C228.252 151.127 228.015 151.364 228.813 151.683ZM211 154C211 154.55 211.477 155 212.059 155C212.641 155 212.84 154.55 212.5 154C212.16 153.45 211.684 153 211.441 153C211.198 153 211 153.45 211 154ZM264 161.68C262.625 162.389 261.05 163.145 260.5 163.359C259.895 163.596 260.005 164.284 260.779 165.104C261.937 166.33 284.965 170.368 285.835 169.498C287.059 168.274 284.021 167.182 276.295 166.068C265.16 164.461 264.121 164.161 265.9 163.062C268.291 161.584 266.589 160.346 264 161.68ZM261.531 168.95C261.208 169.472 261.809 170.363 262.867 170.929C263.924 171.495 265.305 173.43 265.935 175.229C266.952 178.136 266.841 178.695 264.929 180.25C263.746 181.213 261.966 182 260.972 182C259.381 182 250.149 185.517 249.17 186.496C248.226 187.44 250.272 189.023 251.339 188.174C251.978 187.666 260.6 184.674 270.5 181.525C280.4 178.376 288.658 175.649 288.85 175.466C289.043 175.283 288.925 174.688 288.589 174.145C288.208 173.528 286.027 173.844 282.782 174.986C277.956 176.686 277.496 176.698 276.325 175.158C275.186 173.661 275.061 173.709 275.032 175.652C275.01 177.127 274.062 178.131 272.022 178.842C268.299 180.14 266.793 178.409 270.44 177.023C273.129 176.001 273.729 174.569 271.933 173.459C271.347 173.096 270.236 173.632 269.465 174.65C268.268 176.231 268.059 176.265 268.032 174.885C267.996 173.045 264.298 168 262.986 168C262.509 168 261.854 168.427 261.531 168.95ZM282.5 180.131C279.75 181.198 275.25 182.705 272.5 183.479C269.75 184.254 263.705 185.948 259.066 187.245C254.428 188.542 250.453 190.142 250.233 190.801C249.734 192.297 251.754 192.33 255.868 190.896C257.61 190.289 260.196 190.083 261.615 190.44C263.835 190.997 264.101 191.465 263.523 193.794C263.154 195.282 261.981 197.433 260.917 198.574C259.094 200.528 259.226 202 261.223 202C262.766 202 266.092 193.214 265.477 190.764C264.931 188.59 265.555 188.236 275.591 185.018C281.474 183.132 287.235 180.796 288.393 179.827C291.197 177.484 289.032 177.596 282.5 180.131ZM285.75 186.383C282.943 188.62 282.255 190 283.944 190C285.543 190 290.386 185.356 289.414 184.756C288.911 184.445 287.262 185.177 285.75 186.383ZM282 193.527C277.875 196.504 273.038 199.439 271.25 200.048C268.122 201.114 267.357 202.024 268.572 203.238C269.986 204.653 291.475 190.578 290.445 188.912C289.74 187.77 290.717 187.236 282 193.527ZM274.895 193.467C272.39 195.285 268.913 197.511 267.17 198.412C264.134 199.982 262.908 202 264.99 202C266.253 202 279.587 193.478 280.412 192.143C281.893 189.747 279.097 190.418 274.895 193.467Z" fill="#6D8076"/>
</svg>
